M48
; DRILL file {KiCad 8.0.8} date 2025-06-12T11:50:28+0200
; FORMAT={-:-/ absolute / inch / decimal}
; #@! TF.CreationDate,2025-06-12T11:50:28+02:00
; #@! TF.GenerationSoftware,Kicad,Pcbnew,8.0.8
; #@! TF.FileFunction,Plated,1,2,PTH
FMAT,2
INCH
; #@! TA.AperFunction,Plated,PTH,ViaDrill
T1C0.0118
; #@! TA.AperFunction,Plated,PTH,ViaDrill
T2C0.0157
; #@! TA.AperFunction,Plated,PTH,ComponentDrill
T3C0.0394
; #@! TA.AperFunction,Plated,PTH,ComponentDrill
T4C0.0866
%
G90
G05
T1
X1.5169Y-2.5437
X1.5327Y-3.0122
X1.5957Y-2.9531
X1.5996Y-3.0122
X1.6705Y-3.0122
X1.698Y-2.3665
X1.7295Y-3.0122
X1.7886Y-3.0122
X1.8398Y-3.6776
X1.8437Y-3.2957
X1.8476Y-3.0122
X1.8673Y-2.835
X1.8752Y-2.6539
X1.887Y-2.5594
X1.9067Y-2.835
X1.9067Y-3.0122
X1.9461Y-2.5358
X1.9461Y-2.835
X1.9461Y-3.7996
X1.9657Y-3.0122
X1.9815Y-3.587
X1.9854Y-2.835
X1.9894Y-3.1933
X1.9933Y-2.528
X2.0143Y-2.5689
X2.0248Y-3.0122
X2.0839Y-3.0122
X2.0843Y-2.6439
X2.0843Y-2.6839
X2.1043Y-2.6639
X2.1075Y-2.6067
X2.1193Y-2.4295
X2.1429Y-3.0122
X2.198Y-3.7366
X2.202Y-3.0122
X2.2043Y-2.5739
X2.2177Y-2.4925
X2.2374Y-3.5713
X2.2413Y-3.0122
X2.2531Y-2.4217
X2.2543Y-2.5739
X2.3004Y-3.0122
X2.3043Y-2.5739
X2.3161Y-2.4925
X2.3593Y-2.5739
X2.3594Y-2.4217
X2.3594Y-3.0122
X2.4093Y-2.5739
X2.4185Y-3.0122
X2.4264Y-2.4925
X2.4593Y-2.5739
X2.4776Y-3.0122
X2.4815Y-2.4177
X2.5011Y-2.4941
X2.5093Y-2.5739
X2.5209Y-3.4138
X2.5366Y-3.0122
X2.5593Y-2.5739
X2.5681Y-3.4768
X2.576Y-2.7366
X2.5799Y-2.6854
X2.5799Y-2.839
X2.5799Y-2.8902
X2.5943Y-2.5289
X2.5957Y-3.0122
X2.6035Y-2.5949
X2.6154Y-2.6382
X2.6232Y-2.5004
X2.6272Y-2.9098
X2.6393Y-3.8389
X2.6547Y-3.0122
X2.6793Y-2.4439
X2.6941Y-2.9138
X2.7138Y-3.0122
X2.7335Y-2.8744
X2.7343Y-2.4889
X2.7728Y-3.0122
X2.7925Y-2.8744
X2.7925Y-2.9138
X2.7925Y-2.9728
X2.8122Y-2.6776
X2.8398Y-2.3587
X2.8752Y-2.6776
X2.8988Y-3.4295
X2.9106Y-3.1618
X2.9303Y-2.6776
X2.9819Y-2.6774
X3.0366Y-2.6776
X3.0484Y-2.5594
T2
X2.6311Y-3.6224
X2.6359Y-3.5327
X2.7571Y-3.4925
X2.7689Y-3.2169
X2.8083Y-3.7406
T3
X1.5996Y-2.776
X1.5996Y-2.876
X1.6024Y-3.1535
X1.6024Y-3.2535
X1.6024Y-3.3535
X1.6024Y-3.5344
X1.6024Y-3.6344
X1.6024Y-3.7344
X2.9803Y-2.9191
X2.9803Y-3.0191
X2.9803Y-3.1191
X2.9803Y-3.2646
X2.9803Y-3.3646
X2.9803Y-3.4646
X2.9803Y-3.6539
X2.9803Y-3.7539
T4
X1.5917Y-2.4413
X1.5917Y-4.0161
X2.9697Y-2.4413
X2.9697Y-4.0161
M30
