%TF.GenerationSoftware,KiCad,Pcbnew,8.0.8*%
%TF.CreationDate,2025-06-12T11:50:17+02:00*%
%TF.ProjectId,LedDimmer,4c656444-696d-46d6-9572-2e6b69636164,rev?*%
%TF.SameCoordinates,Original*%
%TF.FileFunction,Copper,L2,Bot*%
%TF.FilePolarity,Positive*%
%FSLAX46Y46*%
G04 Gerber Fmt 4.6, Leading zero omitted, Abs format (unit mm)*
G04 Created by KiCad (PCBNEW 8.0.8) date 2025-06-12 11:50:17*
%MOMM*%
%LPD*%
G01*
G04 APERTURE LIST*
%TA.AperFunction,ComponentPad*%
%ADD10C,2.600000*%
%TD*%
%TA.AperFunction,ConnectorPad*%
%ADD11C,3.800000*%
%TD*%
%TA.AperFunction,ComponentPad*%
%ADD12R,1.700000X1.700000*%
%TD*%
%TA.AperFunction,ComponentPad*%
%ADD13O,1.700000X1.700000*%
%TD*%
%TA.AperFunction,ViaPad*%
%ADD14C,0.800000*%
%TD*%
%TA.AperFunction,ViaPad*%
%ADD15C,0.600000*%
%TD*%
%TA.AperFunction,Conductor*%
%ADD16C,0.200000*%
%TD*%
%TA.AperFunction,Conductor*%
%ADD17C,0.250000*%
%TD*%
%TA.AperFunction,Conductor*%
%ADD18C,0.500000*%
%TD*%
G04 APERTURE END LIST*
D10*
%TO.P,H4,1,1*%
%TO.N,GND*%
X40430000Y-62010000D03*
D11*
X40430000Y-62010000D03*
%TD*%
D12*
%TO.P,J5,1,Pin_1*%
%TO.N,GND*%
X75700000Y-88000000D03*
D13*
%TO.P,J5,2,Pin_2*%
%TO.N,Net-(J5-Pin_2)*%
X75700000Y-85460000D03*
%TO.P,J5,3,Pin_3*%
%TO.N,+3.3V*%
X75700000Y-82920000D03*
%TD*%
D10*
%TO.P,H2,1,1*%
%TO.N,GND*%
X75430000Y-102010000D03*
D11*
X75430000Y-102010000D03*
%TD*%
D12*
%TO.P,J1,1,Pin_1*%
%TO.N,Net-(J1-Pin_1)*%
X40700000Y-80100000D03*
D13*
%TO.P,J1,2,Pin_2*%
%TO.N,Net-(D2-K)*%
X40700000Y-82640000D03*
%TO.P,J1,3,Pin_3*%
%TO.N,GND*%
X40700000Y-85180000D03*
%TD*%
D12*
%TO.P,J2,1,Pin_1*%
%TO.N,GND*%
X40630000Y-73050000D03*
D13*
%TO.P,J2,2,Pin_2*%
%TO.N,/PWR*%
X40630000Y-70510000D03*
%TD*%
D10*
%TO.P,H3,1,1*%
%TO.N,GND*%
X40430000Y-102010000D03*
D11*
X40430000Y-102010000D03*
%TD*%
D12*
%TO.P,J6,1,Pin_1*%
%TO.N,GND*%
X75700000Y-95350000D03*
D13*
%TO.P,J6,2,Pin_2*%
%TO.N,Net-(J6-Pin_2)*%
X75700000Y-92810000D03*
%TD*%
D12*
%TO.P,J4,1,Pin_1*%
%TO.N,GND*%
X75700000Y-79225000D03*
D13*
%TO.P,J4,2,Pin_2*%
%TO.N,Net-(J4-Pin_2)*%
X75700000Y-76685000D03*
%TO.P,J4,3,Pin_3*%
%TO.N,+3.3V*%
X75700000Y-74145000D03*
%TD*%
D12*
%TO.P,J3,1,Pin_1*%
%TO.N,Net-(J3-Pin_1)*%
X40700000Y-89775000D03*
D13*
%TO.P,J3,2,Pin_2*%
%TO.N,Net-(D6-K)*%
X40700000Y-92315000D03*
%TO.P,J3,3,Pin_3*%
%TO.N,GND*%
X40700000Y-94855000D03*
%TD*%
D10*
%TO.P,H1,1,1*%
%TO.N,GND*%
X75430000Y-62010000D03*
D11*
X75430000Y-62010000D03*
%TD*%
D14*
%TO.N,/AN1*%
X70030000Y-88710000D03*
X66830000Y-92010000D03*
%TO.N,Net-(J6-Pin_2)*%
X71330000Y-95010000D03*
%TO.N,/AN0*%
X66951232Y-89731232D03*
X70330000Y-81710000D03*
D15*
%TO.N,GND*%
X56830000Y-90710000D03*
X55830000Y-94910000D03*
X46830000Y-83710000D03*
X58528000Y-65378000D03*
X52940000Y-67156000D03*
X56330000Y-63310000D03*
X68930000Y-76510000D03*
X66430000Y-67010000D03*
X65530000Y-72110000D03*
X59930000Y-61510000D03*
X49430000Y-64410000D03*
X65530000Y-73410000D03*
X65230000Y-88310000D03*
X68430000Y-74010000D03*
X59925000Y-65378000D03*
X70430000Y-76510000D03*
X61630000Y-63310000D03*
X68053000Y-62076000D03*
X52930000Y-76510000D03*
X53530000Y-66210000D03*
X53830000Y-61710000D03*
X66730000Y-73910000D03*
X48430000Y-72010000D03*
X57230000Y-61510000D03*
X45430000Y-76510000D03*
X59930000Y-76510000D03*
X69430000Y-73010000D03*
X77430000Y-65010000D03*
X53448000Y-67664000D03*
X72130000Y-59910000D03*
X47430000Y-72010000D03*
X70930000Y-74010000D03*
X75741274Y-68006948D03*
X40530000Y-75010000D03*
X49430000Y-72010000D03*
X50430000Y-72010000D03*
X65530000Y-68210000D03*
X57258000Y-65378000D03*
X64030000Y-86710000D03*
X43130000Y-60110000D03*
X50530000Y-81110000D03*
X50330000Y-91110000D03*
X70930000Y-73010000D03*
X70930000Y-75510000D03*
X67430000Y-76510000D03*
X66630000Y-63510000D03*
X77130000Y-68010000D03*
X63030000Y-61410000D03*
X73930000Y-80310000D03*
X38530000Y-64610000D03*
X58830000Y-63310000D03*
X54430000Y-76510000D03*
X61195000Y-65378000D03*
X46730000Y-93410000D03*
X49930000Y-76510000D03*
X69450000Y-63219000D03*
X48430000Y-76510000D03*
X40630000Y-76510000D03*
X63527775Y-63351322D03*
X65930000Y-76510000D03*
X56930000Y-76510000D03*
X65430000Y-69510000D03*
X58430000Y-76510000D03*
X50630000Y-64210000D03*
X71430000Y-68010000D03*
X47930000Y-65010000D03*
X43930000Y-76510000D03*
X38930000Y-76510000D03*
X62465000Y-65378000D03*
X51430000Y-76510000D03*
X55988000Y-65378000D03*
X74430000Y-68010000D03*
X63735000Y-65378000D03*
X61430000Y-76510000D03*
X52940000Y-68172000D03*
X73630000Y-87110000D03*
X65005000Y-65378000D03*
X66130000Y-65910000D03*
X42430000Y-76510000D03*
X64430000Y-76510000D03*
X47630000Y-67410000D03*
X49430000Y-96510000D03*
X67037000Y-97509000D03*
X62930000Y-76510000D03*
X46930000Y-76510000D03*
X55930000Y-76510000D03*
X73030000Y-68010000D03*
%TO.N,/FB*%
X51162000Y-65251000D03*
X65894000Y-64235000D03*
%TD*%
D16*
%TO.N,/AN1*%
X70030000Y-88710000D02*
X70030000Y-88810000D01*
X70030000Y-88810000D02*
X66830000Y-92010000D01*
D17*
%TO.N,/AN0*%
X70330000Y-86352464D02*
X70330000Y-81710000D01*
X66951232Y-89731232D02*
X70330000Y-86352464D01*
%TO.N,Net-(J6-Pin_2)*%
X73530000Y-92810000D02*
X75700000Y-92810000D01*
X71330000Y-95010000D02*
X73530000Y-92810000D01*
D18*
%TO.N,+3.3V*%
X75700000Y-74145000D02*
X77530000Y-75975000D01*
X77530000Y-75975000D02*
X77530000Y-81090000D01*
X77530000Y-81090000D02*
X75700000Y-82920000D01*
D16*
%TO.N,/FB*%
X53230000Y-62510000D02*
X51162000Y-64578000D01*
X64169000Y-62510000D02*
X53230000Y-62510000D01*
X65894000Y-64235000D02*
X64169000Y-62510000D01*
X51162000Y-64578000D02*
X51162000Y-65251000D01*
%TD*%
%TA.AperFunction,Conductor*%
%TO.N,GND*%
G36*
X39590967Y-102726602D02*
G01*
X39713398Y-102849033D01*
X39847262Y-102946290D01*
X38916564Y-103876987D01*
X38916565Y-103876989D01*
X39141461Y-104040385D01*
X39141479Y-104040397D01*
X39406109Y-104185878D01*
X39406117Y-104185882D01*
X39620364Y-104270708D01*
X39675450Y-104313689D01*
X39698553Y-104379628D01*
X39682340Y-104447590D01*
X39631957Y-104495998D01*
X39574717Y-104510000D01*
X38054000Y-104510000D01*
X37986961Y-104490315D01*
X37941206Y-104437511D01*
X37930000Y-104386000D01*
X37930000Y-102865258D01*
X37949685Y-102798219D01*
X38002489Y-102752464D01*
X38071647Y-102742520D01*
X38135203Y-102771545D01*
X38171931Y-102826940D01*
X38194125Y-102895247D01*
X38194127Y-102895252D01*
X38322704Y-103168491D01*
X38322707Y-103168497D01*
X38484516Y-103423469D01*
X38565311Y-103521133D01*
X39493708Y-102592736D01*
X39590967Y-102726602D01*
G37*
%TD.AperFunction*%
%TA.AperFunction,Conductor*%
G36*
X74641756Y-59529685D02*
G01*
X74687511Y-59582489D01*
X74697455Y-59651647D01*
X74668430Y-59715203D01*
X74620364Y-59749292D01*
X74406117Y-59834117D01*
X74406109Y-59834121D01*
X74141476Y-59979604D01*
X74141471Y-59979607D01*
X73916565Y-60143010D01*
X73916564Y-60143011D01*
X74847262Y-61073709D01*
X74713398Y-61170967D01*
X74590967Y-61293398D01*
X74493709Y-61427262D01*
X73565311Y-60498864D01*
X73484520Y-60596525D01*
X73484518Y-60596528D01*
X73322707Y-60851502D01*
X73322704Y-60851508D01*
X73194127Y-61124747D01*
X73194125Y-61124752D01*
X73100805Y-61411959D01*
X73044216Y-61708609D01*
X73044215Y-61708616D01*
X73025255Y-62009994D01*
X73025255Y-62010005D01*
X73044215Y-62311383D01*
X73044216Y-62311390D01*
X73100805Y-62608040D01*
X73194125Y-62895247D01*
X73194127Y-62895252D01*
X73322704Y-63168491D01*
X73322707Y-63168497D01*
X73484516Y-63423469D01*
X73565311Y-63521133D01*
X74493708Y-62592736D01*
X74590967Y-62726602D01*
X74713398Y-62849033D01*
X74847262Y-62946290D01*
X73916564Y-63876987D01*
X73916565Y-63876989D01*
X74141461Y-64040385D01*
X74141479Y-64040397D01*
X74406109Y-64185878D01*
X74406117Y-64185882D01*
X74686889Y-64297047D01*
X74686892Y-64297048D01*
X74979399Y-64372150D01*
X75278995Y-64409999D01*
X75279007Y-64410000D01*
X75580993Y-64410000D01*
X75581004Y-64409999D01*
X75880600Y-64372150D01*
X76173107Y-64297048D01*
X76173110Y-64297047D01*
X76453882Y-64185882D01*
X76453890Y-64185878D01*
X76718520Y-64040397D01*
X76718530Y-64040390D01*
X76943433Y-63876987D01*
X76943434Y-63876987D01*
X76012737Y-62946290D01*
X76146602Y-62849033D01*
X76269033Y-62726602D01*
X76366290Y-62592737D01*
X77294687Y-63521134D01*
X77375486Y-63423464D01*
X77537292Y-63168497D01*
X77537295Y-63168491D01*
X77665872Y-62895252D01*
X77665874Y-62895247D01*
X77688069Y-62826940D01*
X77727506Y-62769265D01*
X77791865Y-62742066D01*
X77860711Y-62753981D01*
X77912187Y-62801225D01*
X77930000Y-62865258D01*
X77930000Y-75014270D01*
X77910315Y-75081309D01*
X77857511Y-75127064D01*
X77788353Y-75137008D01*
X77724797Y-75107983D01*
X77718319Y-75101951D01*
X77072869Y-74456501D01*
X77039384Y-74395178D01*
X77037022Y-74358012D01*
X77038305Y-74343354D01*
X77055659Y-74145000D01*
X77035063Y-73909592D01*
X76973903Y-73681337D01*
X76874035Y-73467171D01*
X76862082Y-73450099D01*
X76738494Y-73273597D01*
X76571402Y-73106506D01*
X76571395Y-73106501D01*
X76377834Y-72970967D01*
X76377830Y-72970965D01*
X76377828Y-72970964D01*
X76163663Y-72871097D01*
X76163659Y-72871096D01*
X76163655Y-72871094D01*
X75935413Y-72809938D01*
X75935403Y-72809936D01*
X75700001Y-72789341D01*
X75699999Y-72789341D01*
X75464596Y-72809936D01*
X75464586Y-72809938D01*
X75236344Y-72871094D01*
X75236335Y-72871098D01*
X75022171Y-72970964D01*
X75022169Y-72970965D01*
X74828597Y-73106505D01*
X74661505Y-73273597D01*
X74525965Y-73467169D01*
X74525964Y-73467171D01*
X74426098Y-73681335D01*
X74426094Y-73681344D01*
X74364938Y-73909586D01*
X74364936Y-73909596D01*
X74344341Y-74144999D01*
X74344341Y-74145000D01*
X74364936Y-74380403D01*
X74364938Y-74380413D01*
X74426094Y-74608655D01*
X74426096Y-74608659D01*
X74426097Y-74608663D01*
X74525965Y-74822830D01*
X74525967Y-74822834D01*
X74661501Y-75016395D01*
X74661506Y-75016402D01*
X74828597Y-75183493D01*
X74828603Y-75183498D01*
X75014158Y-75313425D01*
X75057783Y-75368002D01*
X75064977Y-75437500D01*
X75033454Y-75499855D01*
X75014158Y-75516575D01*
X74828597Y-75646505D01*
X74661505Y-75813597D01*
X74525965Y-76007169D01*
X74525964Y-76007171D01*
X74426098Y-76221335D01*
X74426094Y-76221344D01*
X74364938Y-76449586D01*
X74364936Y-76449596D01*
X74344341Y-76684999D01*
X74344341Y-76685000D01*
X74364936Y-76920403D01*
X74364938Y-76920413D01*
X74426094Y-77148655D01*
X74426096Y-77148659D01*
X74426097Y-77148663D01*
X74525965Y-77362830D01*
X74525967Y-77362834D01*
X74661501Y-77556395D01*
X74661506Y-77556402D01*
X74783818Y-77678714D01*
X74817303Y-77740037D01*
X74812319Y-77809729D01*
X74770447Y-77865662D01*
X74739471Y-77882577D01*
X74607912Y-77931646D01*
X74607906Y-77931649D01*
X74492812Y-78017809D01*
X74492809Y-78017812D01*
X74406649Y-78132906D01*
X74406645Y-78132913D01*
X74356403Y-78267620D01*
X74356401Y-78267627D01*
X74350000Y-78327155D01*
X74350000Y-78975000D01*
X75266988Y-78975000D01*
X75234075Y-79032007D01*
X75200000Y-79159174D01*
X75200000Y-79290826D01*
X75234075Y-79417993D01*
X75266988Y-79475000D01*
X74350000Y-79475000D01*
X74350000Y-80122844D01*
X74356401Y-80182372D01*
X74356403Y-80182379D01*
X74406645Y-80317086D01*
X74406649Y-80317093D01*
X74492809Y-80432187D01*
X74492812Y-80432190D01*
X74607906Y-80518350D01*
X74607913Y-80518354D01*
X74742620Y-80568596D01*
X74742627Y-80568598D01*
X74802155Y-80574999D01*
X74802172Y-80575000D01*
X75450000Y-80575000D01*
X75450000Y-79658012D01*
X75507007Y-79690925D01*
X75634174Y-79725000D01*
X75765826Y-79725000D01*
X75892993Y-79690925D01*
X75950000Y-79658012D01*
X75950000Y-80575000D01*
X76597828Y-80575000D01*
X76597841Y-80574999D01*
X76642243Y-80570225D01*
X76711003Y-80582629D01*
X76762141Y-80630239D01*
X76779500Y-80693514D01*
X76779500Y-80727769D01*
X76759815Y-80794808D01*
X76743181Y-80815450D01*
X76011500Y-81547130D01*
X75950177Y-81580615D01*
X75913012Y-81582977D01*
X75700002Y-81564341D01*
X75699999Y-81564341D01*
X75464596Y-81584936D01*
X75464586Y-81584938D01*
X75236344Y-81646094D01*
X75236335Y-81646098D01*
X75022171Y-81745964D01*
X75022169Y-81745965D01*
X74828597Y-81881505D01*
X74661505Y-82048597D01*
X74525965Y-82242169D01*
X74525964Y-82242171D01*
X74426098Y-82456335D01*
X74426094Y-82456344D01*
X74364938Y-82684586D01*
X74364936Y-82684596D01*
X74344341Y-82919999D01*
X74344341Y-82920000D01*
X74364936Y-83155403D01*
X74364938Y-83155413D01*
X74426094Y-83383655D01*
X74426096Y-83383659D01*
X74426097Y-83383663D01*
X74485663Y-83511402D01*
X74525965Y-83597830D01*
X74525967Y-83597834D01*
X74661501Y-83791395D01*
X74661506Y-83791402D01*
X74828597Y-83958493D01*
X74828603Y-83958498D01*
X75014158Y-84088425D01*
X75057783Y-84143002D01*
X75064977Y-84212500D01*
X75033454Y-84274855D01*
X75014158Y-84291575D01*
X74828597Y-84421505D01*
X74661505Y-84588597D01*
X74525965Y-84782169D01*
X74525964Y-84782171D01*
X74426098Y-84996335D01*
X74426094Y-84996344D01*
X74364938Y-85224586D01*
X74364936Y-85224596D01*
X74344341Y-85459999D01*
X74344341Y-85460000D01*
X74364936Y-85695403D01*
X74364938Y-85695413D01*
X74426094Y-85923655D01*
X74426096Y-85923659D01*
X74426097Y-85923663D01*
X74481284Y-86042011D01*
X74525965Y-86137830D01*
X74525967Y-86137834D01*
X74582174Y-86218105D01*
X74661501Y-86331396D01*
X74661506Y-86331402D01*
X74783818Y-86453714D01*
X74817303Y-86515037D01*
X74812319Y-86584729D01*
X74770447Y-86640662D01*
X74739471Y-86657577D01*
X74607912Y-86706646D01*
X74607906Y-86706649D01*
X74492812Y-86792809D01*
X74492809Y-86792812D01*
X74406649Y-86907906D01*
X74406645Y-86907913D01*
X74356403Y-87042620D01*
X74356401Y-87042627D01*
X74350000Y-87102155D01*
X74350000Y-87750000D01*
X75266988Y-87750000D01*
X75234075Y-87807007D01*
X75200000Y-87934174D01*
X75200000Y-88065826D01*
X75234075Y-88192993D01*
X75266988Y-88250000D01*
X74350000Y-88250000D01*
X74350000Y-88897844D01*
X74356401Y-88957372D01*
X74356403Y-88957379D01*
X74406645Y-89092086D01*
X74406649Y-89092093D01*
X74492809Y-89207187D01*
X74492812Y-89207190D01*
X74607906Y-89293350D01*
X74607913Y-89293354D01*
X74742620Y-89343596D01*
X74742627Y-89343598D01*
X74802155Y-89349999D01*
X74802172Y-89350000D01*
X75450000Y-89350000D01*
X75450000Y-88433012D01*
X75507007Y-88465925D01*
X75634174Y-88500000D01*
X75765826Y-88500000D01*
X75892993Y-88465925D01*
X75950000Y-88433012D01*
X75950000Y-89350000D01*
X76597828Y-89350000D01*
X76597844Y-89349999D01*
X76657372Y-89343598D01*
X76657379Y-89343596D01*
X76792086Y-89293354D01*
X76792093Y-89293350D01*
X76907187Y-89207190D01*
X76907190Y-89207187D01*
X76993350Y-89092093D01*
X76993354Y-89092086D01*
X77043596Y-88957379D01*
X77043598Y-88957372D01*
X77049999Y-88897844D01*
X77050000Y-88897827D01*
X77050000Y-88250000D01*
X76133012Y-88250000D01*
X76165925Y-88192993D01*
X76200000Y-88065826D01*
X76200000Y-87934174D01*
X76165925Y-87807007D01*
X76133012Y-87750000D01*
X77050000Y-87750000D01*
X77050000Y-87102172D01*
X77049999Y-87102155D01*
X77043598Y-87042627D01*
X77043596Y-87042620D01*
X76993354Y-86907913D01*
X76993350Y-86907906D01*
X76907190Y-86792812D01*
X76907187Y-86792809D01*
X76792093Y-86706649D01*
X76792088Y-86706646D01*
X76660528Y-86657577D01*
X76604595Y-86615705D01*
X76580178Y-86550241D01*
X76595030Y-86481968D01*
X76616175Y-86453720D01*
X76738495Y-86331401D01*
X76874035Y-86137830D01*
X76973903Y-85923663D01*
X77035063Y-85695408D01*
X77055659Y-85460000D01*
X77035063Y-85224592D01*
X76973903Y-84996337D01*
X76874035Y-84782171D01*
X76802495Y-84680000D01*
X76738494Y-84588597D01*
X76571402Y-84421506D01*
X76571396Y-84421501D01*
X76385842Y-84291575D01*
X76342217Y-84236998D01*
X76335023Y-84167500D01*
X76366546Y-84105145D01*
X76385842Y-84088425D01*
X76495159Y-84011880D01*
X76571401Y-83958495D01*
X76738495Y-83791401D01*
X76874035Y-83597830D01*
X76973903Y-83383663D01*
X77035063Y-83155408D01*
X77055659Y-82920000D01*
X77037022Y-82706985D01*
X77050788Y-82638486D01*
X77072866Y-82608500D01*
X77718320Y-81963047D01*
X77779642Y-81929563D01*
X77849334Y-81934547D01*
X77905267Y-81976419D01*
X77929684Y-82041883D01*
X77930000Y-82050729D01*
X77930000Y-101154741D01*
X77910315Y-101221780D01*
X77857511Y-101267535D01*
X77788353Y-101277479D01*
X77724797Y-101248454D01*
X77688069Y-101193059D01*
X77665874Y-101124752D01*
X77665872Y-101124747D01*
X77537295Y-100851508D01*
X77537292Y-100851502D01*
X77375483Y-100596530D01*
X77294686Y-100498864D01*
X76366289Y-101427261D01*
X76269033Y-101293398D01*
X76146602Y-101170967D01*
X76012736Y-101073709D01*
X76943434Y-100143011D01*
X76943433Y-100143009D01*
X76718538Y-99979614D01*
X76718520Y-99979602D01*
X76453890Y-99834121D01*
X76453882Y-99834117D01*
X76173110Y-99722952D01*
X76173107Y-99722951D01*
X75880600Y-99647849D01*
X75581004Y-99610000D01*
X75278995Y-99610000D01*
X74979399Y-99647849D01*
X74686892Y-99722951D01*
X74686889Y-99722952D01*
X74406117Y-99834117D01*
X74406109Y-99834121D01*
X74141476Y-99979604D01*
X74141471Y-99979607D01*
X73916565Y-100143010D01*
X73916564Y-100143011D01*
X74847262Y-101073709D01*
X74713398Y-101170967D01*
X74590967Y-101293398D01*
X74493709Y-101427262D01*
X73565311Y-100498864D01*
X73484520Y-100596525D01*
X73484518Y-100596528D01*
X73322707Y-100851502D01*
X73322704Y-100851508D01*
X73194127Y-101124747D01*
X73194125Y-101124752D01*
X73100805Y-101411959D01*
X73044216Y-101708609D01*
X73044215Y-101708616D01*
X73025255Y-102009994D01*
X73025255Y-102010005D01*
X73044215Y-102311383D01*
X73044216Y-102311390D01*
X73100805Y-102608040D01*
X73194125Y-102895247D01*
X73194127Y-102895252D01*
X73322704Y-103168491D01*
X73322707Y-103168497D01*
X73484516Y-103423469D01*
X73565311Y-103521133D01*
X74493708Y-102592736D01*
X74590967Y-102726602D01*
X74713398Y-102849033D01*
X74847262Y-102946290D01*
X73916564Y-103876987D01*
X73916565Y-103876989D01*
X74141461Y-104040385D01*
X74141479Y-104040397D01*
X74406109Y-104185878D01*
X74406117Y-104185882D01*
X74620364Y-104270708D01*
X74675450Y-104313689D01*
X74698553Y-104379628D01*
X74682340Y-104447590D01*
X74631957Y-104495998D01*
X74574717Y-104510000D01*
X41285283Y-104510000D01*
X41218244Y-104490315D01*
X41172489Y-104437511D01*
X41162545Y-104368353D01*
X41191570Y-104304797D01*
X41239636Y-104270708D01*
X41453882Y-104185882D01*
X41453890Y-104185878D01*
X41718520Y-104040397D01*
X41718530Y-104040390D01*
X41943433Y-103876987D01*
X41943434Y-103876987D01*
X41012737Y-102946290D01*
X41146602Y-102849033D01*
X41269033Y-102726602D01*
X41366290Y-102592737D01*
X42294687Y-103521134D01*
X42375486Y-103423464D01*
X42537292Y-103168497D01*
X42537295Y-103168491D01*
X42665872Y-102895252D01*
X42665874Y-102895247D01*
X42759194Y-102608040D01*
X42815783Y-102311390D01*
X42815784Y-102311383D01*
X42834745Y-102010005D01*
X42834745Y-102009994D01*
X42815784Y-101708616D01*
X42815783Y-101708609D01*
X42759194Y-101411959D01*
X42665874Y-101124752D01*
X42665872Y-101124747D01*
X42537295Y-100851508D01*
X42537292Y-100851502D01*
X42375483Y-100596530D01*
X42294686Y-100498864D01*
X41366289Y-101427261D01*
X41269033Y-101293398D01*
X41146602Y-101170967D01*
X41012736Y-101073709D01*
X41943434Y-100143011D01*
X41943433Y-100143009D01*
X41718538Y-99979614D01*
X41718520Y-99979602D01*
X41453890Y-99834121D01*
X41453882Y-99834117D01*
X41173110Y-99722952D01*
X41173107Y-99722951D01*
X40880600Y-99647849D01*
X40581004Y-99610000D01*
X40278995Y-99610000D01*
X39979399Y-99647849D01*
X39686892Y-99722951D01*
X39686889Y-99722952D01*
X39406117Y-99834117D01*
X39406109Y-99834121D01*
X39141476Y-99979604D01*
X39141471Y-99979607D01*
X38916565Y-100143010D01*
X38916564Y-100143011D01*
X39847262Y-101073709D01*
X39713398Y-101170967D01*
X39590967Y-101293398D01*
X39493709Y-101427262D01*
X38565311Y-100498864D01*
X38484520Y-100596525D01*
X38484518Y-100596528D01*
X38322707Y-100851502D01*
X38322704Y-100851508D01*
X38194127Y-101124747D01*
X38194125Y-101124752D01*
X38171931Y-101193059D01*
X38132493Y-101250735D01*
X38068135Y-101277933D01*
X37999288Y-101266018D01*
X37947813Y-101218774D01*
X37930000Y-101154741D01*
X37930000Y-92314999D01*
X39344341Y-92314999D01*
X39344341Y-92315000D01*
X39364936Y-92550403D01*
X39364938Y-92550413D01*
X39426094Y-92778655D01*
X39426096Y-92778659D01*
X39426097Y-92778663D01*
X39440710Y-92810000D01*
X39525965Y-92992830D01*
X39525967Y-92992834D01*
X39661501Y-93186395D01*
X39661506Y-93186402D01*
X39828597Y-93353493D01*
X39828603Y-93353498D01*
X40014594Y-93483730D01*
X40058219Y-93538307D01*
X40065413Y-93607805D01*
X40033890Y-93670160D01*
X40014595Y-93686880D01*
X39828922Y-93816890D01*
X39828920Y-93816891D01*
X39661891Y-93983920D01*
X39661886Y-93983926D01*
X39526400Y-94177420D01*
X39526399Y-94177422D01*
X39426570Y-94391507D01*
X39426567Y-94391513D01*
X39369364Y-94604999D01*
X39369364Y-94605000D01*
X40266988Y-94605000D01*
X40234075Y-94662007D01*
X40200000Y-94789174D01*
X40200000Y-94920826D01*
X40234075Y-95047993D01*
X40266988Y-95105000D01*
X39369364Y-95105000D01*
X39426567Y-95318486D01*
X39426570Y-95318492D01*
X39526399Y-95532578D01*
X39661894Y-95726082D01*
X39828917Y-95893105D01*
X40022421Y-96028600D01*
X40236507Y-96128429D01*
X40236516Y-96128433D01*
X40450000Y-96185634D01*
X40450000Y-95288012D01*
X40507007Y-95320925D01*
X40634174Y-95355000D01*
X40765826Y-95355000D01*
X40892993Y-95320925D01*
X40950000Y-95288012D01*
X40950000Y-96185633D01*
X41163483Y-96128433D01*
X41163492Y-96128429D01*
X41377578Y-96028600D01*
X41571082Y-95893105D01*
X41738105Y-95726082D01*
X41873600Y-95532578D01*
X41973429Y-95318492D01*
X41973432Y-95318486D01*
X42030636Y-95105000D01*
X41133012Y-95105000D01*
X41165925Y-95047993D01*
X41176105Y-95010000D01*
X70424540Y-95010000D01*
X70444326Y-95198256D01*
X70444327Y-95198259D01*
X70502818Y-95378277D01*
X70502821Y-95378284D01*
X70597467Y-95542216D01*
X70700826Y-95657007D01*
X70724129Y-95682888D01*
X70877265Y-95794148D01*
X70877270Y-95794151D01*
X71050192Y-95871142D01*
X71050197Y-95871144D01*
X71235354Y-95910500D01*
X71235355Y-95910500D01*
X71424644Y-95910500D01*
X71424646Y-95910500D01*
X71609803Y-95871144D01*
X71782730Y-95794151D01*
X71935871Y-95682888D01*
X72062533Y-95542216D01*
X72157179Y-95378284D01*
X72215674Y-95198256D01*
X72233321Y-95030345D01*
X72259905Y-94965732D01*
X72268952Y-94955636D01*
X73752771Y-93471819D01*
X73814094Y-93438334D01*
X73840452Y-93435500D01*
X74424773Y-93435500D01*
X74491812Y-93455185D01*
X74526348Y-93488377D01*
X74661501Y-93681396D01*
X74661506Y-93681402D01*
X74783818Y-93803714D01*
X74817303Y-93865037D01*
X74812319Y-93934729D01*
X74770447Y-93990662D01*
X74739471Y-94007577D01*
X74607912Y-94056646D01*
X74607906Y-94056649D01*
X74492812Y-94142809D01*
X74492809Y-94142812D01*
X74406649Y-94257906D01*
X74406645Y-94257913D01*
X74356403Y-94392620D01*
X74356401Y-94392627D01*
X74350000Y-94452155D01*
X74350000Y-95100000D01*
X75266988Y-95100000D01*
X75234075Y-95157007D01*
X75200000Y-95284174D01*
X75200000Y-95415826D01*
X75234075Y-95542993D01*
X75266988Y-95600000D01*
X74350000Y-95600000D01*
X74350000Y-96247844D01*
X74356401Y-96307372D01*
X74356403Y-96307379D01*
X74406645Y-96442086D01*
X74406649Y-96442093D01*
X74492809Y-96557187D01*
X74492812Y-96557190D01*
X74607906Y-96643350D01*
X74607913Y-96643354D01*
X74742620Y-96693596D01*
X74742627Y-96693598D01*
X74802155Y-96699999D01*
X74802172Y-96700000D01*
X75450000Y-96700000D01*
X75450000Y-95783012D01*
X75507007Y-95815925D01*
X75634174Y-95850000D01*
X75765826Y-95850000D01*
X75892993Y-95815925D01*
X75950000Y-95783012D01*
X75950000Y-96700000D01*
X76597828Y-96700000D01*
X76597844Y-96699999D01*
X76657372Y-96693598D01*
X76657379Y-96693596D01*
X76792086Y-96643354D01*
X76792093Y-96643350D01*
X76907187Y-96557190D01*
X76907190Y-96557187D01*
X76993350Y-96442093D01*
X76993354Y-96442086D01*
X77043596Y-96307379D01*
X77043598Y-96307372D01*
X77049999Y-96247844D01*
X77050000Y-96247827D01*
X77050000Y-95600000D01*
X76133012Y-95600000D01*
X76165925Y-95542993D01*
X76200000Y-95415826D01*
X76200000Y-95284174D01*
X76165925Y-95157007D01*
X76133012Y-95100000D01*
X77050000Y-95100000D01*
X77050000Y-94452172D01*
X77049999Y-94452155D01*
X77043598Y-94392627D01*
X77043596Y-94392620D01*
X76993354Y-94257913D01*
X76993350Y-94257906D01*
X76907190Y-94142812D01*
X76907187Y-94142809D01*
X76792093Y-94056649D01*
X76792088Y-94056646D01*
X76660528Y-94007577D01*
X76604595Y-93965705D01*
X76580178Y-93900241D01*
X76595030Y-93831968D01*
X76616175Y-93803720D01*
X76738495Y-93681401D01*
X76874035Y-93487830D01*
X76973903Y-93273663D01*
X77035063Y-93045408D01*
X77055659Y-92810000D01*
X77035063Y-92574592D01*
X76973903Y-92346337D01*
X76874035Y-92132171D01*
X76873652Y-92131623D01*
X76738494Y-91938597D01*
X76571402Y-91771506D01*
X76571395Y-91771501D01*
X76377834Y-91635967D01*
X76377830Y-91635965D01*
X76377828Y-91635964D01*
X76163663Y-91536097D01*
X76163659Y-91536096D01*
X76163655Y-91536094D01*
X75935413Y-91474938D01*
X75935403Y-91474936D01*
X75700001Y-91454341D01*
X75699999Y-91454341D01*
X75464596Y-91474936D01*
X75464586Y-91474938D01*
X75236344Y-91536094D01*
X75236335Y-91536098D01*
X75022171Y-91635964D01*
X75022169Y-91635965D01*
X74828597Y-91771505D01*
X74661505Y-91938597D01*
X74526348Y-92131623D01*
X74471771Y-92175248D01*
X74424773Y-92184500D01*
X73468389Y-92184500D01*
X73407971Y-92196518D01*
X73364743Y-92205116D01*
X73347546Y-92208537D01*
X73328420Y-92216460D01*
X73328419Y-92216459D01*
X73233715Y-92255686D01*
X73223627Y-92262428D01*
X73223626Y-92262429D01*
X73131268Y-92324140D01*
X73109074Y-92346335D01*
X73044142Y-92411267D01*
X73044139Y-92411270D01*
X71382229Y-94073181D01*
X71320906Y-94106666D01*
X71294548Y-94109500D01*
X71235354Y-94109500D01*
X71202897Y-94116398D01*
X71050197Y-94148855D01*
X71050192Y-94148857D01*
X70877270Y-94225848D01*
X70877265Y-94225851D01*
X70724129Y-94337111D01*
X70597466Y-94477785D01*
X70502821Y-94641715D01*
X70502818Y-94641722D01*
X70444327Y-94821740D01*
X70444326Y-94821744D01*
X70424540Y-95010000D01*
X41176105Y-95010000D01*
X41200000Y-94920826D01*
X41200000Y-94789174D01*
X41165925Y-94662007D01*
X41133012Y-94605000D01*
X42030636Y-94605000D01*
X42030635Y-94604999D01*
X41973432Y-94391513D01*
X41973429Y-94391507D01*
X41873600Y-94177422D01*
X41873599Y-94177420D01*
X41738113Y-93983926D01*
X41738108Y-93983920D01*
X41571078Y-93816890D01*
X41385405Y-93686879D01*
X41341780Y-93632302D01*
X41334588Y-93562804D01*
X41366110Y-93500449D01*
X41385406Y-93483730D01*
X41402417Y-93471819D01*
X41571401Y-93353495D01*
X41738495Y-93186401D01*
X41874035Y-92992830D01*
X41973903Y-92778663D01*
X42035063Y-92550408D01*
X42055659Y-92315000D01*
X42035063Y-92079592D01*
X42016416Y-92010000D01*
X65924540Y-92010000D01*
X65944326Y-92198256D01*
X65944327Y-92198259D01*
X66002818Y-92378277D01*
X66002821Y-92378284D01*
X66097467Y-92542216D01*
X66224129Y-92682888D01*
X66377265Y-92794148D01*
X66377270Y-92794151D01*
X66550192Y-92871142D01*
X66550197Y-92871144D01*
X66735354Y-92910500D01*
X66735355Y-92910500D01*
X66924644Y-92910500D01*
X66924646Y-92910500D01*
X67109803Y-92871144D01*
X67282730Y-92794151D01*
X67435871Y-92682888D01*
X67562533Y-92542216D01*
X67657179Y-92378284D01*
X67715674Y-92198256D01*
X67735460Y-92010000D01*
X67735460Y-92009997D01*
X67735460Y-92005136D01*
X67755145Y-91938097D01*
X67771779Y-91917455D01*
X70042416Y-89646819D01*
X70103739Y-89613334D01*
X70118240Y-89611774D01*
X70118178Y-89611180D01*
X70124644Y-89610500D01*
X70124646Y-89610500D01*
X70309803Y-89571144D01*
X70482730Y-89494151D01*
X70635871Y-89382888D01*
X70762533Y-89242216D01*
X70857179Y-89078284D01*
X70915674Y-88898256D01*
X70935460Y-88710000D01*
X70915674Y-88521744D01*
X70857179Y-88341716D01*
X70762533Y-88177784D01*
X70635871Y-88037112D01*
X70635870Y-88037111D01*
X70482734Y-87925851D01*
X70482729Y-87925848D01*
X70309807Y-87848857D01*
X70309802Y-87848855D01*
X70164001Y-87817865D01*
X70124646Y-87809500D01*
X70056916Y-87809500D01*
X69989877Y-87789815D01*
X69944122Y-87737011D01*
X69934178Y-87667853D01*
X69963203Y-87604297D01*
X69969235Y-87597819D01*
X70815855Y-86751200D01*
X70815855Y-86751199D01*
X70815858Y-86751197D01*
X70884312Y-86648749D01*
X70931463Y-86534915D01*
X70947615Y-86453714D01*
X70955501Y-86414072D01*
X70955501Y-86285747D01*
X70955500Y-86285721D01*
X70955500Y-82408687D01*
X70975185Y-82341648D01*
X70987350Y-82325715D01*
X71005891Y-82305122D01*
X71062533Y-82242216D01*
X71157179Y-82078284D01*
X71215674Y-81898256D01*
X71235460Y-81710000D01*
X71215674Y-81521744D01*
X71157179Y-81341716D01*
X71062533Y-81177784D01*
X70935871Y-81037112D01*
X70881877Y-80997883D01*
X70782734Y-80925851D01*
X70782729Y-80925848D01*
X70609807Y-80848857D01*
X70609802Y-80848855D01*
X70464001Y-80817865D01*
X70424646Y-80809500D01*
X70235354Y-80809500D01*
X70207361Y-80815450D01*
X70050197Y-80848855D01*
X70050192Y-80848857D01*
X69877270Y-80925848D01*
X69877265Y-80925851D01*
X69724129Y-81037111D01*
X69597466Y-81177785D01*
X69502821Y-81341715D01*
X69502818Y-81341722D01*
X69446303Y-81515659D01*
X69444326Y-81521744D01*
X69424540Y-81710000D01*
X69444326Y-81898256D01*
X69444327Y-81898259D01*
X69502818Y-82078277D01*
X69502821Y-82078284D01*
X69597467Y-82242216D01*
X69640772Y-82290310D01*
X69672650Y-82325715D01*
X69702880Y-82388706D01*
X69704500Y-82408687D01*
X69704500Y-86042011D01*
X69684815Y-86109050D01*
X69668181Y-86129692D01*
X67003461Y-88794413D01*
X66942138Y-88827898D01*
X66915780Y-88830732D01*
X66856586Y-88830732D01*
X66824129Y-88837630D01*
X66671429Y-88870087D01*
X66671424Y-88870089D01*
X66498502Y-88947080D01*
X66498497Y-88947083D01*
X66345361Y-89058343D01*
X66218698Y-89199017D01*
X66124053Y-89362947D01*
X66124050Y-89362954D01*
X66081423Y-89494148D01*
X66065558Y-89542976D01*
X66045772Y-89731232D01*
X66065558Y-89919488D01*
X66065559Y-89919491D01*
X66124050Y-90099509D01*
X66124053Y-90099516D01*
X66218699Y-90263448D01*
X66345361Y-90404120D01*
X66498497Y-90515380D01*
X66498502Y-90515383D01*
X66671424Y-90592374D01*
X66671429Y-90592376D01*
X66856586Y-90631732D01*
X66856587Y-90631732D01*
X67045864Y-90631732D01*
X67045878Y-90631732D01*
X67045891Y-90631729D01*
X67047545Y-90631555D01*
X67048514Y-90631732D01*
X67052377Y-90631732D01*
X67052377Y-90632437D01*
X67116276Y-90644113D01*
X67167308Y-90691836D01*
X67184438Y-90759574D01*
X67162227Y-90825819D01*
X67148209Y-90842555D01*
X67041056Y-90949708D01*
X66917582Y-91073182D01*
X66856262Y-91106666D01*
X66829903Y-91109500D01*
X66735354Y-91109500D01*
X66702897Y-91116398D01*
X66550197Y-91148855D01*
X66550192Y-91148857D01*
X66377270Y-91225848D01*
X66377265Y-91225851D01*
X66224129Y-91337111D01*
X66097466Y-91477785D01*
X66002821Y-91641715D01*
X66002818Y-91641722D01*
X65960649Y-91771506D01*
X65944326Y-91821744D01*
X65924540Y-92010000D01*
X42016416Y-92010000D01*
X41973903Y-91851337D01*
X41874035Y-91637171D01*
X41803263Y-91536098D01*
X41738496Y-91443600D01*
X41738495Y-91443599D01*
X41616567Y-91321671D01*
X41583084Y-91260351D01*
X41588068Y-91190659D01*
X41629939Y-91134725D01*
X41660915Y-91117810D01*
X41792331Y-91068796D01*
X41907546Y-90982546D01*
X41993796Y-90867331D01*
X42044091Y-90732483D01*
X42050500Y-90672873D01*
X42050499Y-88877128D01*
X42044091Y-88817517D01*
X41993796Y-88682669D01*
X41993795Y-88682668D01*
X41993793Y-88682664D01*
X41907547Y-88567455D01*
X41907544Y-88567452D01*
X41792335Y-88481206D01*
X41792328Y-88481202D01*
X41657482Y-88430908D01*
X41657483Y-88430908D01*
X41597883Y-88424501D01*
X41597881Y-88424500D01*
X41597873Y-88424500D01*
X41597864Y-88424500D01*
X39802129Y-88424500D01*
X39802123Y-88424501D01*
X39742516Y-88430908D01*
X39607671Y-88481202D01*
X39607664Y-88481206D01*
X39492455Y-88567452D01*
X39492452Y-88567455D01*
X39406206Y-88682664D01*
X39406202Y-88682671D01*
X39355908Y-88817517D01*
X39349501Y-88877116D01*
X39349501Y-88877123D01*
X39349500Y-88877135D01*
X39349500Y-90672870D01*
X39349501Y-90672876D01*
X39355908Y-90732483D01*
X39406202Y-90867328D01*
X39406206Y-90867335D01*
X39492452Y-90982544D01*
X39492455Y-90982547D01*
X39607664Y-91068793D01*
X39607671Y-91068797D01*
X39739081Y-91117810D01*
X39795015Y-91159681D01*
X39819432Y-91225145D01*
X39804580Y-91293418D01*
X39783430Y-91321673D01*
X39661503Y-91443600D01*
X39525965Y-91637169D01*
X39525964Y-91637171D01*
X39426098Y-91851335D01*
X39426094Y-91851344D01*
X39364938Y-92079586D01*
X39364936Y-92079596D01*
X39344341Y-92314999D01*
X37930000Y-92314999D01*
X37930000Y-82639999D01*
X39344341Y-82639999D01*
X39344341Y-82640000D01*
X39364936Y-82875403D01*
X39364938Y-82875413D01*
X39426094Y-83103655D01*
X39426096Y-83103659D01*
X39426097Y-83103663D01*
X39525965Y-83317830D01*
X39525967Y-83317834D01*
X39634281Y-83472521D01*
X39661505Y-83511401D01*
X39828599Y-83678495D01*
X39989845Y-83791401D01*
X40014594Y-83808730D01*
X40058219Y-83863307D01*
X40065413Y-83932805D01*
X40033890Y-83995160D01*
X40014595Y-84011880D01*
X39828922Y-84141890D01*
X39828920Y-84141891D01*
X39661891Y-84308920D01*
X39661886Y-84308926D01*
X39526400Y-84502420D01*
X39526399Y-84502422D01*
X39426570Y-84716507D01*
X39426567Y-84716513D01*
X39369364Y-84929999D01*
X39369364Y-84930000D01*
X40266988Y-84930000D01*
X40234075Y-84987007D01*
X40200000Y-85114174D01*
X40200000Y-85245826D01*
X40234075Y-85372993D01*
X40266988Y-85430000D01*
X39369364Y-85430000D01*
X39426567Y-85643486D01*
X39426570Y-85643492D01*
X39526399Y-85857578D01*
X39661894Y-86051082D01*
X39828917Y-86218105D01*
X40022421Y-86353600D01*
X40236507Y-86453429D01*
X40236516Y-86453433D01*
X40450000Y-86510634D01*
X40450000Y-85613012D01*
X40507007Y-85645925D01*
X40634174Y-85680000D01*
X40765826Y-85680000D01*
X40892993Y-85645925D01*
X40950000Y-85613012D01*
X40950000Y-86510633D01*
X41163483Y-86453433D01*
X41163492Y-86453429D01*
X41377578Y-86353600D01*
X41571082Y-86218105D01*
X41738105Y-86051082D01*
X41873600Y-85857578D01*
X41973429Y-85643492D01*
X41973432Y-85643486D01*
X42030636Y-85430000D01*
X41133012Y-85430000D01*
X41165925Y-85372993D01*
X41200000Y-85245826D01*
X41200000Y-85114174D01*
X41165925Y-84987007D01*
X41133012Y-84930000D01*
X42030636Y-84930000D01*
X42030635Y-84929999D01*
X41973432Y-84716513D01*
X41973429Y-84716507D01*
X41873600Y-84502422D01*
X41873599Y-84502420D01*
X41738113Y-84308926D01*
X41738108Y-84308920D01*
X41571078Y-84141890D01*
X41385405Y-84011879D01*
X41341780Y-83957302D01*
X41334588Y-83887804D01*
X41366110Y-83825449D01*
X41385406Y-83808730D01*
X41410153Y-83791402D01*
X41571401Y-83678495D01*
X41738495Y-83511401D01*
X41874035Y-83317830D01*
X41973903Y-83103663D01*
X42035063Y-82875408D01*
X42055659Y-82640000D01*
X42035063Y-82404592D01*
X41973903Y-82176337D01*
X41874035Y-81962171D01*
X41829281Y-81898256D01*
X41738496Y-81768600D01*
X41679896Y-81710000D01*
X41616567Y-81646671D01*
X41583084Y-81585351D01*
X41588068Y-81515659D01*
X41629939Y-81459725D01*
X41660915Y-81442810D01*
X41792331Y-81393796D01*
X41907546Y-81307546D01*
X41993796Y-81192331D01*
X42044091Y-81057483D01*
X42050500Y-80997873D01*
X42050499Y-79202128D01*
X42044091Y-79142517D01*
X42027860Y-79099000D01*
X41993797Y-79007671D01*
X41993793Y-79007664D01*
X41907547Y-78892455D01*
X41907544Y-78892452D01*
X41792335Y-78806206D01*
X41792328Y-78806202D01*
X41657482Y-78755908D01*
X41657483Y-78755908D01*
X41597883Y-78749501D01*
X41597881Y-78749500D01*
X41597873Y-78749500D01*
X41597864Y-78749500D01*
X39802129Y-78749500D01*
X39802123Y-78749501D01*
X39742516Y-78755908D01*
X39607671Y-78806202D01*
X39607664Y-78806206D01*
X39492455Y-78892452D01*
X39492452Y-78892455D01*
X39406206Y-79007664D01*
X39406202Y-79007671D01*
X39355908Y-79142517D01*
X39349501Y-79202116D01*
X39349501Y-79202123D01*
X39349500Y-79202135D01*
X39349500Y-80997870D01*
X39349501Y-80997876D01*
X39355908Y-81057483D01*
X39406202Y-81192328D01*
X39406206Y-81192335D01*
X39492452Y-81307544D01*
X39492455Y-81307547D01*
X39607664Y-81393793D01*
X39607671Y-81393797D01*
X39739081Y-81442810D01*
X39795015Y-81484681D01*
X39819432Y-81550145D01*
X39804580Y-81618418D01*
X39783430Y-81646673D01*
X39661503Y-81768600D01*
X39525965Y-81962169D01*
X39525964Y-81962171D01*
X39426098Y-82176335D01*
X39426094Y-82176344D01*
X39364938Y-82404586D01*
X39364936Y-82404596D01*
X39344341Y-82639999D01*
X37930000Y-82639999D01*
X37930000Y-70509999D01*
X39274341Y-70509999D01*
X39274341Y-70510000D01*
X39294936Y-70745403D01*
X39294938Y-70745413D01*
X39356094Y-70973655D01*
X39356096Y-70973659D01*
X39356097Y-70973663D01*
X39455965Y-71187830D01*
X39455967Y-71187834D01*
X39564281Y-71342521D01*
X39591501Y-71381396D01*
X39591506Y-71381402D01*
X39713818Y-71503714D01*
X39747303Y-71565037D01*
X39742319Y-71634729D01*
X39700447Y-71690662D01*
X39669471Y-71707577D01*
X39537912Y-71756646D01*
X39537906Y-71756649D01*
X39422812Y-71842809D01*
X39422809Y-71842812D01*
X39336649Y-71957906D01*
X39336645Y-71957913D01*
X39286403Y-72092620D01*
X39286401Y-72092627D01*
X39280000Y-72152155D01*
X39280000Y-72800000D01*
X40196988Y-72800000D01*
X40164075Y-72857007D01*
X40130000Y-72984174D01*
X40130000Y-73115826D01*
X40164075Y-73242993D01*
X40196988Y-73300000D01*
X39280000Y-73300000D01*
X39280000Y-73947844D01*
X39286401Y-74007372D01*
X39286403Y-74007379D01*
X39336645Y-74142086D01*
X39336649Y-74142093D01*
X39422809Y-74257187D01*
X39422812Y-74257190D01*
X39537906Y-74343350D01*
X39537913Y-74343354D01*
X39672620Y-74393596D01*
X39672627Y-74393598D01*
X39732155Y-74399999D01*
X39732172Y-74400000D01*
X40380000Y-74400000D01*
X40380000Y-73483012D01*
X40437007Y-73515925D01*
X40564174Y-73550000D01*
X40695826Y-73550000D01*
X40822993Y-73515925D01*
X40880000Y-73483012D01*
X40880000Y-74400000D01*
X41527828Y-74400000D01*
X41527844Y-74399999D01*
X41587372Y-74393598D01*
X41587379Y-74393596D01*
X41722086Y-74343354D01*
X41722093Y-74343350D01*
X41837187Y-74257190D01*
X41837190Y-74257187D01*
X41923350Y-74142093D01*
X41923354Y-74142086D01*
X41973596Y-74007379D01*
X41973598Y-74007372D01*
X41979999Y-73947844D01*
X41980000Y-73947827D01*
X41980000Y-73300000D01*
X41063012Y-73300000D01*
X41095925Y-73242993D01*
X41130000Y-73115826D01*
X41130000Y-72984174D01*
X41095925Y-72857007D01*
X41063012Y-72800000D01*
X41980000Y-72800000D01*
X41980000Y-72152172D01*
X41979999Y-72152155D01*
X41973598Y-72092627D01*
X41973596Y-72092620D01*
X41923354Y-71957913D01*
X41923350Y-71957906D01*
X41837190Y-71842812D01*
X41837187Y-71842809D01*
X41722093Y-71756649D01*
X41722088Y-71756646D01*
X41590528Y-71707577D01*
X41534595Y-71665705D01*
X41510178Y-71600241D01*
X41525030Y-71531968D01*
X41546175Y-71503720D01*
X41668495Y-71381401D01*
X41804035Y-71187830D01*
X41903903Y-70973663D01*
X41965063Y-70745408D01*
X41985659Y-70510000D01*
X41965063Y-70274592D01*
X41903903Y-70046337D01*
X41804035Y-69832171D01*
X41668495Y-69638599D01*
X41668494Y-69638597D01*
X41501402Y-69471506D01*
X41501395Y-69471501D01*
X41307834Y-69335967D01*
X41307830Y-69335965D01*
X41307828Y-69335964D01*
X41093663Y-69236097D01*
X41093659Y-69236096D01*
X41093655Y-69236094D01*
X40865413Y-69174938D01*
X40865403Y-69174936D01*
X40630001Y-69154341D01*
X40629999Y-69154341D01*
X40394596Y-69174936D01*
X40394586Y-69174938D01*
X40166344Y-69236094D01*
X40166335Y-69236098D01*
X39952171Y-69335964D01*
X39952169Y-69335965D01*
X39758597Y-69471505D01*
X39591505Y-69638597D01*
X39455965Y-69832169D01*
X39455964Y-69832171D01*
X39356098Y-70046335D01*
X39356094Y-70046344D01*
X39294938Y-70274586D01*
X39294936Y-70274596D01*
X39274341Y-70509999D01*
X37930000Y-70509999D01*
X37930000Y-65250996D01*
X50356435Y-65250996D01*
X50356435Y-65251003D01*
X50376630Y-65430249D01*
X50376631Y-65430254D01*
X50436211Y-65600523D01*
X50532184Y-65753262D01*
X50659738Y-65880816D01*
X50812478Y-65976789D01*
X50982745Y-66036368D01*
X50982750Y-66036369D01*
X51161996Y-66056565D01*
X51162000Y-66056565D01*
X51162004Y-66056565D01*
X51341249Y-66036369D01*
X51341252Y-66036368D01*
X51341255Y-66036368D01*
X51511522Y-65976789D01*
X51664262Y-65880816D01*
X51791816Y-65753262D01*
X51887789Y-65600522D01*
X51947368Y-65430255D01*
X51967565Y-65251000D01*
X51947368Y-65071745D01*
X51887789Y-64901478D01*
X51887788Y-64901476D01*
X51887788Y-64901475D01*
X51863212Y-64862364D01*
X51844211Y-64795128D01*
X51864578Y-64728292D01*
X51880519Y-64708715D01*
X53442417Y-63146819D01*
X53503740Y-63113334D01*
X53530098Y-63110500D01*
X63868903Y-63110500D01*
X63935942Y-63130185D01*
X63956584Y-63146819D01*
X65063298Y-64253533D01*
X65096783Y-64314856D01*
X65098837Y-64327330D01*
X65108630Y-64414249D01*
X65168210Y-64584521D01*
X65246244Y-64708710D01*
X65264184Y-64737262D01*
X65391738Y-64864816D01*
X65544478Y-64960789D01*
X65714745Y-65020368D01*
X65714750Y-65020369D01*
X65893996Y-65040565D01*
X65894000Y-65040565D01*
X65894004Y-65040565D01*
X66073249Y-65020369D01*
X66073252Y-65020368D01*
X66073255Y-65020368D01*
X66243522Y-64960789D01*
X66396262Y-64864816D01*
X66523816Y-64737262D01*
X66619789Y-64584522D01*
X66679368Y-64414255D01*
X66679369Y-64414249D01*
X66699565Y-64235003D01*
X66699565Y-64234996D01*
X66679369Y-64055750D01*
X66679368Y-64055745D01*
X66619789Y-63885478D01*
X66523816Y-63732738D01*
X66396262Y-63605184D01*
X66243521Y-63509210D01*
X66073249Y-63449630D01*
X65986330Y-63439837D01*
X65921916Y-63412770D01*
X65912533Y-63404298D01*
X64656590Y-62148355D01*
X64656588Y-62148352D01*
X64537717Y-62029481D01*
X64537716Y-62029480D01*
X64450904Y-61979360D01*
X64450904Y-61979359D01*
X64450900Y-61979358D01*
X64400785Y-61950423D01*
X64248057Y-61909499D01*
X64089943Y-61909499D01*
X64082347Y-61909499D01*
X64082331Y-61909500D01*
X53316670Y-61909500D01*
X53316654Y-61909499D01*
X53309058Y-61909499D01*
X53150943Y-61909499D01*
X53074579Y-61929961D01*
X52998214Y-61950423D01*
X52998209Y-61950426D01*
X52861290Y-62029475D01*
X52861282Y-62029481D01*
X50681481Y-64209282D01*
X50681479Y-64209285D01*
X50631361Y-64296094D01*
X50631359Y-64296096D01*
X50602425Y-64346209D01*
X50602424Y-64346210D01*
X50586544Y-64405472D01*
X50561499Y-64498943D01*
X50561499Y-64498945D01*
X50561499Y-64667046D01*
X50561500Y-64667059D01*
X50561500Y-64668587D01*
X50541815Y-64735626D01*
X50534450Y-64745896D01*
X50532186Y-64748734D01*
X50436211Y-64901476D01*
X50376631Y-65071745D01*
X50376630Y-65071750D01*
X50356435Y-65250996D01*
X37930000Y-65250996D01*
X37930000Y-62865258D01*
X37949685Y-62798219D01*
X38002489Y-62752464D01*
X38071647Y-62742520D01*
X38135203Y-62771545D01*
X38171931Y-62826940D01*
X38194125Y-62895247D01*
X38194127Y-62895252D01*
X38322704Y-63168491D01*
X38322707Y-63168497D01*
X38484516Y-63423469D01*
X38565311Y-63521133D01*
X39493708Y-62592736D01*
X39590967Y-62726602D01*
X39713398Y-62849033D01*
X39847262Y-62946290D01*
X38916564Y-63876987D01*
X38916565Y-63876989D01*
X39141461Y-64040385D01*
X39141479Y-64040397D01*
X39406109Y-64185878D01*
X39406117Y-64185882D01*
X39686889Y-64297047D01*
X39686892Y-64297048D01*
X39979399Y-64372150D01*
X40278995Y-64409999D01*
X40279007Y-64410000D01*
X40580993Y-64410000D01*
X40581004Y-64409999D01*
X40880600Y-64372150D01*
X41173107Y-64297048D01*
X41173110Y-64297047D01*
X41453882Y-64185882D01*
X41453890Y-64185878D01*
X41718520Y-64040397D01*
X41718530Y-64040390D01*
X41943433Y-63876987D01*
X41943434Y-63876987D01*
X41012737Y-62946290D01*
X41146602Y-62849033D01*
X41269033Y-62726602D01*
X41366290Y-62592737D01*
X42294687Y-63521134D01*
X42375486Y-63423464D01*
X42537292Y-63168497D01*
X42537295Y-63168491D01*
X42665872Y-62895252D01*
X42665874Y-62895247D01*
X42759194Y-62608040D01*
X42815783Y-62311390D01*
X42815784Y-62311383D01*
X42834745Y-62010005D01*
X42834745Y-62009994D01*
X42815784Y-61708616D01*
X42815783Y-61708609D01*
X42759194Y-61411959D01*
X42665874Y-61124752D01*
X42665872Y-61124747D01*
X42537295Y-60851508D01*
X42537292Y-60851502D01*
X42375483Y-60596530D01*
X42294686Y-60498864D01*
X41366289Y-61427261D01*
X41269033Y-61293398D01*
X41146602Y-61170967D01*
X41012736Y-61073709D01*
X41943434Y-60143011D01*
X41943433Y-60143009D01*
X41718538Y-59979614D01*
X41718520Y-59979602D01*
X41453890Y-59834121D01*
X41453882Y-59834117D01*
X41239636Y-59749292D01*
X41184550Y-59706311D01*
X41161447Y-59640372D01*
X41177660Y-59572410D01*
X41228043Y-59524002D01*
X41285283Y-59510000D01*
X74574717Y-59510000D01*
X74641756Y-59529685D01*
G37*
%TD.AperFunction*%
%TA.AperFunction,Conductor*%
G36*
X77294687Y-103521134D02*
G01*
X77375486Y-103423464D01*
X77537292Y-103168497D01*
X77537295Y-103168491D01*
X77665872Y-102895252D01*
X77665874Y-102895247D01*
X77688069Y-102826940D01*
X77727506Y-102769265D01*
X77791865Y-102742066D01*
X77860711Y-102753981D01*
X77912187Y-102801225D01*
X77930000Y-102865258D01*
X77930000Y-104386000D01*
X77910315Y-104453039D01*
X77857511Y-104498794D01*
X77806000Y-104510000D01*
X76285283Y-104510000D01*
X76218244Y-104490315D01*
X76172489Y-104437511D01*
X76162545Y-104368353D01*
X76191570Y-104304797D01*
X76239636Y-104270708D01*
X76453882Y-104185882D01*
X76453890Y-104185878D01*
X76718520Y-104040397D01*
X76718530Y-104040390D01*
X76943433Y-103876987D01*
X76943434Y-103876987D01*
X76012737Y-102946290D01*
X76146602Y-102849033D01*
X76269033Y-102726602D01*
X76366290Y-102592737D01*
X77294687Y-103521134D01*
G37*
%TD.AperFunction*%
%TA.AperFunction,Conductor*%
G36*
X39641756Y-59529685D02*
G01*
X39687511Y-59582489D01*
X39697455Y-59651647D01*
X39668430Y-59715203D01*
X39620364Y-59749292D01*
X39406117Y-59834117D01*
X39406109Y-59834121D01*
X39141476Y-59979604D01*
X39141471Y-59979607D01*
X38916565Y-60143010D01*
X38916564Y-60143011D01*
X39847262Y-61073709D01*
X39713398Y-61170967D01*
X39590967Y-61293398D01*
X39493709Y-61427262D01*
X38565311Y-60498864D01*
X38484520Y-60596525D01*
X38484518Y-60596528D01*
X38322707Y-60851502D01*
X38322704Y-60851508D01*
X38194127Y-61124747D01*
X38194125Y-61124752D01*
X38171931Y-61193059D01*
X38132493Y-61250735D01*
X38068135Y-61277933D01*
X37999288Y-61266018D01*
X37947813Y-61218774D01*
X37930000Y-61154741D01*
X37930000Y-59634000D01*
X37949685Y-59566961D01*
X38002489Y-59521206D01*
X38054000Y-59510000D01*
X39574717Y-59510000D01*
X39641756Y-59529685D01*
G37*
%TD.AperFunction*%
%TA.AperFunction,Conductor*%
G36*
X77873039Y-59529685D02*
G01*
X77918794Y-59582489D01*
X77930000Y-59634000D01*
X77930000Y-61154741D01*
X77910315Y-61221780D01*
X77857511Y-61267535D01*
X77788353Y-61277479D01*
X77724797Y-61248454D01*
X77688069Y-61193059D01*
X77665874Y-61124752D01*
X77665872Y-61124747D01*
X77537295Y-60851508D01*
X77537292Y-60851502D01*
X77375483Y-60596530D01*
X77294686Y-60498864D01*
X76366289Y-61427261D01*
X76269033Y-61293398D01*
X76146602Y-61170967D01*
X76012736Y-61073709D01*
X76943434Y-60143011D01*
X76943433Y-60143009D01*
X76718538Y-59979614D01*
X76718520Y-59979602D01*
X76453890Y-59834121D01*
X76453882Y-59834117D01*
X76239636Y-59749292D01*
X76184550Y-59706311D01*
X76161447Y-59640372D01*
X76177660Y-59572410D01*
X76228043Y-59524002D01*
X76285283Y-59510000D01*
X77806000Y-59510000D01*
X77873039Y-59529685D01*
G37*
%TD.AperFunction*%
%TD*%
M02*
