%TF.GenerationSoftware,KiCad,Pcbnew,8.0.8*%
%TF.CreationDate,2025-06-12T11:50:17+02:00*%
%TF.ProjectId,LedDimmer,4c656444-696d-46d6-9572-2e6b69636164,rev?*%
%TF.SameCoordinates,Original*%
%TF.FileFunction,Legend,Top*%
%TF.FilePolarity,Positive*%
%FSLAX46Y46*%
G04 Gerber Fmt 4.6, Leading zero omitted, Abs format (unit mm)*
G04 Created by KiCad (PCBNEW 8.0.8) date 2025-06-12 11:50:17*
%MOMM*%
%LPD*%
G01*
G04 APERTURE LIST*
%ADD10C,0.100000*%
%ADD11C,0.150000*%
%ADD12C,0.120000*%
G04 APERTURE END LIST*
D10*
X77439247Y-74671027D02*
X77439247Y-74909122D01*
X77296390Y-74623408D02*
X77796390Y-74790074D01*
X77796390Y-74790074D02*
X77296390Y-74956741D01*
X77296390Y-75123407D02*
X77796390Y-75123407D01*
X77296390Y-75623407D02*
X77296390Y-75337693D01*
X77296390Y-75480550D02*
X77796390Y-75480550D01*
X77796390Y-75480550D02*
X77724961Y-75432931D01*
X77724961Y-75432931D02*
X77677342Y-75385312D01*
X77677342Y-75385312D02*
X77653533Y-75337693D01*
X77796390Y-76147216D02*
X77296390Y-76313882D01*
X77296390Y-76313882D02*
X77796390Y-76480549D01*
X77320200Y-77004358D02*
X77296390Y-77075786D01*
X77296390Y-77075786D02*
X77296390Y-77194834D01*
X77296390Y-77194834D02*
X77320200Y-77242453D01*
X77320200Y-77242453D02*
X77344009Y-77266262D01*
X77344009Y-77266262D02*
X77391628Y-77290072D01*
X77391628Y-77290072D02*
X77439247Y-77290072D01*
X77439247Y-77290072D02*
X77486866Y-77266262D01*
X77486866Y-77266262D02*
X77510676Y-77242453D01*
X77510676Y-77242453D02*
X77534485Y-77194834D01*
X77534485Y-77194834D02*
X77558295Y-77099596D01*
X77558295Y-77099596D02*
X77582104Y-77051977D01*
X77582104Y-77051977D02*
X77605914Y-77028167D01*
X77605914Y-77028167D02*
X77653533Y-77004358D01*
X77653533Y-77004358D02*
X77701152Y-77004358D01*
X77701152Y-77004358D02*
X77748771Y-77028167D01*
X77748771Y-77028167D02*
X77772580Y-77051977D01*
X77772580Y-77051977D02*
X77796390Y-77099596D01*
X77796390Y-77099596D02*
X77796390Y-77218643D01*
X77796390Y-77218643D02*
X77772580Y-77290072D01*
X77772580Y-78147214D02*
X77796390Y-78099595D01*
X77796390Y-78099595D02*
X77796390Y-78028166D01*
X77796390Y-78028166D02*
X77772580Y-77956738D01*
X77772580Y-77956738D02*
X77724961Y-77909119D01*
X77724961Y-77909119D02*
X77677342Y-77885309D01*
X77677342Y-77885309D02*
X77582104Y-77861500D01*
X77582104Y-77861500D02*
X77510676Y-77861500D01*
X77510676Y-77861500D02*
X77415438Y-77885309D01*
X77415438Y-77885309D02*
X77367819Y-77909119D01*
X77367819Y-77909119D02*
X77320200Y-77956738D01*
X77320200Y-77956738D02*
X77296390Y-78028166D01*
X77296390Y-78028166D02*
X77296390Y-78075785D01*
X77296390Y-78075785D02*
X77320200Y-78147214D01*
X77320200Y-78147214D02*
X77344009Y-78171023D01*
X77344009Y-78171023D02*
X77510676Y-78171023D01*
X77510676Y-78171023D02*
X77510676Y-78075785D01*
X42144836Y-71183189D02*
X42525789Y-71183189D01*
X42335312Y-71373665D02*
X42335312Y-70992713D01*
X43001979Y-70873665D02*
X42763884Y-70873665D01*
X42763884Y-70873665D02*
X42740075Y-71111760D01*
X42740075Y-71111760D02*
X42763884Y-71087951D01*
X42763884Y-71087951D02*
X42811503Y-71064141D01*
X42811503Y-71064141D02*
X42930551Y-71064141D01*
X42930551Y-71064141D02*
X42978170Y-71087951D01*
X42978170Y-71087951D02*
X43001979Y-71111760D01*
X43001979Y-71111760D02*
X43025789Y-71159379D01*
X43025789Y-71159379D02*
X43025789Y-71278427D01*
X43025789Y-71278427D02*
X43001979Y-71326046D01*
X43001979Y-71326046D02*
X42978170Y-71349856D01*
X42978170Y-71349856D02*
X42930551Y-71373665D01*
X42930551Y-71373665D02*
X42811503Y-71373665D01*
X42811503Y-71373665D02*
X42763884Y-71349856D01*
X42763884Y-71349856D02*
X42740075Y-71326046D01*
X43240074Y-71183189D02*
X43621027Y-71183189D01*
X44121027Y-71373665D02*
X43835313Y-71373665D01*
X43978170Y-71373665D02*
X43978170Y-70873665D01*
X43978170Y-70873665D02*
X43930551Y-70945094D01*
X43930551Y-70945094D02*
X43882932Y-70992713D01*
X43882932Y-70992713D02*
X43835313Y-71016522D01*
X44311503Y-70921284D02*
X44335312Y-70897475D01*
X44335312Y-70897475D02*
X44382931Y-70873665D01*
X44382931Y-70873665D02*
X44501979Y-70873665D01*
X44501979Y-70873665D02*
X44549598Y-70897475D01*
X44549598Y-70897475D02*
X44573407Y-70921284D01*
X44573407Y-70921284D02*
X44597217Y-70968903D01*
X44597217Y-70968903D02*
X44597217Y-71016522D01*
X44597217Y-71016522D02*
X44573407Y-71087951D01*
X44573407Y-71087951D02*
X44287693Y-71373665D01*
X44287693Y-71373665D02*
X44597217Y-71373665D01*
X44740074Y-70873665D02*
X44906740Y-71373665D01*
X44906740Y-71373665D02*
X45073407Y-70873665D01*
X42406741Y-72507419D02*
X42359122Y-72483609D01*
X42359122Y-72483609D02*
X42287693Y-72483609D01*
X42287693Y-72483609D02*
X42216265Y-72507419D01*
X42216265Y-72507419D02*
X42168646Y-72555038D01*
X42168646Y-72555038D02*
X42144836Y-72602657D01*
X42144836Y-72602657D02*
X42121027Y-72697895D01*
X42121027Y-72697895D02*
X42121027Y-72769323D01*
X42121027Y-72769323D02*
X42144836Y-72864561D01*
X42144836Y-72864561D02*
X42168646Y-72912180D01*
X42168646Y-72912180D02*
X42216265Y-72959800D01*
X42216265Y-72959800D02*
X42287693Y-72983609D01*
X42287693Y-72983609D02*
X42335312Y-72983609D01*
X42335312Y-72983609D02*
X42406741Y-72959800D01*
X42406741Y-72959800D02*
X42430550Y-72935990D01*
X42430550Y-72935990D02*
X42430550Y-72769323D01*
X42430550Y-72769323D02*
X42335312Y-72769323D01*
X42644836Y-72983609D02*
X42644836Y-72483609D01*
X42644836Y-72483609D02*
X42930550Y-72983609D01*
X42930550Y-72983609D02*
X42930550Y-72483609D01*
X43168646Y-72983609D02*
X43168646Y-72483609D01*
X43168646Y-72483609D02*
X43287694Y-72483609D01*
X43287694Y-72483609D02*
X43359122Y-72507419D01*
X43359122Y-72507419D02*
X43406741Y-72555038D01*
X43406741Y-72555038D02*
X43430551Y-72602657D01*
X43430551Y-72602657D02*
X43454360Y-72697895D01*
X43454360Y-72697895D02*
X43454360Y-72769323D01*
X43454360Y-72769323D02*
X43430551Y-72864561D01*
X43430551Y-72864561D02*
X43406741Y-72912180D01*
X43406741Y-72912180D02*
X43359122Y-72959800D01*
X43359122Y-72959800D02*
X43287694Y-72983609D01*
X43287694Y-72983609D02*
X43168646Y-72983609D01*
X58714836Y-79233665D02*
X58714836Y-78733665D01*
X58714836Y-78733665D02*
X58905312Y-78733665D01*
X58905312Y-78733665D02*
X58952931Y-78757475D01*
X58952931Y-78757475D02*
X58976741Y-78781284D01*
X58976741Y-78781284D02*
X59000550Y-78828903D01*
X59000550Y-78828903D02*
X59000550Y-78900332D01*
X59000550Y-78900332D02*
X58976741Y-78947951D01*
X58976741Y-78947951D02*
X58952931Y-78971760D01*
X58952931Y-78971760D02*
X58905312Y-78995570D01*
X58905312Y-78995570D02*
X58714836Y-78995570D01*
X59167217Y-78733665D02*
X59286265Y-79233665D01*
X59286265Y-79233665D02*
X59381503Y-78876522D01*
X59381503Y-78876522D02*
X59476741Y-79233665D01*
X59476741Y-79233665D02*
X59595789Y-78733665D01*
X59786265Y-79233665D02*
X59786265Y-78733665D01*
X59786265Y-78733665D02*
X59952932Y-79090808D01*
X59952932Y-79090808D02*
X60119598Y-78733665D01*
X60119598Y-78733665D02*
X60119598Y-79233665D01*
X60357694Y-79043189D02*
X60738647Y-79043189D01*
X60976742Y-79233665D02*
X60976742Y-78733665D01*
X60976742Y-78924141D02*
X61024361Y-78900332D01*
X61024361Y-78900332D02*
X61119599Y-78900332D01*
X61119599Y-78900332D02*
X61167218Y-78924141D01*
X61167218Y-78924141D02*
X61191028Y-78947951D01*
X61191028Y-78947951D02*
X61214837Y-78995570D01*
X61214837Y-78995570D02*
X61214837Y-79138427D01*
X61214837Y-79138427D02*
X61191028Y-79186046D01*
X61191028Y-79186046D02*
X61167218Y-79209856D01*
X61167218Y-79209856D02*
X61119599Y-79233665D01*
X61119599Y-79233665D02*
X61024361Y-79233665D01*
X61024361Y-79233665D02*
X60976742Y-79209856D01*
X61500552Y-79233665D02*
X61452933Y-79209856D01*
X61452933Y-79209856D02*
X61429123Y-79186046D01*
X61429123Y-79186046D02*
X61405314Y-79138427D01*
X61405314Y-79138427D02*
X61405314Y-78995570D01*
X61405314Y-78995570D02*
X61429123Y-78947951D01*
X61429123Y-78947951D02*
X61452933Y-78924141D01*
X61452933Y-78924141D02*
X61500552Y-78900332D01*
X61500552Y-78900332D02*
X61571980Y-78900332D01*
X61571980Y-78900332D02*
X61619599Y-78924141D01*
X61619599Y-78924141D02*
X61643409Y-78947951D01*
X61643409Y-78947951D02*
X61667218Y-78995570D01*
X61667218Y-78995570D02*
X61667218Y-79138427D01*
X61667218Y-79138427D02*
X61643409Y-79186046D01*
X61643409Y-79186046D02*
X61619599Y-79209856D01*
X61619599Y-79209856D02*
X61571980Y-79233665D01*
X61571980Y-79233665D02*
X61500552Y-79233665D01*
X62095790Y-79233665D02*
X62095790Y-78971760D01*
X62095790Y-78971760D02*
X62071980Y-78924141D01*
X62071980Y-78924141D02*
X62024361Y-78900332D01*
X62024361Y-78900332D02*
X61929123Y-78900332D01*
X61929123Y-78900332D02*
X61881504Y-78924141D01*
X62095790Y-79209856D02*
X62048171Y-79233665D01*
X62048171Y-79233665D02*
X61929123Y-79233665D01*
X61929123Y-79233665D02*
X61881504Y-79209856D01*
X61881504Y-79209856D02*
X61857695Y-79162236D01*
X61857695Y-79162236D02*
X61857695Y-79114617D01*
X61857695Y-79114617D02*
X61881504Y-79066998D01*
X61881504Y-79066998D02*
X61929123Y-79043189D01*
X61929123Y-79043189D02*
X62048171Y-79043189D01*
X62048171Y-79043189D02*
X62095790Y-79019379D01*
X62333885Y-79233665D02*
X62333885Y-78900332D01*
X62333885Y-78995570D02*
X62357695Y-78947951D01*
X62357695Y-78947951D02*
X62381504Y-78924141D01*
X62381504Y-78924141D02*
X62429123Y-78900332D01*
X62429123Y-78900332D02*
X62476742Y-78900332D01*
X62857695Y-79233665D02*
X62857695Y-78733665D01*
X62857695Y-79209856D02*
X62810076Y-79233665D01*
X62810076Y-79233665D02*
X62714838Y-79233665D01*
X62714838Y-79233665D02*
X62667219Y-79209856D01*
X62667219Y-79209856D02*
X62643409Y-79186046D01*
X62643409Y-79186046D02*
X62619600Y-79138427D01*
X62619600Y-79138427D02*
X62619600Y-78995570D01*
X62619600Y-78995570D02*
X62643409Y-78947951D01*
X62643409Y-78947951D02*
X62667219Y-78924141D01*
X62667219Y-78924141D02*
X62714838Y-78900332D01*
X62714838Y-78900332D02*
X62810076Y-78900332D01*
X62810076Y-78900332D02*
X62857695Y-78924141D01*
X58881503Y-79776732D02*
X58952931Y-79800542D01*
X58952931Y-79800542D02*
X58976741Y-79824351D01*
X58976741Y-79824351D02*
X59000550Y-79871970D01*
X59000550Y-79871970D02*
X59000550Y-79943399D01*
X59000550Y-79943399D02*
X58976741Y-79991018D01*
X58976741Y-79991018D02*
X58952931Y-80014828D01*
X58952931Y-80014828D02*
X58905312Y-80038637D01*
X58905312Y-80038637D02*
X58714836Y-80038637D01*
X58714836Y-80038637D02*
X58714836Y-79538637D01*
X58714836Y-79538637D02*
X58881503Y-79538637D01*
X58881503Y-79538637D02*
X58929122Y-79562447D01*
X58929122Y-79562447D02*
X58952931Y-79586256D01*
X58952931Y-79586256D02*
X58976741Y-79633875D01*
X58976741Y-79633875D02*
X58976741Y-79681494D01*
X58976741Y-79681494D02*
X58952931Y-79729113D01*
X58952931Y-79729113D02*
X58929122Y-79752923D01*
X58929122Y-79752923D02*
X58881503Y-79776732D01*
X58881503Y-79776732D02*
X58714836Y-79776732D01*
X59214836Y-79705304D02*
X59214836Y-80133875D01*
X59214836Y-80133875D02*
X59191027Y-80181494D01*
X59191027Y-80181494D02*
X59143408Y-80205304D01*
X59143408Y-80205304D02*
X59119598Y-80205304D01*
X59214836Y-79538637D02*
X59191027Y-79562447D01*
X59191027Y-79562447D02*
X59214836Y-79586256D01*
X59214836Y-79586256D02*
X59238646Y-79562447D01*
X59238646Y-79562447D02*
X59214836Y-79538637D01*
X59214836Y-79538637D02*
X59214836Y-79586256D01*
X59524360Y-80038637D02*
X59476741Y-80014828D01*
X59476741Y-80014828D02*
X59452931Y-79991018D01*
X59452931Y-79991018D02*
X59429122Y-79943399D01*
X59429122Y-79943399D02*
X59429122Y-79800542D01*
X59429122Y-79800542D02*
X59452931Y-79752923D01*
X59452931Y-79752923D02*
X59476741Y-79729113D01*
X59476741Y-79729113D02*
X59524360Y-79705304D01*
X59524360Y-79705304D02*
X59595788Y-79705304D01*
X59595788Y-79705304D02*
X59643407Y-79729113D01*
X59643407Y-79729113D02*
X59667217Y-79752923D01*
X59667217Y-79752923D02*
X59691026Y-79800542D01*
X59691026Y-79800542D02*
X59691026Y-79943399D01*
X59691026Y-79943399D02*
X59667217Y-79991018D01*
X59667217Y-79991018D02*
X59643407Y-80014828D01*
X59643407Y-80014828D02*
X59595788Y-80038637D01*
X59595788Y-80038637D02*
X59524360Y-80038637D01*
X59476741Y-79538637D02*
X59500550Y-79562447D01*
X59500550Y-79562447D02*
X59476741Y-79586256D01*
X59476741Y-79586256D02*
X59452931Y-79562447D01*
X59452931Y-79562447D02*
X59476741Y-79538637D01*
X59476741Y-79538637D02*
X59476741Y-79586256D01*
X59667217Y-79538637D02*
X59691026Y-79562447D01*
X59691026Y-79562447D02*
X59667217Y-79586256D01*
X59667217Y-79586256D02*
X59643407Y-79562447D01*
X59643407Y-79562447D02*
X59667217Y-79538637D01*
X59667217Y-79538637D02*
X59667217Y-79586256D01*
X59905312Y-80038637D02*
X59905312Y-79705304D01*
X59905312Y-79800542D02*
X59929122Y-79752923D01*
X59929122Y-79752923D02*
X59952931Y-79729113D01*
X59952931Y-79729113D02*
X60000550Y-79705304D01*
X60000550Y-79705304D02*
X60048169Y-79705304D01*
X60214836Y-79705304D02*
X60214836Y-80038637D01*
X60214836Y-79752923D02*
X60238646Y-79729113D01*
X60238646Y-79729113D02*
X60286265Y-79705304D01*
X60286265Y-79705304D02*
X60357693Y-79705304D01*
X60357693Y-79705304D02*
X60405312Y-79729113D01*
X60405312Y-79729113D02*
X60429122Y-79776732D01*
X60429122Y-79776732D02*
X60429122Y-80038637D01*
X60976741Y-79538637D02*
X61262455Y-79538637D01*
X61119598Y-80038637D02*
X61119598Y-79538637D01*
X61429121Y-80038637D02*
X61429121Y-79538637D01*
X61643407Y-80038637D02*
X61643407Y-79776732D01*
X61643407Y-79776732D02*
X61619597Y-79729113D01*
X61619597Y-79729113D02*
X61571978Y-79705304D01*
X61571978Y-79705304D02*
X61500550Y-79705304D01*
X61500550Y-79705304D02*
X61452931Y-79729113D01*
X61452931Y-79729113D02*
X61429121Y-79752923D01*
X61952931Y-80038637D02*
X61905312Y-80014828D01*
X61905312Y-80014828D02*
X61881502Y-79991018D01*
X61881502Y-79991018D02*
X61857693Y-79943399D01*
X61857693Y-79943399D02*
X61857693Y-79800542D01*
X61857693Y-79800542D02*
X61881502Y-79752923D01*
X61881502Y-79752923D02*
X61905312Y-79729113D01*
X61905312Y-79729113D02*
X61952931Y-79705304D01*
X61952931Y-79705304D02*
X62024359Y-79705304D01*
X62024359Y-79705304D02*
X62071978Y-79729113D01*
X62071978Y-79729113D02*
X62095788Y-79752923D01*
X62095788Y-79752923D02*
X62119597Y-79800542D01*
X62119597Y-79800542D02*
X62119597Y-79943399D01*
X62119597Y-79943399D02*
X62095788Y-79991018D01*
X62095788Y-79991018D02*
X62071978Y-80014828D01*
X62071978Y-80014828D02*
X62024359Y-80038637D01*
X62024359Y-80038637D02*
X61952931Y-80038637D01*
X62333883Y-80038637D02*
X62333883Y-79705304D01*
X62333883Y-79800542D02*
X62357693Y-79752923D01*
X62357693Y-79752923D02*
X62381502Y-79729113D01*
X62381502Y-79729113D02*
X62429121Y-79705304D01*
X62429121Y-79705304D02*
X62476740Y-79705304D01*
X58857693Y-81034085D02*
X58833884Y-81010276D01*
X58833884Y-81010276D02*
X58786265Y-80938847D01*
X58786265Y-80938847D02*
X58762455Y-80891228D01*
X58762455Y-80891228D02*
X58738646Y-80819800D01*
X58738646Y-80819800D02*
X58714836Y-80700752D01*
X58714836Y-80700752D02*
X58714836Y-80605514D01*
X58714836Y-80605514D02*
X58738646Y-80486466D01*
X58738646Y-80486466D02*
X58762455Y-80415038D01*
X58762455Y-80415038D02*
X58786265Y-80367419D01*
X58786265Y-80367419D02*
X58833884Y-80295990D01*
X58833884Y-80295990D02*
X58857693Y-80272180D01*
X59262455Y-80819800D02*
X59214836Y-80843609D01*
X59214836Y-80843609D02*
X59119598Y-80843609D01*
X59119598Y-80843609D02*
X59071979Y-80819800D01*
X59071979Y-80819800D02*
X59048169Y-80795990D01*
X59048169Y-80795990D02*
X59024360Y-80748371D01*
X59024360Y-80748371D02*
X59024360Y-80605514D01*
X59024360Y-80605514D02*
X59048169Y-80557895D01*
X59048169Y-80557895D02*
X59071979Y-80534085D01*
X59071979Y-80534085D02*
X59119598Y-80510276D01*
X59119598Y-80510276D02*
X59214836Y-80510276D01*
X59214836Y-80510276D02*
X59262455Y-80534085D01*
X59429121Y-81034085D02*
X59452931Y-81010276D01*
X59452931Y-81010276D02*
X59500550Y-80938847D01*
X59500550Y-80938847D02*
X59524359Y-80891228D01*
X59524359Y-80891228D02*
X59548169Y-80819800D01*
X59548169Y-80819800D02*
X59571978Y-80700752D01*
X59571978Y-80700752D02*
X59571978Y-80605514D01*
X59571978Y-80605514D02*
X59548169Y-80486466D01*
X59548169Y-80486466D02*
X59524359Y-80415038D01*
X59524359Y-80415038D02*
X59500550Y-80367419D01*
X59500550Y-80367419D02*
X59452931Y-80295990D01*
X59452931Y-80295990D02*
X59429121Y-80272180D01*
X60167216Y-80391228D02*
X60191025Y-80367419D01*
X60191025Y-80367419D02*
X60238644Y-80343609D01*
X60238644Y-80343609D02*
X60357692Y-80343609D01*
X60357692Y-80343609D02*
X60405311Y-80367419D01*
X60405311Y-80367419D02*
X60429120Y-80391228D01*
X60429120Y-80391228D02*
X60452930Y-80438847D01*
X60452930Y-80438847D02*
X60452930Y-80486466D01*
X60452930Y-80486466D02*
X60429120Y-80557895D01*
X60429120Y-80557895D02*
X60143406Y-80843609D01*
X60143406Y-80843609D02*
X60452930Y-80843609D01*
X60762453Y-80343609D02*
X60810072Y-80343609D01*
X60810072Y-80343609D02*
X60857691Y-80367419D01*
X60857691Y-80367419D02*
X60881501Y-80391228D01*
X60881501Y-80391228D02*
X60905310Y-80438847D01*
X60905310Y-80438847D02*
X60929120Y-80534085D01*
X60929120Y-80534085D02*
X60929120Y-80653133D01*
X60929120Y-80653133D02*
X60905310Y-80748371D01*
X60905310Y-80748371D02*
X60881501Y-80795990D01*
X60881501Y-80795990D02*
X60857691Y-80819800D01*
X60857691Y-80819800D02*
X60810072Y-80843609D01*
X60810072Y-80843609D02*
X60762453Y-80843609D01*
X60762453Y-80843609D02*
X60714834Y-80819800D01*
X60714834Y-80819800D02*
X60691025Y-80795990D01*
X60691025Y-80795990D02*
X60667215Y-80748371D01*
X60667215Y-80748371D02*
X60643406Y-80653133D01*
X60643406Y-80653133D02*
X60643406Y-80534085D01*
X60643406Y-80534085D02*
X60667215Y-80438847D01*
X60667215Y-80438847D02*
X60691025Y-80391228D01*
X60691025Y-80391228D02*
X60714834Y-80367419D01*
X60714834Y-80367419D02*
X60762453Y-80343609D01*
X61119596Y-80391228D02*
X61143405Y-80367419D01*
X61143405Y-80367419D02*
X61191024Y-80343609D01*
X61191024Y-80343609D02*
X61310072Y-80343609D01*
X61310072Y-80343609D02*
X61357691Y-80367419D01*
X61357691Y-80367419D02*
X61381500Y-80391228D01*
X61381500Y-80391228D02*
X61405310Y-80438847D01*
X61405310Y-80438847D02*
X61405310Y-80486466D01*
X61405310Y-80486466D02*
X61381500Y-80557895D01*
X61381500Y-80557895D02*
X61095786Y-80843609D01*
X61095786Y-80843609D02*
X61405310Y-80843609D01*
X61857690Y-80343609D02*
X61619595Y-80343609D01*
X61619595Y-80343609D02*
X61595786Y-80581704D01*
X61595786Y-80581704D02*
X61619595Y-80557895D01*
X61619595Y-80557895D02*
X61667214Y-80534085D01*
X61667214Y-80534085D02*
X61786262Y-80534085D01*
X61786262Y-80534085D02*
X61833881Y-80557895D01*
X61833881Y-80557895D02*
X61857690Y-80581704D01*
X61857690Y-80581704D02*
X61881500Y-80629323D01*
X61881500Y-80629323D02*
X61881500Y-80748371D01*
X61881500Y-80748371D02*
X61857690Y-80795990D01*
X61857690Y-80795990D02*
X61833881Y-80819800D01*
X61833881Y-80819800D02*
X61786262Y-80843609D01*
X61786262Y-80843609D02*
X61667214Y-80843609D01*
X61667214Y-80843609D02*
X61619595Y-80819800D01*
X61619595Y-80819800D02*
X61595786Y-80795990D01*
X38344009Y-80980550D02*
X38320200Y-80956741D01*
X38320200Y-80956741D02*
X38296390Y-80885312D01*
X38296390Y-80885312D02*
X38296390Y-80837693D01*
X38296390Y-80837693D02*
X38320200Y-80766265D01*
X38320200Y-80766265D02*
X38367819Y-80718646D01*
X38367819Y-80718646D02*
X38415438Y-80694836D01*
X38415438Y-80694836D02*
X38510676Y-80671027D01*
X38510676Y-80671027D02*
X38582104Y-80671027D01*
X38582104Y-80671027D02*
X38677342Y-80694836D01*
X38677342Y-80694836D02*
X38724961Y-80718646D01*
X38724961Y-80718646D02*
X38772580Y-80766265D01*
X38772580Y-80766265D02*
X38796390Y-80837693D01*
X38796390Y-80837693D02*
X38796390Y-80885312D01*
X38796390Y-80885312D02*
X38772580Y-80956741D01*
X38772580Y-80956741D02*
X38748771Y-80980550D01*
X38296390Y-81194836D02*
X38796390Y-81194836D01*
X38296390Y-81409122D02*
X38558295Y-81409122D01*
X38558295Y-81409122D02*
X38605914Y-81385312D01*
X38605914Y-81385312D02*
X38629723Y-81337693D01*
X38629723Y-81337693D02*
X38629723Y-81266265D01*
X38629723Y-81266265D02*
X38605914Y-81218646D01*
X38605914Y-81218646D02*
X38582104Y-81194836D01*
X38296390Y-81909122D02*
X38296390Y-81623408D01*
X38296390Y-81766265D02*
X38796390Y-81766265D01*
X38796390Y-81766265D02*
X38724961Y-81718646D01*
X38724961Y-81718646D02*
X38677342Y-81671027D01*
X38677342Y-81671027D02*
X38653533Y-81623408D01*
X38796390Y-82432931D02*
X38296390Y-82599597D01*
X38296390Y-82599597D02*
X38796390Y-82766264D01*
X38320200Y-83290073D02*
X38296390Y-83361501D01*
X38296390Y-83361501D02*
X38296390Y-83480549D01*
X38296390Y-83480549D02*
X38320200Y-83528168D01*
X38320200Y-83528168D02*
X38344009Y-83551977D01*
X38344009Y-83551977D02*
X38391628Y-83575787D01*
X38391628Y-83575787D02*
X38439247Y-83575787D01*
X38439247Y-83575787D02*
X38486866Y-83551977D01*
X38486866Y-83551977D02*
X38510676Y-83528168D01*
X38510676Y-83528168D02*
X38534485Y-83480549D01*
X38534485Y-83480549D02*
X38558295Y-83385311D01*
X38558295Y-83385311D02*
X38582104Y-83337692D01*
X38582104Y-83337692D02*
X38605914Y-83313882D01*
X38605914Y-83313882D02*
X38653533Y-83290073D01*
X38653533Y-83290073D02*
X38701152Y-83290073D01*
X38701152Y-83290073D02*
X38748771Y-83313882D01*
X38748771Y-83313882D02*
X38772580Y-83337692D01*
X38772580Y-83337692D02*
X38796390Y-83385311D01*
X38796390Y-83385311D02*
X38796390Y-83504358D01*
X38796390Y-83504358D02*
X38772580Y-83575787D01*
X38772580Y-84432929D02*
X38796390Y-84385310D01*
X38796390Y-84385310D02*
X38796390Y-84313881D01*
X38796390Y-84313881D02*
X38772580Y-84242453D01*
X38772580Y-84242453D02*
X38724961Y-84194834D01*
X38724961Y-84194834D02*
X38677342Y-84171024D01*
X38677342Y-84171024D02*
X38582104Y-84147215D01*
X38582104Y-84147215D02*
X38510676Y-84147215D01*
X38510676Y-84147215D02*
X38415438Y-84171024D01*
X38415438Y-84171024D02*
X38367819Y-84194834D01*
X38367819Y-84194834D02*
X38320200Y-84242453D01*
X38320200Y-84242453D02*
X38296390Y-84313881D01*
X38296390Y-84313881D02*
X38296390Y-84361500D01*
X38296390Y-84361500D02*
X38320200Y-84432929D01*
X38320200Y-84432929D02*
X38344009Y-84456738D01*
X38344009Y-84456738D02*
X38510676Y-84456738D01*
X38510676Y-84456738D02*
X38510676Y-84361500D01*
X38244009Y-90580550D02*
X38220200Y-90556741D01*
X38220200Y-90556741D02*
X38196390Y-90485312D01*
X38196390Y-90485312D02*
X38196390Y-90437693D01*
X38196390Y-90437693D02*
X38220200Y-90366265D01*
X38220200Y-90366265D02*
X38267819Y-90318646D01*
X38267819Y-90318646D02*
X38315438Y-90294836D01*
X38315438Y-90294836D02*
X38410676Y-90271027D01*
X38410676Y-90271027D02*
X38482104Y-90271027D01*
X38482104Y-90271027D02*
X38577342Y-90294836D01*
X38577342Y-90294836D02*
X38624961Y-90318646D01*
X38624961Y-90318646D02*
X38672580Y-90366265D01*
X38672580Y-90366265D02*
X38696390Y-90437693D01*
X38696390Y-90437693D02*
X38696390Y-90485312D01*
X38696390Y-90485312D02*
X38672580Y-90556741D01*
X38672580Y-90556741D02*
X38648771Y-90580550D01*
X38196390Y-90794836D02*
X38696390Y-90794836D01*
X38196390Y-91009122D02*
X38458295Y-91009122D01*
X38458295Y-91009122D02*
X38505914Y-90985312D01*
X38505914Y-90985312D02*
X38529723Y-90937693D01*
X38529723Y-90937693D02*
X38529723Y-90866265D01*
X38529723Y-90866265D02*
X38505914Y-90818646D01*
X38505914Y-90818646D02*
X38482104Y-90794836D01*
X38648771Y-91223408D02*
X38672580Y-91247217D01*
X38672580Y-91247217D02*
X38696390Y-91294836D01*
X38696390Y-91294836D02*
X38696390Y-91413884D01*
X38696390Y-91413884D02*
X38672580Y-91461503D01*
X38672580Y-91461503D02*
X38648771Y-91485312D01*
X38648771Y-91485312D02*
X38601152Y-91509122D01*
X38601152Y-91509122D02*
X38553533Y-91509122D01*
X38553533Y-91509122D02*
X38482104Y-91485312D01*
X38482104Y-91485312D02*
X38196390Y-91199598D01*
X38196390Y-91199598D02*
X38196390Y-91509122D01*
X38696390Y-92032931D02*
X38196390Y-92199597D01*
X38196390Y-92199597D02*
X38696390Y-92366264D01*
X38220200Y-92890073D02*
X38196390Y-92961501D01*
X38196390Y-92961501D02*
X38196390Y-93080549D01*
X38196390Y-93080549D02*
X38220200Y-93128168D01*
X38220200Y-93128168D02*
X38244009Y-93151977D01*
X38244009Y-93151977D02*
X38291628Y-93175787D01*
X38291628Y-93175787D02*
X38339247Y-93175787D01*
X38339247Y-93175787D02*
X38386866Y-93151977D01*
X38386866Y-93151977D02*
X38410676Y-93128168D01*
X38410676Y-93128168D02*
X38434485Y-93080549D01*
X38434485Y-93080549D02*
X38458295Y-92985311D01*
X38458295Y-92985311D02*
X38482104Y-92937692D01*
X38482104Y-92937692D02*
X38505914Y-92913882D01*
X38505914Y-92913882D02*
X38553533Y-92890073D01*
X38553533Y-92890073D02*
X38601152Y-92890073D01*
X38601152Y-92890073D02*
X38648771Y-92913882D01*
X38648771Y-92913882D02*
X38672580Y-92937692D01*
X38672580Y-92937692D02*
X38696390Y-92985311D01*
X38696390Y-92985311D02*
X38696390Y-93104358D01*
X38696390Y-93104358D02*
X38672580Y-93175787D01*
X38672580Y-94032929D02*
X38696390Y-93985310D01*
X38696390Y-93985310D02*
X38696390Y-93913881D01*
X38696390Y-93913881D02*
X38672580Y-93842453D01*
X38672580Y-93842453D02*
X38624961Y-93794834D01*
X38624961Y-93794834D02*
X38577342Y-93771024D01*
X38577342Y-93771024D02*
X38482104Y-93747215D01*
X38482104Y-93747215D02*
X38410676Y-93747215D01*
X38410676Y-93747215D02*
X38315438Y-93771024D01*
X38315438Y-93771024D02*
X38267819Y-93794834D01*
X38267819Y-93794834D02*
X38220200Y-93842453D01*
X38220200Y-93842453D02*
X38196390Y-93913881D01*
X38196390Y-93913881D02*
X38196390Y-93961500D01*
X38196390Y-93961500D02*
X38220200Y-94032929D01*
X38220200Y-94032929D02*
X38244009Y-94056738D01*
X38244009Y-94056738D02*
X38410676Y-94056738D01*
X38410676Y-94056738D02*
X38410676Y-93961500D01*
X77439247Y-83671027D02*
X77439247Y-83909122D01*
X77296390Y-83623408D02*
X77796390Y-83790074D01*
X77796390Y-83790074D02*
X77296390Y-83956741D01*
X77296390Y-84123407D02*
X77796390Y-84123407D01*
X77748771Y-84337693D02*
X77772580Y-84361502D01*
X77772580Y-84361502D02*
X77796390Y-84409121D01*
X77796390Y-84409121D02*
X77796390Y-84528169D01*
X77796390Y-84528169D02*
X77772580Y-84575788D01*
X77772580Y-84575788D02*
X77748771Y-84599597D01*
X77748771Y-84599597D02*
X77701152Y-84623407D01*
X77701152Y-84623407D02*
X77653533Y-84623407D01*
X77653533Y-84623407D02*
X77582104Y-84599597D01*
X77582104Y-84599597D02*
X77296390Y-84313883D01*
X77296390Y-84313883D02*
X77296390Y-84623407D01*
X77796390Y-85147216D02*
X77296390Y-85313882D01*
X77296390Y-85313882D02*
X77796390Y-85480549D01*
X77320200Y-86004358D02*
X77296390Y-86075786D01*
X77296390Y-86075786D02*
X77296390Y-86194834D01*
X77296390Y-86194834D02*
X77320200Y-86242453D01*
X77320200Y-86242453D02*
X77344009Y-86266262D01*
X77344009Y-86266262D02*
X77391628Y-86290072D01*
X77391628Y-86290072D02*
X77439247Y-86290072D01*
X77439247Y-86290072D02*
X77486866Y-86266262D01*
X77486866Y-86266262D02*
X77510676Y-86242453D01*
X77510676Y-86242453D02*
X77534485Y-86194834D01*
X77534485Y-86194834D02*
X77558295Y-86099596D01*
X77558295Y-86099596D02*
X77582104Y-86051977D01*
X77582104Y-86051977D02*
X77605914Y-86028167D01*
X77605914Y-86028167D02*
X77653533Y-86004358D01*
X77653533Y-86004358D02*
X77701152Y-86004358D01*
X77701152Y-86004358D02*
X77748771Y-86028167D01*
X77748771Y-86028167D02*
X77772580Y-86051977D01*
X77772580Y-86051977D02*
X77796390Y-86099596D01*
X77796390Y-86099596D02*
X77796390Y-86218643D01*
X77796390Y-86218643D02*
X77772580Y-86290072D01*
X77772580Y-87147214D02*
X77796390Y-87099595D01*
X77796390Y-87099595D02*
X77796390Y-87028166D01*
X77796390Y-87028166D02*
X77772580Y-86956738D01*
X77772580Y-86956738D02*
X77724961Y-86909119D01*
X77724961Y-86909119D02*
X77677342Y-86885309D01*
X77677342Y-86885309D02*
X77582104Y-86861500D01*
X77582104Y-86861500D02*
X77510676Y-86861500D01*
X77510676Y-86861500D02*
X77415438Y-86885309D01*
X77415438Y-86885309D02*
X77367819Y-86909119D01*
X77367819Y-86909119D02*
X77320200Y-86956738D01*
X77320200Y-86956738D02*
X77296390Y-87028166D01*
X77296390Y-87028166D02*
X77296390Y-87075785D01*
X77296390Y-87075785D02*
X77320200Y-87147214D01*
X77320200Y-87147214D02*
X77344009Y-87171023D01*
X77344009Y-87171023D02*
X77510676Y-87171023D01*
X77510676Y-87171023D02*
X77510676Y-87075785D01*
X77296390Y-92494836D02*
X77796390Y-92494836D01*
X77796390Y-92494836D02*
X77796390Y-92613884D01*
X77796390Y-92613884D02*
X77772580Y-92685312D01*
X77772580Y-92685312D02*
X77724961Y-92732931D01*
X77724961Y-92732931D02*
X77677342Y-92756741D01*
X77677342Y-92756741D02*
X77582104Y-92780550D01*
X77582104Y-92780550D02*
X77510676Y-92780550D01*
X77510676Y-92780550D02*
X77415438Y-92756741D01*
X77415438Y-92756741D02*
X77367819Y-92732931D01*
X77367819Y-92732931D02*
X77320200Y-92685312D01*
X77320200Y-92685312D02*
X77296390Y-92613884D01*
X77296390Y-92613884D02*
X77296390Y-92494836D01*
X77296390Y-92947217D02*
X77629723Y-93209122D01*
X77629723Y-92947217D02*
X77296390Y-93209122D01*
X77320200Y-93756741D02*
X77296390Y-93828169D01*
X77296390Y-93828169D02*
X77296390Y-93947217D01*
X77296390Y-93947217D02*
X77320200Y-93994836D01*
X77320200Y-93994836D02*
X77344009Y-94018645D01*
X77344009Y-94018645D02*
X77391628Y-94042455D01*
X77391628Y-94042455D02*
X77439247Y-94042455D01*
X77439247Y-94042455D02*
X77486866Y-94018645D01*
X77486866Y-94018645D02*
X77510676Y-93994836D01*
X77510676Y-93994836D02*
X77534485Y-93947217D01*
X77534485Y-93947217D02*
X77558295Y-93851979D01*
X77558295Y-93851979D02*
X77582104Y-93804360D01*
X77582104Y-93804360D02*
X77605914Y-93780550D01*
X77605914Y-93780550D02*
X77653533Y-93756741D01*
X77653533Y-93756741D02*
X77701152Y-93756741D01*
X77701152Y-93756741D02*
X77748771Y-93780550D01*
X77748771Y-93780550D02*
X77772580Y-93804360D01*
X77772580Y-93804360D02*
X77796390Y-93851979D01*
X77796390Y-93851979D02*
X77796390Y-93971026D01*
X77796390Y-93971026D02*
X77772580Y-94042455D01*
X77772580Y-94899597D02*
X77796390Y-94851978D01*
X77796390Y-94851978D02*
X77796390Y-94780549D01*
X77796390Y-94780549D02*
X77772580Y-94709121D01*
X77772580Y-94709121D02*
X77724961Y-94661502D01*
X77724961Y-94661502D02*
X77677342Y-94637692D01*
X77677342Y-94637692D02*
X77582104Y-94613883D01*
X77582104Y-94613883D02*
X77510676Y-94613883D01*
X77510676Y-94613883D02*
X77415438Y-94637692D01*
X77415438Y-94637692D02*
X77367819Y-94661502D01*
X77367819Y-94661502D02*
X77320200Y-94709121D01*
X77320200Y-94709121D02*
X77296390Y-94780549D01*
X77296390Y-94780549D02*
X77296390Y-94828168D01*
X77296390Y-94828168D02*
X77320200Y-94899597D01*
X77320200Y-94899597D02*
X77344009Y-94923406D01*
X77344009Y-94923406D02*
X77510676Y-94923406D01*
X77510676Y-94923406D02*
X77510676Y-94828168D01*
D11*
X56284819Y-96552857D02*
X55808628Y-96886190D01*
X56284819Y-97124285D02*
X55284819Y-97124285D01*
X55284819Y-97124285D02*
X55284819Y-96743333D01*
X55284819Y-96743333D02*
X55332438Y-96648095D01*
X55332438Y-96648095D02*
X55380057Y-96600476D01*
X55380057Y-96600476D02*
X55475295Y-96552857D01*
X55475295Y-96552857D02*
X55618152Y-96552857D01*
X55618152Y-96552857D02*
X55713390Y-96600476D01*
X55713390Y-96600476D02*
X55761009Y-96648095D01*
X55761009Y-96648095D02*
X55808628Y-96743333D01*
X55808628Y-96743333D02*
X55808628Y-97124285D01*
X55380057Y-96171904D02*
X55332438Y-96124285D01*
X55332438Y-96124285D02*
X55284819Y-96029047D01*
X55284819Y-96029047D02*
X55284819Y-95790952D01*
X55284819Y-95790952D02*
X55332438Y-95695714D01*
X55332438Y-95695714D02*
X55380057Y-95648095D01*
X55380057Y-95648095D02*
X55475295Y-95600476D01*
X55475295Y-95600476D02*
X55570533Y-95600476D01*
X55570533Y-95600476D02*
X55713390Y-95648095D01*
X55713390Y-95648095D02*
X56284819Y-96219523D01*
X56284819Y-96219523D02*
X56284819Y-95600476D01*
X56284819Y-94648095D02*
X56284819Y-95219523D01*
X56284819Y-94933809D02*
X55284819Y-94933809D01*
X55284819Y-94933809D02*
X55427676Y-95029047D01*
X55427676Y-95029047D02*
X55522914Y-95124285D01*
X55522914Y-95124285D02*
X55570533Y-95219523D01*
X54584819Y-96652857D02*
X54108628Y-96986190D01*
X54584819Y-97224285D02*
X53584819Y-97224285D01*
X53584819Y-97224285D02*
X53584819Y-96843333D01*
X53584819Y-96843333D02*
X53632438Y-96748095D01*
X53632438Y-96748095D02*
X53680057Y-96700476D01*
X53680057Y-96700476D02*
X53775295Y-96652857D01*
X53775295Y-96652857D02*
X53918152Y-96652857D01*
X53918152Y-96652857D02*
X54013390Y-96700476D01*
X54013390Y-96700476D02*
X54061009Y-96748095D01*
X54061009Y-96748095D02*
X54108628Y-96843333D01*
X54108628Y-96843333D02*
X54108628Y-97224285D01*
X53680057Y-96271904D02*
X53632438Y-96224285D01*
X53632438Y-96224285D02*
X53584819Y-96129047D01*
X53584819Y-96129047D02*
X53584819Y-95890952D01*
X53584819Y-95890952D02*
X53632438Y-95795714D01*
X53632438Y-95795714D02*
X53680057Y-95748095D01*
X53680057Y-95748095D02*
X53775295Y-95700476D01*
X53775295Y-95700476D02*
X53870533Y-95700476D01*
X53870533Y-95700476D02*
X54013390Y-95748095D01*
X54013390Y-95748095D02*
X54584819Y-96319523D01*
X54584819Y-96319523D02*
X54584819Y-95700476D01*
X53584819Y-95081428D02*
X53584819Y-94986190D01*
X53584819Y-94986190D02*
X53632438Y-94890952D01*
X53632438Y-94890952D02*
X53680057Y-94843333D01*
X53680057Y-94843333D02*
X53775295Y-94795714D01*
X53775295Y-94795714D02*
X53965771Y-94748095D01*
X53965771Y-94748095D02*
X54203866Y-94748095D01*
X54203866Y-94748095D02*
X54394342Y-94795714D01*
X54394342Y-94795714D02*
X54489580Y-94843333D01*
X54489580Y-94843333D02*
X54537200Y-94890952D01*
X54537200Y-94890952D02*
X54584819Y-94986190D01*
X54584819Y-94986190D02*
X54584819Y-95081428D01*
X54584819Y-95081428D02*
X54537200Y-95176666D01*
X54537200Y-95176666D02*
X54489580Y-95224285D01*
X54489580Y-95224285D02*
X54394342Y-95271904D01*
X54394342Y-95271904D02*
X54203866Y-95319523D01*
X54203866Y-95319523D02*
X53965771Y-95319523D01*
X53965771Y-95319523D02*
X53775295Y-95271904D01*
X53775295Y-95271904D02*
X53680057Y-95224285D01*
X53680057Y-95224285D02*
X53632438Y-95176666D01*
X53632438Y-95176666D02*
X53584819Y-95081428D01*
X56184819Y-83952857D02*
X55708628Y-84286190D01*
X56184819Y-84524285D02*
X55184819Y-84524285D01*
X55184819Y-84524285D02*
X55184819Y-84143333D01*
X55184819Y-84143333D02*
X55232438Y-84048095D01*
X55232438Y-84048095D02*
X55280057Y-84000476D01*
X55280057Y-84000476D02*
X55375295Y-83952857D01*
X55375295Y-83952857D02*
X55518152Y-83952857D01*
X55518152Y-83952857D02*
X55613390Y-84000476D01*
X55613390Y-84000476D02*
X55661009Y-84048095D01*
X55661009Y-84048095D02*
X55708628Y-84143333D01*
X55708628Y-84143333D02*
X55708628Y-84524285D01*
X56184819Y-83000476D02*
X56184819Y-83571904D01*
X56184819Y-83286190D02*
X55184819Y-83286190D01*
X55184819Y-83286190D02*
X55327676Y-83381428D01*
X55327676Y-83381428D02*
X55422914Y-83476666D01*
X55422914Y-83476666D02*
X55470533Y-83571904D01*
X56184819Y-82524285D02*
X56184819Y-82333809D01*
X56184819Y-82333809D02*
X56137200Y-82238571D01*
X56137200Y-82238571D02*
X56089580Y-82190952D01*
X56089580Y-82190952D02*
X55946723Y-82095714D01*
X55946723Y-82095714D02*
X55756247Y-82048095D01*
X55756247Y-82048095D02*
X55375295Y-82048095D01*
X55375295Y-82048095D02*
X55280057Y-82095714D01*
X55280057Y-82095714D02*
X55232438Y-82143333D01*
X55232438Y-82143333D02*
X55184819Y-82238571D01*
X55184819Y-82238571D02*
X55184819Y-82429047D01*
X55184819Y-82429047D02*
X55232438Y-82524285D01*
X55232438Y-82524285D02*
X55280057Y-82571904D01*
X55280057Y-82571904D02*
X55375295Y-82619523D01*
X55375295Y-82619523D02*
X55613390Y-82619523D01*
X55613390Y-82619523D02*
X55708628Y-82571904D01*
X55708628Y-82571904D02*
X55756247Y-82524285D01*
X55756247Y-82524285D02*
X55803866Y-82429047D01*
X55803866Y-82429047D02*
X55803866Y-82238571D01*
X55803866Y-82238571D02*
X55756247Y-82143333D01*
X55756247Y-82143333D02*
X55708628Y-82095714D01*
X55708628Y-82095714D02*
X55613390Y-82048095D01*
X57514819Y-89977857D02*
X57038628Y-90311190D01*
X57514819Y-90549285D02*
X56514819Y-90549285D01*
X56514819Y-90549285D02*
X56514819Y-90168333D01*
X56514819Y-90168333D02*
X56562438Y-90073095D01*
X56562438Y-90073095D02*
X56610057Y-90025476D01*
X56610057Y-90025476D02*
X56705295Y-89977857D01*
X56705295Y-89977857D02*
X56848152Y-89977857D01*
X56848152Y-89977857D02*
X56943390Y-90025476D01*
X56943390Y-90025476D02*
X56991009Y-90073095D01*
X56991009Y-90073095D02*
X57038628Y-90168333D01*
X57038628Y-90168333D02*
X57038628Y-90549285D01*
X57514819Y-89025476D02*
X57514819Y-89596904D01*
X57514819Y-89311190D02*
X56514819Y-89311190D01*
X56514819Y-89311190D02*
X56657676Y-89406428D01*
X56657676Y-89406428D02*
X56752914Y-89501666D01*
X56752914Y-89501666D02*
X56800533Y-89596904D01*
X56943390Y-88454047D02*
X56895771Y-88549285D01*
X56895771Y-88549285D02*
X56848152Y-88596904D01*
X56848152Y-88596904D02*
X56752914Y-88644523D01*
X56752914Y-88644523D02*
X56705295Y-88644523D01*
X56705295Y-88644523D02*
X56610057Y-88596904D01*
X56610057Y-88596904D02*
X56562438Y-88549285D01*
X56562438Y-88549285D02*
X56514819Y-88454047D01*
X56514819Y-88454047D02*
X56514819Y-88263571D01*
X56514819Y-88263571D02*
X56562438Y-88168333D01*
X56562438Y-88168333D02*
X56610057Y-88120714D01*
X56610057Y-88120714D02*
X56705295Y-88073095D01*
X56705295Y-88073095D02*
X56752914Y-88073095D01*
X56752914Y-88073095D02*
X56848152Y-88120714D01*
X56848152Y-88120714D02*
X56895771Y-88168333D01*
X56895771Y-88168333D02*
X56943390Y-88263571D01*
X56943390Y-88263571D02*
X56943390Y-88454047D01*
X56943390Y-88454047D02*
X56991009Y-88549285D01*
X56991009Y-88549285D02*
X57038628Y-88596904D01*
X57038628Y-88596904D02*
X57133866Y-88644523D01*
X57133866Y-88644523D02*
X57324342Y-88644523D01*
X57324342Y-88644523D02*
X57419580Y-88596904D01*
X57419580Y-88596904D02*
X57467200Y-88549285D01*
X57467200Y-88549285D02*
X57514819Y-88454047D01*
X57514819Y-88454047D02*
X57514819Y-88263571D01*
X57514819Y-88263571D02*
X57467200Y-88168333D01*
X57467200Y-88168333D02*
X57419580Y-88120714D01*
X57419580Y-88120714D02*
X57324342Y-88073095D01*
X57324342Y-88073095D02*
X57133866Y-88073095D01*
X57133866Y-88073095D02*
X57038628Y-88120714D01*
X57038628Y-88120714D02*
X56991009Y-88168333D01*
X56991009Y-88168333D02*
X56943390Y-88263571D01*
X53688333Y-63839580D02*
X53640714Y-63887200D01*
X53640714Y-63887200D02*
X53497857Y-63934819D01*
X53497857Y-63934819D02*
X53402619Y-63934819D01*
X53402619Y-63934819D02*
X53259762Y-63887200D01*
X53259762Y-63887200D02*
X53164524Y-63791961D01*
X53164524Y-63791961D02*
X53116905Y-63696723D01*
X53116905Y-63696723D02*
X53069286Y-63506247D01*
X53069286Y-63506247D02*
X53069286Y-63363390D01*
X53069286Y-63363390D02*
X53116905Y-63172914D01*
X53116905Y-63172914D02*
X53164524Y-63077676D01*
X53164524Y-63077676D02*
X53259762Y-62982438D01*
X53259762Y-62982438D02*
X53402619Y-62934819D01*
X53402619Y-62934819D02*
X53497857Y-62934819D01*
X53497857Y-62934819D02*
X53640714Y-62982438D01*
X53640714Y-62982438D02*
X53688333Y-63030057D01*
X54593095Y-62934819D02*
X54116905Y-62934819D01*
X54116905Y-62934819D02*
X54069286Y-63411009D01*
X54069286Y-63411009D02*
X54116905Y-63363390D01*
X54116905Y-63363390D02*
X54212143Y-63315771D01*
X54212143Y-63315771D02*
X54450238Y-63315771D01*
X54450238Y-63315771D02*
X54545476Y-63363390D01*
X54545476Y-63363390D02*
X54593095Y-63411009D01*
X54593095Y-63411009D02*
X54640714Y-63506247D01*
X54640714Y-63506247D02*
X54640714Y-63744342D01*
X54640714Y-63744342D02*
X54593095Y-63839580D01*
X54593095Y-63839580D02*
X54545476Y-63887200D01*
X54545476Y-63887200D02*
X54450238Y-63934819D01*
X54450238Y-63934819D02*
X54212143Y-63934819D01*
X54212143Y-63934819D02*
X54116905Y-63887200D01*
X54116905Y-63887200D02*
X54069286Y-63839580D01*
X45891905Y-98064819D02*
X45891905Y-97064819D01*
X45891905Y-97064819D02*
X46130000Y-97064819D01*
X46130000Y-97064819D02*
X46272857Y-97112438D01*
X46272857Y-97112438D02*
X46368095Y-97207676D01*
X46368095Y-97207676D02*
X46415714Y-97302914D01*
X46415714Y-97302914D02*
X46463333Y-97493390D01*
X46463333Y-97493390D02*
X46463333Y-97636247D01*
X46463333Y-97636247D02*
X46415714Y-97826723D01*
X46415714Y-97826723D02*
X46368095Y-97921961D01*
X46368095Y-97921961D02*
X46272857Y-98017200D01*
X46272857Y-98017200D02*
X46130000Y-98064819D01*
X46130000Y-98064819D02*
X45891905Y-98064819D01*
X47320476Y-97064819D02*
X47130000Y-97064819D01*
X47130000Y-97064819D02*
X47034762Y-97112438D01*
X47034762Y-97112438D02*
X46987143Y-97160057D01*
X46987143Y-97160057D02*
X46891905Y-97302914D01*
X46891905Y-97302914D02*
X46844286Y-97493390D01*
X46844286Y-97493390D02*
X46844286Y-97874342D01*
X46844286Y-97874342D02*
X46891905Y-97969580D01*
X46891905Y-97969580D02*
X46939524Y-98017200D01*
X46939524Y-98017200D02*
X47034762Y-98064819D01*
X47034762Y-98064819D02*
X47225238Y-98064819D01*
X47225238Y-98064819D02*
X47320476Y-98017200D01*
X47320476Y-98017200D02*
X47368095Y-97969580D01*
X47368095Y-97969580D02*
X47415714Y-97874342D01*
X47415714Y-97874342D02*
X47415714Y-97636247D01*
X47415714Y-97636247D02*
X47368095Y-97541009D01*
X47368095Y-97541009D02*
X47320476Y-97493390D01*
X47320476Y-97493390D02*
X47225238Y-97445771D01*
X47225238Y-97445771D02*
X47034762Y-97445771D01*
X47034762Y-97445771D02*
X46939524Y-97493390D01*
X46939524Y-97493390D02*
X46891905Y-97541009D01*
X46891905Y-97541009D02*
X46844286Y-97636247D01*
X72596666Y-83264819D02*
X72596666Y-83979104D01*
X72596666Y-83979104D02*
X72549047Y-84121961D01*
X72549047Y-84121961D02*
X72453809Y-84217200D01*
X72453809Y-84217200D02*
X72310952Y-84264819D01*
X72310952Y-84264819D02*
X72215714Y-84264819D01*
X73549047Y-83264819D02*
X73072857Y-83264819D01*
X73072857Y-83264819D02*
X73025238Y-83741009D01*
X73025238Y-83741009D02*
X73072857Y-83693390D01*
X73072857Y-83693390D02*
X73168095Y-83645771D01*
X73168095Y-83645771D02*
X73406190Y-83645771D01*
X73406190Y-83645771D02*
X73501428Y-83693390D01*
X73501428Y-83693390D02*
X73549047Y-83741009D01*
X73549047Y-83741009D02*
X73596666Y-83836247D01*
X73596666Y-83836247D02*
X73596666Y-84074342D01*
X73596666Y-84074342D02*
X73549047Y-84169580D01*
X73549047Y-84169580D02*
X73501428Y-84217200D01*
X73501428Y-84217200D02*
X73406190Y-84264819D01*
X73406190Y-84264819D02*
X73168095Y-84264819D01*
X73168095Y-84264819D02*
X73072857Y-84217200D01*
X73072857Y-84217200D02*
X73025238Y-84169580D01*
X65084819Y-86248094D02*
X64084819Y-86248094D01*
X64084819Y-86248094D02*
X64084819Y-86009999D01*
X64084819Y-86009999D02*
X64132438Y-85867142D01*
X64132438Y-85867142D02*
X64227676Y-85771904D01*
X64227676Y-85771904D02*
X64322914Y-85724285D01*
X64322914Y-85724285D02*
X64513390Y-85676666D01*
X64513390Y-85676666D02*
X64656247Y-85676666D01*
X64656247Y-85676666D02*
X64846723Y-85724285D01*
X64846723Y-85724285D02*
X64941961Y-85771904D01*
X64941961Y-85771904D02*
X65037200Y-85867142D01*
X65037200Y-85867142D02*
X65084819Y-86009999D01*
X65084819Y-86009999D02*
X65084819Y-86248094D01*
X64418152Y-84819523D02*
X65084819Y-84819523D01*
X64037200Y-85057618D02*
X64751485Y-85295713D01*
X64751485Y-85295713D02*
X64751485Y-84676666D01*
X60358333Y-84924819D02*
X60025000Y-84448628D01*
X59786905Y-84924819D02*
X59786905Y-83924819D01*
X59786905Y-83924819D02*
X60167857Y-83924819D01*
X60167857Y-83924819D02*
X60263095Y-83972438D01*
X60263095Y-83972438D02*
X60310714Y-84020057D01*
X60310714Y-84020057D02*
X60358333Y-84115295D01*
X60358333Y-84115295D02*
X60358333Y-84258152D01*
X60358333Y-84258152D02*
X60310714Y-84353390D01*
X60310714Y-84353390D02*
X60263095Y-84401009D01*
X60263095Y-84401009D02*
X60167857Y-84448628D01*
X60167857Y-84448628D02*
X59786905Y-84448628D01*
X60691667Y-83924819D02*
X61358333Y-83924819D01*
X61358333Y-83924819D02*
X60929762Y-84924819D01*
X50663333Y-78064819D02*
X50330000Y-77588628D01*
X50091905Y-78064819D02*
X50091905Y-77064819D01*
X50091905Y-77064819D02*
X50472857Y-77064819D01*
X50472857Y-77064819D02*
X50568095Y-77112438D01*
X50568095Y-77112438D02*
X50615714Y-77160057D01*
X50615714Y-77160057D02*
X50663333Y-77255295D01*
X50663333Y-77255295D02*
X50663333Y-77398152D01*
X50663333Y-77398152D02*
X50615714Y-77493390D01*
X50615714Y-77493390D02*
X50568095Y-77541009D01*
X50568095Y-77541009D02*
X50472857Y-77588628D01*
X50472857Y-77588628D02*
X50091905Y-77588628D01*
X51520476Y-77064819D02*
X51330000Y-77064819D01*
X51330000Y-77064819D02*
X51234762Y-77112438D01*
X51234762Y-77112438D02*
X51187143Y-77160057D01*
X51187143Y-77160057D02*
X51091905Y-77302914D01*
X51091905Y-77302914D02*
X51044286Y-77493390D01*
X51044286Y-77493390D02*
X51044286Y-77874342D01*
X51044286Y-77874342D02*
X51091905Y-77969580D01*
X51091905Y-77969580D02*
X51139524Y-78017200D01*
X51139524Y-78017200D02*
X51234762Y-78064819D01*
X51234762Y-78064819D02*
X51425238Y-78064819D01*
X51425238Y-78064819D02*
X51520476Y-78017200D01*
X51520476Y-78017200D02*
X51568095Y-77969580D01*
X51568095Y-77969580D02*
X51615714Y-77874342D01*
X51615714Y-77874342D02*
X51615714Y-77636247D01*
X51615714Y-77636247D02*
X51568095Y-77541009D01*
X51568095Y-77541009D02*
X51520476Y-77493390D01*
X51520476Y-77493390D02*
X51425238Y-77445771D01*
X51425238Y-77445771D02*
X51234762Y-77445771D01*
X51234762Y-77445771D02*
X51139524Y-77493390D01*
X51139524Y-77493390D02*
X51091905Y-77541009D01*
X51091905Y-77541009D02*
X51044286Y-77636247D01*
X50591905Y-84864819D02*
X50591905Y-83864819D01*
X50591905Y-83864819D02*
X50830000Y-83864819D01*
X50830000Y-83864819D02*
X50972857Y-83912438D01*
X50972857Y-83912438D02*
X51068095Y-84007676D01*
X51068095Y-84007676D02*
X51115714Y-84102914D01*
X51115714Y-84102914D02*
X51163333Y-84293390D01*
X51163333Y-84293390D02*
X51163333Y-84436247D01*
X51163333Y-84436247D02*
X51115714Y-84626723D01*
X51115714Y-84626723D02*
X51068095Y-84721961D01*
X51068095Y-84721961D02*
X50972857Y-84817200D01*
X50972857Y-84817200D02*
X50830000Y-84864819D01*
X50830000Y-84864819D02*
X50591905Y-84864819D01*
X51544286Y-83960057D02*
X51591905Y-83912438D01*
X51591905Y-83912438D02*
X51687143Y-83864819D01*
X51687143Y-83864819D02*
X51925238Y-83864819D01*
X51925238Y-83864819D02*
X52020476Y-83912438D01*
X52020476Y-83912438D02*
X52068095Y-83960057D01*
X52068095Y-83960057D02*
X52115714Y-84055295D01*
X52115714Y-84055295D02*
X52115714Y-84150533D01*
X52115714Y-84150533D02*
X52068095Y-84293390D01*
X52068095Y-84293390D02*
X51496667Y-84864819D01*
X51496667Y-84864819D02*
X52115714Y-84864819D01*
X68087142Y-87369580D02*
X68039523Y-87417200D01*
X68039523Y-87417200D02*
X67896666Y-87464819D01*
X67896666Y-87464819D02*
X67801428Y-87464819D01*
X67801428Y-87464819D02*
X67658571Y-87417200D01*
X67658571Y-87417200D02*
X67563333Y-87321961D01*
X67563333Y-87321961D02*
X67515714Y-87226723D01*
X67515714Y-87226723D02*
X67468095Y-87036247D01*
X67468095Y-87036247D02*
X67468095Y-86893390D01*
X67468095Y-86893390D02*
X67515714Y-86702914D01*
X67515714Y-86702914D02*
X67563333Y-86607676D01*
X67563333Y-86607676D02*
X67658571Y-86512438D01*
X67658571Y-86512438D02*
X67801428Y-86464819D01*
X67801428Y-86464819D02*
X67896666Y-86464819D01*
X67896666Y-86464819D02*
X68039523Y-86512438D01*
X68039523Y-86512438D02*
X68087142Y-86560057D01*
X69039523Y-87464819D02*
X68468095Y-87464819D01*
X68753809Y-87464819D02*
X68753809Y-86464819D01*
X68753809Y-86464819D02*
X68658571Y-86607676D01*
X68658571Y-86607676D02*
X68563333Y-86702914D01*
X68563333Y-86702914D02*
X68468095Y-86750533D01*
X69658571Y-86464819D02*
X69753809Y-86464819D01*
X69753809Y-86464819D02*
X69849047Y-86512438D01*
X69849047Y-86512438D02*
X69896666Y-86560057D01*
X69896666Y-86560057D02*
X69944285Y-86655295D01*
X69944285Y-86655295D02*
X69991904Y-86845771D01*
X69991904Y-86845771D02*
X69991904Y-87083866D01*
X69991904Y-87083866D02*
X69944285Y-87274342D01*
X69944285Y-87274342D02*
X69896666Y-87369580D01*
X69896666Y-87369580D02*
X69849047Y-87417200D01*
X69849047Y-87417200D02*
X69753809Y-87464819D01*
X69753809Y-87464819D02*
X69658571Y-87464819D01*
X69658571Y-87464819D02*
X69563333Y-87417200D01*
X69563333Y-87417200D02*
X69515714Y-87369580D01*
X69515714Y-87369580D02*
X69468095Y-87274342D01*
X69468095Y-87274342D02*
X69420476Y-87083866D01*
X69420476Y-87083866D02*
X69420476Y-86845771D01*
X69420476Y-86845771D02*
X69468095Y-86655295D01*
X69468095Y-86655295D02*
X69515714Y-86560057D01*
X69515714Y-86560057D02*
X69563333Y-86512438D01*
X69563333Y-86512438D02*
X69658571Y-86464819D01*
X68187142Y-85864819D02*
X67853809Y-85388628D01*
X67615714Y-85864819D02*
X67615714Y-84864819D01*
X67615714Y-84864819D02*
X67996666Y-84864819D01*
X67996666Y-84864819D02*
X68091904Y-84912438D01*
X68091904Y-84912438D02*
X68139523Y-84960057D01*
X68139523Y-84960057D02*
X68187142Y-85055295D01*
X68187142Y-85055295D02*
X68187142Y-85198152D01*
X68187142Y-85198152D02*
X68139523Y-85293390D01*
X68139523Y-85293390D02*
X68091904Y-85341009D01*
X68091904Y-85341009D02*
X67996666Y-85388628D01*
X67996666Y-85388628D02*
X67615714Y-85388628D01*
X69139523Y-85864819D02*
X68568095Y-85864819D01*
X68853809Y-85864819D02*
X68853809Y-84864819D01*
X68853809Y-84864819D02*
X68758571Y-85007676D01*
X68758571Y-85007676D02*
X68663333Y-85102914D01*
X68663333Y-85102914D02*
X68568095Y-85150533D01*
X70091904Y-85864819D02*
X69520476Y-85864819D01*
X69806190Y-85864819D02*
X69806190Y-84864819D01*
X69806190Y-84864819D02*
X69710952Y-85007676D01*
X69710952Y-85007676D02*
X69615714Y-85102914D01*
X69615714Y-85102914D02*
X69520476Y-85150533D01*
X67589580Y-99352857D02*
X67637200Y-99400476D01*
X67637200Y-99400476D02*
X67684819Y-99543333D01*
X67684819Y-99543333D02*
X67684819Y-99638571D01*
X67684819Y-99638571D02*
X67637200Y-99781428D01*
X67637200Y-99781428D02*
X67541961Y-99876666D01*
X67541961Y-99876666D02*
X67446723Y-99924285D01*
X67446723Y-99924285D02*
X67256247Y-99971904D01*
X67256247Y-99971904D02*
X67113390Y-99971904D01*
X67113390Y-99971904D02*
X66922914Y-99924285D01*
X66922914Y-99924285D02*
X66827676Y-99876666D01*
X66827676Y-99876666D02*
X66732438Y-99781428D01*
X66732438Y-99781428D02*
X66684819Y-99638571D01*
X66684819Y-99638571D02*
X66684819Y-99543333D01*
X66684819Y-99543333D02*
X66732438Y-99400476D01*
X66732438Y-99400476D02*
X66780057Y-99352857D01*
X67684819Y-98400476D02*
X67684819Y-98971904D01*
X67684819Y-98686190D02*
X66684819Y-98686190D01*
X66684819Y-98686190D02*
X66827676Y-98781428D01*
X66827676Y-98781428D02*
X66922914Y-98876666D01*
X66922914Y-98876666D02*
X66970533Y-98971904D01*
X67684819Y-97448095D02*
X67684819Y-98019523D01*
X67684819Y-97733809D02*
X66684819Y-97733809D01*
X66684819Y-97733809D02*
X66827676Y-97829047D01*
X66827676Y-97829047D02*
X66922914Y-97924285D01*
X66922914Y-97924285D02*
X66970533Y-98019523D01*
X40296666Y-77164819D02*
X40296666Y-77879104D01*
X40296666Y-77879104D02*
X40249047Y-78021961D01*
X40249047Y-78021961D02*
X40153809Y-78117200D01*
X40153809Y-78117200D02*
X40010952Y-78164819D01*
X40010952Y-78164819D02*
X39915714Y-78164819D01*
X41296666Y-78164819D02*
X40725238Y-78164819D01*
X41010952Y-78164819D02*
X41010952Y-77164819D01*
X41010952Y-77164819D02*
X40915714Y-77307676D01*
X40915714Y-77307676D02*
X40820476Y-77402914D01*
X40820476Y-77402914D02*
X40725238Y-77450533D01*
X51589580Y-73476666D02*
X51637200Y-73524285D01*
X51637200Y-73524285D02*
X51684819Y-73667142D01*
X51684819Y-73667142D02*
X51684819Y-73762380D01*
X51684819Y-73762380D02*
X51637200Y-73905237D01*
X51637200Y-73905237D02*
X51541961Y-74000475D01*
X51541961Y-74000475D02*
X51446723Y-74048094D01*
X51446723Y-74048094D02*
X51256247Y-74095713D01*
X51256247Y-74095713D02*
X51113390Y-74095713D01*
X51113390Y-74095713D02*
X50922914Y-74048094D01*
X50922914Y-74048094D02*
X50827676Y-74000475D01*
X50827676Y-74000475D02*
X50732438Y-73905237D01*
X50732438Y-73905237D02*
X50684819Y-73762380D01*
X50684819Y-73762380D02*
X50684819Y-73667142D01*
X50684819Y-73667142D02*
X50732438Y-73524285D01*
X50732438Y-73524285D02*
X50780057Y-73476666D01*
X50780057Y-73095713D02*
X50732438Y-73048094D01*
X50732438Y-73048094D02*
X50684819Y-72952856D01*
X50684819Y-72952856D02*
X50684819Y-72714761D01*
X50684819Y-72714761D02*
X50732438Y-72619523D01*
X50732438Y-72619523D02*
X50780057Y-72571904D01*
X50780057Y-72571904D02*
X50875295Y-72524285D01*
X50875295Y-72524285D02*
X50970533Y-72524285D01*
X50970533Y-72524285D02*
X51113390Y-72571904D01*
X51113390Y-72571904D02*
X51684819Y-73143332D01*
X51684819Y-73143332D02*
X51684819Y-72524285D01*
X52734761Y-91460057D02*
X52639523Y-91412438D01*
X52639523Y-91412438D02*
X52544285Y-91317200D01*
X52544285Y-91317200D02*
X52401428Y-91174342D01*
X52401428Y-91174342D02*
X52306190Y-91126723D01*
X52306190Y-91126723D02*
X52210952Y-91126723D01*
X52258571Y-91364819D02*
X52163333Y-91317200D01*
X52163333Y-91317200D02*
X52068095Y-91221961D01*
X52068095Y-91221961D02*
X52020476Y-91031485D01*
X52020476Y-91031485D02*
X52020476Y-90698152D01*
X52020476Y-90698152D02*
X52068095Y-90507676D01*
X52068095Y-90507676D02*
X52163333Y-90412438D01*
X52163333Y-90412438D02*
X52258571Y-90364819D01*
X52258571Y-90364819D02*
X52449047Y-90364819D01*
X52449047Y-90364819D02*
X52544285Y-90412438D01*
X52544285Y-90412438D02*
X52639523Y-90507676D01*
X52639523Y-90507676D02*
X52687142Y-90698152D01*
X52687142Y-90698152D02*
X52687142Y-91031485D01*
X52687142Y-91031485D02*
X52639523Y-91221961D01*
X52639523Y-91221961D02*
X52544285Y-91317200D01*
X52544285Y-91317200D02*
X52449047Y-91364819D01*
X52449047Y-91364819D02*
X52258571Y-91364819D01*
X53020476Y-90364819D02*
X53639523Y-90364819D01*
X53639523Y-90364819D02*
X53306190Y-90745771D01*
X53306190Y-90745771D02*
X53449047Y-90745771D01*
X53449047Y-90745771D02*
X53544285Y-90793390D01*
X53544285Y-90793390D02*
X53591904Y-90841009D01*
X53591904Y-90841009D02*
X53639523Y-90936247D01*
X53639523Y-90936247D02*
X53639523Y-91174342D01*
X53639523Y-91174342D02*
X53591904Y-91269580D01*
X53591904Y-91269580D02*
X53544285Y-91317200D01*
X53544285Y-91317200D02*
X53449047Y-91364819D01*
X53449047Y-91364819D02*
X53163333Y-91364819D01*
X53163333Y-91364819D02*
X53068095Y-91317200D01*
X53068095Y-91317200D02*
X53020476Y-91269580D01*
X64968095Y-87364819D02*
X64968095Y-88174342D01*
X64968095Y-88174342D02*
X65015714Y-88269580D01*
X65015714Y-88269580D02*
X65063333Y-88317200D01*
X65063333Y-88317200D02*
X65158571Y-88364819D01*
X65158571Y-88364819D02*
X65349047Y-88364819D01*
X65349047Y-88364819D02*
X65444285Y-88317200D01*
X65444285Y-88317200D02*
X65491904Y-88269580D01*
X65491904Y-88269580D02*
X65539523Y-88174342D01*
X65539523Y-88174342D02*
X65539523Y-87364819D01*
X65968095Y-87460057D02*
X66015714Y-87412438D01*
X66015714Y-87412438D02*
X66110952Y-87364819D01*
X66110952Y-87364819D02*
X66349047Y-87364819D01*
X66349047Y-87364819D02*
X66444285Y-87412438D01*
X66444285Y-87412438D02*
X66491904Y-87460057D01*
X66491904Y-87460057D02*
X66539523Y-87555295D01*
X66539523Y-87555295D02*
X66539523Y-87650533D01*
X66539523Y-87650533D02*
X66491904Y-87793390D01*
X66491904Y-87793390D02*
X65920476Y-88364819D01*
X65920476Y-88364819D02*
X66539523Y-88364819D01*
X71463333Y-66964819D02*
X71130000Y-66488628D01*
X70891905Y-66964819D02*
X70891905Y-65964819D01*
X70891905Y-65964819D02*
X71272857Y-65964819D01*
X71272857Y-65964819D02*
X71368095Y-66012438D01*
X71368095Y-66012438D02*
X71415714Y-66060057D01*
X71415714Y-66060057D02*
X71463333Y-66155295D01*
X71463333Y-66155295D02*
X71463333Y-66298152D01*
X71463333Y-66298152D02*
X71415714Y-66393390D01*
X71415714Y-66393390D02*
X71368095Y-66441009D01*
X71368095Y-66441009D02*
X71272857Y-66488628D01*
X71272857Y-66488628D02*
X70891905Y-66488628D01*
X71796667Y-65964819D02*
X72415714Y-65964819D01*
X72415714Y-65964819D02*
X72082381Y-66345771D01*
X72082381Y-66345771D02*
X72225238Y-66345771D01*
X72225238Y-66345771D02*
X72320476Y-66393390D01*
X72320476Y-66393390D02*
X72368095Y-66441009D01*
X72368095Y-66441009D02*
X72415714Y-66536247D01*
X72415714Y-66536247D02*
X72415714Y-66774342D01*
X72415714Y-66774342D02*
X72368095Y-66869580D01*
X72368095Y-66869580D02*
X72320476Y-66917200D01*
X72320476Y-66917200D02*
X72225238Y-66964819D01*
X72225238Y-66964819D02*
X71939524Y-66964819D01*
X71939524Y-66964819D02*
X71844286Y-66917200D01*
X71844286Y-66917200D02*
X71796667Y-66869580D01*
X57863333Y-87869580D02*
X57815714Y-87917200D01*
X57815714Y-87917200D02*
X57672857Y-87964819D01*
X57672857Y-87964819D02*
X57577619Y-87964819D01*
X57577619Y-87964819D02*
X57434762Y-87917200D01*
X57434762Y-87917200D02*
X57339524Y-87821961D01*
X57339524Y-87821961D02*
X57291905Y-87726723D01*
X57291905Y-87726723D02*
X57244286Y-87536247D01*
X57244286Y-87536247D02*
X57244286Y-87393390D01*
X57244286Y-87393390D02*
X57291905Y-87202914D01*
X57291905Y-87202914D02*
X57339524Y-87107676D01*
X57339524Y-87107676D02*
X57434762Y-87012438D01*
X57434762Y-87012438D02*
X57577619Y-86964819D01*
X57577619Y-86964819D02*
X57672857Y-86964819D01*
X57672857Y-86964819D02*
X57815714Y-87012438D01*
X57815714Y-87012438D02*
X57863333Y-87060057D01*
X58434762Y-87393390D02*
X58339524Y-87345771D01*
X58339524Y-87345771D02*
X58291905Y-87298152D01*
X58291905Y-87298152D02*
X58244286Y-87202914D01*
X58244286Y-87202914D02*
X58244286Y-87155295D01*
X58244286Y-87155295D02*
X58291905Y-87060057D01*
X58291905Y-87060057D02*
X58339524Y-87012438D01*
X58339524Y-87012438D02*
X58434762Y-86964819D01*
X58434762Y-86964819D02*
X58625238Y-86964819D01*
X58625238Y-86964819D02*
X58720476Y-87012438D01*
X58720476Y-87012438D02*
X58768095Y-87060057D01*
X58768095Y-87060057D02*
X58815714Y-87155295D01*
X58815714Y-87155295D02*
X58815714Y-87202914D01*
X58815714Y-87202914D02*
X58768095Y-87298152D01*
X58768095Y-87298152D02*
X58720476Y-87345771D01*
X58720476Y-87345771D02*
X58625238Y-87393390D01*
X58625238Y-87393390D02*
X58434762Y-87393390D01*
X58434762Y-87393390D02*
X58339524Y-87441009D01*
X58339524Y-87441009D02*
X58291905Y-87488628D01*
X58291905Y-87488628D02*
X58244286Y-87583866D01*
X58244286Y-87583866D02*
X58244286Y-87774342D01*
X58244286Y-87774342D02*
X58291905Y-87869580D01*
X58291905Y-87869580D02*
X58339524Y-87917200D01*
X58339524Y-87917200D02*
X58434762Y-87964819D01*
X58434762Y-87964819D02*
X58625238Y-87964819D01*
X58625238Y-87964819D02*
X58720476Y-87917200D01*
X58720476Y-87917200D02*
X58768095Y-87869580D01*
X58768095Y-87869580D02*
X58815714Y-87774342D01*
X58815714Y-87774342D02*
X58815714Y-87583866D01*
X58815714Y-87583866D02*
X58768095Y-87488628D01*
X58768095Y-87488628D02*
X58720476Y-87441009D01*
X58720476Y-87441009D02*
X58625238Y-87393390D01*
X48384819Y-66676666D02*
X47908628Y-67009999D01*
X48384819Y-67248094D02*
X47384819Y-67248094D01*
X47384819Y-67248094D02*
X47384819Y-66867142D01*
X47384819Y-66867142D02*
X47432438Y-66771904D01*
X47432438Y-66771904D02*
X47480057Y-66724285D01*
X47480057Y-66724285D02*
X47575295Y-66676666D01*
X47575295Y-66676666D02*
X47718152Y-66676666D01*
X47718152Y-66676666D02*
X47813390Y-66724285D01*
X47813390Y-66724285D02*
X47861009Y-66771904D01*
X47861009Y-66771904D02*
X47908628Y-66867142D01*
X47908628Y-66867142D02*
X47908628Y-67248094D01*
X48384819Y-65724285D02*
X48384819Y-66295713D01*
X48384819Y-66009999D02*
X47384819Y-66009999D01*
X47384819Y-66009999D02*
X47527676Y-66105237D01*
X47527676Y-66105237D02*
X47622914Y-66200475D01*
X47622914Y-66200475D02*
X47670533Y-66295713D01*
X42896666Y-73864819D02*
X42896666Y-74579104D01*
X42896666Y-74579104D02*
X42849047Y-74721961D01*
X42849047Y-74721961D02*
X42753809Y-74817200D01*
X42753809Y-74817200D02*
X42610952Y-74864819D01*
X42610952Y-74864819D02*
X42515714Y-74864819D01*
X43325238Y-73960057D02*
X43372857Y-73912438D01*
X43372857Y-73912438D02*
X43468095Y-73864819D01*
X43468095Y-73864819D02*
X43706190Y-73864819D01*
X43706190Y-73864819D02*
X43801428Y-73912438D01*
X43801428Y-73912438D02*
X43849047Y-73960057D01*
X43849047Y-73960057D02*
X43896666Y-74055295D01*
X43896666Y-74055295D02*
X43896666Y-74150533D01*
X43896666Y-74150533D02*
X43849047Y-74293390D01*
X43849047Y-74293390D02*
X43277619Y-74864819D01*
X43277619Y-74864819D02*
X43896666Y-74864819D01*
X70184819Y-64676666D02*
X69708628Y-65009999D01*
X70184819Y-65248094D02*
X69184819Y-65248094D01*
X69184819Y-65248094D02*
X69184819Y-64867142D01*
X69184819Y-64867142D02*
X69232438Y-64771904D01*
X69232438Y-64771904D02*
X69280057Y-64724285D01*
X69280057Y-64724285D02*
X69375295Y-64676666D01*
X69375295Y-64676666D02*
X69518152Y-64676666D01*
X69518152Y-64676666D02*
X69613390Y-64724285D01*
X69613390Y-64724285D02*
X69661009Y-64771904D01*
X69661009Y-64771904D02*
X69708628Y-64867142D01*
X69708628Y-64867142D02*
X69708628Y-65248094D01*
X69518152Y-63819523D02*
X70184819Y-63819523D01*
X69137200Y-64057618D02*
X69851485Y-64295713D01*
X69851485Y-64295713D02*
X69851485Y-63676666D01*
X59263333Y-65464819D02*
X58787143Y-65464819D01*
X58787143Y-65464819D02*
X58787143Y-64464819D01*
X60120476Y-65464819D02*
X59549048Y-65464819D01*
X59834762Y-65464819D02*
X59834762Y-64464819D01*
X59834762Y-64464819D02*
X59739524Y-64607676D01*
X59739524Y-64607676D02*
X59644286Y-64702914D01*
X59644286Y-64702914D02*
X59549048Y-64750533D01*
X63887142Y-96964819D02*
X63553809Y-96488628D01*
X63315714Y-96964819D02*
X63315714Y-95964819D01*
X63315714Y-95964819D02*
X63696666Y-95964819D01*
X63696666Y-95964819D02*
X63791904Y-96012438D01*
X63791904Y-96012438D02*
X63839523Y-96060057D01*
X63839523Y-96060057D02*
X63887142Y-96155295D01*
X63887142Y-96155295D02*
X63887142Y-96298152D01*
X63887142Y-96298152D02*
X63839523Y-96393390D01*
X63839523Y-96393390D02*
X63791904Y-96441009D01*
X63791904Y-96441009D02*
X63696666Y-96488628D01*
X63696666Y-96488628D02*
X63315714Y-96488628D01*
X64839523Y-96964819D02*
X64268095Y-96964819D01*
X64553809Y-96964819D02*
X64553809Y-95964819D01*
X64553809Y-95964819D02*
X64458571Y-96107676D01*
X64458571Y-96107676D02*
X64363333Y-96202914D01*
X64363333Y-96202914D02*
X64268095Y-96250533D01*
X65172857Y-95964819D02*
X65791904Y-95964819D01*
X65791904Y-95964819D02*
X65458571Y-96345771D01*
X65458571Y-96345771D02*
X65601428Y-96345771D01*
X65601428Y-96345771D02*
X65696666Y-96393390D01*
X65696666Y-96393390D02*
X65744285Y-96441009D01*
X65744285Y-96441009D02*
X65791904Y-96536247D01*
X65791904Y-96536247D02*
X65791904Y-96774342D01*
X65791904Y-96774342D02*
X65744285Y-96869580D01*
X65744285Y-96869580D02*
X65696666Y-96917200D01*
X65696666Y-96917200D02*
X65601428Y-96964819D01*
X65601428Y-96964819D02*
X65315714Y-96964819D01*
X65315714Y-96964819D02*
X65220476Y-96917200D01*
X65220476Y-96917200D02*
X65172857Y-96869580D01*
X71989580Y-69376666D02*
X72037200Y-69424285D01*
X72037200Y-69424285D02*
X72084819Y-69567142D01*
X72084819Y-69567142D02*
X72084819Y-69662380D01*
X72084819Y-69662380D02*
X72037200Y-69805237D01*
X72037200Y-69805237D02*
X71941961Y-69900475D01*
X71941961Y-69900475D02*
X71846723Y-69948094D01*
X71846723Y-69948094D02*
X71656247Y-69995713D01*
X71656247Y-69995713D02*
X71513390Y-69995713D01*
X71513390Y-69995713D02*
X71322914Y-69948094D01*
X71322914Y-69948094D02*
X71227676Y-69900475D01*
X71227676Y-69900475D02*
X71132438Y-69805237D01*
X71132438Y-69805237D02*
X71084819Y-69662380D01*
X71084819Y-69662380D02*
X71084819Y-69567142D01*
X71084819Y-69567142D02*
X71132438Y-69424285D01*
X71132438Y-69424285D02*
X71180057Y-69376666D01*
X71084819Y-68519523D02*
X71084819Y-68709999D01*
X71084819Y-68709999D02*
X71132438Y-68805237D01*
X71132438Y-68805237D02*
X71180057Y-68852856D01*
X71180057Y-68852856D02*
X71322914Y-68948094D01*
X71322914Y-68948094D02*
X71513390Y-68995713D01*
X71513390Y-68995713D02*
X71894342Y-68995713D01*
X71894342Y-68995713D02*
X71989580Y-68948094D01*
X71989580Y-68948094D02*
X72037200Y-68900475D01*
X72037200Y-68900475D02*
X72084819Y-68805237D01*
X72084819Y-68805237D02*
X72084819Y-68614761D01*
X72084819Y-68614761D02*
X72037200Y-68519523D01*
X72037200Y-68519523D02*
X71989580Y-68471904D01*
X71989580Y-68471904D02*
X71894342Y-68424285D01*
X71894342Y-68424285D02*
X71656247Y-68424285D01*
X71656247Y-68424285D02*
X71561009Y-68471904D01*
X71561009Y-68471904D02*
X71513390Y-68519523D01*
X71513390Y-68519523D02*
X71465771Y-68614761D01*
X71465771Y-68614761D02*
X71465771Y-68805237D01*
X71465771Y-68805237D02*
X71513390Y-68900475D01*
X71513390Y-68900475D02*
X71561009Y-68948094D01*
X71561009Y-68948094D02*
X71656247Y-68995713D01*
X51380057Y-91105238D02*
X51332438Y-91200476D01*
X51332438Y-91200476D02*
X51237200Y-91295714D01*
X51237200Y-91295714D02*
X51094342Y-91438571D01*
X51094342Y-91438571D02*
X51046723Y-91533809D01*
X51046723Y-91533809D02*
X51046723Y-91629047D01*
X51284819Y-91581428D02*
X51237200Y-91676666D01*
X51237200Y-91676666D02*
X51141961Y-91771904D01*
X51141961Y-91771904D02*
X50951485Y-91819523D01*
X50951485Y-91819523D02*
X50618152Y-91819523D01*
X50618152Y-91819523D02*
X50427676Y-91771904D01*
X50427676Y-91771904D02*
X50332438Y-91676666D01*
X50332438Y-91676666D02*
X50284819Y-91581428D01*
X50284819Y-91581428D02*
X50284819Y-91390952D01*
X50284819Y-91390952D02*
X50332438Y-91295714D01*
X50332438Y-91295714D02*
X50427676Y-91200476D01*
X50427676Y-91200476D02*
X50618152Y-91152857D01*
X50618152Y-91152857D02*
X50951485Y-91152857D01*
X50951485Y-91152857D02*
X51141961Y-91200476D01*
X51141961Y-91200476D02*
X51237200Y-91295714D01*
X51237200Y-91295714D02*
X51284819Y-91390952D01*
X51284819Y-91390952D02*
X51284819Y-91581428D01*
X50618152Y-90295714D02*
X51284819Y-90295714D01*
X50237200Y-90533809D02*
X50951485Y-90771904D01*
X50951485Y-90771904D02*
X50951485Y-90152857D01*
X67189580Y-66576666D02*
X67237200Y-66624285D01*
X67237200Y-66624285D02*
X67284819Y-66767142D01*
X67284819Y-66767142D02*
X67284819Y-66862380D01*
X67284819Y-66862380D02*
X67237200Y-67005237D01*
X67237200Y-67005237D02*
X67141961Y-67100475D01*
X67141961Y-67100475D02*
X67046723Y-67148094D01*
X67046723Y-67148094D02*
X66856247Y-67195713D01*
X66856247Y-67195713D02*
X66713390Y-67195713D01*
X66713390Y-67195713D02*
X66522914Y-67148094D01*
X66522914Y-67148094D02*
X66427676Y-67100475D01*
X66427676Y-67100475D02*
X66332438Y-67005237D01*
X66332438Y-67005237D02*
X66284819Y-66862380D01*
X66284819Y-66862380D02*
X66284819Y-66767142D01*
X66284819Y-66767142D02*
X66332438Y-66624285D01*
X66332438Y-66624285D02*
X66380057Y-66576666D01*
X66284819Y-66243332D02*
X66284819Y-65576666D01*
X66284819Y-65576666D02*
X67284819Y-66005237D01*
X52691905Y-87264819D02*
X52691905Y-86264819D01*
X52691905Y-86264819D02*
X52930000Y-86264819D01*
X52930000Y-86264819D02*
X53072857Y-86312438D01*
X53072857Y-86312438D02*
X53168095Y-86407676D01*
X53168095Y-86407676D02*
X53215714Y-86502914D01*
X53215714Y-86502914D02*
X53263333Y-86693390D01*
X53263333Y-86693390D02*
X53263333Y-86836247D01*
X53263333Y-86836247D02*
X53215714Y-87026723D01*
X53215714Y-87026723D02*
X53168095Y-87121961D01*
X53168095Y-87121961D02*
X53072857Y-87217200D01*
X53072857Y-87217200D02*
X52930000Y-87264819D01*
X52930000Y-87264819D02*
X52691905Y-87264819D01*
X54168095Y-86264819D02*
X53691905Y-86264819D01*
X53691905Y-86264819D02*
X53644286Y-86741009D01*
X53644286Y-86741009D02*
X53691905Y-86693390D01*
X53691905Y-86693390D02*
X53787143Y-86645771D01*
X53787143Y-86645771D02*
X54025238Y-86645771D01*
X54025238Y-86645771D02*
X54120476Y-86693390D01*
X54120476Y-86693390D02*
X54168095Y-86741009D01*
X54168095Y-86741009D02*
X54215714Y-86836247D01*
X54215714Y-86836247D02*
X54215714Y-87074342D01*
X54215714Y-87074342D02*
X54168095Y-87169580D01*
X54168095Y-87169580D02*
X54120476Y-87217200D01*
X54120476Y-87217200D02*
X54025238Y-87264819D01*
X54025238Y-87264819D02*
X53787143Y-87264819D01*
X53787143Y-87264819D02*
X53691905Y-87217200D01*
X53691905Y-87217200D02*
X53644286Y-87169580D01*
X52963333Y-89164819D02*
X52630000Y-88688628D01*
X52391905Y-89164819D02*
X52391905Y-88164819D01*
X52391905Y-88164819D02*
X52772857Y-88164819D01*
X52772857Y-88164819D02*
X52868095Y-88212438D01*
X52868095Y-88212438D02*
X52915714Y-88260057D01*
X52915714Y-88260057D02*
X52963333Y-88355295D01*
X52963333Y-88355295D02*
X52963333Y-88498152D01*
X52963333Y-88498152D02*
X52915714Y-88593390D01*
X52915714Y-88593390D02*
X52868095Y-88641009D01*
X52868095Y-88641009D02*
X52772857Y-88688628D01*
X52772857Y-88688628D02*
X52391905Y-88688628D01*
X53534762Y-88593390D02*
X53439524Y-88545771D01*
X53439524Y-88545771D02*
X53391905Y-88498152D01*
X53391905Y-88498152D02*
X53344286Y-88402914D01*
X53344286Y-88402914D02*
X53344286Y-88355295D01*
X53344286Y-88355295D02*
X53391905Y-88260057D01*
X53391905Y-88260057D02*
X53439524Y-88212438D01*
X53439524Y-88212438D02*
X53534762Y-88164819D01*
X53534762Y-88164819D02*
X53725238Y-88164819D01*
X53725238Y-88164819D02*
X53820476Y-88212438D01*
X53820476Y-88212438D02*
X53868095Y-88260057D01*
X53868095Y-88260057D02*
X53915714Y-88355295D01*
X53915714Y-88355295D02*
X53915714Y-88402914D01*
X53915714Y-88402914D02*
X53868095Y-88498152D01*
X53868095Y-88498152D02*
X53820476Y-88545771D01*
X53820476Y-88545771D02*
X53725238Y-88593390D01*
X53725238Y-88593390D02*
X53534762Y-88593390D01*
X53534762Y-88593390D02*
X53439524Y-88641009D01*
X53439524Y-88641009D02*
X53391905Y-88688628D01*
X53391905Y-88688628D02*
X53344286Y-88783866D01*
X53344286Y-88783866D02*
X53344286Y-88974342D01*
X53344286Y-88974342D02*
X53391905Y-89069580D01*
X53391905Y-89069580D02*
X53439524Y-89117200D01*
X53439524Y-89117200D02*
X53534762Y-89164819D01*
X53534762Y-89164819D02*
X53725238Y-89164819D01*
X53725238Y-89164819D02*
X53820476Y-89117200D01*
X53820476Y-89117200D02*
X53868095Y-89069580D01*
X53868095Y-89069580D02*
X53915714Y-88974342D01*
X53915714Y-88974342D02*
X53915714Y-88783866D01*
X53915714Y-88783866D02*
X53868095Y-88688628D01*
X53868095Y-88688628D02*
X53820476Y-88641009D01*
X53820476Y-88641009D02*
X53725238Y-88593390D01*
X72596666Y-93064819D02*
X72596666Y-93779104D01*
X72596666Y-93779104D02*
X72549047Y-93921961D01*
X72549047Y-93921961D02*
X72453809Y-94017200D01*
X72453809Y-94017200D02*
X72310952Y-94064819D01*
X72310952Y-94064819D02*
X72215714Y-94064819D01*
X73501428Y-93064819D02*
X73310952Y-93064819D01*
X73310952Y-93064819D02*
X73215714Y-93112438D01*
X73215714Y-93112438D02*
X73168095Y-93160057D01*
X73168095Y-93160057D02*
X73072857Y-93302914D01*
X73072857Y-93302914D02*
X73025238Y-93493390D01*
X73025238Y-93493390D02*
X73025238Y-93874342D01*
X73025238Y-93874342D02*
X73072857Y-93969580D01*
X73072857Y-93969580D02*
X73120476Y-94017200D01*
X73120476Y-94017200D02*
X73215714Y-94064819D01*
X73215714Y-94064819D02*
X73406190Y-94064819D01*
X73406190Y-94064819D02*
X73501428Y-94017200D01*
X73501428Y-94017200D02*
X73549047Y-93969580D01*
X73549047Y-93969580D02*
X73596666Y-93874342D01*
X73596666Y-93874342D02*
X73596666Y-93636247D01*
X73596666Y-93636247D02*
X73549047Y-93541009D01*
X73549047Y-93541009D02*
X73501428Y-93493390D01*
X73501428Y-93493390D02*
X73406190Y-93445771D01*
X73406190Y-93445771D02*
X73215714Y-93445771D01*
X73215714Y-93445771D02*
X73120476Y-93493390D01*
X73120476Y-93493390D02*
X73072857Y-93541009D01*
X73072857Y-93541009D02*
X73025238Y-93636247D01*
X53134761Y-82060057D02*
X53039523Y-82012438D01*
X53039523Y-82012438D02*
X52944285Y-81917200D01*
X52944285Y-81917200D02*
X52801428Y-81774342D01*
X52801428Y-81774342D02*
X52706190Y-81726723D01*
X52706190Y-81726723D02*
X52610952Y-81726723D01*
X52658571Y-81964819D02*
X52563333Y-81917200D01*
X52563333Y-81917200D02*
X52468095Y-81821961D01*
X52468095Y-81821961D02*
X52420476Y-81631485D01*
X52420476Y-81631485D02*
X52420476Y-81298152D01*
X52420476Y-81298152D02*
X52468095Y-81107676D01*
X52468095Y-81107676D02*
X52563333Y-81012438D01*
X52563333Y-81012438D02*
X52658571Y-80964819D01*
X52658571Y-80964819D02*
X52849047Y-80964819D01*
X52849047Y-80964819D02*
X52944285Y-81012438D01*
X52944285Y-81012438D02*
X53039523Y-81107676D01*
X53039523Y-81107676D02*
X53087142Y-81298152D01*
X53087142Y-81298152D02*
X53087142Y-81631485D01*
X53087142Y-81631485D02*
X53039523Y-81821961D01*
X53039523Y-81821961D02*
X52944285Y-81917200D01*
X52944285Y-81917200D02*
X52849047Y-81964819D01*
X52849047Y-81964819D02*
X52658571Y-81964819D01*
X53468095Y-81060057D02*
X53515714Y-81012438D01*
X53515714Y-81012438D02*
X53610952Y-80964819D01*
X53610952Y-80964819D02*
X53849047Y-80964819D01*
X53849047Y-80964819D02*
X53944285Y-81012438D01*
X53944285Y-81012438D02*
X53991904Y-81060057D01*
X53991904Y-81060057D02*
X54039523Y-81155295D01*
X54039523Y-81155295D02*
X54039523Y-81250533D01*
X54039523Y-81250533D02*
X53991904Y-81393390D01*
X53991904Y-81393390D02*
X53420476Y-81964819D01*
X53420476Y-81964819D02*
X54039523Y-81964819D01*
X73484819Y-69276666D02*
X73008628Y-69609999D01*
X73484819Y-69848094D02*
X72484819Y-69848094D01*
X72484819Y-69848094D02*
X72484819Y-69467142D01*
X72484819Y-69467142D02*
X72532438Y-69371904D01*
X72532438Y-69371904D02*
X72580057Y-69324285D01*
X72580057Y-69324285D02*
X72675295Y-69276666D01*
X72675295Y-69276666D02*
X72818152Y-69276666D01*
X72818152Y-69276666D02*
X72913390Y-69324285D01*
X72913390Y-69324285D02*
X72961009Y-69371904D01*
X72961009Y-69371904D02*
X73008628Y-69467142D01*
X73008628Y-69467142D02*
X73008628Y-69848094D01*
X72580057Y-68895713D02*
X72532438Y-68848094D01*
X72532438Y-68848094D02*
X72484819Y-68752856D01*
X72484819Y-68752856D02*
X72484819Y-68514761D01*
X72484819Y-68514761D02*
X72532438Y-68419523D01*
X72532438Y-68419523D02*
X72580057Y-68371904D01*
X72580057Y-68371904D02*
X72675295Y-68324285D01*
X72675295Y-68324285D02*
X72770533Y-68324285D01*
X72770533Y-68324285D02*
X72913390Y-68371904D01*
X72913390Y-68371904D02*
X73484819Y-68943332D01*
X73484819Y-68943332D02*
X73484819Y-68324285D01*
X42791905Y-64764819D02*
X42791905Y-63764819D01*
X42791905Y-63764819D02*
X43030000Y-63764819D01*
X43030000Y-63764819D02*
X43172857Y-63812438D01*
X43172857Y-63812438D02*
X43268095Y-63907676D01*
X43268095Y-63907676D02*
X43315714Y-64002914D01*
X43315714Y-64002914D02*
X43363333Y-64193390D01*
X43363333Y-64193390D02*
X43363333Y-64336247D01*
X43363333Y-64336247D02*
X43315714Y-64526723D01*
X43315714Y-64526723D02*
X43268095Y-64621961D01*
X43268095Y-64621961D02*
X43172857Y-64717200D01*
X43172857Y-64717200D02*
X43030000Y-64764819D01*
X43030000Y-64764819D02*
X42791905Y-64764819D01*
X44315714Y-64764819D02*
X43744286Y-64764819D01*
X44030000Y-64764819D02*
X44030000Y-63764819D01*
X44030000Y-63764819D02*
X43934762Y-63907676D01*
X43934762Y-63907676D02*
X43839524Y-64002914D01*
X43839524Y-64002914D02*
X43744286Y-64050533D01*
X67189580Y-74776666D02*
X67237200Y-74824285D01*
X67237200Y-74824285D02*
X67284819Y-74967142D01*
X67284819Y-74967142D02*
X67284819Y-75062380D01*
X67284819Y-75062380D02*
X67237200Y-75205237D01*
X67237200Y-75205237D02*
X67141961Y-75300475D01*
X67141961Y-75300475D02*
X67046723Y-75348094D01*
X67046723Y-75348094D02*
X66856247Y-75395713D01*
X66856247Y-75395713D02*
X66713390Y-75395713D01*
X66713390Y-75395713D02*
X66522914Y-75348094D01*
X66522914Y-75348094D02*
X66427676Y-75300475D01*
X66427676Y-75300475D02*
X66332438Y-75205237D01*
X66332438Y-75205237D02*
X66284819Y-75062380D01*
X66284819Y-75062380D02*
X66284819Y-74967142D01*
X66284819Y-74967142D02*
X66332438Y-74824285D01*
X66332438Y-74824285D02*
X66380057Y-74776666D01*
X66284819Y-74443332D02*
X66284819Y-73824285D01*
X66284819Y-73824285D02*
X66665771Y-74157618D01*
X66665771Y-74157618D02*
X66665771Y-74014761D01*
X66665771Y-74014761D02*
X66713390Y-73919523D01*
X66713390Y-73919523D02*
X66761009Y-73871904D01*
X66761009Y-73871904D02*
X66856247Y-73824285D01*
X66856247Y-73824285D02*
X67094342Y-73824285D01*
X67094342Y-73824285D02*
X67189580Y-73871904D01*
X67189580Y-73871904D02*
X67237200Y-73919523D01*
X67237200Y-73919523D02*
X67284819Y-74014761D01*
X67284819Y-74014761D02*
X67284819Y-74300475D01*
X67284819Y-74300475D02*
X67237200Y-74395713D01*
X67237200Y-74395713D02*
X67189580Y-74443332D01*
X68857142Y-96909819D02*
X68523809Y-96433628D01*
X68285714Y-96909819D02*
X68285714Y-95909819D01*
X68285714Y-95909819D02*
X68666666Y-95909819D01*
X68666666Y-95909819D02*
X68761904Y-95957438D01*
X68761904Y-95957438D02*
X68809523Y-96005057D01*
X68809523Y-96005057D02*
X68857142Y-96100295D01*
X68857142Y-96100295D02*
X68857142Y-96243152D01*
X68857142Y-96243152D02*
X68809523Y-96338390D01*
X68809523Y-96338390D02*
X68761904Y-96386009D01*
X68761904Y-96386009D02*
X68666666Y-96433628D01*
X68666666Y-96433628D02*
X68285714Y-96433628D01*
X69809523Y-96909819D02*
X69238095Y-96909819D01*
X69523809Y-96909819D02*
X69523809Y-95909819D01*
X69523809Y-95909819D02*
X69428571Y-96052676D01*
X69428571Y-96052676D02*
X69333333Y-96147914D01*
X69333333Y-96147914D02*
X69238095Y-96195533D01*
X70190476Y-96005057D02*
X70238095Y-95957438D01*
X70238095Y-95957438D02*
X70333333Y-95909819D01*
X70333333Y-95909819D02*
X70571428Y-95909819D01*
X70571428Y-95909819D02*
X70666666Y-95957438D01*
X70666666Y-95957438D02*
X70714285Y-96005057D01*
X70714285Y-96005057D02*
X70761904Y-96100295D01*
X70761904Y-96100295D02*
X70761904Y-96195533D01*
X70761904Y-96195533D02*
X70714285Y-96338390D01*
X70714285Y-96338390D02*
X70142857Y-96909819D01*
X70142857Y-96909819D02*
X70761904Y-96909819D01*
X69463333Y-80969580D02*
X69415714Y-81017200D01*
X69415714Y-81017200D02*
X69272857Y-81064819D01*
X69272857Y-81064819D02*
X69177619Y-81064819D01*
X69177619Y-81064819D02*
X69034762Y-81017200D01*
X69034762Y-81017200D02*
X68939524Y-80921961D01*
X68939524Y-80921961D02*
X68891905Y-80826723D01*
X68891905Y-80826723D02*
X68844286Y-80636247D01*
X68844286Y-80636247D02*
X68844286Y-80493390D01*
X68844286Y-80493390D02*
X68891905Y-80302914D01*
X68891905Y-80302914D02*
X68939524Y-80207676D01*
X68939524Y-80207676D02*
X69034762Y-80112438D01*
X69034762Y-80112438D02*
X69177619Y-80064819D01*
X69177619Y-80064819D02*
X69272857Y-80064819D01*
X69272857Y-80064819D02*
X69415714Y-80112438D01*
X69415714Y-80112438D02*
X69463333Y-80160057D01*
X69939524Y-81064819D02*
X70130000Y-81064819D01*
X70130000Y-81064819D02*
X70225238Y-81017200D01*
X70225238Y-81017200D02*
X70272857Y-80969580D01*
X70272857Y-80969580D02*
X70368095Y-80826723D01*
X70368095Y-80826723D02*
X70415714Y-80636247D01*
X70415714Y-80636247D02*
X70415714Y-80255295D01*
X70415714Y-80255295D02*
X70368095Y-80160057D01*
X70368095Y-80160057D02*
X70320476Y-80112438D01*
X70320476Y-80112438D02*
X70225238Y-80064819D01*
X70225238Y-80064819D02*
X70034762Y-80064819D01*
X70034762Y-80064819D02*
X69939524Y-80112438D01*
X69939524Y-80112438D02*
X69891905Y-80160057D01*
X69891905Y-80160057D02*
X69844286Y-80255295D01*
X69844286Y-80255295D02*
X69844286Y-80493390D01*
X69844286Y-80493390D02*
X69891905Y-80588628D01*
X69891905Y-80588628D02*
X69939524Y-80636247D01*
X69939524Y-80636247D02*
X70034762Y-80683866D01*
X70034762Y-80683866D02*
X70225238Y-80683866D01*
X70225238Y-80683866D02*
X70320476Y-80636247D01*
X70320476Y-80636247D02*
X70368095Y-80588628D01*
X70368095Y-80588628D02*
X70415714Y-80493390D01*
X72696666Y-74864819D02*
X72696666Y-75579104D01*
X72696666Y-75579104D02*
X72649047Y-75721961D01*
X72649047Y-75721961D02*
X72553809Y-75817200D01*
X72553809Y-75817200D02*
X72410952Y-75864819D01*
X72410952Y-75864819D02*
X72315714Y-75864819D01*
X73601428Y-75198152D02*
X73601428Y-75864819D01*
X73363333Y-74817200D02*
X73125238Y-75531485D01*
X73125238Y-75531485D02*
X73744285Y-75531485D01*
X68689580Y-74576666D02*
X68737200Y-74624285D01*
X68737200Y-74624285D02*
X68784819Y-74767142D01*
X68784819Y-74767142D02*
X68784819Y-74862380D01*
X68784819Y-74862380D02*
X68737200Y-75005237D01*
X68737200Y-75005237D02*
X68641961Y-75100475D01*
X68641961Y-75100475D02*
X68546723Y-75148094D01*
X68546723Y-75148094D02*
X68356247Y-75195713D01*
X68356247Y-75195713D02*
X68213390Y-75195713D01*
X68213390Y-75195713D02*
X68022914Y-75148094D01*
X68022914Y-75148094D02*
X67927676Y-75100475D01*
X67927676Y-75100475D02*
X67832438Y-75005237D01*
X67832438Y-75005237D02*
X67784819Y-74862380D01*
X67784819Y-74862380D02*
X67784819Y-74767142D01*
X67784819Y-74767142D02*
X67832438Y-74624285D01*
X67832438Y-74624285D02*
X67880057Y-74576666D01*
X68118152Y-73719523D02*
X68784819Y-73719523D01*
X67737200Y-73957618D02*
X68451485Y-74195713D01*
X68451485Y-74195713D02*
X68451485Y-73576666D01*
X51163333Y-87264819D02*
X50830000Y-86788628D01*
X50591905Y-87264819D02*
X50591905Y-86264819D01*
X50591905Y-86264819D02*
X50972857Y-86264819D01*
X50972857Y-86264819D02*
X51068095Y-86312438D01*
X51068095Y-86312438D02*
X51115714Y-86360057D01*
X51115714Y-86360057D02*
X51163333Y-86455295D01*
X51163333Y-86455295D02*
X51163333Y-86598152D01*
X51163333Y-86598152D02*
X51115714Y-86693390D01*
X51115714Y-86693390D02*
X51068095Y-86741009D01*
X51068095Y-86741009D02*
X50972857Y-86788628D01*
X50972857Y-86788628D02*
X50591905Y-86788628D01*
X51639524Y-87264819D02*
X51830000Y-87264819D01*
X51830000Y-87264819D02*
X51925238Y-87217200D01*
X51925238Y-87217200D02*
X51972857Y-87169580D01*
X51972857Y-87169580D02*
X52068095Y-87026723D01*
X52068095Y-87026723D02*
X52115714Y-86836247D01*
X52115714Y-86836247D02*
X52115714Y-86455295D01*
X52115714Y-86455295D02*
X52068095Y-86360057D01*
X52068095Y-86360057D02*
X52020476Y-86312438D01*
X52020476Y-86312438D02*
X51925238Y-86264819D01*
X51925238Y-86264819D02*
X51734762Y-86264819D01*
X51734762Y-86264819D02*
X51639524Y-86312438D01*
X51639524Y-86312438D02*
X51591905Y-86360057D01*
X51591905Y-86360057D02*
X51544286Y-86455295D01*
X51544286Y-86455295D02*
X51544286Y-86693390D01*
X51544286Y-86693390D02*
X51591905Y-86788628D01*
X51591905Y-86788628D02*
X51639524Y-86836247D01*
X51639524Y-86836247D02*
X51734762Y-86883866D01*
X51734762Y-86883866D02*
X51925238Y-86883866D01*
X51925238Y-86883866D02*
X52020476Y-86836247D01*
X52020476Y-86836247D02*
X52068095Y-86788628D01*
X52068095Y-86788628D02*
X52115714Y-86693390D01*
X60732142Y-96784819D02*
X60398809Y-96308628D01*
X60160714Y-96784819D02*
X60160714Y-95784819D01*
X60160714Y-95784819D02*
X60541666Y-95784819D01*
X60541666Y-95784819D02*
X60636904Y-95832438D01*
X60636904Y-95832438D02*
X60684523Y-95880057D01*
X60684523Y-95880057D02*
X60732142Y-95975295D01*
X60732142Y-95975295D02*
X60732142Y-96118152D01*
X60732142Y-96118152D02*
X60684523Y-96213390D01*
X60684523Y-96213390D02*
X60636904Y-96261009D01*
X60636904Y-96261009D02*
X60541666Y-96308628D01*
X60541666Y-96308628D02*
X60160714Y-96308628D01*
X61684523Y-96784819D02*
X61113095Y-96784819D01*
X61398809Y-96784819D02*
X61398809Y-95784819D01*
X61398809Y-95784819D02*
X61303571Y-95927676D01*
X61303571Y-95927676D02*
X61208333Y-96022914D01*
X61208333Y-96022914D02*
X61113095Y-96070533D01*
X62541666Y-96118152D02*
X62541666Y-96784819D01*
X62303571Y-95737200D02*
X62065476Y-96451485D01*
X62065476Y-96451485D02*
X62684523Y-96451485D01*
X44670833Y-78149819D02*
X44337500Y-77673628D01*
X44099405Y-78149819D02*
X44099405Y-77149819D01*
X44099405Y-77149819D02*
X44480357Y-77149819D01*
X44480357Y-77149819D02*
X44575595Y-77197438D01*
X44575595Y-77197438D02*
X44623214Y-77245057D01*
X44623214Y-77245057D02*
X44670833Y-77340295D01*
X44670833Y-77340295D02*
X44670833Y-77483152D01*
X44670833Y-77483152D02*
X44623214Y-77578390D01*
X44623214Y-77578390D02*
X44575595Y-77626009D01*
X44575595Y-77626009D02*
X44480357Y-77673628D01*
X44480357Y-77673628D02*
X44099405Y-77673628D01*
X45575595Y-77149819D02*
X45099405Y-77149819D01*
X45099405Y-77149819D02*
X45051786Y-77626009D01*
X45051786Y-77626009D02*
X45099405Y-77578390D01*
X45099405Y-77578390D02*
X45194643Y-77530771D01*
X45194643Y-77530771D02*
X45432738Y-77530771D01*
X45432738Y-77530771D02*
X45527976Y-77578390D01*
X45527976Y-77578390D02*
X45575595Y-77626009D01*
X45575595Y-77626009D02*
X45623214Y-77721247D01*
X45623214Y-77721247D02*
X45623214Y-77959342D01*
X45623214Y-77959342D02*
X45575595Y-78054580D01*
X45575595Y-78054580D02*
X45527976Y-78102200D01*
X45527976Y-78102200D02*
X45432738Y-78149819D01*
X45432738Y-78149819D02*
X45194643Y-78149819D01*
X45194643Y-78149819D02*
X45099405Y-78102200D01*
X45099405Y-78102200D02*
X45051786Y-78054580D01*
X68487142Y-79564819D02*
X68153809Y-79088628D01*
X67915714Y-79564819D02*
X67915714Y-78564819D01*
X67915714Y-78564819D02*
X68296666Y-78564819D01*
X68296666Y-78564819D02*
X68391904Y-78612438D01*
X68391904Y-78612438D02*
X68439523Y-78660057D01*
X68439523Y-78660057D02*
X68487142Y-78755295D01*
X68487142Y-78755295D02*
X68487142Y-78898152D01*
X68487142Y-78898152D02*
X68439523Y-78993390D01*
X68439523Y-78993390D02*
X68391904Y-79041009D01*
X68391904Y-79041009D02*
X68296666Y-79088628D01*
X68296666Y-79088628D02*
X67915714Y-79088628D01*
X69439523Y-79564819D02*
X68868095Y-79564819D01*
X69153809Y-79564819D02*
X69153809Y-78564819D01*
X69153809Y-78564819D02*
X69058571Y-78707676D01*
X69058571Y-78707676D02*
X68963333Y-78802914D01*
X68963333Y-78802914D02*
X68868095Y-78850533D01*
X70058571Y-78564819D02*
X70153809Y-78564819D01*
X70153809Y-78564819D02*
X70249047Y-78612438D01*
X70249047Y-78612438D02*
X70296666Y-78660057D01*
X70296666Y-78660057D02*
X70344285Y-78755295D01*
X70344285Y-78755295D02*
X70391904Y-78945771D01*
X70391904Y-78945771D02*
X70391904Y-79183866D01*
X70391904Y-79183866D02*
X70344285Y-79374342D01*
X70344285Y-79374342D02*
X70296666Y-79469580D01*
X70296666Y-79469580D02*
X70249047Y-79517200D01*
X70249047Y-79517200D02*
X70153809Y-79564819D01*
X70153809Y-79564819D02*
X70058571Y-79564819D01*
X70058571Y-79564819D02*
X69963333Y-79517200D01*
X69963333Y-79517200D02*
X69915714Y-79469580D01*
X69915714Y-79469580D02*
X69868095Y-79374342D01*
X69868095Y-79374342D02*
X69820476Y-79183866D01*
X69820476Y-79183866D02*
X69820476Y-78945771D01*
X69820476Y-78945771D02*
X69868095Y-78755295D01*
X69868095Y-78755295D02*
X69915714Y-78660057D01*
X69915714Y-78660057D02*
X69963333Y-78612438D01*
X69963333Y-78612438D02*
X70058571Y-78564819D01*
X50984819Y-65271904D02*
X51794342Y-65271904D01*
X51794342Y-65271904D02*
X51889580Y-65224285D01*
X51889580Y-65224285D02*
X51937200Y-65176666D01*
X51937200Y-65176666D02*
X51984819Y-65081428D01*
X51984819Y-65081428D02*
X51984819Y-64890952D01*
X51984819Y-64890952D02*
X51937200Y-64795714D01*
X51937200Y-64795714D02*
X51889580Y-64748095D01*
X51889580Y-64748095D02*
X51794342Y-64700476D01*
X51794342Y-64700476D02*
X50984819Y-64700476D01*
X51984819Y-63700476D02*
X51984819Y-64271904D01*
X51984819Y-63986190D02*
X50984819Y-63986190D01*
X50984819Y-63986190D02*
X51127676Y-64081428D01*
X51127676Y-64081428D02*
X51222914Y-64176666D01*
X51222914Y-64176666D02*
X51270533Y-64271904D01*
X47186905Y-78149819D02*
X47186905Y-77149819D01*
X47186905Y-77149819D02*
X47425000Y-77149819D01*
X47425000Y-77149819D02*
X47567857Y-77197438D01*
X47567857Y-77197438D02*
X47663095Y-77292676D01*
X47663095Y-77292676D02*
X47710714Y-77387914D01*
X47710714Y-77387914D02*
X47758333Y-77578390D01*
X47758333Y-77578390D02*
X47758333Y-77721247D01*
X47758333Y-77721247D02*
X47710714Y-77911723D01*
X47710714Y-77911723D02*
X47663095Y-78006961D01*
X47663095Y-78006961D02*
X47567857Y-78102200D01*
X47567857Y-78102200D02*
X47425000Y-78149819D01*
X47425000Y-78149819D02*
X47186905Y-78149819D01*
X48091667Y-77149819D02*
X48710714Y-77149819D01*
X48710714Y-77149819D02*
X48377381Y-77530771D01*
X48377381Y-77530771D02*
X48520238Y-77530771D01*
X48520238Y-77530771D02*
X48615476Y-77578390D01*
X48615476Y-77578390D02*
X48663095Y-77626009D01*
X48663095Y-77626009D02*
X48710714Y-77721247D01*
X48710714Y-77721247D02*
X48710714Y-77959342D01*
X48710714Y-77959342D02*
X48663095Y-78054580D01*
X48663095Y-78054580D02*
X48615476Y-78102200D01*
X48615476Y-78102200D02*
X48520238Y-78149819D01*
X48520238Y-78149819D02*
X48234524Y-78149819D01*
X48234524Y-78149819D02*
X48139286Y-78102200D01*
X48139286Y-78102200D02*
X48091667Y-78054580D01*
X49689580Y-73476666D02*
X49737200Y-73524285D01*
X49737200Y-73524285D02*
X49784819Y-73667142D01*
X49784819Y-73667142D02*
X49784819Y-73762380D01*
X49784819Y-73762380D02*
X49737200Y-73905237D01*
X49737200Y-73905237D02*
X49641961Y-74000475D01*
X49641961Y-74000475D02*
X49546723Y-74048094D01*
X49546723Y-74048094D02*
X49356247Y-74095713D01*
X49356247Y-74095713D02*
X49213390Y-74095713D01*
X49213390Y-74095713D02*
X49022914Y-74048094D01*
X49022914Y-74048094D02*
X48927676Y-74000475D01*
X48927676Y-74000475D02*
X48832438Y-73905237D01*
X48832438Y-73905237D02*
X48784819Y-73762380D01*
X48784819Y-73762380D02*
X48784819Y-73667142D01*
X48784819Y-73667142D02*
X48832438Y-73524285D01*
X48832438Y-73524285D02*
X48880057Y-73476666D01*
X49784819Y-72524285D02*
X49784819Y-73095713D01*
X49784819Y-72809999D02*
X48784819Y-72809999D01*
X48784819Y-72809999D02*
X48927676Y-72905237D01*
X48927676Y-72905237D02*
X49022914Y-73000475D01*
X49022914Y-73000475D02*
X49070533Y-73095713D01*
X40366666Y-86899819D02*
X40366666Y-87614104D01*
X40366666Y-87614104D02*
X40319047Y-87756961D01*
X40319047Y-87756961D02*
X40223809Y-87852200D01*
X40223809Y-87852200D02*
X40080952Y-87899819D01*
X40080952Y-87899819D02*
X39985714Y-87899819D01*
X40747619Y-86899819D02*
X41366666Y-86899819D01*
X41366666Y-86899819D02*
X41033333Y-87280771D01*
X41033333Y-87280771D02*
X41176190Y-87280771D01*
X41176190Y-87280771D02*
X41271428Y-87328390D01*
X41271428Y-87328390D02*
X41319047Y-87376009D01*
X41319047Y-87376009D02*
X41366666Y-87471247D01*
X41366666Y-87471247D02*
X41366666Y-87709342D01*
X41366666Y-87709342D02*
X41319047Y-87804580D01*
X41319047Y-87804580D02*
X41271428Y-87852200D01*
X41271428Y-87852200D02*
X41176190Y-87899819D01*
X41176190Y-87899819D02*
X40890476Y-87899819D01*
X40890476Y-87899819D02*
X40795238Y-87852200D01*
X40795238Y-87852200D02*
X40747619Y-87804580D01*
X51780057Y-81605238D02*
X51732438Y-81700476D01*
X51732438Y-81700476D02*
X51637200Y-81795714D01*
X51637200Y-81795714D02*
X51494342Y-81938571D01*
X51494342Y-81938571D02*
X51446723Y-82033809D01*
X51446723Y-82033809D02*
X51446723Y-82129047D01*
X51684819Y-82081428D02*
X51637200Y-82176666D01*
X51637200Y-82176666D02*
X51541961Y-82271904D01*
X51541961Y-82271904D02*
X51351485Y-82319523D01*
X51351485Y-82319523D02*
X51018152Y-82319523D01*
X51018152Y-82319523D02*
X50827676Y-82271904D01*
X50827676Y-82271904D02*
X50732438Y-82176666D01*
X50732438Y-82176666D02*
X50684819Y-82081428D01*
X50684819Y-82081428D02*
X50684819Y-81890952D01*
X50684819Y-81890952D02*
X50732438Y-81795714D01*
X50732438Y-81795714D02*
X50827676Y-81700476D01*
X50827676Y-81700476D02*
X51018152Y-81652857D01*
X51018152Y-81652857D02*
X51351485Y-81652857D01*
X51351485Y-81652857D02*
X51541961Y-81700476D01*
X51541961Y-81700476D02*
X51637200Y-81795714D01*
X51637200Y-81795714D02*
X51684819Y-81890952D01*
X51684819Y-81890952D02*
X51684819Y-82081428D01*
X51684819Y-80700476D02*
X51684819Y-81271904D01*
X51684819Y-80986190D02*
X50684819Y-80986190D01*
X50684819Y-80986190D02*
X50827676Y-81081428D01*
X50827676Y-81081428D02*
X50922914Y-81176666D01*
X50922914Y-81176666D02*
X50970533Y-81271904D01*
X47789580Y-74652857D02*
X47837200Y-74700476D01*
X47837200Y-74700476D02*
X47884819Y-74843333D01*
X47884819Y-74843333D02*
X47884819Y-74938571D01*
X47884819Y-74938571D02*
X47837200Y-75081428D01*
X47837200Y-75081428D02*
X47741961Y-75176666D01*
X47741961Y-75176666D02*
X47646723Y-75224285D01*
X47646723Y-75224285D02*
X47456247Y-75271904D01*
X47456247Y-75271904D02*
X47313390Y-75271904D01*
X47313390Y-75271904D02*
X47122914Y-75224285D01*
X47122914Y-75224285D02*
X47027676Y-75176666D01*
X47027676Y-75176666D02*
X46932438Y-75081428D01*
X46932438Y-75081428D02*
X46884819Y-74938571D01*
X46884819Y-74938571D02*
X46884819Y-74843333D01*
X46884819Y-74843333D02*
X46932438Y-74700476D01*
X46932438Y-74700476D02*
X46980057Y-74652857D01*
X47884819Y-73700476D02*
X47884819Y-74271904D01*
X47884819Y-73986190D02*
X46884819Y-73986190D01*
X46884819Y-73986190D02*
X47027676Y-74081428D01*
X47027676Y-74081428D02*
X47122914Y-74176666D01*
X47122914Y-74176666D02*
X47170533Y-74271904D01*
X47218152Y-72843333D02*
X47884819Y-72843333D01*
X46837200Y-73081428D02*
X47551485Y-73319523D01*
X47551485Y-73319523D02*
X47551485Y-72700476D01*
D12*
%TO.C,R21*%
X56252500Y-92772742D02*
X56252500Y-93247258D01*
X55207500Y-92772742D02*
X55207500Y-93247258D01*
%TO.C,R20*%
X53607500Y-93247258D02*
X53607500Y-92772742D01*
X54652500Y-93247258D02*
X54652500Y-92772742D01*
%TO.C,R19*%
X56152500Y-86072742D02*
X56152500Y-86547258D01*
X55107500Y-86072742D02*
X55107500Y-86547258D01*
%TO.C,R18*%
X56152500Y-89097742D02*
X56152500Y-89572258D01*
X55107500Y-89097742D02*
X55107500Y-89572258D01*
%TO.C,C5*%
X53714420Y-64400000D02*
X53995580Y-64400000D01*
X53714420Y-65420000D02*
X53995580Y-65420000D01*
%TO.C,D6*%
X43090000Y-93350000D02*
X43090000Y-96650000D01*
X43090000Y-93350000D02*
X48600000Y-93350000D01*
X43090000Y-96650000D02*
X48600000Y-96650000D01*
%TO.C,J5*%
X74370000Y-86730000D02*
X74370000Y-81590000D01*
X77030000Y-81590000D02*
X74370000Y-81590000D01*
X77030000Y-86730000D02*
X74370000Y-86730000D01*
X77030000Y-86730000D02*
X77030000Y-81590000D01*
X77030000Y-88000000D02*
X77030000Y-89330000D01*
X77030000Y-89330000D02*
X75700000Y-89330000D01*
%TO.C,D4*%
X62265000Y-85800000D02*
X62265000Y-88085000D01*
X62265000Y-88085000D02*
X63735000Y-88085000D01*
X63735000Y-88085000D02*
X63735000Y-85800000D01*
%TO.C,R7*%
X60287742Y-85377500D02*
X60762258Y-85377500D01*
X60287742Y-86422500D02*
X60762258Y-86422500D01*
%TO.C,R6*%
X51262258Y-78602500D02*
X50787742Y-78602500D01*
X51262258Y-79647500D02*
X50787742Y-79647500D01*
%TO.C,D2*%
X43290000Y-83775000D02*
X43290000Y-87075000D01*
X43290000Y-83775000D02*
X48800000Y-83775000D01*
X43290000Y-87075000D02*
X48800000Y-87075000D01*
%TO.C,C10*%
X71870580Y-86500000D02*
X71589420Y-86500000D01*
X71870580Y-87520000D02*
X71589420Y-87520000D01*
%TO.C,R11*%
X71937258Y-84877500D02*
X71462742Y-84877500D01*
X71937258Y-85922500D02*
X71462742Y-85922500D01*
%TO.C,C11*%
X66490000Y-95865580D02*
X66490000Y-95584420D01*
X67510000Y-95865580D02*
X67510000Y-95584420D01*
%TO.C,J1*%
X39370000Y-78770000D02*
X40700000Y-78770000D01*
X39370000Y-80100000D02*
X39370000Y-78770000D01*
X39370000Y-81370000D02*
X39370000Y-86510000D01*
X39370000Y-81370000D02*
X42030000Y-81370000D01*
X39370000Y-86510000D02*
X42030000Y-86510000D01*
X42030000Y-81370000D02*
X42030000Y-86510000D01*
%TO.C,C2*%
X50652000Y-70650580D02*
X50652000Y-70369420D01*
X51672000Y-70650580D02*
X51672000Y-70369420D01*
%TO.C,Q3*%
X48100000Y-89740000D02*
X47450000Y-89740000D01*
X48100000Y-89740000D02*
X48750000Y-89740000D01*
X48100000Y-92860000D02*
X47450000Y-92860000D01*
X48100000Y-92860000D02*
X48750000Y-92860000D01*
X49502500Y-93140000D02*
X49022500Y-93140000D01*
X49262500Y-92810000D01*
X49502500Y-93140000D01*
G36*
X49502500Y-93140000D02*
G01*
X49022500Y-93140000D01*
X49262500Y-92810000D01*
X49502500Y-93140000D01*
G37*
%TO.C,U2*%
X62700000Y-88740000D02*
X60750000Y-88740000D01*
X62700000Y-88740000D02*
X64650000Y-88740000D01*
X62700000Y-93860000D02*
X60750000Y-93860000D01*
X62700000Y-93860000D02*
X64650000Y-93860000D01*
X60000000Y-88835000D02*
X59760000Y-88505000D01*
X60240000Y-88505000D01*
X60000000Y-88835000D01*
G36*
X60000000Y-88835000D02*
G01*
X59760000Y-88505000D01*
X60240000Y-88505000D01*
X60000000Y-88835000D01*
G37*
%TO.C,R3*%
X69342258Y-65987500D02*
X68867742Y-65987500D01*
X69342258Y-67032500D02*
X68867742Y-67032500D01*
%TO.C,C8*%
X60640580Y-86990000D02*
X60359420Y-86990000D01*
X60640580Y-88010000D02*
X60359420Y-88010000D01*
%TO.C,R1*%
X48907500Y-66747258D02*
X48907500Y-66272742D01*
X49952500Y-66747258D02*
X49952500Y-66272742D01*
%TO.C,J2*%
X39300000Y-71780000D02*
X39300000Y-69180000D01*
X41960000Y-69180000D02*
X39300000Y-69180000D01*
X41960000Y-71780000D02*
X39300000Y-71780000D01*
X41960000Y-71780000D02*
X41960000Y-69180000D01*
X41960000Y-73050000D02*
X41960000Y-74380000D01*
X41960000Y-74380000D02*
X40630000Y-74380000D01*
%TO.C,R4*%
X67607500Y-64322258D02*
X67607500Y-63847742D01*
X68652500Y-64322258D02*
X68652500Y-63847742D01*
%TO.C,L1*%
X53670000Y-65750000D02*
X53670000Y-68250000D01*
X53670000Y-65750000D02*
X65190000Y-65750000D01*
X53670000Y-76270000D02*
X53670000Y-73770000D01*
X53670000Y-76270000D02*
X65190000Y-76270000D01*
X65190000Y-65750000D02*
X65190000Y-68250000D01*
X65190000Y-76270000D02*
X65190000Y-73770000D01*
%TO.C,R13*%
X64362742Y-94377500D02*
X64837258Y-94377500D01*
X64362742Y-95422500D02*
X64837258Y-95422500D01*
%TO.C,C6*%
X67720000Y-69050580D02*
X67720000Y-68769420D01*
X68740000Y-69050580D02*
X68740000Y-68769420D01*
%TO.C,Q4*%
X43340000Y-90620000D02*
X43340000Y-92030000D01*
X44000000Y-92030000D02*
X43340000Y-92030000D01*
X45660000Y-90620000D02*
X45660000Y-92030000D01*
X45660000Y-92030000D02*
X45000000Y-92030000D01*
X45970000Y-90490000D02*
X45640000Y-90250000D01*
X45970000Y-90010000D01*
X45970000Y-90490000D01*
G36*
X45970000Y-90490000D02*
G01*
X45640000Y-90250000D01*
X45970000Y-90010000D01*
X45970000Y-90490000D01*
G37*
%TO.C,C7*%
X66220000Y-69050580D02*
X66220000Y-68769420D01*
X67240000Y-69050580D02*
X67240000Y-68769420D01*
%TO.C,D5*%
X46202500Y-87965000D02*
X46202500Y-89435000D01*
X46202500Y-89435000D02*
X48487500Y-89435000D01*
X48487500Y-87965000D02*
X46202500Y-87965000D01*
%TO.C,R8*%
X50912258Y-88177500D02*
X50437742Y-88177500D01*
X50912258Y-89222500D02*
X50437742Y-89222500D01*
%TO.C,J6*%
X74370000Y-94080000D02*
X74370000Y-91480000D01*
X77030000Y-91480000D02*
X74370000Y-91480000D01*
X77030000Y-94080000D02*
X74370000Y-94080000D01*
X77030000Y-94080000D02*
X77030000Y-91480000D01*
X77030000Y-95350000D02*
X77030000Y-96680000D01*
X77030000Y-96680000D02*
X75700000Y-96680000D01*
%TO.C,Q2*%
X48300000Y-80115000D02*
X47650000Y-80115000D01*
X48300000Y-80115000D02*
X48950000Y-80115000D01*
X48300000Y-83235000D02*
X47650000Y-83235000D01*
X48300000Y-83235000D02*
X48950000Y-83235000D01*
X49702500Y-83515000D02*
X49222500Y-83515000D01*
X49462500Y-83185000D01*
X49702500Y-83515000D01*
G36*
X49702500Y-83515000D02*
G01*
X49222500Y-83515000D01*
X49462500Y-83185000D01*
X49702500Y-83515000D01*
G37*
%TO.C,R2*%
X69307500Y-69147258D02*
X69307500Y-68672742D01*
X70352500Y-69147258D02*
X70352500Y-68672742D01*
%TO.C,D1*%
X46240000Y-65060000D02*
X40730000Y-65060000D01*
X46240000Y-68360000D02*
X40730000Y-68360000D01*
X46240000Y-68360000D02*
X46240000Y-65060000D01*
%TO.C,C3*%
X66220000Y-72050580D02*
X66220000Y-71769420D01*
X67240000Y-72050580D02*
X67240000Y-71769420D01*
%TO.C,R12*%
X69737258Y-94502500D02*
X69262742Y-94502500D01*
X69737258Y-95547500D02*
X69262742Y-95547500D01*
%TO.C,C9*%
X72245580Y-80100000D02*
X71964420Y-80100000D01*
X72245580Y-81120000D02*
X71964420Y-81120000D01*
%TO.C,J4*%
X74370000Y-77955000D02*
X74370000Y-72815000D01*
X77030000Y-72815000D02*
X74370000Y-72815000D01*
X77030000Y-77955000D02*
X74370000Y-77955000D01*
X77030000Y-77955000D02*
X77030000Y-72815000D01*
X77030000Y-79225000D02*
X77030000Y-80555000D01*
X77030000Y-80555000D02*
X75700000Y-80555000D01*
%TO.C,C4*%
X67820000Y-71769420D02*
X67820000Y-72050580D01*
X68840000Y-71769420D02*
X68840000Y-72050580D01*
%TO.C,R9*%
X44362742Y-88177500D02*
X44837258Y-88177500D01*
X44362742Y-89222500D02*
X44837258Y-89222500D01*
%TO.C,R14*%
X61612258Y-94377500D02*
X61137742Y-94377500D01*
X61612258Y-95422500D02*
X61137742Y-95422500D01*
%TO.C,R5*%
X44600242Y-78602500D02*
X45074758Y-78602500D01*
X44600242Y-79647500D02*
X45074758Y-79647500D01*
%TO.C,R10*%
X72337258Y-78487500D02*
X71862742Y-78487500D01*
X72337258Y-79532500D02*
X71862742Y-79532500D01*
%TO.C,U1*%
X50895000Y-67097500D02*
X50895000Y-66497500D01*
X50895000Y-67097500D02*
X50895000Y-67697500D01*
X52765000Y-67097500D02*
X52765000Y-66497500D01*
X52765000Y-67097500D02*
X52765000Y-67697500D01*
X51570000Y-68737500D02*
X51090000Y-68737500D01*
X51330000Y-68407500D01*
X51570000Y-68737500D01*
G36*
X51570000Y-68737500D02*
G01*
X51090000Y-68737500D01*
X51330000Y-68407500D01*
X51570000Y-68737500D01*
G37*
%TO.C,D3*%
X46440000Y-78390000D02*
X46440000Y-79860000D01*
X46440000Y-79860000D02*
X48725000Y-79860000D01*
X48725000Y-78390000D02*
X46440000Y-78390000D01*
%TO.C,C1*%
X48695000Y-69698748D02*
X48695000Y-70221252D01*
X50165000Y-69698748D02*
X50165000Y-70221252D01*
%TO.C,J3*%
X39370000Y-88445000D02*
X40700000Y-88445000D01*
X39370000Y-89775000D02*
X39370000Y-88445000D01*
X39370000Y-91045000D02*
X39370000Y-96185000D01*
X39370000Y-91045000D02*
X42030000Y-91045000D01*
X39370000Y-96185000D02*
X42030000Y-96185000D01*
X42030000Y-91045000D02*
X42030000Y-96185000D01*
%TO.C,Q1*%
X43540000Y-81045000D02*
X43540000Y-82455000D01*
X44200000Y-82455000D02*
X43540000Y-82455000D01*
X45860000Y-81045000D02*
X45860000Y-82455000D01*
X45860000Y-82455000D02*
X45200000Y-82455000D01*
X46170000Y-80915000D02*
X45840000Y-80675000D01*
X46170000Y-80435000D01*
X46170000Y-80915000D01*
G36*
X46170000Y-80915000D02*
G01*
X45840000Y-80675000D01*
X46170000Y-80435000D01*
X46170000Y-80915000D01*
G37*
%TO.C,C14*%
X46695000Y-69698748D02*
X46695000Y-70221252D01*
X48165000Y-69698748D02*
X48165000Y-70221252D01*
%TD*%
M02*
