%TF.GenerationSoftware,KiCad,Pcbnew,8.0.8*%
%TF.CreationDate,2025-06-12T11:50:17+02:00*%
%TF.ProjectId,LedDimmer,4c656444-696d-46d6-9572-2e6b69636164,rev?*%
%TF.SameCoordinates,Original*%
%TF.FileFunction,Soldermask,Top*%
%TF.FilePolarity,Negative*%
%FSLAX46Y46*%
G04 Gerber Fmt 4.6, Leading zero omitted, Abs format (unit mm)*
G04 Created by KiCad (PCBNEW 8.0.8) date 2025-06-12 11:50:17*
%MOMM*%
%LPD*%
G01*
G04 APERTURE LIST*
G04 Aperture macros list*
%AMRoundRect*
0 Rectangle with rounded corners*
0 $1 Rounding radius*
0 $2 $3 $4 $5 $6 $7 $8 $9 X,Y pos of 4 corners*
0 Add a 4 corners polygon primitive as box body*
4,1,4,$2,$3,$4,$5,$6,$7,$8,$9,$2,$3,0*
0 Add four circle primitives for the rounded corners*
1,1,$1+$1,$2,$3*
1,1,$1+$1,$4,$5*
1,1,$1+$1,$6,$7*
1,1,$1+$1,$8,$9*
0 Add four rect primitives between the rounded corners*
20,1,$1+$1,$2,$3,$4,$5,0*
20,1,$1+$1,$4,$5,$6,$7,0*
20,1,$1+$1,$6,$7,$8,$9,0*
20,1,$1+$1,$8,$9,$2,$3,0*%
G04 Aperture macros list end*
%ADD10RoundRect,0.200000X-0.275000X0.200000X-0.275000X-0.200000X0.275000X-0.200000X0.275000X0.200000X0*%
%ADD11RoundRect,0.200000X0.275000X-0.200000X0.275000X0.200000X-0.275000X0.200000X-0.275000X-0.200000X0*%
%ADD12RoundRect,0.225000X-0.225000X-0.250000X0.225000X-0.250000X0.225000X0.250000X-0.225000X0.250000X0*%
%ADD13C,2.600000*%
%ADD14C,3.800000*%
%ADD15RoundRect,0.250000X-1.000000X-0.650000X1.000000X-0.650000X1.000000X0.650000X-1.000000X0.650000X0*%
%ADD16R,1.700000X1.700000*%
%ADD17O,1.700000X1.700000*%
%ADD18RoundRect,0.218750X0.256250X-0.218750X0.256250X0.218750X-0.256250X0.218750X-0.256250X-0.218750X0*%
%ADD19RoundRect,0.200000X-0.200000X-0.275000X0.200000X-0.275000X0.200000X0.275000X-0.200000X0.275000X0*%
%ADD20RoundRect,0.200000X0.200000X0.275000X-0.200000X0.275000X-0.200000X-0.275000X0.200000X-0.275000X0*%
%ADD21RoundRect,0.225000X0.225000X0.250000X-0.225000X0.250000X-0.225000X-0.250000X0.225000X-0.250000X0*%
%ADD22RoundRect,0.225000X0.250000X-0.225000X0.250000X0.225000X-0.250000X0.225000X-0.250000X-0.225000X0*%
%ADD23RoundRect,0.150000X0.587500X0.150000X-0.587500X0.150000X-0.587500X-0.150000X0.587500X-0.150000X0*%
%ADD24RoundRect,0.150000X-0.825000X-0.150000X0.825000X-0.150000X0.825000X0.150000X-0.825000X0.150000X0*%
%ADD25RoundRect,0.117646X-0.682354X-1.482354X0.682354X-1.482354X0.682354X1.482354X-0.682354X1.482354X0*%
%ADD26RoundRect,0.112500X0.112500X0.237500X-0.112500X0.237500X-0.112500X-0.237500X0.112500X-0.237500X0*%
%ADD27RoundRect,0.218750X-0.218750X-0.256250X0.218750X-0.256250X0.218750X0.256250X-0.218750X0.256250X0*%
%ADD28RoundRect,0.250000X1.000000X0.650000X-1.000000X0.650000X-1.000000X-0.650000X1.000000X-0.650000X0*%
%ADD29RoundRect,0.225000X-0.250000X0.225000X-0.250000X-0.225000X0.250000X-0.225000X0.250000X0.225000X0*%
%ADD30RoundRect,0.087500X0.087500X-0.250000X0.087500X0.250000X-0.087500X0.250000X-0.087500X-0.250000X0*%
%ADD31RoundRect,0.250000X-0.475000X0.250000X-0.475000X-0.250000X0.475000X-0.250000X0.475000X0.250000X0*%
G04 APERTURE END LIST*
D10*
%TO.C,R21*%
X55730000Y-92185000D03*
X55730000Y-93835000D03*
%TD*%
D11*
%TO.C,R20*%
X54130000Y-93835000D03*
X54130000Y-92185000D03*
%TD*%
D10*
%TO.C,R19*%
X55630000Y-85485000D03*
X55630000Y-87135000D03*
%TD*%
%TO.C,R18*%
X55630000Y-88510000D03*
X55630000Y-90160000D03*
%TD*%
D12*
%TO.C,C5*%
X53080000Y-64910000D03*
X54630000Y-64910000D03*
%TD*%
D13*
%TO.C,H4*%
X40430000Y-62010000D03*
D14*
X40430000Y-62010000D03*
%TD*%
D15*
%TO.C,D6*%
X44600000Y-95000000D03*
X48600000Y-95000000D03*
%TD*%
D16*
%TO.C,J5*%
X75700000Y-88000000D03*
D17*
X75700000Y-85460000D03*
X75700000Y-82920000D03*
%TD*%
D18*
%TO.C,D4*%
X63000000Y-87387500D03*
X63000000Y-85812500D03*
%TD*%
D19*
%TO.C,R7*%
X59700000Y-85900000D03*
X61350000Y-85900000D03*
%TD*%
D20*
%TO.C,R6*%
X51850000Y-79125000D03*
X50200000Y-79125000D03*
%TD*%
D15*
%TO.C,D2*%
X44800000Y-85425000D03*
X48800000Y-85425000D03*
%TD*%
D13*
%TO.C,H2*%
X75430000Y-102010000D03*
D14*
X75430000Y-102010000D03*
%TD*%
D21*
%TO.C,C10*%
X72505000Y-87010000D03*
X70955000Y-87010000D03*
%TD*%
D20*
%TO.C,R11*%
X72525000Y-85400000D03*
X70875000Y-85400000D03*
%TD*%
D22*
%TO.C,C11*%
X67000000Y-96500000D03*
X67000000Y-94950000D03*
%TD*%
D16*
%TO.C,J1*%
X40700000Y-80100000D03*
D17*
X40700000Y-82640000D03*
X40700000Y-85180000D03*
%TD*%
D22*
%TO.C,C2*%
X51162000Y-71285000D03*
X51162000Y-69735000D03*
%TD*%
D23*
%TO.C,Q3*%
X49037500Y-92250000D03*
X49037500Y-90350000D03*
X47162500Y-91300000D03*
%TD*%
D24*
%TO.C,U2*%
X60225000Y-89395000D03*
X60225000Y-90665000D03*
X60225000Y-91935000D03*
X60225000Y-93205000D03*
X65175000Y-93205000D03*
X65175000Y-91935000D03*
X65175000Y-90665000D03*
X65175000Y-89395000D03*
%TD*%
D20*
%TO.C,R3*%
X69930000Y-66510000D03*
X68280000Y-66510000D03*
%TD*%
D21*
%TO.C,C8*%
X61275000Y-87500000D03*
X59725000Y-87500000D03*
%TD*%
D11*
%TO.C,R1*%
X49430000Y-67335000D03*
X49430000Y-65685000D03*
%TD*%
D16*
%TO.C,J2*%
X40630000Y-73050000D03*
D17*
X40630000Y-70510000D03*
%TD*%
D11*
%TO.C,R4*%
X68130000Y-64910000D03*
X68130000Y-63260000D03*
%TD*%
D25*
%TO.C,L1*%
X54980000Y-71010000D03*
X63880000Y-71010000D03*
%TD*%
D19*
%TO.C,R13*%
X63775000Y-94900000D03*
X65425000Y-94900000D03*
%TD*%
D22*
%TO.C,C6*%
X68230000Y-69685000D03*
X68230000Y-68135000D03*
%TD*%
D26*
%TO.C,Q4*%
X45150000Y-90300000D03*
X43850000Y-90300000D03*
X44500000Y-92300000D03*
%TD*%
D22*
%TO.C,C7*%
X66730000Y-69685000D03*
X66730000Y-68135000D03*
%TD*%
D13*
%TO.C,H3*%
X40430000Y-102010000D03*
D14*
X40430000Y-102010000D03*
%TD*%
D27*
%TO.C,D5*%
X46900000Y-88700000D03*
X48475000Y-88700000D03*
%TD*%
D20*
%TO.C,R8*%
X51500000Y-88700000D03*
X49850000Y-88700000D03*
%TD*%
D16*
%TO.C,J6*%
X75700000Y-95350000D03*
D17*
X75700000Y-92810000D03*
%TD*%
D23*
%TO.C,Q2*%
X49237500Y-82625000D03*
X49237500Y-80725000D03*
X47362500Y-81675000D03*
%TD*%
D11*
%TO.C,R2*%
X69830000Y-69735000D03*
X69830000Y-68085000D03*
%TD*%
D28*
%TO.C,D1*%
X44730000Y-66710000D03*
X40730000Y-66710000D03*
%TD*%
D22*
%TO.C,C3*%
X66730000Y-72685000D03*
X66730000Y-71135000D03*
%TD*%
D20*
%TO.C,R12*%
X70325000Y-95025000D03*
X68675000Y-95025000D03*
%TD*%
D21*
%TO.C,C9*%
X72880000Y-80610000D03*
X71330000Y-80610000D03*
%TD*%
D16*
%TO.C,J4*%
X75700000Y-79225000D03*
D17*
X75700000Y-76685000D03*
X75700000Y-74145000D03*
%TD*%
D29*
%TO.C,C4*%
X68330000Y-71135000D03*
X68330000Y-72685000D03*
%TD*%
D19*
%TO.C,R9*%
X43775000Y-88700000D03*
X45425000Y-88700000D03*
%TD*%
D20*
%TO.C,R14*%
X62200000Y-94900000D03*
X60550000Y-94900000D03*
%TD*%
D19*
%TO.C,R5*%
X44012500Y-79125000D03*
X45662500Y-79125000D03*
%TD*%
D20*
%TO.C,R10*%
X72925000Y-79010000D03*
X71275000Y-79010000D03*
%TD*%
D30*
%TO.C,U1*%
X51330000Y-67810000D03*
X51830000Y-67810000D03*
X52330000Y-67810000D03*
X52330000Y-66385000D03*
X51830000Y-66385000D03*
X51330000Y-66385000D03*
%TD*%
D27*
%TO.C,D3*%
X47137500Y-79125000D03*
X48712500Y-79125000D03*
%TD*%
D31*
%TO.C,C1*%
X49430000Y-69010000D03*
X49430000Y-70910000D03*
%TD*%
D16*
%TO.C,J3*%
X40700000Y-89775000D03*
D17*
X40700000Y-92315000D03*
X40700000Y-94855000D03*
%TD*%
D26*
%TO.C,Q1*%
X45350000Y-80725000D03*
X44050000Y-80725000D03*
X44700000Y-82725000D03*
%TD*%
D31*
%TO.C,C14*%
X47430000Y-69010000D03*
X47430000Y-70910000D03*
%TD*%
D13*
%TO.C,H1*%
X75430000Y-62010000D03*
D14*
X75430000Y-62010000D03*
%TD*%
M02*
