%TF.GenerationSoftware,KiCad,Pcbnew,8.0.8*%
%TF.CreationDate,2025-06-23T11:54:19+02:00*%
%TF.ProjectId,LedDimmer,4c656444-696d-46d6-9572-2e6b69636164,rev?*%
%TF.SameCoordinates,Original*%
%TF.FileFunction,Paste,Top*%
%TF.FilePolarity,Positive*%
%FSLAX46Y46*%
G04 Gerber Fmt 4.6, Leading zero omitted, Abs format (unit mm)*
G04 Created by KiCad (PCBNEW 8.0.8) date 2025-06-23 11:54:19*
%MOMM*%
%LPD*%
G01*
G04 APERTURE LIST*
G04 Aperture macros list*
%AMRoundRect*
0 Rectangle with rounded corners*
0 $1 Rounding radius*
0 $2 $3 $4 $5 $6 $7 $8 $9 X,Y pos of 4 corners*
0 Add a 4 corners polygon primitive as box body*
4,1,4,$2,$3,$4,$5,$6,$7,$8,$9,$2,$3,0*
0 Add four circle primitives for the rounded corners*
1,1,$1+$1,$2,$3*
1,1,$1+$1,$4,$5*
1,1,$1+$1,$6,$7*
1,1,$1+$1,$8,$9*
0 Add four rect primitives between the rounded corners*
20,1,$1+$1,$2,$3,$4,$5,0*
20,1,$1+$1,$4,$5,$6,$7,0*
20,1,$1+$1,$6,$7,$8,$9,0*
20,1,$1+$1,$8,$9,$2,$3,0*%
G04 Aperture macros list end*
%ADD10RoundRect,0.225000X-0.225000X-0.250000X0.225000X-0.250000X0.225000X0.250000X-0.225000X0.250000X0*%
%ADD11RoundRect,0.250000X-1.000000X-0.650000X1.000000X-0.650000X1.000000X0.650000X-1.000000X0.650000X0*%
%ADD12RoundRect,0.218750X-0.256250X0.218750X-0.256250X-0.218750X0.256250X-0.218750X0.256250X0.218750X0*%
%ADD13RoundRect,0.200000X0.275000X-0.200000X0.275000X0.200000X-0.275000X0.200000X-0.275000X-0.200000X0*%
%ADD14RoundRect,0.200000X0.200000X0.275000X-0.200000X0.275000X-0.200000X-0.275000X0.200000X-0.275000X0*%
%ADD15RoundRect,0.225000X0.225000X0.250000X-0.225000X0.250000X-0.225000X-0.250000X0.225000X-0.250000X0*%
%ADD16RoundRect,0.225000X0.250000X-0.225000X0.250000X0.225000X-0.250000X0.225000X-0.250000X-0.225000X0*%
%ADD17RoundRect,0.150000X0.587500X0.150000X-0.587500X0.150000X-0.587500X-0.150000X0.587500X-0.150000X0*%
%ADD18RoundRect,0.150000X-0.825000X-0.150000X0.825000X-0.150000X0.825000X0.150000X-0.825000X0.150000X0*%
%ADD19RoundRect,0.117646X-0.682354X-1.482354X0.682354X-1.482354X0.682354X1.482354X-0.682354X1.482354X0*%
%ADD20RoundRect,0.200000X-0.200000X-0.275000X0.200000X-0.275000X0.200000X0.275000X-0.200000X0.275000X0*%
%ADD21RoundRect,0.112500X0.112500X0.237500X-0.112500X0.237500X-0.112500X-0.237500X0.112500X-0.237500X0*%
%ADD22RoundRect,0.200000X-0.275000X0.200000X-0.275000X-0.200000X0.275000X-0.200000X0.275000X0.200000X0*%
%ADD23RoundRect,0.218750X-0.218750X-0.256250X0.218750X-0.256250X0.218750X0.256250X-0.218750X0.256250X0*%
%ADD24RoundRect,0.250000X1.000000X0.650000X-1.000000X0.650000X-1.000000X-0.650000X1.000000X-0.650000X0*%
%ADD25RoundRect,0.225000X-0.250000X0.225000X-0.250000X-0.225000X0.250000X-0.225000X0.250000X0.225000X0*%
%ADD26RoundRect,0.087500X0.087500X-0.250000X0.087500X0.250000X-0.087500X0.250000X-0.087500X-0.250000X0*%
%ADD27RoundRect,0.250000X-0.475000X0.250000X-0.475000X-0.250000X0.475000X-0.250000X0.475000X0.250000X0*%
G04 APERTURE END LIST*
D10*
%TO.C,C5*%
X53080000Y-64910000D03*
X54630000Y-64910000D03*
%TD*%
D11*
%TO.C,D6*%
X44600000Y-95000000D03*
X48600000Y-95000000D03*
%TD*%
D12*
%TO.C,D4*%
X75630000Y-65622499D03*
X75630000Y-67197501D03*
%TD*%
D13*
%TO.C,R7*%
X75630000Y-70335000D03*
X75630000Y-68685000D03*
%TD*%
D14*
%TO.C,R6*%
X53580000Y-79110000D03*
X51930000Y-79110000D03*
%TD*%
D11*
%TO.C,D2*%
X44800000Y-85425000D03*
X48800000Y-85425000D03*
%TD*%
D15*
%TO.C,C10*%
X72505000Y-87010000D03*
X70955000Y-87010000D03*
%TD*%
D14*
%TO.C,R11*%
X72525000Y-85400000D03*
X70875000Y-85400000D03*
%TD*%
D16*
%TO.C,C11*%
X67000000Y-96500000D03*
X67000000Y-94950000D03*
%TD*%
%TO.C,C2*%
X51162000Y-71285000D03*
X51162000Y-69735000D03*
%TD*%
D17*
%TO.C,Q3*%
X49037500Y-92250000D03*
X49037500Y-90350000D03*
X47162500Y-91300000D03*
%TD*%
D18*
%TO.C,U2*%
X60225000Y-89395000D03*
X60225000Y-90665000D03*
X60225000Y-91935000D03*
X60225000Y-93205000D03*
X65175000Y-93205000D03*
X65175000Y-91935000D03*
X65175000Y-90665000D03*
X65175000Y-89395000D03*
%TD*%
D14*
%TO.C,R3*%
X69930000Y-66510000D03*
X68280000Y-66510000D03*
%TD*%
D15*
%TO.C,C8*%
X61275000Y-87500000D03*
X59725000Y-87500000D03*
%TD*%
D13*
%TO.C,R1*%
X49430000Y-67335000D03*
X49430000Y-65685000D03*
%TD*%
%TO.C,R4*%
X68130000Y-64910000D03*
X68130000Y-63260000D03*
%TD*%
D19*
%TO.C,L1*%
X54980000Y-71010000D03*
X63880000Y-71010000D03*
%TD*%
D20*
%TO.C,R13*%
X63775000Y-94900000D03*
X65425000Y-94900000D03*
%TD*%
D16*
%TO.C,C6*%
X68230000Y-69685000D03*
X68230000Y-68135000D03*
%TD*%
D21*
%TO.C,Q4*%
X45150000Y-90300000D03*
X43850000Y-90300000D03*
X44500000Y-92300000D03*
%TD*%
D22*
%TO.C,R21*%
X54830000Y-92285000D03*
X54830000Y-93935000D03*
%TD*%
D16*
%TO.C,C7*%
X66730000Y-69685000D03*
X66730000Y-68135000D03*
%TD*%
D17*
%TO.C,Q5*%
X53167500Y-82625000D03*
X53167500Y-80725000D03*
X51292500Y-81675000D03*
%TD*%
%TO.C,Q6*%
X52967500Y-92260000D03*
X52967500Y-90360000D03*
X51092500Y-91310000D03*
%TD*%
D23*
%TO.C,D5*%
X46930000Y-88710000D03*
X48505000Y-88710000D03*
%TD*%
D14*
%TO.C,R8*%
X53580000Y-88710000D03*
X51930000Y-88710000D03*
%TD*%
D17*
%TO.C,Q2*%
X49237500Y-82625000D03*
X49237500Y-80725000D03*
X47362500Y-81675000D03*
%TD*%
D13*
%TO.C,R18*%
X55130000Y-82735000D03*
X55130000Y-81085000D03*
%TD*%
%TO.C,R2*%
X69830000Y-69735000D03*
X69830000Y-68085000D03*
%TD*%
D24*
%TO.C,D1*%
X44730000Y-66710000D03*
X40730000Y-66710000D03*
%TD*%
D16*
%TO.C,C3*%
X66730000Y-72685000D03*
X66730000Y-71135000D03*
%TD*%
D14*
%TO.C,R12*%
X70325000Y-95025000D03*
X68675000Y-95025000D03*
%TD*%
D15*
%TO.C,C9*%
X72910000Y-81910000D03*
X71360000Y-81910000D03*
%TD*%
D25*
%TO.C,C4*%
X68330000Y-71135000D03*
X68330000Y-72685000D03*
%TD*%
D20*
%TO.C,R9*%
X43775000Y-88700000D03*
X45425000Y-88700000D03*
%TD*%
D14*
%TO.C,R14*%
X62200000Y-94900000D03*
X60550000Y-94900000D03*
%TD*%
D20*
%TO.C,R5*%
X44012500Y-79125000D03*
X45662500Y-79125000D03*
%TD*%
D16*
%TO.C,C16*%
X55130000Y-90285000D03*
X55130000Y-88735000D03*
%TD*%
D14*
%TO.C,R10*%
X72955000Y-80310000D03*
X71305000Y-80310000D03*
%TD*%
D26*
%TO.C,U1*%
X51330000Y-67810000D03*
X51830000Y-67810000D03*
X52330000Y-67810000D03*
X52330000Y-66385000D03*
X51830000Y-66385000D03*
X51330000Y-66385000D03*
%TD*%
D23*
%TO.C,D3*%
X47142500Y-79110000D03*
X48717500Y-79110000D03*
%TD*%
D27*
%TO.C,C1*%
X49430000Y-69010000D03*
X49430000Y-70910000D03*
%TD*%
D15*
%TO.C,C15*%
X56605000Y-79610000D03*
X55055000Y-79610000D03*
%TD*%
D21*
%TO.C,Q1*%
X45350000Y-80725000D03*
X44050000Y-80725000D03*
X44700000Y-82725000D03*
%TD*%
D27*
%TO.C,C14*%
X47430000Y-69010000D03*
X47430000Y-70910000D03*
%TD*%
M02*
