%TF.GenerationSoftware,KiCad,Pcbnew,8.0.8*%
%TF.CreationDate,2025-06-23T11:54:19+02:00*%
%TF.ProjectId,LedDimmer,4c656444-696d-46d6-9572-2e6b69636164,rev?*%
%TF.SameCoordinates,Original*%
%TF.FileFunction,Legend,Top*%
%TF.FilePolarity,Positive*%
%FSLAX46Y46*%
G04 Gerber Fmt 4.6, Leading zero omitted, Abs format (unit mm)*
G04 Created by KiCad (PCBNEW 8.0.8) date 2025-06-23 11:54:19*
%MOMM*%
%LPD*%
G01*
G04 APERTURE LIST*
%ADD10C,0.100000*%
%ADD11C,0.150000*%
%ADD12C,0.120000*%
G04 APERTURE END LIST*
D10*
X59230000Y-81510000D02*
X66030000Y-81510000D01*
X66030000Y-84110000D01*
X59230000Y-84110000D01*
X59230000Y-81510000D01*
G36*
X59230000Y-81510000D02*
G01*
X66030000Y-81510000D01*
X66030000Y-84110000D01*
X59230000Y-84110000D01*
X59230000Y-81510000D01*
G37*
X77439247Y-74671027D02*
X77439247Y-74909122D01*
X77296390Y-74623408D02*
X77796390Y-74790074D01*
X77796390Y-74790074D02*
X77296390Y-74956741D01*
X77296390Y-75123407D02*
X77796390Y-75123407D01*
X77296390Y-75623407D02*
X77296390Y-75337693D01*
X77296390Y-75480550D02*
X77796390Y-75480550D01*
X77796390Y-75480550D02*
X77724961Y-75432931D01*
X77724961Y-75432931D02*
X77677342Y-75385312D01*
X77677342Y-75385312D02*
X77653533Y-75337693D01*
X77796390Y-76147216D02*
X77296390Y-76313882D01*
X77296390Y-76313882D02*
X77796390Y-76480549D01*
X77320200Y-77004358D02*
X77296390Y-77075786D01*
X77296390Y-77075786D02*
X77296390Y-77194834D01*
X77296390Y-77194834D02*
X77320200Y-77242453D01*
X77320200Y-77242453D02*
X77344009Y-77266262D01*
X77344009Y-77266262D02*
X77391628Y-77290072D01*
X77391628Y-77290072D02*
X77439247Y-77290072D01*
X77439247Y-77290072D02*
X77486866Y-77266262D01*
X77486866Y-77266262D02*
X77510676Y-77242453D01*
X77510676Y-77242453D02*
X77534485Y-77194834D01*
X77534485Y-77194834D02*
X77558295Y-77099596D01*
X77558295Y-77099596D02*
X77582104Y-77051977D01*
X77582104Y-77051977D02*
X77605914Y-77028167D01*
X77605914Y-77028167D02*
X77653533Y-77004358D01*
X77653533Y-77004358D02*
X77701152Y-77004358D01*
X77701152Y-77004358D02*
X77748771Y-77028167D01*
X77748771Y-77028167D02*
X77772580Y-77051977D01*
X77772580Y-77051977D02*
X77796390Y-77099596D01*
X77796390Y-77099596D02*
X77796390Y-77218643D01*
X77796390Y-77218643D02*
X77772580Y-77290072D01*
X77772580Y-78147214D02*
X77796390Y-78099595D01*
X77796390Y-78099595D02*
X77796390Y-78028166D01*
X77796390Y-78028166D02*
X77772580Y-77956738D01*
X77772580Y-77956738D02*
X77724961Y-77909119D01*
X77724961Y-77909119D02*
X77677342Y-77885309D01*
X77677342Y-77885309D02*
X77582104Y-77861500D01*
X77582104Y-77861500D02*
X77510676Y-77861500D01*
X77510676Y-77861500D02*
X77415438Y-77885309D01*
X77415438Y-77885309D02*
X77367819Y-77909119D01*
X77367819Y-77909119D02*
X77320200Y-77956738D01*
X77320200Y-77956738D02*
X77296390Y-78028166D01*
X77296390Y-78028166D02*
X77296390Y-78075785D01*
X77296390Y-78075785D02*
X77320200Y-78147214D01*
X77320200Y-78147214D02*
X77344009Y-78171023D01*
X77344009Y-78171023D02*
X77510676Y-78171023D01*
X77510676Y-78171023D02*
X77510676Y-78075785D01*
X42144836Y-71183189D02*
X42525789Y-71183189D01*
X42335312Y-71373665D02*
X42335312Y-70992713D01*
X43001979Y-70873665D02*
X42763884Y-70873665D01*
X42763884Y-70873665D02*
X42740075Y-71111760D01*
X42740075Y-71111760D02*
X42763884Y-71087951D01*
X42763884Y-71087951D02*
X42811503Y-71064141D01*
X42811503Y-71064141D02*
X42930551Y-71064141D01*
X42930551Y-71064141D02*
X42978170Y-71087951D01*
X42978170Y-71087951D02*
X43001979Y-71111760D01*
X43001979Y-71111760D02*
X43025789Y-71159379D01*
X43025789Y-71159379D02*
X43025789Y-71278427D01*
X43025789Y-71278427D02*
X43001979Y-71326046D01*
X43001979Y-71326046D02*
X42978170Y-71349856D01*
X42978170Y-71349856D02*
X42930551Y-71373665D01*
X42930551Y-71373665D02*
X42811503Y-71373665D01*
X42811503Y-71373665D02*
X42763884Y-71349856D01*
X42763884Y-71349856D02*
X42740075Y-71326046D01*
X43240074Y-71183189D02*
X43621027Y-71183189D01*
X44121027Y-71373665D02*
X43835313Y-71373665D01*
X43978170Y-71373665D02*
X43978170Y-70873665D01*
X43978170Y-70873665D02*
X43930551Y-70945094D01*
X43930551Y-70945094D02*
X43882932Y-70992713D01*
X43882932Y-70992713D02*
X43835313Y-71016522D01*
X44311503Y-70921284D02*
X44335312Y-70897475D01*
X44335312Y-70897475D02*
X44382931Y-70873665D01*
X44382931Y-70873665D02*
X44501979Y-70873665D01*
X44501979Y-70873665D02*
X44549598Y-70897475D01*
X44549598Y-70897475D02*
X44573407Y-70921284D01*
X44573407Y-70921284D02*
X44597217Y-70968903D01*
X44597217Y-70968903D02*
X44597217Y-71016522D01*
X44597217Y-71016522D02*
X44573407Y-71087951D01*
X44573407Y-71087951D02*
X44287693Y-71373665D01*
X44287693Y-71373665D02*
X44597217Y-71373665D01*
X44740074Y-70873665D02*
X44906740Y-71373665D01*
X44906740Y-71373665D02*
X45073407Y-70873665D01*
X42406741Y-72507419D02*
X42359122Y-72483609D01*
X42359122Y-72483609D02*
X42287693Y-72483609D01*
X42287693Y-72483609D02*
X42216265Y-72507419D01*
X42216265Y-72507419D02*
X42168646Y-72555038D01*
X42168646Y-72555038D02*
X42144836Y-72602657D01*
X42144836Y-72602657D02*
X42121027Y-72697895D01*
X42121027Y-72697895D02*
X42121027Y-72769323D01*
X42121027Y-72769323D02*
X42144836Y-72864561D01*
X42144836Y-72864561D02*
X42168646Y-72912180D01*
X42168646Y-72912180D02*
X42216265Y-72959800D01*
X42216265Y-72959800D02*
X42287693Y-72983609D01*
X42287693Y-72983609D02*
X42335312Y-72983609D01*
X42335312Y-72983609D02*
X42406741Y-72959800D01*
X42406741Y-72959800D02*
X42430550Y-72935990D01*
X42430550Y-72935990D02*
X42430550Y-72769323D01*
X42430550Y-72769323D02*
X42335312Y-72769323D01*
X42644836Y-72983609D02*
X42644836Y-72483609D01*
X42644836Y-72483609D02*
X42930550Y-72983609D01*
X42930550Y-72983609D02*
X42930550Y-72483609D01*
X43168646Y-72983609D02*
X43168646Y-72483609D01*
X43168646Y-72483609D02*
X43287694Y-72483609D01*
X43287694Y-72483609D02*
X43359122Y-72507419D01*
X43359122Y-72507419D02*
X43406741Y-72555038D01*
X43406741Y-72555038D02*
X43430551Y-72602657D01*
X43430551Y-72602657D02*
X43454360Y-72697895D01*
X43454360Y-72697895D02*
X43454360Y-72769323D01*
X43454360Y-72769323D02*
X43430551Y-72864561D01*
X43430551Y-72864561D02*
X43406741Y-72912180D01*
X43406741Y-72912180D02*
X43359122Y-72959800D01*
X43359122Y-72959800D02*
X43287694Y-72983609D01*
X43287694Y-72983609D02*
X43168646Y-72983609D01*
X77063609Y-70125163D02*
X76563609Y-70125163D01*
X76563609Y-70125163D02*
X76563609Y-69934687D01*
X76563609Y-69934687D02*
X76587419Y-69887068D01*
X76587419Y-69887068D02*
X76611228Y-69863258D01*
X76611228Y-69863258D02*
X76658847Y-69839449D01*
X76658847Y-69839449D02*
X76730276Y-69839449D01*
X76730276Y-69839449D02*
X76777895Y-69863258D01*
X76777895Y-69863258D02*
X76801704Y-69887068D01*
X76801704Y-69887068D02*
X76825514Y-69934687D01*
X76825514Y-69934687D02*
X76825514Y-70125163D01*
X77063609Y-69553734D02*
X77039800Y-69601353D01*
X77039800Y-69601353D02*
X77015990Y-69625163D01*
X77015990Y-69625163D02*
X76968371Y-69648972D01*
X76968371Y-69648972D02*
X76825514Y-69648972D01*
X76825514Y-69648972D02*
X76777895Y-69625163D01*
X76777895Y-69625163D02*
X76754085Y-69601353D01*
X76754085Y-69601353D02*
X76730276Y-69553734D01*
X76730276Y-69553734D02*
X76730276Y-69482306D01*
X76730276Y-69482306D02*
X76754085Y-69434687D01*
X76754085Y-69434687D02*
X76777895Y-69410877D01*
X76777895Y-69410877D02*
X76825514Y-69387068D01*
X76825514Y-69387068D02*
X76968371Y-69387068D01*
X76968371Y-69387068D02*
X77015990Y-69410877D01*
X77015990Y-69410877D02*
X77039800Y-69434687D01*
X77039800Y-69434687D02*
X77063609Y-69482306D01*
X77063609Y-69482306D02*
X77063609Y-69553734D01*
X76730276Y-69220401D02*
X77063609Y-69125163D01*
X77063609Y-69125163D02*
X76825514Y-69029925D01*
X76825514Y-69029925D02*
X77063609Y-68934687D01*
X77063609Y-68934687D02*
X76730276Y-68839449D01*
X77039800Y-68458496D02*
X77063609Y-68506115D01*
X77063609Y-68506115D02*
X77063609Y-68601353D01*
X77063609Y-68601353D02*
X77039800Y-68648972D01*
X77039800Y-68648972D02*
X76992180Y-68672781D01*
X76992180Y-68672781D02*
X76801704Y-68672781D01*
X76801704Y-68672781D02*
X76754085Y-68648972D01*
X76754085Y-68648972D02*
X76730276Y-68601353D01*
X76730276Y-68601353D02*
X76730276Y-68506115D01*
X76730276Y-68506115D02*
X76754085Y-68458496D01*
X76754085Y-68458496D02*
X76801704Y-68434686D01*
X76801704Y-68434686D02*
X76849323Y-68434686D01*
X76849323Y-68434686D02*
X76896942Y-68672781D01*
X77063609Y-68220401D02*
X76730276Y-68220401D01*
X76825514Y-68220401D02*
X76777895Y-68196591D01*
X76777895Y-68196591D02*
X76754085Y-68172782D01*
X76754085Y-68172782D02*
X76730276Y-68125163D01*
X76730276Y-68125163D02*
X76730276Y-68077544D01*
X77063609Y-67291830D02*
X77063609Y-67529925D01*
X77063609Y-67529925D02*
X76563609Y-67529925D01*
X76801704Y-67125163D02*
X76801704Y-66958496D01*
X77063609Y-66887068D02*
X77063609Y-67125163D01*
X77063609Y-67125163D02*
X76563609Y-67125163D01*
X76563609Y-67125163D02*
X76563609Y-66887068D01*
X77063609Y-66672782D02*
X76563609Y-66672782D01*
X76563609Y-66672782D02*
X76563609Y-66553734D01*
X76563609Y-66553734D02*
X76587419Y-66482306D01*
X76587419Y-66482306D02*
X76635038Y-66434687D01*
X76635038Y-66434687D02*
X76682657Y-66410877D01*
X76682657Y-66410877D02*
X76777895Y-66387068D01*
X76777895Y-66387068D02*
X76849323Y-66387068D01*
X76849323Y-66387068D02*
X76944561Y-66410877D01*
X76944561Y-66410877D02*
X76992180Y-66434687D01*
X76992180Y-66434687D02*
X77039800Y-66482306D01*
X77039800Y-66482306D02*
X77063609Y-66553734D01*
X77063609Y-66553734D02*
X77063609Y-66672782D01*
X59914836Y-79033665D02*
X59914836Y-78533665D01*
X59914836Y-78533665D02*
X60105312Y-78533665D01*
X60105312Y-78533665D02*
X60152931Y-78557475D01*
X60152931Y-78557475D02*
X60176741Y-78581284D01*
X60176741Y-78581284D02*
X60200550Y-78628903D01*
X60200550Y-78628903D02*
X60200550Y-78700332D01*
X60200550Y-78700332D02*
X60176741Y-78747951D01*
X60176741Y-78747951D02*
X60152931Y-78771760D01*
X60152931Y-78771760D02*
X60105312Y-78795570D01*
X60105312Y-78795570D02*
X59914836Y-78795570D01*
X60367217Y-78533665D02*
X60486265Y-79033665D01*
X60486265Y-79033665D02*
X60581503Y-78676522D01*
X60581503Y-78676522D02*
X60676741Y-79033665D01*
X60676741Y-79033665D02*
X60795789Y-78533665D01*
X60986265Y-79033665D02*
X60986265Y-78533665D01*
X60986265Y-78533665D02*
X61152932Y-78890808D01*
X61152932Y-78890808D02*
X61319598Y-78533665D01*
X61319598Y-78533665D02*
X61319598Y-79033665D01*
X61557694Y-78843189D02*
X61938647Y-78843189D01*
X62176742Y-79033665D02*
X62176742Y-78533665D01*
X62176742Y-78724141D02*
X62224361Y-78700332D01*
X62224361Y-78700332D02*
X62319599Y-78700332D01*
X62319599Y-78700332D02*
X62367218Y-78724141D01*
X62367218Y-78724141D02*
X62391028Y-78747951D01*
X62391028Y-78747951D02*
X62414837Y-78795570D01*
X62414837Y-78795570D02*
X62414837Y-78938427D01*
X62414837Y-78938427D02*
X62391028Y-78986046D01*
X62391028Y-78986046D02*
X62367218Y-79009856D01*
X62367218Y-79009856D02*
X62319599Y-79033665D01*
X62319599Y-79033665D02*
X62224361Y-79033665D01*
X62224361Y-79033665D02*
X62176742Y-79009856D01*
X62700552Y-79033665D02*
X62652933Y-79009856D01*
X62652933Y-79009856D02*
X62629123Y-78986046D01*
X62629123Y-78986046D02*
X62605314Y-78938427D01*
X62605314Y-78938427D02*
X62605314Y-78795570D01*
X62605314Y-78795570D02*
X62629123Y-78747951D01*
X62629123Y-78747951D02*
X62652933Y-78724141D01*
X62652933Y-78724141D02*
X62700552Y-78700332D01*
X62700552Y-78700332D02*
X62771980Y-78700332D01*
X62771980Y-78700332D02*
X62819599Y-78724141D01*
X62819599Y-78724141D02*
X62843409Y-78747951D01*
X62843409Y-78747951D02*
X62867218Y-78795570D01*
X62867218Y-78795570D02*
X62867218Y-78938427D01*
X62867218Y-78938427D02*
X62843409Y-78986046D01*
X62843409Y-78986046D02*
X62819599Y-79009856D01*
X62819599Y-79009856D02*
X62771980Y-79033665D01*
X62771980Y-79033665D02*
X62700552Y-79033665D01*
X63295790Y-79033665D02*
X63295790Y-78771760D01*
X63295790Y-78771760D02*
X63271980Y-78724141D01*
X63271980Y-78724141D02*
X63224361Y-78700332D01*
X63224361Y-78700332D02*
X63129123Y-78700332D01*
X63129123Y-78700332D02*
X63081504Y-78724141D01*
X63295790Y-79009856D02*
X63248171Y-79033665D01*
X63248171Y-79033665D02*
X63129123Y-79033665D01*
X63129123Y-79033665D02*
X63081504Y-79009856D01*
X63081504Y-79009856D02*
X63057695Y-78962236D01*
X63057695Y-78962236D02*
X63057695Y-78914617D01*
X63057695Y-78914617D02*
X63081504Y-78866998D01*
X63081504Y-78866998D02*
X63129123Y-78843189D01*
X63129123Y-78843189D02*
X63248171Y-78843189D01*
X63248171Y-78843189D02*
X63295790Y-78819379D01*
X63533885Y-79033665D02*
X63533885Y-78700332D01*
X63533885Y-78795570D02*
X63557695Y-78747951D01*
X63557695Y-78747951D02*
X63581504Y-78724141D01*
X63581504Y-78724141D02*
X63629123Y-78700332D01*
X63629123Y-78700332D02*
X63676742Y-78700332D01*
X64057695Y-79033665D02*
X64057695Y-78533665D01*
X64057695Y-79009856D02*
X64010076Y-79033665D01*
X64010076Y-79033665D02*
X63914838Y-79033665D01*
X63914838Y-79033665D02*
X63867219Y-79009856D01*
X63867219Y-79009856D02*
X63843409Y-78986046D01*
X63843409Y-78986046D02*
X63819600Y-78938427D01*
X63819600Y-78938427D02*
X63819600Y-78795570D01*
X63819600Y-78795570D02*
X63843409Y-78747951D01*
X63843409Y-78747951D02*
X63867219Y-78724141D01*
X63867219Y-78724141D02*
X63914838Y-78700332D01*
X63914838Y-78700332D02*
X64010076Y-78700332D01*
X64010076Y-78700332D02*
X64057695Y-78724141D01*
X60081503Y-79576732D02*
X60152931Y-79600542D01*
X60152931Y-79600542D02*
X60176741Y-79624351D01*
X60176741Y-79624351D02*
X60200550Y-79671970D01*
X60200550Y-79671970D02*
X60200550Y-79743399D01*
X60200550Y-79743399D02*
X60176741Y-79791018D01*
X60176741Y-79791018D02*
X60152931Y-79814828D01*
X60152931Y-79814828D02*
X60105312Y-79838637D01*
X60105312Y-79838637D02*
X59914836Y-79838637D01*
X59914836Y-79838637D02*
X59914836Y-79338637D01*
X59914836Y-79338637D02*
X60081503Y-79338637D01*
X60081503Y-79338637D02*
X60129122Y-79362447D01*
X60129122Y-79362447D02*
X60152931Y-79386256D01*
X60152931Y-79386256D02*
X60176741Y-79433875D01*
X60176741Y-79433875D02*
X60176741Y-79481494D01*
X60176741Y-79481494D02*
X60152931Y-79529113D01*
X60152931Y-79529113D02*
X60129122Y-79552923D01*
X60129122Y-79552923D02*
X60081503Y-79576732D01*
X60081503Y-79576732D02*
X59914836Y-79576732D01*
X60414836Y-79505304D02*
X60414836Y-79933875D01*
X60414836Y-79933875D02*
X60391027Y-79981494D01*
X60391027Y-79981494D02*
X60343408Y-80005304D01*
X60343408Y-80005304D02*
X60319598Y-80005304D01*
X60414836Y-79338637D02*
X60391027Y-79362447D01*
X60391027Y-79362447D02*
X60414836Y-79386256D01*
X60414836Y-79386256D02*
X60438646Y-79362447D01*
X60438646Y-79362447D02*
X60414836Y-79338637D01*
X60414836Y-79338637D02*
X60414836Y-79386256D01*
X60724360Y-79838637D02*
X60676741Y-79814828D01*
X60676741Y-79814828D02*
X60652931Y-79791018D01*
X60652931Y-79791018D02*
X60629122Y-79743399D01*
X60629122Y-79743399D02*
X60629122Y-79600542D01*
X60629122Y-79600542D02*
X60652931Y-79552923D01*
X60652931Y-79552923D02*
X60676741Y-79529113D01*
X60676741Y-79529113D02*
X60724360Y-79505304D01*
X60724360Y-79505304D02*
X60795788Y-79505304D01*
X60795788Y-79505304D02*
X60843407Y-79529113D01*
X60843407Y-79529113D02*
X60867217Y-79552923D01*
X60867217Y-79552923D02*
X60891026Y-79600542D01*
X60891026Y-79600542D02*
X60891026Y-79743399D01*
X60891026Y-79743399D02*
X60867217Y-79791018D01*
X60867217Y-79791018D02*
X60843407Y-79814828D01*
X60843407Y-79814828D02*
X60795788Y-79838637D01*
X60795788Y-79838637D02*
X60724360Y-79838637D01*
X60676741Y-79338637D02*
X60700550Y-79362447D01*
X60700550Y-79362447D02*
X60676741Y-79386256D01*
X60676741Y-79386256D02*
X60652931Y-79362447D01*
X60652931Y-79362447D02*
X60676741Y-79338637D01*
X60676741Y-79338637D02*
X60676741Y-79386256D01*
X60867217Y-79338637D02*
X60891026Y-79362447D01*
X60891026Y-79362447D02*
X60867217Y-79386256D01*
X60867217Y-79386256D02*
X60843407Y-79362447D01*
X60843407Y-79362447D02*
X60867217Y-79338637D01*
X60867217Y-79338637D02*
X60867217Y-79386256D01*
X61105312Y-79838637D02*
X61105312Y-79505304D01*
X61105312Y-79600542D02*
X61129122Y-79552923D01*
X61129122Y-79552923D02*
X61152931Y-79529113D01*
X61152931Y-79529113D02*
X61200550Y-79505304D01*
X61200550Y-79505304D02*
X61248169Y-79505304D01*
X61414836Y-79505304D02*
X61414836Y-79838637D01*
X61414836Y-79552923D02*
X61438646Y-79529113D01*
X61438646Y-79529113D02*
X61486265Y-79505304D01*
X61486265Y-79505304D02*
X61557693Y-79505304D01*
X61557693Y-79505304D02*
X61605312Y-79529113D01*
X61605312Y-79529113D02*
X61629122Y-79576732D01*
X61629122Y-79576732D02*
X61629122Y-79838637D01*
X62176741Y-79338637D02*
X62462455Y-79338637D01*
X62319598Y-79838637D02*
X62319598Y-79338637D01*
X62629121Y-79838637D02*
X62629121Y-79338637D01*
X62843407Y-79838637D02*
X62843407Y-79576732D01*
X62843407Y-79576732D02*
X62819597Y-79529113D01*
X62819597Y-79529113D02*
X62771978Y-79505304D01*
X62771978Y-79505304D02*
X62700550Y-79505304D01*
X62700550Y-79505304D02*
X62652931Y-79529113D01*
X62652931Y-79529113D02*
X62629121Y-79552923D01*
X63152931Y-79838637D02*
X63105312Y-79814828D01*
X63105312Y-79814828D02*
X63081502Y-79791018D01*
X63081502Y-79791018D02*
X63057693Y-79743399D01*
X63057693Y-79743399D02*
X63057693Y-79600542D01*
X63057693Y-79600542D02*
X63081502Y-79552923D01*
X63081502Y-79552923D02*
X63105312Y-79529113D01*
X63105312Y-79529113D02*
X63152931Y-79505304D01*
X63152931Y-79505304D02*
X63224359Y-79505304D01*
X63224359Y-79505304D02*
X63271978Y-79529113D01*
X63271978Y-79529113D02*
X63295788Y-79552923D01*
X63295788Y-79552923D02*
X63319597Y-79600542D01*
X63319597Y-79600542D02*
X63319597Y-79743399D01*
X63319597Y-79743399D02*
X63295788Y-79791018D01*
X63295788Y-79791018D02*
X63271978Y-79814828D01*
X63271978Y-79814828D02*
X63224359Y-79838637D01*
X63224359Y-79838637D02*
X63152931Y-79838637D01*
X63533883Y-79838637D02*
X63533883Y-79505304D01*
X63533883Y-79600542D02*
X63557693Y-79552923D01*
X63557693Y-79552923D02*
X63581502Y-79529113D01*
X63581502Y-79529113D02*
X63629121Y-79505304D01*
X63629121Y-79505304D02*
X63676740Y-79505304D01*
X60057693Y-80834085D02*
X60033884Y-80810276D01*
X60033884Y-80810276D02*
X59986265Y-80738847D01*
X59986265Y-80738847D02*
X59962455Y-80691228D01*
X59962455Y-80691228D02*
X59938646Y-80619800D01*
X59938646Y-80619800D02*
X59914836Y-80500752D01*
X59914836Y-80500752D02*
X59914836Y-80405514D01*
X59914836Y-80405514D02*
X59938646Y-80286466D01*
X59938646Y-80286466D02*
X59962455Y-80215038D01*
X59962455Y-80215038D02*
X59986265Y-80167419D01*
X59986265Y-80167419D02*
X60033884Y-80095990D01*
X60033884Y-80095990D02*
X60057693Y-80072180D01*
X60462455Y-80619800D02*
X60414836Y-80643609D01*
X60414836Y-80643609D02*
X60319598Y-80643609D01*
X60319598Y-80643609D02*
X60271979Y-80619800D01*
X60271979Y-80619800D02*
X60248169Y-80595990D01*
X60248169Y-80595990D02*
X60224360Y-80548371D01*
X60224360Y-80548371D02*
X60224360Y-80405514D01*
X60224360Y-80405514D02*
X60248169Y-80357895D01*
X60248169Y-80357895D02*
X60271979Y-80334085D01*
X60271979Y-80334085D02*
X60319598Y-80310276D01*
X60319598Y-80310276D02*
X60414836Y-80310276D01*
X60414836Y-80310276D02*
X60462455Y-80334085D01*
X60629121Y-80834085D02*
X60652931Y-80810276D01*
X60652931Y-80810276D02*
X60700550Y-80738847D01*
X60700550Y-80738847D02*
X60724359Y-80691228D01*
X60724359Y-80691228D02*
X60748169Y-80619800D01*
X60748169Y-80619800D02*
X60771978Y-80500752D01*
X60771978Y-80500752D02*
X60771978Y-80405514D01*
X60771978Y-80405514D02*
X60748169Y-80286466D01*
X60748169Y-80286466D02*
X60724359Y-80215038D01*
X60724359Y-80215038D02*
X60700550Y-80167419D01*
X60700550Y-80167419D02*
X60652931Y-80095990D01*
X60652931Y-80095990D02*
X60629121Y-80072180D01*
X61367216Y-80191228D02*
X61391025Y-80167419D01*
X61391025Y-80167419D02*
X61438644Y-80143609D01*
X61438644Y-80143609D02*
X61557692Y-80143609D01*
X61557692Y-80143609D02*
X61605311Y-80167419D01*
X61605311Y-80167419D02*
X61629120Y-80191228D01*
X61629120Y-80191228D02*
X61652930Y-80238847D01*
X61652930Y-80238847D02*
X61652930Y-80286466D01*
X61652930Y-80286466D02*
X61629120Y-80357895D01*
X61629120Y-80357895D02*
X61343406Y-80643609D01*
X61343406Y-80643609D02*
X61652930Y-80643609D01*
X61962453Y-80143609D02*
X62010072Y-80143609D01*
X62010072Y-80143609D02*
X62057691Y-80167419D01*
X62057691Y-80167419D02*
X62081501Y-80191228D01*
X62081501Y-80191228D02*
X62105310Y-80238847D01*
X62105310Y-80238847D02*
X62129120Y-80334085D01*
X62129120Y-80334085D02*
X62129120Y-80453133D01*
X62129120Y-80453133D02*
X62105310Y-80548371D01*
X62105310Y-80548371D02*
X62081501Y-80595990D01*
X62081501Y-80595990D02*
X62057691Y-80619800D01*
X62057691Y-80619800D02*
X62010072Y-80643609D01*
X62010072Y-80643609D02*
X61962453Y-80643609D01*
X61962453Y-80643609D02*
X61914834Y-80619800D01*
X61914834Y-80619800D02*
X61891025Y-80595990D01*
X61891025Y-80595990D02*
X61867215Y-80548371D01*
X61867215Y-80548371D02*
X61843406Y-80453133D01*
X61843406Y-80453133D02*
X61843406Y-80334085D01*
X61843406Y-80334085D02*
X61867215Y-80238847D01*
X61867215Y-80238847D02*
X61891025Y-80191228D01*
X61891025Y-80191228D02*
X61914834Y-80167419D01*
X61914834Y-80167419D02*
X61962453Y-80143609D01*
X62319596Y-80191228D02*
X62343405Y-80167419D01*
X62343405Y-80167419D02*
X62391024Y-80143609D01*
X62391024Y-80143609D02*
X62510072Y-80143609D01*
X62510072Y-80143609D02*
X62557691Y-80167419D01*
X62557691Y-80167419D02*
X62581500Y-80191228D01*
X62581500Y-80191228D02*
X62605310Y-80238847D01*
X62605310Y-80238847D02*
X62605310Y-80286466D01*
X62605310Y-80286466D02*
X62581500Y-80357895D01*
X62581500Y-80357895D02*
X62295786Y-80643609D01*
X62295786Y-80643609D02*
X62605310Y-80643609D01*
X63057690Y-80143609D02*
X62819595Y-80143609D01*
X62819595Y-80143609D02*
X62795786Y-80381704D01*
X62795786Y-80381704D02*
X62819595Y-80357895D01*
X62819595Y-80357895D02*
X62867214Y-80334085D01*
X62867214Y-80334085D02*
X62986262Y-80334085D01*
X62986262Y-80334085D02*
X63033881Y-80357895D01*
X63033881Y-80357895D02*
X63057690Y-80381704D01*
X63057690Y-80381704D02*
X63081500Y-80429323D01*
X63081500Y-80429323D02*
X63081500Y-80548371D01*
X63081500Y-80548371D02*
X63057690Y-80595990D01*
X63057690Y-80595990D02*
X63033881Y-80619800D01*
X63033881Y-80619800D02*
X62986262Y-80643609D01*
X62986262Y-80643609D02*
X62867214Y-80643609D01*
X62867214Y-80643609D02*
X62819595Y-80619800D01*
X62819595Y-80619800D02*
X62795786Y-80595990D01*
X38344009Y-80980550D02*
X38320200Y-80956741D01*
X38320200Y-80956741D02*
X38296390Y-80885312D01*
X38296390Y-80885312D02*
X38296390Y-80837693D01*
X38296390Y-80837693D02*
X38320200Y-80766265D01*
X38320200Y-80766265D02*
X38367819Y-80718646D01*
X38367819Y-80718646D02*
X38415438Y-80694836D01*
X38415438Y-80694836D02*
X38510676Y-80671027D01*
X38510676Y-80671027D02*
X38582104Y-80671027D01*
X38582104Y-80671027D02*
X38677342Y-80694836D01*
X38677342Y-80694836D02*
X38724961Y-80718646D01*
X38724961Y-80718646D02*
X38772580Y-80766265D01*
X38772580Y-80766265D02*
X38796390Y-80837693D01*
X38796390Y-80837693D02*
X38796390Y-80885312D01*
X38796390Y-80885312D02*
X38772580Y-80956741D01*
X38772580Y-80956741D02*
X38748771Y-80980550D01*
X38296390Y-81194836D02*
X38796390Y-81194836D01*
X38296390Y-81409122D02*
X38558295Y-81409122D01*
X38558295Y-81409122D02*
X38605914Y-81385312D01*
X38605914Y-81385312D02*
X38629723Y-81337693D01*
X38629723Y-81337693D02*
X38629723Y-81266265D01*
X38629723Y-81266265D02*
X38605914Y-81218646D01*
X38605914Y-81218646D02*
X38582104Y-81194836D01*
X38296390Y-81909122D02*
X38296390Y-81623408D01*
X38296390Y-81766265D02*
X38796390Y-81766265D01*
X38796390Y-81766265D02*
X38724961Y-81718646D01*
X38724961Y-81718646D02*
X38677342Y-81671027D01*
X38677342Y-81671027D02*
X38653533Y-81623408D01*
X38796390Y-82432931D02*
X38296390Y-82599597D01*
X38296390Y-82599597D02*
X38796390Y-82766264D01*
X38320200Y-83290073D02*
X38296390Y-83361501D01*
X38296390Y-83361501D02*
X38296390Y-83480549D01*
X38296390Y-83480549D02*
X38320200Y-83528168D01*
X38320200Y-83528168D02*
X38344009Y-83551977D01*
X38344009Y-83551977D02*
X38391628Y-83575787D01*
X38391628Y-83575787D02*
X38439247Y-83575787D01*
X38439247Y-83575787D02*
X38486866Y-83551977D01*
X38486866Y-83551977D02*
X38510676Y-83528168D01*
X38510676Y-83528168D02*
X38534485Y-83480549D01*
X38534485Y-83480549D02*
X38558295Y-83385311D01*
X38558295Y-83385311D02*
X38582104Y-83337692D01*
X38582104Y-83337692D02*
X38605914Y-83313882D01*
X38605914Y-83313882D02*
X38653533Y-83290073D01*
X38653533Y-83290073D02*
X38701152Y-83290073D01*
X38701152Y-83290073D02*
X38748771Y-83313882D01*
X38748771Y-83313882D02*
X38772580Y-83337692D01*
X38772580Y-83337692D02*
X38796390Y-83385311D01*
X38796390Y-83385311D02*
X38796390Y-83504358D01*
X38796390Y-83504358D02*
X38772580Y-83575787D01*
X38772580Y-84432929D02*
X38796390Y-84385310D01*
X38796390Y-84385310D02*
X38796390Y-84313881D01*
X38796390Y-84313881D02*
X38772580Y-84242453D01*
X38772580Y-84242453D02*
X38724961Y-84194834D01*
X38724961Y-84194834D02*
X38677342Y-84171024D01*
X38677342Y-84171024D02*
X38582104Y-84147215D01*
X38582104Y-84147215D02*
X38510676Y-84147215D01*
X38510676Y-84147215D02*
X38415438Y-84171024D01*
X38415438Y-84171024D02*
X38367819Y-84194834D01*
X38367819Y-84194834D02*
X38320200Y-84242453D01*
X38320200Y-84242453D02*
X38296390Y-84313881D01*
X38296390Y-84313881D02*
X38296390Y-84361500D01*
X38296390Y-84361500D02*
X38320200Y-84432929D01*
X38320200Y-84432929D02*
X38344009Y-84456738D01*
X38344009Y-84456738D02*
X38510676Y-84456738D01*
X38510676Y-84456738D02*
X38510676Y-84361500D01*
X38244009Y-90580550D02*
X38220200Y-90556741D01*
X38220200Y-90556741D02*
X38196390Y-90485312D01*
X38196390Y-90485312D02*
X38196390Y-90437693D01*
X38196390Y-90437693D02*
X38220200Y-90366265D01*
X38220200Y-90366265D02*
X38267819Y-90318646D01*
X38267819Y-90318646D02*
X38315438Y-90294836D01*
X38315438Y-90294836D02*
X38410676Y-90271027D01*
X38410676Y-90271027D02*
X38482104Y-90271027D01*
X38482104Y-90271027D02*
X38577342Y-90294836D01*
X38577342Y-90294836D02*
X38624961Y-90318646D01*
X38624961Y-90318646D02*
X38672580Y-90366265D01*
X38672580Y-90366265D02*
X38696390Y-90437693D01*
X38696390Y-90437693D02*
X38696390Y-90485312D01*
X38696390Y-90485312D02*
X38672580Y-90556741D01*
X38672580Y-90556741D02*
X38648771Y-90580550D01*
X38196390Y-90794836D02*
X38696390Y-90794836D01*
X38196390Y-91009122D02*
X38458295Y-91009122D01*
X38458295Y-91009122D02*
X38505914Y-90985312D01*
X38505914Y-90985312D02*
X38529723Y-90937693D01*
X38529723Y-90937693D02*
X38529723Y-90866265D01*
X38529723Y-90866265D02*
X38505914Y-90818646D01*
X38505914Y-90818646D02*
X38482104Y-90794836D01*
X38648771Y-91223408D02*
X38672580Y-91247217D01*
X38672580Y-91247217D02*
X38696390Y-91294836D01*
X38696390Y-91294836D02*
X38696390Y-91413884D01*
X38696390Y-91413884D02*
X38672580Y-91461503D01*
X38672580Y-91461503D02*
X38648771Y-91485312D01*
X38648771Y-91485312D02*
X38601152Y-91509122D01*
X38601152Y-91509122D02*
X38553533Y-91509122D01*
X38553533Y-91509122D02*
X38482104Y-91485312D01*
X38482104Y-91485312D02*
X38196390Y-91199598D01*
X38196390Y-91199598D02*
X38196390Y-91509122D01*
X38696390Y-92032931D02*
X38196390Y-92199597D01*
X38196390Y-92199597D02*
X38696390Y-92366264D01*
X38220200Y-92890073D02*
X38196390Y-92961501D01*
X38196390Y-92961501D02*
X38196390Y-93080549D01*
X38196390Y-93080549D02*
X38220200Y-93128168D01*
X38220200Y-93128168D02*
X38244009Y-93151977D01*
X38244009Y-93151977D02*
X38291628Y-93175787D01*
X38291628Y-93175787D02*
X38339247Y-93175787D01*
X38339247Y-93175787D02*
X38386866Y-93151977D01*
X38386866Y-93151977D02*
X38410676Y-93128168D01*
X38410676Y-93128168D02*
X38434485Y-93080549D01*
X38434485Y-93080549D02*
X38458295Y-92985311D01*
X38458295Y-92985311D02*
X38482104Y-92937692D01*
X38482104Y-92937692D02*
X38505914Y-92913882D01*
X38505914Y-92913882D02*
X38553533Y-92890073D01*
X38553533Y-92890073D02*
X38601152Y-92890073D01*
X38601152Y-92890073D02*
X38648771Y-92913882D01*
X38648771Y-92913882D02*
X38672580Y-92937692D01*
X38672580Y-92937692D02*
X38696390Y-92985311D01*
X38696390Y-92985311D02*
X38696390Y-93104358D01*
X38696390Y-93104358D02*
X38672580Y-93175787D01*
X38672580Y-94032929D02*
X38696390Y-93985310D01*
X38696390Y-93985310D02*
X38696390Y-93913881D01*
X38696390Y-93913881D02*
X38672580Y-93842453D01*
X38672580Y-93842453D02*
X38624961Y-93794834D01*
X38624961Y-93794834D02*
X38577342Y-93771024D01*
X38577342Y-93771024D02*
X38482104Y-93747215D01*
X38482104Y-93747215D02*
X38410676Y-93747215D01*
X38410676Y-93747215D02*
X38315438Y-93771024D01*
X38315438Y-93771024D02*
X38267819Y-93794834D01*
X38267819Y-93794834D02*
X38220200Y-93842453D01*
X38220200Y-93842453D02*
X38196390Y-93913881D01*
X38196390Y-93913881D02*
X38196390Y-93961500D01*
X38196390Y-93961500D02*
X38220200Y-94032929D01*
X38220200Y-94032929D02*
X38244009Y-94056738D01*
X38244009Y-94056738D02*
X38410676Y-94056738D01*
X38410676Y-94056738D02*
X38410676Y-93961500D01*
X77439247Y-83671027D02*
X77439247Y-83909122D01*
X77296390Y-83623408D02*
X77796390Y-83790074D01*
X77796390Y-83790074D02*
X77296390Y-83956741D01*
X77296390Y-84123407D02*
X77796390Y-84123407D01*
X77748771Y-84337693D02*
X77772580Y-84361502D01*
X77772580Y-84361502D02*
X77796390Y-84409121D01*
X77796390Y-84409121D02*
X77796390Y-84528169D01*
X77796390Y-84528169D02*
X77772580Y-84575788D01*
X77772580Y-84575788D02*
X77748771Y-84599597D01*
X77748771Y-84599597D02*
X77701152Y-84623407D01*
X77701152Y-84623407D02*
X77653533Y-84623407D01*
X77653533Y-84623407D02*
X77582104Y-84599597D01*
X77582104Y-84599597D02*
X77296390Y-84313883D01*
X77296390Y-84313883D02*
X77296390Y-84623407D01*
X77796390Y-85147216D02*
X77296390Y-85313882D01*
X77296390Y-85313882D02*
X77796390Y-85480549D01*
X77320200Y-86004358D02*
X77296390Y-86075786D01*
X77296390Y-86075786D02*
X77296390Y-86194834D01*
X77296390Y-86194834D02*
X77320200Y-86242453D01*
X77320200Y-86242453D02*
X77344009Y-86266262D01*
X77344009Y-86266262D02*
X77391628Y-86290072D01*
X77391628Y-86290072D02*
X77439247Y-86290072D01*
X77439247Y-86290072D02*
X77486866Y-86266262D01*
X77486866Y-86266262D02*
X77510676Y-86242453D01*
X77510676Y-86242453D02*
X77534485Y-86194834D01*
X77534485Y-86194834D02*
X77558295Y-86099596D01*
X77558295Y-86099596D02*
X77582104Y-86051977D01*
X77582104Y-86051977D02*
X77605914Y-86028167D01*
X77605914Y-86028167D02*
X77653533Y-86004358D01*
X77653533Y-86004358D02*
X77701152Y-86004358D01*
X77701152Y-86004358D02*
X77748771Y-86028167D01*
X77748771Y-86028167D02*
X77772580Y-86051977D01*
X77772580Y-86051977D02*
X77796390Y-86099596D01*
X77796390Y-86099596D02*
X77796390Y-86218643D01*
X77796390Y-86218643D02*
X77772580Y-86290072D01*
X77772580Y-87147214D02*
X77796390Y-87099595D01*
X77796390Y-87099595D02*
X77796390Y-87028166D01*
X77796390Y-87028166D02*
X77772580Y-86956738D01*
X77772580Y-86956738D02*
X77724961Y-86909119D01*
X77724961Y-86909119D02*
X77677342Y-86885309D01*
X77677342Y-86885309D02*
X77582104Y-86861500D01*
X77582104Y-86861500D02*
X77510676Y-86861500D01*
X77510676Y-86861500D02*
X77415438Y-86885309D01*
X77415438Y-86885309D02*
X77367819Y-86909119D01*
X77367819Y-86909119D02*
X77320200Y-86956738D01*
X77320200Y-86956738D02*
X77296390Y-87028166D01*
X77296390Y-87028166D02*
X77296390Y-87075785D01*
X77296390Y-87075785D02*
X77320200Y-87147214D01*
X77320200Y-87147214D02*
X77344009Y-87171023D01*
X77344009Y-87171023D02*
X77510676Y-87171023D01*
X77510676Y-87171023D02*
X77510676Y-87075785D01*
X77296390Y-92494836D02*
X77796390Y-92494836D01*
X77796390Y-92494836D02*
X77796390Y-92613884D01*
X77796390Y-92613884D02*
X77772580Y-92685312D01*
X77772580Y-92685312D02*
X77724961Y-92732931D01*
X77724961Y-92732931D02*
X77677342Y-92756741D01*
X77677342Y-92756741D02*
X77582104Y-92780550D01*
X77582104Y-92780550D02*
X77510676Y-92780550D01*
X77510676Y-92780550D02*
X77415438Y-92756741D01*
X77415438Y-92756741D02*
X77367819Y-92732931D01*
X77367819Y-92732931D02*
X77320200Y-92685312D01*
X77320200Y-92685312D02*
X77296390Y-92613884D01*
X77296390Y-92613884D02*
X77296390Y-92494836D01*
X77296390Y-92947217D02*
X77629723Y-93209122D01*
X77629723Y-92947217D02*
X77296390Y-93209122D01*
X77320200Y-93756741D02*
X77296390Y-93828169D01*
X77296390Y-93828169D02*
X77296390Y-93947217D01*
X77296390Y-93947217D02*
X77320200Y-93994836D01*
X77320200Y-93994836D02*
X77344009Y-94018645D01*
X77344009Y-94018645D02*
X77391628Y-94042455D01*
X77391628Y-94042455D02*
X77439247Y-94042455D01*
X77439247Y-94042455D02*
X77486866Y-94018645D01*
X77486866Y-94018645D02*
X77510676Y-93994836D01*
X77510676Y-93994836D02*
X77534485Y-93947217D01*
X77534485Y-93947217D02*
X77558295Y-93851979D01*
X77558295Y-93851979D02*
X77582104Y-93804360D01*
X77582104Y-93804360D02*
X77605914Y-93780550D01*
X77605914Y-93780550D02*
X77653533Y-93756741D01*
X77653533Y-93756741D02*
X77701152Y-93756741D01*
X77701152Y-93756741D02*
X77748771Y-93780550D01*
X77748771Y-93780550D02*
X77772580Y-93804360D01*
X77772580Y-93804360D02*
X77796390Y-93851979D01*
X77796390Y-93851979D02*
X77796390Y-93971026D01*
X77796390Y-93971026D02*
X77772580Y-94042455D01*
X77772580Y-94899597D02*
X77796390Y-94851978D01*
X77796390Y-94851978D02*
X77796390Y-94780549D01*
X77796390Y-94780549D02*
X77772580Y-94709121D01*
X77772580Y-94709121D02*
X77724961Y-94661502D01*
X77724961Y-94661502D02*
X77677342Y-94637692D01*
X77677342Y-94637692D02*
X77582104Y-94613883D01*
X77582104Y-94613883D02*
X77510676Y-94613883D01*
X77510676Y-94613883D02*
X77415438Y-94637692D01*
X77415438Y-94637692D02*
X77367819Y-94661502D01*
X77367819Y-94661502D02*
X77320200Y-94709121D01*
X77320200Y-94709121D02*
X77296390Y-94780549D01*
X77296390Y-94780549D02*
X77296390Y-94828168D01*
X77296390Y-94828168D02*
X77320200Y-94899597D01*
X77320200Y-94899597D02*
X77344009Y-94923406D01*
X77344009Y-94923406D02*
X77510676Y-94923406D01*
X77510676Y-94923406D02*
X77510676Y-94828168D01*
D11*
X53688333Y-63839580D02*
X53640714Y-63887200D01*
X53640714Y-63887200D02*
X53497857Y-63934819D01*
X53497857Y-63934819D02*
X53402619Y-63934819D01*
X53402619Y-63934819D02*
X53259762Y-63887200D01*
X53259762Y-63887200D02*
X53164524Y-63791961D01*
X53164524Y-63791961D02*
X53116905Y-63696723D01*
X53116905Y-63696723D02*
X53069286Y-63506247D01*
X53069286Y-63506247D02*
X53069286Y-63363390D01*
X53069286Y-63363390D02*
X53116905Y-63172914D01*
X53116905Y-63172914D02*
X53164524Y-63077676D01*
X53164524Y-63077676D02*
X53259762Y-62982438D01*
X53259762Y-62982438D02*
X53402619Y-62934819D01*
X53402619Y-62934819D02*
X53497857Y-62934819D01*
X53497857Y-62934819D02*
X53640714Y-62982438D01*
X53640714Y-62982438D02*
X53688333Y-63030057D01*
X54593095Y-62934819D02*
X54116905Y-62934819D01*
X54116905Y-62934819D02*
X54069286Y-63411009D01*
X54069286Y-63411009D02*
X54116905Y-63363390D01*
X54116905Y-63363390D02*
X54212143Y-63315771D01*
X54212143Y-63315771D02*
X54450238Y-63315771D01*
X54450238Y-63315771D02*
X54545476Y-63363390D01*
X54545476Y-63363390D02*
X54593095Y-63411009D01*
X54593095Y-63411009D02*
X54640714Y-63506247D01*
X54640714Y-63506247D02*
X54640714Y-63744342D01*
X54640714Y-63744342D02*
X54593095Y-63839580D01*
X54593095Y-63839580D02*
X54545476Y-63887200D01*
X54545476Y-63887200D02*
X54450238Y-63934819D01*
X54450238Y-63934819D02*
X54212143Y-63934819D01*
X54212143Y-63934819D02*
X54116905Y-63887200D01*
X54116905Y-63887200D02*
X54069286Y-63839580D01*
X45891905Y-98064819D02*
X45891905Y-97064819D01*
X45891905Y-97064819D02*
X46130000Y-97064819D01*
X46130000Y-97064819D02*
X46272857Y-97112438D01*
X46272857Y-97112438D02*
X46368095Y-97207676D01*
X46368095Y-97207676D02*
X46415714Y-97302914D01*
X46415714Y-97302914D02*
X46463333Y-97493390D01*
X46463333Y-97493390D02*
X46463333Y-97636247D01*
X46463333Y-97636247D02*
X46415714Y-97826723D01*
X46415714Y-97826723D02*
X46368095Y-97921961D01*
X46368095Y-97921961D02*
X46272857Y-98017200D01*
X46272857Y-98017200D02*
X46130000Y-98064819D01*
X46130000Y-98064819D02*
X45891905Y-98064819D01*
X47320476Y-97064819D02*
X47130000Y-97064819D01*
X47130000Y-97064819D02*
X47034762Y-97112438D01*
X47034762Y-97112438D02*
X46987143Y-97160057D01*
X46987143Y-97160057D02*
X46891905Y-97302914D01*
X46891905Y-97302914D02*
X46844286Y-97493390D01*
X46844286Y-97493390D02*
X46844286Y-97874342D01*
X46844286Y-97874342D02*
X46891905Y-97969580D01*
X46891905Y-97969580D02*
X46939524Y-98017200D01*
X46939524Y-98017200D02*
X47034762Y-98064819D01*
X47034762Y-98064819D02*
X47225238Y-98064819D01*
X47225238Y-98064819D02*
X47320476Y-98017200D01*
X47320476Y-98017200D02*
X47368095Y-97969580D01*
X47368095Y-97969580D02*
X47415714Y-97874342D01*
X47415714Y-97874342D02*
X47415714Y-97636247D01*
X47415714Y-97636247D02*
X47368095Y-97541009D01*
X47368095Y-97541009D02*
X47320476Y-97493390D01*
X47320476Y-97493390D02*
X47225238Y-97445771D01*
X47225238Y-97445771D02*
X47034762Y-97445771D01*
X47034762Y-97445771D02*
X46939524Y-97493390D01*
X46939524Y-97493390D02*
X46891905Y-97541009D01*
X46891905Y-97541009D02*
X46844286Y-97636247D01*
X72596666Y-83599819D02*
X72596666Y-84314104D01*
X72596666Y-84314104D02*
X72549047Y-84456961D01*
X72549047Y-84456961D02*
X72453809Y-84552200D01*
X72453809Y-84552200D02*
X72310952Y-84599819D01*
X72310952Y-84599819D02*
X72215714Y-84599819D01*
X73549047Y-83599819D02*
X73072857Y-83599819D01*
X73072857Y-83599819D02*
X73025238Y-84076009D01*
X73025238Y-84076009D02*
X73072857Y-84028390D01*
X73072857Y-84028390D02*
X73168095Y-83980771D01*
X73168095Y-83980771D02*
X73406190Y-83980771D01*
X73406190Y-83980771D02*
X73501428Y-84028390D01*
X73501428Y-84028390D02*
X73549047Y-84076009D01*
X73549047Y-84076009D02*
X73596666Y-84171247D01*
X73596666Y-84171247D02*
X73596666Y-84409342D01*
X73596666Y-84409342D02*
X73549047Y-84504580D01*
X73549047Y-84504580D02*
X73501428Y-84552200D01*
X73501428Y-84552200D02*
X73406190Y-84599819D01*
X73406190Y-84599819D02*
X73168095Y-84599819D01*
X73168095Y-84599819D02*
X73072857Y-84552200D01*
X73072857Y-84552200D02*
X73025238Y-84504580D01*
X74684819Y-66748094D02*
X73684819Y-66748094D01*
X73684819Y-66748094D02*
X73684819Y-66509999D01*
X73684819Y-66509999D02*
X73732438Y-66367142D01*
X73732438Y-66367142D02*
X73827676Y-66271904D01*
X73827676Y-66271904D02*
X73922914Y-66224285D01*
X73922914Y-66224285D02*
X74113390Y-66176666D01*
X74113390Y-66176666D02*
X74256247Y-66176666D01*
X74256247Y-66176666D02*
X74446723Y-66224285D01*
X74446723Y-66224285D02*
X74541961Y-66271904D01*
X74541961Y-66271904D02*
X74637200Y-66367142D01*
X74637200Y-66367142D02*
X74684819Y-66509999D01*
X74684819Y-66509999D02*
X74684819Y-66748094D01*
X74018152Y-65319523D02*
X74684819Y-65319523D01*
X73637200Y-65557618D02*
X74351485Y-65795713D01*
X74351485Y-65795713D02*
X74351485Y-65176666D01*
X74684819Y-71176666D02*
X74208628Y-71509999D01*
X74684819Y-71748094D02*
X73684819Y-71748094D01*
X73684819Y-71748094D02*
X73684819Y-71367142D01*
X73684819Y-71367142D02*
X73732438Y-71271904D01*
X73732438Y-71271904D02*
X73780057Y-71224285D01*
X73780057Y-71224285D02*
X73875295Y-71176666D01*
X73875295Y-71176666D02*
X74018152Y-71176666D01*
X74018152Y-71176666D02*
X74113390Y-71224285D01*
X74113390Y-71224285D02*
X74161009Y-71271904D01*
X74161009Y-71271904D02*
X74208628Y-71367142D01*
X74208628Y-71367142D02*
X74208628Y-71748094D01*
X73684819Y-70843332D02*
X73684819Y-70176666D01*
X73684819Y-70176666D02*
X74684819Y-70605237D01*
X52563333Y-78164819D02*
X52230000Y-77688628D01*
X51991905Y-78164819D02*
X51991905Y-77164819D01*
X51991905Y-77164819D02*
X52372857Y-77164819D01*
X52372857Y-77164819D02*
X52468095Y-77212438D01*
X52468095Y-77212438D02*
X52515714Y-77260057D01*
X52515714Y-77260057D02*
X52563333Y-77355295D01*
X52563333Y-77355295D02*
X52563333Y-77498152D01*
X52563333Y-77498152D02*
X52515714Y-77593390D01*
X52515714Y-77593390D02*
X52468095Y-77641009D01*
X52468095Y-77641009D02*
X52372857Y-77688628D01*
X52372857Y-77688628D02*
X51991905Y-77688628D01*
X53420476Y-77164819D02*
X53230000Y-77164819D01*
X53230000Y-77164819D02*
X53134762Y-77212438D01*
X53134762Y-77212438D02*
X53087143Y-77260057D01*
X53087143Y-77260057D02*
X52991905Y-77402914D01*
X52991905Y-77402914D02*
X52944286Y-77593390D01*
X52944286Y-77593390D02*
X52944286Y-77974342D01*
X52944286Y-77974342D02*
X52991905Y-78069580D01*
X52991905Y-78069580D02*
X53039524Y-78117200D01*
X53039524Y-78117200D02*
X53134762Y-78164819D01*
X53134762Y-78164819D02*
X53325238Y-78164819D01*
X53325238Y-78164819D02*
X53420476Y-78117200D01*
X53420476Y-78117200D02*
X53468095Y-78069580D01*
X53468095Y-78069580D02*
X53515714Y-77974342D01*
X53515714Y-77974342D02*
X53515714Y-77736247D01*
X53515714Y-77736247D02*
X53468095Y-77641009D01*
X53468095Y-77641009D02*
X53420476Y-77593390D01*
X53420476Y-77593390D02*
X53325238Y-77545771D01*
X53325238Y-77545771D02*
X53134762Y-77545771D01*
X53134762Y-77545771D02*
X53039524Y-77593390D01*
X53039524Y-77593390D02*
X52991905Y-77641009D01*
X52991905Y-77641009D02*
X52944286Y-77736247D01*
X49291905Y-87664819D02*
X49291905Y-86664819D01*
X49291905Y-86664819D02*
X49530000Y-86664819D01*
X49530000Y-86664819D02*
X49672857Y-86712438D01*
X49672857Y-86712438D02*
X49768095Y-86807676D01*
X49768095Y-86807676D02*
X49815714Y-86902914D01*
X49815714Y-86902914D02*
X49863333Y-87093390D01*
X49863333Y-87093390D02*
X49863333Y-87236247D01*
X49863333Y-87236247D02*
X49815714Y-87426723D01*
X49815714Y-87426723D02*
X49768095Y-87521961D01*
X49768095Y-87521961D02*
X49672857Y-87617200D01*
X49672857Y-87617200D02*
X49530000Y-87664819D01*
X49530000Y-87664819D02*
X49291905Y-87664819D01*
X50244286Y-86760057D02*
X50291905Y-86712438D01*
X50291905Y-86712438D02*
X50387143Y-86664819D01*
X50387143Y-86664819D02*
X50625238Y-86664819D01*
X50625238Y-86664819D02*
X50720476Y-86712438D01*
X50720476Y-86712438D02*
X50768095Y-86760057D01*
X50768095Y-86760057D02*
X50815714Y-86855295D01*
X50815714Y-86855295D02*
X50815714Y-86950533D01*
X50815714Y-86950533D02*
X50768095Y-87093390D01*
X50768095Y-87093390D02*
X50196667Y-87664819D01*
X50196667Y-87664819D02*
X50815714Y-87664819D01*
X68087142Y-87369580D02*
X68039523Y-87417200D01*
X68039523Y-87417200D02*
X67896666Y-87464819D01*
X67896666Y-87464819D02*
X67801428Y-87464819D01*
X67801428Y-87464819D02*
X67658571Y-87417200D01*
X67658571Y-87417200D02*
X67563333Y-87321961D01*
X67563333Y-87321961D02*
X67515714Y-87226723D01*
X67515714Y-87226723D02*
X67468095Y-87036247D01*
X67468095Y-87036247D02*
X67468095Y-86893390D01*
X67468095Y-86893390D02*
X67515714Y-86702914D01*
X67515714Y-86702914D02*
X67563333Y-86607676D01*
X67563333Y-86607676D02*
X67658571Y-86512438D01*
X67658571Y-86512438D02*
X67801428Y-86464819D01*
X67801428Y-86464819D02*
X67896666Y-86464819D01*
X67896666Y-86464819D02*
X68039523Y-86512438D01*
X68039523Y-86512438D02*
X68087142Y-86560057D01*
X69039523Y-87464819D02*
X68468095Y-87464819D01*
X68753809Y-87464819D02*
X68753809Y-86464819D01*
X68753809Y-86464819D02*
X68658571Y-86607676D01*
X68658571Y-86607676D02*
X68563333Y-86702914D01*
X68563333Y-86702914D02*
X68468095Y-86750533D01*
X69658571Y-86464819D02*
X69753809Y-86464819D01*
X69753809Y-86464819D02*
X69849047Y-86512438D01*
X69849047Y-86512438D02*
X69896666Y-86560057D01*
X69896666Y-86560057D02*
X69944285Y-86655295D01*
X69944285Y-86655295D02*
X69991904Y-86845771D01*
X69991904Y-86845771D02*
X69991904Y-87083866D01*
X69991904Y-87083866D02*
X69944285Y-87274342D01*
X69944285Y-87274342D02*
X69896666Y-87369580D01*
X69896666Y-87369580D02*
X69849047Y-87417200D01*
X69849047Y-87417200D02*
X69753809Y-87464819D01*
X69753809Y-87464819D02*
X69658571Y-87464819D01*
X69658571Y-87464819D02*
X69563333Y-87417200D01*
X69563333Y-87417200D02*
X69515714Y-87369580D01*
X69515714Y-87369580D02*
X69468095Y-87274342D01*
X69468095Y-87274342D02*
X69420476Y-87083866D01*
X69420476Y-87083866D02*
X69420476Y-86845771D01*
X69420476Y-86845771D02*
X69468095Y-86655295D01*
X69468095Y-86655295D02*
X69515714Y-86560057D01*
X69515714Y-86560057D02*
X69563333Y-86512438D01*
X69563333Y-86512438D02*
X69658571Y-86464819D01*
X68187142Y-85864819D02*
X67853809Y-85388628D01*
X67615714Y-85864819D02*
X67615714Y-84864819D01*
X67615714Y-84864819D02*
X67996666Y-84864819D01*
X67996666Y-84864819D02*
X68091904Y-84912438D01*
X68091904Y-84912438D02*
X68139523Y-84960057D01*
X68139523Y-84960057D02*
X68187142Y-85055295D01*
X68187142Y-85055295D02*
X68187142Y-85198152D01*
X68187142Y-85198152D02*
X68139523Y-85293390D01*
X68139523Y-85293390D02*
X68091904Y-85341009D01*
X68091904Y-85341009D02*
X67996666Y-85388628D01*
X67996666Y-85388628D02*
X67615714Y-85388628D01*
X69139523Y-85864819D02*
X68568095Y-85864819D01*
X68853809Y-85864819D02*
X68853809Y-84864819D01*
X68853809Y-84864819D02*
X68758571Y-85007676D01*
X68758571Y-85007676D02*
X68663333Y-85102914D01*
X68663333Y-85102914D02*
X68568095Y-85150533D01*
X70091904Y-85864819D02*
X69520476Y-85864819D01*
X69806190Y-85864819D02*
X69806190Y-84864819D01*
X69806190Y-84864819D02*
X69710952Y-85007676D01*
X69710952Y-85007676D02*
X69615714Y-85102914D01*
X69615714Y-85102914D02*
X69520476Y-85150533D01*
X67589580Y-99352857D02*
X67637200Y-99400476D01*
X67637200Y-99400476D02*
X67684819Y-99543333D01*
X67684819Y-99543333D02*
X67684819Y-99638571D01*
X67684819Y-99638571D02*
X67637200Y-99781428D01*
X67637200Y-99781428D02*
X67541961Y-99876666D01*
X67541961Y-99876666D02*
X67446723Y-99924285D01*
X67446723Y-99924285D02*
X67256247Y-99971904D01*
X67256247Y-99971904D02*
X67113390Y-99971904D01*
X67113390Y-99971904D02*
X66922914Y-99924285D01*
X66922914Y-99924285D02*
X66827676Y-99876666D01*
X66827676Y-99876666D02*
X66732438Y-99781428D01*
X66732438Y-99781428D02*
X66684819Y-99638571D01*
X66684819Y-99638571D02*
X66684819Y-99543333D01*
X66684819Y-99543333D02*
X66732438Y-99400476D01*
X66732438Y-99400476D02*
X66780057Y-99352857D01*
X67684819Y-98400476D02*
X67684819Y-98971904D01*
X67684819Y-98686190D02*
X66684819Y-98686190D01*
X66684819Y-98686190D02*
X66827676Y-98781428D01*
X66827676Y-98781428D02*
X66922914Y-98876666D01*
X66922914Y-98876666D02*
X66970533Y-98971904D01*
X67684819Y-97448095D02*
X67684819Y-98019523D01*
X67684819Y-97733809D02*
X66684819Y-97733809D01*
X66684819Y-97733809D02*
X66827676Y-97829047D01*
X66827676Y-97829047D02*
X66922914Y-97924285D01*
X66922914Y-97924285D02*
X66970533Y-98019523D01*
X40296666Y-77164819D02*
X40296666Y-77879104D01*
X40296666Y-77879104D02*
X40249047Y-78021961D01*
X40249047Y-78021961D02*
X40153809Y-78117200D01*
X40153809Y-78117200D02*
X40010952Y-78164819D01*
X40010952Y-78164819D02*
X39915714Y-78164819D01*
X41296666Y-78164819D02*
X40725238Y-78164819D01*
X41010952Y-78164819D02*
X41010952Y-77164819D01*
X41010952Y-77164819D02*
X40915714Y-77307676D01*
X40915714Y-77307676D02*
X40820476Y-77402914D01*
X40820476Y-77402914D02*
X40725238Y-77450533D01*
X51589580Y-73476666D02*
X51637200Y-73524285D01*
X51637200Y-73524285D02*
X51684819Y-73667142D01*
X51684819Y-73667142D02*
X51684819Y-73762380D01*
X51684819Y-73762380D02*
X51637200Y-73905237D01*
X51637200Y-73905237D02*
X51541961Y-74000475D01*
X51541961Y-74000475D02*
X51446723Y-74048094D01*
X51446723Y-74048094D02*
X51256247Y-74095713D01*
X51256247Y-74095713D02*
X51113390Y-74095713D01*
X51113390Y-74095713D02*
X50922914Y-74048094D01*
X50922914Y-74048094D02*
X50827676Y-74000475D01*
X50827676Y-74000475D02*
X50732438Y-73905237D01*
X50732438Y-73905237D02*
X50684819Y-73762380D01*
X50684819Y-73762380D02*
X50684819Y-73667142D01*
X50684819Y-73667142D02*
X50732438Y-73524285D01*
X50732438Y-73524285D02*
X50780057Y-73476666D01*
X50780057Y-73095713D02*
X50732438Y-73048094D01*
X50732438Y-73048094D02*
X50684819Y-72952856D01*
X50684819Y-72952856D02*
X50684819Y-72714761D01*
X50684819Y-72714761D02*
X50732438Y-72619523D01*
X50732438Y-72619523D02*
X50780057Y-72571904D01*
X50780057Y-72571904D02*
X50875295Y-72524285D01*
X50875295Y-72524285D02*
X50970533Y-72524285D01*
X50970533Y-72524285D02*
X51113390Y-72571904D01*
X51113390Y-72571904D02*
X51684819Y-73143332D01*
X51684819Y-73143332D02*
X51684819Y-72524285D01*
X50934761Y-94660057D02*
X50839523Y-94612438D01*
X50839523Y-94612438D02*
X50744285Y-94517200D01*
X50744285Y-94517200D02*
X50601428Y-94374342D01*
X50601428Y-94374342D02*
X50506190Y-94326723D01*
X50506190Y-94326723D02*
X50410952Y-94326723D01*
X50458571Y-94564819D02*
X50363333Y-94517200D01*
X50363333Y-94517200D02*
X50268095Y-94421961D01*
X50268095Y-94421961D02*
X50220476Y-94231485D01*
X50220476Y-94231485D02*
X50220476Y-93898152D01*
X50220476Y-93898152D02*
X50268095Y-93707676D01*
X50268095Y-93707676D02*
X50363333Y-93612438D01*
X50363333Y-93612438D02*
X50458571Y-93564819D01*
X50458571Y-93564819D02*
X50649047Y-93564819D01*
X50649047Y-93564819D02*
X50744285Y-93612438D01*
X50744285Y-93612438D02*
X50839523Y-93707676D01*
X50839523Y-93707676D02*
X50887142Y-93898152D01*
X50887142Y-93898152D02*
X50887142Y-94231485D01*
X50887142Y-94231485D02*
X50839523Y-94421961D01*
X50839523Y-94421961D02*
X50744285Y-94517200D01*
X50744285Y-94517200D02*
X50649047Y-94564819D01*
X50649047Y-94564819D02*
X50458571Y-94564819D01*
X51220476Y-93564819D02*
X51839523Y-93564819D01*
X51839523Y-93564819D02*
X51506190Y-93945771D01*
X51506190Y-93945771D02*
X51649047Y-93945771D01*
X51649047Y-93945771D02*
X51744285Y-93993390D01*
X51744285Y-93993390D02*
X51791904Y-94041009D01*
X51791904Y-94041009D02*
X51839523Y-94136247D01*
X51839523Y-94136247D02*
X51839523Y-94374342D01*
X51839523Y-94374342D02*
X51791904Y-94469580D01*
X51791904Y-94469580D02*
X51744285Y-94517200D01*
X51744285Y-94517200D02*
X51649047Y-94564819D01*
X51649047Y-94564819D02*
X51363333Y-94564819D01*
X51363333Y-94564819D02*
X51268095Y-94517200D01*
X51268095Y-94517200D02*
X51220476Y-94469580D01*
X65568095Y-86764819D02*
X65568095Y-87574342D01*
X65568095Y-87574342D02*
X65615714Y-87669580D01*
X65615714Y-87669580D02*
X65663333Y-87717200D01*
X65663333Y-87717200D02*
X65758571Y-87764819D01*
X65758571Y-87764819D02*
X65949047Y-87764819D01*
X65949047Y-87764819D02*
X66044285Y-87717200D01*
X66044285Y-87717200D02*
X66091904Y-87669580D01*
X66091904Y-87669580D02*
X66139523Y-87574342D01*
X66139523Y-87574342D02*
X66139523Y-86764819D01*
X66568095Y-86860057D02*
X66615714Y-86812438D01*
X66615714Y-86812438D02*
X66710952Y-86764819D01*
X66710952Y-86764819D02*
X66949047Y-86764819D01*
X66949047Y-86764819D02*
X67044285Y-86812438D01*
X67044285Y-86812438D02*
X67091904Y-86860057D01*
X67091904Y-86860057D02*
X67139523Y-86955295D01*
X67139523Y-86955295D02*
X67139523Y-87050533D01*
X67139523Y-87050533D02*
X67091904Y-87193390D01*
X67091904Y-87193390D02*
X66520476Y-87764819D01*
X66520476Y-87764819D02*
X67139523Y-87764819D01*
X71463333Y-66964819D02*
X71130000Y-66488628D01*
X70891905Y-66964819D02*
X70891905Y-65964819D01*
X70891905Y-65964819D02*
X71272857Y-65964819D01*
X71272857Y-65964819D02*
X71368095Y-66012438D01*
X71368095Y-66012438D02*
X71415714Y-66060057D01*
X71415714Y-66060057D02*
X71463333Y-66155295D01*
X71463333Y-66155295D02*
X71463333Y-66298152D01*
X71463333Y-66298152D02*
X71415714Y-66393390D01*
X71415714Y-66393390D02*
X71368095Y-66441009D01*
X71368095Y-66441009D02*
X71272857Y-66488628D01*
X71272857Y-66488628D02*
X70891905Y-66488628D01*
X71796667Y-65964819D02*
X72415714Y-65964819D01*
X72415714Y-65964819D02*
X72082381Y-66345771D01*
X72082381Y-66345771D02*
X72225238Y-66345771D01*
X72225238Y-66345771D02*
X72320476Y-66393390D01*
X72320476Y-66393390D02*
X72368095Y-66441009D01*
X72368095Y-66441009D02*
X72415714Y-66536247D01*
X72415714Y-66536247D02*
X72415714Y-66774342D01*
X72415714Y-66774342D02*
X72368095Y-66869580D01*
X72368095Y-66869580D02*
X72320476Y-66917200D01*
X72320476Y-66917200D02*
X72225238Y-66964819D01*
X72225238Y-66964819D02*
X71939524Y-66964819D01*
X71939524Y-66964819D02*
X71844286Y-66917200D01*
X71844286Y-66917200D02*
X71796667Y-66869580D01*
X60363333Y-86469580D02*
X60315714Y-86517200D01*
X60315714Y-86517200D02*
X60172857Y-86564819D01*
X60172857Y-86564819D02*
X60077619Y-86564819D01*
X60077619Y-86564819D02*
X59934762Y-86517200D01*
X59934762Y-86517200D02*
X59839524Y-86421961D01*
X59839524Y-86421961D02*
X59791905Y-86326723D01*
X59791905Y-86326723D02*
X59744286Y-86136247D01*
X59744286Y-86136247D02*
X59744286Y-85993390D01*
X59744286Y-85993390D02*
X59791905Y-85802914D01*
X59791905Y-85802914D02*
X59839524Y-85707676D01*
X59839524Y-85707676D02*
X59934762Y-85612438D01*
X59934762Y-85612438D02*
X60077619Y-85564819D01*
X60077619Y-85564819D02*
X60172857Y-85564819D01*
X60172857Y-85564819D02*
X60315714Y-85612438D01*
X60315714Y-85612438D02*
X60363333Y-85660057D01*
X60934762Y-85993390D02*
X60839524Y-85945771D01*
X60839524Y-85945771D02*
X60791905Y-85898152D01*
X60791905Y-85898152D02*
X60744286Y-85802914D01*
X60744286Y-85802914D02*
X60744286Y-85755295D01*
X60744286Y-85755295D02*
X60791905Y-85660057D01*
X60791905Y-85660057D02*
X60839524Y-85612438D01*
X60839524Y-85612438D02*
X60934762Y-85564819D01*
X60934762Y-85564819D02*
X61125238Y-85564819D01*
X61125238Y-85564819D02*
X61220476Y-85612438D01*
X61220476Y-85612438D02*
X61268095Y-85660057D01*
X61268095Y-85660057D02*
X61315714Y-85755295D01*
X61315714Y-85755295D02*
X61315714Y-85802914D01*
X61315714Y-85802914D02*
X61268095Y-85898152D01*
X61268095Y-85898152D02*
X61220476Y-85945771D01*
X61220476Y-85945771D02*
X61125238Y-85993390D01*
X61125238Y-85993390D02*
X60934762Y-85993390D01*
X60934762Y-85993390D02*
X60839524Y-86041009D01*
X60839524Y-86041009D02*
X60791905Y-86088628D01*
X60791905Y-86088628D02*
X60744286Y-86183866D01*
X60744286Y-86183866D02*
X60744286Y-86374342D01*
X60744286Y-86374342D02*
X60791905Y-86469580D01*
X60791905Y-86469580D02*
X60839524Y-86517200D01*
X60839524Y-86517200D02*
X60934762Y-86564819D01*
X60934762Y-86564819D02*
X61125238Y-86564819D01*
X61125238Y-86564819D02*
X61220476Y-86517200D01*
X61220476Y-86517200D02*
X61268095Y-86469580D01*
X61268095Y-86469580D02*
X61315714Y-86374342D01*
X61315714Y-86374342D02*
X61315714Y-86183866D01*
X61315714Y-86183866D02*
X61268095Y-86088628D01*
X61268095Y-86088628D02*
X61220476Y-86041009D01*
X61220476Y-86041009D02*
X61125238Y-85993390D01*
X48384819Y-66676666D02*
X47908628Y-67009999D01*
X48384819Y-67248094D02*
X47384819Y-67248094D01*
X47384819Y-67248094D02*
X47384819Y-66867142D01*
X47384819Y-66867142D02*
X47432438Y-66771904D01*
X47432438Y-66771904D02*
X47480057Y-66724285D01*
X47480057Y-66724285D02*
X47575295Y-66676666D01*
X47575295Y-66676666D02*
X47718152Y-66676666D01*
X47718152Y-66676666D02*
X47813390Y-66724285D01*
X47813390Y-66724285D02*
X47861009Y-66771904D01*
X47861009Y-66771904D02*
X47908628Y-66867142D01*
X47908628Y-66867142D02*
X47908628Y-67248094D01*
X48384819Y-65724285D02*
X48384819Y-66295713D01*
X48384819Y-66009999D02*
X47384819Y-66009999D01*
X47384819Y-66009999D02*
X47527676Y-66105237D01*
X47527676Y-66105237D02*
X47622914Y-66200475D01*
X47622914Y-66200475D02*
X47670533Y-66295713D01*
X42896666Y-73864819D02*
X42896666Y-74579104D01*
X42896666Y-74579104D02*
X42849047Y-74721961D01*
X42849047Y-74721961D02*
X42753809Y-74817200D01*
X42753809Y-74817200D02*
X42610952Y-74864819D01*
X42610952Y-74864819D02*
X42515714Y-74864819D01*
X43325238Y-73960057D02*
X43372857Y-73912438D01*
X43372857Y-73912438D02*
X43468095Y-73864819D01*
X43468095Y-73864819D02*
X43706190Y-73864819D01*
X43706190Y-73864819D02*
X43801428Y-73912438D01*
X43801428Y-73912438D02*
X43849047Y-73960057D01*
X43849047Y-73960057D02*
X43896666Y-74055295D01*
X43896666Y-74055295D02*
X43896666Y-74150533D01*
X43896666Y-74150533D02*
X43849047Y-74293390D01*
X43849047Y-74293390D02*
X43277619Y-74864819D01*
X43277619Y-74864819D02*
X43896666Y-74864819D01*
X70184819Y-64676666D02*
X69708628Y-65009999D01*
X70184819Y-65248094D02*
X69184819Y-65248094D01*
X69184819Y-65248094D02*
X69184819Y-64867142D01*
X69184819Y-64867142D02*
X69232438Y-64771904D01*
X69232438Y-64771904D02*
X69280057Y-64724285D01*
X69280057Y-64724285D02*
X69375295Y-64676666D01*
X69375295Y-64676666D02*
X69518152Y-64676666D01*
X69518152Y-64676666D02*
X69613390Y-64724285D01*
X69613390Y-64724285D02*
X69661009Y-64771904D01*
X69661009Y-64771904D02*
X69708628Y-64867142D01*
X69708628Y-64867142D02*
X69708628Y-65248094D01*
X69518152Y-63819523D02*
X70184819Y-63819523D01*
X69137200Y-64057618D02*
X69851485Y-64295713D01*
X69851485Y-64295713D02*
X69851485Y-63676666D01*
X59263333Y-65464819D02*
X58787143Y-65464819D01*
X58787143Y-65464819D02*
X58787143Y-64464819D01*
X60120476Y-65464819D02*
X59549048Y-65464819D01*
X59834762Y-65464819D02*
X59834762Y-64464819D01*
X59834762Y-64464819D02*
X59739524Y-64607676D01*
X59739524Y-64607676D02*
X59644286Y-64702914D01*
X59644286Y-64702914D02*
X59549048Y-64750533D01*
X63887142Y-96964819D02*
X63553809Y-96488628D01*
X63315714Y-96964819D02*
X63315714Y-95964819D01*
X63315714Y-95964819D02*
X63696666Y-95964819D01*
X63696666Y-95964819D02*
X63791904Y-96012438D01*
X63791904Y-96012438D02*
X63839523Y-96060057D01*
X63839523Y-96060057D02*
X63887142Y-96155295D01*
X63887142Y-96155295D02*
X63887142Y-96298152D01*
X63887142Y-96298152D02*
X63839523Y-96393390D01*
X63839523Y-96393390D02*
X63791904Y-96441009D01*
X63791904Y-96441009D02*
X63696666Y-96488628D01*
X63696666Y-96488628D02*
X63315714Y-96488628D01*
X64839523Y-96964819D02*
X64268095Y-96964819D01*
X64553809Y-96964819D02*
X64553809Y-95964819D01*
X64553809Y-95964819D02*
X64458571Y-96107676D01*
X64458571Y-96107676D02*
X64363333Y-96202914D01*
X64363333Y-96202914D02*
X64268095Y-96250533D01*
X65172857Y-95964819D02*
X65791904Y-95964819D01*
X65791904Y-95964819D02*
X65458571Y-96345771D01*
X65458571Y-96345771D02*
X65601428Y-96345771D01*
X65601428Y-96345771D02*
X65696666Y-96393390D01*
X65696666Y-96393390D02*
X65744285Y-96441009D01*
X65744285Y-96441009D02*
X65791904Y-96536247D01*
X65791904Y-96536247D02*
X65791904Y-96774342D01*
X65791904Y-96774342D02*
X65744285Y-96869580D01*
X65744285Y-96869580D02*
X65696666Y-96917200D01*
X65696666Y-96917200D02*
X65601428Y-96964819D01*
X65601428Y-96964819D02*
X65315714Y-96964819D01*
X65315714Y-96964819D02*
X65220476Y-96917200D01*
X65220476Y-96917200D02*
X65172857Y-96869580D01*
X71989580Y-69376666D02*
X72037200Y-69424285D01*
X72037200Y-69424285D02*
X72084819Y-69567142D01*
X72084819Y-69567142D02*
X72084819Y-69662380D01*
X72084819Y-69662380D02*
X72037200Y-69805237D01*
X72037200Y-69805237D02*
X71941961Y-69900475D01*
X71941961Y-69900475D02*
X71846723Y-69948094D01*
X71846723Y-69948094D02*
X71656247Y-69995713D01*
X71656247Y-69995713D02*
X71513390Y-69995713D01*
X71513390Y-69995713D02*
X71322914Y-69948094D01*
X71322914Y-69948094D02*
X71227676Y-69900475D01*
X71227676Y-69900475D02*
X71132438Y-69805237D01*
X71132438Y-69805237D02*
X71084819Y-69662380D01*
X71084819Y-69662380D02*
X71084819Y-69567142D01*
X71084819Y-69567142D02*
X71132438Y-69424285D01*
X71132438Y-69424285D02*
X71180057Y-69376666D01*
X71084819Y-68519523D02*
X71084819Y-68709999D01*
X71084819Y-68709999D02*
X71132438Y-68805237D01*
X71132438Y-68805237D02*
X71180057Y-68852856D01*
X71180057Y-68852856D02*
X71322914Y-68948094D01*
X71322914Y-68948094D02*
X71513390Y-68995713D01*
X71513390Y-68995713D02*
X71894342Y-68995713D01*
X71894342Y-68995713D02*
X71989580Y-68948094D01*
X71989580Y-68948094D02*
X72037200Y-68900475D01*
X72037200Y-68900475D02*
X72084819Y-68805237D01*
X72084819Y-68805237D02*
X72084819Y-68614761D01*
X72084819Y-68614761D02*
X72037200Y-68519523D01*
X72037200Y-68519523D02*
X71989580Y-68471904D01*
X71989580Y-68471904D02*
X71894342Y-68424285D01*
X71894342Y-68424285D02*
X71656247Y-68424285D01*
X71656247Y-68424285D02*
X71561009Y-68471904D01*
X71561009Y-68471904D02*
X71513390Y-68519523D01*
X71513390Y-68519523D02*
X71465771Y-68614761D01*
X71465771Y-68614761D02*
X71465771Y-68805237D01*
X71465771Y-68805237D02*
X71513390Y-68900475D01*
X71513390Y-68900475D02*
X71561009Y-68948094D01*
X71561009Y-68948094D02*
X71656247Y-68995713D01*
X43080057Y-90205238D02*
X43032438Y-90300476D01*
X43032438Y-90300476D02*
X42937200Y-90395714D01*
X42937200Y-90395714D02*
X42794342Y-90538571D01*
X42794342Y-90538571D02*
X42746723Y-90633809D01*
X42746723Y-90633809D02*
X42746723Y-90729047D01*
X42984819Y-90681428D02*
X42937200Y-90776666D01*
X42937200Y-90776666D02*
X42841961Y-90871904D01*
X42841961Y-90871904D02*
X42651485Y-90919523D01*
X42651485Y-90919523D02*
X42318152Y-90919523D01*
X42318152Y-90919523D02*
X42127676Y-90871904D01*
X42127676Y-90871904D02*
X42032438Y-90776666D01*
X42032438Y-90776666D02*
X41984819Y-90681428D01*
X41984819Y-90681428D02*
X41984819Y-90490952D01*
X41984819Y-90490952D02*
X42032438Y-90395714D01*
X42032438Y-90395714D02*
X42127676Y-90300476D01*
X42127676Y-90300476D02*
X42318152Y-90252857D01*
X42318152Y-90252857D02*
X42651485Y-90252857D01*
X42651485Y-90252857D02*
X42841961Y-90300476D01*
X42841961Y-90300476D02*
X42937200Y-90395714D01*
X42937200Y-90395714D02*
X42984819Y-90490952D01*
X42984819Y-90490952D02*
X42984819Y-90681428D01*
X42318152Y-89395714D02*
X42984819Y-89395714D01*
X41937200Y-89633809D02*
X42651485Y-89871904D01*
X42651485Y-89871904D02*
X42651485Y-89252857D01*
X55384819Y-96652857D02*
X54908628Y-96986190D01*
X55384819Y-97224285D02*
X54384819Y-97224285D01*
X54384819Y-97224285D02*
X54384819Y-96843333D01*
X54384819Y-96843333D02*
X54432438Y-96748095D01*
X54432438Y-96748095D02*
X54480057Y-96700476D01*
X54480057Y-96700476D02*
X54575295Y-96652857D01*
X54575295Y-96652857D02*
X54718152Y-96652857D01*
X54718152Y-96652857D02*
X54813390Y-96700476D01*
X54813390Y-96700476D02*
X54861009Y-96748095D01*
X54861009Y-96748095D02*
X54908628Y-96843333D01*
X54908628Y-96843333D02*
X54908628Y-97224285D01*
X54480057Y-96271904D02*
X54432438Y-96224285D01*
X54432438Y-96224285D02*
X54384819Y-96129047D01*
X54384819Y-96129047D02*
X54384819Y-95890952D01*
X54384819Y-95890952D02*
X54432438Y-95795714D01*
X54432438Y-95795714D02*
X54480057Y-95748095D01*
X54480057Y-95748095D02*
X54575295Y-95700476D01*
X54575295Y-95700476D02*
X54670533Y-95700476D01*
X54670533Y-95700476D02*
X54813390Y-95748095D01*
X54813390Y-95748095D02*
X55384819Y-96319523D01*
X55384819Y-96319523D02*
X55384819Y-95700476D01*
X55384819Y-94748095D02*
X55384819Y-95319523D01*
X55384819Y-95033809D02*
X54384819Y-95033809D01*
X54384819Y-95033809D02*
X54527676Y-95129047D01*
X54527676Y-95129047D02*
X54622914Y-95224285D01*
X54622914Y-95224285D02*
X54670533Y-95319523D01*
X67189580Y-66576666D02*
X67237200Y-66624285D01*
X67237200Y-66624285D02*
X67284819Y-66767142D01*
X67284819Y-66767142D02*
X67284819Y-66862380D01*
X67284819Y-66862380D02*
X67237200Y-67005237D01*
X67237200Y-67005237D02*
X67141961Y-67100475D01*
X67141961Y-67100475D02*
X67046723Y-67148094D01*
X67046723Y-67148094D02*
X66856247Y-67195713D01*
X66856247Y-67195713D02*
X66713390Y-67195713D01*
X66713390Y-67195713D02*
X66522914Y-67148094D01*
X66522914Y-67148094D02*
X66427676Y-67100475D01*
X66427676Y-67100475D02*
X66332438Y-67005237D01*
X66332438Y-67005237D02*
X66284819Y-66862380D01*
X66284819Y-66862380D02*
X66284819Y-66767142D01*
X66284819Y-66767142D02*
X66332438Y-66624285D01*
X66332438Y-66624285D02*
X66380057Y-66576666D01*
X66284819Y-66243332D02*
X66284819Y-65576666D01*
X66284819Y-65576666D02*
X67284819Y-66005237D01*
X53234761Y-84760057D02*
X53139523Y-84712438D01*
X53139523Y-84712438D02*
X53044285Y-84617200D01*
X53044285Y-84617200D02*
X52901428Y-84474342D01*
X52901428Y-84474342D02*
X52806190Y-84426723D01*
X52806190Y-84426723D02*
X52710952Y-84426723D01*
X52758571Y-84664819D02*
X52663333Y-84617200D01*
X52663333Y-84617200D02*
X52568095Y-84521961D01*
X52568095Y-84521961D02*
X52520476Y-84331485D01*
X52520476Y-84331485D02*
X52520476Y-83998152D01*
X52520476Y-83998152D02*
X52568095Y-83807676D01*
X52568095Y-83807676D02*
X52663333Y-83712438D01*
X52663333Y-83712438D02*
X52758571Y-83664819D01*
X52758571Y-83664819D02*
X52949047Y-83664819D01*
X52949047Y-83664819D02*
X53044285Y-83712438D01*
X53044285Y-83712438D02*
X53139523Y-83807676D01*
X53139523Y-83807676D02*
X53187142Y-83998152D01*
X53187142Y-83998152D02*
X53187142Y-84331485D01*
X53187142Y-84331485D02*
X53139523Y-84521961D01*
X53139523Y-84521961D02*
X53044285Y-84617200D01*
X53044285Y-84617200D02*
X52949047Y-84664819D01*
X52949047Y-84664819D02*
X52758571Y-84664819D01*
X54091904Y-83664819D02*
X53615714Y-83664819D01*
X53615714Y-83664819D02*
X53568095Y-84141009D01*
X53568095Y-84141009D02*
X53615714Y-84093390D01*
X53615714Y-84093390D02*
X53710952Y-84045771D01*
X53710952Y-84045771D02*
X53949047Y-84045771D01*
X53949047Y-84045771D02*
X54044285Y-84093390D01*
X54044285Y-84093390D02*
X54091904Y-84141009D01*
X54091904Y-84141009D02*
X54139523Y-84236247D01*
X54139523Y-84236247D02*
X54139523Y-84474342D01*
X54139523Y-84474342D02*
X54091904Y-84569580D01*
X54091904Y-84569580D02*
X54044285Y-84617200D01*
X54044285Y-84617200D02*
X53949047Y-84664819D01*
X53949047Y-84664819D02*
X53710952Y-84664819D01*
X53710952Y-84664819D02*
X53615714Y-84617200D01*
X53615714Y-84617200D02*
X53568095Y-84569580D01*
X52834761Y-94660057D02*
X52739523Y-94612438D01*
X52739523Y-94612438D02*
X52644285Y-94517200D01*
X52644285Y-94517200D02*
X52501428Y-94374342D01*
X52501428Y-94374342D02*
X52406190Y-94326723D01*
X52406190Y-94326723D02*
X52310952Y-94326723D01*
X52358571Y-94564819D02*
X52263333Y-94517200D01*
X52263333Y-94517200D02*
X52168095Y-94421961D01*
X52168095Y-94421961D02*
X52120476Y-94231485D01*
X52120476Y-94231485D02*
X52120476Y-93898152D01*
X52120476Y-93898152D02*
X52168095Y-93707676D01*
X52168095Y-93707676D02*
X52263333Y-93612438D01*
X52263333Y-93612438D02*
X52358571Y-93564819D01*
X52358571Y-93564819D02*
X52549047Y-93564819D01*
X52549047Y-93564819D02*
X52644285Y-93612438D01*
X52644285Y-93612438D02*
X52739523Y-93707676D01*
X52739523Y-93707676D02*
X52787142Y-93898152D01*
X52787142Y-93898152D02*
X52787142Y-94231485D01*
X52787142Y-94231485D02*
X52739523Y-94421961D01*
X52739523Y-94421961D02*
X52644285Y-94517200D01*
X52644285Y-94517200D02*
X52549047Y-94564819D01*
X52549047Y-94564819D02*
X52358571Y-94564819D01*
X53644285Y-93564819D02*
X53453809Y-93564819D01*
X53453809Y-93564819D02*
X53358571Y-93612438D01*
X53358571Y-93612438D02*
X53310952Y-93660057D01*
X53310952Y-93660057D02*
X53215714Y-93802914D01*
X53215714Y-93802914D02*
X53168095Y-93993390D01*
X53168095Y-93993390D02*
X53168095Y-94374342D01*
X53168095Y-94374342D02*
X53215714Y-94469580D01*
X53215714Y-94469580D02*
X53263333Y-94517200D01*
X53263333Y-94517200D02*
X53358571Y-94564819D01*
X53358571Y-94564819D02*
X53549047Y-94564819D01*
X53549047Y-94564819D02*
X53644285Y-94517200D01*
X53644285Y-94517200D02*
X53691904Y-94469580D01*
X53691904Y-94469580D02*
X53739523Y-94374342D01*
X53739523Y-94374342D02*
X53739523Y-94136247D01*
X53739523Y-94136247D02*
X53691904Y-94041009D01*
X53691904Y-94041009D02*
X53644285Y-93993390D01*
X53644285Y-93993390D02*
X53549047Y-93945771D01*
X53549047Y-93945771D02*
X53358571Y-93945771D01*
X53358571Y-93945771D02*
X53263333Y-93993390D01*
X53263333Y-93993390D02*
X53215714Y-94041009D01*
X53215714Y-94041009D02*
X53168095Y-94136247D01*
X49491905Y-89164819D02*
X49491905Y-88164819D01*
X49491905Y-88164819D02*
X49730000Y-88164819D01*
X49730000Y-88164819D02*
X49872857Y-88212438D01*
X49872857Y-88212438D02*
X49968095Y-88307676D01*
X49968095Y-88307676D02*
X50015714Y-88402914D01*
X50015714Y-88402914D02*
X50063333Y-88593390D01*
X50063333Y-88593390D02*
X50063333Y-88736247D01*
X50063333Y-88736247D02*
X50015714Y-88926723D01*
X50015714Y-88926723D02*
X49968095Y-89021961D01*
X49968095Y-89021961D02*
X49872857Y-89117200D01*
X49872857Y-89117200D02*
X49730000Y-89164819D01*
X49730000Y-89164819D02*
X49491905Y-89164819D01*
X50968095Y-88164819D02*
X50491905Y-88164819D01*
X50491905Y-88164819D02*
X50444286Y-88641009D01*
X50444286Y-88641009D02*
X50491905Y-88593390D01*
X50491905Y-88593390D02*
X50587143Y-88545771D01*
X50587143Y-88545771D02*
X50825238Y-88545771D01*
X50825238Y-88545771D02*
X50920476Y-88593390D01*
X50920476Y-88593390D02*
X50968095Y-88641009D01*
X50968095Y-88641009D02*
X51015714Y-88736247D01*
X51015714Y-88736247D02*
X51015714Y-88974342D01*
X51015714Y-88974342D02*
X50968095Y-89069580D01*
X50968095Y-89069580D02*
X50920476Y-89117200D01*
X50920476Y-89117200D02*
X50825238Y-89164819D01*
X50825238Y-89164819D02*
X50587143Y-89164819D01*
X50587143Y-89164819D02*
X50491905Y-89117200D01*
X50491905Y-89117200D02*
X50444286Y-89069580D01*
X52563333Y-87764819D02*
X52230000Y-87288628D01*
X51991905Y-87764819D02*
X51991905Y-86764819D01*
X51991905Y-86764819D02*
X52372857Y-86764819D01*
X52372857Y-86764819D02*
X52468095Y-86812438D01*
X52468095Y-86812438D02*
X52515714Y-86860057D01*
X52515714Y-86860057D02*
X52563333Y-86955295D01*
X52563333Y-86955295D02*
X52563333Y-87098152D01*
X52563333Y-87098152D02*
X52515714Y-87193390D01*
X52515714Y-87193390D02*
X52468095Y-87241009D01*
X52468095Y-87241009D02*
X52372857Y-87288628D01*
X52372857Y-87288628D02*
X51991905Y-87288628D01*
X53134762Y-87193390D02*
X53039524Y-87145771D01*
X53039524Y-87145771D02*
X52991905Y-87098152D01*
X52991905Y-87098152D02*
X52944286Y-87002914D01*
X52944286Y-87002914D02*
X52944286Y-86955295D01*
X52944286Y-86955295D02*
X52991905Y-86860057D01*
X52991905Y-86860057D02*
X53039524Y-86812438D01*
X53039524Y-86812438D02*
X53134762Y-86764819D01*
X53134762Y-86764819D02*
X53325238Y-86764819D01*
X53325238Y-86764819D02*
X53420476Y-86812438D01*
X53420476Y-86812438D02*
X53468095Y-86860057D01*
X53468095Y-86860057D02*
X53515714Y-86955295D01*
X53515714Y-86955295D02*
X53515714Y-87002914D01*
X53515714Y-87002914D02*
X53468095Y-87098152D01*
X53468095Y-87098152D02*
X53420476Y-87145771D01*
X53420476Y-87145771D02*
X53325238Y-87193390D01*
X53325238Y-87193390D02*
X53134762Y-87193390D01*
X53134762Y-87193390D02*
X53039524Y-87241009D01*
X53039524Y-87241009D02*
X52991905Y-87288628D01*
X52991905Y-87288628D02*
X52944286Y-87383866D01*
X52944286Y-87383866D02*
X52944286Y-87574342D01*
X52944286Y-87574342D02*
X52991905Y-87669580D01*
X52991905Y-87669580D02*
X53039524Y-87717200D01*
X53039524Y-87717200D02*
X53134762Y-87764819D01*
X53134762Y-87764819D02*
X53325238Y-87764819D01*
X53325238Y-87764819D02*
X53420476Y-87717200D01*
X53420476Y-87717200D02*
X53468095Y-87669580D01*
X53468095Y-87669580D02*
X53515714Y-87574342D01*
X53515714Y-87574342D02*
X53515714Y-87383866D01*
X53515714Y-87383866D02*
X53468095Y-87288628D01*
X53468095Y-87288628D02*
X53420476Y-87241009D01*
X53420476Y-87241009D02*
X53325238Y-87193390D01*
X72596666Y-93064819D02*
X72596666Y-93779104D01*
X72596666Y-93779104D02*
X72549047Y-93921961D01*
X72549047Y-93921961D02*
X72453809Y-94017200D01*
X72453809Y-94017200D02*
X72310952Y-94064819D01*
X72310952Y-94064819D02*
X72215714Y-94064819D01*
X73501428Y-93064819D02*
X73310952Y-93064819D01*
X73310952Y-93064819D02*
X73215714Y-93112438D01*
X73215714Y-93112438D02*
X73168095Y-93160057D01*
X73168095Y-93160057D02*
X73072857Y-93302914D01*
X73072857Y-93302914D02*
X73025238Y-93493390D01*
X73025238Y-93493390D02*
X73025238Y-93874342D01*
X73025238Y-93874342D02*
X73072857Y-93969580D01*
X73072857Y-93969580D02*
X73120476Y-94017200D01*
X73120476Y-94017200D02*
X73215714Y-94064819D01*
X73215714Y-94064819D02*
X73406190Y-94064819D01*
X73406190Y-94064819D02*
X73501428Y-94017200D01*
X73501428Y-94017200D02*
X73549047Y-93969580D01*
X73549047Y-93969580D02*
X73596666Y-93874342D01*
X73596666Y-93874342D02*
X73596666Y-93636247D01*
X73596666Y-93636247D02*
X73549047Y-93541009D01*
X73549047Y-93541009D02*
X73501428Y-93493390D01*
X73501428Y-93493390D02*
X73406190Y-93445771D01*
X73406190Y-93445771D02*
X73215714Y-93445771D01*
X73215714Y-93445771D02*
X73120476Y-93493390D01*
X73120476Y-93493390D02*
X73072857Y-93541009D01*
X73072857Y-93541009D02*
X73025238Y-93636247D01*
X51334761Y-84760057D02*
X51239523Y-84712438D01*
X51239523Y-84712438D02*
X51144285Y-84617200D01*
X51144285Y-84617200D02*
X51001428Y-84474342D01*
X51001428Y-84474342D02*
X50906190Y-84426723D01*
X50906190Y-84426723D02*
X50810952Y-84426723D01*
X50858571Y-84664819D02*
X50763333Y-84617200D01*
X50763333Y-84617200D02*
X50668095Y-84521961D01*
X50668095Y-84521961D02*
X50620476Y-84331485D01*
X50620476Y-84331485D02*
X50620476Y-83998152D01*
X50620476Y-83998152D02*
X50668095Y-83807676D01*
X50668095Y-83807676D02*
X50763333Y-83712438D01*
X50763333Y-83712438D02*
X50858571Y-83664819D01*
X50858571Y-83664819D02*
X51049047Y-83664819D01*
X51049047Y-83664819D02*
X51144285Y-83712438D01*
X51144285Y-83712438D02*
X51239523Y-83807676D01*
X51239523Y-83807676D02*
X51287142Y-83998152D01*
X51287142Y-83998152D02*
X51287142Y-84331485D01*
X51287142Y-84331485D02*
X51239523Y-84521961D01*
X51239523Y-84521961D02*
X51144285Y-84617200D01*
X51144285Y-84617200D02*
X51049047Y-84664819D01*
X51049047Y-84664819D02*
X50858571Y-84664819D01*
X51668095Y-83760057D02*
X51715714Y-83712438D01*
X51715714Y-83712438D02*
X51810952Y-83664819D01*
X51810952Y-83664819D02*
X52049047Y-83664819D01*
X52049047Y-83664819D02*
X52144285Y-83712438D01*
X52144285Y-83712438D02*
X52191904Y-83760057D01*
X52191904Y-83760057D02*
X52239523Y-83855295D01*
X52239523Y-83855295D02*
X52239523Y-83950533D01*
X52239523Y-83950533D02*
X52191904Y-84093390D01*
X52191904Y-84093390D02*
X51620476Y-84664819D01*
X51620476Y-84664819D02*
X52239523Y-84664819D01*
X57084819Y-82652857D02*
X56608628Y-82986190D01*
X57084819Y-83224285D02*
X56084819Y-83224285D01*
X56084819Y-83224285D02*
X56084819Y-82843333D01*
X56084819Y-82843333D02*
X56132438Y-82748095D01*
X56132438Y-82748095D02*
X56180057Y-82700476D01*
X56180057Y-82700476D02*
X56275295Y-82652857D01*
X56275295Y-82652857D02*
X56418152Y-82652857D01*
X56418152Y-82652857D02*
X56513390Y-82700476D01*
X56513390Y-82700476D02*
X56561009Y-82748095D01*
X56561009Y-82748095D02*
X56608628Y-82843333D01*
X56608628Y-82843333D02*
X56608628Y-83224285D01*
X57084819Y-81700476D02*
X57084819Y-82271904D01*
X57084819Y-81986190D02*
X56084819Y-81986190D01*
X56084819Y-81986190D02*
X56227676Y-82081428D01*
X56227676Y-82081428D02*
X56322914Y-82176666D01*
X56322914Y-82176666D02*
X56370533Y-82271904D01*
X56513390Y-81129047D02*
X56465771Y-81224285D01*
X56465771Y-81224285D02*
X56418152Y-81271904D01*
X56418152Y-81271904D02*
X56322914Y-81319523D01*
X56322914Y-81319523D02*
X56275295Y-81319523D01*
X56275295Y-81319523D02*
X56180057Y-81271904D01*
X56180057Y-81271904D02*
X56132438Y-81224285D01*
X56132438Y-81224285D02*
X56084819Y-81129047D01*
X56084819Y-81129047D02*
X56084819Y-80938571D01*
X56084819Y-80938571D02*
X56132438Y-80843333D01*
X56132438Y-80843333D02*
X56180057Y-80795714D01*
X56180057Y-80795714D02*
X56275295Y-80748095D01*
X56275295Y-80748095D02*
X56322914Y-80748095D01*
X56322914Y-80748095D02*
X56418152Y-80795714D01*
X56418152Y-80795714D02*
X56465771Y-80843333D01*
X56465771Y-80843333D02*
X56513390Y-80938571D01*
X56513390Y-80938571D02*
X56513390Y-81129047D01*
X56513390Y-81129047D02*
X56561009Y-81224285D01*
X56561009Y-81224285D02*
X56608628Y-81271904D01*
X56608628Y-81271904D02*
X56703866Y-81319523D01*
X56703866Y-81319523D02*
X56894342Y-81319523D01*
X56894342Y-81319523D02*
X56989580Y-81271904D01*
X56989580Y-81271904D02*
X57037200Y-81224285D01*
X57037200Y-81224285D02*
X57084819Y-81129047D01*
X57084819Y-81129047D02*
X57084819Y-80938571D01*
X57084819Y-80938571D02*
X57037200Y-80843333D01*
X57037200Y-80843333D02*
X56989580Y-80795714D01*
X56989580Y-80795714D02*
X56894342Y-80748095D01*
X56894342Y-80748095D02*
X56703866Y-80748095D01*
X56703866Y-80748095D02*
X56608628Y-80795714D01*
X56608628Y-80795714D02*
X56561009Y-80843333D01*
X56561009Y-80843333D02*
X56513390Y-80938571D01*
X73484819Y-69276666D02*
X73008628Y-69609999D01*
X73484819Y-69848094D02*
X72484819Y-69848094D01*
X72484819Y-69848094D02*
X72484819Y-69467142D01*
X72484819Y-69467142D02*
X72532438Y-69371904D01*
X72532438Y-69371904D02*
X72580057Y-69324285D01*
X72580057Y-69324285D02*
X72675295Y-69276666D01*
X72675295Y-69276666D02*
X72818152Y-69276666D01*
X72818152Y-69276666D02*
X72913390Y-69324285D01*
X72913390Y-69324285D02*
X72961009Y-69371904D01*
X72961009Y-69371904D02*
X73008628Y-69467142D01*
X73008628Y-69467142D02*
X73008628Y-69848094D01*
X72580057Y-68895713D02*
X72532438Y-68848094D01*
X72532438Y-68848094D02*
X72484819Y-68752856D01*
X72484819Y-68752856D02*
X72484819Y-68514761D01*
X72484819Y-68514761D02*
X72532438Y-68419523D01*
X72532438Y-68419523D02*
X72580057Y-68371904D01*
X72580057Y-68371904D02*
X72675295Y-68324285D01*
X72675295Y-68324285D02*
X72770533Y-68324285D01*
X72770533Y-68324285D02*
X72913390Y-68371904D01*
X72913390Y-68371904D02*
X73484819Y-68943332D01*
X73484819Y-68943332D02*
X73484819Y-68324285D01*
X42791905Y-64764819D02*
X42791905Y-63764819D01*
X42791905Y-63764819D02*
X43030000Y-63764819D01*
X43030000Y-63764819D02*
X43172857Y-63812438D01*
X43172857Y-63812438D02*
X43268095Y-63907676D01*
X43268095Y-63907676D02*
X43315714Y-64002914D01*
X43315714Y-64002914D02*
X43363333Y-64193390D01*
X43363333Y-64193390D02*
X43363333Y-64336247D01*
X43363333Y-64336247D02*
X43315714Y-64526723D01*
X43315714Y-64526723D02*
X43268095Y-64621961D01*
X43268095Y-64621961D02*
X43172857Y-64717200D01*
X43172857Y-64717200D02*
X43030000Y-64764819D01*
X43030000Y-64764819D02*
X42791905Y-64764819D01*
X44315714Y-64764819D02*
X43744286Y-64764819D01*
X44030000Y-64764819D02*
X44030000Y-63764819D01*
X44030000Y-63764819D02*
X43934762Y-63907676D01*
X43934762Y-63907676D02*
X43839524Y-64002914D01*
X43839524Y-64002914D02*
X43744286Y-64050533D01*
X67189580Y-74776666D02*
X67237200Y-74824285D01*
X67237200Y-74824285D02*
X67284819Y-74967142D01*
X67284819Y-74967142D02*
X67284819Y-75062380D01*
X67284819Y-75062380D02*
X67237200Y-75205237D01*
X67237200Y-75205237D02*
X67141961Y-75300475D01*
X67141961Y-75300475D02*
X67046723Y-75348094D01*
X67046723Y-75348094D02*
X66856247Y-75395713D01*
X66856247Y-75395713D02*
X66713390Y-75395713D01*
X66713390Y-75395713D02*
X66522914Y-75348094D01*
X66522914Y-75348094D02*
X66427676Y-75300475D01*
X66427676Y-75300475D02*
X66332438Y-75205237D01*
X66332438Y-75205237D02*
X66284819Y-75062380D01*
X66284819Y-75062380D02*
X66284819Y-74967142D01*
X66284819Y-74967142D02*
X66332438Y-74824285D01*
X66332438Y-74824285D02*
X66380057Y-74776666D01*
X66284819Y-74443332D02*
X66284819Y-73824285D01*
X66284819Y-73824285D02*
X66665771Y-74157618D01*
X66665771Y-74157618D02*
X66665771Y-74014761D01*
X66665771Y-74014761D02*
X66713390Y-73919523D01*
X66713390Y-73919523D02*
X66761009Y-73871904D01*
X66761009Y-73871904D02*
X66856247Y-73824285D01*
X66856247Y-73824285D02*
X67094342Y-73824285D01*
X67094342Y-73824285D02*
X67189580Y-73871904D01*
X67189580Y-73871904D02*
X67237200Y-73919523D01*
X67237200Y-73919523D02*
X67284819Y-74014761D01*
X67284819Y-74014761D02*
X67284819Y-74300475D01*
X67284819Y-74300475D02*
X67237200Y-74395713D01*
X67237200Y-74395713D02*
X67189580Y-74443332D01*
X68857142Y-96909819D02*
X68523809Y-96433628D01*
X68285714Y-96909819D02*
X68285714Y-95909819D01*
X68285714Y-95909819D02*
X68666666Y-95909819D01*
X68666666Y-95909819D02*
X68761904Y-95957438D01*
X68761904Y-95957438D02*
X68809523Y-96005057D01*
X68809523Y-96005057D02*
X68857142Y-96100295D01*
X68857142Y-96100295D02*
X68857142Y-96243152D01*
X68857142Y-96243152D02*
X68809523Y-96338390D01*
X68809523Y-96338390D02*
X68761904Y-96386009D01*
X68761904Y-96386009D02*
X68666666Y-96433628D01*
X68666666Y-96433628D02*
X68285714Y-96433628D01*
X69809523Y-96909819D02*
X69238095Y-96909819D01*
X69523809Y-96909819D02*
X69523809Y-95909819D01*
X69523809Y-95909819D02*
X69428571Y-96052676D01*
X69428571Y-96052676D02*
X69333333Y-96147914D01*
X69333333Y-96147914D02*
X69238095Y-96195533D01*
X70190476Y-96005057D02*
X70238095Y-95957438D01*
X70238095Y-95957438D02*
X70333333Y-95909819D01*
X70333333Y-95909819D02*
X70571428Y-95909819D01*
X70571428Y-95909819D02*
X70666666Y-95957438D01*
X70666666Y-95957438D02*
X70714285Y-96005057D01*
X70714285Y-96005057D02*
X70761904Y-96100295D01*
X70761904Y-96100295D02*
X70761904Y-96195533D01*
X70761904Y-96195533D02*
X70714285Y-96338390D01*
X70714285Y-96338390D02*
X70142857Y-96909819D01*
X70142857Y-96909819D02*
X70761904Y-96909819D01*
X69363333Y-82269580D02*
X69315714Y-82317200D01*
X69315714Y-82317200D02*
X69172857Y-82364819D01*
X69172857Y-82364819D02*
X69077619Y-82364819D01*
X69077619Y-82364819D02*
X68934762Y-82317200D01*
X68934762Y-82317200D02*
X68839524Y-82221961D01*
X68839524Y-82221961D02*
X68791905Y-82126723D01*
X68791905Y-82126723D02*
X68744286Y-81936247D01*
X68744286Y-81936247D02*
X68744286Y-81793390D01*
X68744286Y-81793390D02*
X68791905Y-81602914D01*
X68791905Y-81602914D02*
X68839524Y-81507676D01*
X68839524Y-81507676D02*
X68934762Y-81412438D01*
X68934762Y-81412438D02*
X69077619Y-81364819D01*
X69077619Y-81364819D02*
X69172857Y-81364819D01*
X69172857Y-81364819D02*
X69315714Y-81412438D01*
X69315714Y-81412438D02*
X69363333Y-81460057D01*
X69839524Y-82364819D02*
X70030000Y-82364819D01*
X70030000Y-82364819D02*
X70125238Y-82317200D01*
X70125238Y-82317200D02*
X70172857Y-82269580D01*
X70172857Y-82269580D02*
X70268095Y-82126723D01*
X70268095Y-82126723D02*
X70315714Y-81936247D01*
X70315714Y-81936247D02*
X70315714Y-81555295D01*
X70315714Y-81555295D02*
X70268095Y-81460057D01*
X70268095Y-81460057D02*
X70220476Y-81412438D01*
X70220476Y-81412438D02*
X70125238Y-81364819D01*
X70125238Y-81364819D02*
X69934762Y-81364819D01*
X69934762Y-81364819D02*
X69839524Y-81412438D01*
X69839524Y-81412438D02*
X69791905Y-81460057D01*
X69791905Y-81460057D02*
X69744286Y-81555295D01*
X69744286Y-81555295D02*
X69744286Y-81793390D01*
X69744286Y-81793390D02*
X69791905Y-81888628D01*
X69791905Y-81888628D02*
X69839524Y-81936247D01*
X69839524Y-81936247D02*
X69934762Y-81983866D01*
X69934762Y-81983866D02*
X70125238Y-81983866D01*
X70125238Y-81983866D02*
X70220476Y-81936247D01*
X70220476Y-81936247D02*
X70268095Y-81888628D01*
X70268095Y-81888628D02*
X70315714Y-81793390D01*
X72696666Y-74864819D02*
X72696666Y-75579104D01*
X72696666Y-75579104D02*
X72649047Y-75721961D01*
X72649047Y-75721961D02*
X72553809Y-75817200D01*
X72553809Y-75817200D02*
X72410952Y-75864819D01*
X72410952Y-75864819D02*
X72315714Y-75864819D01*
X73601428Y-75198152D02*
X73601428Y-75864819D01*
X73363333Y-74817200D02*
X73125238Y-75531485D01*
X73125238Y-75531485D02*
X73744285Y-75531485D01*
X68689580Y-74576666D02*
X68737200Y-74624285D01*
X68737200Y-74624285D02*
X68784819Y-74767142D01*
X68784819Y-74767142D02*
X68784819Y-74862380D01*
X68784819Y-74862380D02*
X68737200Y-75005237D01*
X68737200Y-75005237D02*
X68641961Y-75100475D01*
X68641961Y-75100475D02*
X68546723Y-75148094D01*
X68546723Y-75148094D02*
X68356247Y-75195713D01*
X68356247Y-75195713D02*
X68213390Y-75195713D01*
X68213390Y-75195713D02*
X68022914Y-75148094D01*
X68022914Y-75148094D02*
X67927676Y-75100475D01*
X67927676Y-75100475D02*
X67832438Y-75005237D01*
X67832438Y-75005237D02*
X67784819Y-74862380D01*
X67784819Y-74862380D02*
X67784819Y-74767142D01*
X67784819Y-74767142D02*
X67832438Y-74624285D01*
X67832438Y-74624285D02*
X67880057Y-74576666D01*
X68118152Y-73719523D02*
X68784819Y-73719523D01*
X67737200Y-73957618D02*
X68451485Y-74195713D01*
X68451485Y-74195713D02*
X68451485Y-73576666D01*
X42063333Y-88664819D02*
X41730000Y-88188628D01*
X41491905Y-88664819D02*
X41491905Y-87664819D01*
X41491905Y-87664819D02*
X41872857Y-87664819D01*
X41872857Y-87664819D02*
X41968095Y-87712438D01*
X41968095Y-87712438D02*
X42015714Y-87760057D01*
X42015714Y-87760057D02*
X42063333Y-87855295D01*
X42063333Y-87855295D02*
X42063333Y-87998152D01*
X42063333Y-87998152D02*
X42015714Y-88093390D01*
X42015714Y-88093390D02*
X41968095Y-88141009D01*
X41968095Y-88141009D02*
X41872857Y-88188628D01*
X41872857Y-88188628D02*
X41491905Y-88188628D01*
X42539524Y-88664819D02*
X42730000Y-88664819D01*
X42730000Y-88664819D02*
X42825238Y-88617200D01*
X42825238Y-88617200D02*
X42872857Y-88569580D01*
X42872857Y-88569580D02*
X42968095Y-88426723D01*
X42968095Y-88426723D02*
X43015714Y-88236247D01*
X43015714Y-88236247D02*
X43015714Y-87855295D01*
X43015714Y-87855295D02*
X42968095Y-87760057D01*
X42968095Y-87760057D02*
X42920476Y-87712438D01*
X42920476Y-87712438D02*
X42825238Y-87664819D01*
X42825238Y-87664819D02*
X42634762Y-87664819D01*
X42634762Y-87664819D02*
X42539524Y-87712438D01*
X42539524Y-87712438D02*
X42491905Y-87760057D01*
X42491905Y-87760057D02*
X42444286Y-87855295D01*
X42444286Y-87855295D02*
X42444286Y-88093390D01*
X42444286Y-88093390D02*
X42491905Y-88188628D01*
X42491905Y-88188628D02*
X42539524Y-88236247D01*
X42539524Y-88236247D02*
X42634762Y-88283866D01*
X42634762Y-88283866D02*
X42825238Y-88283866D01*
X42825238Y-88283866D02*
X42920476Y-88236247D01*
X42920476Y-88236247D02*
X42968095Y-88188628D01*
X42968095Y-88188628D02*
X43015714Y-88093390D01*
X60732142Y-96784819D02*
X60398809Y-96308628D01*
X60160714Y-96784819D02*
X60160714Y-95784819D01*
X60160714Y-95784819D02*
X60541666Y-95784819D01*
X60541666Y-95784819D02*
X60636904Y-95832438D01*
X60636904Y-95832438D02*
X60684523Y-95880057D01*
X60684523Y-95880057D02*
X60732142Y-95975295D01*
X60732142Y-95975295D02*
X60732142Y-96118152D01*
X60732142Y-96118152D02*
X60684523Y-96213390D01*
X60684523Y-96213390D02*
X60636904Y-96261009D01*
X60636904Y-96261009D02*
X60541666Y-96308628D01*
X60541666Y-96308628D02*
X60160714Y-96308628D01*
X61684523Y-96784819D02*
X61113095Y-96784819D01*
X61398809Y-96784819D02*
X61398809Y-95784819D01*
X61398809Y-95784819D02*
X61303571Y-95927676D01*
X61303571Y-95927676D02*
X61208333Y-96022914D01*
X61208333Y-96022914D02*
X61113095Y-96070533D01*
X62541666Y-96118152D02*
X62541666Y-96784819D01*
X62303571Y-95737200D02*
X62065476Y-96451485D01*
X62065476Y-96451485D02*
X62684523Y-96451485D01*
X44670833Y-78149819D02*
X44337500Y-77673628D01*
X44099405Y-78149819D02*
X44099405Y-77149819D01*
X44099405Y-77149819D02*
X44480357Y-77149819D01*
X44480357Y-77149819D02*
X44575595Y-77197438D01*
X44575595Y-77197438D02*
X44623214Y-77245057D01*
X44623214Y-77245057D02*
X44670833Y-77340295D01*
X44670833Y-77340295D02*
X44670833Y-77483152D01*
X44670833Y-77483152D02*
X44623214Y-77578390D01*
X44623214Y-77578390D02*
X44575595Y-77626009D01*
X44575595Y-77626009D02*
X44480357Y-77673628D01*
X44480357Y-77673628D02*
X44099405Y-77673628D01*
X45575595Y-77149819D02*
X45099405Y-77149819D01*
X45099405Y-77149819D02*
X45051786Y-77626009D01*
X45051786Y-77626009D02*
X45099405Y-77578390D01*
X45099405Y-77578390D02*
X45194643Y-77530771D01*
X45194643Y-77530771D02*
X45432738Y-77530771D01*
X45432738Y-77530771D02*
X45527976Y-77578390D01*
X45527976Y-77578390D02*
X45575595Y-77626009D01*
X45575595Y-77626009D02*
X45623214Y-77721247D01*
X45623214Y-77721247D02*
X45623214Y-77959342D01*
X45623214Y-77959342D02*
X45575595Y-78054580D01*
X45575595Y-78054580D02*
X45527976Y-78102200D01*
X45527976Y-78102200D02*
X45432738Y-78149819D01*
X45432738Y-78149819D02*
X45194643Y-78149819D01*
X45194643Y-78149819D02*
X45099405Y-78102200D01*
X45099405Y-78102200D02*
X45051786Y-78054580D01*
X55589580Y-87152857D02*
X55637200Y-87200476D01*
X55637200Y-87200476D02*
X55684819Y-87343333D01*
X55684819Y-87343333D02*
X55684819Y-87438571D01*
X55684819Y-87438571D02*
X55637200Y-87581428D01*
X55637200Y-87581428D02*
X55541961Y-87676666D01*
X55541961Y-87676666D02*
X55446723Y-87724285D01*
X55446723Y-87724285D02*
X55256247Y-87771904D01*
X55256247Y-87771904D02*
X55113390Y-87771904D01*
X55113390Y-87771904D02*
X54922914Y-87724285D01*
X54922914Y-87724285D02*
X54827676Y-87676666D01*
X54827676Y-87676666D02*
X54732438Y-87581428D01*
X54732438Y-87581428D02*
X54684819Y-87438571D01*
X54684819Y-87438571D02*
X54684819Y-87343333D01*
X54684819Y-87343333D02*
X54732438Y-87200476D01*
X54732438Y-87200476D02*
X54780057Y-87152857D01*
X55684819Y-86200476D02*
X55684819Y-86771904D01*
X55684819Y-86486190D02*
X54684819Y-86486190D01*
X54684819Y-86486190D02*
X54827676Y-86581428D01*
X54827676Y-86581428D02*
X54922914Y-86676666D01*
X54922914Y-86676666D02*
X54970533Y-86771904D01*
X54684819Y-85343333D02*
X54684819Y-85533809D01*
X54684819Y-85533809D02*
X54732438Y-85629047D01*
X54732438Y-85629047D02*
X54780057Y-85676666D01*
X54780057Y-85676666D02*
X54922914Y-85771904D01*
X54922914Y-85771904D02*
X55113390Y-85819523D01*
X55113390Y-85819523D02*
X55494342Y-85819523D01*
X55494342Y-85819523D02*
X55589580Y-85771904D01*
X55589580Y-85771904D02*
X55637200Y-85724285D01*
X55637200Y-85724285D02*
X55684819Y-85629047D01*
X55684819Y-85629047D02*
X55684819Y-85438571D01*
X55684819Y-85438571D02*
X55637200Y-85343333D01*
X55637200Y-85343333D02*
X55589580Y-85295714D01*
X55589580Y-85295714D02*
X55494342Y-85248095D01*
X55494342Y-85248095D02*
X55256247Y-85248095D01*
X55256247Y-85248095D02*
X55161009Y-85295714D01*
X55161009Y-85295714D02*
X55113390Y-85343333D01*
X55113390Y-85343333D02*
X55065771Y-85438571D01*
X55065771Y-85438571D02*
X55065771Y-85629047D01*
X55065771Y-85629047D02*
X55113390Y-85724285D01*
X55113390Y-85724285D02*
X55161009Y-85771904D01*
X55161009Y-85771904D02*
X55256247Y-85819523D01*
X68517142Y-80864819D02*
X68183809Y-80388628D01*
X67945714Y-80864819D02*
X67945714Y-79864819D01*
X67945714Y-79864819D02*
X68326666Y-79864819D01*
X68326666Y-79864819D02*
X68421904Y-79912438D01*
X68421904Y-79912438D02*
X68469523Y-79960057D01*
X68469523Y-79960057D02*
X68517142Y-80055295D01*
X68517142Y-80055295D02*
X68517142Y-80198152D01*
X68517142Y-80198152D02*
X68469523Y-80293390D01*
X68469523Y-80293390D02*
X68421904Y-80341009D01*
X68421904Y-80341009D02*
X68326666Y-80388628D01*
X68326666Y-80388628D02*
X67945714Y-80388628D01*
X69469523Y-80864819D02*
X68898095Y-80864819D01*
X69183809Y-80864819D02*
X69183809Y-79864819D01*
X69183809Y-79864819D02*
X69088571Y-80007676D01*
X69088571Y-80007676D02*
X68993333Y-80102914D01*
X68993333Y-80102914D02*
X68898095Y-80150533D01*
X70088571Y-79864819D02*
X70183809Y-79864819D01*
X70183809Y-79864819D02*
X70279047Y-79912438D01*
X70279047Y-79912438D02*
X70326666Y-79960057D01*
X70326666Y-79960057D02*
X70374285Y-80055295D01*
X70374285Y-80055295D02*
X70421904Y-80245771D01*
X70421904Y-80245771D02*
X70421904Y-80483866D01*
X70421904Y-80483866D02*
X70374285Y-80674342D01*
X70374285Y-80674342D02*
X70326666Y-80769580D01*
X70326666Y-80769580D02*
X70279047Y-80817200D01*
X70279047Y-80817200D02*
X70183809Y-80864819D01*
X70183809Y-80864819D02*
X70088571Y-80864819D01*
X70088571Y-80864819D02*
X69993333Y-80817200D01*
X69993333Y-80817200D02*
X69945714Y-80769580D01*
X69945714Y-80769580D02*
X69898095Y-80674342D01*
X69898095Y-80674342D02*
X69850476Y-80483866D01*
X69850476Y-80483866D02*
X69850476Y-80245771D01*
X69850476Y-80245771D02*
X69898095Y-80055295D01*
X69898095Y-80055295D02*
X69945714Y-79960057D01*
X69945714Y-79960057D02*
X69993333Y-79912438D01*
X69993333Y-79912438D02*
X70088571Y-79864819D01*
X50984819Y-65271904D02*
X51794342Y-65271904D01*
X51794342Y-65271904D02*
X51889580Y-65224285D01*
X51889580Y-65224285D02*
X51937200Y-65176666D01*
X51937200Y-65176666D02*
X51984819Y-65081428D01*
X51984819Y-65081428D02*
X51984819Y-64890952D01*
X51984819Y-64890952D02*
X51937200Y-64795714D01*
X51937200Y-64795714D02*
X51889580Y-64748095D01*
X51889580Y-64748095D02*
X51794342Y-64700476D01*
X51794342Y-64700476D02*
X50984819Y-64700476D01*
X51984819Y-63700476D02*
X51984819Y-64271904D01*
X51984819Y-63986190D02*
X50984819Y-63986190D01*
X50984819Y-63986190D02*
X51127676Y-64081428D01*
X51127676Y-64081428D02*
X51222914Y-64176666D01*
X51222914Y-64176666D02*
X51270533Y-64271904D01*
X49591905Y-79664819D02*
X49591905Y-78664819D01*
X49591905Y-78664819D02*
X49830000Y-78664819D01*
X49830000Y-78664819D02*
X49972857Y-78712438D01*
X49972857Y-78712438D02*
X50068095Y-78807676D01*
X50068095Y-78807676D02*
X50115714Y-78902914D01*
X50115714Y-78902914D02*
X50163333Y-79093390D01*
X50163333Y-79093390D02*
X50163333Y-79236247D01*
X50163333Y-79236247D02*
X50115714Y-79426723D01*
X50115714Y-79426723D02*
X50068095Y-79521961D01*
X50068095Y-79521961D02*
X49972857Y-79617200D01*
X49972857Y-79617200D02*
X49830000Y-79664819D01*
X49830000Y-79664819D02*
X49591905Y-79664819D01*
X50496667Y-78664819D02*
X51115714Y-78664819D01*
X51115714Y-78664819D02*
X50782381Y-79045771D01*
X50782381Y-79045771D02*
X50925238Y-79045771D01*
X50925238Y-79045771D02*
X51020476Y-79093390D01*
X51020476Y-79093390D02*
X51068095Y-79141009D01*
X51068095Y-79141009D02*
X51115714Y-79236247D01*
X51115714Y-79236247D02*
X51115714Y-79474342D01*
X51115714Y-79474342D02*
X51068095Y-79569580D01*
X51068095Y-79569580D02*
X51020476Y-79617200D01*
X51020476Y-79617200D02*
X50925238Y-79664819D01*
X50925238Y-79664819D02*
X50639524Y-79664819D01*
X50639524Y-79664819D02*
X50544286Y-79617200D01*
X50544286Y-79617200D02*
X50496667Y-79569580D01*
X49689580Y-73476666D02*
X49737200Y-73524285D01*
X49737200Y-73524285D02*
X49784819Y-73667142D01*
X49784819Y-73667142D02*
X49784819Y-73762380D01*
X49784819Y-73762380D02*
X49737200Y-73905237D01*
X49737200Y-73905237D02*
X49641961Y-74000475D01*
X49641961Y-74000475D02*
X49546723Y-74048094D01*
X49546723Y-74048094D02*
X49356247Y-74095713D01*
X49356247Y-74095713D02*
X49213390Y-74095713D01*
X49213390Y-74095713D02*
X49022914Y-74048094D01*
X49022914Y-74048094D02*
X48927676Y-74000475D01*
X48927676Y-74000475D02*
X48832438Y-73905237D01*
X48832438Y-73905237D02*
X48784819Y-73762380D01*
X48784819Y-73762380D02*
X48784819Y-73667142D01*
X48784819Y-73667142D02*
X48832438Y-73524285D01*
X48832438Y-73524285D02*
X48880057Y-73476666D01*
X49784819Y-72524285D02*
X49784819Y-73095713D01*
X49784819Y-72809999D02*
X48784819Y-72809999D01*
X48784819Y-72809999D02*
X48927676Y-72905237D01*
X48927676Y-72905237D02*
X49022914Y-73000475D01*
X49022914Y-73000475D02*
X49070533Y-73095713D01*
X39996666Y-86899819D02*
X39996666Y-87614104D01*
X39996666Y-87614104D02*
X39949047Y-87756961D01*
X39949047Y-87756961D02*
X39853809Y-87852200D01*
X39853809Y-87852200D02*
X39710952Y-87899819D01*
X39710952Y-87899819D02*
X39615714Y-87899819D01*
X40377619Y-86899819D02*
X40996666Y-86899819D01*
X40996666Y-86899819D02*
X40663333Y-87280771D01*
X40663333Y-87280771D02*
X40806190Y-87280771D01*
X40806190Y-87280771D02*
X40901428Y-87328390D01*
X40901428Y-87328390D02*
X40949047Y-87376009D01*
X40949047Y-87376009D02*
X40996666Y-87471247D01*
X40996666Y-87471247D02*
X40996666Y-87709342D01*
X40996666Y-87709342D02*
X40949047Y-87804580D01*
X40949047Y-87804580D02*
X40901428Y-87852200D01*
X40901428Y-87852200D02*
X40806190Y-87899819D01*
X40806190Y-87899819D02*
X40520476Y-87899819D01*
X40520476Y-87899819D02*
X40425238Y-87852200D01*
X40425238Y-87852200D02*
X40377619Y-87804580D01*
X55087142Y-78069580D02*
X55039523Y-78117200D01*
X55039523Y-78117200D02*
X54896666Y-78164819D01*
X54896666Y-78164819D02*
X54801428Y-78164819D01*
X54801428Y-78164819D02*
X54658571Y-78117200D01*
X54658571Y-78117200D02*
X54563333Y-78021961D01*
X54563333Y-78021961D02*
X54515714Y-77926723D01*
X54515714Y-77926723D02*
X54468095Y-77736247D01*
X54468095Y-77736247D02*
X54468095Y-77593390D01*
X54468095Y-77593390D02*
X54515714Y-77402914D01*
X54515714Y-77402914D02*
X54563333Y-77307676D01*
X54563333Y-77307676D02*
X54658571Y-77212438D01*
X54658571Y-77212438D02*
X54801428Y-77164819D01*
X54801428Y-77164819D02*
X54896666Y-77164819D01*
X54896666Y-77164819D02*
X55039523Y-77212438D01*
X55039523Y-77212438D02*
X55087142Y-77260057D01*
X56039523Y-78164819D02*
X55468095Y-78164819D01*
X55753809Y-78164819D02*
X55753809Y-77164819D01*
X55753809Y-77164819D02*
X55658571Y-77307676D01*
X55658571Y-77307676D02*
X55563333Y-77402914D01*
X55563333Y-77402914D02*
X55468095Y-77450533D01*
X56944285Y-77164819D02*
X56468095Y-77164819D01*
X56468095Y-77164819D02*
X56420476Y-77641009D01*
X56420476Y-77641009D02*
X56468095Y-77593390D01*
X56468095Y-77593390D02*
X56563333Y-77545771D01*
X56563333Y-77545771D02*
X56801428Y-77545771D01*
X56801428Y-77545771D02*
X56896666Y-77593390D01*
X56896666Y-77593390D02*
X56944285Y-77641009D01*
X56944285Y-77641009D02*
X56991904Y-77736247D01*
X56991904Y-77736247D02*
X56991904Y-77974342D01*
X56991904Y-77974342D02*
X56944285Y-78069580D01*
X56944285Y-78069580D02*
X56896666Y-78117200D01*
X56896666Y-78117200D02*
X56801428Y-78164819D01*
X56801428Y-78164819D02*
X56563333Y-78164819D01*
X56563333Y-78164819D02*
X56468095Y-78117200D01*
X56468095Y-78117200D02*
X56420476Y-78069580D01*
X43380057Y-81505238D02*
X43332438Y-81600476D01*
X43332438Y-81600476D02*
X43237200Y-81695714D01*
X43237200Y-81695714D02*
X43094342Y-81838571D01*
X43094342Y-81838571D02*
X43046723Y-81933809D01*
X43046723Y-81933809D02*
X43046723Y-82029047D01*
X43284819Y-81981428D02*
X43237200Y-82076666D01*
X43237200Y-82076666D02*
X43141961Y-82171904D01*
X43141961Y-82171904D02*
X42951485Y-82219523D01*
X42951485Y-82219523D02*
X42618152Y-82219523D01*
X42618152Y-82219523D02*
X42427676Y-82171904D01*
X42427676Y-82171904D02*
X42332438Y-82076666D01*
X42332438Y-82076666D02*
X42284819Y-81981428D01*
X42284819Y-81981428D02*
X42284819Y-81790952D01*
X42284819Y-81790952D02*
X42332438Y-81695714D01*
X42332438Y-81695714D02*
X42427676Y-81600476D01*
X42427676Y-81600476D02*
X42618152Y-81552857D01*
X42618152Y-81552857D02*
X42951485Y-81552857D01*
X42951485Y-81552857D02*
X43141961Y-81600476D01*
X43141961Y-81600476D02*
X43237200Y-81695714D01*
X43237200Y-81695714D02*
X43284819Y-81790952D01*
X43284819Y-81790952D02*
X43284819Y-81981428D01*
X43284819Y-80600476D02*
X43284819Y-81171904D01*
X43284819Y-80886190D02*
X42284819Y-80886190D01*
X42284819Y-80886190D02*
X42427676Y-80981428D01*
X42427676Y-80981428D02*
X42522914Y-81076666D01*
X42522914Y-81076666D02*
X42570533Y-81171904D01*
X47789580Y-74652857D02*
X47837200Y-74700476D01*
X47837200Y-74700476D02*
X47884819Y-74843333D01*
X47884819Y-74843333D02*
X47884819Y-74938571D01*
X47884819Y-74938571D02*
X47837200Y-75081428D01*
X47837200Y-75081428D02*
X47741961Y-75176666D01*
X47741961Y-75176666D02*
X47646723Y-75224285D01*
X47646723Y-75224285D02*
X47456247Y-75271904D01*
X47456247Y-75271904D02*
X47313390Y-75271904D01*
X47313390Y-75271904D02*
X47122914Y-75224285D01*
X47122914Y-75224285D02*
X47027676Y-75176666D01*
X47027676Y-75176666D02*
X46932438Y-75081428D01*
X46932438Y-75081428D02*
X46884819Y-74938571D01*
X46884819Y-74938571D02*
X46884819Y-74843333D01*
X46884819Y-74843333D02*
X46932438Y-74700476D01*
X46932438Y-74700476D02*
X46980057Y-74652857D01*
X47884819Y-73700476D02*
X47884819Y-74271904D01*
X47884819Y-73986190D02*
X46884819Y-73986190D01*
X46884819Y-73986190D02*
X47027676Y-74081428D01*
X47027676Y-74081428D02*
X47122914Y-74176666D01*
X47122914Y-74176666D02*
X47170533Y-74271904D01*
X47218152Y-72843333D02*
X47884819Y-72843333D01*
X46837200Y-73081428D02*
X47551485Y-73319523D01*
X47551485Y-73319523D02*
X47551485Y-72700476D01*
D12*
%TO.C,C5*%
X53714420Y-64400000D02*
X53995580Y-64400000D01*
X53714420Y-65420000D02*
X53995580Y-65420000D01*
%TO.C,TP3*%
X68430000Y-92910000D02*
G75*
G02*
X67030000Y-92910000I-700000J0D01*
G01*
X67030000Y-92910000D02*
G75*
G02*
X68430000Y-92910000I700000J0D01*
G01*
%TO.C,D6*%
X43090000Y-93350000D02*
X43090000Y-96650000D01*
X43090000Y-93350000D02*
X48600000Y-93350000D01*
X43090000Y-96650000D02*
X48600000Y-96650000D01*
%TO.C,TP5*%
X58430000Y-90910000D02*
G75*
G02*
X57030000Y-90910000I-700000J0D01*
G01*
X57030000Y-90910000D02*
G75*
G02*
X58430000Y-90910000I700000J0D01*
G01*
%TO.C,J5*%
X74370000Y-87065000D02*
X74370000Y-81925000D01*
X77030000Y-81925000D02*
X74370000Y-81925000D01*
X77030000Y-87065000D02*
X74370000Y-87065000D01*
X77030000Y-87065000D02*
X77030000Y-81925000D01*
X77030000Y-88335000D02*
X77030000Y-89665000D01*
X77030000Y-89665000D02*
X75700000Y-89665000D01*
%TO.C,D4*%
X76365000Y-64925000D02*
X74895000Y-64925000D01*
X74895000Y-64925000D02*
X74895000Y-67210000D01*
X76365000Y-67210000D02*
X76365000Y-64925000D01*
%TO.C,R7*%
X75107500Y-69747258D02*
X75107500Y-69272742D01*
X76152500Y-69747258D02*
X76152500Y-69272742D01*
%TO.C,R6*%
X52992258Y-78587500D02*
X52517742Y-78587500D01*
X52992258Y-79632500D02*
X52517742Y-79632500D01*
%TO.C,D2*%
X43290000Y-83775000D02*
X43290000Y-87075000D01*
X43290000Y-83775000D02*
X48800000Y-83775000D01*
X43290000Y-87075000D02*
X48800000Y-87075000D01*
%TO.C,C10*%
X71870580Y-86500000D02*
X71589420Y-86500000D01*
X71870580Y-87520000D02*
X71589420Y-87520000D01*
%TO.C,R11*%
X71937258Y-84877500D02*
X71462742Y-84877500D01*
X71937258Y-85922500D02*
X71462742Y-85922500D01*
%TO.C,C11*%
X66490000Y-95865580D02*
X66490000Y-95584420D01*
X67510000Y-95865580D02*
X67510000Y-95584420D01*
%TO.C,J1*%
X39370000Y-78770000D02*
X40700000Y-78770000D01*
X39370000Y-80100000D02*
X39370000Y-78770000D01*
X39370000Y-81370000D02*
X39370000Y-86510000D01*
X39370000Y-81370000D02*
X42030000Y-81370000D01*
X39370000Y-86510000D02*
X42030000Y-86510000D01*
X42030000Y-81370000D02*
X42030000Y-86510000D01*
%TO.C,C2*%
X50652000Y-70650580D02*
X50652000Y-70369420D01*
X51672000Y-70650580D02*
X51672000Y-70369420D01*
%TO.C,Q3*%
X48100000Y-89740000D02*
X47450000Y-89740000D01*
X48100000Y-89740000D02*
X48750000Y-89740000D01*
X48100000Y-92860000D02*
X47450000Y-92860000D01*
X48100000Y-92860000D02*
X48750000Y-92860000D01*
X49502500Y-93140000D02*
X49022500Y-93140000D01*
X49262500Y-92810000D01*
X49502500Y-93140000D01*
G36*
X49502500Y-93140000D02*
G01*
X49022500Y-93140000D01*
X49262500Y-92810000D01*
X49502500Y-93140000D01*
G37*
%TO.C,U2*%
X62700000Y-88740000D02*
X60750000Y-88740000D01*
X62700000Y-88740000D02*
X64650000Y-88740000D01*
X62700000Y-93860000D02*
X60750000Y-93860000D01*
X62700000Y-93860000D02*
X64650000Y-93860000D01*
X60000000Y-88835000D02*
X59760000Y-88505000D01*
X60240000Y-88505000D01*
X60000000Y-88835000D01*
G36*
X60000000Y-88835000D02*
G01*
X59760000Y-88505000D01*
X60240000Y-88505000D01*
X60000000Y-88835000D01*
G37*
%TO.C,R3*%
X69342258Y-65987500D02*
X68867742Y-65987500D01*
X69342258Y-67032500D02*
X68867742Y-67032500D01*
%TO.C,C8*%
X60640580Y-86990000D02*
X60359420Y-86990000D01*
X60640580Y-88010000D02*
X60359420Y-88010000D01*
%TO.C,R1*%
X48907500Y-66747258D02*
X48907500Y-66272742D01*
X49952500Y-66747258D02*
X49952500Y-66272742D01*
%TO.C,J2*%
X39300000Y-71780000D02*
X39300000Y-69180000D01*
X41960000Y-69180000D02*
X39300000Y-69180000D01*
X41960000Y-71780000D02*
X39300000Y-71780000D01*
X41960000Y-71780000D02*
X41960000Y-69180000D01*
X41960000Y-73050000D02*
X41960000Y-74380000D01*
X41960000Y-74380000D02*
X40630000Y-74380000D01*
%TO.C,TP4*%
X58430000Y-92910000D02*
G75*
G02*
X57030000Y-92910000I-700000J0D01*
G01*
X57030000Y-92910000D02*
G75*
G02*
X58430000Y-92910000I700000J0D01*
G01*
%TO.C,R4*%
X67607500Y-64322258D02*
X67607500Y-63847742D01*
X68652500Y-64322258D02*
X68652500Y-63847742D01*
%TO.C,L1*%
X53670000Y-65750000D02*
X53670000Y-68250000D01*
X53670000Y-65750000D02*
X65190000Y-65750000D01*
X53670000Y-76270000D02*
X53670000Y-73770000D01*
X53670000Y-76270000D02*
X65190000Y-76270000D01*
X65190000Y-65750000D02*
X65190000Y-68250000D01*
X65190000Y-76270000D02*
X65190000Y-73770000D01*
%TO.C,R13*%
X64362742Y-94377500D02*
X64837258Y-94377500D01*
X64362742Y-95422500D02*
X64837258Y-95422500D01*
%TO.C,C6*%
X67720000Y-69050580D02*
X67720000Y-68769420D01*
X68740000Y-69050580D02*
X68740000Y-68769420D01*
%TO.C,Q4*%
X43340000Y-90620000D02*
X43340000Y-92030000D01*
X44000000Y-92030000D02*
X43340000Y-92030000D01*
X45660000Y-90620000D02*
X45660000Y-92030000D01*
X45660000Y-92030000D02*
X45000000Y-92030000D01*
X45970000Y-90490000D02*
X45640000Y-90250000D01*
X45970000Y-90010000D01*
X45970000Y-90490000D01*
G36*
X45970000Y-90490000D02*
G01*
X45640000Y-90250000D01*
X45970000Y-90010000D01*
X45970000Y-90490000D01*
G37*
%TO.C,R21*%
X54307500Y-92872742D02*
X54307500Y-93347258D01*
X55352500Y-92872742D02*
X55352500Y-93347258D01*
%TO.C,C7*%
X66220000Y-69050580D02*
X66220000Y-68769420D01*
X67240000Y-69050580D02*
X67240000Y-68769420D01*
%TO.C,TP2*%
X68430000Y-90910000D02*
G75*
G02*
X67030000Y-90910000I-700000J0D01*
G01*
X67030000Y-90910000D02*
G75*
G02*
X68430000Y-90910000I700000J0D01*
G01*
%TO.C,Q5*%
X52230000Y-80115000D02*
X51580000Y-80115000D01*
X52230000Y-80115000D02*
X52880000Y-80115000D01*
X52230000Y-83235000D02*
X51580000Y-83235000D01*
X52230000Y-83235000D02*
X52880000Y-83235000D01*
X53632500Y-83515000D02*
X53152500Y-83515000D01*
X53392500Y-83185000D01*
X53632500Y-83515000D01*
G36*
X53632500Y-83515000D02*
G01*
X53152500Y-83515000D01*
X53392500Y-83185000D01*
X53632500Y-83515000D01*
G37*
%TO.C,Q6*%
X52030000Y-89750000D02*
X51380000Y-89750000D01*
X52030000Y-89750000D02*
X52680000Y-89750000D01*
X52030000Y-92870000D02*
X51380000Y-92870000D01*
X52030000Y-92870000D02*
X52680000Y-92870000D01*
X53432500Y-93150000D02*
X52952500Y-93150000D01*
X53192500Y-92820000D01*
X53432500Y-93150000D01*
G36*
X53432500Y-93150000D02*
G01*
X52952500Y-93150000D01*
X53192500Y-92820000D01*
X53432500Y-93150000D01*
G37*
%TO.C,TP1*%
X68430000Y-88910000D02*
G75*
G02*
X67030000Y-88910000I-700000J0D01*
G01*
X67030000Y-88910000D02*
G75*
G02*
X68430000Y-88910000I700000J0D01*
G01*
%TO.C,D5*%
X46232500Y-87975000D02*
X46232500Y-89445000D01*
X46232500Y-89445000D02*
X48517500Y-89445000D01*
X48517500Y-87975000D02*
X46232500Y-87975000D01*
%TO.C,R8*%
X52992258Y-88187500D02*
X52517742Y-88187500D01*
X52992258Y-89232500D02*
X52517742Y-89232500D01*
%TO.C,J6*%
X74370000Y-94080000D02*
X74370000Y-91480000D01*
X77030000Y-91480000D02*
X74370000Y-91480000D01*
X77030000Y-94080000D02*
X74370000Y-94080000D01*
X77030000Y-94080000D02*
X77030000Y-91480000D01*
X77030000Y-95350000D02*
X77030000Y-96680000D01*
X77030000Y-96680000D02*
X75700000Y-96680000D01*
%TO.C,Q2*%
X48300000Y-80115000D02*
X47650000Y-80115000D01*
X48300000Y-80115000D02*
X48950000Y-80115000D01*
X48300000Y-83235000D02*
X47650000Y-83235000D01*
X48300000Y-83235000D02*
X48950000Y-83235000D01*
X49702500Y-83515000D02*
X49222500Y-83515000D01*
X49462500Y-83185000D01*
X49702500Y-83515000D01*
G36*
X49702500Y-83515000D02*
G01*
X49222500Y-83515000D01*
X49462500Y-83185000D01*
X49702500Y-83515000D01*
G37*
%TO.C,TP8*%
X58430000Y-94910000D02*
G75*
G02*
X57030000Y-94910000I-700000J0D01*
G01*
X57030000Y-94910000D02*
G75*
G02*
X58430000Y-94910000I700000J0D01*
G01*
%TO.C,R18*%
X54607500Y-82147258D02*
X54607500Y-81672742D01*
X55652500Y-82147258D02*
X55652500Y-81672742D01*
%TO.C,R2*%
X69307500Y-69147258D02*
X69307500Y-68672742D01*
X70352500Y-69147258D02*
X70352500Y-68672742D01*
%TO.C,D1*%
X46240000Y-65060000D02*
X40730000Y-65060000D01*
X46240000Y-68360000D02*
X40730000Y-68360000D01*
X46240000Y-68360000D02*
X46240000Y-65060000D01*
%TO.C,C3*%
X66220000Y-72050580D02*
X66220000Y-71769420D01*
X67240000Y-72050580D02*
X67240000Y-71769420D01*
%TO.C,R12*%
X69737258Y-94502500D02*
X69262742Y-94502500D01*
X69737258Y-95547500D02*
X69262742Y-95547500D01*
%TO.C,C9*%
X72275580Y-81400000D02*
X71994420Y-81400000D01*
X72275580Y-82420000D02*
X71994420Y-82420000D01*
%TO.C,J4*%
X74370000Y-77955000D02*
X74370000Y-72815000D01*
X77030000Y-72815000D02*
X74370000Y-72815000D01*
X77030000Y-77955000D02*
X74370000Y-77955000D01*
X77030000Y-77955000D02*
X77030000Y-72815000D01*
X77030000Y-79225000D02*
X77030000Y-80555000D01*
X77030000Y-80555000D02*
X75700000Y-80555000D01*
%TO.C,C4*%
X67820000Y-71769420D02*
X67820000Y-72050580D01*
X68840000Y-71769420D02*
X68840000Y-72050580D01*
%TO.C,R9*%
X44362742Y-88177500D02*
X44837258Y-88177500D01*
X44362742Y-89222500D02*
X44837258Y-89222500D01*
%TO.C,TP6*%
X58430000Y-88910000D02*
G75*
G02*
X57030000Y-88910000I-700000J0D01*
G01*
X57030000Y-88910000D02*
G75*
G02*
X58430000Y-88910000I700000J0D01*
G01*
%TO.C,R14*%
X61612258Y-94377500D02*
X61137742Y-94377500D01*
X61612258Y-95422500D02*
X61137742Y-95422500D01*
%TO.C,R5*%
X44600242Y-78602500D02*
X45074758Y-78602500D01*
X44600242Y-79647500D02*
X45074758Y-79647500D01*
%TO.C,C16*%
X54620000Y-89650581D02*
X54620000Y-89369419D01*
X55640000Y-89650581D02*
X55640000Y-89369419D01*
%TO.C,R10*%
X72367258Y-79787500D02*
X71892742Y-79787500D01*
X72367258Y-80832500D02*
X71892742Y-80832500D01*
%TO.C,U1*%
X50895000Y-67097500D02*
X50895000Y-66497500D01*
X50895000Y-67097500D02*
X50895000Y-67697500D01*
X52765000Y-67097500D02*
X52765000Y-66497500D01*
X52765000Y-67097500D02*
X52765000Y-67697500D01*
X51570000Y-68737500D02*
X51090000Y-68737500D01*
X51330000Y-68407500D01*
X51570000Y-68737500D01*
G36*
X51570000Y-68737500D02*
G01*
X51090000Y-68737500D01*
X51330000Y-68407500D01*
X51570000Y-68737500D01*
G37*
%TO.C,D3*%
X46445000Y-78375000D02*
X46445000Y-79845000D01*
X46445000Y-79845000D02*
X48730000Y-79845000D01*
X48730000Y-78375000D02*
X46445000Y-78375000D01*
%TO.C,C1*%
X48695000Y-69698748D02*
X48695000Y-70221252D01*
X50165000Y-69698748D02*
X50165000Y-70221252D01*
%TO.C,J3*%
X39370000Y-88445000D02*
X40700000Y-88445000D01*
X39370000Y-89775000D02*
X39370000Y-88445000D01*
X39370000Y-91045000D02*
X39370000Y-96185000D01*
X39370000Y-91045000D02*
X42030000Y-91045000D01*
X39370000Y-96185000D02*
X42030000Y-96185000D01*
X42030000Y-91045000D02*
X42030000Y-96185000D01*
%TO.C,C15*%
X55970581Y-79100000D02*
X55689419Y-79100000D01*
X55970581Y-80120000D02*
X55689419Y-80120000D01*
%TO.C,TP7*%
X58430000Y-96910000D02*
G75*
G02*
X57030000Y-96910000I-700000J0D01*
G01*
X57030000Y-96910000D02*
G75*
G02*
X58430000Y-96910000I700000J0D01*
G01*
%TO.C,Q1*%
X43540000Y-81045000D02*
X43540000Y-82455000D01*
X44200000Y-82455000D02*
X43540000Y-82455000D01*
X45860000Y-81045000D02*
X45860000Y-82455000D01*
X45860000Y-82455000D02*
X45200000Y-82455000D01*
X46170000Y-80915000D02*
X45840000Y-80675000D01*
X46170000Y-80435000D01*
X46170000Y-80915000D01*
G36*
X46170000Y-80915000D02*
G01*
X45840000Y-80675000D01*
X46170000Y-80435000D01*
X46170000Y-80915000D01*
G37*
%TO.C,C14*%
X46695000Y-69698748D02*
X46695000Y-70221252D01*
X48165000Y-69698748D02*
X48165000Y-70221252D01*
%TD*%
M02*
