%TF.GenerationSoftware,KiCad,Pcbnew,8.0.8*%
%TF.CreationDate,2025-06-23T11:54:19+02:00*%
%TF.ProjectId,LedDimmer,4c656444-696d-46d6-9572-2e6b69636164,rev?*%
%TF.SameCoordinates,Original*%
%TF.FileFunction,Copper,L1,Top*%
%TF.FilePolarity,Positive*%
%FSLAX46Y46*%
G04 Gerber Fmt 4.6, Leading zero omitted, Abs format (unit mm)*
G04 Created by KiCad (PCBNEW 8.0.8) date 2025-06-23 11:54:19*
%MOMM*%
%LPD*%
G01*
G04 APERTURE LIST*
G04 Aperture macros list*
%AMRoundRect*
0 Rectangle with rounded corners*
0 $1 Rounding radius*
0 $2 $3 $4 $5 $6 $7 $8 $9 X,Y pos of 4 corners*
0 Add a 4 corners polygon primitive as box body*
4,1,4,$2,$3,$4,$5,$6,$7,$8,$9,$2,$3,0*
0 Add four circle primitives for the rounded corners*
1,1,$1+$1,$2,$3*
1,1,$1+$1,$4,$5*
1,1,$1+$1,$6,$7*
1,1,$1+$1,$8,$9*
0 Add four rect primitives between the rounded corners*
20,1,$1+$1,$2,$3,$4,$5,0*
20,1,$1+$1,$4,$5,$6,$7,0*
20,1,$1+$1,$6,$7,$8,$9,0*
20,1,$1+$1,$8,$9,$2,$3,0*%
G04 Aperture macros list end*
%TA.AperFunction,SMDPad,CuDef*%
%ADD10RoundRect,0.225000X-0.225000X-0.250000X0.225000X-0.250000X0.225000X0.250000X-0.225000X0.250000X0*%
%TD*%
%TA.AperFunction,ComponentPad*%
%ADD11C,2.600000*%
%TD*%
%TA.AperFunction,ConnectorPad*%
%ADD12C,3.800000*%
%TD*%
%TA.AperFunction,ComponentPad*%
%ADD13C,1.000000*%
%TD*%
%TA.AperFunction,SMDPad,CuDef*%
%ADD14RoundRect,0.250000X-1.000000X-0.650000X1.000000X-0.650000X1.000000X0.650000X-1.000000X0.650000X0*%
%TD*%
%TA.AperFunction,ComponentPad*%
%ADD15R,1.700000X1.700000*%
%TD*%
%TA.AperFunction,ComponentPad*%
%ADD16O,1.700000X1.700000*%
%TD*%
%TA.AperFunction,SMDPad,CuDef*%
%ADD17RoundRect,0.218750X-0.256250X0.218750X-0.256250X-0.218750X0.256250X-0.218750X0.256250X0.218750X0*%
%TD*%
%TA.AperFunction,SMDPad,CuDef*%
%ADD18RoundRect,0.200000X0.275000X-0.200000X0.275000X0.200000X-0.275000X0.200000X-0.275000X-0.200000X0*%
%TD*%
%TA.AperFunction,SMDPad,CuDef*%
%ADD19RoundRect,0.200000X0.200000X0.275000X-0.200000X0.275000X-0.200000X-0.275000X0.200000X-0.275000X0*%
%TD*%
%TA.AperFunction,SMDPad,CuDef*%
%ADD20RoundRect,0.225000X0.225000X0.250000X-0.225000X0.250000X-0.225000X-0.250000X0.225000X-0.250000X0*%
%TD*%
%TA.AperFunction,SMDPad,CuDef*%
%ADD21RoundRect,0.225000X0.250000X-0.225000X0.250000X0.225000X-0.250000X0.225000X-0.250000X-0.225000X0*%
%TD*%
%TA.AperFunction,SMDPad,CuDef*%
%ADD22RoundRect,0.150000X0.587500X0.150000X-0.587500X0.150000X-0.587500X-0.150000X0.587500X-0.150000X0*%
%TD*%
%TA.AperFunction,SMDPad,CuDef*%
%ADD23RoundRect,0.150000X-0.825000X-0.150000X0.825000X-0.150000X0.825000X0.150000X-0.825000X0.150000X0*%
%TD*%
%TA.AperFunction,SMDPad,CuDef*%
%ADD24RoundRect,0.117646X-0.682354X-1.482354X0.682354X-1.482354X0.682354X1.482354X-0.682354X1.482354X0*%
%TD*%
%TA.AperFunction,SMDPad,CuDef*%
%ADD25RoundRect,0.200000X-0.200000X-0.275000X0.200000X-0.275000X0.200000X0.275000X-0.200000X0.275000X0*%
%TD*%
%TA.AperFunction,SMDPad,CuDef*%
%ADD26RoundRect,0.112500X0.112500X0.237500X-0.112500X0.237500X-0.112500X-0.237500X0.112500X-0.237500X0*%
%TD*%
%TA.AperFunction,SMDPad,CuDef*%
%ADD27RoundRect,0.200000X-0.275000X0.200000X-0.275000X-0.200000X0.275000X-0.200000X0.275000X0.200000X0*%
%TD*%
%TA.AperFunction,SMDPad,CuDef*%
%ADD28RoundRect,0.218750X-0.218750X-0.256250X0.218750X-0.256250X0.218750X0.256250X-0.218750X0.256250X0*%
%TD*%
%TA.AperFunction,SMDPad,CuDef*%
%ADD29RoundRect,0.250000X1.000000X0.650000X-1.000000X0.650000X-1.000000X-0.650000X1.000000X-0.650000X0*%
%TD*%
%TA.AperFunction,SMDPad,CuDef*%
%ADD30RoundRect,0.225000X-0.250000X0.225000X-0.250000X-0.225000X0.250000X-0.225000X0.250000X0.225000X0*%
%TD*%
%TA.AperFunction,SMDPad,CuDef*%
%ADD31RoundRect,0.087500X0.087500X-0.250000X0.087500X0.250000X-0.087500X0.250000X-0.087500X-0.250000X0*%
%TD*%
%TA.AperFunction,SMDPad,CuDef*%
%ADD32RoundRect,0.250000X-0.475000X0.250000X-0.475000X-0.250000X0.475000X-0.250000X0.475000X0.250000X0*%
%TD*%
%TA.AperFunction,ViaPad*%
%ADD33C,0.600000*%
%TD*%
%TA.AperFunction,ViaPad*%
%ADD34C,0.800000*%
%TD*%
%TA.AperFunction,Conductor*%
%ADD35C,0.250000*%
%TD*%
%TA.AperFunction,Conductor*%
%ADD36C,0.500000*%
%TD*%
%TA.AperFunction,Conductor*%
%ADD37C,0.200000*%
%TD*%
%TA.AperFunction,Conductor*%
%ADD38C,0.150000*%
%TD*%
G04 APERTURE END LIST*
D10*
%TO.P,C5,1*%
%TO.N,/BST*%
X53080000Y-64910000D03*
%TO.P,C5,2*%
%TO.N,Net-(U1-SW)*%
X54630000Y-64910000D03*
%TD*%
D11*
%TO.P,H4,1,1*%
%TO.N,GND*%
X40430000Y-62010000D03*
D12*
X40430000Y-62010000D03*
%TD*%
D13*
%TO.P,TP3,1,1*%
%TO.N,/DI1*%
X67730000Y-92910000D03*
%TD*%
D14*
%TO.P,D6,1,K*%
%TO.N,Net-(D6-K)*%
X44600000Y-95000000D03*
%TO.P,D6,2,A*%
%TO.N,GND*%
X48600000Y-95000000D03*
%TD*%
D13*
%TO.P,TP5,1,1*%
%TO.N,/CH2*%
X57730000Y-90910000D03*
%TD*%
D15*
%TO.P,J5,1,Pin_1*%
%TO.N,GND*%
X75700000Y-88335000D03*
D16*
%TO.P,J5,2,Pin_2*%
%TO.N,Net-(J5-Pin_2)*%
X75700000Y-85795000D03*
%TO.P,J5,3,Pin_3*%
%TO.N,+3.3V*%
X75700000Y-83255000D03*
%TD*%
D17*
%TO.P,D4,1,K*%
%TO.N,GND*%
X75630000Y-65622499D03*
%TO.P,D4,2,A*%
%TO.N,Net-(D4-A)*%
X75630000Y-67197501D03*
%TD*%
D18*
%TO.P,R7,1*%
%TO.N,+3.3V*%
X75630000Y-70335000D03*
%TO.P,R7,2*%
%TO.N,Net-(D4-A)*%
X75630000Y-68685000D03*
%TD*%
D19*
%TO.P,R6,1*%
%TO.N,+3.3V*%
X53580000Y-79110000D03*
%TO.P,R6,2*%
%TO.N,Net-(D3-A)*%
X51930000Y-79110000D03*
%TD*%
D14*
%TO.P,D2,1,K*%
%TO.N,Net-(D2-K)*%
X44800000Y-85425000D03*
%TO.P,D2,2,A*%
%TO.N,GND*%
X48800000Y-85425000D03*
%TD*%
D11*
%TO.P,H2,1,1*%
%TO.N,GND*%
X75430000Y-102010000D03*
D12*
X75430000Y-102010000D03*
%TD*%
D20*
%TO.P,C10,1*%
%TO.N,GND*%
X72505000Y-87010000D03*
%TO.P,C10,2*%
%TO.N,/AN1*%
X70955000Y-87010000D03*
%TD*%
D19*
%TO.P,R11,1*%
%TO.N,Net-(J5-Pin_2)*%
X72525000Y-85400000D03*
%TO.P,R11,2*%
%TO.N,/AN1*%
X70875000Y-85400000D03*
%TD*%
D21*
%TO.P,C11,1*%
%TO.N,GND*%
X67000000Y-96500000D03*
%TO.P,C11,2*%
%TO.N,/DI1*%
X67000000Y-94950000D03*
%TD*%
D15*
%TO.P,J1,1,Pin_1*%
%TO.N,Net-(J1-Pin_1)*%
X40700000Y-80100000D03*
D16*
%TO.P,J1,2,Pin_2*%
%TO.N,Net-(D2-K)*%
X40700000Y-82640000D03*
%TO.P,J1,3,Pin_3*%
%TO.N,GND*%
X40700000Y-85180000D03*
%TD*%
D21*
%TO.P,C2,1*%
%TO.N,GND*%
X51162000Y-71285000D03*
%TO.P,C2,2*%
%TO.N,/VIN*%
X51162000Y-69735000D03*
%TD*%
D22*
%TO.P,Q3,1,G*%
%TO.N,/CH2*%
X49037500Y-92250000D03*
%TO.P,Q3,2,S*%
%TO.N,GND*%
X49037500Y-90350000D03*
%TO.P,Q3,3,D*%
%TO.N,Net-(Q3-D)*%
X47162500Y-91300000D03*
%TD*%
D23*
%TO.P,U2,1,VDD*%
%TO.N,+3.3V*%
X60225000Y-89395000D03*
%TO.P,U2,2,PWM1*%
%TO.N,/CH1*%
X60225000Y-90665000D03*
%TO.P,U2,3,PWM2*%
%TO.N,/CH2*%
X60225000Y-91935000D03*
%TO.P,U2,4,MCLR#*%
%TO.N,/RST#*%
X60225000Y-93205000D03*
%TO.P,U2,5,RA2*%
%TO.N,/DI1*%
X65175000Y-93205000D03*
%TO.P,U2,6,AN1*%
%TO.N,/AN1*%
X65175000Y-91935000D03*
%TO.P,U2,7,AN0*%
%TO.N,/AN0*%
X65175000Y-90665000D03*
%TO.P,U2,8,VSS*%
%TO.N,GND*%
X65175000Y-89395000D03*
%TD*%
D19*
%TO.P,R3,1*%
%TO.N,Net-(R2-Pad2)*%
X69930000Y-66510000D03*
%TO.P,R3,2*%
%TO.N,/FB*%
X68280000Y-66510000D03*
%TD*%
D20*
%TO.P,C8,1*%
%TO.N,GND*%
X61275000Y-87500000D03*
%TO.P,C8,2*%
%TO.N,+3.3V*%
X59725000Y-87500000D03*
%TD*%
D18*
%TO.P,R1,1*%
%TO.N,/VIN*%
X49430000Y-67335000D03*
%TO.P,R1,2*%
%TO.N,/EN*%
X49430000Y-65685000D03*
%TD*%
D15*
%TO.P,J2,1,Pin_1*%
%TO.N,GND*%
X40630000Y-73050000D03*
D16*
%TO.P,J2,2,Pin_2*%
%TO.N,/PWR*%
X40630000Y-70510000D03*
%TD*%
D13*
%TO.P,TP4,1,1*%
%TO.N,/RST#*%
X57730000Y-92910000D03*
%TD*%
D18*
%TO.P,R4,1*%
%TO.N,/FB*%
X68130000Y-64910000D03*
%TO.P,R4,2*%
%TO.N,GND*%
X68130000Y-63260000D03*
%TD*%
D24*
%TO.P,L1,1,1*%
%TO.N,Net-(U1-SW)*%
X54980000Y-71010000D03*
%TO.P,L1,2,2*%
%TO.N,+3.3V*%
X63880000Y-71010000D03*
%TD*%
D25*
%TO.P,R13,1*%
%TO.N,+3.3V*%
X63775000Y-94900000D03*
%TO.P,R13,2*%
%TO.N,/DI1*%
X65425000Y-94900000D03*
%TD*%
D21*
%TO.P,C6,1*%
%TO.N,+3.3V*%
X68230000Y-69685000D03*
%TO.P,C6,2*%
%TO.N,/FB*%
X68230000Y-68135000D03*
%TD*%
D26*
%TO.P,Q4,1,G*%
%TO.N,Net-(Q3-D)*%
X45150000Y-90300000D03*
%TO.P,Q4,2,S*%
%TO.N,Net-(J3-Pin_1)*%
X43850000Y-90300000D03*
%TO.P,Q4,3,D*%
%TO.N,Net-(D6-K)*%
X44500000Y-92300000D03*
%TD*%
D27*
%TO.P,R21,1*%
%TO.N,/CH2*%
X54830000Y-92285000D03*
%TO.P,R21,2*%
%TO.N,GND*%
X54830000Y-93935000D03*
%TD*%
D21*
%TO.P,C7,1*%
%TO.N,+3.3V*%
X66730000Y-69685000D03*
%TO.P,C7,2*%
%TO.N,GND*%
X66730000Y-68135000D03*
%TD*%
D13*
%TO.P,TP2,1,1*%
%TO.N,/AN1*%
X67730000Y-90910000D03*
%TD*%
D22*
%TO.P,Q5,1,G*%
%TO.N,/CH1*%
X53167500Y-82625000D03*
%TO.P,Q5,2,S*%
%TO.N,/CH1_LED*%
X53167500Y-80725000D03*
%TO.P,Q5,3,D*%
%TO.N,GND*%
X51292500Y-81675000D03*
%TD*%
%TO.P,Q6,1,G*%
%TO.N,/CH2*%
X52967500Y-92260000D03*
%TO.P,Q6,2,S*%
%TO.N,/CH2_LED*%
X52967500Y-90360000D03*
%TO.P,Q6,3,D*%
%TO.N,GND*%
X51092500Y-91310000D03*
%TD*%
D13*
%TO.P,TP1,1,1*%
%TO.N,/AN0*%
X67730000Y-88910000D03*
%TD*%
D11*
%TO.P,H3,1,1*%
%TO.N,GND*%
X40430000Y-102010000D03*
D12*
X40430000Y-102010000D03*
%TD*%
D28*
%TO.P,D5,1,K*%
%TO.N,/CH2_LED*%
X46930000Y-88710000D03*
%TO.P,D5,2,A*%
%TO.N,Net-(D5-A)*%
X48505000Y-88710000D03*
%TD*%
D19*
%TO.P,R8,1*%
%TO.N,+3.3V*%
X53580000Y-88710000D03*
%TO.P,R8,2*%
%TO.N,Net-(D5-A)*%
X51930000Y-88710000D03*
%TD*%
D15*
%TO.P,J6,1,Pin_1*%
%TO.N,GND*%
X75700000Y-95350000D03*
D16*
%TO.P,J6,2,Pin_2*%
%TO.N,Net-(J6-Pin_2)*%
X75700000Y-92810000D03*
%TD*%
D22*
%TO.P,Q2,1,G*%
%TO.N,/CH1*%
X49237500Y-82625000D03*
%TO.P,Q2,2,S*%
%TO.N,GND*%
X49237500Y-80725000D03*
%TO.P,Q2,3,D*%
%TO.N,Net-(Q1-G)*%
X47362500Y-81675000D03*
%TD*%
D13*
%TO.P,TP8,1,1*%
%TO.N,GND*%
X57730000Y-94910000D03*
%TD*%
D18*
%TO.P,R18,1*%
%TO.N,/CH1*%
X55130000Y-82735000D03*
%TO.P,R18,2*%
%TO.N,GND*%
X55130000Y-81085000D03*
%TD*%
%TO.P,R2,1*%
%TO.N,+3.3V*%
X69830000Y-69735000D03*
%TO.P,R2,2*%
%TO.N,Net-(R2-Pad2)*%
X69830000Y-68085000D03*
%TD*%
D29*
%TO.P,D1,1,K*%
%TO.N,/VIN*%
X44730000Y-66710000D03*
%TO.P,D1,2,A*%
%TO.N,/PWR*%
X40730000Y-66710000D03*
%TD*%
D21*
%TO.P,C3,1*%
%TO.N,GND*%
X66730000Y-72685000D03*
%TO.P,C3,2*%
%TO.N,+3.3V*%
X66730000Y-71135000D03*
%TD*%
D19*
%TO.P,R12,1*%
%TO.N,Net-(J6-Pin_2)*%
X70325000Y-95025000D03*
%TO.P,R12,2*%
%TO.N,/DI1*%
X68675000Y-95025000D03*
%TD*%
D20*
%TO.P,C9,1*%
%TO.N,GND*%
X72910000Y-81910000D03*
%TO.P,C9,2*%
%TO.N,/AN0*%
X71360000Y-81910000D03*
%TD*%
D15*
%TO.P,J4,1,Pin_1*%
%TO.N,GND*%
X75700000Y-79225000D03*
D16*
%TO.P,J4,2,Pin_2*%
%TO.N,Net-(J4-Pin_2)*%
X75700000Y-76685000D03*
%TO.P,J4,3,Pin_3*%
%TO.N,+3.3V*%
X75700000Y-74145000D03*
%TD*%
D30*
%TO.P,C4,1*%
%TO.N,+3.3V*%
X68330000Y-71135000D03*
%TO.P,C4,2*%
%TO.N,GND*%
X68330000Y-72685000D03*
%TD*%
D25*
%TO.P,R9,1*%
%TO.N,Net-(J3-Pin_1)*%
X43775000Y-88700000D03*
%TO.P,R9,2*%
%TO.N,Net-(Q3-D)*%
X45425000Y-88700000D03*
%TD*%
D13*
%TO.P,TP6,1,1*%
%TO.N,/CH1*%
X57730000Y-88910000D03*
%TD*%
D19*
%TO.P,R14,1*%
%TO.N,+3.3V*%
X62200000Y-94900000D03*
%TO.P,R14,2*%
%TO.N,/RST#*%
X60550000Y-94900000D03*
%TD*%
D25*
%TO.P,R5,1*%
%TO.N,Net-(J1-Pin_1)*%
X44012500Y-79125000D03*
%TO.P,R5,2*%
%TO.N,Net-(Q1-G)*%
X45662500Y-79125000D03*
%TD*%
D21*
%TO.P,C16,1*%
%TO.N,GND*%
X55130000Y-90285000D03*
%TO.P,C16,2*%
%TO.N,+3.3V*%
X55130000Y-88735000D03*
%TD*%
D19*
%TO.P,R10,1*%
%TO.N,Net-(J4-Pin_2)*%
X72955000Y-80310000D03*
%TO.P,R10,2*%
%TO.N,/AN0*%
X71305000Y-80310000D03*
%TD*%
D31*
%TO.P,U1,1,VIN*%
%TO.N,/VIN*%
X51330000Y-67810000D03*
%TO.P,U1,2,SW*%
%TO.N,Net-(U1-SW)*%
X51830000Y-67810000D03*
%TO.P,U1,3,GND*%
%TO.N,GND*%
X52330000Y-67810000D03*
%TO.P,U1,4,BST*%
%TO.N,/BST*%
X52330000Y-66385000D03*
%TO.P,U1,5,EN*%
%TO.N,/EN*%
X51830000Y-66385000D03*
%TO.P,U1,6,FB*%
%TO.N,/FB*%
X51330000Y-66385000D03*
%TD*%
D28*
%TO.P,D3,1,K*%
%TO.N,/CH1_LED*%
X47142500Y-79110000D03*
%TO.P,D3,2,A*%
%TO.N,Net-(D3-A)*%
X48717500Y-79110000D03*
%TD*%
D32*
%TO.P,C1,1*%
%TO.N,/VIN*%
X49430000Y-69010000D03*
%TO.P,C1,2*%
%TO.N,GND*%
X49430000Y-70910000D03*
%TD*%
D15*
%TO.P,J3,1,Pin_1*%
%TO.N,Net-(J3-Pin_1)*%
X40700000Y-89775000D03*
D16*
%TO.P,J3,2,Pin_2*%
%TO.N,Net-(D6-K)*%
X40700000Y-92315000D03*
%TO.P,J3,3,Pin_3*%
%TO.N,GND*%
X40700000Y-94855000D03*
%TD*%
D20*
%TO.P,C15,1*%
%TO.N,GND*%
X56605000Y-79610000D03*
%TO.P,C15,2*%
%TO.N,+3.3V*%
X55055000Y-79610000D03*
%TD*%
D13*
%TO.P,TP7,1,1*%
%TO.N,+3.3V*%
X57730000Y-96910000D03*
%TD*%
D26*
%TO.P,Q1,1,G*%
%TO.N,Net-(Q1-G)*%
X45350000Y-80725000D03*
%TO.P,Q1,2,S*%
%TO.N,Net-(J1-Pin_1)*%
X44050000Y-80725000D03*
%TO.P,Q1,3,D*%
%TO.N,Net-(D2-K)*%
X44700000Y-82725000D03*
%TD*%
D32*
%TO.P,C14,1*%
%TO.N,/VIN*%
X47430000Y-69010000D03*
%TO.P,C14,2*%
%TO.N,GND*%
X47430000Y-70910000D03*
%TD*%
D11*
%TO.P,H1,1,1*%
%TO.N,GND*%
X75430000Y-62010000D03*
D12*
X75430000Y-62010000D03*
%TD*%
D33*
%TO.N,GND*%
X46830000Y-85210000D03*
X58528000Y-65378000D03*
X52940000Y-67156000D03*
X46830000Y-86110000D03*
X56330000Y-63310000D03*
X68430000Y-76510000D03*
X66430000Y-67010000D03*
X65530000Y-72110000D03*
X59930000Y-61510000D03*
X49430000Y-64410000D03*
X65530000Y-73410000D03*
X53130000Y-81610000D03*
X65930000Y-88710000D03*
X68430000Y-74010000D03*
X59925000Y-65378000D03*
X69930000Y-74710000D03*
X69130000Y-75710000D03*
X61630000Y-63310000D03*
X68053000Y-62076000D03*
X52930000Y-76510000D03*
X53530000Y-66210000D03*
X53830000Y-61710000D03*
X66730000Y-73910000D03*
X48430000Y-72010000D03*
X57230000Y-61510000D03*
X45430000Y-76510000D03*
X59930000Y-76510000D03*
X56630000Y-80810000D03*
X54930000Y-95110000D03*
X69430000Y-73010000D03*
X77430000Y-65010000D03*
X53448000Y-67664000D03*
X72130000Y-59910000D03*
X47430000Y-72010000D03*
X40530000Y-75010000D03*
X49430000Y-72010000D03*
X50430000Y-72010000D03*
X65530000Y-68210000D03*
X57258000Y-65378000D03*
X62130000Y-86810000D03*
X47630000Y-90310000D03*
X43130000Y-60110000D03*
X67430000Y-76510000D03*
X66630000Y-63510000D03*
X77130000Y-68010000D03*
X63030000Y-61410000D03*
X73930000Y-80310000D03*
X38530000Y-64610000D03*
X58830000Y-63310000D03*
X54430000Y-76510000D03*
X61195000Y-65378000D03*
X46530000Y-94610000D03*
X49930000Y-76510000D03*
X69450000Y-63219000D03*
X48430000Y-76510000D03*
X40630000Y-76510000D03*
X63527775Y-63351322D03*
X65930000Y-76510000D03*
X56930000Y-76510000D03*
X65430000Y-69510000D03*
X58430000Y-76510000D03*
X50630000Y-64210000D03*
X47830000Y-80710000D03*
X71430000Y-68010000D03*
X47930000Y-65010000D03*
X43930000Y-76510000D03*
X38930000Y-76510000D03*
X62465000Y-65378000D03*
X51430000Y-76510000D03*
X55988000Y-65378000D03*
X52930000Y-91310000D03*
X74430000Y-68010000D03*
X63735000Y-65378000D03*
X61430000Y-76510000D03*
X52940000Y-68172000D03*
X73630000Y-87110000D03*
X65005000Y-65378000D03*
X66130000Y-65910000D03*
X42430000Y-76510000D03*
X64430000Y-76510000D03*
X47630000Y-67410000D03*
X46630000Y-95410000D03*
X67037000Y-97509000D03*
X62930000Y-76510000D03*
X46930000Y-76510000D03*
X55930000Y-76510000D03*
X73030000Y-68010000D03*
%TO.N,/FB*%
X51162000Y-65251000D03*
X65894000Y-64235000D03*
D34*
%TO.N,/AN0*%
X70030000Y-81910000D03*
%TO.N,/AN1*%
X70830000Y-88210000D03*
%TO.N,Net-(J6-Pin_2)*%
X71330000Y-95010000D03*
%TD*%
D35*
%TO.N,Net-(D4-A)*%
X75630000Y-67197501D02*
X75630000Y-68685000D01*
D36*
%TO.N,/VIN*%
X49430000Y-69010000D02*
X50437000Y-69010000D01*
X47090000Y-68670000D02*
X47430000Y-69010000D01*
X50437000Y-69010000D02*
X51162000Y-69735000D01*
X51162000Y-69735000D02*
X51162000Y-67853000D01*
X47430000Y-69010000D02*
X49430000Y-69010000D01*
X47430000Y-69010000D02*
X47030000Y-69010000D01*
X49430000Y-69010000D02*
X49430000Y-67335000D01*
X47030000Y-69010000D02*
X44730000Y-66710000D01*
X51162000Y-67853000D02*
X51205000Y-67810000D01*
D35*
%TO.N,GND*%
X54605000Y-81610000D02*
X53130000Y-81610000D01*
D37*
X48800000Y-85425000D02*
X47045000Y-85425000D01*
D38*
X54930000Y-95110000D02*
X54930000Y-94035000D01*
D37*
X49570000Y-90350000D02*
X49037500Y-90350000D01*
X65860000Y-88710000D02*
X65175000Y-89395000D01*
D38*
X48997500Y-90310000D02*
X49037500Y-90350000D01*
X47630000Y-90310000D02*
X47630000Y-90210000D01*
D35*
X56630000Y-79635000D02*
X56605000Y-79610000D01*
X52476000Y-67664000D02*
X52330000Y-67810000D01*
X54105000Y-91310000D02*
X55130000Y-90285000D01*
X55130000Y-81085000D02*
X56605000Y-79610000D01*
X52930000Y-91310000D02*
X51092500Y-91310000D01*
X52930000Y-91310000D02*
X54105000Y-91310000D01*
X74810000Y-87110000D02*
X75700000Y-88000000D01*
D37*
X75700000Y-95335000D02*
X75390000Y-95025000D01*
D38*
X47630000Y-90310000D02*
X48997500Y-90310000D01*
D35*
X53448000Y-67664000D02*
X52476000Y-67664000D01*
X69105000Y-72685000D02*
X69430000Y-73010000D01*
D37*
X67037000Y-97509000D02*
X67037000Y-96537000D01*
D35*
X62130000Y-86810000D02*
X61965000Y-86810000D01*
D37*
X48315000Y-85425000D02*
X47630000Y-86110000D01*
D38*
X49237500Y-80725000D02*
X47845000Y-80725000D01*
D35*
X56630000Y-80810000D02*
X56630000Y-79635000D01*
D37*
X46630000Y-95410000D02*
X47040000Y-95000000D01*
X47630000Y-86110000D02*
X46830000Y-86110000D01*
D35*
X73930000Y-80310000D02*
X73930000Y-80890000D01*
X52692000Y-68172000D02*
X52330000Y-67810000D01*
X52940000Y-67200000D02*
X52330000Y-67810000D01*
X73930000Y-80310000D02*
X74615000Y-80310000D01*
X53065000Y-81675000D02*
X53130000Y-81610000D01*
X68330000Y-72685000D02*
X69105000Y-72685000D01*
X51292500Y-81675000D02*
X53065000Y-81675000D01*
X72505000Y-87010000D02*
X73530000Y-87010000D01*
X74615000Y-80310000D02*
X75700000Y-79225000D01*
X49065000Y-85160000D02*
X48800000Y-85425000D01*
D37*
X48210000Y-94610000D02*
X48600000Y-95000000D01*
D35*
X61965000Y-86810000D02*
X61275000Y-87500000D01*
X52940000Y-67156000D02*
X52940000Y-67200000D01*
D37*
X48930000Y-85555000D02*
X48800000Y-85425000D01*
D35*
X73930000Y-80890000D02*
X72910000Y-81910000D01*
D37*
X67037000Y-96537000D02*
X67000000Y-96500000D01*
D35*
X73630000Y-87110000D02*
X74810000Y-87110000D01*
D37*
X46530000Y-94610000D02*
X48210000Y-94610000D01*
X65930000Y-88710000D02*
X65860000Y-88710000D01*
D35*
X52940000Y-68172000D02*
X52692000Y-68172000D01*
X55130000Y-81085000D02*
X54605000Y-81610000D01*
D38*
X47845000Y-80725000D02*
X47830000Y-80710000D01*
D37*
X47040000Y-95000000D02*
X48600000Y-95000000D01*
X47045000Y-85425000D02*
X46830000Y-85210000D01*
X48800000Y-85425000D02*
X48315000Y-85425000D01*
D35*
X73530000Y-87010000D02*
X73630000Y-87110000D01*
D38*
X54930000Y-94035000D02*
X54830000Y-93935000D01*
D36*
%TO.N,+3.3V*%
X72697500Y-71142500D02*
X75700000Y-74145000D01*
X66780000Y-69735000D02*
X66730000Y-69685000D01*
X72565000Y-71010000D02*
X72697500Y-71142500D01*
X66730000Y-69685000D02*
X65405000Y-71010000D01*
D35*
X53580000Y-79110000D02*
X54555000Y-79110000D01*
X39230000Y-81510000D02*
X42630000Y-81510000D01*
X53580000Y-88710000D02*
X53580000Y-88485000D01*
X53555000Y-88685000D02*
X53580000Y-88710000D01*
D36*
X63880000Y-71010000D02*
X69958000Y-71010000D01*
X66730000Y-71135000D02*
X66730000Y-69685000D01*
D35*
X54555000Y-79110000D02*
X55055000Y-79610000D01*
X42130000Y-91210000D02*
X39330000Y-91210000D01*
D37*
X63775000Y-94900000D02*
X62200000Y-94900000D01*
D36*
X66605000Y-71010000D02*
X66730000Y-71135000D01*
X59725000Y-88895000D02*
X60225000Y-89395000D01*
X63880000Y-71010000D02*
X66605000Y-71010000D01*
X65405000Y-71010000D02*
X63880000Y-71010000D01*
X69830000Y-69735000D02*
X71290000Y-69735000D01*
X71290000Y-69735000D02*
X72697500Y-71142500D01*
X69830000Y-70882000D02*
X69830000Y-69735000D01*
X68330000Y-69785000D02*
X68230000Y-69685000D01*
X69958000Y-71010000D02*
X69830000Y-70882000D01*
X68330000Y-71135000D02*
X68330000Y-69785000D01*
X69958000Y-71010000D02*
X72565000Y-71010000D01*
X69830000Y-69735000D02*
X66780000Y-69735000D01*
X59725000Y-87500000D02*
X59725000Y-88895000D01*
D37*
%TO.N,/BST*%
X52330000Y-66385000D02*
X52330000Y-65660000D01*
X52330000Y-65660000D02*
X53080000Y-64910000D01*
%TO.N,/FB*%
X68130000Y-64910000D02*
X68130000Y-66360000D01*
X68230000Y-68135000D02*
X68230000Y-66560000D01*
X51162000Y-66217000D02*
X51330000Y-66385000D01*
X51162000Y-65251000D02*
X51162000Y-66217000D01*
X68130000Y-64910000D02*
X66569000Y-64910000D01*
X68230000Y-66560000D02*
X68280000Y-66510000D01*
X68130000Y-66360000D02*
X68280000Y-66510000D01*
X66569000Y-64910000D02*
X65894000Y-64235000D01*
D35*
%TO.N,/AN0*%
X65175000Y-90665000D02*
X66175000Y-90665000D01*
X66175000Y-90665000D02*
X67930000Y-88910000D01*
X71305000Y-81855000D02*
X71360000Y-81910000D01*
X70030000Y-81910000D02*
X71360000Y-81910000D01*
X71305000Y-80310000D02*
X71305000Y-81855000D01*
D37*
%TO.N,/AN1*%
X70955000Y-88085000D02*
X70955000Y-87010000D01*
X70875000Y-86930000D02*
X70955000Y-87010000D01*
D35*
X66905000Y-91935000D02*
X67930000Y-90910000D01*
D37*
X70875000Y-85400000D02*
X70875000Y-86930000D01*
X70830000Y-88210000D02*
X70955000Y-88085000D01*
D35*
X65175000Y-91935000D02*
X66905000Y-91935000D01*
D37*
%TO.N,/DI1*%
X65425000Y-94900000D02*
X68550000Y-94900000D01*
X65175000Y-93205000D02*
X65175000Y-94650000D01*
D35*
X67000000Y-94950000D02*
X67000000Y-93640000D01*
X67000000Y-93640000D02*
X67730000Y-92910000D01*
D37*
X65175000Y-94650000D02*
X65425000Y-94900000D01*
X68550000Y-94900000D02*
X68675000Y-95025000D01*
D36*
%TO.N,/PWR*%
X40630000Y-70510000D02*
X40630000Y-66810000D01*
X40630000Y-66810000D02*
X40730000Y-66710000D01*
%TO.N,Net-(D2-K)*%
X44700000Y-82725000D02*
X44700000Y-85325000D01*
X40700000Y-82640000D02*
X44615000Y-82640000D01*
X44700000Y-85325000D02*
X44800000Y-85425000D01*
X44615000Y-82640000D02*
X44700000Y-82725000D01*
D38*
%TO.N,/CH1_LED*%
X53167500Y-80725000D02*
X53245000Y-80725000D01*
X47942500Y-79910000D02*
X47142500Y-79110000D01*
X53130000Y-80762500D02*
X53167500Y-80725000D01*
X52352500Y-79910000D02*
X47942500Y-79910000D01*
X53167500Y-80725000D02*
X52352500Y-79910000D01*
%TO.N,/CH2_LED*%
X52967500Y-90360000D02*
X52117500Y-89510000D01*
X52930000Y-90397500D02*
X52967500Y-90360000D01*
X52117500Y-89510000D02*
X47730000Y-89510000D01*
X47730000Y-89510000D02*
X46930000Y-88710000D01*
D36*
%TO.N,Net-(D6-K)*%
X44600000Y-92400000D02*
X44500000Y-92300000D01*
X44600000Y-95000000D02*
X44600000Y-92400000D01*
X44485000Y-92315000D02*
X44500000Y-92300000D01*
X40700000Y-92315000D02*
X44485000Y-92315000D01*
%TO.N,Net-(J1-Pin_1)*%
X43425000Y-80100000D02*
X44050000Y-80725000D01*
D37*
X44012500Y-79125000D02*
X44012500Y-80687500D01*
X44012500Y-80687500D02*
X44050000Y-80725000D01*
D36*
X40700000Y-80100000D02*
X43425000Y-80100000D01*
D37*
%TO.N,Net-(J3-Pin_1)*%
X43775000Y-88700000D02*
X43775000Y-90225000D01*
D36*
X40700000Y-89775000D02*
X43325000Y-89775000D01*
X43325000Y-89775000D02*
X43850000Y-90300000D01*
D37*
X43775000Y-90225000D02*
X43850000Y-90300000D01*
%TO.N,Net-(J4-Pin_2)*%
X75700000Y-76685000D02*
X72955000Y-79430000D01*
X72955000Y-79430000D02*
X72955000Y-80310000D01*
%TO.N,Net-(J5-Pin_2)*%
X75305000Y-85400000D02*
X75700000Y-85795000D01*
X72525000Y-85400000D02*
X75305000Y-85400000D01*
D35*
%TO.N,Net-(J6-Pin_2)*%
X71315000Y-95025000D02*
X71330000Y-95010000D01*
X70325000Y-95025000D02*
X71315000Y-95025000D01*
D38*
%TO.N,/CH1*%
X54895000Y-82625000D02*
X53167500Y-82625000D01*
X56430000Y-82710000D02*
X56405000Y-82735000D01*
X53167500Y-82625000D02*
X49237500Y-82625000D01*
X55130000Y-82735000D02*
X55005000Y-82735000D01*
X60225000Y-90665000D02*
X59485000Y-90665000D01*
X57730000Y-84010000D02*
X57730000Y-88910000D01*
X59485000Y-90665000D02*
X57730000Y-88910000D01*
X56430000Y-82710000D02*
X57730000Y-84010000D01*
X56405000Y-82735000D02*
X55130000Y-82735000D01*
X55005000Y-82735000D02*
X54895000Y-82625000D01*
%TO.N,/CH2*%
X54830000Y-92285000D02*
X54555000Y-92285000D01*
X60225000Y-91935000D02*
X58755000Y-91935000D01*
X58755000Y-91935000D02*
X57730000Y-90910000D01*
D35*
X49037500Y-92250000D02*
X52957500Y-92250000D01*
D38*
X54555000Y-92285000D02*
X54530000Y-92260000D01*
X57730000Y-90910000D02*
X56205000Y-90910000D01*
X56205000Y-90910000D02*
X54830000Y-92285000D01*
X54530000Y-92260000D02*
X52967500Y-92260000D01*
D35*
X52957500Y-92250000D02*
X52967500Y-92260000D01*
D37*
%TO.N,/EN*%
X51830000Y-66385000D02*
X51830000Y-66772932D01*
X50767500Y-67022500D02*
X49430000Y-65685000D01*
X51580432Y-67022500D02*
X50767500Y-67022500D01*
X51830000Y-66772932D02*
X51580432Y-67022500D01*
%TO.N,Net-(R2-Pad2)*%
X69830000Y-68085000D02*
X69830000Y-66610000D01*
X69830000Y-66610000D02*
X69930000Y-66510000D01*
%TO.N,/RST#*%
X60225000Y-94575000D02*
X60550000Y-94900000D01*
X60225000Y-93205000D02*
X60225000Y-94575000D01*
D35*
X58025000Y-93205000D02*
X60225000Y-93205000D01*
X60340000Y-95110000D02*
X60550000Y-94900000D01*
X57730000Y-92910000D02*
X58025000Y-93205000D01*
D37*
%TO.N,Net-(U1-SW)*%
X54630000Y-67498000D02*
X52749500Y-69378500D01*
D36*
X54980000Y-71010000D02*
X54381000Y-71010000D01*
X54381000Y-71010000D02*
X52749500Y-69378500D01*
D37*
X51830000Y-67810000D02*
X51830000Y-68459000D01*
X54630000Y-64910000D02*
X54630000Y-67498000D01*
D36*
X52749500Y-69378500D02*
X52114500Y-68743500D01*
D37*
X51830000Y-68459000D02*
X52114500Y-68743500D01*
%TO.N,Net-(Q1-G)*%
X45350000Y-79437500D02*
X45662500Y-79125000D01*
X45350000Y-80725000D02*
X45350000Y-79437500D01*
X45350000Y-80725000D02*
X46300000Y-81675000D01*
X46300000Y-81675000D02*
X47362500Y-81675000D01*
%TO.N,Net-(Q3-D)*%
X46150000Y-91300000D02*
X45150000Y-90300000D01*
X45150000Y-88975000D02*
X45425000Y-88700000D01*
X47162500Y-91300000D02*
X46150000Y-91300000D01*
X45150000Y-90300000D02*
X45150000Y-88975000D01*
D35*
%TO.N,Net-(D3-A)*%
X48717500Y-79110000D02*
X51930000Y-79110000D01*
%TO.N,Net-(D5-A)*%
X48505000Y-88710000D02*
X51930000Y-88710000D01*
%TD*%
%TA.AperFunction,Conductor*%
%TO.N,+3.3V*%
G36*
X77871543Y-69030521D02*
G01*
X77918047Y-69082666D01*
X77930000Y-69135783D01*
X77930000Y-101153123D01*
X77910315Y-101220162D01*
X77857511Y-101265917D01*
X77788353Y-101275861D01*
X77724797Y-101246836D01*
X77688069Y-101191441D01*
X77666340Y-101124568D01*
X77666338Y-101124563D01*
X77537734Y-100851267D01*
X77537733Y-100851264D01*
X77375885Y-100596232D01*
X77183349Y-100363496D01*
X76963162Y-100156726D01*
X76963159Y-100156724D01*
X76963153Y-100156719D01*
X76718806Y-99979191D01*
X76718799Y-99979186D01*
X76718795Y-99979184D01*
X76454104Y-99833668D01*
X76454101Y-99833666D01*
X76454096Y-99833664D01*
X76454095Y-99833663D01*
X76173265Y-99722475D01*
X76173262Y-99722474D01*
X75880695Y-99647357D01*
X75581036Y-99609500D01*
X75581027Y-99609500D01*
X75278973Y-99609500D01*
X75278963Y-99609500D01*
X74979304Y-99647357D01*
X74686737Y-99722474D01*
X74686734Y-99722475D01*
X74405904Y-99833663D01*
X74405903Y-99833664D01*
X74141205Y-99979184D01*
X74141193Y-99979191D01*
X73896846Y-100156719D01*
X73896836Y-100156727D01*
X73676652Y-100363494D01*
X73484111Y-100596236D01*
X73322268Y-100851261D01*
X73322265Y-100851267D01*
X73193661Y-101124563D01*
X73193659Y-101124568D01*
X73100320Y-101411835D01*
X73043719Y-101708546D01*
X73043718Y-101708553D01*
X73024754Y-102009994D01*
X73024754Y-102010005D01*
X73043718Y-102311446D01*
X73043719Y-102311453D01*
X73100320Y-102608164D01*
X73193659Y-102895431D01*
X73193661Y-102895436D01*
X73322265Y-103168732D01*
X73322268Y-103168738D01*
X73484111Y-103423763D01*
X73676652Y-103656505D01*
X73896836Y-103863272D01*
X73896846Y-103863280D01*
X74141193Y-104040808D01*
X74141198Y-104040810D01*
X74141205Y-104040816D01*
X74405896Y-104186332D01*
X74405901Y-104186334D01*
X74405903Y-104186335D01*
X74405904Y-104186336D01*
X74619004Y-104270708D01*
X74674090Y-104313689D01*
X74697193Y-104379628D01*
X74680980Y-104447591D01*
X74630596Y-104495998D01*
X74573357Y-104510000D01*
X41286643Y-104510000D01*
X41219604Y-104490315D01*
X41173849Y-104437511D01*
X41163905Y-104368353D01*
X41192930Y-104304797D01*
X41240996Y-104270708D01*
X41454095Y-104186336D01*
X41454096Y-104186335D01*
X41454094Y-104186335D01*
X41454104Y-104186332D01*
X41718795Y-104040816D01*
X41963162Y-103863274D01*
X42183349Y-103656504D01*
X42375885Y-103423768D01*
X42537733Y-103168736D01*
X42666341Y-102895430D01*
X42759681Y-102608160D01*
X42816280Y-102311457D01*
X42835246Y-102010000D01*
X42816280Y-101708543D01*
X42759681Y-101411840D01*
X42666341Y-101124570D01*
X42537733Y-100851264D01*
X42375885Y-100596232D01*
X42183349Y-100363496D01*
X41963162Y-100156726D01*
X41963159Y-100156724D01*
X41963153Y-100156719D01*
X41718806Y-99979191D01*
X41718799Y-99979186D01*
X41718795Y-99979184D01*
X41454104Y-99833668D01*
X41454101Y-99833666D01*
X41454096Y-99833664D01*
X41454095Y-99833663D01*
X41173265Y-99722475D01*
X41173262Y-99722474D01*
X40880695Y-99647357D01*
X40581036Y-99609500D01*
X40581027Y-99609500D01*
X40278973Y-99609500D01*
X40278963Y-99609500D01*
X39979304Y-99647357D01*
X39686737Y-99722474D01*
X39686734Y-99722475D01*
X39405904Y-99833663D01*
X39405903Y-99833664D01*
X39141205Y-99979184D01*
X39141193Y-99979191D01*
X38896846Y-100156719D01*
X38896836Y-100156727D01*
X38676652Y-100363494D01*
X38484111Y-100596236D01*
X38322268Y-100851261D01*
X38322265Y-100851267D01*
X38193661Y-101124563D01*
X38193659Y-101124568D01*
X38171931Y-101191441D01*
X38132493Y-101249117D01*
X38068135Y-101276315D01*
X37999288Y-101264400D01*
X37947813Y-101217156D01*
X37930000Y-101153123D01*
X37930000Y-97772075D01*
X57221476Y-97772075D01*
X57345462Y-97838348D01*
X57533969Y-97895531D01*
X57533965Y-97895531D01*
X57730000Y-97914838D01*
X57926032Y-97895531D01*
X58114537Y-97838348D01*
X58238523Y-97772076D01*
X58238523Y-97772075D01*
X57730001Y-97263553D01*
X57730000Y-97263553D01*
X57221476Y-97772075D01*
X37930000Y-97772075D01*
X37930000Y-96910000D01*
X56725161Y-96910000D01*
X56744468Y-97106032D01*
X56801651Y-97294539D01*
X56867922Y-97418523D01*
X56867923Y-97418523D01*
X57376446Y-96910000D01*
X57376446Y-96909999D01*
X57326719Y-96860272D01*
X57480000Y-96860272D01*
X57480000Y-96959728D01*
X57518060Y-97051614D01*
X57588386Y-97121940D01*
X57680272Y-97160000D01*
X57779728Y-97160000D01*
X57871614Y-97121940D01*
X57941940Y-97051614D01*
X57980000Y-96959728D01*
X57980000Y-96909999D01*
X58083553Y-96909999D01*
X58083553Y-96910000D01*
X58592075Y-97418523D01*
X58592076Y-97418523D01*
X58658348Y-97294537D01*
X58715531Y-97106032D01*
X58734838Y-96910000D01*
X58715531Y-96713967D01*
X58658348Y-96525462D01*
X58592075Y-96401476D01*
X58083553Y-96909999D01*
X57980000Y-96909999D01*
X57980000Y-96860272D01*
X57941940Y-96768386D01*
X57871614Y-96698060D01*
X57779728Y-96660000D01*
X57680272Y-96660000D01*
X57588386Y-96698060D01*
X57518060Y-96768386D01*
X57480000Y-96860272D01*
X57326719Y-96860272D01*
X56867923Y-96401476D01*
X56801649Y-96525466D01*
X56744468Y-96713967D01*
X56725161Y-96910000D01*
X37930000Y-96910000D01*
X37930000Y-82639999D01*
X39344341Y-82639999D01*
X39344341Y-82640000D01*
X39364936Y-82875403D01*
X39364938Y-82875413D01*
X39426094Y-83103655D01*
X39426096Y-83103659D01*
X39426097Y-83103663D01*
X39486509Y-83233217D01*
X39525965Y-83317830D01*
X39525967Y-83317834D01*
X39661501Y-83511395D01*
X39661506Y-83511402D01*
X39828597Y-83678493D01*
X39828603Y-83678498D01*
X40014158Y-83808425D01*
X40057783Y-83863002D01*
X40064977Y-83932500D01*
X40033454Y-83994855D01*
X40014158Y-84011575D01*
X39828597Y-84141505D01*
X39661505Y-84308597D01*
X39525965Y-84502169D01*
X39525964Y-84502171D01*
X39433640Y-84700162D01*
X39431316Y-84705146D01*
X39426098Y-84716335D01*
X39426094Y-84716344D01*
X39364938Y-84944586D01*
X39364936Y-84944596D01*
X39344341Y-85179999D01*
X39344341Y-85180000D01*
X39364936Y-85415403D01*
X39364938Y-85415413D01*
X39426094Y-85643655D01*
X39426096Y-85643659D01*
X39426097Y-85643663D01*
X39525965Y-85857830D01*
X39525967Y-85857834D01*
X39600730Y-85964606D01*
X39661505Y-86051401D01*
X39828599Y-86218495D01*
X39903584Y-86271000D01*
X40022165Y-86354032D01*
X40022167Y-86354033D01*
X40022170Y-86354035D01*
X40236337Y-86453903D01*
X40236343Y-86453904D01*
X40236344Y-86453905D01*
X40276849Y-86464758D01*
X40464592Y-86515063D01*
X40652918Y-86531539D01*
X40699999Y-86535659D01*
X40700000Y-86535659D01*
X40700001Y-86535659D01*
X40739234Y-86532226D01*
X40935408Y-86515063D01*
X41163663Y-86453903D01*
X41377830Y-86354035D01*
X41571401Y-86218495D01*
X41738495Y-86051401D01*
X41874035Y-85857830D01*
X41973903Y-85643663D01*
X42035063Y-85415408D01*
X42055659Y-85180000D01*
X42035063Y-84944592D01*
X41973903Y-84716337D01*
X41874035Y-84502171D01*
X41859577Y-84481522D01*
X41738494Y-84308597D01*
X41571402Y-84141506D01*
X41571396Y-84141501D01*
X41385842Y-84011575D01*
X41342217Y-83956998D01*
X41335023Y-83887500D01*
X41366546Y-83825145D01*
X41385842Y-83808425D01*
X41415207Y-83787863D01*
X41571401Y-83678495D01*
X41738495Y-83511401D01*
X41786127Y-83443376D01*
X41840704Y-83399751D01*
X41887701Y-83390500D01*
X43825500Y-83390500D01*
X43892539Y-83410185D01*
X43938294Y-83462989D01*
X43949500Y-83514500D01*
X43949500Y-83900500D01*
X43929815Y-83967539D01*
X43877011Y-84013294D01*
X43825502Y-84024500D01*
X43749999Y-84024500D01*
X43749980Y-84024501D01*
X43647203Y-84035000D01*
X43647200Y-84035001D01*
X43480668Y-84090185D01*
X43480663Y-84090187D01*
X43331342Y-84182289D01*
X43207289Y-84306342D01*
X43115187Y-84455663D01*
X43115185Y-84455668D01*
X43106618Y-84481522D01*
X43060001Y-84622203D01*
X43060001Y-84622204D01*
X43060000Y-84622204D01*
X43049500Y-84724983D01*
X43049500Y-86125001D01*
X43049501Y-86125018D01*
X43060000Y-86227796D01*
X43060001Y-86227799D01*
X43115185Y-86394331D01*
X43115187Y-86394336D01*
X43150069Y-86450888D01*
X43207288Y-86543656D01*
X43331344Y-86667712D01*
X43480666Y-86759814D01*
X43647203Y-86814999D01*
X43749991Y-86825500D01*
X45850008Y-86825499D01*
X45952797Y-86814999D01*
X46119334Y-86759814D01*
X46177153Y-86724150D01*
X46244543Y-86705710D01*
X46311207Y-86726632D01*
X46322168Y-86735633D01*
X46322295Y-86735475D01*
X46327737Y-86739815D01*
X46327738Y-86739816D01*
X46359565Y-86759814D01*
X46464101Y-86825499D01*
X46480478Y-86835789D01*
X46620695Y-86884853D01*
X46650745Y-86895368D01*
X46650750Y-86895369D01*
X46829996Y-86915565D01*
X46830000Y-86915565D01*
X46830004Y-86915565D01*
X47009249Y-86895369D01*
X47009252Y-86895368D01*
X47009255Y-86895368D01*
X47179522Y-86835789D01*
X47195899Y-86825499D01*
X47220571Y-86809996D01*
X47324352Y-86744786D01*
X47391586Y-86725786D01*
X47455417Y-86744240D01*
X47480666Y-86759814D01*
X47647203Y-86814999D01*
X47749991Y-86825500D01*
X49850008Y-86825499D01*
X49952797Y-86814999D01*
X50119334Y-86759814D01*
X50268656Y-86667712D01*
X50392712Y-86543656D01*
X50484814Y-86394334D01*
X50539999Y-86227797D01*
X50550500Y-86125009D01*
X50550499Y-84724992D01*
X50539999Y-84622203D01*
X50484814Y-84455666D01*
X50392712Y-84306344D01*
X50268656Y-84182288D01*
X50119334Y-84090186D01*
X49952797Y-84035001D01*
X49952795Y-84035000D01*
X49850010Y-84024500D01*
X47749998Y-84024500D01*
X47749981Y-84024501D01*
X47647203Y-84035000D01*
X47647200Y-84035001D01*
X47480668Y-84090185D01*
X47480663Y-84090187D01*
X47331342Y-84182289D01*
X47207289Y-84306342D01*
X47164482Y-84375744D01*
X47112534Y-84422469D01*
X47043571Y-84433690D01*
X47017991Y-84427689D01*
X47012428Y-84425742D01*
X47009253Y-84424631D01*
X47009246Y-84424630D01*
X46830004Y-84404435D01*
X46829996Y-84404435D01*
X46650746Y-84424631D01*
X46650745Y-84424631D01*
X46592659Y-84444956D01*
X46522880Y-84448517D01*
X46462253Y-84413787D01*
X46446170Y-84393014D01*
X46392712Y-84306344D01*
X46268656Y-84182288D01*
X46119334Y-84090186D01*
X45952797Y-84035001D01*
X45952795Y-84035000D01*
X45850016Y-84024500D01*
X45850009Y-84024500D01*
X45574500Y-84024500D01*
X45507461Y-84004815D01*
X45461706Y-83952011D01*
X45450500Y-83900500D01*
X45450500Y-82651079D01*
X45427882Y-82537376D01*
X45425499Y-82513184D01*
X45425499Y-82425606D01*
X45425498Y-82425584D01*
X45423847Y-82404596D01*
X45422765Y-82390844D01*
X45379555Y-82242113D01*
X45300715Y-82108802D01*
X45300713Y-82108800D01*
X45300710Y-82108796D01*
X45191203Y-81999289D01*
X45191194Y-81999282D01*
X45084794Y-81936358D01*
X45057887Y-81920445D01*
X44909156Y-81877235D01*
X44909153Y-81877234D01*
X44909151Y-81877234D01*
X44878395Y-81874814D01*
X44874405Y-81874500D01*
X44874404Y-81874500D01*
X44525606Y-81874500D01*
X44525584Y-81874501D01*
X44490844Y-81877235D01*
X44490843Y-81877235D01*
X44465571Y-81884577D01*
X44430979Y-81889500D01*
X41887701Y-81889500D01*
X41820662Y-81869815D01*
X41786126Y-81836623D01*
X41738496Y-81768600D01*
X41690081Y-81720185D01*
X41616567Y-81646671D01*
X41583084Y-81585351D01*
X41588068Y-81515659D01*
X41629939Y-81459725D01*
X41660915Y-81442810D01*
X41792331Y-81393796D01*
X41907546Y-81307546D01*
X41993796Y-81192331D01*
X42044091Y-81057483D01*
X42050500Y-80997873D01*
X42050500Y-80974500D01*
X42070185Y-80907461D01*
X42122989Y-80861706D01*
X42174500Y-80850500D01*
X43062770Y-80850500D01*
X43129809Y-80870185D01*
X43150451Y-80886819D01*
X43306542Y-81042910D01*
X43337937Y-81095996D01*
X43370443Y-81207882D01*
X43370444Y-81207885D01*
X43449282Y-81341194D01*
X43449289Y-81341203D01*
X43558796Y-81450710D01*
X43558800Y-81450713D01*
X43558802Y-81450715D01*
X43692113Y-81529555D01*
X43840844Y-81572765D01*
X43875595Y-81575500D01*
X44224404Y-81575499D01*
X44259156Y-81572765D01*
X44407887Y-81529555D01*
X44541198Y-81450715D01*
X44552098Y-81439815D01*
X44612319Y-81379595D01*
X44673642Y-81346110D01*
X44743334Y-81351094D01*
X44787681Y-81379595D01*
X44858796Y-81450710D01*
X44858800Y-81450713D01*
X44858802Y-81450715D01*
X44992113Y-81529555D01*
X45140844Y-81572765D01*
X45175595Y-81575500D01*
X45299901Y-81575499D01*
X45366941Y-81595183D01*
X45387583Y-81611818D01*
X45815139Y-82039374D01*
X45815149Y-82039385D01*
X45819479Y-82043715D01*
X45819480Y-82043716D01*
X45931284Y-82155520D01*
X46006108Y-82198719D01*
X46068215Y-82234577D01*
X46220943Y-82275501D01*
X46254193Y-82275501D01*
X46321232Y-82295186D01*
X46341875Y-82311821D01*
X46373129Y-82343076D01*
X46373133Y-82343079D01*
X46373135Y-82343081D01*
X46514602Y-82426744D01*
X46556224Y-82438836D01*
X46672426Y-82472597D01*
X46672429Y-82472597D01*
X46672431Y-82472598D01*
X46709306Y-82475500D01*
X47875500Y-82475500D01*
X47942539Y-82495185D01*
X47988294Y-82547989D01*
X47999500Y-82599500D01*
X47999500Y-82840701D01*
X48002401Y-82877567D01*
X48002402Y-82877573D01*
X48048254Y-83035393D01*
X48048255Y-83035396D01*
X48048256Y-83035398D01*
X48085681Y-83098681D01*
X48131917Y-83176862D01*
X48131923Y-83176870D01*
X48248129Y-83293076D01*
X48248133Y-83293079D01*
X48248135Y-83293081D01*
X48389602Y-83376744D01*
X48431224Y-83388836D01*
X48547426Y-83422597D01*
X48547429Y-83422597D01*
X48547431Y-83422598D01*
X48584306Y-83425500D01*
X48584314Y-83425500D01*
X49890686Y-83425500D01*
X49890694Y-83425500D01*
X49927569Y-83422598D01*
X49927571Y-83422597D01*
X49927573Y-83422597D01*
X50006208Y-83399751D01*
X50085398Y-83376744D01*
X50226865Y-83293081D01*
X50283128Y-83236817D01*
X50344449Y-83203334D01*
X50370808Y-83200500D01*
X52034192Y-83200500D01*
X52101231Y-83220185D01*
X52121868Y-83236814D01*
X52178135Y-83293081D01*
X52319602Y-83376744D01*
X52361224Y-83388836D01*
X52477426Y-83422597D01*
X52477429Y-83422597D01*
X52477431Y-83422598D01*
X52514306Y-83425500D01*
X52514314Y-83425500D01*
X53820686Y-83425500D01*
X53820694Y-83425500D01*
X53857569Y-83422598D01*
X53857571Y-83422597D01*
X53857573Y-83422597D01*
X53936208Y-83399751D01*
X54015398Y-83376744D01*
X54121915Y-83313749D01*
X54189639Y-83296567D01*
X54255902Y-83318727D01*
X54291153Y-83356332D01*
X54299525Y-83370181D01*
X54299526Y-83370182D01*
X54299528Y-83370185D01*
X54419815Y-83490472D01*
X54565394Y-83578478D01*
X54727804Y-83629086D01*
X54798384Y-83635500D01*
X54798387Y-83635500D01*
X55461613Y-83635500D01*
X55461616Y-83635500D01*
X55532196Y-83629086D01*
X55694606Y-83578478D01*
X55840185Y-83490472D01*
X55960472Y-83370185D01*
X55960474Y-83370180D01*
X55965094Y-83364285D01*
X55966117Y-83365087D01*
X56011904Y-83323160D01*
X56066489Y-83310500D01*
X56165258Y-83310500D01*
X56232297Y-83330185D01*
X56252939Y-83346819D01*
X57118181Y-84212061D01*
X57151666Y-84273384D01*
X57154500Y-84299742D01*
X57154500Y-88029362D01*
X57134815Y-88096401D01*
X57109165Y-88125215D01*
X57019116Y-88199116D01*
X56894090Y-88351460D01*
X56894086Y-88351467D01*
X56801188Y-88525266D01*
X56743975Y-88713870D01*
X56724659Y-88910000D01*
X56743975Y-89106129D01*
X56801188Y-89294733D01*
X56894086Y-89468532D01*
X56894090Y-89468539D01*
X57019116Y-89620883D01*
X57171460Y-89745909D01*
X57171467Y-89745914D01*
X57273856Y-89800642D01*
X57323701Y-89849604D01*
X57339161Y-89917742D01*
X57315329Y-89983422D01*
X57273856Y-90019358D01*
X57171467Y-90074085D01*
X57171460Y-90074090D01*
X57019116Y-90199116D01*
X56945216Y-90289165D01*
X56887471Y-90328499D01*
X56849363Y-90334500D01*
X56229499Y-90334500D01*
X56162460Y-90314815D01*
X56116705Y-90262011D01*
X56105499Y-90210500D01*
X56105499Y-90011662D01*
X56105498Y-90011644D01*
X56095349Y-89912292D01*
X56095348Y-89912289D01*
X56042003Y-89751303D01*
X56041999Y-89751297D01*
X56041998Y-89751294D01*
X55952970Y-89606959D01*
X55952967Y-89606955D01*
X55943339Y-89597327D01*
X55909854Y-89536004D01*
X55914838Y-89466312D01*
X55943345Y-89421959D01*
X55952573Y-89412731D01*
X56041542Y-89268492D01*
X56041547Y-89268481D01*
X56094855Y-89107606D01*
X56104999Y-89008322D01*
X56105000Y-89008309D01*
X56105000Y-88985000D01*
X54101362Y-88985000D01*
X54034323Y-88965315D01*
X54027727Y-88960000D01*
X53704000Y-88960000D01*
X53636961Y-88940315D01*
X53591206Y-88887511D01*
X53580000Y-88836000D01*
X53580000Y-88710000D01*
X53454000Y-88710000D01*
X53386961Y-88690315D01*
X53341206Y-88637511D01*
X53330000Y-88586000D01*
X53330000Y-88460000D01*
X53830000Y-88460000D01*
X54533638Y-88460000D01*
X54600677Y-88479685D01*
X54607273Y-88485000D01*
X54880000Y-88485000D01*
X55380000Y-88485000D01*
X56104999Y-88485000D01*
X56104999Y-88461692D01*
X56104998Y-88461677D01*
X56094855Y-88362392D01*
X56041547Y-88201518D01*
X56041542Y-88201507D01*
X55952575Y-88057271D01*
X55952572Y-88057267D01*
X55832732Y-87937427D01*
X55832728Y-87937424D01*
X55688492Y-87848457D01*
X55688481Y-87848452D01*
X55527606Y-87795144D01*
X55428322Y-87785000D01*
X55380000Y-87785000D01*
X55380000Y-88485000D01*
X54880000Y-88485000D01*
X54880000Y-87785000D01*
X54879999Y-87784999D01*
X54831693Y-87785000D01*
X54831675Y-87785001D01*
X54732392Y-87795144D01*
X54571518Y-87848452D01*
X54571507Y-87848457D01*
X54421121Y-87941218D01*
X54420462Y-87940150D01*
X54362517Y-87963518D01*
X54293877Y-87950467D01*
X54262740Y-87927790D01*
X54214877Y-87879927D01*
X54069395Y-87791980D01*
X54069396Y-87791980D01*
X53907105Y-87741409D01*
X53907106Y-87741409D01*
X53836572Y-87735000D01*
X53830000Y-87735000D01*
X53830000Y-88460000D01*
X53330000Y-88460000D01*
X53330000Y-87735000D01*
X53329999Y-87734999D01*
X53323436Y-87735000D01*
X53323417Y-87735001D01*
X53252897Y-87741408D01*
X53252892Y-87741409D01*
X53090603Y-87791981D01*
X52945122Y-87879927D01*
X52945121Y-87879928D01*
X52843035Y-87982015D01*
X52781712Y-88015500D01*
X52712020Y-88010516D01*
X52667673Y-87982015D01*
X52565188Y-87879530D01*
X52548644Y-87869529D01*
X52419606Y-87791522D01*
X52257196Y-87740914D01*
X52257194Y-87740913D01*
X52257192Y-87740913D01*
X52207778Y-87736423D01*
X52186616Y-87734500D01*
X51673384Y-87734500D01*
X51656746Y-87736012D01*
X51602807Y-87740913D01*
X51440393Y-87791522D01*
X51294811Y-87879530D01*
X51174531Y-87999810D01*
X51174528Y-87999814D01*
X51159514Y-88024651D01*
X51107986Y-88071838D01*
X51053398Y-88084500D01*
X49410265Y-88084500D01*
X49343226Y-88064815D01*
X49304727Y-88025598D01*
X49291781Y-88004609D01*
X49172891Y-87885719D01*
X49172887Y-87885716D01*
X49029795Y-87797455D01*
X49029789Y-87797452D01*
X49029787Y-87797451D01*
X48870185Y-87744564D01*
X48870183Y-87744563D01*
X48771681Y-87734500D01*
X48771674Y-87734500D01*
X48238326Y-87734500D01*
X48238318Y-87734500D01*
X48139816Y-87744563D01*
X48139815Y-87744564D01*
X48060719Y-87770773D01*
X47980215Y-87797450D01*
X47980204Y-87797455D01*
X47837112Y-87885716D01*
X47837108Y-87885719D01*
X47805181Y-87917647D01*
X47743858Y-87951132D01*
X47674166Y-87946148D01*
X47629819Y-87917647D01*
X47597891Y-87885719D01*
X47597887Y-87885716D01*
X47454795Y-87797455D01*
X47454789Y-87797452D01*
X47454787Y-87797451D01*
X47295185Y-87744564D01*
X47295183Y-87744563D01*
X47196681Y-87734500D01*
X47196674Y-87734500D01*
X46663326Y-87734500D01*
X46663318Y-87734500D01*
X46564816Y-87744563D01*
X46564815Y-87744564D01*
X46485719Y-87770773D01*
X46405215Y-87797450D01*
X46405204Y-87797455D01*
X46262112Y-87885716D01*
X46256919Y-87890909D01*
X46195594Y-87924390D01*
X46125903Y-87919403D01*
X46081561Y-87890904D01*
X46060185Y-87869528D01*
X45914606Y-87781522D01*
X45752196Y-87730914D01*
X45752194Y-87730913D01*
X45752192Y-87730913D01*
X45702778Y-87726423D01*
X45681616Y-87724500D01*
X45168384Y-87724500D01*
X45149145Y-87726248D01*
X45097807Y-87730913D01*
X44935393Y-87781522D01*
X44789811Y-87869530D01*
X44789810Y-87869531D01*
X44687681Y-87971661D01*
X44626358Y-88005146D01*
X44556666Y-88000162D01*
X44512319Y-87971661D01*
X44410188Y-87869530D01*
X44408272Y-87868372D01*
X44264606Y-87781522D01*
X44102196Y-87730914D01*
X44102194Y-87730913D01*
X44102192Y-87730913D01*
X44052778Y-87726423D01*
X44031616Y-87724500D01*
X43518384Y-87724500D01*
X43499145Y-87726248D01*
X43447807Y-87730913D01*
X43285393Y-87781522D01*
X43139811Y-87869530D01*
X43019530Y-87989811D01*
X42931522Y-88135393D01*
X42880913Y-88297807D01*
X42880005Y-88307804D01*
X42874696Y-88366234D01*
X42874500Y-88368386D01*
X42874500Y-88900500D01*
X42854815Y-88967539D01*
X42802011Y-89013294D01*
X42750500Y-89024500D01*
X42174499Y-89024500D01*
X42107460Y-89004815D01*
X42061705Y-88952011D01*
X42050499Y-88900500D01*
X42050499Y-88877129D01*
X42050498Y-88877123D01*
X42050497Y-88877116D01*
X42044091Y-88817517D01*
X42036745Y-88797822D01*
X41993797Y-88682671D01*
X41993793Y-88682664D01*
X41907547Y-88567455D01*
X41907544Y-88567452D01*
X41792335Y-88481206D01*
X41792328Y-88481202D01*
X41657482Y-88430908D01*
X41657483Y-88430908D01*
X41597883Y-88424501D01*
X41597881Y-88424500D01*
X41597873Y-88424500D01*
X41597864Y-88424500D01*
X39802129Y-88424500D01*
X39802123Y-88424501D01*
X39742516Y-88430908D01*
X39607671Y-88481202D01*
X39607664Y-88481206D01*
X39492455Y-88567452D01*
X39492452Y-88567455D01*
X39406206Y-88682664D01*
X39406202Y-88682671D01*
X39355908Y-88817517D01*
X39349501Y-88877116D01*
X39349501Y-88877123D01*
X39349500Y-88877135D01*
X39349500Y-90672870D01*
X39349501Y-90672876D01*
X39355908Y-90732483D01*
X39406202Y-90867328D01*
X39406206Y-90867335D01*
X39492452Y-90982544D01*
X39492455Y-90982547D01*
X39607664Y-91068793D01*
X39607671Y-91068797D01*
X39739081Y-91117810D01*
X39795015Y-91159681D01*
X39819432Y-91225145D01*
X39804580Y-91293418D01*
X39783430Y-91321673D01*
X39661503Y-91443600D01*
X39525965Y-91637169D01*
X39525964Y-91637171D01*
X39426098Y-91851335D01*
X39426094Y-91851344D01*
X39364938Y-92079586D01*
X39364936Y-92079596D01*
X39344341Y-92314999D01*
X39344341Y-92315000D01*
X39364936Y-92550403D01*
X39364938Y-92550413D01*
X39426094Y-92778655D01*
X39426096Y-92778659D01*
X39426097Y-92778663D01*
X39512162Y-92963230D01*
X39525965Y-92992830D01*
X39525967Y-92992834D01*
X39634281Y-93147521D01*
X39656692Y-93179528D01*
X39661501Y-93186395D01*
X39661506Y-93186402D01*
X39828597Y-93353493D01*
X39828603Y-93353498D01*
X40014158Y-93483425D01*
X40057783Y-93538002D01*
X40064977Y-93607500D01*
X40033454Y-93669855D01*
X40014158Y-93686575D01*
X39828597Y-93816505D01*
X39661505Y-93983597D01*
X39525965Y-94177169D01*
X39525964Y-94177171D01*
X39426098Y-94391335D01*
X39426094Y-94391344D01*
X39364938Y-94619586D01*
X39364936Y-94619596D01*
X39344341Y-94854999D01*
X39344341Y-94855000D01*
X39364936Y-95090403D01*
X39364938Y-95090413D01*
X39426094Y-95318655D01*
X39426096Y-95318659D01*
X39426097Y-95318663D01*
X39453896Y-95378277D01*
X39525965Y-95532830D01*
X39525967Y-95532834D01*
X39631037Y-95682888D01*
X39661505Y-95726401D01*
X39828599Y-95893495D01*
X39899979Y-95943476D01*
X40022165Y-96029032D01*
X40022167Y-96029033D01*
X40022170Y-96029035D01*
X40236337Y-96128903D01*
X40236343Y-96128904D01*
X40236344Y-96128905D01*
X40262036Y-96135789D01*
X40464592Y-96190063D01*
X40652918Y-96206539D01*
X40699999Y-96210659D01*
X40700000Y-96210659D01*
X40700001Y-96210659D01*
X40739234Y-96207226D01*
X40935408Y-96190063D01*
X41163663Y-96128903D01*
X41377830Y-96029035D01*
X41571401Y-95893495D01*
X41738495Y-95726401D01*
X41874035Y-95532830D01*
X41973903Y-95318663D01*
X42035063Y-95090408D01*
X42055659Y-94855000D01*
X42035063Y-94619592D01*
X41973903Y-94391337D01*
X41874035Y-94177171D01*
X41871989Y-94174248D01*
X41738494Y-93983597D01*
X41571402Y-93816506D01*
X41571396Y-93816501D01*
X41385842Y-93686575D01*
X41342217Y-93631998D01*
X41335023Y-93562500D01*
X41366546Y-93500145D01*
X41385842Y-93483425D01*
X41475442Y-93420686D01*
X41571401Y-93353495D01*
X41738495Y-93186401D01*
X41786127Y-93118376D01*
X41840704Y-93074751D01*
X41887701Y-93065500D01*
X43725500Y-93065500D01*
X43792539Y-93085185D01*
X43838294Y-93137989D01*
X43849500Y-93189500D01*
X43849500Y-93475500D01*
X43829815Y-93542539D01*
X43777011Y-93588294D01*
X43725501Y-93599500D01*
X43549999Y-93599500D01*
X43549980Y-93599501D01*
X43447203Y-93610000D01*
X43447200Y-93610001D01*
X43280668Y-93665185D01*
X43280663Y-93665187D01*
X43131342Y-93757289D01*
X43007289Y-93881342D01*
X42915187Y-94030663D01*
X42915185Y-94030668D01*
X42906723Y-94056206D01*
X42860001Y-94197203D01*
X42860001Y-94197204D01*
X42860000Y-94197204D01*
X42849500Y-94299983D01*
X42849500Y-95700001D01*
X42849501Y-95700018D01*
X42860000Y-95802796D01*
X42860001Y-95802799D01*
X42915185Y-95969331D01*
X42915187Y-95969336D01*
X42921893Y-95980208D01*
X43007288Y-96118656D01*
X43131344Y-96242712D01*
X43280666Y-96334814D01*
X43447203Y-96389999D01*
X43549991Y-96400500D01*
X45650008Y-96400499D01*
X45752797Y-96389999D01*
X45919334Y-96334814D01*
X46068656Y-96242712D01*
X46147676Y-96163692D01*
X46208999Y-96130207D01*
X46276312Y-96134332D01*
X46450737Y-96195366D01*
X46450743Y-96195367D01*
X46450745Y-96195368D01*
X46450746Y-96195368D01*
X46450750Y-96195369D01*
X46629996Y-96215565D01*
X46630000Y-96215565D01*
X46630004Y-96215565D01*
X46809249Y-96195369D01*
X46809252Y-96195368D01*
X46809255Y-96195368D01*
X46809256Y-96195367D01*
X46809259Y-96195367D01*
X46859646Y-96177735D01*
X46939241Y-96149883D01*
X47009018Y-96146321D01*
X47067876Y-96179244D01*
X47131344Y-96242712D01*
X47280666Y-96334814D01*
X47447203Y-96389999D01*
X47549991Y-96400500D01*
X49650008Y-96400499D01*
X49752797Y-96389999D01*
X49919334Y-96334814D01*
X50068656Y-96242712D01*
X50192712Y-96118656D01*
X50284814Y-95969334D01*
X50339999Y-95802797D01*
X50350500Y-95700009D01*
X50350499Y-94299992D01*
X50339999Y-94197203D01*
X50284814Y-94030666D01*
X50192712Y-93881344D01*
X50068656Y-93757288D01*
X49954011Y-93686575D01*
X49919336Y-93665187D01*
X49919331Y-93665185D01*
X49917862Y-93664698D01*
X49752797Y-93610001D01*
X49752795Y-93610000D01*
X49650010Y-93599500D01*
X47549998Y-93599500D01*
X47549981Y-93599501D01*
X47447203Y-93610000D01*
X47447200Y-93610001D01*
X47280668Y-93665185D01*
X47280663Y-93665187D01*
X47131345Y-93757287D01*
X47026036Y-93862596D01*
X46964713Y-93896080D01*
X46895021Y-93891096D01*
X46884551Y-93886633D01*
X46879516Y-93884208D01*
X46709262Y-93824633D01*
X46709249Y-93824630D01*
X46530004Y-93804435D01*
X46529996Y-93804435D01*
X46350747Y-93824631D01*
X46265205Y-93854563D01*
X46195426Y-93858124D01*
X46136570Y-93825202D01*
X46068657Y-93757289D01*
X46068656Y-93757288D01*
X45954011Y-93686575D01*
X45919336Y-93665187D01*
X45919331Y-93665185D01*
X45917862Y-93664698D01*
X45752797Y-93610001D01*
X45752795Y-93610000D01*
X45650016Y-93599500D01*
X45650009Y-93599500D01*
X45474500Y-93599500D01*
X45407461Y-93579815D01*
X45361706Y-93527011D01*
X45350500Y-93475500D01*
X45350500Y-92326079D01*
X45321659Y-92181092D01*
X45321658Y-92181091D01*
X45321658Y-92181087D01*
X45309066Y-92150686D01*
X45265086Y-92044509D01*
X45265085Y-92044508D01*
X45265084Y-92044505D01*
X45240883Y-92008286D01*
X45225992Y-91971506D01*
X45224534Y-91971930D01*
X45179556Y-91817117D01*
X45179555Y-91817113D01*
X45100715Y-91683802D01*
X45100713Y-91683800D01*
X45100710Y-91683796D01*
X44991203Y-91574289D01*
X44991194Y-91574282D01*
X44874356Y-91505185D01*
X44857887Y-91495445D01*
X44709156Y-91452235D01*
X44709153Y-91452234D01*
X44709151Y-91452234D01*
X44678395Y-91449814D01*
X44674405Y-91449500D01*
X44674404Y-91449500D01*
X44325606Y-91449500D01*
X44325584Y-91449501D01*
X44290847Y-91452234D01*
X44290844Y-91452235D01*
X44142113Y-91495445D01*
X44054545Y-91547232D01*
X43991426Y-91564500D01*
X41887701Y-91564500D01*
X41820662Y-91544815D01*
X41786126Y-91511623D01*
X41738496Y-91443600D01*
X41678031Y-91383135D01*
X41616567Y-91321671D01*
X41583084Y-91260351D01*
X41588068Y-91190659D01*
X41629939Y-91134725D01*
X41660915Y-91117810D01*
X41792331Y-91068796D01*
X41907546Y-90982546D01*
X41993796Y-90867331D01*
X42044091Y-90732483D01*
X42050500Y-90672873D01*
X42050500Y-90649500D01*
X42070185Y-90582461D01*
X42122989Y-90536706D01*
X42174500Y-90525500D01*
X42962770Y-90525500D01*
X43029809Y-90545185D01*
X43050451Y-90561819D01*
X43106542Y-90617910D01*
X43137937Y-90670996D01*
X43170443Y-90782882D01*
X43170444Y-90782885D01*
X43249282Y-90916194D01*
X43249289Y-90916203D01*
X43358796Y-91025710D01*
X43358800Y-91025713D01*
X43358802Y-91025715D01*
X43492113Y-91104555D01*
X43640844Y-91147765D01*
X43675595Y-91150500D01*
X44024404Y-91150499D01*
X44059156Y-91147765D01*
X44207887Y-91104555D01*
X44341198Y-91025715D01*
X44375046Y-90991867D01*
X44412319Y-90954595D01*
X44473642Y-90921110D01*
X44543334Y-90926094D01*
X44587681Y-90954595D01*
X44658796Y-91025710D01*
X44658800Y-91025713D01*
X44658802Y-91025715D01*
X44792113Y-91104555D01*
X44940844Y-91147765D01*
X44975595Y-91150500D01*
X45099901Y-91150499D01*
X45166941Y-91170183D01*
X45187582Y-91186817D01*
X45781284Y-91780520D01*
X45781286Y-91780521D01*
X45781290Y-91780524D01*
X45844672Y-91817117D01*
X45918216Y-91859577D01*
X46070943Y-91900501D01*
X46070945Y-91900501D01*
X46078793Y-91902604D01*
X46078325Y-91904350D01*
X46132961Y-91928515D01*
X46140567Y-91935513D01*
X46173129Y-91968076D01*
X46173133Y-91968079D01*
X46173135Y-91968081D01*
X46314602Y-92051744D01*
X46356224Y-92063836D01*
X46472426Y-92097597D01*
X46472429Y-92097597D01*
X46472431Y-92097598D01*
X46509306Y-92100500D01*
X47675500Y-92100500D01*
X47742539Y-92120185D01*
X47788294Y-92172989D01*
X47799500Y-92224500D01*
X47799500Y-92465701D01*
X47802401Y-92502567D01*
X47802402Y-92502573D01*
X47848254Y-92660393D01*
X47848255Y-92660396D01*
X47931917Y-92801862D01*
X47931923Y-92801870D01*
X48048129Y-92918076D01*
X48048133Y-92918079D01*
X48048135Y-92918081D01*
X48189602Y-93001744D01*
X48224022Y-93011744D01*
X48347426Y-93047597D01*
X48347429Y-93047597D01*
X48347431Y-93047598D01*
X48384306Y-93050500D01*
X48384314Y-93050500D01*
X49690686Y-93050500D01*
X49690694Y-93050500D01*
X49727569Y-93047598D01*
X49727571Y-93047597D01*
X49727573Y-93047597D01*
X49769191Y-93035505D01*
X49885398Y-93001744D01*
X50026865Y-92918081D01*
X50026870Y-92918076D01*
X50033128Y-92911819D01*
X50094451Y-92878334D01*
X50120809Y-92875500D01*
X51874191Y-92875500D01*
X51941230Y-92895185D01*
X51961872Y-92911819D01*
X51978129Y-92928076D01*
X51978133Y-92928079D01*
X51978135Y-92928081D01*
X52119602Y-93011744D01*
X52155998Y-93022318D01*
X52277426Y-93057597D01*
X52277429Y-93057597D01*
X52277431Y-93057598D01*
X52314306Y-93060500D01*
X52314314Y-93060500D01*
X53620686Y-93060500D01*
X53620694Y-93060500D01*
X53657569Y-93057598D01*
X53657571Y-93057597D01*
X53657573Y-93057597D01*
X53815392Y-93011746D01*
X53815392Y-93011745D01*
X53815398Y-93011744D01*
X53905848Y-92958251D01*
X53973568Y-92941070D01*
X54039831Y-92963230D01*
X54056647Y-92977304D01*
X54101661Y-93022318D01*
X54135146Y-93083641D01*
X54130162Y-93153333D01*
X54101662Y-93197680D01*
X53999529Y-93299813D01*
X53911522Y-93445393D01*
X53860913Y-93607807D01*
X53859725Y-93620883D01*
X53854500Y-93678384D01*
X53854500Y-94191616D01*
X53855008Y-94197203D01*
X53860913Y-94262192D01*
X53860913Y-94262194D01*
X53860914Y-94262196D01*
X53911522Y-94424606D01*
X53972373Y-94525266D01*
X53999530Y-94570188D01*
X54119809Y-94690467D01*
X54119811Y-94690468D01*
X54119815Y-94690472D01*
X54123559Y-94692735D01*
X54170746Y-94744260D01*
X54182586Y-94813119D01*
X54176452Y-94839806D01*
X54144632Y-94930742D01*
X54144630Y-94930750D01*
X54124435Y-95109996D01*
X54124435Y-95110003D01*
X54144630Y-95289249D01*
X54144631Y-95289254D01*
X54204211Y-95459523D01*
X54250276Y-95532834D01*
X54300184Y-95612262D01*
X54427738Y-95739816D01*
X54449260Y-95753339D01*
X54552195Y-95818018D01*
X54580478Y-95835789D01*
X54681511Y-95871142D01*
X54750745Y-95895368D01*
X54750750Y-95895369D01*
X54929996Y-95915565D01*
X54930000Y-95915565D01*
X54930004Y-95915565D01*
X55109249Y-95895369D01*
X55109252Y-95895368D01*
X55109255Y-95895368D01*
X55279522Y-95835789D01*
X55432262Y-95739816D01*
X55559816Y-95612262D01*
X55655789Y-95459522D01*
X55715368Y-95289255D01*
X55715369Y-95289249D01*
X55735565Y-95110003D01*
X55735565Y-95109996D01*
X55715369Y-94930750D01*
X55715366Y-94930737D01*
X55655791Y-94760482D01*
X55655789Y-94760479D01*
X55655789Y-94760478D01*
X55636775Y-94730218D01*
X55617777Y-94662982D01*
X55638146Y-94596147D01*
X55654094Y-94576563D01*
X55654585Y-94576071D01*
X55660472Y-94570185D01*
X55748478Y-94424606D01*
X55799086Y-94262196D01*
X55805500Y-94191616D01*
X55805500Y-93678384D01*
X55799086Y-93607804D01*
X55748478Y-93445394D01*
X55660472Y-93299815D01*
X55660470Y-93299813D01*
X55660469Y-93299811D01*
X55558339Y-93197681D01*
X55524854Y-93136358D01*
X55529838Y-93066666D01*
X55558339Y-93022319D01*
X55660468Y-92920189D01*
X55660469Y-92920188D01*
X55660472Y-92920185D01*
X55748478Y-92774606D01*
X55799086Y-92612196D01*
X55805500Y-92541616D01*
X55805500Y-92174742D01*
X55825185Y-92107703D01*
X55841819Y-92087061D01*
X56407061Y-91521819D01*
X56468384Y-91488334D01*
X56494742Y-91485500D01*
X56849363Y-91485500D01*
X56916402Y-91505185D01*
X56945216Y-91530835D01*
X57019116Y-91620883D01*
X57171460Y-91745909D01*
X57171467Y-91745914D01*
X57273856Y-91800642D01*
X57323701Y-91849604D01*
X57339161Y-91917742D01*
X57315329Y-91983422D01*
X57273856Y-92019358D01*
X57171467Y-92074085D01*
X57171460Y-92074090D01*
X57019116Y-92199116D01*
X56894090Y-92351460D01*
X56894086Y-92351467D01*
X56801188Y-92525266D01*
X56743975Y-92713870D01*
X56724659Y-92910000D01*
X56743975Y-93106129D01*
X56743976Y-93106132D01*
X56768325Y-93186401D01*
X56801188Y-93294733D01*
X56894086Y-93468532D01*
X56894090Y-93468539D01*
X57019116Y-93620883D01*
X57171460Y-93745909D01*
X57171467Y-93745914D01*
X57273856Y-93800642D01*
X57323701Y-93849604D01*
X57339161Y-93917742D01*
X57315329Y-93983422D01*
X57273856Y-94019358D01*
X57171467Y-94074085D01*
X57171460Y-94074090D01*
X57019116Y-94199116D01*
X56894090Y-94351460D01*
X56894086Y-94351467D01*
X56801188Y-94525266D01*
X56743975Y-94713870D01*
X56724659Y-94910000D01*
X56743975Y-95106129D01*
X56743976Y-95106132D01*
X56782040Y-95231613D01*
X56801188Y-95294733D01*
X56894086Y-95468532D01*
X56894090Y-95468539D01*
X57019116Y-95620883D01*
X57171460Y-95745909D01*
X57171467Y-95745913D01*
X57274387Y-95800925D01*
X57324231Y-95849887D01*
X57339692Y-95918024D01*
X57315861Y-95983704D01*
X57274387Y-96019641D01*
X57221476Y-96047922D01*
X57221476Y-96047923D01*
X57730000Y-96556446D01*
X57730001Y-96556446D01*
X58238523Y-96047923D01*
X58238523Y-96047922D01*
X58185612Y-96019641D01*
X58135767Y-95970679D01*
X58120307Y-95902541D01*
X58144139Y-95836861D01*
X58185611Y-95800925D01*
X58288538Y-95745910D01*
X58440883Y-95620883D01*
X58565910Y-95468538D01*
X58614156Y-95378277D01*
X58658811Y-95294733D01*
X58658811Y-95294732D01*
X58658814Y-95294727D01*
X58716024Y-95106132D01*
X58735341Y-94910000D01*
X58716024Y-94713868D01*
X58658814Y-94525273D01*
X58658811Y-94525269D01*
X58658811Y-94525266D01*
X58565913Y-94351467D01*
X58565909Y-94351460D01*
X58440883Y-94199116D01*
X58288539Y-94074090D01*
X58288532Y-94074086D01*
X58269397Y-94063858D01*
X58219553Y-94014896D01*
X58204092Y-93946758D01*
X58227924Y-93881078D01*
X58283481Y-93838710D01*
X58327850Y-93830500D01*
X58904191Y-93830500D01*
X58971230Y-93850185D01*
X58991872Y-93866819D01*
X58998129Y-93873076D01*
X58998133Y-93873079D01*
X58998135Y-93873081D01*
X59139602Y-93956744D01*
X59144428Y-93958146D01*
X59297426Y-94002597D01*
X59297429Y-94002597D01*
X59297431Y-94002598D01*
X59334306Y-94005500D01*
X59500500Y-94005500D01*
X59567539Y-94025185D01*
X59613294Y-94077989D01*
X59624500Y-94129500D01*
X59624500Y-94488330D01*
X59624499Y-94488348D01*
X59624499Y-94495943D01*
X59624499Y-94654057D01*
X59640526Y-94713868D01*
X59645275Y-94731592D01*
X59649500Y-94763686D01*
X59649500Y-95231613D01*
X59655913Y-95302192D01*
X59655913Y-95302194D01*
X59655914Y-95302196D01*
X59706522Y-95464606D01*
X59789588Y-95602014D01*
X59794530Y-95610188D01*
X59914811Y-95730469D01*
X59914813Y-95730470D01*
X59914815Y-95730472D01*
X60060394Y-95818478D01*
X60222804Y-95869086D01*
X60293384Y-95875500D01*
X60293387Y-95875500D01*
X60806613Y-95875500D01*
X60806616Y-95875500D01*
X60877196Y-95869086D01*
X61039606Y-95818478D01*
X61185185Y-95730472D01*
X61287673Y-95627983D01*
X61348994Y-95594499D01*
X61418685Y-95599483D01*
X61463034Y-95627984D01*
X61565122Y-95730072D01*
X61710604Y-95818019D01*
X61710603Y-95818019D01*
X61872894Y-95868590D01*
X61872893Y-95868590D01*
X61943408Y-95874998D01*
X61943426Y-95874999D01*
X62450000Y-95874999D01*
X62456581Y-95874999D01*
X62527102Y-95868591D01*
X62527107Y-95868590D01*
X62689396Y-95818018D01*
X62834875Y-95730073D01*
X62899818Y-95665130D01*
X62961141Y-95631645D01*
X63030833Y-95636629D01*
X63075182Y-95665130D01*
X63140124Y-95730073D01*
X63285604Y-95818019D01*
X63285603Y-95818019D01*
X63447894Y-95868590D01*
X63447893Y-95868590D01*
X63518408Y-95874998D01*
X63518426Y-95874999D01*
X63524999Y-95874998D01*
X63525000Y-95874998D01*
X63525000Y-95150000D01*
X62450000Y-95150000D01*
X62450000Y-95874999D01*
X61943426Y-95874999D01*
X61949999Y-95874998D01*
X61950000Y-95874998D01*
X61950000Y-93925000D01*
X62450000Y-93925000D01*
X62450000Y-94650000D01*
X63525000Y-94650000D01*
X63525000Y-93925000D01*
X63524999Y-93924999D01*
X63518436Y-93925000D01*
X63518417Y-93925001D01*
X63447897Y-93931408D01*
X63447892Y-93931409D01*
X63285603Y-93981981D01*
X63140122Y-94069927D01*
X63140121Y-94069928D01*
X63075181Y-94134869D01*
X63013858Y-94168354D01*
X62944166Y-94163370D01*
X62899819Y-94134869D01*
X62834877Y-94069927D01*
X62689395Y-93981980D01*
X62689396Y-93981980D01*
X62527105Y-93931409D01*
X62527106Y-93931409D01*
X62456572Y-93925000D01*
X62450000Y-93925000D01*
X61950000Y-93925000D01*
X61949999Y-93924999D01*
X61943436Y-93925000D01*
X61943417Y-93925001D01*
X61872897Y-93931408D01*
X61872892Y-93931409D01*
X61710601Y-93981981D01*
X61710599Y-93981982D01*
X61654952Y-94015622D01*
X61587397Y-94033458D01*
X61520924Y-94011940D01*
X61476636Y-93957899D01*
X61468596Y-93888493D01*
X61499356Y-93825759D01*
X61503099Y-93821846D01*
X61568081Y-93756865D01*
X61651744Y-93615398D01*
X61697598Y-93457569D01*
X61700500Y-93420694D01*
X61700500Y-92989306D01*
X61697598Y-92952431D01*
X61694297Y-92941070D01*
X61663836Y-92836224D01*
X61651744Y-92794602D01*
X61568081Y-92653135D01*
X61568078Y-92653132D01*
X61563298Y-92646969D01*
X61565750Y-92645066D01*
X61539155Y-92596421D01*
X61544104Y-92526726D01*
X61564940Y-92494304D01*
X61563298Y-92493031D01*
X61568075Y-92486870D01*
X61568081Y-92486865D01*
X61651744Y-92345398D01*
X61697598Y-92187569D01*
X61700500Y-92150694D01*
X61700500Y-91719306D01*
X61697598Y-91682431D01*
X61684098Y-91635965D01*
X61651745Y-91524606D01*
X61651744Y-91524603D01*
X61651744Y-91524602D01*
X61568081Y-91383135D01*
X61568078Y-91383132D01*
X61563298Y-91376969D01*
X61565750Y-91375066D01*
X61539155Y-91326421D01*
X61544104Y-91256726D01*
X61564940Y-91224304D01*
X61563298Y-91223031D01*
X61568075Y-91216870D01*
X61568081Y-91216865D01*
X61651744Y-91075398D01*
X61697598Y-90917569D01*
X61700500Y-90880694D01*
X61700500Y-90449306D01*
X61697598Y-90412431D01*
X61651744Y-90254602D01*
X61568081Y-90113135D01*
X61568078Y-90113132D01*
X61563298Y-90106969D01*
X61565635Y-90105155D01*
X61538798Y-90056050D01*
X61543756Y-89986356D01*
X61564554Y-89953998D01*
X61562903Y-89952717D01*
X61567686Y-89946550D01*
X61651281Y-89805198D01*
X61697100Y-89647486D01*
X61697295Y-89645001D01*
X61697295Y-89645000D01*
X60349000Y-89645000D01*
X60281961Y-89625315D01*
X60236206Y-89572511D01*
X60225000Y-89521000D01*
X60225000Y-89269000D01*
X60244685Y-89201961D01*
X60270839Y-89179298D01*
X63699500Y-89179298D01*
X63699500Y-89610701D01*
X63702401Y-89647567D01*
X63702402Y-89647573D01*
X63748254Y-89805393D01*
X63748255Y-89805396D01*
X63831917Y-89946862D01*
X63836702Y-89953031D01*
X63834256Y-89954927D01*
X63860857Y-90003642D01*
X63855873Y-90073334D01*
X63835069Y-90105703D01*
X63836702Y-90106969D01*
X63831917Y-90113137D01*
X63748255Y-90254603D01*
X63748254Y-90254606D01*
X63702402Y-90412426D01*
X63702401Y-90412432D01*
X63699500Y-90449298D01*
X63699500Y-90880701D01*
X63702401Y-90917567D01*
X63702402Y-90917573D01*
X63748254Y-91075393D01*
X63748255Y-91075396D01*
X63831917Y-91216862D01*
X63836702Y-91223031D01*
X63834256Y-91224927D01*
X63860857Y-91273642D01*
X63855873Y-91343334D01*
X63835069Y-91375703D01*
X63836702Y-91376969D01*
X63831917Y-91383137D01*
X63748255Y-91524603D01*
X63748254Y-91524606D01*
X63702402Y-91682426D01*
X63702401Y-91682432D01*
X63699500Y-91719298D01*
X63699500Y-92150701D01*
X63702401Y-92187567D01*
X63702402Y-92187573D01*
X63748254Y-92345393D01*
X63748255Y-92345396D01*
X63748256Y-92345398D01*
X63751841Y-92351460D01*
X63831917Y-92486862D01*
X63836702Y-92493031D01*
X63834256Y-92494927D01*
X63860857Y-92543642D01*
X63855873Y-92613334D01*
X63835069Y-92645703D01*
X63836702Y-92646969D01*
X63831917Y-92653137D01*
X63748255Y-92794603D01*
X63748254Y-92794606D01*
X63702402Y-92952426D01*
X63702401Y-92952432D01*
X63699500Y-92989298D01*
X63699500Y-93420701D01*
X63702401Y-93457567D01*
X63702402Y-93457573D01*
X63748254Y-93615393D01*
X63748255Y-93615396D01*
X63831917Y-93756862D01*
X63831923Y-93756870D01*
X63948129Y-93873076D01*
X63948132Y-93873078D01*
X63948135Y-93873081D01*
X63964120Y-93882535D01*
X64011804Y-93933603D01*
X64025000Y-93989267D01*
X64025000Y-95874999D01*
X64031581Y-95874999D01*
X64102102Y-95868591D01*
X64102107Y-95868590D01*
X64264396Y-95818018D01*
X64409877Y-95730072D01*
X64409878Y-95730071D01*
X64511963Y-95627985D01*
X64573286Y-95594499D01*
X64642977Y-95599483D01*
X64687326Y-95627984D01*
X64789811Y-95730469D01*
X64789813Y-95730470D01*
X64789815Y-95730472D01*
X64935394Y-95818478D01*
X65097804Y-95869086D01*
X65168384Y-95875500D01*
X65168387Y-95875500D01*
X65681613Y-95875500D01*
X65681616Y-95875500D01*
X65752196Y-95869086D01*
X65914606Y-95818478D01*
X65914612Y-95818474D01*
X65918577Y-95816690D01*
X65921749Y-95816251D01*
X65921767Y-95816246D01*
X65921767Y-95816248D01*
X65987789Y-95807123D01*
X66051185Y-95836493D01*
X66088639Y-95895476D01*
X66088259Y-95965345D01*
X66087180Y-95968766D01*
X66034651Y-96127288D01*
X66024500Y-96226647D01*
X66024500Y-96773337D01*
X66024501Y-96773355D01*
X66034650Y-96872707D01*
X66034651Y-96872710D01*
X66087996Y-97033694D01*
X66088001Y-97033705D01*
X66177029Y-97178040D01*
X66177032Y-97178044D01*
X66217499Y-97218511D01*
X66250984Y-97279834D01*
X66250770Y-97322640D01*
X66252411Y-97322825D01*
X66231435Y-97508996D01*
X66231435Y-97509003D01*
X66251630Y-97688249D01*
X66251631Y-97688254D01*
X66311211Y-97858523D01*
X66407184Y-98011262D01*
X66534738Y-98138816D01*
X66687478Y-98234789D01*
X66857745Y-98294368D01*
X66857750Y-98294369D01*
X67036996Y-98314565D01*
X67037000Y-98314565D01*
X67037004Y-98314565D01*
X67216249Y-98294369D01*
X67216252Y-98294368D01*
X67216255Y-98294368D01*
X67386522Y-98234789D01*
X67539262Y-98138816D01*
X67666816Y-98011262D01*
X67762789Y-97858522D01*
X67822368Y-97688255D01*
X67842565Y-97509000D01*
X67832371Y-97418523D01*
X67822369Y-97329748D01*
X67822368Y-97329745D01*
X67808229Y-97289341D01*
X67804667Y-97219564D01*
X67819733Y-97183290D01*
X67911998Y-97033705D01*
X67911997Y-97033705D01*
X67912003Y-97033697D01*
X67965349Y-96872708D01*
X67975500Y-96773345D01*
X67975499Y-96226656D01*
X67965349Y-96127292D01*
X67939748Y-96050035D01*
X67937347Y-95980208D01*
X67973079Y-95920166D01*
X68035599Y-95888973D01*
X68105059Y-95896534D01*
X68121599Y-95904912D01*
X68185394Y-95943478D01*
X68347804Y-95994086D01*
X68418384Y-96000500D01*
X68418387Y-96000500D01*
X68931613Y-96000500D01*
X68931616Y-96000500D01*
X69002196Y-95994086D01*
X69164606Y-95943478D01*
X69310185Y-95855472D01*
X69358534Y-95807123D01*
X69412319Y-95753339D01*
X69473642Y-95719854D01*
X69543334Y-95724838D01*
X69587681Y-95753339D01*
X69689811Y-95855469D01*
X69689813Y-95855470D01*
X69689815Y-95855472D01*
X69835394Y-95943478D01*
X69997804Y-95994086D01*
X70068384Y-96000500D01*
X70068387Y-96000500D01*
X70581613Y-96000500D01*
X70581616Y-96000500D01*
X70652196Y-95994086D01*
X70814606Y-95943478D01*
X70928011Y-95874921D01*
X70995564Y-95857086D01*
X71042593Y-95867758D01*
X71050197Y-95871144D01*
X71235354Y-95910500D01*
X71235355Y-95910500D01*
X71424644Y-95910500D01*
X71424646Y-95910500D01*
X71609803Y-95871144D01*
X71782730Y-95794151D01*
X71935871Y-95682888D01*
X72062533Y-95542216D01*
X72157179Y-95378284D01*
X72215674Y-95198256D01*
X72235460Y-95010000D01*
X72215674Y-94821744D01*
X72157179Y-94641716D01*
X72062533Y-94477784D01*
X71935871Y-94337112D01*
X71935870Y-94337111D01*
X71782734Y-94225851D01*
X71782729Y-94225848D01*
X71609807Y-94148857D01*
X71609802Y-94148855D01*
X71464001Y-94117865D01*
X71424646Y-94109500D01*
X71235354Y-94109500D01*
X71195999Y-94117865D01*
X71050198Y-94148855D01*
X71050193Y-94148857D01*
X71014016Y-94164964D01*
X70944766Y-94174248D01*
X70899433Y-94157801D01*
X70814608Y-94106523D01*
X70814607Y-94106522D01*
X70814606Y-94106522D01*
X70652196Y-94055914D01*
X70652194Y-94055913D01*
X70652192Y-94055913D01*
X70602778Y-94051423D01*
X70581616Y-94049500D01*
X70068384Y-94049500D01*
X70049145Y-94051248D01*
X69997807Y-94055913D01*
X69835393Y-94106522D01*
X69689811Y-94194530D01*
X69689810Y-94194531D01*
X69587681Y-94296661D01*
X69526358Y-94330146D01*
X69456666Y-94325162D01*
X69412319Y-94296661D01*
X69310188Y-94194530D01*
X69304853Y-94191305D01*
X69164606Y-94106522D01*
X69002196Y-94055914D01*
X69002194Y-94055913D01*
X69002192Y-94055913D01*
X68952778Y-94051423D01*
X68931616Y-94049500D01*
X68418384Y-94049500D01*
X68399145Y-94051248D01*
X68347807Y-94055913D01*
X68185393Y-94106522D01*
X68039811Y-94194530D01*
X68039810Y-94194531D01*
X67980358Y-94253984D01*
X67919035Y-94287469D01*
X67849343Y-94282485D01*
X67804997Y-94253985D01*
X67703044Y-94152032D01*
X67688627Y-94143139D01*
X67641905Y-94091190D01*
X67630685Y-94022227D01*
X67658530Y-93958146D01*
X67716600Y-93919292D01*
X67741565Y-93914201D01*
X67926132Y-93896024D01*
X68114727Y-93838814D01*
X68130282Y-93830500D01*
X68268033Y-93756870D01*
X68288538Y-93745910D01*
X68440883Y-93620883D01*
X68565910Y-93468538D01*
X68627403Y-93353493D01*
X68658811Y-93294733D01*
X68658811Y-93294732D01*
X68658814Y-93294727D01*
X68716024Y-93106132D01*
X68735341Y-92910000D01*
X68725492Y-92809999D01*
X74344341Y-92809999D01*
X74344341Y-92810000D01*
X74364936Y-93045403D01*
X74364938Y-93045413D01*
X74426094Y-93273655D01*
X74426096Y-93273659D01*
X74426097Y-93273663D01*
X74463325Y-93353498D01*
X74525965Y-93487830D01*
X74525967Y-93487834D01*
X74604157Y-93599500D01*
X74661501Y-93681396D01*
X74661506Y-93681402D01*
X74783430Y-93803326D01*
X74816915Y-93864649D01*
X74811931Y-93934341D01*
X74770059Y-93990274D01*
X74739083Y-94007189D01*
X74607669Y-94056203D01*
X74607664Y-94056206D01*
X74492455Y-94142452D01*
X74492452Y-94142455D01*
X74406206Y-94257664D01*
X74406202Y-94257671D01*
X74355908Y-94392517D01*
X74349501Y-94452116D01*
X74349501Y-94452123D01*
X74349500Y-94452135D01*
X74349500Y-96247870D01*
X74349501Y-96247876D01*
X74355908Y-96307483D01*
X74406202Y-96442328D01*
X74406206Y-96442335D01*
X74492452Y-96557544D01*
X74492455Y-96557547D01*
X74607664Y-96643793D01*
X74607671Y-96643797D01*
X74742517Y-96694091D01*
X74742516Y-96694091D01*
X74749444Y-96694835D01*
X74802127Y-96700500D01*
X76597872Y-96700499D01*
X76657483Y-96694091D01*
X76792331Y-96643796D01*
X76907546Y-96557546D01*
X76993796Y-96442331D01*
X77044091Y-96307483D01*
X77050500Y-96247873D01*
X77050499Y-94452128D01*
X77044091Y-94392517D01*
X77043653Y-94391344D01*
X76993797Y-94257671D01*
X76993793Y-94257664D01*
X76907547Y-94142455D01*
X76907544Y-94142452D01*
X76792335Y-94056206D01*
X76792328Y-94056202D01*
X76660917Y-94007189D01*
X76604983Y-93965318D01*
X76580566Y-93899853D01*
X76595418Y-93831580D01*
X76616563Y-93803332D01*
X76738495Y-93681401D01*
X76874035Y-93487830D01*
X76973903Y-93273663D01*
X77035063Y-93045408D01*
X77055659Y-92810000D01*
X77035063Y-92574592D01*
X76973903Y-92346337D01*
X76874035Y-92132171D01*
X76865643Y-92120185D01*
X76738494Y-91938597D01*
X76571402Y-91771506D01*
X76571395Y-91771501D01*
X76377834Y-91635967D01*
X76377830Y-91635965D01*
X76377828Y-91635964D01*
X76163663Y-91536097D01*
X76163659Y-91536096D01*
X76163655Y-91536094D01*
X75935413Y-91474938D01*
X75935403Y-91474936D01*
X75700001Y-91454341D01*
X75699999Y-91454341D01*
X75464596Y-91474936D01*
X75464586Y-91474938D01*
X75236344Y-91536094D01*
X75236335Y-91536098D01*
X75022171Y-91635964D01*
X75022169Y-91635965D01*
X74828597Y-91771505D01*
X74661505Y-91938597D01*
X74525965Y-92132169D01*
X74525964Y-92132171D01*
X74426098Y-92346335D01*
X74426094Y-92346344D01*
X74364938Y-92574586D01*
X74364936Y-92574596D01*
X74344341Y-92809999D01*
X68725492Y-92809999D01*
X68716024Y-92713868D01*
X68658814Y-92525273D01*
X68658811Y-92525269D01*
X68658811Y-92525266D01*
X68565913Y-92351467D01*
X68565909Y-92351460D01*
X68440883Y-92199116D01*
X68288539Y-92074090D01*
X68288532Y-92074086D01*
X68186143Y-92019358D01*
X68136299Y-91970396D01*
X68120838Y-91902258D01*
X68144670Y-91836579D01*
X68186143Y-91800642D01*
X68264690Y-91758657D01*
X68288538Y-91745910D01*
X68440883Y-91620883D01*
X68565910Y-91468538D01*
X68641873Y-91326421D01*
X68658811Y-91294733D01*
X68658811Y-91294732D01*
X68658814Y-91294727D01*
X68716024Y-91106132D01*
X68735341Y-90910000D01*
X68716024Y-90713868D01*
X68658814Y-90525273D01*
X68658811Y-90525269D01*
X68658811Y-90525266D01*
X68565913Y-90351467D01*
X68565909Y-90351460D01*
X68440883Y-90199116D01*
X68288539Y-90074090D01*
X68288532Y-90074086D01*
X68186143Y-90019358D01*
X68136299Y-89970396D01*
X68120838Y-89902258D01*
X68144670Y-89836579D01*
X68186143Y-89800642D01*
X68265940Y-89757989D01*
X68288538Y-89745910D01*
X68440883Y-89620883D01*
X68565910Y-89468538D01*
X68658814Y-89294727D01*
X68716024Y-89106132D01*
X68735341Y-88910000D01*
X68716024Y-88713868D01*
X68658814Y-88525273D01*
X68658811Y-88525269D01*
X68658811Y-88525266D01*
X68565913Y-88351467D01*
X68565909Y-88351460D01*
X68449815Y-88210000D01*
X69924540Y-88210000D01*
X69944326Y-88398256D01*
X69944327Y-88398259D01*
X70002818Y-88578277D01*
X70002821Y-88578284D01*
X70097467Y-88742216D01*
X70181911Y-88836000D01*
X70224129Y-88882888D01*
X70377265Y-88994148D01*
X70377270Y-88994151D01*
X70550192Y-89071142D01*
X70550197Y-89071144D01*
X70735354Y-89110500D01*
X70735355Y-89110500D01*
X70924644Y-89110500D01*
X70924646Y-89110500D01*
X71109803Y-89071144D01*
X71282730Y-88994151D01*
X71435871Y-88882888D01*
X71562533Y-88742216D01*
X71657179Y-88578284D01*
X71715674Y-88398256D01*
X71735460Y-88210000D01*
X71715674Y-88021744D01*
X71715405Y-88020916D01*
X71715390Y-88020410D01*
X71714322Y-88015383D01*
X71715241Y-88015187D01*
X71713406Y-87951075D01*
X71749484Y-87891241D01*
X71812184Y-87860410D01*
X71881599Y-87868372D01*
X71898431Y-87877055D01*
X71971294Y-87921998D01*
X71971297Y-87921999D01*
X71971303Y-87922003D01*
X72132292Y-87975349D01*
X72231655Y-87985500D01*
X72778344Y-87985499D01*
X72778352Y-87985498D01*
X72778355Y-87985498D01*
X72846029Y-87978585D01*
X72877708Y-87975349D01*
X73038697Y-87922003D01*
X73165438Y-87843827D01*
X73232829Y-87825387D01*
X73273363Y-87835037D01*
X73273905Y-87833489D01*
X73450737Y-87895366D01*
X73450743Y-87895367D01*
X73450745Y-87895368D01*
X73450746Y-87895368D01*
X73450750Y-87895369D01*
X73629996Y-87915565D01*
X73630000Y-87915565D01*
X73630004Y-87915565D01*
X73809249Y-87895369D01*
X73809252Y-87895368D01*
X73809255Y-87895368D01*
X73979522Y-87835789D01*
X74108883Y-87754505D01*
X74174855Y-87735500D01*
X74225500Y-87735500D01*
X74292539Y-87755185D01*
X74338294Y-87807989D01*
X74349500Y-87859500D01*
X74349500Y-89232870D01*
X74349501Y-89232876D01*
X74355908Y-89292483D01*
X74406202Y-89427328D01*
X74406206Y-89427335D01*
X74492452Y-89542544D01*
X74492455Y-89542547D01*
X74607664Y-89628793D01*
X74607671Y-89628797D01*
X74742517Y-89679091D01*
X74742516Y-89679091D01*
X74749444Y-89679835D01*
X74802127Y-89685500D01*
X76597872Y-89685499D01*
X76657483Y-89679091D01*
X76792331Y-89628796D01*
X76907546Y-89542546D01*
X76993796Y-89427331D01*
X77044091Y-89292483D01*
X77050500Y-89232873D01*
X77050499Y-87437128D01*
X77044091Y-87377517D01*
X77043525Y-87376000D01*
X76993797Y-87242671D01*
X76993793Y-87242664D01*
X76907547Y-87127455D01*
X76907544Y-87127452D01*
X76792335Y-87041206D01*
X76792328Y-87041202D01*
X76660917Y-86992189D01*
X76604983Y-86950318D01*
X76580566Y-86884853D01*
X76595418Y-86816580D01*
X76616563Y-86788332D01*
X76738495Y-86666401D01*
X76874035Y-86472830D01*
X76973903Y-86258663D01*
X77035063Y-86030408D01*
X77055659Y-85795000D01*
X77035063Y-85559592D01*
X76973903Y-85331337D01*
X76874035Y-85117171D01*
X76839875Y-85068384D01*
X76738494Y-84923597D01*
X76571402Y-84756506D01*
X76571401Y-84756505D01*
X76385405Y-84626269D01*
X76341781Y-84571692D01*
X76334588Y-84502193D01*
X76366110Y-84439839D01*
X76385405Y-84423119D01*
X76571082Y-84293105D01*
X76738105Y-84126082D01*
X76873600Y-83932578D01*
X76973429Y-83718492D01*
X76973432Y-83718486D01*
X77030636Y-83505000D01*
X76133012Y-83505000D01*
X76165925Y-83447993D01*
X76200000Y-83320826D01*
X76200000Y-83189174D01*
X76165925Y-83062007D01*
X76133012Y-83005000D01*
X77030636Y-83005000D01*
X77030635Y-83004999D01*
X76973432Y-82791513D01*
X76973429Y-82791507D01*
X76873600Y-82577422D01*
X76873599Y-82577420D01*
X76738113Y-82383926D01*
X76738108Y-82383920D01*
X76571082Y-82216894D01*
X76377578Y-82081399D01*
X76163492Y-81981570D01*
X76163486Y-81981567D01*
X75950000Y-81924364D01*
X75950000Y-82821988D01*
X75892993Y-82789075D01*
X75765826Y-82755000D01*
X75634174Y-82755000D01*
X75507007Y-82789075D01*
X75450000Y-82821988D01*
X75450000Y-81924364D01*
X75449999Y-81924364D01*
X75236513Y-81981567D01*
X75236507Y-81981570D01*
X75022422Y-82081399D01*
X75022420Y-82081400D01*
X74828926Y-82216886D01*
X74828920Y-82216891D01*
X74661891Y-82383920D01*
X74661886Y-82383926D01*
X74526400Y-82577420D01*
X74526399Y-82577422D01*
X74426570Y-82791507D01*
X74426567Y-82791513D01*
X74369364Y-83004999D01*
X74369364Y-83005000D01*
X75266988Y-83005000D01*
X75234075Y-83062007D01*
X75200000Y-83189174D01*
X75200000Y-83320826D01*
X75234075Y-83447993D01*
X75266988Y-83505000D01*
X74369364Y-83505000D01*
X74426567Y-83718486D01*
X74426570Y-83718492D01*
X74526399Y-83932578D01*
X74661894Y-84126082D01*
X74828917Y-84293105D01*
X75014595Y-84423119D01*
X75058219Y-84477696D01*
X75065412Y-84547195D01*
X75033890Y-84609549D01*
X75014595Y-84626269D01*
X74828594Y-84756508D01*
X74821922Y-84763181D01*
X74760599Y-84796666D01*
X74734241Y-84799500D01*
X73416715Y-84799500D01*
X73349676Y-84779815D01*
X73310598Y-84739650D01*
X73280472Y-84689815D01*
X73280470Y-84689813D01*
X73280469Y-84689811D01*
X73160188Y-84569530D01*
X73014606Y-84481522D01*
X72931636Y-84455668D01*
X72852196Y-84430914D01*
X72852194Y-84430913D01*
X72852192Y-84430913D01*
X72802778Y-84426423D01*
X72781616Y-84424500D01*
X72268384Y-84424500D01*
X72249145Y-84426248D01*
X72197807Y-84430913D01*
X72035393Y-84481522D01*
X71889811Y-84569530D01*
X71889810Y-84569531D01*
X71787681Y-84671661D01*
X71726358Y-84705146D01*
X71656666Y-84700162D01*
X71612319Y-84671661D01*
X71510188Y-84569530D01*
X71364606Y-84481522D01*
X71281636Y-84455668D01*
X71202196Y-84430914D01*
X71202194Y-84430913D01*
X71202192Y-84430913D01*
X71152778Y-84426423D01*
X71131616Y-84424500D01*
X70618384Y-84424500D01*
X70599145Y-84426248D01*
X70547807Y-84430913D01*
X70385393Y-84481522D01*
X70239811Y-84569530D01*
X70119530Y-84689811D01*
X70031522Y-84835393D01*
X69980913Y-84997807D01*
X69974500Y-85068386D01*
X69974500Y-85731613D01*
X69980913Y-85802192D01*
X70031522Y-85964606D01*
X70119530Y-86110188D01*
X70149327Y-86139985D01*
X70182812Y-86201308D01*
X70177828Y-86271000D01*
X70158919Y-86304568D01*
X70157032Y-86306953D01*
X70068001Y-86451294D01*
X70067996Y-86451305D01*
X70014651Y-86612290D01*
X70004500Y-86711647D01*
X70004500Y-87308337D01*
X70004501Y-87308355D01*
X70014650Y-87407707D01*
X70014651Y-87407710D01*
X70067996Y-87568694D01*
X70067998Y-87568699D01*
X70076893Y-87583119D01*
X70095333Y-87650512D01*
X70078742Y-87710215D01*
X70002820Y-87841718D01*
X70002818Y-87841722D01*
X69944759Y-88020410D01*
X69944326Y-88021744D01*
X69924540Y-88210000D01*
X68449815Y-88210000D01*
X68440883Y-88199116D01*
X68288539Y-88074090D01*
X68288532Y-88074086D01*
X68114733Y-87981188D01*
X68114727Y-87981186D01*
X67928295Y-87924632D01*
X67926129Y-87923975D01*
X67730000Y-87904659D01*
X67533870Y-87923975D01*
X67345266Y-87981188D01*
X67171467Y-88074086D01*
X67171460Y-88074090D01*
X67019116Y-88199116D01*
X66894090Y-88351460D01*
X66894088Y-88351463D01*
X66881290Y-88375408D01*
X66832327Y-88425252D01*
X66764189Y-88440712D01*
X66698510Y-88416880D01*
X66659887Y-88366234D01*
X66658812Y-88366753D01*
X66656291Y-88361519D01*
X66656141Y-88361322D01*
X66655964Y-88360840D01*
X66655792Y-88360483D01*
X66650124Y-88351462D01*
X66559816Y-88207738D01*
X66432262Y-88080184D01*
X66279523Y-87984211D01*
X66109254Y-87924631D01*
X66109249Y-87924630D01*
X65930004Y-87904435D01*
X65929996Y-87904435D01*
X65750750Y-87924630D01*
X65750745Y-87924631D01*
X65580476Y-87984211D01*
X65427737Y-88080184D01*
X65300184Y-88207737D01*
X65204210Y-88360478D01*
X65179566Y-88430908D01*
X65151381Y-88511456D01*
X65110661Y-88568230D01*
X65045709Y-88593978D01*
X65034341Y-88594500D01*
X64284298Y-88594500D01*
X64247432Y-88597401D01*
X64247426Y-88597402D01*
X64089606Y-88643254D01*
X64089603Y-88643255D01*
X63948137Y-88726917D01*
X63948129Y-88726923D01*
X63831923Y-88843129D01*
X63831917Y-88843137D01*
X63748255Y-88984603D01*
X63748254Y-88984606D01*
X63702402Y-89142426D01*
X63702401Y-89142432D01*
X63699500Y-89179298D01*
X60270839Y-89179298D01*
X60297489Y-89156206D01*
X60349000Y-89145000D01*
X61697295Y-89145000D01*
X61697295Y-89144998D01*
X61697100Y-89142513D01*
X61651281Y-88984801D01*
X61567685Y-88843447D01*
X61567678Y-88843438D01*
X61451561Y-88727321D01*
X61451555Y-88727316D01*
X61415902Y-88706232D01*
X61368218Y-88655163D01*
X61355714Y-88586421D01*
X61382359Y-88521832D01*
X61439694Y-88481901D01*
X61479021Y-88475499D01*
X61548344Y-88475499D01*
X61548352Y-88475498D01*
X61548355Y-88475498D01*
X61602760Y-88469940D01*
X61647708Y-88465349D01*
X61808697Y-88412003D01*
X61953044Y-88322968D01*
X62072968Y-88203044D01*
X62162003Y-88058697D01*
X62215349Y-87897708D01*
X62225500Y-87798345D01*
X62225499Y-87712657D01*
X62245183Y-87645620D01*
X62297986Y-87599864D01*
X62308545Y-87595616D01*
X62309253Y-87595368D01*
X62309255Y-87595368D01*
X62479522Y-87535789D01*
X62632262Y-87439816D01*
X62759816Y-87312262D01*
X62855789Y-87159522D01*
X62915368Y-86989255D01*
X62915904Y-86984500D01*
X62935565Y-86810003D01*
X62935565Y-86809996D01*
X62915369Y-86630750D01*
X62915368Y-86630745D01*
X62900409Y-86587996D01*
X62855789Y-86460478D01*
X62851656Y-86453901D01*
X62788904Y-86354032D01*
X62759816Y-86307738D01*
X62632262Y-86180184D01*
X62594940Y-86156733D01*
X62479523Y-86084211D01*
X62309254Y-86024631D01*
X62309249Y-86024630D01*
X62130004Y-86004435D01*
X62129996Y-86004435D01*
X61950750Y-86024630D01*
X61950745Y-86024631D01*
X61780476Y-86084211D01*
X61627737Y-86180184D01*
X61500184Y-86307737D01*
X61464817Y-86364024D01*
X61404211Y-86460478D01*
X61404210Y-86460480D01*
X61400507Y-86466374D01*
X61397935Y-86464758D01*
X61359658Y-86506591D01*
X61295465Y-86524500D01*
X61001663Y-86524500D01*
X61001644Y-86524501D01*
X60902292Y-86534650D01*
X60902289Y-86534651D01*
X60741305Y-86587996D01*
X60741294Y-86588001D01*
X60596959Y-86677029D01*
X60596953Y-86677033D01*
X60587324Y-86686663D01*
X60526000Y-86720146D01*
X60456308Y-86715159D01*
X60411965Y-86686660D01*
X60402732Y-86677427D01*
X60402728Y-86677424D01*
X60258492Y-86588457D01*
X60258481Y-86588452D01*
X60097606Y-86535144D01*
X59998322Y-86525000D01*
X59975000Y-86525000D01*
X59975000Y-87376000D01*
X59955315Y-87443039D01*
X59902511Y-87488794D01*
X59851000Y-87500000D01*
X59725000Y-87500000D01*
X59725000Y-87626000D01*
X59705315Y-87693039D01*
X59652511Y-87738794D01*
X59601000Y-87750000D01*
X58775001Y-87750000D01*
X58775001Y-87798322D01*
X58785144Y-87897607D01*
X58838452Y-88058481D01*
X58838457Y-88058492D01*
X58927424Y-88202728D01*
X58927427Y-88202732D01*
X59047267Y-88322572D01*
X59047271Y-88322575D01*
X59193051Y-88412494D01*
X59239776Y-88464442D01*
X59250997Y-88533404D01*
X59223154Y-88597486D01*
X59165085Y-88636342D01*
X59162552Y-88637108D01*
X59139802Y-88643717D01*
X58998447Y-88727314D01*
X58998442Y-88727318D01*
X58927938Y-88797822D01*
X58866614Y-88831306D01*
X58796923Y-88826321D01*
X58740989Y-88784450D01*
X58716854Y-88722295D01*
X58716024Y-88713870D01*
X58716024Y-88713868D01*
X58658814Y-88525273D01*
X58658811Y-88525269D01*
X58658811Y-88525266D01*
X58565913Y-88351467D01*
X58565909Y-88351460D01*
X58440883Y-88199116D01*
X58350835Y-88125215D01*
X58311501Y-88067469D01*
X58305500Y-88029362D01*
X58305500Y-87201677D01*
X58775000Y-87201677D01*
X58775000Y-87250000D01*
X59475000Y-87250000D01*
X59475000Y-86524999D01*
X59451693Y-86525000D01*
X59451674Y-86525001D01*
X59352392Y-86535144D01*
X59191518Y-86588452D01*
X59191507Y-86588457D01*
X59047271Y-86677424D01*
X59047267Y-86677427D01*
X58927427Y-86797267D01*
X58927424Y-86797271D01*
X58838457Y-86941507D01*
X58838452Y-86941518D01*
X58785144Y-87102393D01*
X58775000Y-87201677D01*
X58305500Y-87201677D01*
X58305500Y-83934236D01*
X58305500Y-83934234D01*
X58266281Y-83787865D01*
X58190515Y-83656635D01*
X58083365Y-83549485D01*
X56783365Y-82249485D01*
X56695433Y-82198717D01*
X56652136Y-82173719D01*
X56578950Y-82154109D01*
X56505766Y-82134500D01*
X56354233Y-82134500D01*
X56276699Y-82155275D01*
X56244606Y-82159500D01*
X56066489Y-82159500D01*
X55999450Y-82139815D01*
X55965762Y-82105191D01*
X55965094Y-82105715D01*
X55960468Y-82099810D01*
X55858339Y-81997681D01*
X55824854Y-81936358D01*
X55826739Y-81910000D01*
X69124540Y-81910000D01*
X69144326Y-82098256D01*
X69144327Y-82098259D01*
X69202818Y-82278277D01*
X69202821Y-82278284D01*
X69297467Y-82442216D01*
X69345161Y-82495185D01*
X69424129Y-82582888D01*
X69577265Y-82694148D01*
X69577270Y-82694151D01*
X69750192Y-82771142D01*
X69750197Y-82771144D01*
X69935354Y-82810500D01*
X69935355Y-82810500D01*
X70124644Y-82810500D01*
X70124646Y-82810500D01*
X70309803Y-82771144D01*
X70396266Y-82732647D01*
X70482726Y-82694153D01*
X70482726Y-82694152D01*
X70482730Y-82694151D01*
X70489955Y-82688900D01*
X70555759Y-82665420D01*
X70623813Y-82681242D01*
X70650524Y-82701536D01*
X70681955Y-82732967D01*
X70681959Y-82732970D01*
X70826294Y-82821998D01*
X70826297Y-82821999D01*
X70826303Y-82822003D01*
X70987292Y-82875349D01*
X71086655Y-82885500D01*
X71633344Y-82885499D01*
X71633352Y-82885498D01*
X71633355Y-82885498D01*
X71710975Y-82877569D01*
X71732708Y-82875349D01*
X71893697Y-82822003D01*
X72038044Y-82732968D01*
X72047319Y-82723693D01*
X72108642Y-82690208D01*
X72178334Y-82695192D01*
X72222681Y-82723693D01*
X72231955Y-82732967D01*
X72231959Y-82732970D01*
X72376294Y-82821998D01*
X72376297Y-82821999D01*
X72376303Y-82822003D01*
X72537292Y-82875349D01*
X72636655Y-82885500D01*
X73183344Y-82885499D01*
X73183352Y-82885498D01*
X73183355Y-82885498D01*
X73260975Y-82877569D01*
X73282708Y-82875349D01*
X73443697Y-82822003D01*
X73588044Y-82732968D01*
X73707968Y-82613044D01*
X73797003Y-82468697D01*
X73850349Y-82307708D01*
X73860500Y-82208345D01*
X73860499Y-81895450D01*
X73880183Y-81828412D01*
X73896813Y-81807775D01*
X74328729Y-81375860D01*
X74328733Y-81375858D01*
X74415858Y-81288733D01*
X74484311Y-81186286D01*
X74484312Y-81186285D01*
X74484312Y-81186284D01*
X74484314Y-81186282D01*
X74522655Y-81093717D01*
X74522655Y-81093716D01*
X74531463Y-81072452D01*
X74538850Y-81035308D01*
X74571235Y-80973399D01*
X74631950Y-80938824D01*
X74660468Y-80935500D01*
X74676608Y-80935500D01*
X74676608Y-80935499D01*
X74758132Y-80919284D01*
X74758134Y-80919284D01*
X74797442Y-80911465D01*
X74797442Y-80911464D01*
X74797452Y-80911463D01*
X74830792Y-80897652D01*
X74911286Y-80864312D01*
X74911289Y-80864309D01*
X74911291Y-80864309D01*
X74935826Y-80847914D01*
X74965054Y-80828384D01*
X75013733Y-80795858D01*
X75100858Y-80708733D01*
X75100859Y-80708730D01*
X75197773Y-80611815D01*
X75259095Y-80578333D01*
X75285452Y-80575499D01*
X76597871Y-80575499D01*
X76597872Y-80575499D01*
X76657483Y-80569091D01*
X76792331Y-80518796D01*
X76907546Y-80432546D01*
X76993796Y-80317331D01*
X77044091Y-80182483D01*
X77050500Y-80122873D01*
X77050499Y-78327128D01*
X77044091Y-78267517D01*
X77021341Y-78206522D01*
X76993797Y-78132671D01*
X76993793Y-78132664D01*
X76907547Y-78017455D01*
X76907544Y-78017452D01*
X76792335Y-77931206D01*
X76792328Y-77931202D01*
X76660917Y-77882189D01*
X76604983Y-77840318D01*
X76580566Y-77774853D01*
X76595418Y-77706580D01*
X76616563Y-77678332D01*
X76738495Y-77556401D01*
X76874035Y-77362830D01*
X76973903Y-77148663D01*
X77035063Y-76920408D01*
X77055659Y-76685000D01*
X77035063Y-76449592D01*
X76973903Y-76221337D01*
X76874035Y-76007171D01*
X76791466Y-75889249D01*
X76738494Y-75813597D01*
X76571402Y-75646506D01*
X76571401Y-75646505D01*
X76385405Y-75516269D01*
X76341781Y-75461692D01*
X76334588Y-75392193D01*
X76366110Y-75329839D01*
X76385405Y-75313119D01*
X76571082Y-75183105D01*
X76738105Y-75016082D01*
X76873600Y-74822578D01*
X76973429Y-74608492D01*
X76973432Y-74608486D01*
X77030636Y-74395000D01*
X76133012Y-74395000D01*
X76165925Y-74337993D01*
X76200000Y-74210826D01*
X76200000Y-74079174D01*
X76165925Y-73952007D01*
X76133012Y-73895000D01*
X77030636Y-73895000D01*
X77030635Y-73894999D01*
X76973432Y-73681513D01*
X76973429Y-73681507D01*
X76873600Y-73467422D01*
X76873599Y-73467420D01*
X76738113Y-73273926D01*
X76738108Y-73273920D01*
X76571082Y-73106894D01*
X76377578Y-72971399D01*
X76163492Y-72871570D01*
X76163486Y-72871567D01*
X75950000Y-72814364D01*
X75950000Y-73711988D01*
X75892993Y-73679075D01*
X75765826Y-73645000D01*
X75634174Y-73645000D01*
X75507007Y-73679075D01*
X75450000Y-73711988D01*
X75450000Y-72814364D01*
X75449999Y-72814364D01*
X75236513Y-72871567D01*
X75236507Y-72871570D01*
X75022422Y-72971399D01*
X75022420Y-72971400D01*
X74828926Y-73106886D01*
X74828920Y-73106891D01*
X74661891Y-73273920D01*
X74661886Y-73273926D01*
X74526400Y-73467420D01*
X74526399Y-73467422D01*
X74426570Y-73681507D01*
X74426567Y-73681513D01*
X74369364Y-73894999D01*
X74369364Y-73895000D01*
X75266988Y-73895000D01*
X75234075Y-73952007D01*
X75200000Y-74079174D01*
X75200000Y-74210826D01*
X75234075Y-74337993D01*
X75266988Y-74395000D01*
X74369364Y-74395000D01*
X74426567Y-74608486D01*
X74426570Y-74608492D01*
X74526399Y-74822578D01*
X74661894Y-75016082D01*
X74828917Y-75183105D01*
X75014595Y-75313119D01*
X75058219Y-75367696D01*
X75065412Y-75437195D01*
X75033890Y-75499549D01*
X75014595Y-75516269D01*
X74828594Y-75646508D01*
X74661505Y-75813597D01*
X74525965Y-76007169D01*
X74525964Y-76007171D01*
X74426098Y-76221335D01*
X74426094Y-76221344D01*
X74364938Y-76449586D01*
X74364936Y-76449596D01*
X74344341Y-76684999D01*
X74344341Y-76685000D01*
X74364936Y-76920403D01*
X74364938Y-76920413D01*
X74399327Y-77048756D01*
X74397664Y-77118606D01*
X74367233Y-77168530D01*
X72586286Y-78949478D01*
X72474481Y-79061282D01*
X72474475Y-79061290D01*
X72438189Y-79124141D01*
X72438189Y-79124143D01*
X72395423Y-79198214D01*
X72391652Y-79212289D01*
X72354499Y-79350943D01*
X72354499Y-79350945D01*
X72354499Y-79393481D01*
X72334814Y-79460520D01*
X72318180Y-79481162D01*
X72217681Y-79581661D01*
X72156358Y-79615146D01*
X72086666Y-79610162D01*
X72042319Y-79581661D01*
X71940188Y-79479530D01*
X71794606Y-79391522D01*
X71664387Y-79350945D01*
X71632196Y-79340914D01*
X71632194Y-79340913D01*
X71632192Y-79340913D01*
X71582778Y-79336423D01*
X71561616Y-79334500D01*
X71048384Y-79334500D01*
X71029145Y-79336248D01*
X70977807Y-79340913D01*
X70815393Y-79391522D01*
X70669811Y-79479530D01*
X70549530Y-79599811D01*
X70461522Y-79745393D01*
X70410913Y-79907807D01*
X70404500Y-79978386D01*
X70404500Y-80641613D01*
X70410913Y-80712192D01*
X70410913Y-80712194D01*
X70410914Y-80712196D01*
X70461522Y-80874606D01*
X70461523Y-80874607D01*
X70464440Y-80881089D01*
X70474002Y-80950301D01*
X70444627Y-81013696D01*
X70385642Y-81051146D01*
X70315773Y-81050761D01*
X70313049Y-81049910D01*
X70309806Y-81048856D01*
X70170935Y-81019339D01*
X70124646Y-81009500D01*
X69935354Y-81009500D01*
X69902897Y-81016398D01*
X69750197Y-81048855D01*
X69750192Y-81048857D01*
X69577270Y-81125848D01*
X69577265Y-81125851D01*
X69424129Y-81237111D01*
X69297466Y-81377785D01*
X69202821Y-81541715D01*
X69202818Y-81541722D01*
X69144831Y-81720189D01*
X69144326Y-81721744D01*
X69124540Y-81910000D01*
X55826739Y-81910000D01*
X55829838Y-81866666D01*
X55858339Y-81822319D01*
X55960468Y-81720189D01*
X55960469Y-81720188D01*
X55960472Y-81720185D01*
X56048478Y-81574606D01*
X56048644Y-81574070D01*
X56048873Y-81573727D01*
X56051557Y-81567765D01*
X56052547Y-81568210D01*
X56087377Y-81515921D01*
X56151400Y-81487942D01*
X56220386Y-81499018D01*
X56233005Y-81505960D01*
X56280475Y-81535788D01*
X56450745Y-81595368D01*
X56450750Y-81595369D01*
X56629996Y-81615565D01*
X56630000Y-81615565D01*
X56630004Y-81615565D01*
X56809249Y-81595369D01*
X56809252Y-81595368D01*
X56809255Y-81595368D01*
X56979522Y-81535789D01*
X57132262Y-81439816D01*
X57259816Y-81312262D01*
X57355789Y-81159522D01*
X57415368Y-80989255D01*
X57415369Y-80989249D01*
X57435565Y-80810003D01*
X57435565Y-80809996D01*
X57415369Y-80630750D01*
X57415366Y-80630737D01*
X57368466Y-80496706D01*
X57355789Y-80460478D01*
X57355788Y-80460476D01*
X57355535Y-80459753D01*
X57351972Y-80389975D01*
X57384897Y-80331115D01*
X57402967Y-80313045D01*
X57402967Y-80313044D01*
X57402968Y-80313044D01*
X57492003Y-80168697D01*
X57545349Y-80007708D01*
X57555500Y-79908345D01*
X57555499Y-79311656D01*
X57545349Y-79212292D01*
X57492003Y-79051303D01*
X57491999Y-79051297D01*
X57491998Y-79051294D01*
X57402970Y-78906959D01*
X57402967Y-78906955D01*
X57283044Y-78787032D01*
X57283040Y-78787029D01*
X57138705Y-78698001D01*
X57138699Y-78697998D01*
X57138697Y-78697997D01*
X57138694Y-78697996D01*
X56977709Y-78644651D01*
X56878346Y-78634500D01*
X56331662Y-78634500D01*
X56331644Y-78634501D01*
X56232292Y-78644650D01*
X56232289Y-78644651D01*
X56071305Y-78697996D01*
X56071294Y-78698001D01*
X55926959Y-78787029D01*
X55926953Y-78787033D01*
X55917324Y-78796663D01*
X55856000Y-78830146D01*
X55786308Y-78825159D01*
X55741965Y-78796660D01*
X55732732Y-78787427D01*
X55732728Y-78787424D01*
X55588492Y-78698457D01*
X55588481Y-78698452D01*
X55427606Y-78645144D01*
X55328322Y-78635000D01*
X55305000Y-78635000D01*
X55305000Y-79486000D01*
X55285315Y-79553039D01*
X55232511Y-79598794D01*
X55181000Y-79610000D01*
X54929000Y-79610000D01*
X54861961Y-79590315D01*
X54816206Y-79537511D01*
X54805000Y-79486000D01*
X54805000Y-78634999D01*
X54781693Y-78635000D01*
X54781674Y-78635001D01*
X54682391Y-78645144D01*
X54595241Y-78674022D01*
X54525412Y-78676423D01*
X54465371Y-78640691D01*
X54437853Y-78593207D01*
X54423018Y-78545603D01*
X54335072Y-78400122D01*
X54214877Y-78279927D01*
X54069395Y-78191980D01*
X54069396Y-78191980D01*
X53907105Y-78141409D01*
X53907106Y-78141409D01*
X53836572Y-78135000D01*
X53830000Y-78135000D01*
X53830000Y-78986000D01*
X53810315Y-79053039D01*
X53757511Y-79098794D01*
X53706000Y-79110000D01*
X53454000Y-79110000D01*
X53386961Y-79090315D01*
X53341206Y-79037511D01*
X53330000Y-78986000D01*
X53330000Y-78135000D01*
X53329999Y-78134999D01*
X53323436Y-78135000D01*
X53323417Y-78135001D01*
X53252897Y-78141408D01*
X53252892Y-78141409D01*
X53090603Y-78191981D01*
X52945122Y-78279927D01*
X52945121Y-78279928D01*
X52843035Y-78382015D01*
X52781712Y-78415500D01*
X52712020Y-78410516D01*
X52667673Y-78382015D01*
X52565188Y-78279530D01*
X52419606Y-78191522D01*
X52257196Y-78140914D01*
X52257194Y-78140913D01*
X52257192Y-78140913D01*
X52207778Y-78136423D01*
X52186616Y-78134500D01*
X51673384Y-78134500D01*
X51654145Y-78136248D01*
X51602807Y-78140913D01*
X51440393Y-78191522D01*
X51294811Y-78279530D01*
X51174531Y-78399810D01*
X51174528Y-78399814D01*
X51159514Y-78424651D01*
X51107986Y-78471838D01*
X51053398Y-78484500D01*
X49622765Y-78484500D01*
X49555726Y-78464815D01*
X49517227Y-78425598D01*
X49504281Y-78404609D01*
X49385391Y-78285719D01*
X49385387Y-78285716D01*
X49242295Y-78197455D01*
X49242289Y-78197452D01*
X49242287Y-78197451D01*
X49082685Y-78144564D01*
X49082683Y-78144563D01*
X48984181Y-78134500D01*
X48984174Y-78134500D01*
X48450826Y-78134500D01*
X48450818Y-78134500D01*
X48352316Y-78144563D01*
X48352315Y-78144564D01*
X48273219Y-78170773D01*
X48192715Y-78197450D01*
X48192704Y-78197455D01*
X48049612Y-78285716D01*
X48049608Y-78285719D01*
X48017681Y-78317647D01*
X47956358Y-78351132D01*
X47886666Y-78346148D01*
X47842319Y-78317647D01*
X47810391Y-78285719D01*
X47810387Y-78285716D01*
X47667295Y-78197455D01*
X47667289Y-78197452D01*
X47667287Y-78197451D01*
X47507685Y-78144564D01*
X47507683Y-78144563D01*
X47409181Y-78134500D01*
X47409174Y-78134500D01*
X46875826Y-78134500D01*
X46875818Y-78134500D01*
X46777316Y-78144563D01*
X46777315Y-78144564D01*
X46698219Y-78170773D01*
X46617715Y-78197450D01*
X46617704Y-78197455D01*
X46474612Y-78285716D01*
X46474608Y-78285719D01*
X46469415Y-78290912D01*
X46408088Y-78324391D01*
X46338397Y-78319400D01*
X46304702Y-78297742D01*
X46303594Y-78299157D01*
X46297688Y-78294530D01*
X46253003Y-78267517D01*
X46152106Y-78206522D01*
X45989696Y-78155914D01*
X45989694Y-78155913D01*
X45989692Y-78155913D01*
X45940278Y-78151423D01*
X45919116Y-78149500D01*
X45405884Y-78149500D01*
X45386645Y-78151248D01*
X45335307Y-78155913D01*
X45172893Y-78206522D01*
X45027311Y-78294530D01*
X45027310Y-78294531D01*
X44925181Y-78396661D01*
X44863858Y-78430146D01*
X44794166Y-78425162D01*
X44749819Y-78396661D01*
X44647688Y-78294530D01*
X44603003Y-78267517D01*
X44502106Y-78206522D01*
X44339696Y-78155914D01*
X44339694Y-78155913D01*
X44339692Y-78155913D01*
X44290278Y-78151423D01*
X44269116Y-78149500D01*
X43755884Y-78149500D01*
X43736645Y-78151248D01*
X43685307Y-78155913D01*
X43522893Y-78206522D01*
X43377311Y-78294530D01*
X43257030Y-78414811D01*
X43169022Y-78560393D01*
X43118413Y-78722807D01*
X43112000Y-78793386D01*
X43112000Y-79225500D01*
X43092315Y-79292539D01*
X43039511Y-79338294D01*
X42988000Y-79349500D01*
X42174499Y-79349500D01*
X42107460Y-79329815D01*
X42061705Y-79277011D01*
X42050499Y-79225500D01*
X42050499Y-79202129D01*
X42050498Y-79202123D01*
X42050497Y-79202116D01*
X42044091Y-79142517D01*
X42037237Y-79124141D01*
X41993797Y-79007671D01*
X41993793Y-79007664D01*
X41907547Y-78892455D01*
X41907544Y-78892452D01*
X41792335Y-78806206D01*
X41792328Y-78806202D01*
X41657482Y-78755908D01*
X41657483Y-78755908D01*
X41597883Y-78749501D01*
X41597881Y-78749500D01*
X41597873Y-78749500D01*
X41597864Y-78749500D01*
X39802129Y-78749500D01*
X39802123Y-78749501D01*
X39742516Y-78755908D01*
X39607671Y-78806202D01*
X39607664Y-78806206D01*
X39492455Y-78892452D01*
X39492452Y-78892455D01*
X39406206Y-79007664D01*
X39406202Y-79007671D01*
X39355908Y-79142517D01*
X39349501Y-79202116D01*
X39349501Y-79202123D01*
X39349500Y-79202135D01*
X39349500Y-80997870D01*
X39349501Y-80997876D01*
X39355908Y-81057483D01*
X39406202Y-81192328D01*
X39406206Y-81192335D01*
X39492452Y-81307544D01*
X39492455Y-81307547D01*
X39607664Y-81393793D01*
X39607671Y-81393797D01*
X39739081Y-81442810D01*
X39795015Y-81484681D01*
X39819432Y-81550145D01*
X39804580Y-81618418D01*
X39783430Y-81646673D01*
X39661503Y-81768600D01*
X39525965Y-81962169D01*
X39525964Y-81962171D01*
X39426098Y-82176335D01*
X39426094Y-82176344D01*
X39364938Y-82404586D01*
X39364936Y-82404596D01*
X39344341Y-82639999D01*
X37930000Y-82639999D01*
X37930000Y-77133201D01*
X37949685Y-77066162D01*
X38002489Y-77020407D01*
X38053194Y-77009205D01*
X38243734Y-77007975D01*
X38310896Y-77027226D01*
X38332212Y-77044290D01*
X38427738Y-77139816D01*
X38580478Y-77235789D01*
X38750745Y-77295368D01*
X38750750Y-77295369D01*
X38929996Y-77315565D01*
X38930000Y-77315565D01*
X38930004Y-77315565D01*
X39109249Y-77295369D01*
X39109252Y-77295368D01*
X39109255Y-77295368D01*
X39279522Y-77235789D01*
X39432262Y-77139816D01*
X39536689Y-77035389D01*
X39598012Y-77001904D01*
X39623562Y-76999073D01*
X39932836Y-76997078D01*
X40000000Y-77016329D01*
X40021316Y-77033394D01*
X40127738Y-77139816D01*
X40280478Y-77235789D01*
X40450745Y-77295368D01*
X40450750Y-77295369D01*
X40629996Y-77315565D01*
X40630000Y-77315565D01*
X40630004Y-77315565D01*
X40809249Y-77295369D01*
X40809252Y-77295368D01*
X40809255Y-77295368D01*
X40979522Y-77235789D01*
X41132262Y-77139816D01*
X41247728Y-77024350D01*
X41309051Y-76990865D01*
X41334601Y-76988034D01*
X41721299Y-76985540D01*
X41788461Y-77004790D01*
X41809777Y-77021855D01*
X41927738Y-77139816D01*
X42080478Y-77235789D01*
X42250745Y-77295368D01*
X42250750Y-77295369D01*
X42429996Y-77315565D01*
X42430000Y-77315565D01*
X42430004Y-77315565D01*
X42609249Y-77295369D01*
X42609252Y-77295368D01*
X42609255Y-77295368D01*
X42779522Y-77235789D01*
X42932262Y-77139816D01*
X43059419Y-77012658D01*
X43120738Y-76979176D01*
X43146285Y-76976346D01*
X43211685Y-76975924D01*
X43278847Y-76995176D01*
X43300162Y-77012240D01*
X43300183Y-77012261D01*
X43300184Y-77012262D01*
X43427738Y-77139816D01*
X43580478Y-77235789D01*
X43750745Y-77295368D01*
X43750750Y-77295369D01*
X43929996Y-77315565D01*
X43930000Y-77315565D01*
X43930004Y-77315565D01*
X44109249Y-77295369D01*
X44109252Y-77295368D01*
X44109255Y-77295368D01*
X44279522Y-77235789D01*
X44432262Y-77139816D01*
X44559816Y-77012262D01*
X44559816Y-77012261D01*
X44564741Y-77007337D01*
X44565872Y-77008468D01*
X44616170Y-76973158D01*
X44655132Y-76966612D01*
X44703017Y-76966303D01*
X44770179Y-76985553D01*
X44794885Y-77007712D01*
X44795260Y-77007338D01*
X44800183Y-77012261D01*
X44800184Y-77012262D01*
X44927738Y-77139816D01*
X45080478Y-77235789D01*
X45250745Y-77295368D01*
X45250750Y-77295369D01*
X45429996Y-77315565D01*
X45430000Y-77315565D01*
X45430004Y-77315565D01*
X45609249Y-77295369D01*
X45609252Y-77295368D01*
X45609255Y-77295368D01*
X45779522Y-77235789D01*
X45932262Y-77139816D01*
X46059816Y-77012262D01*
X46059819Y-77012256D01*
X46064159Y-77006816D01*
X46065815Y-77008136D01*
X46110470Y-76968628D01*
X46162337Y-76956888D01*
X46195923Y-76956671D01*
X46263083Y-76975920D01*
X46294739Y-77007694D01*
X46295841Y-77006816D01*
X46300183Y-77012261D01*
X46300184Y-77012262D01*
X46427738Y-77139816D01*
X46580478Y-77235789D01*
X46750745Y-77295368D01*
X46750750Y-77295369D01*
X46929996Y-77315565D01*
X46930000Y-77315565D01*
X46930004Y-77315565D01*
X47109249Y-77295369D01*
X47109252Y-77295368D01*
X47109255Y-77295368D01*
X47279522Y-77235789D01*
X47432262Y-77139816D01*
X47559816Y-77012262D01*
X47564253Y-77005199D01*
X47616582Y-76958907D01*
X47668444Y-76947171D01*
X47689867Y-76947033D01*
X47757029Y-76966284D01*
X47795656Y-77005056D01*
X47800182Y-77012260D01*
X47800183Y-77012261D01*
X47800184Y-77012262D01*
X47927738Y-77139816D01*
X48080478Y-77235789D01*
X48250745Y-77295368D01*
X48250750Y-77295369D01*
X48429996Y-77315565D01*
X48430000Y-77315565D01*
X48430004Y-77315565D01*
X48609249Y-77295369D01*
X48609252Y-77295368D01*
X48609255Y-77295368D01*
X48779522Y-77235789D01*
X48932262Y-77139816D01*
X49059816Y-77012262D01*
X49064511Y-77004790D01*
X49070361Y-76995480D01*
X49122695Y-76949188D01*
X49174548Y-76937454D01*
X49183804Y-76937394D01*
X49250967Y-76956643D01*
X49289599Y-76995417D01*
X49300183Y-77012261D01*
X49300184Y-77012262D01*
X49427738Y-77139816D01*
X49580478Y-77235789D01*
X49750745Y-77295368D01*
X49750750Y-77295369D01*
X49929996Y-77315565D01*
X49930000Y-77315565D01*
X49930004Y-77315565D01*
X50109249Y-77295369D01*
X50109252Y-77295368D01*
X50109255Y-77295368D01*
X50279522Y-77235789D01*
X50432262Y-77139816D01*
X50559816Y-77012262D01*
X50575005Y-76988087D01*
X50627336Y-76941797D01*
X50696389Y-76931146D01*
X50760238Y-76959519D01*
X50784992Y-76988085D01*
X50795489Y-77004790D01*
X50800184Y-77012262D01*
X50927738Y-77139816D01*
X51080478Y-77235789D01*
X51250745Y-77295368D01*
X51250750Y-77295369D01*
X51429996Y-77315565D01*
X51430000Y-77315565D01*
X51430004Y-77315565D01*
X51609249Y-77295369D01*
X51609252Y-77295368D01*
X51609255Y-77295368D01*
X51779522Y-77235789D01*
X51932262Y-77139816D01*
X52059816Y-77012262D01*
X52075005Y-76988087D01*
X52127336Y-76941797D01*
X52196389Y-76931146D01*
X52260238Y-76959519D01*
X52284992Y-76988085D01*
X52295489Y-77004790D01*
X52300184Y-77012262D01*
X52427738Y-77139816D01*
X52580478Y-77235789D01*
X52750745Y-77295368D01*
X52750750Y-77295369D01*
X52929996Y-77315565D01*
X52930000Y-77315565D01*
X52930004Y-77315565D01*
X53109249Y-77295369D01*
X53109252Y-77295368D01*
X53109255Y-77295368D01*
X53279522Y-77235789D01*
X53432262Y-77139816D01*
X53559816Y-77012262D01*
X53575005Y-76988087D01*
X53627336Y-76941797D01*
X53696389Y-76931146D01*
X53760238Y-76959519D01*
X53784992Y-76988085D01*
X53795489Y-77004790D01*
X53800184Y-77012262D01*
X53927738Y-77139816D01*
X54080478Y-77235789D01*
X54250745Y-77295368D01*
X54250750Y-77295369D01*
X54429996Y-77315565D01*
X54430000Y-77315565D01*
X54430004Y-77315565D01*
X54609249Y-77295369D01*
X54609252Y-77295368D01*
X54609255Y-77295368D01*
X54779522Y-77235789D01*
X54932262Y-77139816D01*
X55059816Y-77012262D01*
X55075005Y-76988087D01*
X55127336Y-76941797D01*
X55196389Y-76931146D01*
X55260238Y-76959519D01*
X55284992Y-76988085D01*
X55295489Y-77004790D01*
X55300184Y-77012262D01*
X55427738Y-77139816D01*
X55580478Y-77235789D01*
X55750745Y-77295368D01*
X55750750Y-77295369D01*
X55929996Y-77315565D01*
X55930000Y-77315565D01*
X55930004Y-77315565D01*
X56109249Y-77295369D01*
X56109252Y-77295368D01*
X56109255Y-77295368D01*
X56279522Y-77235789D01*
X56364027Y-77182691D01*
X56431264Y-77163690D01*
X56495973Y-77182691D01*
X56580475Y-77235788D01*
X56750745Y-77295368D01*
X56750750Y-77295369D01*
X56929996Y-77315565D01*
X56930000Y-77315565D01*
X56930004Y-77315565D01*
X57109249Y-77295369D01*
X57109252Y-77295368D01*
X57109255Y-77295368D01*
X57279522Y-77235789D01*
X57432262Y-77139816D01*
X57559816Y-77012262D01*
X57575005Y-76988087D01*
X57627336Y-76941797D01*
X57696389Y-76931146D01*
X57760238Y-76959519D01*
X57784992Y-76988085D01*
X57795489Y-77004790D01*
X57800184Y-77012262D01*
X57927738Y-77139816D01*
X58080478Y-77235789D01*
X58250745Y-77295368D01*
X58250750Y-77295369D01*
X58429996Y-77315565D01*
X58430000Y-77315565D01*
X58430004Y-77315565D01*
X58609249Y-77295369D01*
X58609252Y-77295368D01*
X58609255Y-77295368D01*
X58779522Y-77235789D01*
X58932262Y-77139816D01*
X59059816Y-77012262D01*
X59075005Y-76988087D01*
X59127336Y-76941797D01*
X59196389Y-76931146D01*
X59260238Y-76959519D01*
X59284992Y-76988085D01*
X59295489Y-77004790D01*
X59300184Y-77012262D01*
X59427738Y-77139816D01*
X59580478Y-77235789D01*
X59750745Y-77295368D01*
X59750750Y-77295369D01*
X59929996Y-77315565D01*
X59930000Y-77315565D01*
X59930004Y-77315565D01*
X60109249Y-77295369D01*
X60109252Y-77295368D01*
X60109255Y-77295368D01*
X60279522Y-77235789D01*
X60432262Y-77139816D01*
X60559816Y-77012262D01*
X60575005Y-76988087D01*
X60627336Y-76941797D01*
X60696389Y-76931146D01*
X60760238Y-76959519D01*
X60784992Y-76988085D01*
X60795489Y-77004790D01*
X60800184Y-77012262D01*
X60927738Y-77139816D01*
X61080478Y-77235789D01*
X61250745Y-77295368D01*
X61250750Y-77295369D01*
X61429996Y-77315565D01*
X61430000Y-77315565D01*
X61430004Y-77315565D01*
X61609249Y-77295369D01*
X61609252Y-77295368D01*
X61609255Y-77295368D01*
X61779522Y-77235789D01*
X61932262Y-77139816D01*
X62059816Y-77012262D01*
X62075007Y-76988084D01*
X62127339Y-76941796D01*
X62196393Y-76931146D01*
X62260242Y-76959521D01*
X62284990Y-76988082D01*
X62300184Y-77012262D01*
X62427738Y-77139816D01*
X62580478Y-77235789D01*
X62750745Y-77295368D01*
X62750750Y-77295369D01*
X62929996Y-77315565D01*
X62930000Y-77315565D01*
X62930004Y-77315565D01*
X63109249Y-77295369D01*
X63109252Y-77295368D01*
X63109255Y-77295368D01*
X63279522Y-77235789D01*
X63432262Y-77139816D01*
X63559816Y-77012262D01*
X63575005Y-76988087D01*
X63627336Y-76941797D01*
X63696389Y-76931146D01*
X63760238Y-76959519D01*
X63784992Y-76988085D01*
X63795489Y-77004790D01*
X63800184Y-77012262D01*
X63927738Y-77139816D01*
X64080478Y-77235789D01*
X64250745Y-77295368D01*
X64250750Y-77295369D01*
X64429996Y-77315565D01*
X64430000Y-77315565D01*
X64430004Y-77315565D01*
X64609249Y-77295369D01*
X64609252Y-77295368D01*
X64609255Y-77295368D01*
X64779522Y-77235789D01*
X64932262Y-77139816D01*
X65059816Y-77012262D01*
X65075005Y-76988087D01*
X65127336Y-76941797D01*
X65196389Y-76931146D01*
X65260238Y-76959519D01*
X65284992Y-76988085D01*
X65295489Y-77004790D01*
X65300184Y-77012262D01*
X65427738Y-77139816D01*
X65580478Y-77235789D01*
X65750745Y-77295368D01*
X65750750Y-77295369D01*
X65929996Y-77315565D01*
X65930000Y-77315565D01*
X65930004Y-77315565D01*
X66109249Y-77295369D01*
X66109252Y-77295368D01*
X66109255Y-77295368D01*
X66279522Y-77235789D01*
X66432262Y-77139816D01*
X66559816Y-77012262D01*
X66575005Y-76988087D01*
X66627336Y-76941797D01*
X66696389Y-76931146D01*
X66760238Y-76959519D01*
X66784992Y-76988085D01*
X66795489Y-77004790D01*
X66800184Y-77012262D01*
X66927738Y-77139816D01*
X67080478Y-77235789D01*
X67250745Y-77295368D01*
X67250750Y-77295369D01*
X67429996Y-77315565D01*
X67430000Y-77315565D01*
X67430004Y-77315565D01*
X67609249Y-77295369D01*
X67609252Y-77295368D01*
X67609255Y-77295368D01*
X67779522Y-77235789D01*
X67864027Y-77182691D01*
X67931264Y-77163690D01*
X67995973Y-77182691D01*
X68080475Y-77235788D01*
X68250745Y-77295368D01*
X68250750Y-77295369D01*
X68429996Y-77315565D01*
X68430000Y-77315565D01*
X68430004Y-77315565D01*
X68609249Y-77295369D01*
X68609252Y-77295368D01*
X68609255Y-77295368D01*
X68779522Y-77235789D01*
X68932262Y-77139816D01*
X69059816Y-77012262D01*
X69155789Y-76859522D01*
X69215368Y-76689255D01*
X69215848Y-76685000D01*
X69225533Y-76599037D01*
X69252599Y-76534622D01*
X69307799Y-76495877D01*
X69309252Y-76495368D01*
X69309255Y-76495368D01*
X69479522Y-76435789D01*
X69632262Y-76339816D01*
X69759816Y-76212262D01*
X69855789Y-76059522D01*
X69915368Y-75889255D01*
X69916390Y-75880184D01*
X69935565Y-75710003D01*
X69935565Y-75707373D01*
X69936045Y-75705735D01*
X69936345Y-75703081D01*
X69936809Y-75703133D01*
X69955250Y-75640334D01*
X69966239Y-75625726D01*
X70046583Y-75533904D01*
X70102843Y-75498130D01*
X70102682Y-75497668D01*
X70104659Y-75496976D01*
X70105537Y-75496418D01*
X70108265Y-75495714D01*
X70109253Y-75495368D01*
X70109255Y-75495368D01*
X70279522Y-75435789D01*
X70432262Y-75339816D01*
X70559816Y-75212262D01*
X70655789Y-75059522D01*
X70715368Y-74889255D01*
X70715369Y-74889249D01*
X70735565Y-74710003D01*
X70735565Y-74709996D01*
X70715369Y-74530750D01*
X70715368Y-74530745D01*
X70655789Y-74360478D01*
X70655188Y-74359522D01*
X70559815Y-74207737D01*
X70432260Y-74080182D01*
X70432258Y-74080181D01*
X70388027Y-74052388D01*
X70341736Y-74000053D01*
X70330000Y-73947395D01*
X70330000Y-72210000D01*
X69557599Y-72210000D01*
X69490560Y-72190315D01*
X69488709Y-72189103D01*
X69463117Y-72172003D01*
X69433372Y-72152128D01*
X69433373Y-72152128D01*
X69433371Y-72152126D01*
X69401290Y-72130690D01*
X69401286Y-72130688D01*
X69298103Y-72087949D01*
X69298102Y-72087948D01*
X69287452Y-72083537D01*
X69287450Y-72083536D01*
X69287449Y-72083536D01*
X69287445Y-72083535D01*
X69240988Y-72074294D01*
X69179077Y-72041909D01*
X69159640Y-72017773D01*
X69152968Y-72006956D01*
X69143339Y-71997327D01*
X69109854Y-71936004D01*
X69114838Y-71866312D01*
X69143345Y-71821959D01*
X69152573Y-71812731D01*
X69241542Y-71668492D01*
X69241547Y-71668481D01*
X69294855Y-71507606D01*
X69304999Y-71408322D01*
X69305000Y-71408309D01*
X69305000Y-71385000D01*
X66854000Y-71385000D01*
X66786961Y-71365315D01*
X66741206Y-71312511D01*
X66730000Y-71261000D01*
X66730000Y-71009000D01*
X66749685Y-70941961D01*
X66802489Y-70896206D01*
X66854000Y-70885000D01*
X69304999Y-70885000D01*
X69304999Y-70861692D01*
X69304998Y-70861677D01*
X69294855Y-70762392D01*
X69241547Y-70601518D01*
X69241544Y-70601512D01*
X69240057Y-70599101D01*
X69239541Y-70597215D01*
X69238493Y-70594968D01*
X69238876Y-70594788D01*
X69237999Y-70591582D01*
X74655001Y-70591582D01*
X74661408Y-70662102D01*
X74661409Y-70662107D01*
X74711981Y-70824396D01*
X74799927Y-70969877D01*
X74920122Y-71090072D01*
X75065604Y-71178019D01*
X75065603Y-71178019D01*
X75227894Y-71228590D01*
X75227892Y-71228590D01*
X75298418Y-71234999D01*
X75880000Y-71234999D01*
X75961581Y-71234999D01*
X76032102Y-71228591D01*
X76032107Y-71228590D01*
X76194396Y-71178018D01*
X76339877Y-71090072D01*
X76460072Y-70969877D01*
X76548019Y-70824395D01*
X76598590Y-70662106D01*
X76605000Y-70591572D01*
X76605000Y-70585000D01*
X75880000Y-70585000D01*
X75880000Y-71234999D01*
X75298418Y-71234999D01*
X75379999Y-71234998D01*
X75380000Y-71234998D01*
X75380000Y-70585000D01*
X74655001Y-70585000D01*
X74655001Y-70591582D01*
X69237999Y-70591582D01*
X69221614Y-70531709D01*
X69242534Y-70465045D01*
X69296174Y-70420273D01*
X69345593Y-70410000D01*
X70930000Y-70410000D01*
X70930000Y-69232240D01*
X70949685Y-69165201D01*
X71002489Y-69119446D01*
X71052224Y-69108253D01*
X74582122Y-69057826D01*
X74649430Y-69076550D01*
X74695934Y-69128695D01*
X74702270Y-69144917D01*
X74711522Y-69174606D01*
X74754602Y-69245868D01*
X74799530Y-69320188D01*
X74902015Y-69422673D01*
X74935500Y-69483996D01*
X74930516Y-69553688D01*
X74902015Y-69598035D01*
X74799928Y-69700121D01*
X74799927Y-69700122D01*
X74711980Y-69845604D01*
X74661409Y-70007893D01*
X74655000Y-70078427D01*
X74655000Y-70085000D01*
X76604999Y-70085000D01*
X76604999Y-70078417D01*
X76598591Y-70007897D01*
X76598590Y-70007892D01*
X76548018Y-69845603D01*
X76460072Y-69700122D01*
X76357984Y-69598034D01*
X76324499Y-69536711D01*
X76329483Y-69467019D01*
X76357983Y-69422673D01*
X76460472Y-69320185D01*
X76548478Y-69174606D01*
X76567082Y-69114900D01*
X76605818Y-69056754D01*
X76669842Y-69028779D01*
X76683689Y-69027804D01*
X77804231Y-69011796D01*
X77871543Y-69030521D01*
G37*
%TD.AperFunction*%
%TD*%
%TA.AperFunction,Conductor*%
%TO.N,GND*%
G36*
X53898334Y-65695192D02*
G01*
X53942681Y-65723693D01*
X53951956Y-65732968D01*
X53970596Y-65744465D01*
X54017321Y-65796412D01*
X54029500Y-65850004D01*
X54029500Y-67197901D01*
X54009815Y-67264940D01*
X53993181Y-67285582D01*
X53216681Y-68062082D01*
X53155358Y-68095567D01*
X53085666Y-68090583D01*
X53029733Y-68048711D01*
X53006546Y-67986546D01*
X53005000Y-67985000D01*
X52629500Y-67985000D01*
X52562461Y-67965315D01*
X52516706Y-67912511D01*
X52505500Y-67861000D01*
X52505500Y-67759000D01*
X52525185Y-67691961D01*
X52577989Y-67646206D01*
X52629500Y-67635000D01*
X53004999Y-67635000D01*
X53004999Y-67521486D01*
X52989881Y-67406640D01*
X52989877Y-67406628D01*
X52930683Y-67263719D01*
X52930680Y-67263713D01*
X52861377Y-67173397D01*
X52836182Y-67108228D01*
X52850220Y-67039783D01*
X52861370Y-67022433D01*
X52931117Y-66931537D01*
X52990365Y-66788499D01*
X53005500Y-66673540D01*
X53005500Y-66096460D01*
X52996182Y-66025684D01*
X53006947Y-65956650D01*
X53053327Y-65904394D01*
X53119121Y-65885499D01*
X53353338Y-65885499D01*
X53353344Y-65885499D01*
X53353352Y-65885498D01*
X53353355Y-65885498D01*
X53407760Y-65879940D01*
X53452708Y-65875349D01*
X53613697Y-65822003D01*
X53758044Y-65732968D01*
X53767319Y-65723693D01*
X53828642Y-65690208D01*
X53898334Y-65695192D01*
G37*
%TD.AperFunction*%
%TA.AperFunction,Conductor*%
G36*
X74641756Y-59529685D02*
G01*
X74687511Y-59582489D01*
X74697455Y-59651647D01*
X74668430Y-59715203D01*
X74620364Y-59749292D01*
X74406117Y-59834117D01*
X74406109Y-59834121D01*
X74141476Y-59979604D01*
X74141471Y-59979607D01*
X73916565Y-60143010D01*
X73916564Y-60143011D01*
X74847262Y-61073709D01*
X74713398Y-61170967D01*
X74590967Y-61293398D01*
X74493709Y-61427262D01*
X73565311Y-60498864D01*
X73484520Y-60596525D01*
X73484518Y-60596528D01*
X73322707Y-60851502D01*
X73322704Y-60851508D01*
X73194127Y-61124747D01*
X73194125Y-61124752D01*
X73100805Y-61411959D01*
X73044216Y-61708609D01*
X73044215Y-61708616D01*
X73025255Y-62009994D01*
X73025255Y-62010005D01*
X73044215Y-62311383D01*
X73044216Y-62311390D01*
X73100805Y-62608040D01*
X73194125Y-62895247D01*
X73194127Y-62895252D01*
X73322704Y-63168491D01*
X73322707Y-63168497D01*
X73484516Y-63423469D01*
X73565311Y-63521133D01*
X74493708Y-62592736D01*
X74590967Y-62726602D01*
X74713398Y-62849033D01*
X74847262Y-62946290D01*
X73916564Y-63876987D01*
X73916565Y-63876989D01*
X74141461Y-64040385D01*
X74141479Y-64040397D01*
X74406109Y-64185878D01*
X74406117Y-64185882D01*
X74686889Y-64297047D01*
X74686892Y-64297048D01*
X74979399Y-64372150D01*
X75278995Y-64409999D01*
X75279007Y-64410000D01*
X75580993Y-64410000D01*
X75581004Y-64409999D01*
X75880600Y-64372150D01*
X76173107Y-64297048D01*
X76173110Y-64297047D01*
X76453882Y-64185882D01*
X76453890Y-64185878D01*
X76718520Y-64040397D01*
X76718530Y-64040390D01*
X76943433Y-63876987D01*
X76943434Y-63876987D01*
X76012737Y-62946290D01*
X76146602Y-62849033D01*
X76269033Y-62726602D01*
X76366290Y-62592737D01*
X77294687Y-63521134D01*
X77375486Y-63423464D01*
X77537292Y-63168497D01*
X77537295Y-63168491D01*
X77665872Y-62895252D01*
X77665874Y-62895247D01*
X77688069Y-62826940D01*
X77727506Y-62769265D01*
X77791865Y-62742066D01*
X77860711Y-62753981D01*
X77912187Y-62801225D01*
X77930000Y-62865258D01*
X77930000Y-68382659D01*
X77910315Y-68449698D01*
X77857511Y-68495453D01*
X77801433Y-68505985D01*
X77801438Y-68506284D01*
X77799713Y-68506308D01*
X77798924Y-68506457D01*
X77797005Y-68506347D01*
X76728985Y-68521604D01*
X76661671Y-68502879D01*
X76615167Y-68450734D01*
X76603724Y-68408842D01*
X76599086Y-68357804D01*
X76548478Y-68195394D01*
X76460472Y-68049815D01*
X76460470Y-68049813D01*
X76460469Y-68049811D01*
X76452846Y-68042188D01*
X76419361Y-67980865D01*
X76424345Y-67911173D01*
X76450019Y-67871226D01*
X76449803Y-67871055D01*
X76451546Y-67868849D01*
X76452848Y-67866824D01*
X76454281Y-67865392D01*
X76542549Y-67722288D01*
X76595436Y-67562686D01*
X76605500Y-67464175D01*
X76605500Y-66930827D01*
X76595436Y-66832316D01*
X76542549Y-66672714D01*
X76542545Y-66672708D01*
X76542544Y-66672705D01*
X76454283Y-66529613D01*
X76454280Y-66529609D01*
X76421999Y-66497328D01*
X76388514Y-66436005D01*
X76393498Y-66366313D01*
X76421999Y-66321966D01*
X76453885Y-66290079D01*
X76542091Y-66147076D01*
X76542093Y-66147071D01*
X76594942Y-65987582D01*
X76604999Y-65889149D01*
X76605000Y-65889136D01*
X76605000Y-65872499D01*
X74655001Y-65872499D01*
X74655001Y-65889151D01*
X74665056Y-65987582D01*
X74717906Y-66147071D01*
X74717908Y-66147076D01*
X74806114Y-66290079D01*
X74838001Y-66321966D01*
X74871486Y-66383289D01*
X74866502Y-66452981D01*
X74838001Y-66497328D01*
X74805719Y-66529609D01*
X74805716Y-66529613D01*
X74717455Y-66672705D01*
X74717450Y-66672716D01*
X74690773Y-66753220D01*
X74664564Y-66832316D01*
X74664564Y-66832317D01*
X74664563Y-66832317D01*
X74654500Y-66930819D01*
X74654500Y-67464182D01*
X74664563Y-67562684D01*
X74717450Y-67722285D01*
X74717455Y-67722296D01*
X74805716Y-67865388D01*
X74805719Y-67865392D01*
X74807153Y-67866826D01*
X74807822Y-67868052D01*
X74810197Y-67871055D01*
X74809683Y-67871460D01*
X74840638Y-67928149D01*
X74835654Y-67997841D01*
X74807157Y-68042185D01*
X74799530Y-68049812D01*
X74711522Y-68195393D01*
X74660913Y-68357807D01*
X74654500Y-68428386D01*
X74654500Y-68428999D01*
X74654466Y-68429111D01*
X74654372Y-68431201D01*
X74653860Y-68431177D01*
X74634815Y-68496038D01*
X74582011Y-68541793D01*
X74532271Y-68552986D01*
X71320669Y-68598866D01*
X71045003Y-68602805D01*
X71044999Y-68602805D01*
X71044984Y-68602806D01*
X70941241Y-68615087D01*
X70941237Y-68615087D01*
X70941236Y-68615088D01*
X70929865Y-68617646D01*
X70860141Y-68613161D01*
X70803910Y-68571690D01*
X70779025Y-68506402D01*
X70784256Y-68459786D01*
X70799086Y-68412196D01*
X70805500Y-68341616D01*
X70805500Y-67828384D01*
X70799086Y-67757804D01*
X70748478Y-67595394D01*
X70660472Y-67449815D01*
X70660470Y-67449813D01*
X70660469Y-67449811D01*
X70645838Y-67435180D01*
X70612353Y-67373857D01*
X70617337Y-67304165D01*
X70645838Y-67259818D01*
X70685472Y-67220185D01*
X70773478Y-67074606D01*
X70824086Y-66912196D01*
X70830500Y-66841616D01*
X70830500Y-66178384D01*
X70824086Y-66107804D01*
X70773478Y-65945394D01*
X70685472Y-65799815D01*
X70685470Y-65799813D01*
X70685469Y-65799811D01*
X70565188Y-65679530D01*
X70541933Y-65665472D01*
X70419606Y-65591522D01*
X70257196Y-65540914D01*
X70257194Y-65540913D01*
X70257192Y-65540913D01*
X70207778Y-65536423D01*
X70186616Y-65534500D01*
X69673384Y-65534500D01*
X69654145Y-65536248D01*
X69602807Y-65540913D01*
X69440393Y-65591522D01*
X69294813Y-65679529D01*
X69192680Y-65781662D01*
X69131357Y-65815146D01*
X69061665Y-65810162D01*
X69017318Y-65781661D01*
X68958338Y-65722681D01*
X68924853Y-65661358D01*
X68929837Y-65591666D01*
X68955890Y-65551130D01*
X68955843Y-65551094D01*
X68956237Y-65550590D01*
X68958344Y-65547313D01*
X68960470Y-65545187D01*
X68960470Y-65545186D01*
X68960472Y-65545185D01*
X69048478Y-65399606D01*
X69062113Y-65355848D01*
X74655000Y-65355848D01*
X74655000Y-65372499D01*
X75380000Y-65372499D01*
X75880000Y-65372499D01*
X76604999Y-65372499D01*
X76604999Y-65355863D01*
X76604998Y-65355846D01*
X76594943Y-65257415D01*
X76542093Y-65097926D01*
X76542091Y-65097921D01*
X76453885Y-64954918D01*
X76335080Y-64836113D01*
X76192077Y-64747907D01*
X76192072Y-64747905D01*
X76032583Y-64695056D01*
X75934150Y-64684999D01*
X75880000Y-64684999D01*
X75880000Y-65372499D01*
X75380000Y-65372499D01*
X75380000Y-64684999D01*
X75379999Y-64684998D01*
X75325864Y-64684999D01*
X75325847Y-64685000D01*
X75227415Y-64695056D01*
X75067927Y-64747905D01*
X75067922Y-64747907D01*
X74924919Y-64836113D01*
X74806114Y-64954918D01*
X74717908Y-65097921D01*
X74717906Y-65097926D01*
X74665057Y-65257415D01*
X74655000Y-65355848D01*
X69062113Y-65355848D01*
X69099086Y-65237196D01*
X69105500Y-65166616D01*
X69105500Y-64653384D01*
X69099086Y-64582804D01*
X69048478Y-64420394D01*
X68960472Y-64274815D01*
X68960470Y-64274813D01*
X68960469Y-64274811D01*
X68857984Y-64172326D01*
X68824499Y-64111003D01*
X68829483Y-64041311D01*
X68857985Y-63996963D01*
X68960071Y-63894878D01*
X68960072Y-63894877D01*
X69048019Y-63749395D01*
X69098590Y-63587106D01*
X69105000Y-63516572D01*
X69105000Y-63510000D01*
X67155001Y-63510000D01*
X67155001Y-63516582D01*
X67161408Y-63587102D01*
X67161409Y-63587107D01*
X67211981Y-63749396D01*
X67299927Y-63894877D01*
X67402015Y-63996965D01*
X67435500Y-64058288D01*
X67430516Y-64127980D01*
X67402015Y-64172327D01*
X67301161Y-64273181D01*
X67239838Y-64306666D01*
X67213480Y-64309500D01*
X66869097Y-64309500D01*
X66802058Y-64289815D01*
X66781416Y-64273181D01*
X66724700Y-64216465D01*
X66691215Y-64155142D01*
X66689163Y-64142686D01*
X66679368Y-64055745D01*
X66619789Y-63885478D01*
X66523816Y-63732738D01*
X66396262Y-63605184D01*
X66367485Y-63587102D01*
X66243523Y-63509211D01*
X66073254Y-63449631D01*
X66073249Y-63449630D01*
X65894004Y-63429435D01*
X65893996Y-63429435D01*
X65714750Y-63449630D01*
X65714745Y-63449631D01*
X65544476Y-63509211D01*
X65391737Y-63605184D01*
X65264184Y-63732737D01*
X65168211Y-63885476D01*
X65108631Y-64055745D01*
X65108630Y-64055750D01*
X65088435Y-64234996D01*
X65088435Y-64235003D01*
X65108630Y-64414249D01*
X65108631Y-64414254D01*
X65168211Y-64584523D01*
X65237664Y-64695056D01*
X65264184Y-64737262D01*
X65391738Y-64864816D01*
X65544478Y-64960789D01*
X65714745Y-65020368D01*
X65801669Y-65030161D01*
X65866080Y-65057226D01*
X65875465Y-65065700D01*
X66084139Y-65274374D01*
X66084149Y-65274385D01*
X66088479Y-65278715D01*
X66088480Y-65278716D01*
X66200284Y-65390520D01*
X66265576Y-65428216D01*
X66337215Y-65469577D01*
X66489943Y-65510500D01*
X66648057Y-65510500D01*
X67213480Y-65510500D01*
X67280519Y-65530185D01*
X67301161Y-65546819D01*
X67419811Y-65665469D01*
X67419813Y-65665470D01*
X67419815Y-65665472D01*
X67449864Y-65683637D01*
X67497050Y-65735164D01*
X67508889Y-65804023D01*
X67491830Y-65853902D01*
X67436523Y-65945391D01*
X67385913Y-66107807D01*
X67382345Y-66147076D01*
X67379500Y-66178384D01*
X67379500Y-66841616D01*
X67381423Y-66862778D01*
X67385913Y-66912192D01*
X67385913Y-66912194D01*
X67385914Y-66912196D01*
X67436522Y-67074606D01*
X67436523Y-67074608D01*
X67436524Y-67074610D01*
X67438590Y-67079201D01*
X67448154Y-67148413D01*
X67418781Y-67211809D01*
X67359796Y-67249260D01*
X67289928Y-67248877D01*
X67286511Y-67247799D01*
X67127607Y-67195144D01*
X67028322Y-67185000D01*
X66980000Y-67185000D01*
X66980000Y-68011000D01*
X66960315Y-68078039D01*
X66907511Y-68123794D01*
X66856000Y-68135000D01*
X66730000Y-68135000D01*
X66730000Y-68261000D01*
X66710315Y-68328039D01*
X66657511Y-68373794D01*
X66606000Y-68385000D01*
X65755001Y-68385000D01*
X65755001Y-68408322D01*
X65765144Y-68507607D01*
X65818452Y-68668481D01*
X65818457Y-68668492D01*
X65907424Y-68812728D01*
X65907427Y-68812732D01*
X65916660Y-68821965D01*
X65950145Y-68883288D01*
X65945161Y-68952980D01*
X65916663Y-68997324D01*
X65907033Y-69006953D01*
X65907029Y-69006959D01*
X65818001Y-69151294D01*
X65817996Y-69151305D01*
X65764651Y-69312290D01*
X65754500Y-69411647D01*
X65754500Y-69547769D01*
X65734815Y-69614808D01*
X65718181Y-69635450D01*
X65392180Y-69961451D01*
X65330857Y-69994936D01*
X65261165Y-69989952D01*
X65205232Y-69948080D01*
X65180815Y-69882616D01*
X65180499Y-69873770D01*
X65180499Y-69465232D01*
X65180498Y-69465210D01*
X65177742Y-69430178D01*
X65134169Y-69280199D01*
X65057940Y-69151303D01*
X65054669Y-69145772D01*
X65054662Y-69145763D01*
X64944236Y-69035337D01*
X64944227Y-69035330D01*
X64809799Y-68955830D01*
X64809796Y-68955829D01*
X64659826Y-68912258D01*
X64659820Y-68912257D01*
X64627771Y-68909735D01*
X64624779Y-68909500D01*
X64624778Y-68909500D01*
X63135232Y-68909500D01*
X63135210Y-68909501D01*
X63100177Y-68912258D01*
X63100176Y-68912258D01*
X62950203Y-68955829D01*
X62950200Y-68955830D01*
X62815772Y-69035330D01*
X62815763Y-69035337D01*
X62705337Y-69145763D01*
X62705330Y-69145772D01*
X62625830Y-69280200D01*
X62625829Y-69280203D01*
X62582258Y-69430173D01*
X62582257Y-69430179D01*
X62579500Y-69465214D01*
X62579500Y-72554767D01*
X62579501Y-72554789D01*
X62582258Y-72589822D01*
X62582258Y-72589823D01*
X62625829Y-72739796D01*
X62625830Y-72739799D01*
X62705330Y-72874227D01*
X62705337Y-72874236D01*
X62815763Y-72984662D01*
X62815767Y-72984665D01*
X62815769Y-72984667D01*
X62950199Y-73064169D01*
X62989750Y-73075659D01*
X63100173Y-73107741D01*
X63100176Y-73107741D01*
X63100178Y-73107742D01*
X63135221Y-73110500D01*
X64624778Y-73110499D01*
X64659822Y-73107742D01*
X64809801Y-73064169D01*
X64944231Y-72984667D01*
X64970576Y-72958322D01*
X65755001Y-72958322D01*
X65765144Y-73057607D01*
X65818452Y-73218481D01*
X65818457Y-73218492D01*
X65907424Y-73362728D01*
X65907427Y-73362732D01*
X66027267Y-73482572D01*
X66027271Y-73482575D01*
X66171507Y-73571542D01*
X66171518Y-73571547D01*
X66332393Y-73624855D01*
X66431683Y-73634999D01*
X66980000Y-73634999D01*
X67028308Y-73634999D01*
X67028322Y-73634998D01*
X67127607Y-73624855D01*
X67288481Y-73571547D01*
X67288492Y-73571542D01*
X67432728Y-73482575D01*
X67432732Y-73482572D01*
X67442319Y-73472986D01*
X67503642Y-73439501D01*
X67573334Y-73444485D01*
X67617681Y-73472986D01*
X67627267Y-73482572D01*
X67627271Y-73482575D01*
X67771507Y-73571542D01*
X67771518Y-73571547D01*
X67932393Y-73624855D01*
X68031683Y-73634999D01*
X68079999Y-73634998D01*
X68080000Y-73634998D01*
X68080000Y-72935000D01*
X66980000Y-72935000D01*
X66980000Y-73634999D01*
X66431683Y-73634999D01*
X66479999Y-73634998D01*
X66480000Y-73634998D01*
X66480000Y-72935000D01*
X65755001Y-72935000D01*
X65755001Y-72958322D01*
X64970576Y-72958322D01*
X65054667Y-72874231D01*
X65134169Y-72739801D01*
X65177742Y-72589822D01*
X65180500Y-72554779D01*
X65180500Y-71884500D01*
X65200185Y-71817461D01*
X65252989Y-71771706D01*
X65304500Y-71760500D01*
X65331083Y-71760500D01*
X65478917Y-71760500D01*
X65478918Y-71760500D01*
X65805453Y-71760500D01*
X65872492Y-71780185D01*
X65902724Y-71807595D01*
X65907036Y-71813049D01*
X65916659Y-71822672D01*
X65950144Y-71883995D01*
X65945160Y-71953687D01*
X65916665Y-71998028D01*
X65907430Y-72007264D01*
X65907424Y-72007271D01*
X65818457Y-72151507D01*
X65818452Y-72151518D01*
X65765144Y-72312393D01*
X65755000Y-72411677D01*
X65755000Y-72435000D01*
X68206000Y-72435000D01*
X68273039Y-72454685D01*
X68318794Y-72507489D01*
X68330000Y-72559000D01*
X68330000Y-72685000D01*
X68456000Y-72685000D01*
X68523039Y-72704685D01*
X68568794Y-72757489D01*
X68580000Y-72809000D01*
X68580000Y-73634999D01*
X68628308Y-73634999D01*
X68628322Y-73634998D01*
X68727607Y-73624855D01*
X68888481Y-73571547D01*
X68888492Y-73571542D01*
X69032728Y-73482575D01*
X69032732Y-73482572D01*
X69152572Y-73362732D01*
X69152575Y-73362728D01*
X69241542Y-73218492D01*
X69241547Y-73218481D01*
X69294855Y-73057606D01*
X69304999Y-72958322D01*
X69304999Y-72822286D01*
X69324683Y-72755246D01*
X69377487Y-72709491D01*
X69446643Y-72699547D01*
X69557599Y-72715500D01*
X69700500Y-72715500D01*
X69767539Y-72735185D01*
X69813294Y-72787989D01*
X69824500Y-72839500D01*
X69824500Y-73947395D01*
X69824499Y-73947395D01*
X69836603Y-74057345D01*
X69836606Y-74057362D01*
X69848342Y-74110024D01*
X69884079Y-74214717D01*
X69884082Y-74214722D01*
X69963099Y-74334962D01*
X70009390Y-74387297D01*
X70105425Y-74468814D01*
X70112862Y-74475668D01*
X70152215Y-74515021D01*
X70169524Y-74536725D01*
X70190035Y-74569368D01*
X70202082Y-74594383D01*
X70214809Y-74630756D01*
X70220987Y-74657826D01*
X70225301Y-74696116D01*
X70225301Y-74723882D01*
X70220987Y-74762172D01*
X70214809Y-74789243D01*
X70202081Y-74825618D01*
X70190032Y-74850636D01*
X70169529Y-74883266D01*
X70152217Y-74904975D01*
X70124975Y-74932217D01*
X70103267Y-74949529D01*
X70070634Y-74970034D01*
X70045614Y-74982083D01*
X69986132Y-75002896D01*
X69986115Y-75002896D01*
X69946252Y-75016849D01*
X69946249Y-75016851D01*
X69942259Y-75018248D01*
X69942254Y-75018249D01*
X69933616Y-75021273D01*
X69933599Y-75021279D01*
X69915135Y-75027739D01*
X69914707Y-75028214D01*
X69898944Y-75036403D01*
X69864015Y-75051478D01*
X69863837Y-75051067D01*
X69833431Y-75070401D01*
X69833410Y-75070414D01*
X69790290Y-75097819D01*
X69790194Y-75097894D01*
X69775342Y-75107338D01*
X69666154Y-75201032D01*
X69585806Y-75292857D01*
X69562280Y-75321836D01*
X69551288Y-75336449D01*
X69530005Y-75367025D01*
X69530000Y-75367035D01*
X69470229Y-75497906D01*
X69470227Y-75497912D01*
X69465401Y-75514347D01*
X69465348Y-75514428D01*
X69451083Y-75563108D01*
X69451064Y-75563171D01*
X69444718Y-75584781D01*
X69446183Y-75591512D01*
X69442479Y-75613988D01*
X69442331Y-75614555D01*
X69436533Y-75624206D01*
X69434107Y-75645743D01*
X69434102Y-75645790D01*
X69427998Y-75699779D01*
X69427996Y-75699972D01*
X69420988Y-75762173D01*
X69414809Y-75789245D01*
X69402082Y-75825616D01*
X69390034Y-75850634D01*
X69369529Y-75883267D01*
X69352217Y-75904975D01*
X69324975Y-75932217D01*
X69303267Y-75949529D01*
X69270634Y-75970034D01*
X69245616Y-75982082D01*
X69223390Y-75989859D01*
X69146172Y-76016879D01*
X69146088Y-76016906D01*
X69140153Y-76018985D01*
X69140122Y-76018996D01*
X69118984Y-76026392D01*
X69113655Y-76032284D01*
X69105514Y-76036861D01*
X69017388Y-76082123D01*
X68970501Y-76115033D01*
X68962186Y-76120870D01*
X68962181Y-76120874D01*
X68962172Y-76120882D01*
X68860615Y-76215436D01*
X68860612Y-76215440D01*
X68786570Y-76338796D01*
X68786567Y-76338803D01*
X68759501Y-76403216D01*
X68724036Y-76539277D01*
X68723211Y-76542443D01*
X68721431Y-76558236D01*
X68720987Y-76562178D01*
X68714809Y-76589241D01*
X68702081Y-76625617D01*
X68690032Y-76650636D01*
X68669529Y-76683266D01*
X68652217Y-76704975D01*
X68624975Y-76732217D01*
X68603266Y-76749529D01*
X68570636Y-76770032D01*
X68545618Y-76782081D01*
X68509243Y-76794809D01*
X68482172Y-76800987D01*
X68443882Y-76805301D01*
X68416117Y-76805301D01*
X68377825Y-76800987D01*
X68350756Y-76794809D01*
X68314376Y-76782079D01*
X68289364Y-76770034D01*
X68264918Y-76754674D01*
X68264914Y-76754672D01*
X68138400Y-76697671D01*
X68138387Y-76697667D01*
X68129628Y-76695095D01*
X68073685Y-76678668D01*
X68073683Y-76678667D01*
X68073681Y-76678667D01*
X68073679Y-76678666D01*
X67936411Y-76658215D01*
X67793802Y-76677239D01*
X67726550Y-76696244D01*
X67595090Y-76754669D01*
X67570630Y-76770037D01*
X67545618Y-76782081D01*
X67509243Y-76794809D01*
X67482172Y-76800987D01*
X67443882Y-76805301D01*
X67416116Y-76805301D01*
X67377826Y-76800987D01*
X67350755Y-76794809D01*
X67314380Y-76782081D01*
X67289362Y-76770032D01*
X67256732Y-76749529D01*
X67235023Y-76732217D01*
X67193981Y-76691175D01*
X67182019Y-76677300D01*
X67181021Y-76675953D01*
X67167014Y-76657042D01*
X67142260Y-76628476D01*
X67140349Y-76626585D01*
X67123100Y-76609512D01*
X67087344Y-76574121D01*
X67087341Y-76574119D01*
X67087342Y-76574119D01*
X66965512Y-76497574D01*
X66902484Y-76469566D01*
X66901701Y-76469212D01*
X66901663Y-76469201D01*
X66813954Y-76444420D01*
X66763204Y-76430081D01*
X66763203Y-76430081D01*
X66734428Y-76430375D01*
X66619326Y-76431554D01*
X66550275Y-76442205D01*
X66550265Y-76442207D01*
X66412657Y-76484146D01*
X66292421Y-76563164D01*
X66280023Y-76574131D01*
X66242373Y-76607434D01*
X66240839Y-76608725D01*
X66240077Y-76609465D01*
X66200422Y-76656187D01*
X66193565Y-76663627D01*
X66124975Y-76732217D01*
X66103266Y-76749529D01*
X66070636Y-76770032D01*
X66045618Y-76782081D01*
X66009243Y-76794809D01*
X65982172Y-76800987D01*
X65943882Y-76805301D01*
X65916116Y-76805301D01*
X65877826Y-76800987D01*
X65850755Y-76794809D01*
X65814380Y-76782081D01*
X65789362Y-76770032D01*
X65756732Y-76749529D01*
X65735023Y-76732217D01*
X65693981Y-76691175D01*
X65682019Y-76677300D01*
X65681021Y-76675953D01*
X65667014Y-76657042D01*
X65642260Y-76628476D01*
X65640349Y-76626585D01*
X65623100Y-76609512D01*
X65587344Y-76574121D01*
X65587341Y-76574119D01*
X65587342Y-76574119D01*
X65465512Y-76497574D01*
X65402484Y-76469566D01*
X65401701Y-76469212D01*
X65401663Y-76469201D01*
X65313954Y-76444420D01*
X65263204Y-76430081D01*
X65263203Y-76430081D01*
X65234428Y-76430375D01*
X65119326Y-76431554D01*
X65050275Y-76442205D01*
X65050265Y-76442207D01*
X64912657Y-76484146D01*
X64792421Y-76563164D01*
X64780023Y-76574131D01*
X64742373Y-76607434D01*
X64740839Y-76608725D01*
X64740077Y-76609465D01*
X64700422Y-76656187D01*
X64693565Y-76663627D01*
X64624975Y-76732217D01*
X64603266Y-76749529D01*
X64570636Y-76770032D01*
X64545618Y-76782081D01*
X64509243Y-76794809D01*
X64482172Y-76800987D01*
X64443882Y-76805301D01*
X64416116Y-76805301D01*
X64377826Y-76800987D01*
X64350755Y-76794809D01*
X64314380Y-76782081D01*
X64289362Y-76770032D01*
X64256732Y-76749529D01*
X64235023Y-76732217D01*
X64193981Y-76691175D01*
X64182019Y-76677300D01*
X64181021Y-76675953D01*
X64167014Y-76657042D01*
X64142260Y-76628476D01*
X64140349Y-76626585D01*
X64123100Y-76609512D01*
X64087344Y-76574121D01*
X64087341Y-76574119D01*
X64087342Y-76574119D01*
X63965512Y-76497574D01*
X63902484Y-76469566D01*
X63901701Y-76469212D01*
X63901663Y-76469201D01*
X63813954Y-76444420D01*
X63763204Y-76430081D01*
X63763203Y-76430081D01*
X63734428Y-76430375D01*
X63619326Y-76431554D01*
X63550275Y-76442205D01*
X63550265Y-76442207D01*
X63412657Y-76484146D01*
X63292421Y-76563164D01*
X63280023Y-76574131D01*
X63242373Y-76607434D01*
X63240839Y-76608725D01*
X63240077Y-76609465D01*
X63200422Y-76656187D01*
X63193565Y-76663627D01*
X63124975Y-76732217D01*
X63103266Y-76749529D01*
X63070636Y-76770032D01*
X63045618Y-76782081D01*
X63009243Y-76794809D01*
X62982172Y-76800987D01*
X62943882Y-76805301D01*
X62916116Y-76805301D01*
X62877826Y-76800987D01*
X62850755Y-76794809D01*
X62814380Y-76782081D01*
X62789362Y-76770032D01*
X62756732Y-76749529D01*
X62735023Y-76732217D01*
X62693984Y-76691178D01*
X62682020Y-76677300D01*
X62667023Y-76657052D01*
X62642275Y-76628491D01*
X62640362Y-76626597D01*
X62587358Y-76574130D01*
X62587357Y-76574129D01*
X62465540Y-76497588D01*
X62465533Y-76497584D01*
X62465531Y-76497583D01*
X62465527Y-76497581D01*
X62465521Y-76497578D01*
X62425604Y-76479839D01*
X62401682Y-76469208D01*
X62401674Y-76469205D01*
X62401672Y-76469204D01*
X62401671Y-76469204D01*
X62263216Y-76430082D01*
X62263215Y-76430082D01*
X62239236Y-76430327D01*
X62119337Y-76431553D01*
X62050289Y-76442202D01*
X62050284Y-76442204D01*
X61912673Y-76484140D01*
X61912672Y-76484140D01*
X61792437Y-76563153D01*
X61792425Y-76563162D01*
X61740532Y-76609062D01*
X61740115Y-76609426D01*
X61740078Y-76609463D01*
X61700421Y-76656187D01*
X61693565Y-76663627D01*
X61624975Y-76732217D01*
X61603266Y-76749529D01*
X61570636Y-76770032D01*
X61545618Y-76782081D01*
X61509243Y-76794809D01*
X61482172Y-76800987D01*
X61443882Y-76805301D01*
X61416116Y-76805301D01*
X61377826Y-76800987D01*
X61350755Y-76794809D01*
X61314380Y-76782081D01*
X61289362Y-76770032D01*
X61256732Y-76749529D01*
X61235023Y-76732217D01*
X61193981Y-76691175D01*
X61182019Y-76677300D01*
X61181021Y-76675953D01*
X61167014Y-76657042D01*
X61142260Y-76628476D01*
X61140349Y-76626585D01*
X61123100Y-76609512D01*
X61087344Y-76574121D01*
X61087341Y-76574119D01*
X61087342Y-76574119D01*
X60965512Y-76497574D01*
X60902484Y-76469566D01*
X60901701Y-76469212D01*
X60901663Y-76469201D01*
X60813954Y-76444420D01*
X60763204Y-76430081D01*
X60763203Y-76430081D01*
X60734428Y-76430375D01*
X60619326Y-76431554D01*
X60550275Y-76442205D01*
X60550265Y-76442207D01*
X60412657Y-76484146D01*
X60292421Y-76563164D01*
X60280023Y-76574131D01*
X60242373Y-76607434D01*
X60240839Y-76608725D01*
X60240077Y-76609465D01*
X60200422Y-76656187D01*
X60193565Y-76663627D01*
X60124975Y-76732217D01*
X60103266Y-76749529D01*
X60070636Y-76770032D01*
X60045618Y-76782081D01*
X60009243Y-76794809D01*
X59982172Y-76800987D01*
X59943882Y-76805301D01*
X59916116Y-76805301D01*
X59877826Y-76800987D01*
X59850755Y-76794809D01*
X59814380Y-76782081D01*
X59789362Y-76770032D01*
X59756732Y-76749529D01*
X59735023Y-76732217D01*
X59693981Y-76691175D01*
X59682019Y-76677300D01*
X59681021Y-76675953D01*
X59667014Y-76657042D01*
X59642260Y-76628476D01*
X59640349Y-76626585D01*
X59623100Y-76609512D01*
X59587344Y-76574121D01*
X59587341Y-76574119D01*
X59587342Y-76574119D01*
X59465512Y-76497574D01*
X59402484Y-76469566D01*
X59401701Y-76469212D01*
X59401663Y-76469201D01*
X59313954Y-76444420D01*
X59263204Y-76430081D01*
X59263203Y-76430081D01*
X59234428Y-76430375D01*
X59119326Y-76431554D01*
X59050275Y-76442205D01*
X59050265Y-76442207D01*
X58912657Y-76484146D01*
X58792421Y-76563164D01*
X58780023Y-76574131D01*
X58742373Y-76607434D01*
X58740839Y-76608725D01*
X58740077Y-76609465D01*
X58700422Y-76656187D01*
X58693565Y-76663627D01*
X58624975Y-76732217D01*
X58603266Y-76749529D01*
X58570636Y-76770032D01*
X58545618Y-76782081D01*
X58509243Y-76794809D01*
X58482172Y-76800987D01*
X58443882Y-76805301D01*
X58416116Y-76805301D01*
X58377826Y-76800987D01*
X58350755Y-76794809D01*
X58314380Y-76782081D01*
X58289362Y-76770032D01*
X58256732Y-76749529D01*
X58235023Y-76732217D01*
X58193981Y-76691175D01*
X58182019Y-76677300D01*
X58181021Y-76675953D01*
X58167014Y-76657042D01*
X58142260Y-76628476D01*
X58140349Y-76626585D01*
X58123100Y-76609512D01*
X58087344Y-76574121D01*
X58087341Y-76574119D01*
X58087342Y-76574119D01*
X57965512Y-76497574D01*
X57902484Y-76469566D01*
X57901701Y-76469212D01*
X57901663Y-76469201D01*
X57813954Y-76444420D01*
X57763204Y-76430081D01*
X57763203Y-76430081D01*
X57734428Y-76430375D01*
X57619326Y-76431554D01*
X57550275Y-76442205D01*
X57550265Y-76442207D01*
X57412657Y-76484146D01*
X57292421Y-76563164D01*
X57280023Y-76574131D01*
X57242373Y-76607434D01*
X57240839Y-76608725D01*
X57240077Y-76609465D01*
X57200422Y-76656187D01*
X57193565Y-76663627D01*
X57124975Y-76732217D01*
X57103266Y-76749529D01*
X57070636Y-76770032D01*
X57045618Y-76782081D01*
X57009243Y-76794809D01*
X56982172Y-76800987D01*
X56943882Y-76805301D01*
X56916117Y-76805301D01*
X56877825Y-76800987D01*
X56850756Y-76794809D01*
X56814376Y-76782079D01*
X56789364Y-76770034D01*
X56764918Y-76754674D01*
X56764914Y-76754672D01*
X56638400Y-76697671D01*
X56638387Y-76697667D01*
X56629628Y-76695095D01*
X56573685Y-76678668D01*
X56573683Y-76678667D01*
X56573681Y-76678667D01*
X56573679Y-76678666D01*
X56436411Y-76658215D01*
X56293802Y-76677239D01*
X56226550Y-76696244D01*
X56095090Y-76754669D01*
X56070630Y-76770037D01*
X56045618Y-76782081D01*
X56009243Y-76794809D01*
X55982172Y-76800987D01*
X55943882Y-76805301D01*
X55916116Y-76805301D01*
X55877826Y-76800987D01*
X55850755Y-76794809D01*
X55814380Y-76782081D01*
X55789362Y-76770032D01*
X55756732Y-76749529D01*
X55735023Y-76732217D01*
X55693981Y-76691175D01*
X55682019Y-76677300D01*
X55681021Y-76675953D01*
X55667014Y-76657042D01*
X55642260Y-76628476D01*
X55640349Y-76626585D01*
X55623100Y-76609512D01*
X55587344Y-76574121D01*
X55587341Y-76574119D01*
X55587342Y-76574119D01*
X55465512Y-76497574D01*
X55402484Y-76469566D01*
X55401701Y-76469212D01*
X55401663Y-76469201D01*
X55313954Y-76444420D01*
X55263204Y-76430081D01*
X55263203Y-76430081D01*
X55234428Y-76430375D01*
X55119326Y-76431554D01*
X55050275Y-76442205D01*
X55050265Y-76442207D01*
X54912657Y-76484146D01*
X54792421Y-76563164D01*
X54780023Y-76574131D01*
X54742373Y-76607434D01*
X54740839Y-76608725D01*
X54740077Y-76609465D01*
X54700422Y-76656187D01*
X54693565Y-76663627D01*
X54624975Y-76732217D01*
X54603266Y-76749529D01*
X54570636Y-76770032D01*
X54545618Y-76782081D01*
X54509243Y-76794809D01*
X54482172Y-76800987D01*
X54443882Y-76805301D01*
X54416116Y-76805301D01*
X54377826Y-76800987D01*
X54350755Y-76794809D01*
X54314380Y-76782081D01*
X54289362Y-76770032D01*
X54256732Y-76749529D01*
X54235023Y-76732217D01*
X54193981Y-76691175D01*
X54182019Y-76677300D01*
X54181021Y-76675953D01*
X54167014Y-76657042D01*
X54142260Y-76628476D01*
X54140349Y-76626585D01*
X54123100Y-76609512D01*
X54087344Y-76574121D01*
X54087341Y-76574119D01*
X54087342Y-76574119D01*
X53965512Y-76497574D01*
X53902484Y-76469566D01*
X53901701Y-76469212D01*
X53901663Y-76469201D01*
X53813954Y-76444420D01*
X53763204Y-76430081D01*
X53763203Y-76430081D01*
X53734428Y-76430375D01*
X53619326Y-76431554D01*
X53550275Y-76442205D01*
X53550265Y-76442207D01*
X53412657Y-76484146D01*
X53292421Y-76563164D01*
X53280023Y-76574131D01*
X53242373Y-76607434D01*
X53240839Y-76608725D01*
X53240077Y-76609465D01*
X53200422Y-76656187D01*
X53193565Y-76663627D01*
X53124975Y-76732217D01*
X53103266Y-76749529D01*
X53070636Y-76770032D01*
X53045618Y-76782081D01*
X53009243Y-76794809D01*
X52982172Y-76800987D01*
X52943882Y-76805301D01*
X52916116Y-76805301D01*
X52877826Y-76800987D01*
X52850755Y-76794809D01*
X52814380Y-76782081D01*
X52789362Y-76770032D01*
X52756732Y-76749529D01*
X52735023Y-76732217D01*
X52693981Y-76691175D01*
X52682019Y-76677300D01*
X52681021Y-76675953D01*
X52667014Y-76657042D01*
X52642260Y-76628476D01*
X52640349Y-76626585D01*
X52623100Y-76609512D01*
X52587344Y-76574121D01*
X52587341Y-76574119D01*
X52587342Y-76574119D01*
X52465512Y-76497574D01*
X52402484Y-76469566D01*
X52401701Y-76469212D01*
X52401663Y-76469201D01*
X52313954Y-76444420D01*
X52263204Y-76430081D01*
X52263203Y-76430081D01*
X52234428Y-76430375D01*
X52119326Y-76431554D01*
X52050275Y-76442205D01*
X52050265Y-76442207D01*
X51912657Y-76484146D01*
X51792421Y-76563164D01*
X51780023Y-76574131D01*
X51742373Y-76607434D01*
X51740839Y-76608725D01*
X51740077Y-76609465D01*
X51700422Y-76656187D01*
X51693565Y-76663627D01*
X51624975Y-76732217D01*
X51603266Y-76749529D01*
X51570636Y-76770032D01*
X51545618Y-76782081D01*
X51509243Y-76794809D01*
X51482172Y-76800987D01*
X51443882Y-76805301D01*
X51416116Y-76805301D01*
X51377826Y-76800987D01*
X51350755Y-76794809D01*
X51314380Y-76782081D01*
X51289362Y-76770032D01*
X51256732Y-76749529D01*
X51235023Y-76732217D01*
X51193981Y-76691175D01*
X51182019Y-76677300D01*
X51181021Y-76675953D01*
X51167014Y-76657042D01*
X51142260Y-76628476D01*
X51140349Y-76626585D01*
X51123100Y-76609512D01*
X51087344Y-76574121D01*
X51087341Y-76574119D01*
X51087342Y-76574119D01*
X50965512Y-76497574D01*
X50902484Y-76469566D01*
X50901701Y-76469212D01*
X50901663Y-76469201D01*
X50813954Y-76444420D01*
X50763204Y-76430081D01*
X50763203Y-76430081D01*
X50734428Y-76430375D01*
X50619326Y-76431554D01*
X50550275Y-76442205D01*
X50550265Y-76442207D01*
X50412657Y-76484146D01*
X50292421Y-76563164D01*
X50280023Y-76574131D01*
X50242373Y-76607434D01*
X50240839Y-76608725D01*
X50240077Y-76609465D01*
X50200422Y-76656187D01*
X50193565Y-76663627D01*
X50124975Y-76732217D01*
X50103266Y-76749529D01*
X50070636Y-76770032D01*
X50045618Y-76782081D01*
X50009243Y-76794809D01*
X49982172Y-76800987D01*
X49943882Y-76805301D01*
X49916116Y-76805301D01*
X49877826Y-76800987D01*
X49850755Y-76794809D01*
X49814380Y-76782081D01*
X49789362Y-76770032D01*
X49756732Y-76749529D01*
X49735023Y-76732217D01*
X49677087Y-76674281D01*
X49667750Y-76663824D01*
X49647701Y-76638635D01*
X49647694Y-76638628D01*
X49609064Y-76599856D01*
X49609063Y-76599855D01*
X49570578Y-76568989D01*
X49521505Y-76529630D01*
X49521503Y-76529629D01*
X49521501Y-76529628D01*
X49521500Y-76529627D01*
X49390238Y-76470707D01*
X49333936Y-76454571D01*
X49327458Y-76452059D01*
X49323073Y-76451457D01*
X49216727Y-76436870D01*
X49180521Y-76431904D01*
X49171275Y-76431964D01*
X49062985Y-76444419D01*
X49062982Y-76444419D01*
X49062978Y-76444420D01*
X49062968Y-76444422D01*
X49062964Y-76444423D01*
X49011141Y-76456149D01*
X49011123Y-76456154D01*
X48908021Y-76491536D01*
X48908013Y-76491539D01*
X48787788Y-76570550D01*
X48787768Y-76570565D01*
X48735448Y-76616845D01*
X48731313Y-76621717D01*
X48716956Y-76638631D01*
X48711204Y-76645407D01*
X48704350Y-76652843D01*
X48624972Y-76732219D01*
X48603265Y-76749530D01*
X48570637Y-76770032D01*
X48545618Y-76782081D01*
X48509243Y-76794809D01*
X48482172Y-76800987D01*
X48443882Y-76805301D01*
X48416116Y-76805301D01*
X48377826Y-76800987D01*
X48350755Y-76794809D01*
X48314380Y-76782081D01*
X48289362Y-76770032D01*
X48256732Y-76749529D01*
X48235023Y-76732217D01*
X48169175Y-76666369D01*
X48159834Y-76655907D01*
X48159281Y-76655212D01*
X48153767Y-76648284D01*
X48115140Y-76609512D01*
X48027575Y-76539277D01*
X48027574Y-76539276D01*
X48027572Y-76539275D01*
X47896313Y-76480351D01*
X47829153Y-76461101D01*
X47745882Y-76449675D01*
X47686611Y-76441543D01*
X47686610Y-76441543D01*
X47686603Y-76441542D01*
X47665191Y-76441680D01*
X47556872Y-76454137D01*
X47556871Y-76454137D01*
X47505017Y-76465871D01*
X47401879Y-76501268D01*
X47281646Y-76580293D01*
X47230038Y-76625947D01*
X47229385Y-76626515D01*
X47229298Y-76626602D01*
X47225326Y-76631283D01*
X47218467Y-76638726D01*
X47124972Y-76732219D01*
X47103265Y-76749530D01*
X47070637Y-76770032D01*
X47045618Y-76782081D01*
X47009243Y-76794809D01*
X46982172Y-76800987D01*
X46943882Y-76805301D01*
X46916116Y-76805301D01*
X46877826Y-76800987D01*
X46850755Y-76794809D01*
X46814380Y-76782081D01*
X46789362Y-76770032D01*
X46756732Y-76749529D01*
X46735023Y-76732217D01*
X46653252Y-76650446D01*
X46649730Y-76646777D01*
X46648468Y-76645407D01*
X46642347Y-76638762D01*
X46642346Y-76638761D01*
X46642343Y-76638758D01*
X46639128Y-76635941D01*
X46633161Y-76630355D01*
X46624390Y-76621584D01*
X46623948Y-76621226D01*
X46623894Y-76621286D01*
X46623882Y-76621302D01*
X46623881Y-76621301D01*
X46623753Y-76621444D01*
X46621193Y-76619145D01*
X46565068Y-76574130D01*
X46533621Y-76548908D01*
X46402359Y-76489985D01*
X46402357Y-76489984D01*
X46402352Y-76489982D01*
X46335203Y-76470736D01*
X46228901Y-76456154D01*
X46192657Y-76451182D01*
X46192655Y-76451182D01*
X46192648Y-76451181D01*
X46159076Y-76451398D01*
X46050748Y-76463859D01*
X46050740Y-76463860D01*
X45998873Y-76475600D01*
X45895744Y-76511000D01*
X45775515Y-76590031D01*
X45775513Y-76590033D01*
X45737470Y-76623690D01*
X45729997Y-76627197D01*
X45705728Y-76651465D01*
X45700224Y-76656643D01*
X45699983Y-76656855D01*
X45697850Y-76659343D01*
X45624972Y-76732219D01*
X45603265Y-76749530D01*
X45570637Y-76770032D01*
X45545618Y-76782081D01*
X45509243Y-76794809D01*
X45482172Y-76800987D01*
X45443882Y-76805301D01*
X45416116Y-76805301D01*
X45377826Y-76800987D01*
X45350755Y-76794809D01*
X45314380Y-76782081D01*
X45289362Y-76770032D01*
X45256732Y-76749529D01*
X45235023Y-76732217D01*
X45165893Y-76663087D01*
X45164126Y-76659852D01*
X45132273Y-76631283D01*
X45107697Y-76609240D01*
X45053443Y-76568173D01*
X45040718Y-76558541D01*
X44930904Y-76509246D01*
X44909458Y-76499619D01*
X44909453Y-76499617D01*
X44909444Y-76499614D01*
X44842300Y-76480369D01*
X44699750Y-76460813D01*
X44651886Y-76461122D01*
X44651871Y-76461122D01*
X44651870Y-76461123D01*
X44651864Y-76461123D01*
X44651857Y-76461124D01*
X44571387Y-76468097D01*
X44571370Y-76468100D01*
X44532419Y-76474644D01*
X44532414Y-76474645D01*
X44454051Y-76494359D01*
X44325724Y-76559428D01*
X44254101Y-76609709D01*
X44252108Y-76613742D01*
X44235282Y-76628940D01*
X44233798Y-76630052D01*
X44223174Y-76634020D01*
X44210478Y-76646716D01*
X44210477Y-76646715D01*
X44210475Y-76646718D01*
X44210471Y-76646723D01*
X44207337Y-76649855D01*
X44207335Y-76649858D01*
X44202410Y-76654782D01*
X44202403Y-76654789D01*
X44200639Y-76656554D01*
X44200638Y-76656553D01*
X44200626Y-76656566D01*
X44200626Y-76656567D01*
X44124973Y-76732219D01*
X44103265Y-76749530D01*
X44070637Y-76770032D01*
X44045618Y-76782081D01*
X44009243Y-76794809D01*
X43982172Y-76800987D01*
X43943882Y-76805301D01*
X43916116Y-76805301D01*
X43877826Y-76800987D01*
X43850755Y-76794809D01*
X43814380Y-76782081D01*
X43789362Y-76770032D01*
X43756732Y-76749529D01*
X43735023Y-76732217D01*
X43657605Y-76654799D01*
X43657586Y-76654782D01*
X43616081Y-76617619D01*
X43594766Y-76600555D01*
X43586616Y-76594738D01*
X43557746Y-76574131D01*
X43549399Y-76568173D01*
X43549397Y-76568172D01*
X43549393Y-76568169D01*
X43418140Y-76509246D01*
X43418137Y-76509245D01*
X43353529Y-76490725D01*
X43351736Y-76490170D01*
X43350961Y-76489989D01*
X43208422Y-76470434D01*
X43208421Y-76470434D01*
X43143030Y-76470856D01*
X43090626Y-76473919D01*
X43065093Y-76476747D01*
X43013293Y-76485226D01*
X43013292Y-76485226D01*
X42878480Y-76535507D01*
X42878474Y-76535510D01*
X42819117Y-76567921D01*
X42817643Y-76568691D01*
X42817158Y-76568990D01*
X42701980Y-76655212D01*
X42701977Y-76655214D01*
X42701975Y-76655217D01*
X42687878Y-76669314D01*
X42624967Y-76732223D01*
X42603260Y-76749533D01*
X42570637Y-76770032D01*
X42545618Y-76782081D01*
X42509243Y-76794809D01*
X42482172Y-76800987D01*
X42443882Y-76805301D01*
X42416116Y-76805301D01*
X42377826Y-76800987D01*
X42350755Y-76794809D01*
X42314380Y-76782081D01*
X42289362Y-76770032D01*
X42256732Y-76749529D01*
X42235023Y-76732217D01*
X42167220Y-76664414D01*
X42162125Y-76659852D01*
X42125698Y-76627236D01*
X42125690Y-76627229D01*
X42104391Y-76610178D01*
X42104388Y-76610176D01*
X42104382Y-76610171D01*
X42059001Y-76577779D01*
X41927740Y-76518856D01*
X41927736Y-76518854D01*
X41927726Y-76518851D01*
X41860582Y-76499606D01*
X41718035Y-76480050D01*
X41331348Y-76482544D01*
X41278931Y-76485608D01*
X41253406Y-76488436D01*
X41253376Y-76488440D01*
X41201601Y-76496916D01*
X41066794Y-76547197D01*
X41005469Y-76580682D01*
X40890291Y-76666904D01*
X40890278Y-76666915D01*
X40824971Y-76732220D01*
X40803265Y-76749530D01*
X40770637Y-76770032D01*
X40745618Y-76782081D01*
X40709243Y-76794809D01*
X40682172Y-76800987D01*
X40643882Y-76805301D01*
X40616116Y-76805301D01*
X40577826Y-76800987D01*
X40550755Y-76794809D01*
X40514380Y-76782081D01*
X40489362Y-76770032D01*
X40456732Y-76749529D01*
X40435023Y-76732217D01*
X40378759Y-76675953D01*
X40368657Y-76666908D01*
X40337237Y-76638775D01*
X40337229Y-76638768D01*
X40315930Y-76621717D01*
X40315927Y-76621715D01*
X40315921Y-76621710D01*
X40270543Y-76589320D01*
X40139281Y-76530396D01*
X40139280Y-76530395D01*
X40139274Y-76530393D01*
X40072117Y-76511145D01*
X39929571Y-76491588D01*
X39620308Y-76493583D01*
X39567892Y-76496647D01*
X39542367Y-76499475D01*
X39542337Y-76499479D01*
X39490562Y-76507955D01*
X39355755Y-76558236D01*
X39355752Y-76558237D01*
X39355751Y-76558238D01*
X39346750Y-76563153D01*
X39294430Y-76591721D01*
X39179252Y-76677943D01*
X39179246Y-76677948D01*
X39124971Y-76732221D01*
X39103265Y-76749530D01*
X39070637Y-76770032D01*
X39045618Y-76782081D01*
X39009243Y-76794809D01*
X38982172Y-76800987D01*
X38943882Y-76805301D01*
X38916116Y-76805301D01*
X38877826Y-76800987D01*
X38850755Y-76794809D01*
X38814380Y-76782081D01*
X38789362Y-76770032D01*
X38756732Y-76749529D01*
X38735023Y-76732217D01*
X38689655Y-76686849D01*
X38677486Y-76675953D01*
X38648122Y-76649662D01*
X38646401Y-76648284D01*
X38626803Y-76632595D01*
X38581443Y-76600219D01*
X38450182Y-76541294D01*
X38385563Y-76522772D01*
X38383783Y-76522220D01*
X38383009Y-76522040D01*
X38240468Y-76502485D01*
X38054800Y-76503684D01*
X37987635Y-76484433D01*
X37941540Y-76431925D01*
X37930000Y-76379687D01*
X37930000Y-66009983D01*
X38979500Y-66009983D01*
X38979500Y-67410001D01*
X38979501Y-67410018D01*
X38990000Y-67512796D01*
X38990001Y-67512799D01*
X39030495Y-67635000D01*
X39045186Y-67679334D01*
X39137288Y-67828656D01*
X39261344Y-67952712D01*
X39410666Y-68044814D01*
X39577203Y-68099999D01*
X39679991Y-68110500D01*
X39755500Y-68110499D01*
X39822538Y-68130183D01*
X39868294Y-68182986D01*
X39879500Y-68234499D01*
X39879500Y-69322298D01*
X39859815Y-69389337D01*
X39826625Y-69423872D01*
X39758595Y-69471507D01*
X39591505Y-69638597D01*
X39455965Y-69832169D01*
X39455964Y-69832171D01*
X39356098Y-70046335D01*
X39356094Y-70046344D01*
X39294938Y-70274586D01*
X39294936Y-70274596D01*
X39274341Y-70509999D01*
X39274341Y-70510000D01*
X39294936Y-70745403D01*
X39294938Y-70745413D01*
X39356094Y-70973655D01*
X39356096Y-70973659D01*
X39356097Y-70973663D01*
X39442521Y-71159000D01*
X39455965Y-71187830D01*
X39455967Y-71187834D01*
X39524004Y-71285000D01*
X39591501Y-71381396D01*
X39591506Y-71381402D01*
X39713818Y-71503714D01*
X39747303Y-71565037D01*
X39742319Y-71634729D01*
X39700447Y-71690662D01*
X39669471Y-71707577D01*
X39537912Y-71756646D01*
X39537906Y-71756649D01*
X39422812Y-71842809D01*
X39422809Y-71842812D01*
X39336649Y-71957906D01*
X39336645Y-71957913D01*
X39286403Y-72092620D01*
X39286401Y-72092627D01*
X39280000Y-72152155D01*
X39280000Y-72800000D01*
X40196988Y-72800000D01*
X40164075Y-72857007D01*
X40130000Y-72984174D01*
X40130000Y-73115826D01*
X40164075Y-73242993D01*
X40196988Y-73300000D01*
X39280000Y-73300000D01*
X39280000Y-73947844D01*
X39286401Y-74007372D01*
X39286403Y-74007379D01*
X39336645Y-74142086D01*
X39336649Y-74142093D01*
X39422809Y-74257187D01*
X39422812Y-74257190D01*
X39537906Y-74343350D01*
X39537913Y-74343354D01*
X39672620Y-74393596D01*
X39672627Y-74393598D01*
X39732155Y-74399999D01*
X39732172Y-74400000D01*
X40380000Y-74400000D01*
X40380000Y-73483012D01*
X40437007Y-73515925D01*
X40564174Y-73550000D01*
X40695826Y-73550000D01*
X40822993Y-73515925D01*
X40880000Y-73483012D01*
X40880000Y-74400000D01*
X41527828Y-74400000D01*
X41527844Y-74399999D01*
X41587372Y-74393598D01*
X41587379Y-74393596D01*
X41722086Y-74343354D01*
X41722093Y-74343350D01*
X41837187Y-74257190D01*
X41837190Y-74257187D01*
X41923350Y-74142093D01*
X41923354Y-74142086D01*
X41973596Y-74007379D01*
X41973598Y-74007372D01*
X41979999Y-73947844D01*
X41980000Y-73947827D01*
X41980000Y-73300000D01*
X41063012Y-73300000D01*
X41095925Y-73242993D01*
X41130000Y-73115826D01*
X41130000Y-72984174D01*
X41095925Y-72857007D01*
X41063012Y-72800000D01*
X41980000Y-72800000D01*
X41980000Y-72152172D01*
X41979999Y-72152155D01*
X41973598Y-72092627D01*
X41973596Y-72092620D01*
X41923354Y-71957913D01*
X41923350Y-71957906D01*
X41837190Y-71842812D01*
X41837187Y-71842809D01*
X41722093Y-71756649D01*
X41722088Y-71756646D01*
X41590528Y-71707577D01*
X41534595Y-71665705D01*
X41510178Y-71600241D01*
X41525030Y-71531968D01*
X41546175Y-71503720D01*
X41668495Y-71381401D01*
X41788521Y-71209986D01*
X46205001Y-71209986D01*
X46215494Y-71312697D01*
X46270641Y-71479119D01*
X46270643Y-71479124D01*
X46362684Y-71628345D01*
X46486654Y-71752315D01*
X46635875Y-71844356D01*
X46635880Y-71844358D01*
X46802302Y-71899505D01*
X46802309Y-71899506D01*
X46905019Y-71909999D01*
X47179999Y-71909999D01*
X47680000Y-71909999D01*
X47954972Y-71909999D01*
X47954986Y-71909998D01*
X48057697Y-71899505D01*
X48224119Y-71844358D01*
X48224130Y-71844353D01*
X48364903Y-71757523D01*
X48432295Y-71739082D01*
X48495097Y-71757523D01*
X48635869Y-71844353D01*
X48635880Y-71844358D01*
X48802302Y-71899505D01*
X48802309Y-71899506D01*
X48905019Y-71909999D01*
X49179999Y-71909999D01*
X49180000Y-71909998D01*
X49180000Y-71160000D01*
X47680000Y-71160000D01*
X47680000Y-71909999D01*
X47179999Y-71909999D01*
X47180000Y-71909998D01*
X47180000Y-71160000D01*
X46205001Y-71160000D01*
X46205001Y-71209986D01*
X41788521Y-71209986D01*
X41804035Y-71187830D01*
X41903903Y-70973663D01*
X41965063Y-70745408D01*
X41985659Y-70510000D01*
X41965063Y-70274592D01*
X41903903Y-70046337D01*
X41804035Y-69832171D01*
X41731554Y-69728656D01*
X41668494Y-69638597D01*
X41501404Y-69471507D01*
X41433375Y-69423872D01*
X41389751Y-69369294D01*
X41380500Y-69322298D01*
X41380500Y-68234499D01*
X41400185Y-68167460D01*
X41452989Y-68121705D01*
X41504500Y-68110499D01*
X41780002Y-68110499D01*
X41780008Y-68110499D01*
X41882797Y-68099999D01*
X42049334Y-68044814D01*
X42198656Y-67952712D01*
X42322712Y-67828656D01*
X42414814Y-67679334D01*
X42469999Y-67512797D01*
X42480500Y-67410009D01*
X42480499Y-66009992D01*
X42480498Y-66009983D01*
X42979500Y-66009983D01*
X42979500Y-67410001D01*
X42979501Y-67410018D01*
X42990000Y-67512796D01*
X42990001Y-67512799D01*
X43030495Y-67635000D01*
X43045186Y-67679334D01*
X43137288Y-67828656D01*
X43261344Y-67952712D01*
X43410666Y-68044814D01*
X43577203Y-68099999D01*
X43679991Y-68110500D01*
X45017769Y-68110499D01*
X45084808Y-68130184D01*
X45105450Y-68146818D01*
X46168181Y-69209549D01*
X46201666Y-69270872D01*
X46204500Y-69297222D01*
X46204500Y-69309998D01*
X46204501Y-69310018D01*
X46215001Y-69412797D01*
X46215001Y-69412799D01*
X46259726Y-69547769D01*
X46270186Y-69579334D01*
X46362288Y-69728656D01*
X46486344Y-69852712D01*
X46489628Y-69854737D01*
X46489653Y-69854753D01*
X46491445Y-69856746D01*
X46492011Y-69857193D01*
X46491934Y-69857289D01*
X46536379Y-69906699D01*
X46547603Y-69975661D01*
X46519761Y-70039744D01*
X46489665Y-70065826D01*
X46486660Y-70067679D01*
X46486655Y-70067683D01*
X46362684Y-70191654D01*
X46270643Y-70340875D01*
X46270641Y-70340880D01*
X46215494Y-70507302D01*
X46215493Y-70507309D01*
X46205000Y-70610013D01*
X46205000Y-70660000D01*
X49306000Y-70660000D01*
X49373039Y-70679685D01*
X49418794Y-70732489D01*
X49430000Y-70784000D01*
X49430000Y-70910000D01*
X49556000Y-70910000D01*
X49623039Y-70929685D01*
X49668794Y-70982489D01*
X49680000Y-71034000D01*
X49680000Y-71909999D01*
X49954972Y-71909999D01*
X49954986Y-71909998D01*
X50057695Y-71899506D01*
X50166164Y-71863562D01*
X50235992Y-71861160D01*
X50296034Y-71896891D01*
X50310707Y-71916171D01*
X50339424Y-71962728D01*
X50339427Y-71962732D01*
X50459267Y-72082572D01*
X50459271Y-72082575D01*
X50603507Y-72171542D01*
X50603518Y-72171547D01*
X50764393Y-72224855D01*
X50863683Y-72234999D01*
X51412000Y-72234999D01*
X51460308Y-72234999D01*
X51460322Y-72234998D01*
X51559607Y-72224855D01*
X51720481Y-72171547D01*
X51720492Y-72171542D01*
X51864728Y-72082575D01*
X51864732Y-72082572D01*
X51984572Y-71962732D01*
X51984575Y-71962728D01*
X52073542Y-71818492D01*
X52073547Y-71818481D01*
X52126855Y-71657606D01*
X52136999Y-71558322D01*
X52137000Y-71558309D01*
X52137000Y-71535000D01*
X51412000Y-71535000D01*
X51412000Y-72234999D01*
X50863683Y-72234999D01*
X50911999Y-72234998D01*
X50912000Y-72234998D01*
X50912000Y-71409000D01*
X50931685Y-71341961D01*
X50984489Y-71296206D01*
X51036000Y-71285000D01*
X51162000Y-71285000D01*
X51162000Y-71159000D01*
X51181685Y-71091961D01*
X51234489Y-71046206D01*
X51286000Y-71035000D01*
X52136999Y-71035000D01*
X52136999Y-71011692D01*
X52136998Y-71011677D01*
X52126855Y-70912392D01*
X52073547Y-70751518D01*
X52073542Y-70751507D01*
X51984575Y-70607271D01*
X51984572Y-70607267D01*
X51975339Y-70598034D01*
X51941854Y-70536711D01*
X51946838Y-70467019D01*
X51975343Y-70422668D01*
X51984968Y-70413044D01*
X52074003Y-70268697D01*
X52127349Y-70107708D01*
X52127707Y-70104203D01*
X52128533Y-70102177D01*
X52128766Y-70101091D01*
X52128959Y-70101132D01*
X52154095Y-70039512D01*
X52211272Y-69999354D01*
X52281083Y-69996484D01*
X52338746Y-70029115D01*
X53643181Y-71333548D01*
X53676666Y-71394871D01*
X53679500Y-71421229D01*
X53679500Y-72554767D01*
X53679501Y-72554789D01*
X53682258Y-72589822D01*
X53682258Y-72589823D01*
X53725829Y-72739796D01*
X53725830Y-72739799D01*
X53805330Y-72874227D01*
X53805337Y-72874236D01*
X53915763Y-72984662D01*
X53915767Y-72984665D01*
X53915769Y-72984667D01*
X54050199Y-73064169D01*
X54089750Y-73075659D01*
X54200173Y-73107741D01*
X54200176Y-73107741D01*
X54200178Y-73107742D01*
X54235221Y-73110500D01*
X55724778Y-73110499D01*
X55759822Y-73107742D01*
X55909801Y-73064169D01*
X56044231Y-72984667D01*
X56154667Y-72874231D01*
X56234169Y-72739801D01*
X56277742Y-72589822D01*
X56280500Y-72554779D01*
X56280499Y-69465222D01*
X56277742Y-69430178D01*
X56234169Y-69280199D01*
X56157940Y-69151303D01*
X56154669Y-69145772D01*
X56154662Y-69145763D01*
X56044236Y-69035337D01*
X56044227Y-69035330D01*
X55909799Y-68955830D01*
X55909796Y-68955829D01*
X55759826Y-68912258D01*
X55759820Y-68912257D01*
X55724785Y-68909500D01*
X54367095Y-68909500D01*
X54300056Y-68889815D01*
X54254301Y-68837011D01*
X54244357Y-68767853D01*
X54273382Y-68704297D01*
X54279393Y-68697841D01*
X55110520Y-67866716D01*
X55113429Y-67861677D01*
X65755000Y-67861677D01*
X65755000Y-67885000D01*
X66480000Y-67885000D01*
X66480000Y-67185000D01*
X66479999Y-67184999D01*
X66431693Y-67185000D01*
X66431675Y-67185001D01*
X66332392Y-67195144D01*
X66171518Y-67248452D01*
X66171507Y-67248457D01*
X66027271Y-67337424D01*
X66027267Y-67337427D01*
X65907427Y-67457267D01*
X65907424Y-67457271D01*
X65818457Y-67601507D01*
X65818452Y-67601518D01*
X65765144Y-67762393D01*
X65755000Y-67861677D01*
X55113429Y-67861677D01*
X55189577Y-67729784D01*
X55230501Y-67577057D01*
X55230501Y-67418942D01*
X55230501Y-67411347D01*
X55230500Y-67411329D01*
X55230500Y-65850004D01*
X55250185Y-65782965D01*
X55289403Y-65744465D01*
X55308044Y-65732968D01*
X55427968Y-65613044D01*
X55517003Y-65468697D01*
X55570349Y-65307708D01*
X55580500Y-65208345D01*
X55580499Y-64611656D01*
X55577727Y-64584523D01*
X55570349Y-64512292D01*
X55570348Y-64512289D01*
X55517003Y-64351303D01*
X55516999Y-64351297D01*
X55516998Y-64351294D01*
X55427970Y-64206959D01*
X55427967Y-64206955D01*
X55308044Y-64087032D01*
X55308040Y-64087029D01*
X55163705Y-63998001D01*
X55163699Y-63997998D01*
X55163697Y-63997997D01*
X55160577Y-63996963D01*
X55002709Y-63944651D01*
X54903346Y-63934500D01*
X54356662Y-63934500D01*
X54356644Y-63934501D01*
X54257292Y-63944650D01*
X54257289Y-63944651D01*
X54096305Y-63997996D01*
X54096294Y-63998001D01*
X53951959Y-64087029D01*
X53951955Y-64087032D01*
X53942681Y-64096307D01*
X53881358Y-64129792D01*
X53811666Y-64124808D01*
X53767319Y-64096307D01*
X53758044Y-64087032D01*
X53758040Y-64087029D01*
X53613705Y-63998001D01*
X53613699Y-63997998D01*
X53613697Y-63997997D01*
X53610577Y-63996963D01*
X53452709Y-63944651D01*
X53353346Y-63934500D01*
X52806662Y-63934500D01*
X52806644Y-63934501D01*
X52707292Y-63944650D01*
X52707289Y-63944651D01*
X52546305Y-63997996D01*
X52546294Y-63998001D01*
X52401959Y-64087029D01*
X52401955Y-64087032D01*
X52282032Y-64206955D01*
X52282029Y-64206959D01*
X52193001Y-64351294D01*
X52192996Y-64351305D01*
X52139651Y-64512290D01*
X52129500Y-64611647D01*
X52129500Y-64862434D01*
X52109815Y-64929473D01*
X52057011Y-64975228D01*
X51987853Y-64985172D01*
X51924297Y-64956147D01*
X51891271Y-64907531D01*
X51890812Y-64907753D01*
X51889326Y-64904668D01*
X51888460Y-64903393D01*
X51887790Y-64901480D01*
X51887789Y-64901478D01*
X51791816Y-64748738D01*
X51664262Y-64621184D01*
X51649079Y-64611644D01*
X51511523Y-64525211D01*
X51341254Y-64465631D01*
X51341249Y-64465630D01*
X51162004Y-64445435D01*
X51161996Y-64445435D01*
X50982750Y-64465630D01*
X50982745Y-64465631D01*
X50812476Y-64525211D01*
X50659737Y-64621184D01*
X50532184Y-64748737D01*
X50436209Y-64901479D01*
X50417384Y-64955279D01*
X50376662Y-65012054D01*
X50311709Y-65037801D01*
X50243148Y-65024344D01*
X50212662Y-65002004D01*
X50140188Y-64929530D01*
X50103797Y-64907531D01*
X49994606Y-64841522D01*
X49832196Y-64790914D01*
X49832194Y-64790913D01*
X49832192Y-64790913D01*
X49782778Y-64786423D01*
X49761616Y-64784500D01*
X49098384Y-64784500D01*
X49079145Y-64786248D01*
X49027807Y-64790913D01*
X48865393Y-64841522D01*
X48719811Y-64929530D01*
X48599530Y-65049811D01*
X48511522Y-65195393D01*
X48460913Y-65357807D01*
X48459334Y-65375185D01*
X48454500Y-65428384D01*
X48454500Y-65941616D01*
X48455866Y-65956650D01*
X48460913Y-66012192D01*
X48460913Y-66012194D01*
X48460914Y-66012196D01*
X48511522Y-66174606D01*
X48599530Y-66320188D01*
X48701661Y-66422319D01*
X48735146Y-66483642D01*
X48730162Y-66553334D01*
X48701661Y-66597681D01*
X48599531Y-66699810D01*
X48599530Y-66699811D01*
X48511522Y-66845393D01*
X48460913Y-67007807D01*
X48455782Y-67064275D01*
X48454500Y-67078384D01*
X48454500Y-67591616D01*
X48455380Y-67601303D01*
X48460913Y-67662192D01*
X48460913Y-67662194D01*
X48460914Y-67662196D01*
X48511522Y-67824606D01*
X48592000Y-67957733D01*
X48609836Y-68025285D01*
X48588319Y-68091759D01*
X48550980Y-68127420D01*
X48495097Y-68161889D01*
X48427705Y-68180329D01*
X48364904Y-68161889D01*
X48224340Y-68075189D01*
X48224335Y-68075187D01*
X48224334Y-68075186D01*
X48057797Y-68020001D01*
X48057795Y-68020000D01*
X47955016Y-68009500D01*
X47955009Y-68009500D01*
X47481225Y-68009500D01*
X47433773Y-68000061D01*
X47308912Y-67948342D01*
X47308906Y-67948340D01*
X47163919Y-67919500D01*
X47163917Y-67919500D01*
X47052229Y-67919500D01*
X46985190Y-67899815D01*
X46964548Y-67883181D01*
X46516818Y-67435451D01*
X46483333Y-67374128D01*
X46480499Y-67347770D01*
X46480499Y-66009998D01*
X46480498Y-66009981D01*
X46469999Y-65907203D01*
X46469998Y-65907200D01*
X46462807Y-65885498D01*
X46414814Y-65740666D01*
X46322712Y-65591344D01*
X46198656Y-65467288D01*
X46049334Y-65375186D01*
X45882797Y-65320001D01*
X45882795Y-65320000D01*
X45780010Y-65309500D01*
X43679998Y-65309500D01*
X43679981Y-65309501D01*
X43577203Y-65320000D01*
X43577200Y-65320001D01*
X43410668Y-65375185D01*
X43410663Y-65375187D01*
X43261342Y-65467289D01*
X43137289Y-65591342D01*
X43045187Y-65740663D01*
X43045185Y-65740668D01*
X43022157Y-65810162D01*
X42990001Y-65907203D01*
X42990001Y-65907204D01*
X42990000Y-65907204D01*
X42979500Y-66009983D01*
X42480498Y-66009983D01*
X42469999Y-65907203D01*
X42414814Y-65740666D01*
X42322712Y-65591344D01*
X42198656Y-65467288D01*
X42049334Y-65375186D01*
X41882797Y-65320001D01*
X41882795Y-65320000D01*
X41780010Y-65309500D01*
X39679998Y-65309500D01*
X39679981Y-65309501D01*
X39577203Y-65320000D01*
X39577200Y-65320001D01*
X39410668Y-65375185D01*
X39410663Y-65375187D01*
X39261342Y-65467289D01*
X39137289Y-65591342D01*
X39045187Y-65740663D01*
X39045185Y-65740668D01*
X39022157Y-65810162D01*
X38990001Y-65907203D01*
X38990001Y-65907204D01*
X38990000Y-65907204D01*
X38979500Y-66009983D01*
X37930000Y-66009983D01*
X37930000Y-62865258D01*
X37949685Y-62798219D01*
X38002489Y-62752464D01*
X38071647Y-62742520D01*
X38135203Y-62771545D01*
X38171931Y-62826940D01*
X38194125Y-62895247D01*
X38194127Y-62895252D01*
X38322704Y-63168491D01*
X38322707Y-63168497D01*
X38484516Y-63423469D01*
X38565311Y-63521133D01*
X39493708Y-62592736D01*
X39590967Y-62726602D01*
X39713398Y-62849033D01*
X39847262Y-62946290D01*
X38916564Y-63876987D01*
X38916565Y-63876989D01*
X39141461Y-64040385D01*
X39141479Y-64040397D01*
X39406109Y-64185878D01*
X39406117Y-64185882D01*
X39686889Y-64297047D01*
X39686892Y-64297048D01*
X39979399Y-64372150D01*
X40278995Y-64409999D01*
X40279007Y-64410000D01*
X40580993Y-64410000D01*
X40581004Y-64409999D01*
X40880600Y-64372150D01*
X41173107Y-64297048D01*
X41173110Y-64297047D01*
X41453882Y-64185882D01*
X41453890Y-64185878D01*
X41718520Y-64040397D01*
X41718530Y-64040390D01*
X41943433Y-63876987D01*
X41943434Y-63876987D01*
X41012737Y-62946290D01*
X41146602Y-62849033D01*
X41269033Y-62726602D01*
X41366290Y-62592737D01*
X42294687Y-63521134D01*
X42375486Y-63423464D01*
X42537292Y-63168497D01*
X42537295Y-63168491D01*
X42614969Y-63003427D01*
X67155000Y-63003427D01*
X67155000Y-63010000D01*
X67880000Y-63010000D01*
X68380000Y-63010000D01*
X69104999Y-63010000D01*
X69104999Y-63003417D01*
X69098591Y-62932897D01*
X69098590Y-62932892D01*
X69048018Y-62770603D01*
X68960072Y-62625122D01*
X68839877Y-62504927D01*
X68694395Y-62416980D01*
X68694396Y-62416980D01*
X68532105Y-62366409D01*
X68532106Y-62366409D01*
X68461572Y-62360000D01*
X68380000Y-62360000D01*
X68380000Y-63010000D01*
X67880000Y-63010000D01*
X67880000Y-62360000D01*
X67879999Y-62359999D01*
X67798417Y-62360000D01*
X67727897Y-62366408D01*
X67727892Y-62366409D01*
X67565603Y-62416981D01*
X67420122Y-62504927D01*
X67299927Y-62625122D01*
X67211980Y-62770604D01*
X67161409Y-62932893D01*
X67155000Y-63003427D01*
X42614969Y-63003427D01*
X42665872Y-62895252D01*
X42665874Y-62895247D01*
X42759194Y-62608040D01*
X42815783Y-62311390D01*
X42815784Y-62311383D01*
X42834745Y-62010005D01*
X42834745Y-62009994D01*
X42815784Y-61708616D01*
X42815783Y-61708609D01*
X42759194Y-61411959D01*
X42665874Y-61124752D01*
X42665872Y-61124747D01*
X42537295Y-60851508D01*
X42537292Y-60851502D01*
X42375483Y-60596530D01*
X42294686Y-60498864D01*
X41366289Y-61427261D01*
X41269033Y-61293398D01*
X41146602Y-61170967D01*
X41012736Y-61073709D01*
X41943434Y-60143011D01*
X41943433Y-60143009D01*
X41718538Y-59979614D01*
X41718520Y-59979602D01*
X41453890Y-59834121D01*
X41453882Y-59834117D01*
X41239636Y-59749292D01*
X41184550Y-59706311D01*
X41161447Y-59640372D01*
X41177660Y-59572410D01*
X41228043Y-59524002D01*
X41285283Y-59510000D01*
X74574717Y-59510000D01*
X74641756Y-59529685D01*
G37*
%TD.AperFunction*%
%TA.AperFunction,Conductor*%
G36*
X39641756Y-59529685D02*
G01*
X39687511Y-59582489D01*
X39697455Y-59651647D01*
X39668430Y-59715203D01*
X39620364Y-59749292D01*
X39406117Y-59834117D01*
X39406109Y-59834121D01*
X39141476Y-59979604D01*
X39141471Y-59979607D01*
X38916565Y-60143010D01*
X38916564Y-60143011D01*
X39847262Y-61073709D01*
X39713398Y-61170967D01*
X39590967Y-61293398D01*
X39493709Y-61427262D01*
X38565311Y-60498864D01*
X38484520Y-60596525D01*
X38484518Y-60596528D01*
X38322707Y-60851502D01*
X38322704Y-60851508D01*
X38194127Y-61124747D01*
X38194125Y-61124752D01*
X38171931Y-61193059D01*
X38132493Y-61250735D01*
X38068135Y-61277933D01*
X37999288Y-61266018D01*
X37947813Y-61218774D01*
X37930000Y-61154741D01*
X37930000Y-59634000D01*
X37949685Y-59566961D01*
X38002489Y-59521206D01*
X38054000Y-59510000D01*
X39574717Y-59510000D01*
X39641756Y-59529685D01*
G37*
%TD.AperFunction*%
%TA.AperFunction,Conductor*%
G36*
X77873039Y-59529685D02*
G01*
X77918794Y-59582489D01*
X77930000Y-59634000D01*
X77930000Y-61154741D01*
X77910315Y-61221780D01*
X77857511Y-61267535D01*
X77788353Y-61277479D01*
X77724797Y-61248454D01*
X77688069Y-61193059D01*
X77665874Y-61124752D01*
X77665872Y-61124747D01*
X77537295Y-60851508D01*
X77537292Y-60851502D01*
X77375483Y-60596530D01*
X77294686Y-60498864D01*
X76366289Y-61427261D01*
X76269033Y-61293398D01*
X76146602Y-61170967D01*
X76012736Y-61073709D01*
X76943434Y-60143011D01*
X76943433Y-60143009D01*
X76718538Y-59979614D01*
X76718520Y-59979602D01*
X76453890Y-59834121D01*
X76453882Y-59834117D01*
X76239636Y-59749292D01*
X76184550Y-59706311D01*
X76161447Y-59640372D01*
X76177660Y-59572410D01*
X76228043Y-59524002D01*
X76285283Y-59510000D01*
X77806000Y-59510000D01*
X77873039Y-59529685D01*
G37*
%TD.AperFunction*%
%TD*%
M02*
