%TF.GenerationSoftware,KiCad,Pcbnew,8.0.8*%
%TF.CreationDate,2025-06-12T11:50:17+02:00*%
%TF.ProjectId,LedDimmer,4c656444-696d-46d6-9572-2e6b69636164,rev?*%
%TF.SameCoordinates,Original*%
%TF.FileFunction,Copper,L1,Top*%
%TF.FilePolarity,Positive*%
%FSLAX46Y46*%
G04 Gerber Fmt 4.6, Leading zero omitted, Abs format (unit mm)*
G04 Created by KiCad (PCBNEW 8.0.8) date 2025-06-12 11:50:17*
%MOMM*%
%LPD*%
G01*
G04 APERTURE LIST*
G04 Aperture macros list*
%AMRoundRect*
0 Rectangle with rounded corners*
0 $1 Rounding radius*
0 $2 $3 $4 $5 $6 $7 $8 $9 X,Y pos of 4 corners*
0 Add a 4 corners polygon primitive as box body*
4,1,4,$2,$3,$4,$5,$6,$7,$8,$9,$2,$3,0*
0 Add four circle primitives for the rounded corners*
1,1,$1+$1,$2,$3*
1,1,$1+$1,$4,$5*
1,1,$1+$1,$6,$7*
1,1,$1+$1,$8,$9*
0 Add four rect primitives between the rounded corners*
20,1,$1+$1,$2,$3,$4,$5,0*
20,1,$1+$1,$4,$5,$6,$7,0*
20,1,$1+$1,$6,$7,$8,$9,0*
20,1,$1+$1,$8,$9,$2,$3,0*%
G04 Aperture macros list end*
%TA.AperFunction,SMDPad,CuDef*%
%ADD10RoundRect,0.200000X-0.275000X0.200000X-0.275000X-0.200000X0.275000X-0.200000X0.275000X0.200000X0*%
%TD*%
%TA.AperFunction,SMDPad,CuDef*%
%ADD11RoundRect,0.200000X0.275000X-0.200000X0.275000X0.200000X-0.275000X0.200000X-0.275000X-0.200000X0*%
%TD*%
%TA.AperFunction,SMDPad,CuDef*%
%ADD12RoundRect,0.225000X-0.225000X-0.250000X0.225000X-0.250000X0.225000X0.250000X-0.225000X0.250000X0*%
%TD*%
%TA.AperFunction,ComponentPad*%
%ADD13C,2.600000*%
%TD*%
%TA.AperFunction,ConnectorPad*%
%ADD14C,3.800000*%
%TD*%
%TA.AperFunction,SMDPad,CuDef*%
%ADD15RoundRect,0.250000X-1.000000X-0.650000X1.000000X-0.650000X1.000000X0.650000X-1.000000X0.650000X0*%
%TD*%
%TA.AperFunction,ComponentPad*%
%ADD16R,1.700000X1.700000*%
%TD*%
%TA.AperFunction,ComponentPad*%
%ADD17O,1.700000X1.700000*%
%TD*%
%TA.AperFunction,SMDPad,CuDef*%
%ADD18RoundRect,0.218750X0.256250X-0.218750X0.256250X0.218750X-0.256250X0.218750X-0.256250X-0.218750X0*%
%TD*%
%TA.AperFunction,SMDPad,CuDef*%
%ADD19RoundRect,0.200000X-0.200000X-0.275000X0.200000X-0.275000X0.200000X0.275000X-0.200000X0.275000X0*%
%TD*%
%TA.AperFunction,SMDPad,CuDef*%
%ADD20RoundRect,0.200000X0.200000X0.275000X-0.200000X0.275000X-0.200000X-0.275000X0.200000X-0.275000X0*%
%TD*%
%TA.AperFunction,SMDPad,CuDef*%
%ADD21RoundRect,0.225000X0.225000X0.250000X-0.225000X0.250000X-0.225000X-0.250000X0.225000X-0.250000X0*%
%TD*%
%TA.AperFunction,SMDPad,CuDef*%
%ADD22RoundRect,0.225000X0.250000X-0.225000X0.250000X0.225000X-0.250000X0.225000X-0.250000X-0.225000X0*%
%TD*%
%TA.AperFunction,SMDPad,CuDef*%
%ADD23RoundRect,0.150000X0.587500X0.150000X-0.587500X0.150000X-0.587500X-0.150000X0.587500X-0.150000X0*%
%TD*%
%TA.AperFunction,SMDPad,CuDef*%
%ADD24RoundRect,0.150000X-0.825000X-0.150000X0.825000X-0.150000X0.825000X0.150000X-0.825000X0.150000X0*%
%TD*%
%TA.AperFunction,SMDPad,CuDef*%
%ADD25RoundRect,0.117646X-0.682354X-1.482354X0.682354X-1.482354X0.682354X1.482354X-0.682354X1.482354X0*%
%TD*%
%TA.AperFunction,SMDPad,CuDef*%
%ADD26RoundRect,0.112500X0.112500X0.237500X-0.112500X0.237500X-0.112500X-0.237500X0.112500X-0.237500X0*%
%TD*%
%TA.AperFunction,SMDPad,CuDef*%
%ADD27RoundRect,0.218750X-0.218750X-0.256250X0.218750X-0.256250X0.218750X0.256250X-0.218750X0.256250X0*%
%TD*%
%TA.AperFunction,SMDPad,CuDef*%
%ADD28RoundRect,0.250000X1.000000X0.650000X-1.000000X0.650000X-1.000000X-0.650000X1.000000X-0.650000X0*%
%TD*%
%TA.AperFunction,SMDPad,CuDef*%
%ADD29RoundRect,0.225000X-0.250000X0.225000X-0.250000X-0.225000X0.250000X-0.225000X0.250000X0.225000X0*%
%TD*%
%TA.AperFunction,SMDPad,CuDef*%
%ADD30RoundRect,0.087500X0.087500X-0.250000X0.087500X0.250000X-0.087500X0.250000X-0.087500X-0.250000X0*%
%TD*%
%TA.AperFunction,SMDPad,CuDef*%
%ADD31RoundRect,0.250000X-0.475000X0.250000X-0.475000X-0.250000X0.475000X-0.250000X0.475000X0.250000X0*%
%TD*%
%TA.AperFunction,ViaPad*%
%ADD32C,0.800000*%
%TD*%
%TA.AperFunction,ViaPad*%
%ADD33C,0.600000*%
%TD*%
%TA.AperFunction,Conductor*%
%ADD34C,0.250000*%
%TD*%
%TA.AperFunction,Conductor*%
%ADD35C,0.200000*%
%TD*%
%TA.AperFunction,Conductor*%
%ADD36C,0.500000*%
%TD*%
G04 APERTURE END LIST*
D10*
%TO.P,R21,1*%
%TO.N,/CH2*%
X55730000Y-92185000D03*
%TO.P,R21,2*%
%TO.N,GND*%
X55730000Y-93835000D03*
%TD*%
D11*
%TO.P,R20,1*%
%TO.N,+3.3V*%
X54130000Y-93835000D03*
%TO.P,R20,2*%
%TO.N,/CH2*%
X54130000Y-92185000D03*
%TD*%
D10*
%TO.P,R19,1*%
%TO.N,+3.3V*%
X55630000Y-85485000D03*
%TO.P,R19,2*%
%TO.N,/CH1*%
X55630000Y-87135000D03*
%TD*%
%TO.P,R18,1*%
%TO.N,/CH1*%
X55630000Y-88510000D03*
%TO.P,R18,2*%
%TO.N,GND*%
X55630000Y-90160000D03*
%TD*%
D12*
%TO.P,C5,1*%
%TO.N,/BST*%
X53080000Y-64910000D03*
%TO.P,C5,2*%
%TO.N,Net-(U1-SW)*%
X54630000Y-64910000D03*
%TD*%
D13*
%TO.P,H4,1,1*%
%TO.N,GND*%
X40430000Y-62010000D03*
D14*
X40430000Y-62010000D03*
%TD*%
D15*
%TO.P,D6,1,K*%
%TO.N,Net-(D6-K)*%
X44600000Y-95000000D03*
%TO.P,D6,2,A*%
%TO.N,GND*%
X48600000Y-95000000D03*
%TD*%
D16*
%TO.P,J5,1,Pin_1*%
%TO.N,GND*%
X75700000Y-88000000D03*
D17*
%TO.P,J5,2,Pin_2*%
%TO.N,Net-(J5-Pin_2)*%
X75700000Y-85460000D03*
%TO.P,J5,3,Pin_3*%
%TO.N,+3.3V*%
X75700000Y-82920000D03*
%TD*%
D18*
%TO.P,D4,1,K*%
%TO.N,GND*%
X63000000Y-87387500D03*
%TO.P,D4,2,A*%
%TO.N,Net-(D4-A)*%
X63000000Y-85812500D03*
%TD*%
D19*
%TO.P,R7,1*%
%TO.N,+3.3V*%
X59700000Y-85900000D03*
%TO.P,R7,2*%
%TO.N,Net-(D4-A)*%
X61350000Y-85900000D03*
%TD*%
D20*
%TO.P,R6,1*%
%TO.N,+3.3V*%
X51850000Y-79125000D03*
%TO.P,R6,2*%
%TO.N,Net-(D3-A)*%
X50200000Y-79125000D03*
%TD*%
D15*
%TO.P,D2,1,K*%
%TO.N,Net-(D2-K)*%
X44800000Y-85425000D03*
%TO.P,D2,2,A*%
%TO.N,GND*%
X48800000Y-85425000D03*
%TD*%
D13*
%TO.P,H2,1,1*%
%TO.N,GND*%
X75430000Y-102010000D03*
D14*
X75430000Y-102010000D03*
%TD*%
D21*
%TO.P,C10,1*%
%TO.N,GND*%
X72505000Y-87010000D03*
%TO.P,C10,2*%
%TO.N,/AN1*%
X70955000Y-87010000D03*
%TD*%
D20*
%TO.P,R11,1*%
%TO.N,Net-(J5-Pin_2)*%
X72525000Y-85400000D03*
%TO.P,R11,2*%
%TO.N,/AN1*%
X70875000Y-85400000D03*
%TD*%
D22*
%TO.P,C11,1*%
%TO.N,GND*%
X67000000Y-96500000D03*
%TO.P,C11,2*%
%TO.N,/DI1*%
X67000000Y-94950000D03*
%TD*%
D16*
%TO.P,J1,1,Pin_1*%
%TO.N,Net-(J1-Pin_1)*%
X40700000Y-80100000D03*
D17*
%TO.P,J1,2,Pin_2*%
%TO.N,Net-(D2-K)*%
X40700000Y-82640000D03*
%TO.P,J1,3,Pin_3*%
%TO.N,GND*%
X40700000Y-85180000D03*
%TD*%
D22*
%TO.P,C2,1*%
%TO.N,GND*%
X51162000Y-71285000D03*
%TO.P,C2,2*%
%TO.N,/VIN*%
X51162000Y-69735000D03*
%TD*%
D23*
%TO.P,Q3,1,G*%
%TO.N,/CH2*%
X49037500Y-92250000D03*
%TO.P,Q3,2,S*%
%TO.N,GND*%
X49037500Y-90350000D03*
%TO.P,Q3,3,D*%
%TO.N,Net-(D5-K)*%
X47162500Y-91300000D03*
%TD*%
D24*
%TO.P,U2,1,VDD*%
%TO.N,+3.3V*%
X60225000Y-89395000D03*
%TO.P,U2,2,PWM1*%
%TO.N,/CH1*%
X60225000Y-90665000D03*
%TO.P,U2,3,PWM2*%
%TO.N,/CH2*%
X60225000Y-91935000D03*
%TO.P,U2,4,MCLR#*%
%TO.N,/RST#*%
X60225000Y-93205000D03*
%TO.P,U2,5,RA2*%
%TO.N,/DI1*%
X65175000Y-93205000D03*
%TO.P,U2,6,AN1*%
%TO.N,/AN1*%
X65175000Y-91935000D03*
%TO.P,U2,7,AN0*%
%TO.N,/AN0*%
X65175000Y-90665000D03*
%TO.P,U2,8,VSS*%
%TO.N,GND*%
X65175000Y-89395000D03*
%TD*%
D20*
%TO.P,R3,1*%
%TO.N,Net-(R2-Pad2)*%
X69930000Y-66510000D03*
%TO.P,R3,2*%
%TO.N,/FB*%
X68280000Y-66510000D03*
%TD*%
D21*
%TO.P,C8,1*%
%TO.N,GND*%
X61275000Y-87500000D03*
%TO.P,C8,2*%
%TO.N,+3.3V*%
X59725000Y-87500000D03*
%TD*%
D11*
%TO.P,R1,1*%
%TO.N,/VIN*%
X49430000Y-67335000D03*
%TO.P,R1,2*%
%TO.N,/EN*%
X49430000Y-65685000D03*
%TD*%
D16*
%TO.P,J2,1,Pin_1*%
%TO.N,GND*%
X40630000Y-73050000D03*
D17*
%TO.P,J2,2,Pin_2*%
%TO.N,/PWR*%
X40630000Y-70510000D03*
%TD*%
D11*
%TO.P,R4,1*%
%TO.N,/FB*%
X68130000Y-64910000D03*
%TO.P,R4,2*%
%TO.N,GND*%
X68130000Y-63260000D03*
%TD*%
D25*
%TO.P,L1,1,1*%
%TO.N,Net-(U1-SW)*%
X54980000Y-71010000D03*
%TO.P,L1,2,2*%
%TO.N,+3.3V*%
X63880000Y-71010000D03*
%TD*%
D19*
%TO.P,R13,1*%
%TO.N,+3.3V*%
X63775000Y-94900000D03*
%TO.P,R13,2*%
%TO.N,/DI1*%
X65425000Y-94900000D03*
%TD*%
D22*
%TO.P,C6,1*%
%TO.N,+3.3V*%
X68230000Y-69685000D03*
%TO.P,C6,2*%
%TO.N,/FB*%
X68230000Y-68135000D03*
%TD*%
D26*
%TO.P,Q4,1,G*%
%TO.N,Net-(D5-K)*%
X45150000Y-90300000D03*
%TO.P,Q4,2,S*%
%TO.N,Net-(J3-Pin_1)*%
X43850000Y-90300000D03*
%TO.P,Q4,3,D*%
%TO.N,Net-(D6-K)*%
X44500000Y-92300000D03*
%TD*%
D22*
%TO.P,C7,1*%
%TO.N,+3.3V*%
X66730000Y-69685000D03*
%TO.P,C7,2*%
%TO.N,GND*%
X66730000Y-68135000D03*
%TD*%
D13*
%TO.P,H3,1,1*%
%TO.N,GND*%
X40430000Y-102010000D03*
D14*
X40430000Y-102010000D03*
%TD*%
D27*
%TO.P,D5,1,K*%
%TO.N,Net-(D5-K)*%
X46900000Y-88700000D03*
%TO.P,D5,2,A*%
%TO.N,Net-(D5-A)*%
X48475000Y-88700000D03*
%TD*%
D20*
%TO.P,R8,1*%
%TO.N,+3.3V*%
X51500000Y-88700000D03*
%TO.P,R8,2*%
%TO.N,Net-(D5-A)*%
X49850000Y-88700000D03*
%TD*%
D16*
%TO.P,J6,1,Pin_1*%
%TO.N,GND*%
X75700000Y-95350000D03*
D17*
%TO.P,J6,2,Pin_2*%
%TO.N,Net-(J6-Pin_2)*%
X75700000Y-92810000D03*
%TD*%
D23*
%TO.P,Q2,1,G*%
%TO.N,/CH1*%
X49237500Y-82625000D03*
%TO.P,Q2,2,S*%
%TO.N,GND*%
X49237500Y-80725000D03*
%TO.P,Q2,3,D*%
%TO.N,Net-(D3-K)*%
X47362500Y-81675000D03*
%TD*%
D11*
%TO.P,R2,1*%
%TO.N,+3.3V*%
X69830000Y-69735000D03*
%TO.P,R2,2*%
%TO.N,Net-(R2-Pad2)*%
X69830000Y-68085000D03*
%TD*%
D28*
%TO.P,D1,1,K*%
%TO.N,/VIN*%
X44730000Y-66710000D03*
%TO.P,D1,2,A*%
%TO.N,/PWR*%
X40730000Y-66710000D03*
%TD*%
D22*
%TO.P,C3,1*%
%TO.N,GND*%
X66730000Y-72685000D03*
%TO.P,C3,2*%
%TO.N,+3.3V*%
X66730000Y-71135000D03*
%TD*%
D20*
%TO.P,R12,1*%
%TO.N,Net-(J6-Pin_2)*%
X70325000Y-95025000D03*
%TO.P,R12,2*%
%TO.N,/DI1*%
X68675000Y-95025000D03*
%TD*%
D21*
%TO.P,C9,1*%
%TO.N,GND*%
X72880000Y-80610000D03*
%TO.P,C9,2*%
%TO.N,/AN0*%
X71330000Y-80610000D03*
%TD*%
D16*
%TO.P,J4,1,Pin_1*%
%TO.N,GND*%
X75700000Y-79225000D03*
D17*
%TO.P,J4,2,Pin_2*%
%TO.N,Net-(J4-Pin_2)*%
X75700000Y-76685000D03*
%TO.P,J4,3,Pin_3*%
%TO.N,+3.3V*%
X75700000Y-74145000D03*
%TD*%
D29*
%TO.P,C4,1*%
%TO.N,+3.3V*%
X68330000Y-71135000D03*
%TO.P,C4,2*%
%TO.N,GND*%
X68330000Y-72685000D03*
%TD*%
D19*
%TO.P,R9,1*%
%TO.N,Net-(J3-Pin_1)*%
X43775000Y-88700000D03*
%TO.P,R9,2*%
%TO.N,Net-(D5-K)*%
X45425000Y-88700000D03*
%TD*%
D20*
%TO.P,R14,1*%
%TO.N,+3.3V*%
X62200000Y-94900000D03*
%TO.P,R14,2*%
%TO.N,/RST#*%
X60550000Y-94900000D03*
%TD*%
D19*
%TO.P,R5,1*%
%TO.N,Net-(J1-Pin_1)*%
X44012500Y-79125000D03*
%TO.P,R5,2*%
%TO.N,Net-(D3-K)*%
X45662500Y-79125000D03*
%TD*%
D20*
%TO.P,R10,1*%
%TO.N,Net-(J4-Pin_2)*%
X72925000Y-79010000D03*
%TO.P,R10,2*%
%TO.N,/AN0*%
X71275000Y-79010000D03*
%TD*%
D30*
%TO.P,U1,1,VIN*%
%TO.N,/VIN*%
X51330000Y-67810000D03*
%TO.P,U1,2,SW*%
%TO.N,Net-(U1-SW)*%
X51830000Y-67810000D03*
%TO.P,U1,3,GND*%
%TO.N,GND*%
X52330000Y-67810000D03*
%TO.P,U1,4,BST*%
%TO.N,/BST*%
X52330000Y-66385000D03*
%TO.P,U1,5,EN*%
%TO.N,/EN*%
X51830000Y-66385000D03*
%TO.P,U1,6,FB*%
%TO.N,/FB*%
X51330000Y-66385000D03*
%TD*%
D27*
%TO.P,D3,1,K*%
%TO.N,Net-(D3-K)*%
X47137500Y-79125000D03*
%TO.P,D3,2,A*%
%TO.N,Net-(D3-A)*%
X48712500Y-79125000D03*
%TD*%
D31*
%TO.P,C1,1*%
%TO.N,/VIN*%
X49430000Y-69010000D03*
%TO.P,C1,2*%
%TO.N,GND*%
X49430000Y-70910000D03*
%TD*%
D16*
%TO.P,J3,1,Pin_1*%
%TO.N,Net-(J3-Pin_1)*%
X40700000Y-89775000D03*
D17*
%TO.P,J3,2,Pin_2*%
%TO.N,Net-(D6-K)*%
X40700000Y-92315000D03*
%TO.P,J3,3,Pin_3*%
%TO.N,GND*%
X40700000Y-94855000D03*
%TD*%
D26*
%TO.P,Q1,1,G*%
%TO.N,Net-(D3-K)*%
X45350000Y-80725000D03*
%TO.P,Q1,2,S*%
%TO.N,Net-(J1-Pin_1)*%
X44050000Y-80725000D03*
%TO.P,Q1,3,D*%
%TO.N,Net-(D2-K)*%
X44700000Y-82725000D03*
%TD*%
D31*
%TO.P,C14,1*%
%TO.N,/VIN*%
X47430000Y-69010000D03*
%TO.P,C14,2*%
%TO.N,GND*%
X47430000Y-70910000D03*
%TD*%
D13*
%TO.P,H1,1,1*%
%TO.N,GND*%
X75430000Y-62010000D03*
D14*
X75430000Y-62010000D03*
%TD*%
D32*
%TO.N,/AN1*%
X70030000Y-88710000D03*
X66830000Y-92010000D03*
%TO.N,Net-(J6-Pin_2)*%
X71330000Y-95010000D03*
%TO.N,/AN0*%
X66951232Y-89731232D03*
X70330000Y-81710000D03*
D33*
%TO.N,GND*%
X56830000Y-90710000D03*
X55830000Y-94910000D03*
X46830000Y-83710000D03*
X58528000Y-65378000D03*
X52940000Y-67156000D03*
X56330000Y-63310000D03*
X68930000Y-76510000D03*
X66430000Y-67010000D03*
X65530000Y-72110000D03*
X59930000Y-61510000D03*
X49430000Y-64410000D03*
X65530000Y-73410000D03*
X65230000Y-88310000D03*
X68430000Y-74010000D03*
X59925000Y-65378000D03*
X70430000Y-76510000D03*
X61630000Y-63310000D03*
X68053000Y-62076000D03*
X52930000Y-76510000D03*
X53530000Y-66210000D03*
X53830000Y-61710000D03*
X66730000Y-73910000D03*
X48430000Y-72010000D03*
X57230000Y-61510000D03*
X45430000Y-76510000D03*
X59930000Y-76510000D03*
X69430000Y-73010000D03*
X77430000Y-65010000D03*
X53448000Y-67664000D03*
X72130000Y-59910000D03*
X47430000Y-72010000D03*
X70930000Y-74010000D03*
X75741274Y-68006948D03*
X40530000Y-75010000D03*
X49430000Y-72010000D03*
X50430000Y-72010000D03*
X65530000Y-68210000D03*
X57258000Y-65378000D03*
X64030000Y-86710000D03*
X43130000Y-60110000D03*
X50530000Y-81110000D03*
X50330000Y-91110000D03*
X70930000Y-73010000D03*
X70930000Y-75510000D03*
X67430000Y-76510000D03*
X66630000Y-63510000D03*
X77130000Y-68010000D03*
X63030000Y-61410000D03*
X73930000Y-80310000D03*
X38530000Y-64610000D03*
X58830000Y-63310000D03*
X54430000Y-76510000D03*
X61195000Y-65378000D03*
X46730000Y-93410000D03*
X49930000Y-76510000D03*
X69450000Y-63219000D03*
X48430000Y-76510000D03*
X40630000Y-76510000D03*
X63527775Y-63351322D03*
X65930000Y-76510000D03*
X56930000Y-76510000D03*
X65430000Y-69510000D03*
X58430000Y-76510000D03*
X50630000Y-64210000D03*
X71430000Y-68010000D03*
X47930000Y-65010000D03*
X43930000Y-76510000D03*
X38930000Y-76510000D03*
X62465000Y-65378000D03*
X51430000Y-76510000D03*
X55988000Y-65378000D03*
X74430000Y-68010000D03*
X63735000Y-65378000D03*
X61430000Y-76510000D03*
X52940000Y-68172000D03*
X73630000Y-87110000D03*
X65005000Y-65378000D03*
X66130000Y-65910000D03*
X42430000Y-76510000D03*
X64430000Y-76510000D03*
X47630000Y-67410000D03*
X49430000Y-96510000D03*
X67037000Y-97509000D03*
X62930000Y-76510000D03*
X46930000Y-76510000D03*
X55930000Y-76510000D03*
X73030000Y-68010000D03*
%TO.N,/FB*%
X51162000Y-65251000D03*
X65894000Y-64235000D03*
%TD*%
D34*
%TO.N,/CH1*%
X51145000Y-82625000D02*
X49237500Y-82625000D01*
X55630000Y-87110000D02*
X51145000Y-82625000D01*
X55630000Y-87135000D02*
X55630000Y-87110000D01*
D35*
%TO.N,GND*%
X47010000Y-93410000D02*
X48600000Y-95000000D01*
X46730000Y-93410000D02*
X47010000Y-93410000D01*
X46830000Y-83710000D02*
X47085000Y-83710000D01*
X47085000Y-83710000D02*
X48800000Y-85425000D01*
X50145000Y-80725000D02*
X49237500Y-80725000D01*
X50530000Y-81110000D02*
X50145000Y-80725000D01*
X49570000Y-90350000D02*
X49037500Y-90350000D01*
X50330000Y-91110000D02*
X49570000Y-90350000D01*
%TO.N,/AN1*%
X70955000Y-87785000D02*
X70955000Y-87010000D01*
X70030000Y-88710000D02*
X70955000Y-87785000D01*
X66755000Y-91935000D02*
X65175000Y-91935000D01*
X66830000Y-92010000D02*
X66755000Y-91935000D01*
D34*
%TO.N,/AN0*%
X66017463Y-90665000D02*
X65175000Y-90665000D01*
X66951232Y-89731232D02*
X66951231Y-89731232D01*
X66951231Y-89731232D02*
X66017463Y-90665000D01*
D35*
%TO.N,GND*%
X65230000Y-88310000D02*
X65230000Y-89340000D01*
X65230000Y-89340000D02*
X65175000Y-89395000D01*
D34*
%TO.N,Net-(J6-Pin_2)*%
X71315000Y-95025000D02*
X71330000Y-95010000D01*
X70325000Y-95025000D02*
X71315000Y-95025000D01*
%TO.N,/AN0*%
X70270000Y-81710000D02*
X70330000Y-81710000D01*
X70250000Y-81690000D02*
X70270000Y-81710000D01*
D35*
%TO.N,+3.3V*%
X62200000Y-89395000D02*
X62200000Y-91100000D01*
X60225000Y-89395000D02*
X62200000Y-89395000D01*
%TO.N,GND*%
X63352500Y-87387500D02*
X63000000Y-87387500D01*
X64030000Y-86710000D02*
X63352500Y-87387500D01*
D34*
X55730000Y-94810000D02*
X55830000Y-94910000D01*
X55730000Y-93835000D02*
X55730000Y-94810000D01*
X56280000Y-90160000D02*
X56830000Y-90710000D01*
X55630000Y-90160000D02*
X56280000Y-90160000D01*
%TO.N,/CH1*%
X55630000Y-88510000D02*
X55630000Y-87135000D01*
X60225000Y-90665000D02*
X57785000Y-90665000D01*
X57785000Y-90665000D02*
X55630000Y-88510000D01*
%TO.N,/CH2*%
X56105000Y-91935000D02*
X60225000Y-91935000D01*
X55855000Y-92185000D02*
X56105000Y-91935000D01*
X55730000Y-92185000D02*
X55855000Y-92185000D01*
X54130000Y-92185000D02*
X55730000Y-92185000D01*
X54065000Y-92250000D02*
X54130000Y-92185000D01*
X49037500Y-92250000D02*
X54065000Y-92250000D01*
D36*
%TO.N,/VIN*%
X49430000Y-69010000D02*
X50437000Y-69010000D01*
X47090000Y-68670000D02*
X47430000Y-69010000D01*
X50437000Y-69010000D02*
X51162000Y-69735000D01*
X51162000Y-69735000D02*
X51162000Y-67853000D01*
X47430000Y-69010000D02*
X49430000Y-69010000D01*
X47430000Y-69010000D02*
X47030000Y-69010000D01*
X49430000Y-69010000D02*
X49430000Y-67335000D01*
X47030000Y-69010000D02*
X44730000Y-66710000D01*
X51162000Y-67853000D02*
X51205000Y-67810000D01*
D34*
%TO.N,GND*%
X52476000Y-67664000D02*
X52330000Y-67810000D01*
X74810000Y-87110000D02*
X75700000Y-88000000D01*
D35*
X75700000Y-95335000D02*
X75390000Y-95025000D01*
D34*
X53448000Y-67664000D02*
X52476000Y-67664000D01*
D35*
X67037000Y-97509000D02*
X67037000Y-96537000D01*
D34*
X72880000Y-80610000D02*
X73630000Y-80610000D01*
X52692000Y-68172000D02*
X52330000Y-67810000D01*
X52940000Y-67200000D02*
X52330000Y-67810000D01*
D35*
X61275000Y-87500000D02*
X62887500Y-87500000D01*
D34*
X73930000Y-80310000D02*
X74615000Y-80310000D01*
D35*
X49430000Y-96510000D02*
X49430000Y-95830000D01*
D34*
X72505000Y-87010000D02*
X73530000Y-87010000D01*
X74615000Y-80310000D02*
X75700000Y-79225000D01*
X73630000Y-80610000D02*
X73930000Y-80310000D01*
D35*
X49430000Y-95830000D02*
X48600000Y-95000000D01*
X62887500Y-87500000D02*
X63000000Y-87387500D01*
D34*
X52940000Y-67156000D02*
X52940000Y-67200000D01*
D35*
X48930000Y-85555000D02*
X48800000Y-85425000D01*
X67037000Y-96537000D02*
X67000000Y-96500000D01*
D34*
X73630000Y-87110000D02*
X74810000Y-87110000D01*
X52940000Y-68172000D02*
X52692000Y-68172000D01*
X73530000Y-87010000D02*
X73630000Y-87110000D01*
D36*
%TO.N,+3.3V*%
X66780000Y-69735000D02*
X66730000Y-69685000D01*
D35*
X62200000Y-91100000D02*
X62200000Y-94900000D01*
D36*
X72565000Y-71010000D02*
X75700000Y-74145000D01*
X63880000Y-71010000D02*
X69958000Y-71010000D01*
X66730000Y-71135000D02*
X66730000Y-69685000D01*
D35*
X63775000Y-94900000D02*
X62200000Y-94900000D01*
D36*
X66605000Y-71010000D02*
X66730000Y-71135000D01*
X63880000Y-71010000D02*
X66605000Y-71010000D01*
X69830000Y-70882000D02*
X69830000Y-69735000D01*
X68330000Y-69785000D02*
X68230000Y-69685000D01*
X69958000Y-71010000D02*
X69830000Y-70882000D01*
X68330000Y-71135000D02*
X68330000Y-69785000D01*
X69958000Y-71010000D02*
X72565000Y-71010000D01*
X69830000Y-69735000D02*
X66780000Y-69735000D01*
D35*
%TO.N,/BST*%
X52330000Y-66385000D02*
X52330000Y-65660000D01*
X52330000Y-65660000D02*
X53080000Y-64910000D01*
%TO.N,/FB*%
X68130000Y-64910000D02*
X68130000Y-66360000D01*
X68230000Y-68135000D02*
X68230000Y-66560000D01*
X51162000Y-66217000D02*
X51330000Y-66385000D01*
X51162000Y-65251000D02*
X51162000Y-66217000D01*
X68130000Y-64910000D02*
X66569000Y-64910000D01*
X68230000Y-66560000D02*
X68280000Y-66510000D01*
X68130000Y-66360000D02*
X68280000Y-66510000D01*
X66569000Y-64910000D02*
X65894000Y-64235000D01*
D34*
%TO.N,/AN0*%
X66149999Y-90665000D02*
X65175000Y-90665000D01*
X71275000Y-80555000D02*
X71330000Y-80610000D01*
X71330000Y-80610000D02*
X70250000Y-81690000D01*
X71275000Y-79010000D02*
X71275000Y-80555000D01*
%TO.N,/AN1*%
X66030000Y-91935000D02*
X65175000Y-91935000D01*
D35*
X70875000Y-86930000D02*
X70955000Y-87010000D01*
X70875000Y-85400000D02*
X70875000Y-86930000D01*
%TO.N,/DI1*%
X65425000Y-94900000D02*
X68550000Y-94900000D01*
X65175000Y-93205000D02*
X65175000Y-94650000D01*
X65175000Y-94650000D02*
X65425000Y-94900000D01*
X68550000Y-94900000D02*
X68675000Y-95025000D01*
D36*
%TO.N,/PWR*%
X40630000Y-70510000D02*
X40630000Y-66810000D01*
X40630000Y-66810000D02*
X40730000Y-66710000D01*
%TO.N,Net-(D2-K)*%
X44700000Y-82725000D02*
X44700000Y-85325000D01*
X40700000Y-82640000D02*
X44615000Y-82640000D01*
X44700000Y-85325000D02*
X44800000Y-85425000D01*
X44615000Y-82640000D02*
X44700000Y-82725000D01*
D35*
%TO.N,Net-(D3-A)*%
X48712500Y-79125000D02*
X50200000Y-79125000D01*
%TO.N,Net-(D3-K)*%
X45350000Y-79437500D02*
X45662500Y-79125000D01*
X45350000Y-80725000D02*
X45350000Y-79437500D01*
X45662500Y-79125000D02*
X47137500Y-79125000D01*
X45350000Y-80725000D02*
X46300000Y-81675000D01*
X46300000Y-81675000D02*
X47362500Y-81675000D01*
%TO.N,Net-(D4-A)*%
X62912500Y-85900000D02*
X63000000Y-85812500D01*
X61350000Y-85900000D02*
X62912500Y-85900000D01*
%TO.N,Net-(D5-K)*%
X46150000Y-91300000D02*
X45150000Y-90300000D01*
X45150000Y-88975000D02*
X45425000Y-88700000D01*
X47162500Y-91300000D02*
X46150000Y-91300000D01*
X45150000Y-90300000D02*
X45150000Y-88975000D01*
X45425000Y-88700000D02*
X46900000Y-88700000D01*
%TO.N,Net-(D5-A)*%
X48475000Y-88700000D02*
X49850000Y-88700000D01*
D36*
%TO.N,Net-(D6-K)*%
X44600000Y-92400000D02*
X44500000Y-92300000D01*
X44600000Y-95000000D02*
X44600000Y-92400000D01*
X44485000Y-92315000D02*
X44500000Y-92300000D01*
X40700000Y-92315000D02*
X44485000Y-92315000D01*
%TO.N,Net-(J1-Pin_1)*%
X43425000Y-80100000D02*
X44050000Y-80725000D01*
D35*
X44012500Y-79125000D02*
X44012500Y-80687500D01*
X44012500Y-80687500D02*
X44050000Y-80725000D01*
D36*
X40700000Y-80100000D02*
X43425000Y-80100000D01*
D35*
%TO.N,Net-(J3-Pin_1)*%
X43775000Y-88700000D02*
X43775000Y-90225000D01*
D36*
X40700000Y-89775000D02*
X43325000Y-89775000D01*
X43325000Y-89775000D02*
X43850000Y-90300000D01*
D35*
X43775000Y-90225000D02*
X43850000Y-90300000D01*
%TO.N,Net-(J4-Pin_2)*%
X73375000Y-79010000D02*
X75700000Y-76685000D01*
X72925000Y-79010000D02*
X73375000Y-79010000D01*
%TO.N,Net-(J5-Pin_2)*%
X75640000Y-85400000D02*
X75700000Y-85460000D01*
X72525000Y-85400000D02*
X75640000Y-85400000D01*
%TO.N,/EN*%
X51830000Y-66385000D02*
X51830000Y-66772932D01*
X50767500Y-67022500D02*
X49430000Y-65685000D01*
X51580432Y-67022500D02*
X50767500Y-67022500D01*
X51830000Y-66772932D02*
X51580432Y-67022500D01*
%TO.N,Net-(R2-Pad2)*%
X69830000Y-68085000D02*
X69830000Y-66610000D01*
X69830000Y-66610000D02*
X69930000Y-66510000D01*
%TO.N,/RST#*%
X60225000Y-94575000D02*
X60550000Y-94900000D01*
X60225000Y-93205000D02*
X60225000Y-94575000D01*
%TO.N,Net-(U1-SW)*%
X54630000Y-67498000D02*
X52749500Y-69378500D01*
D36*
X54980000Y-71010000D02*
X54381000Y-71010000D01*
X54381000Y-71010000D02*
X52749500Y-69378500D01*
D35*
X51830000Y-67810000D02*
X51830000Y-68459000D01*
X54630000Y-64910000D02*
X54630000Y-67498000D01*
D36*
X52749500Y-69378500D02*
X52114500Y-68743500D01*
D35*
X51830000Y-68459000D02*
X52114500Y-68743500D01*
%TD*%
%TA.AperFunction,Conductor*%
%TO.N,+3.3V*%
G36*
X77871543Y-69030521D02*
G01*
X77918047Y-69082666D01*
X77930000Y-69135783D01*
X77930000Y-101153123D01*
X77910315Y-101220162D01*
X77857511Y-101265917D01*
X77788353Y-101275861D01*
X77724797Y-101246836D01*
X77688069Y-101191441D01*
X77666340Y-101124568D01*
X77666338Y-101124563D01*
X77537734Y-100851267D01*
X77537733Y-100851264D01*
X77375885Y-100596232D01*
X77183349Y-100363496D01*
X76963162Y-100156726D01*
X76963159Y-100156724D01*
X76963153Y-100156719D01*
X76718806Y-99979191D01*
X76718799Y-99979186D01*
X76718795Y-99979184D01*
X76454104Y-99833668D01*
X76454101Y-99833666D01*
X76454096Y-99833664D01*
X76454095Y-99833663D01*
X76173265Y-99722475D01*
X76173262Y-99722474D01*
X75880695Y-99647357D01*
X75581036Y-99609500D01*
X75581027Y-99609500D01*
X75278973Y-99609500D01*
X75278963Y-99609500D01*
X74979304Y-99647357D01*
X74686737Y-99722474D01*
X74686734Y-99722475D01*
X74405904Y-99833663D01*
X74405903Y-99833664D01*
X74141205Y-99979184D01*
X74141193Y-99979191D01*
X73896846Y-100156719D01*
X73896836Y-100156727D01*
X73676652Y-100363494D01*
X73484111Y-100596236D01*
X73322268Y-100851261D01*
X73322265Y-100851267D01*
X73193661Y-101124563D01*
X73193659Y-101124568D01*
X73100320Y-101411835D01*
X73043719Y-101708546D01*
X73043718Y-101708553D01*
X73024754Y-102009994D01*
X73024754Y-102010005D01*
X73043718Y-102311446D01*
X73043719Y-102311453D01*
X73100320Y-102608164D01*
X73193659Y-102895431D01*
X73193661Y-102895436D01*
X73322265Y-103168732D01*
X73322268Y-103168738D01*
X73484111Y-103423763D01*
X73676652Y-103656505D01*
X73896836Y-103863272D01*
X73896846Y-103863280D01*
X74141193Y-104040808D01*
X74141198Y-104040810D01*
X74141205Y-104040816D01*
X74405896Y-104186332D01*
X74405901Y-104186334D01*
X74405903Y-104186335D01*
X74405904Y-104186336D01*
X74619004Y-104270708D01*
X74674090Y-104313689D01*
X74697193Y-104379628D01*
X74680980Y-104447591D01*
X74630596Y-104495998D01*
X74573357Y-104510000D01*
X41286643Y-104510000D01*
X41219604Y-104490315D01*
X41173849Y-104437511D01*
X41163905Y-104368353D01*
X41192930Y-104304797D01*
X41240996Y-104270708D01*
X41454095Y-104186336D01*
X41454096Y-104186335D01*
X41454094Y-104186335D01*
X41454104Y-104186332D01*
X41718795Y-104040816D01*
X41963162Y-103863274D01*
X42183349Y-103656504D01*
X42375885Y-103423768D01*
X42537733Y-103168736D01*
X42666341Y-102895430D01*
X42759681Y-102608160D01*
X42816280Y-102311457D01*
X42835246Y-102010000D01*
X42816280Y-101708543D01*
X42759681Y-101411840D01*
X42666341Y-101124570D01*
X42537733Y-100851264D01*
X42375885Y-100596232D01*
X42183349Y-100363496D01*
X41963162Y-100156726D01*
X41963159Y-100156724D01*
X41963153Y-100156719D01*
X41718806Y-99979191D01*
X41718799Y-99979186D01*
X41718795Y-99979184D01*
X41454104Y-99833668D01*
X41454101Y-99833666D01*
X41454096Y-99833664D01*
X41454095Y-99833663D01*
X41173265Y-99722475D01*
X41173262Y-99722474D01*
X40880695Y-99647357D01*
X40581036Y-99609500D01*
X40581027Y-99609500D01*
X40278973Y-99609500D01*
X40278963Y-99609500D01*
X39979304Y-99647357D01*
X39686737Y-99722474D01*
X39686734Y-99722475D01*
X39405904Y-99833663D01*
X39405903Y-99833664D01*
X39141205Y-99979184D01*
X39141193Y-99979191D01*
X38896846Y-100156719D01*
X38896836Y-100156727D01*
X38676652Y-100363494D01*
X38484111Y-100596236D01*
X38322268Y-100851261D01*
X38322265Y-100851267D01*
X38193661Y-101124563D01*
X38193659Y-101124568D01*
X38171931Y-101191441D01*
X38132493Y-101249117D01*
X38068135Y-101276315D01*
X37999288Y-101264400D01*
X37947813Y-101217156D01*
X37930000Y-101153123D01*
X37930000Y-82639999D01*
X39344341Y-82639999D01*
X39344341Y-82640000D01*
X39364936Y-82875403D01*
X39364938Y-82875413D01*
X39426094Y-83103655D01*
X39426096Y-83103659D01*
X39426097Y-83103663D01*
X39495890Y-83253334D01*
X39525965Y-83317830D01*
X39525967Y-83317834D01*
X39661501Y-83511395D01*
X39661506Y-83511402D01*
X39828597Y-83678493D01*
X39828603Y-83678498D01*
X40014158Y-83808425D01*
X40057783Y-83863002D01*
X40064977Y-83932500D01*
X40033454Y-83994855D01*
X40014158Y-84011575D01*
X39828597Y-84141505D01*
X39661505Y-84308597D01*
X39525965Y-84502169D01*
X39525964Y-84502171D01*
X39433640Y-84700162D01*
X39431316Y-84705146D01*
X39426098Y-84716335D01*
X39426094Y-84716344D01*
X39364938Y-84944586D01*
X39364936Y-84944596D01*
X39344341Y-85179999D01*
X39344341Y-85180000D01*
X39364936Y-85415403D01*
X39364938Y-85415413D01*
X39426094Y-85643655D01*
X39426096Y-85643659D01*
X39426097Y-85643663D01*
X39511140Y-85826038D01*
X39525965Y-85857830D01*
X39525967Y-85857834D01*
X39572740Y-85924632D01*
X39661505Y-86051401D01*
X39828599Y-86218495D01*
X39860617Y-86240914D01*
X40022165Y-86354032D01*
X40022167Y-86354033D01*
X40022170Y-86354035D01*
X40236337Y-86453903D01*
X40236343Y-86453904D01*
X40236344Y-86453905D01*
X40279596Y-86465494D01*
X40464592Y-86515063D01*
X40643834Y-86530745D01*
X40699999Y-86535659D01*
X40700000Y-86535659D01*
X40700001Y-86535659D01*
X40739234Y-86532226D01*
X40935408Y-86515063D01*
X41163663Y-86453903D01*
X41377830Y-86354035D01*
X41571401Y-86218495D01*
X41738495Y-86051401D01*
X41874035Y-85857830D01*
X41973903Y-85643663D01*
X42035063Y-85415408D01*
X42055659Y-85180000D01*
X42035063Y-84944592D01*
X41973903Y-84716337D01*
X41874035Y-84502171D01*
X41870987Y-84497817D01*
X41738494Y-84308597D01*
X41571402Y-84141506D01*
X41571396Y-84141501D01*
X41385842Y-84011575D01*
X41342217Y-83956998D01*
X41335023Y-83887500D01*
X41366546Y-83825145D01*
X41385842Y-83808425D01*
X41410610Y-83791082D01*
X41571401Y-83678495D01*
X41738495Y-83511401D01*
X41786127Y-83443376D01*
X41840704Y-83399751D01*
X41887701Y-83390500D01*
X43825500Y-83390500D01*
X43892539Y-83410185D01*
X43938294Y-83462989D01*
X43949500Y-83514500D01*
X43949500Y-83900500D01*
X43929815Y-83967539D01*
X43877011Y-84013294D01*
X43825502Y-84024500D01*
X43749999Y-84024500D01*
X43749980Y-84024501D01*
X43647203Y-84035000D01*
X43647200Y-84035001D01*
X43480668Y-84090185D01*
X43480663Y-84090187D01*
X43331342Y-84182289D01*
X43207289Y-84306342D01*
X43115187Y-84455663D01*
X43115185Y-84455668D01*
X43099776Y-84502169D01*
X43060001Y-84622203D01*
X43060001Y-84622204D01*
X43060000Y-84622204D01*
X43049500Y-84724983D01*
X43049500Y-86125001D01*
X43049501Y-86125018D01*
X43060000Y-86227796D01*
X43060001Y-86227799D01*
X43103967Y-86360478D01*
X43115186Y-86394334D01*
X43207288Y-86543656D01*
X43331344Y-86667712D01*
X43480666Y-86759814D01*
X43647203Y-86814999D01*
X43749991Y-86825500D01*
X45850008Y-86825499D01*
X45952797Y-86814999D01*
X46119334Y-86759814D01*
X46268656Y-86667712D01*
X46392712Y-86543656D01*
X46484814Y-86394334D01*
X46539999Y-86227797D01*
X46550500Y-86125009D01*
X46550499Y-84724992D01*
X46541236Y-84634314D01*
X46554006Y-84565622D01*
X46601886Y-84514738D01*
X46669676Y-84497817D01*
X46678477Y-84498493D01*
X46829996Y-84515565D01*
X46830000Y-84515565D01*
X46830003Y-84515565D01*
X46920822Y-84505332D01*
X46989644Y-84517386D01*
X47041024Y-84564735D01*
X47058648Y-84632346D01*
X47058064Y-84641153D01*
X47049500Y-84724979D01*
X47049500Y-86125001D01*
X47049501Y-86125018D01*
X47060000Y-86227796D01*
X47060001Y-86227799D01*
X47103967Y-86360478D01*
X47115186Y-86394334D01*
X47207288Y-86543656D01*
X47331344Y-86667712D01*
X47480666Y-86759814D01*
X47647203Y-86814999D01*
X47749991Y-86825500D01*
X49850008Y-86825499D01*
X49952797Y-86814999D01*
X50119334Y-86759814D01*
X50268656Y-86667712D01*
X50392712Y-86543656D01*
X50484814Y-86394334D01*
X50539999Y-86227797D01*
X50550500Y-86125009D01*
X50550499Y-84724992D01*
X50539999Y-84622203D01*
X50484814Y-84455666D01*
X50392712Y-84306344D01*
X50268656Y-84182288D01*
X50175675Y-84124937D01*
X50119336Y-84090187D01*
X50119331Y-84090185D01*
X50113096Y-84088119D01*
X49952797Y-84035001D01*
X49952795Y-84035000D01*
X49850016Y-84024500D01*
X49850009Y-84024500D01*
X48300097Y-84024500D01*
X48233058Y-84004815D01*
X48212416Y-83988181D01*
X47572590Y-83348355D01*
X47572588Y-83348352D01*
X47516767Y-83292531D01*
X47499454Y-83270822D01*
X47486685Y-83250500D01*
X47459816Y-83207738D01*
X47332262Y-83080184D01*
X47260986Y-83035398D01*
X47179523Y-82984211D01*
X47009254Y-82924631D01*
X47009249Y-82924630D01*
X46830004Y-82904435D01*
X46829996Y-82904435D01*
X46650750Y-82924630D01*
X46650745Y-82924631D01*
X46480476Y-82984211D01*
X46327737Y-83080184D01*
X46200184Y-83207737D01*
X46104211Y-83360476D01*
X46044631Y-83530745D01*
X46044630Y-83530750D01*
X46024435Y-83709996D01*
X46024435Y-83710003D01*
X46045088Y-83893312D01*
X46033033Y-83962134D01*
X45985684Y-84013513D01*
X45918074Y-84031137D01*
X45909267Y-84030553D01*
X45850020Y-84024500D01*
X45850009Y-84024500D01*
X45574500Y-84024500D01*
X45507461Y-84004815D01*
X45461706Y-83952011D01*
X45450500Y-83900500D01*
X45450500Y-82651079D01*
X45427882Y-82537376D01*
X45425499Y-82513184D01*
X45425499Y-82425606D01*
X45425498Y-82425584D01*
X45423847Y-82404596D01*
X45422765Y-82390844D01*
X45379555Y-82242113D01*
X45300715Y-82108802D01*
X45300713Y-82108800D01*
X45300710Y-82108796D01*
X45191203Y-81999289D01*
X45191194Y-81999282D01*
X45068989Y-81927011D01*
X45057887Y-81920445D01*
X44909156Y-81877235D01*
X44909153Y-81877234D01*
X44909151Y-81877234D01*
X44878395Y-81874814D01*
X44874405Y-81874500D01*
X44874404Y-81874500D01*
X44525606Y-81874500D01*
X44525584Y-81874501D01*
X44490844Y-81877235D01*
X44490843Y-81877235D01*
X44465571Y-81884577D01*
X44430979Y-81889500D01*
X41887701Y-81889500D01*
X41820662Y-81869815D01*
X41786126Y-81836623D01*
X41738496Y-81768600D01*
X41679117Y-81709221D01*
X41616567Y-81646671D01*
X41583084Y-81585351D01*
X41588068Y-81515659D01*
X41629939Y-81459725D01*
X41660915Y-81442810D01*
X41792331Y-81393796D01*
X41907546Y-81307546D01*
X41993796Y-81192331D01*
X42044091Y-81057483D01*
X42050500Y-80997873D01*
X42050500Y-80974500D01*
X42070185Y-80907461D01*
X42122989Y-80861706D01*
X42174500Y-80850500D01*
X43062770Y-80850500D01*
X43129809Y-80870185D01*
X43150451Y-80886819D01*
X43306542Y-81042910D01*
X43337937Y-81095996D01*
X43370443Y-81207882D01*
X43370444Y-81207885D01*
X43370445Y-81207887D01*
X43379667Y-81223481D01*
X43449282Y-81341194D01*
X43449289Y-81341203D01*
X43558796Y-81450710D01*
X43558800Y-81450713D01*
X43558802Y-81450715D01*
X43692113Y-81529555D01*
X43840844Y-81572765D01*
X43875595Y-81575500D01*
X44224404Y-81575499D01*
X44259156Y-81572765D01*
X44407887Y-81529555D01*
X44541198Y-81450715D01*
X44568220Y-81423693D01*
X44612319Y-81379595D01*
X44673642Y-81346110D01*
X44743334Y-81351094D01*
X44787681Y-81379595D01*
X44858796Y-81450710D01*
X44858800Y-81450713D01*
X44858802Y-81450715D01*
X44992113Y-81529555D01*
X45140844Y-81572765D01*
X45175595Y-81575500D01*
X45299901Y-81575499D01*
X45366941Y-81595183D01*
X45387583Y-81611818D01*
X45815139Y-82039374D01*
X45815149Y-82039385D01*
X45819479Y-82043715D01*
X45819480Y-82043716D01*
X45931284Y-82155520D01*
X46001152Y-82195858D01*
X46068215Y-82234577D01*
X46220943Y-82275501D01*
X46254193Y-82275501D01*
X46321232Y-82295186D01*
X46341875Y-82311821D01*
X46373129Y-82343076D01*
X46373133Y-82343079D01*
X46373135Y-82343081D01*
X46514602Y-82426744D01*
X46556224Y-82438836D01*
X46672426Y-82472597D01*
X46672429Y-82472597D01*
X46672431Y-82472598D01*
X46709306Y-82475500D01*
X47875500Y-82475500D01*
X47942539Y-82495185D01*
X47988294Y-82547989D01*
X47999500Y-82599500D01*
X47999500Y-82840701D01*
X48002401Y-82877567D01*
X48002402Y-82877573D01*
X48048254Y-83035393D01*
X48048255Y-83035396D01*
X48131917Y-83176862D01*
X48131923Y-83176870D01*
X48248129Y-83293076D01*
X48248133Y-83293079D01*
X48248135Y-83293081D01*
X48389602Y-83376744D01*
X48412808Y-83383486D01*
X48547426Y-83422597D01*
X48547429Y-83422597D01*
X48547431Y-83422598D01*
X48584306Y-83425500D01*
X48584314Y-83425500D01*
X49890686Y-83425500D01*
X49890694Y-83425500D01*
X49927569Y-83422598D01*
X49927571Y-83422597D01*
X49927573Y-83422597D01*
X50006208Y-83399751D01*
X50085398Y-83376744D01*
X50226865Y-83293081D01*
X50227415Y-83292531D01*
X50233128Y-83286819D01*
X50294451Y-83253334D01*
X50320809Y-83250500D01*
X50834548Y-83250500D01*
X50901587Y-83270185D01*
X50922229Y-83286819D01*
X54618181Y-86982771D01*
X54651666Y-87044094D01*
X54654500Y-87070452D01*
X54654500Y-87391613D01*
X54660913Y-87462192D01*
X54660913Y-87462194D01*
X54660914Y-87462196D01*
X54711522Y-87624606D01*
X54792374Y-87758351D01*
X54810210Y-87825904D01*
X54792374Y-87886648D01*
X54768677Y-87925849D01*
X54711522Y-88020393D01*
X54660913Y-88182807D01*
X54654500Y-88253386D01*
X54654500Y-88766613D01*
X54660913Y-88837192D01*
X54660913Y-88837194D01*
X54660914Y-88837196D01*
X54711522Y-88999606D01*
X54767576Y-89092331D01*
X54799530Y-89145188D01*
X54901661Y-89247319D01*
X54935146Y-89308642D01*
X54930162Y-89378334D01*
X54901661Y-89422681D01*
X54799531Y-89524810D01*
X54799530Y-89524811D01*
X54711522Y-89670393D01*
X54660913Y-89832807D01*
X54654500Y-89903386D01*
X54654500Y-90416613D01*
X54660913Y-90487192D01*
X54660913Y-90487194D01*
X54660914Y-90487196D01*
X54711522Y-90649606D01*
X54792092Y-90782885D01*
X54799530Y-90795188D01*
X54919811Y-90915469D01*
X54919813Y-90915470D01*
X54919815Y-90915472D01*
X55065394Y-91003478D01*
X55227804Y-91054086D01*
X55272811Y-91058176D01*
X55337792Y-91083845D01*
X55378581Y-91140572D01*
X55382225Y-91210347D01*
X55347569Y-91271016D01*
X55298478Y-91300051D01*
X55165397Y-91341520D01*
X55019811Y-91429530D01*
X55019810Y-91429531D01*
X55017681Y-91431661D01*
X55015737Y-91432722D01*
X55013906Y-91434157D01*
X55013667Y-91433852D01*
X54956358Y-91465146D01*
X54886666Y-91460162D01*
X54846130Y-91434110D01*
X54846094Y-91434157D01*
X54845597Y-91433767D01*
X54842319Y-91431661D01*
X54840188Y-91429530D01*
X54694606Y-91341522D01*
X54694600Y-91341520D01*
X54532196Y-91290914D01*
X54532194Y-91290913D01*
X54532192Y-91290913D01*
X54482778Y-91286423D01*
X54461616Y-91284500D01*
X53798384Y-91284500D01*
X53779145Y-91286248D01*
X53727807Y-91290913D01*
X53565393Y-91341522D01*
X53419811Y-91429530D01*
X53299530Y-91549811D01*
X53290559Y-91564652D01*
X53239030Y-91611838D01*
X53184443Y-91624500D01*
X51172823Y-91624500D01*
X51105784Y-91604815D01*
X51060029Y-91552011D01*
X51050085Y-91482853D01*
X51055781Y-91459545D01*
X51084661Y-91377011D01*
X51115368Y-91289255D01*
X51116805Y-91276505D01*
X51135565Y-91110003D01*
X51135565Y-91109996D01*
X51115369Y-90930750D01*
X51115368Y-90930745D01*
X51110759Y-90917573D01*
X51055789Y-90760478D01*
X50959816Y-90607738D01*
X50832262Y-90480184D01*
X50783107Y-90449298D01*
X50679521Y-90384210D01*
X50509249Y-90324630D01*
X50422330Y-90314837D01*
X50357916Y-90287770D01*
X50348533Y-90279298D01*
X50311819Y-90242584D01*
X50278334Y-90181261D01*
X50275500Y-90154903D01*
X50275500Y-90134313D01*
X50275499Y-90134298D01*
X50273348Y-90106969D01*
X50272598Y-90097431D01*
X50255767Y-90039500D01*
X50230926Y-89953998D01*
X50226744Y-89939602D01*
X50163716Y-89833028D01*
X50146534Y-89765305D01*
X50168694Y-89699042D01*
X50223160Y-89655279D01*
X50233547Y-89651526D01*
X50339606Y-89618478D01*
X50485185Y-89530472D01*
X50587673Y-89427983D01*
X50648994Y-89394499D01*
X50718685Y-89399483D01*
X50763034Y-89427984D01*
X50865122Y-89530072D01*
X51010604Y-89618019D01*
X51010603Y-89618019D01*
X51172894Y-89668590D01*
X51172893Y-89668590D01*
X51243408Y-89674998D01*
X51243426Y-89674999D01*
X51750000Y-89674999D01*
X51756581Y-89674999D01*
X51827102Y-89668591D01*
X51827107Y-89668590D01*
X51989396Y-89618018D01*
X52134877Y-89530072D01*
X52255072Y-89409877D01*
X52343019Y-89264395D01*
X52393590Y-89102106D01*
X52400000Y-89031572D01*
X52400000Y-88950000D01*
X51750000Y-88950000D01*
X51750000Y-89674999D01*
X51243426Y-89674999D01*
X51249999Y-89674998D01*
X51250000Y-89674998D01*
X51250000Y-88450000D01*
X51750000Y-88450000D01*
X52399999Y-88450000D01*
X52399999Y-88368417D01*
X52393591Y-88297897D01*
X52393590Y-88297892D01*
X52343018Y-88135603D01*
X52255072Y-87990122D01*
X52134877Y-87869927D01*
X51989395Y-87781980D01*
X51989396Y-87781980D01*
X51827105Y-87731409D01*
X51827106Y-87731409D01*
X51756572Y-87725000D01*
X51750000Y-87725000D01*
X51750000Y-88450000D01*
X51250000Y-88450000D01*
X51250000Y-87725000D01*
X51249999Y-87724999D01*
X51243436Y-87725000D01*
X51243417Y-87725001D01*
X51172897Y-87731408D01*
X51172892Y-87731409D01*
X51010603Y-87781981D01*
X50865122Y-87869927D01*
X50865121Y-87869928D01*
X50763035Y-87972015D01*
X50701712Y-88005500D01*
X50632020Y-88000516D01*
X50587673Y-87972015D01*
X50485188Y-87869530D01*
X50468596Y-87859500D01*
X50339606Y-87781522D01*
X50177196Y-87730914D01*
X50177194Y-87730913D01*
X50177192Y-87730913D01*
X50127778Y-87726423D01*
X50106616Y-87724500D01*
X49593384Y-87724500D01*
X49574145Y-87726248D01*
X49522807Y-87730913D01*
X49497516Y-87738794D01*
X49396777Y-87770185D01*
X49360391Y-87781523D01*
X49238220Y-87855377D01*
X49170665Y-87873213D01*
X49108974Y-87854798D01*
X48999795Y-87787455D01*
X48999789Y-87787452D01*
X48999787Y-87787451D01*
X48840185Y-87734564D01*
X48840183Y-87734563D01*
X48741681Y-87724500D01*
X48741674Y-87724500D01*
X48208326Y-87724500D01*
X48208318Y-87724500D01*
X48109816Y-87734563D01*
X48109815Y-87734564D01*
X48055139Y-87752682D01*
X47950215Y-87787450D01*
X47950204Y-87787455D01*
X47807112Y-87875716D01*
X47807108Y-87875719D01*
X47775181Y-87907647D01*
X47713858Y-87941132D01*
X47644166Y-87936148D01*
X47599819Y-87907647D01*
X47567891Y-87875719D01*
X47567887Y-87875716D01*
X47424795Y-87787455D01*
X47424789Y-87787452D01*
X47424787Y-87787451D01*
X47265185Y-87734564D01*
X47265183Y-87734563D01*
X47166681Y-87724500D01*
X47166674Y-87724500D01*
X46633326Y-87724500D01*
X46633318Y-87724500D01*
X46534816Y-87734563D01*
X46534815Y-87734564D01*
X46480139Y-87752682D01*
X46375215Y-87787450D01*
X46375204Y-87787455D01*
X46232112Y-87875716D01*
X46226446Y-87880197D01*
X46224495Y-87877730D01*
X46175393Y-87904434D01*
X46105710Y-87899331D01*
X46066268Y-87873933D01*
X46066094Y-87874157D01*
X46063687Y-87872271D01*
X46061556Y-87870899D01*
X46060185Y-87869528D01*
X45914606Y-87781522D01*
X45752196Y-87730914D01*
X45752194Y-87730913D01*
X45752192Y-87730913D01*
X45702778Y-87726423D01*
X45681616Y-87724500D01*
X45168384Y-87724500D01*
X45149145Y-87726248D01*
X45097807Y-87730913D01*
X44935393Y-87781522D01*
X44789811Y-87869530D01*
X44789810Y-87869531D01*
X44687681Y-87971661D01*
X44626358Y-88005146D01*
X44556666Y-88000162D01*
X44512319Y-87971661D01*
X44410188Y-87869530D01*
X44393596Y-87859500D01*
X44264606Y-87781522D01*
X44102196Y-87730914D01*
X44102194Y-87730913D01*
X44102192Y-87730913D01*
X44052778Y-87726423D01*
X44031616Y-87724500D01*
X43518384Y-87724500D01*
X43499145Y-87726248D01*
X43447807Y-87730913D01*
X43285393Y-87781522D01*
X43139811Y-87869530D01*
X43019530Y-87989811D01*
X42931522Y-88135393D01*
X42880913Y-88297807D01*
X42874500Y-88368386D01*
X42874500Y-88900500D01*
X42854815Y-88967539D01*
X42802011Y-89013294D01*
X42750500Y-89024500D01*
X42174499Y-89024500D01*
X42107460Y-89004815D01*
X42061705Y-88952011D01*
X42050499Y-88900500D01*
X42050499Y-88877129D01*
X42050498Y-88877123D01*
X42050497Y-88877116D01*
X42044091Y-88817517D01*
X42025106Y-88766616D01*
X41993797Y-88682671D01*
X41993793Y-88682664D01*
X41907547Y-88567455D01*
X41907544Y-88567452D01*
X41792335Y-88481206D01*
X41792328Y-88481202D01*
X41657482Y-88430908D01*
X41657483Y-88430908D01*
X41597883Y-88424501D01*
X41597881Y-88424500D01*
X41597873Y-88424500D01*
X41597864Y-88424500D01*
X39802129Y-88424500D01*
X39802123Y-88424501D01*
X39742516Y-88430908D01*
X39607671Y-88481202D01*
X39607664Y-88481206D01*
X39492455Y-88567452D01*
X39492452Y-88567455D01*
X39406206Y-88682664D01*
X39406202Y-88682671D01*
X39355908Y-88817517D01*
X39349796Y-88874372D01*
X39349501Y-88877123D01*
X39349500Y-88877135D01*
X39349500Y-90672870D01*
X39349501Y-90672876D01*
X39355908Y-90732483D01*
X39406202Y-90867328D01*
X39406206Y-90867335D01*
X39492452Y-90982544D01*
X39492455Y-90982547D01*
X39607664Y-91068793D01*
X39607671Y-91068797D01*
X39739081Y-91117810D01*
X39795015Y-91159681D01*
X39819432Y-91225145D01*
X39804580Y-91293418D01*
X39783430Y-91321673D01*
X39661503Y-91443600D01*
X39525965Y-91637169D01*
X39525964Y-91637171D01*
X39426098Y-91851335D01*
X39426094Y-91851344D01*
X39364938Y-92079586D01*
X39364936Y-92079596D01*
X39344341Y-92314999D01*
X39344341Y-92315000D01*
X39364936Y-92550403D01*
X39364938Y-92550413D01*
X39426094Y-92778655D01*
X39426096Y-92778659D01*
X39426097Y-92778663D01*
X39514135Y-92967461D01*
X39525965Y-92992830D01*
X39525967Y-92992834D01*
X39661501Y-93186395D01*
X39661506Y-93186402D01*
X39828597Y-93353493D01*
X39828603Y-93353498D01*
X40014158Y-93483425D01*
X40057783Y-93538002D01*
X40064977Y-93607500D01*
X40033454Y-93669855D01*
X40014158Y-93686575D01*
X39828597Y-93816505D01*
X39661505Y-93983597D01*
X39525965Y-94177169D01*
X39525964Y-94177171D01*
X39426098Y-94391335D01*
X39426094Y-94391344D01*
X39364938Y-94619586D01*
X39364936Y-94619596D01*
X39344341Y-94854999D01*
X39344341Y-94855000D01*
X39364936Y-95090403D01*
X39364938Y-95090413D01*
X39426094Y-95318655D01*
X39426096Y-95318659D01*
X39426097Y-95318663D01*
X39453896Y-95378277D01*
X39525965Y-95532830D01*
X39525967Y-95532834D01*
X39631037Y-95682888D01*
X39661505Y-95726401D01*
X39828599Y-95893495D01*
X39899979Y-95943476D01*
X40022165Y-96029032D01*
X40022167Y-96029033D01*
X40022170Y-96029035D01*
X40236337Y-96128903D01*
X40464592Y-96190063D01*
X40652918Y-96206539D01*
X40699999Y-96210659D01*
X40700000Y-96210659D01*
X40700001Y-96210659D01*
X40739234Y-96207226D01*
X40935408Y-96190063D01*
X41163663Y-96128903D01*
X41377830Y-96029035D01*
X41571401Y-95893495D01*
X41738495Y-95726401D01*
X41874035Y-95532830D01*
X41973903Y-95318663D01*
X42035063Y-95090408D01*
X42055659Y-94855000D01*
X42035063Y-94619592D01*
X41973903Y-94391337D01*
X41874035Y-94177171D01*
X41871989Y-94174248D01*
X41738494Y-93983597D01*
X41571402Y-93816506D01*
X41571396Y-93816501D01*
X41385842Y-93686575D01*
X41342217Y-93631998D01*
X41335023Y-93562500D01*
X41366546Y-93500145D01*
X41385842Y-93483425D01*
X41490696Y-93410005D01*
X41571401Y-93353495D01*
X41738495Y-93186401D01*
X41786127Y-93118376D01*
X41840704Y-93074751D01*
X41887701Y-93065500D01*
X43725500Y-93065500D01*
X43792539Y-93085185D01*
X43838294Y-93137989D01*
X43849500Y-93189500D01*
X43849500Y-93475500D01*
X43829815Y-93542539D01*
X43777011Y-93588294D01*
X43725501Y-93599500D01*
X43549999Y-93599500D01*
X43549980Y-93599501D01*
X43447203Y-93610000D01*
X43447200Y-93610001D01*
X43280668Y-93665185D01*
X43280663Y-93665187D01*
X43131342Y-93757289D01*
X43007289Y-93881342D01*
X42915187Y-94030663D01*
X42915185Y-94030668D01*
X42904471Y-94063001D01*
X42860001Y-94197203D01*
X42860001Y-94197204D01*
X42860000Y-94197204D01*
X42849500Y-94299983D01*
X42849500Y-95700001D01*
X42849501Y-95700018D01*
X42860000Y-95802796D01*
X42860001Y-95802799D01*
X42890055Y-95893495D01*
X42915186Y-95969334D01*
X43007288Y-96118656D01*
X43131344Y-96242712D01*
X43280666Y-96334814D01*
X43447203Y-96389999D01*
X43549991Y-96400500D01*
X45650008Y-96400499D01*
X45752797Y-96389999D01*
X45919334Y-96334814D01*
X46068656Y-96242712D01*
X46192712Y-96118656D01*
X46284814Y-95969334D01*
X46339999Y-95802797D01*
X46350500Y-95700009D01*
X46350499Y-94300060D01*
X46370184Y-94233022D01*
X46422987Y-94187267D01*
X46492146Y-94177323D01*
X46515454Y-94183020D01*
X46550737Y-94195366D01*
X46550743Y-94195367D01*
X46550745Y-94195368D01*
X46550746Y-94195368D01*
X46550750Y-94195369D01*
X46736920Y-94216345D01*
X46736639Y-94218835D01*
X46792539Y-94235250D01*
X46838294Y-94288054D01*
X46849500Y-94339565D01*
X46849500Y-95700001D01*
X46849501Y-95700018D01*
X46860000Y-95802796D01*
X46860001Y-95802799D01*
X46890055Y-95893495D01*
X46915186Y-95969334D01*
X47007288Y-96118656D01*
X47131344Y-96242712D01*
X47280666Y-96334814D01*
X47447203Y-96389999D01*
X47549991Y-96400500D01*
X48501283Y-96400499D01*
X48568322Y-96420183D01*
X48614077Y-96472987D01*
X48624503Y-96510615D01*
X48644630Y-96689250D01*
X48644631Y-96689254D01*
X48704211Y-96859523D01*
X48800184Y-97012262D01*
X48927738Y-97139816D01*
X49080478Y-97235789D01*
X49233524Y-97289342D01*
X49250745Y-97295368D01*
X49250750Y-97295369D01*
X49429996Y-97315565D01*
X49430000Y-97315565D01*
X49430004Y-97315565D01*
X49609249Y-97295369D01*
X49609252Y-97295368D01*
X49609255Y-97295368D01*
X49779522Y-97235789D01*
X49932262Y-97139816D01*
X50059816Y-97012262D01*
X50155789Y-96859522D01*
X50215368Y-96689255D01*
X50220490Y-96643796D01*
X50235565Y-96510003D01*
X50235565Y-96509996D01*
X50215369Y-96330750D01*
X50215366Y-96330737D01*
X50179330Y-96227753D01*
X50175768Y-96157974D01*
X50190833Y-96121701D01*
X50192711Y-96118657D01*
X50192712Y-96118656D01*
X50284814Y-95969334D01*
X50339999Y-95802797D01*
X50350500Y-95700009D01*
X50350499Y-94299992D01*
X50339999Y-94197203D01*
X50305000Y-94091582D01*
X53155001Y-94091582D01*
X53161408Y-94162102D01*
X53161409Y-94162107D01*
X53211981Y-94324396D01*
X53299927Y-94469877D01*
X53420122Y-94590072D01*
X53565604Y-94678019D01*
X53565603Y-94678019D01*
X53727894Y-94728590D01*
X53727892Y-94728590D01*
X53798418Y-94734999D01*
X53879999Y-94734998D01*
X53880000Y-94734998D01*
X53880000Y-94085000D01*
X53155001Y-94085000D01*
X53155001Y-94091582D01*
X50305000Y-94091582D01*
X50284814Y-94030666D01*
X50192712Y-93881344D01*
X50068656Y-93757288D01*
X49954011Y-93686575D01*
X49919336Y-93665187D01*
X49919331Y-93665185D01*
X49896106Y-93657489D01*
X49752797Y-93610001D01*
X49752795Y-93610000D01*
X49650016Y-93599500D01*
X49650009Y-93599500D01*
X48100098Y-93599500D01*
X48033059Y-93579815D01*
X48012417Y-93563181D01*
X47497590Y-93048355D01*
X47497587Y-93048351D01*
X47497587Y-93048352D01*
X47490520Y-93041285D01*
X47490520Y-93041284D01*
X47378716Y-92929480D01*
X47378715Y-92929479D01*
X47374497Y-92925261D01*
X47364589Y-92912836D01*
X47364157Y-92913182D01*
X47359818Y-92907741D01*
X47359816Y-92907738D01*
X47232262Y-92780184D01*
X47180437Y-92747620D01*
X47079523Y-92684211D01*
X46909254Y-92624631D01*
X46909249Y-92624630D01*
X46730004Y-92604435D01*
X46729996Y-92604435D01*
X46550750Y-92624630D01*
X46550745Y-92624631D01*
X46380476Y-92684211D01*
X46227737Y-92780184D01*
X46100184Y-92907737D01*
X46004211Y-93060476D01*
X45944631Y-93230745D01*
X45944630Y-93230750D01*
X45924435Y-93409996D01*
X45924435Y-93410005D01*
X45932806Y-93484306D01*
X45920751Y-93553127D01*
X45873402Y-93604506D01*
X45805791Y-93622130D01*
X45770585Y-93615895D01*
X45752797Y-93610001D01*
X45752795Y-93610000D01*
X45650016Y-93599500D01*
X45650009Y-93599500D01*
X45474500Y-93599500D01*
X45407461Y-93579815D01*
X45361706Y-93527011D01*
X45350500Y-93475500D01*
X45350500Y-92326079D01*
X45321659Y-92181092D01*
X45321658Y-92181091D01*
X45321658Y-92181087D01*
X45309066Y-92150686D01*
X45265086Y-92044509D01*
X45265085Y-92044508D01*
X45265084Y-92044505D01*
X45240883Y-92008286D01*
X45225992Y-91971506D01*
X45224534Y-91971930D01*
X45179556Y-91817117D01*
X45179555Y-91817113D01*
X45100715Y-91683802D01*
X45100713Y-91683800D01*
X45100710Y-91683796D01*
X44991203Y-91574289D01*
X44991194Y-91574282D01*
X44885242Y-91511623D01*
X44857887Y-91495445D01*
X44709156Y-91452235D01*
X44709153Y-91452234D01*
X44709151Y-91452234D01*
X44678395Y-91449814D01*
X44674405Y-91449500D01*
X44674404Y-91449500D01*
X44325606Y-91449500D01*
X44325584Y-91449501D01*
X44290847Y-91452234D01*
X44263559Y-91460162D01*
X44142113Y-91495445D01*
X44054545Y-91547232D01*
X43991426Y-91564500D01*
X41887701Y-91564500D01*
X41820662Y-91544815D01*
X41786126Y-91511623D01*
X41738496Y-91443600D01*
X41678031Y-91383135D01*
X41616567Y-91321671D01*
X41583084Y-91260351D01*
X41588068Y-91190659D01*
X41629939Y-91134725D01*
X41660915Y-91117810D01*
X41792331Y-91068796D01*
X41907546Y-90982546D01*
X41993796Y-90867331D01*
X42044091Y-90732483D01*
X42050500Y-90672873D01*
X42050500Y-90649500D01*
X42070185Y-90582461D01*
X42122989Y-90536706D01*
X42174500Y-90525500D01*
X42962770Y-90525500D01*
X43029809Y-90545185D01*
X43050451Y-90561819D01*
X43106542Y-90617910D01*
X43137937Y-90670996D01*
X43170443Y-90782882D01*
X43170444Y-90782885D01*
X43249282Y-90916194D01*
X43249289Y-90916203D01*
X43358796Y-91025710D01*
X43358800Y-91025713D01*
X43358802Y-91025715D01*
X43492113Y-91104555D01*
X43640844Y-91147765D01*
X43675595Y-91150500D01*
X44024404Y-91150499D01*
X44059156Y-91147765D01*
X44207887Y-91104555D01*
X44341198Y-91025715D01*
X44363436Y-91003477D01*
X44412319Y-90954595D01*
X44473642Y-90921110D01*
X44543334Y-90926094D01*
X44587681Y-90954595D01*
X44658796Y-91025710D01*
X44658800Y-91025713D01*
X44658802Y-91025715D01*
X44792113Y-91104555D01*
X44940844Y-91147765D01*
X44975595Y-91150500D01*
X45099901Y-91150499D01*
X45166941Y-91170183D01*
X45187582Y-91186817D01*
X45781284Y-91780520D01*
X45781286Y-91780521D01*
X45781290Y-91780524D01*
X45903940Y-91851335D01*
X45918216Y-91859577D01*
X46070943Y-91900501D01*
X46070945Y-91900501D01*
X46078793Y-91902604D01*
X46078325Y-91904350D01*
X46132961Y-91928515D01*
X46140567Y-91935513D01*
X46173129Y-91968076D01*
X46173133Y-91968079D01*
X46173135Y-91968081D01*
X46314602Y-92051744D01*
X46356224Y-92063836D01*
X46472426Y-92097597D01*
X46472429Y-92097597D01*
X46472431Y-92097598D01*
X46509306Y-92100500D01*
X47675500Y-92100500D01*
X47742539Y-92120185D01*
X47788294Y-92172989D01*
X47799500Y-92224500D01*
X47799500Y-92465701D01*
X47802401Y-92502567D01*
X47802402Y-92502573D01*
X47848254Y-92660393D01*
X47848255Y-92660396D01*
X47848256Y-92660398D01*
X47862339Y-92684211D01*
X47931917Y-92801862D01*
X47931923Y-92801870D01*
X48048129Y-92918076D01*
X48048133Y-92918079D01*
X48048135Y-92918081D01*
X48189602Y-93001744D01*
X48218019Y-93010000D01*
X48347426Y-93047597D01*
X48347429Y-93047597D01*
X48347431Y-93047598D01*
X48384306Y-93050500D01*
X48384314Y-93050500D01*
X49690686Y-93050500D01*
X49690694Y-93050500D01*
X49727569Y-93047598D01*
X49727571Y-93047597D01*
X49727573Y-93047597D01*
X49793380Y-93028478D01*
X49885398Y-93001744D01*
X50026865Y-92918081D01*
X50026870Y-92918076D01*
X50033128Y-92911819D01*
X50094451Y-92878334D01*
X50120809Y-92875500D01*
X53303480Y-92875500D01*
X53370519Y-92895185D01*
X53391157Y-92911815D01*
X53402011Y-92922668D01*
X53435499Y-92983989D01*
X53430518Y-93053681D01*
X53402016Y-93098034D01*
X53299926Y-93200124D01*
X53211980Y-93345604D01*
X53161409Y-93507893D01*
X53155000Y-93578427D01*
X53155000Y-93585000D01*
X54006000Y-93585000D01*
X54073039Y-93604685D01*
X54118794Y-93657489D01*
X54130000Y-93709000D01*
X54130000Y-93835000D01*
X54256000Y-93835000D01*
X54323039Y-93854685D01*
X54368794Y-93907489D01*
X54380000Y-93959000D01*
X54380000Y-94734999D01*
X54461581Y-94734999D01*
X54532102Y-94728591D01*
X54532107Y-94728590D01*
X54694396Y-94678018D01*
X54839876Y-94590073D01*
X54841959Y-94587990D01*
X54843862Y-94586950D01*
X54845783Y-94585446D01*
X54846032Y-94585765D01*
X54903280Y-94554501D01*
X54972972Y-94559480D01*
X55017345Y-94588002D01*
X55019415Y-94590072D01*
X55019486Y-94590143D01*
X55052956Y-94651474D01*
X55048826Y-94718756D01*
X55044632Y-94730742D01*
X55044631Y-94730746D01*
X55024435Y-94909996D01*
X55024435Y-94910003D01*
X55044630Y-95089249D01*
X55044631Y-95089254D01*
X55104211Y-95259523D01*
X55141372Y-95318664D01*
X55200184Y-95412262D01*
X55327738Y-95539816D01*
X55331558Y-95542216D01*
X55455623Y-95620172D01*
X55480478Y-95635789D01*
X55482879Y-95636629D01*
X55650745Y-95695368D01*
X55650750Y-95695369D01*
X55829996Y-95715565D01*
X55830000Y-95715565D01*
X55830004Y-95715565D01*
X56009249Y-95695369D01*
X56009252Y-95695368D01*
X56009255Y-95695368D01*
X56179522Y-95635789D01*
X56332262Y-95539816D01*
X56459816Y-95412262D01*
X56555789Y-95259522D01*
X56615368Y-95089255D01*
X56635565Y-94910000D01*
X56615847Y-94734999D01*
X56615369Y-94730750D01*
X56615366Y-94730737D01*
X56566169Y-94590143D01*
X56556782Y-94563318D01*
X56553220Y-94493542D01*
X56567703Y-94458223D01*
X56648478Y-94324606D01*
X56699086Y-94162196D01*
X56705500Y-94091616D01*
X56705500Y-93578384D01*
X56699086Y-93507804D01*
X56648478Y-93345394D01*
X56560472Y-93199815D01*
X56560470Y-93199813D01*
X56560469Y-93199811D01*
X56458339Y-93097681D01*
X56424854Y-93036358D01*
X56429838Y-92966666D01*
X56458339Y-92922319D01*
X56560468Y-92820189D01*
X56560469Y-92820188D01*
X56560472Y-92820185D01*
X56648478Y-92674606D01*
X56655168Y-92653137D01*
X56656891Y-92647609D01*
X56695629Y-92589461D01*
X56759654Y-92561488D01*
X56775276Y-92560500D01*
X58719308Y-92560500D01*
X58786347Y-92580185D01*
X58832102Y-92632989D01*
X58842046Y-92702147D01*
X58826041Y-92747620D01*
X58798254Y-92794605D01*
X58798254Y-92794606D01*
X58752402Y-92952426D01*
X58752401Y-92952432D01*
X58749500Y-92989298D01*
X58749500Y-93420701D01*
X58752401Y-93457567D01*
X58752402Y-93457573D01*
X58798254Y-93615393D01*
X58798255Y-93615396D01*
X58798256Y-93615398D01*
X58827700Y-93665185D01*
X58881917Y-93756862D01*
X58881923Y-93756870D01*
X58998129Y-93873076D01*
X58998133Y-93873079D01*
X58998135Y-93873081D01*
X59139602Y-93956744D01*
X59169114Y-93965318D01*
X59297426Y-94002597D01*
X59297429Y-94002597D01*
X59297431Y-94002598D01*
X59334306Y-94005500D01*
X59500500Y-94005500D01*
X59567539Y-94025185D01*
X59613294Y-94077989D01*
X59624500Y-94129500D01*
X59624500Y-94488330D01*
X59624499Y-94488348D01*
X59624499Y-94495943D01*
X59624499Y-94654057D01*
X59644471Y-94728591D01*
X59645275Y-94731592D01*
X59649500Y-94763686D01*
X59649500Y-95231613D01*
X59655913Y-95302192D01*
X59655913Y-95302194D01*
X59655914Y-95302196D01*
X59706522Y-95464606D01*
X59789588Y-95602014D01*
X59794530Y-95610188D01*
X59914811Y-95730469D01*
X59914813Y-95730470D01*
X59914815Y-95730472D01*
X60060394Y-95818478D01*
X60222804Y-95869086D01*
X60293384Y-95875500D01*
X60293387Y-95875500D01*
X60806613Y-95875500D01*
X60806616Y-95875500D01*
X60877196Y-95869086D01*
X61039606Y-95818478D01*
X61185185Y-95730472D01*
X61287673Y-95627983D01*
X61348994Y-95594499D01*
X61418685Y-95599483D01*
X61463034Y-95627984D01*
X61565122Y-95730072D01*
X61710604Y-95818019D01*
X61710603Y-95818019D01*
X61872894Y-95868590D01*
X61872893Y-95868590D01*
X61943408Y-95874998D01*
X61943426Y-95874999D01*
X62450000Y-95874999D01*
X62456581Y-95874999D01*
X62527102Y-95868591D01*
X62527107Y-95868590D01*
X62689396Y-95818018D01*
X62834875Y-95730073D01*
X62899818Y-95665130D01*
X62961141Y-95631645D01*
X63030833Y-95636629D01*
X63075182Y-95665130D01*
X63140124Y-95730073D01*
X63285604Y-95818019D01*
X63285603Y-95818019D01*
X63447894Y-95868590D01*
X63447893Y-95868590D01*
X63518408Y-95874998D01*
X63518426Y-95874999D01*
X63524999Y-95874998D01*
X63525000Y-95874998D01*
X63525000Y-95150000D01*
X62450000Y-95150000D01*
X62450000Y-95874999D01*
X61943426Y-95874999D01*
X61949999Y-95874998D01*
X61950000Y-95874998D01*
X61950000Y-93925000D01*
X62450000Y-93925000D01*
X62450000Y-94650000D01*
X63525000Y-94650000D01*
X63525000Y-93925000D01*
X63524999Y-93924999D01*
X63518436Y-93925000D01*
X63518417Y-93925001D01*
X63447897Y-93931408D01*
X63447892Y-93931409D01*
X63285603Y-93981981D01*
X63140122Y-94069927D01*
X63140121Y-94069928D01*
X63075181Y-94134869D01*
X63013858Y-94168354D01*
X62944166Y-94163370D01*
X62899819Y-94134869D01*
X62834877Y-94069927D01*
X62689395Y-93981980D01*
X62689396Y-93981980D01*
X62527105Y-93931409D01*
X62527106Y-93931409D01*
X62456572Y-93925000D01*
X62450000Y-93925000D01*
X61950000Y-93925000D01*
X61949999Y-93924999D01*
X61943436Y-93925000D01*
X61943417Y-93925001D01*
X61872897Y-93931408D01*
X61872892Y-93931409D01*
X61710601Y-93981981D01*
X61710599Y-93981982D01*
X61654952Y-94015622D01*
X61587397Y-94033458D01*
X61520924Y-94011940D01*
X61476636Y-93957899D01*
X61468596Y-93888493D01*
X61499356Y-93825759D01*
X61503099Y-93821846D01*
X61568081Y-93756865D01*
X61651744Y-93615398D01*
X61697598Y-93457569D01*
X61700500Y-93420694D01*
X61700500Y-92989306D01*
X61697598Y-92952431D01*
X61689704Y-92925261D01*
X61659177Y-92820185D01*
X61651744Y-92794602D01*
X61568081Y-92653135D01*
X61568078Y-92653132D01*
X61563298Y-92646969D01*
X61565750Y-92645066D01*
X61539155Y-92596421D01*
X61544104Y-92526726D01*
X61564940Y-92494304D01*
X61563298Y-92493031D01*
X61568075Y-92486870D01*
X61568081Y-92486865D01*
X61651744Y-92345398D01*
X61697598Y-92187569D01*
X61700500Y-92150694D01*
X61700500Y-91719306D01*
X61697598Y-91682431D01*
X61684098Y-91635965D01*
X61651745Y-91524606D01*
X61651744Y-91524603D01*
X61651744Y-91524602D01*
X61568081Y-91383135D01*
X61568078Y-91383132D01*
X61563298Y-91376969D01*
X61565750Y-91375066D01*
X61539155Y-91326421D01*
X61544104Y-91256726D01*
X61564940Y-91224304D01*
X61563298Y-91223031D01*
X61568075Y-91216870D01*
X61568081Y-91216865D01*
X61651744Y-91075398D01*
X61697598Y-90917569D01*
X61700500Y-90880694D01*
X61700500Y-90449306D01*
X61697598Y-90412431D01*
X61695183Y-90404120D01*
X61651745Y-90254606D01*
X61651744Y-90254603D01*
X61651744Y-90254602D01*
X61568081Y-90113135D01*
X61568078Y-90113132D01*
X61563298Y-90106969D01*
X61565635Y-90105155D01*
X61538798Y-90056050D01*
X61543756Y-89986356D01*
X61564554Y-89953998D01*
X61562903Y-89952717D01*
X61567686Y-89946550D01*
X61651281Y-89805198D01*
X61697100Y-89647486D01*
X61697295Y-89645001D01*
X61697295Y-89645000D01*
X58752705Y-89645000D01*
X58752704Y-89645001D01*
X58752899Y-89647486D01*
X58798718Y-89805198D01*
X58826621Y-89852379D01*
X58843804Y-89920103D01*
X58821644Y-89986365D01*
X58767178Y-90030129D01*
X58719889Y-90039500D01*
X58095452Y-90039500D01*
X58028413Y-90019815D01*
X58007771Y-90003181D01*
X57183888Y-89179298D01*
X63699500Y-89179298D01*
X63699500Y-89610701D01*
X63702401Y-89647567D01*
X63702402Y-89647573D01*
X63748254Y-89805393D01*
X63748255Y-89805396D01*
X63831917Y-89946862D01*
X63836702Y-89953031D01*
X63834256Y-89954927D01*
X63860857Y-90003642D01*
X63855873Y-90073334D01*
X63835069Y-90105703D01*
X63836702Y-90106969D01*
X63831917Y-90113137D01*
X63748255Y-90254603D01*
X63748254Y-90254606D01*
X63702402Y-90412426D01*
X63702401Y-90412432D01*
X63699500Y-90449298D01*
X63699500Y-90880701D01*
X63702401Y-90917567D01*
X63702402Y-90917573D01*
X63748254Y-91075393D01*
X63748255Y-91075396D01*
X63748256Y-91075398D01*
X63768721Y-91110003D01*
X63831917Y-91216862D01*
X63836702Y-91223031D01*
X63834256Y-91224927D01*
X63860857Y-91273642D01*
X63855873Y-91343334D01*
X63835069Y-91375703D01*
X63836702Y-91376969D01*
X63831917Y-91383137D01*
X63748255Y-91524603D01*
X63748254Y-91524606D01*
X63702402Y-91682426D01*
X63702401Y-91682432D01*
X63699500Y-91719298D01*
X63699500Y-92150701D01*
X63702401Y-92187567D01*
X63702402Y-92187573D01*
X63748254Y-92345393D01*
X63748255Y-92345396D01*
X63748256Y-92345398D01*
X63767701Y-92378277D01*
X63831917Y-92486862D01*
X63836702Y-92493031D01*
X63834256Y-92494927D01*
X63860857Y-92543642D01*
X63855873Y-92613334D01*
X63835069Y-92645703D01*
X63836702Y-92646969D01*
X63831917Y-92653137D01*
X63748255Y-92794603D01*
X63748254Y-92794606D01*
X63702402Y-92952426D01*
X63702401Y-92952432D01*
X63699500Y-92989298D01*
X63699500Y-93420701D01*
X63702401Y-93457567D01*
X63702402Y-93457573D01*
X63748254Y-93615393D01*
X63748255Y-93615396D01*
X63748256Y-93615398D01*
X63777700Y-93665185D01*
X63831917Y-93756862D01*
X63831923Y-93756870D01*
X63948129Y-93873076D01*
X63948132Y-93873078D01*
X63948135Y-93873081D01*
X63964120Y-93882535D01*
X64011804Y-93933603D01*
X64025000Y-93989267D01*
X64025000Y-95874999D01*
X64031581Y-95874999D01*
X64102102Y-95868591D01*
X64102107Y-95868590D01*
X64264396Y-95818018D01*
X64409877Y-95730072D01*
X64409878Y-95730071D01*
X64511963Y-95627985D01*
X64573286Y-95594499D01*
X64642977Y-95599483D01*
X64687326Y-95627984D01*
X64789811Y-95730469D01*
X64789813Y-95730470D01*
X64789815Y-95730472D01*
X64935394Y-95818478D01*
X65097804Y-95869086D01*
X65168384Y-95875500D01*
X65168387Y-95875500D01*
X65681613Y-95875500D01*
X65681616Y-95875500D01*
X65752196Y-95869086D01*
X65914606Y-95818478D01*
X65914612Y-95818474D01*
X65918577Y-95816690D01*
X65921749Y-95816251D01*
X65921767Y-95816246D01*
X65921767Y-95816248D01*
X65987789Y-95807123D01*
X66051185Y-95836493D01*
X66088639Y-95895476D01*
X66088259Y-95965345D01*
X66087180Y-95968766D01*
X66034651Y-96127288D01*
X66024500Y-96226647D01*
X66024500Y-96773337D01*
X66024501Y-96773355D01*
X66034650Y-96872707D01*
X66034651Y-96872710D01*
X66087996Y-97033694D01*
X66088001Y-97033705D01*
X66177029Y-97178040D01*
X66177032Y-97178044D01*
X66217499Y-97218511D01*
X66250984Y-97279834D01*
X66250770Y-97322640D01*
X66252411Y-97322825D01*
X66231435Y-97508996D01*
X66231435Y-97509003D01*
X66251630Y-97688249D01*
X66251631Y-97688254D01*
X66311211Y-97858523D01*
X66407184Y-98011262D01*
X66534738Y-98138816D01*
X66687478Y-98234789D01*
X66857745Y-98294368D01*
X66857750Y-98294369D01*
X67036996Y-98314565D01*
X67037000Y-98314565D01*
X67037004Y-98314565D01*
X67216249Y-98294369D01*
X67216252Y-98294368D01*
X67216255Y-98294368D01*
X67386522Y-98234789D01*
X67539262Y-98138816D01*
X67666816Y-98011262D01*
X67762789Y-97858522D01*
X67822368Y-97688255D01*
X67842565Y-97509000D01*
X67842565Y-97508996D01*
X67822369Y-97329748D01*
X67822368Y-97329745D01*
X67808229Y-97289341D01*
X67804667Y-97219564D01*
X67819733Y-97183290D01*
X67911998Y-97033705D01*
X67911997Y-97033705D01*
X67912003Y-97033697D01*
X67965349Y-96872708D01*
X67975500Y-96773345D01*
X67975499Y-96226656D01*
X67965349Y-96127292D01*
X67939748Y-96050035D01*
X67937347Y-95980208D01*
X67973079Y-95920166D01*
X68035599Y-95888973D01*
X68105059Y-95896534D01*
X68121599Y-95904912D01*
X68185394Y-95943478D01*
X68347804Y-95994086D01*
X68418384Y-96000500D01*
X68418387Y-96000500D01*
X68931613Y-96000500D01*
X68931616Y-96000500D01*
X69002196Y-95994086D01*
X69164606Y-95943478D01*
X69310185Y-95855472D01*
X69358534Y-95807123D01*
X69412319Y-95753339D01*
X69473642Y-95719854D01*
X69543334Y-95724838D01*
X69587681Y-95753339D01*
X69689811Y-95855469D01*
X69689813Y-95855470D01*
X69689815Y-95855472D01*
X69835394Y-95943478D01*
X69997804Y-95994086D01*
X70068384Y-96000500D01*
X70068387Y-96000500D01*
X70581613Y-96000500D01*
X70581616Y-96000500D01*
X70652196Y-95994086D01*
X70814606Y-95943478D01*
X70928011Y-95874921D01*
X70995564Y-95857086D01*
X71042593Y-95867758D01*
X71050197Y-95871144D01*
X71235354Y-95910500D01*
X71235355Y-95910500D01*
X71424644Y-95910500D01*
X71424646Y-95910500D01*
X71609803Y-95871144D01*
X71782730Y-95794151D01*
X71935871Y-95682888D01*
X72062533Y-95542216D01*
X72157179Y-95378284D01*
X72215674Y-95198256D01*
X72235460Y-95010000D01*
X72215674Y-94821744D01*
X72157179Y-94641716D01*
X72062533Y-94477784D01*
X71935871Y-94337112D01*
X71935870Y-94337111D01*
X71782734Y-94225851D01*
X71782729Y-94225848D01*
X71609807Y-94148857D01*
X71609802Y-94148855D01*
X71464001Y-94117865D01*
X71424646Y-94109500D01*
X71235354Y-94109500D01*
X71195999Y-94117865D01*
X71050198Y-94148855D01*
X71050193Y-94148857D01*
X71014016Y-94164964D01*
X70944766Y-94174248D01*
X70899433Y-94157801D01*
X70814608Y-94106523D01*
X70814607Y-94106522D01*
X70814606Y-94106522D01*
X70652196Y-94055914D01*
X70652194Y-94055913D01*
X70652192Y-94055913D01*
X70602778Y-94051423D01*
X70581616Y-94049500D01*
X70068384Y-94049500D01*
X70049145Y-94051248D01*
X69997807Y-94055913D01*
X69835393Y-94106522D01*
X69689811Y-94194530D01*
X69689810Y-94194531D01*
X69587681Y-94296661D01*
X69526358Y-94330146D01*
X69456666Y-94325162D01*
X69412319Y-94296661D01*
X69310188Y-94194530D01*
X69304853Y-94191305D01*
X69164606Y-94106522D01*
X69002196Y-94055914D01*
X69002194Y-94055913D01*
X69002192Y-94055913D01*
X68952778Y-94051423D01*
X68931616Y-94049500D01*
X68418384Y-94049500D01*
X68399145Y-94051248D01*
X68347807Y-94055913D01*
X68185393Y-94106522D01*
X68039811Y-94194530D01*
X68039810Y-94194531D01*
X67980358Y-94253984D01*
X67919035Y-94287469D01*
X67849343Y-94282485D01*
X67804996Y-94253984D01*
X67703044Y-94152032D01*
X67703040Y-94152029D01*
X67558705Y-94063001D01*
X67558699Y-94062998D01*
X67558697Y-94062997D01*
X67537319Y-94055913D01*
X67397709Y-94009651D01*
X67298346Y-93999500D01*
X66701662Y-93999500D01*
X66701644Y-93999501D01*
X66602292Y-94009650D01*
X66602282Y-94009652D01*
X66594921Y-94012092D01*
X66525093Y-94014490D01*
X66465053Y-93978755D01*
X66433864Y-93916233D01*
X66441428Y-93846774D01*
X66468244Y-93806702D01*
X66518076Y-93756870D01*
X66518081Y-93756865D01*
X66601744Y-93615398D01*
X66647598Y-93457569D01*
X66650500Y-93420694D01*
X66650500Y-93034500D01*
X66670185Y-92967461D01*
X66722989Y-92921706D01*
X66774500Y-92910500D01*
X66924644Y-92910500D01*
X66924646Y-92910500D01*
X67109803Y-92871144D01*
X67247135Y-92809999D01*
X74344341Y-92809999D01*
X74344341Y-92810000D01*
X74364936Y-93045403D01*
X74364938Y-93045413D01*
X74426094Y-93273655D01*
X74426096Y-93273659D01*
X74426097Y-93273663D01*
X74463325Y-93353498D01*
X74525965Y-93487830D01*
X74525967Y-93487834D01*
X74604157Y-93599500D01*
X74661501Y-93681396D01*
X74661506Y-93681402D01*
X74783430Y-93803326D01*
X74816915Y-93864649D01*
X74811931Y-93934341D01*
X74770059Y-93990274D01*
X74739083Y-94007189D01*
X74607669Y-94056203D01*
X74607664Y-94056206D01*
X74492455Y-94142452D01*
X74492452Y-94142455D01*
X74406206Y-94257664D01*
X74406202Y-94257671D01*
X74355908Y-94392517D01*
X74349501Y-94452116D01*
X74349501Y-94452123D01*
X74349500Y-94452135D01*
X74349500Y-96247870D01*
X74349501Y-96247876D01*
X74355908Y-96307483D01*
X74406202Y-96442328D01*
X74406206Y-96442335D01*
X74492452Y-96557544D01*
X74492455Y-96557547D01*
X74607664Y-96643793D01*
X74607671Y-96643797D01*
X74742517Y-96694091D01*
X74742516Y-96694091D01*
X74749444Y-96694835D01*
X74802127Y-96700500D01*
X76597872Y-96700499D01*
X76657483Y-96694091D01*
X76792331Y-96643796D01*
X76907546Y-96557546D01*
X76993796Y-96442331D01*
X77044091Y-96307483D01*
X77050500Y-96247873D01*
X77050499Y-94452128D01*
X77044091Y-94392517D01*
X77043653Y-94391344D01*
X76993797Y-94257671D01*
X76993793Y-94257664D01*
X76907547Y-94142455D01*
X76907544Y-94142452D01*
X76792335Y-94056206D01*
X76792328Y-94056202D01*
X76660917Y-94007189D01*
X76604983Y-93965318D01*
X76580566Y-93899853D01*
X76595418Y-93831580D01*
X76616563Y-93803332D01*
X76738495Y-93681401D01*
X76874035Y-93487830D01*
X76973903Y-93273663D01*
X77035063Y-93045408D01*
X77055659Y-92810000D01*
X77035063Y-92574592D01*
X76973903Y-92346337D01*
X76874035Y-92132171D01*
X76865643Y-92120185D01*
X76738494Y-91938597D01*
X76571402Y-91771506D01*
X76571395Y-91771501D01*
X76377834Y-91635967D01*
X76377830Y-91635965D01*
X76326999Y-91612262D01*
X76163663Y-91536097D01*
X76163659Y-91536096D01*
X76163655Y-91536094D01*
X75935413Y-91474938D01*
X75935403Y-91474936D01*
X75700001Y-91454341D01*
X75699999Y-91454341D01*
X75464596Y-91474936D01*
X75464586Y-91474938D01*
X75236344Y-91536094D01*
X75236335Y-91536098D01*
X75022171Y-91635964D01*
X75022169Y-91635965D01*
X74828597Y-91771505D01*
X74661505Y-91938597D01*
X74525965Y-92132169D01*
X74525964Y-92132171D01*
X74426098Y-92346335D01*
X74426094Y-92346344D01*
X74364938Y-92574586D01*
X74364936Y-92574596D01*
X74344341Y-92809999D01*
X67247135Y-92809999D01*
X67282730Y-92794151D01*
X67435871Y-92682888D01*
X67562533Y-92542216D01*
X67657179Y-92378284D01*
X67715674Y-92198256D01*
X67735460Y-92010000D01*
X67715674Y-91821744D01*
X67657179Y-91641716D01*
X67562533Y-91477784D01*
X67435871Y-91337112D01*
X67435870Y-91337111D01*
X67282734Y-91225851D01*
X67282729Y-91225848D01*
X67109807Y-91148857D01*
X67109802Y-91148855D01*
X66927012Y-91110003D01*
X66924646Y-91109500D01*
X66828497Y-91109500D01*
X66761458Y-91089815D01*
X66715703Y-91037011D01*
X66705759Y-90967853D01*
X66713936Y-90938047D01*
X66714262Y-90937259D01*
X66751462Y-90847452D01*
X66752032Y-90844582D01*
X66752745Y-90843218D01*
X66753230Y-90841623D01*
X66753532Y-90841714D01*
X66784411Y-90782669D01*
X66785972Y-90781080D01*
X66899005Y-90668050D01*
X66960329Y-90634565D01*
X66986685Y-90631732D01*
X67045876Y-90631732D01*
X67045878Y-90631732D01*
X67231035Y-90592376D01*
X67403962Y-90515383D01*
X67557103Y-90404120D01*
X67683765Y-90263448D01*
X67778411Y-90099516D01*
X67836906Y-89919488D01*
X67856692Y-89731232D01*
X67836906Y-89542976D01*
X67778411Y-89362948D01*
X67683765Y-89199016D01*
X67557103Y-89058344D01*
X67557102Y-89058343D01*
X67403966Y-88947083D01*
X67403961Y-88947080D01*
X67231039Y-88870089D01*
X67231034Y-88870087D01*
X67076270Y-88837192D01*
X67045878Y-88830732D01*
X66856586Y-88830732D01*
X66826194Y-88837192D01*
X66671429Y-88870087D01*
X66671427Y-88870088D01*
X66661806Y-88874372D01*
X66592556Y-88883655D01*
X66529280Y-88854025D01*
X66523926Y-88848322D01*
X66523598Y-88848651D01*
X66401870Y-88726923D01*
X66401862Y-88726917D01*
X66373257Y-88710000D01*
X69124540Y-88710000D01*
X69144326Y-88898256D01*
X69144327Y-88898259D01*
X69202818Y-89078277D01*
X69202821Y-89078284D01*
X69297467Y-89242216D01*
X69389196Y-89344091D01*
X69424129Y-89382888D01*
X69577265Y-89494148D01*
X69577270Y-89494151D01*
X69750192Y-89571142D01*
X69750197Y-89571144D01*
X69935354Y-89610500D01*
X69935355Y-89610500D01*
X70124644Y-89610500D01*
X70124646Y-89610500D01*
X70309803Y-89571144D01*
X70482730Y-89494151D01*
X70635871Y-89382888D01*
X70762533Y-89242216D01*
X70857179Y-89078284D01*
X70915674Y-88898256D01*
X70935460Y-88710000D01*
X70935460Y-88709997D01*
X70935460Y-88705136D01*
X70955145Y-88638097D01*
X70971779Y-88617455D01*
X71055830Y-88533404D01*
X71435520Y-88153716D01*
X71514577Y-88016784D01*
X71537377Y-87931692D01*
X71573741Y-87872034D01*
X71592042Y-87858257D01*
X71633044Y-87832968D01*
X71642319Y-87823693D01*
X71703642Y-87790208D01*
X71773334Y-87795192D01*
X71817681Y-87823693D01*
X71826955Y-87832967D01*
X71826959Y-87832970D01*
X71971294Y-87921998D01*
X71971297Y-87921999D01*
X71971303Y-87922003D01*
X72132292Y-87975349D01*
X72231655Y-87985500D01*
X72778344Y-87985499D01*
X72778352Y-87985498D01*
X72778355Y-87985498D01*
X72832760Y-87979940D01*
X72877708Y-87975349D01*
X73038697Y-87922003D01*
X73165438Y-87843827D01*
X73232829Y-87825387D01*
X73273363Y-87835037D01*
X73273905Y-87833489D01*
X73450737Y-87895366D01*
X73450743Y-87895367D01*
X73450745Y-87895368D01*
X73450746Y-87895368D01*
X73450750Y-87895369D01*
X73629996Y-87915565D01*
X73630000Y-87915565D01*
X73630004Y-87915565D01*
X73809249Y-87895369D01*
X73809252Y-87895368D01*
X73809255Y-87895368D01*
X73979522Y-87835789D01*
X74108883Y-87754505D01*
X74174855Y-87735500D01*
X74225500Y-87735500D01*
X74292539Y-87755185D01*
X74338294Y-87807989D01*
X74349500Y-87859500D01*
X74349500Y-88897870D01*
X74349501Y-88897876D01*
X74355908Y-88957483D01*
X74406202Y-89092328D01*
X74406206Y-89092335D01*
X74492452Y-89207544D01*
X74492455Y-89207547D01*
X74607664Y-89293793D01*
X74607671Y-89293797D01*
X74742517Y-89344091D01*
X74742516Y-89344091D01*
X74749444Y-89344835D01*
X74802127Y-89350500D01*
X76597872Y-89350499D01*
X76657483Y-89344091D01*
X76792331Y-89293796D01*
X76907546Y-89207546D01*
X76993796Y-89092331D01*
X77044091Y-88957483D01*
X77050500Y-88897873D01*
X77050499Y-87102128D01*
X77044091Y-87042517D01*
X77035353Y-87019090D01*
X76993797Y-86907671D01*
X76993793Y-86907664D01*
X76907547Y-86792455D01*
X76907544Y-86792452D01*
X76792335Y-86706206D01*
X76792328Y-86706202D01*
X76660917Y-86657189D01*
X76604983Y-86615318D01*
X76580566Y-86549853D01*
X76595418Y-86481580D01*
X76616563Y-86453332D01*
X76738495Y-86331401D01*
X76874035Y-86137830D01*
X76973903Y-85923663D01*
X77035063Y-85695408D01*
X77055659Y-85460000D01*
X77035063Y-85224592D01*
X76973903Y-84996337D01*
X76874035Y-84782171D01*
X76872386Y-84779815D01*
X76738494Y-84588597D01*
X76571402Y-84421506D01*
X76571401Y-84421505D01*
X76385405Y-84291269D01*
X76341781Y-84236692D01*
X76334588Y-84167193D01*
X76366110Y-84104839D01*
X76385405Y-84088119D01*
X76571082Y-83958105D01*
X76738105Y-83791082D01*
X76873600Y-83597578D01*
X76973429Y-83383492D01*
X76973432Y-83383486D01*
X77030636Y-83170000D01*
X76133012Y-83170000D01*
X76165925Y-83112993D01*
X76200000Y-82985826D01*
X76200000Y-82854174D01*
X76165925Y-82727007D01*
X76133012Y-82670000D01*
X77030636Y-82670000D01*
X77030635Y-82669999D01*
X76973432Y-82456513D01*
X76973429Y-82456507D01*
X76873600Y-82242422D01*
X76873599Y-82242420D01*
X76738113Y-82048926D01*
X76738108Y-82048920D01*
X76571082Y-81881894D01*
X76377578Y-81746399D01*
X76163492Y-81646570D01*
X76163486Y-81646567D01*
X75950000Y-81589364D01*
X75950000Y-82486988D01*
X75892993Y-82454075D01*
X75765826Y-82420000D01*
X75634174Y-82420000D01*
X75507007Y-82454075D01*
X75450000Y-82486988D01*
X75450000Y-81589364D01*
X75449999Y-81589364D01*
X75236513Y-81646567D01*
X75236507Y-81646570D01*
X75022422Y-81746399D01*
X75022420Y-81746400D01*
X74828926Y-81881886D01*
X74828920Y-81881891D01*
X74661891Y-82048920D01*
X74661886Y-82048926D01*
X74526400Y-82242420D01*
X74526399Y-82242422D01*
X74426570Y-82456507D01*
X74426567Y-82456513D01*
X74369364Y-82669999D01*
X74369364Y-82670000D01*
X75266988Y-82670000D01*
X75234075Y-82727007D01*
X75200000Y-82854174D01*
X75200000Y-82985826D01*
X75234075Y-83112993D01*
X75266988Y-83170000D01*
X74369364Y-83170000D01*
X74426567Y-83383486D01*
X74426570Y-83383492D01*
X74526399Y-83597578D01*
X74661894Y-83791082D01*
X74828917Y-83958105D01*
X75014595Y-84088119D01*
X75058219Y-84142696D01*
X75065412Y-84212195D01*
X75033890Y-84274549D01*
X75014595Y-84291269D01*
X74828594Y-84421508D01*
X74661506Y-84588596D01*
X74550856Y-84746623D01*
X74496279Y-84790248D01*
X74449281Y-84799500D01*
X73416715Y-84799500D01*
X73349676Y-84779815D01*
X73310598Y-84739650D01*
X73280472Y-84689815D01*
X73280470Y-84689813D01*
X73280469Y-84689811D01*
X73160188Y-84569530D01*
X73153723Y-84565622D01*
X73014606Y-84481522D01*
X72852196Y-84430914D01*
X72852194Y-84430913D01*
X72852192Y-84430913D01*
X72802778Y-84426423D01*
X72781616Y-84424500D01*
X72268384Y-84424500D01*
X72249145Y-84426248D01*
X72197807Y-84430913D01*
X72035393Y-84481522D01*
X71889811Y-84569530D01*
X71889810Y-84569531D01*
X71787681Y-84671661D01*
X71726358Y-84705146D01*
X71656666Y-84700162D01*
X71612319Y-84671661D01*
X71510188Y-84569530D01*
X71503723Y-84565622D01*
X71364606Y-84481522D01*
X71202196Y-84430914D01*
X71202194Y-84430913D01*
X71202192Y-84430913D01*
X71152778Y-84426423D01*
X71131616Y-84424500D01*
X70618384Y-84424500D01*
X70599145Y-84426248D01*
X70547807Y-84430913D01*
X70385393Y-84481522D01*
X70239811Y-84569530D01*
X70119530Y-84689811D01*
X70031522Y-84835393D01*
X69980913Y-84997807D01*
X69974500Y-85068386D01*
X69974500Y-85731613D01*
X69980913Y-85802192D01*
X69980913Y-85802194D01*
X69980914Y-85802196D01*
X69998250Y-85857830D01*
X70031522Y-85964606D01*
X70119530Y-86110188D01*
X70149327Y-86139985D01*
X70182812Y-86201308D01*
X70177828Y-86271000D01*
X70158919Y-86304568D01*
X70157032Y-86306953D01*
X70068001Y-86451294D01*
X70067996Y-86451305D01*
X70014651Y-86612290D01*
X70004500Y-86711647D01*
X70004500Y-87308337D01*
X70004501Y-87308355D01*
X70014650Y-87407707D01*
X70014651Y-87407710D01*
X70067996Y-87568694D01*
X70067998Y-87568699D01*
X70099890Y-87620403D01*
X70118330Y-87687796D01*
X70097407Y-87754459D01*
X70043765Y-87799229D01*
X69994351Y-87809500D01*
X69935354Y-87809500D01*
X69902897Y-87816398D01*
X69750197Y-87848855D01*
X69750192Y-87848857D01*
X69577270Y-87925848D01*
X69577265Y-87925851D01*
X69424129Y-88037111D01*
X69297466Y-88177785D01*
X69202821Y-88341715D01*
X69202818Y-88341722D01*
X69154882Y-88489255D01*
X69144326Y-88521744D01*
X69124540Y-88710000D01*
X66373257Y-88710000D01*
X66280532Y-88655163D01*
X66260398Y-88643256D01*
X66260397Y-88643255D01*
X66260396Y-88643255D01*
X66260395Y-88643254D01*
X66106654Y-88598588D01*
X66047769Y-88560982D01*
X66018563Y-88497509D01*
X66018030Y-88465628D01*
X66018062Y-88465349D01*
X66031991Y-88341722D01*
X66035565Y-88310002D01*
X66035565Y-88309996D01*
X66015369Y-88130750D01*
X66015368Y-88130745D01*
X65990157Y-88058697D01*
X65955789Y-87960478D01*
X65940501Y-87936148D01*
X65899502Y-87870898D01*
X65859816Y-87807738D01*
X65732262Y-87680184D01*
X65579523Y-87584211D01*
X65409254Y-87524631D01*
X65409249Y-87524630D01*
X65230004Y-87504435D01*
X65229996Y-87504435D01*
X65050750Y-87524630D01*
X65050745Y-87524631D01*
X64880476Y-87584211D01*
X64727737Y-87680184D01*
X64600184Y-87807737D01*
X64504211Y-87960476D01*
X64444631Y-88130745D01*
X64444630Y-88130750D01*
X64424435Y-88309996D01*
X64424435Y-88310003D01*
X64440954Y-88456617D01*
X64428899Y-88525439D01*
X64381550Y-88576818D01*
X64317734Y-88594500D01*
X64284298Y-88594500D01*
X64247432Y-88597401D01*
X64247426Y-88597402D01*
X64089606Y-88643254D01*
X64089603Y-88643255D01*
X63948137Y-88726917D01*
X63948129Y-88726923D01*
X63831923Y-88843129D01*
X63831917Y-88843137D01*
X63748255Y-88984603D01*
X63748254Y-88984606D01*
X63702402Y-89142426D01*
X63702401Y-89142432D01*
X63699500Y-89179298D01*
X57183888Y-89179298D01*
X57149588Y-89144998D01*
X58752704Y-89144998D01*
X58752705Y-89145000D01*
X61697295Y-89145000D01*
X61697295Y-89144998D01*
X61697100Y-89142513D01*
X61651281Y-88984801D01*
X61567685Y-88843447D01*
X61567678Y-88843438D01*
X61451561Y-88727321D01*
X61451555Y-88727316D01*
X61415902Y-88706232D01*
X61368218Y-88655163D01*
X61355714Y-88586421D01*
X61382359Y-88521832D01*
X61439694Y-88481901D01*
X61479021Y-88475499D01*
X61548344Y-88475499D01*
X61548352Y-88475498D01*
X61548355Y-88475498D01*
X61602760Y-88469940D01*
X61647708Y-88465349D01*
X61808697Y-88412003D01*
X61953044Y-88322968D01*
X62072968Y-88203044D01*
X62086168Y-88181642D01*
X62138113Y-88134920D01*
X62207075Y-88123696D01*
X62271158Y-88151538D01*
X62279387Y-88159059D01*
X62294608Y-88174280D01*
X62294612Y-88174283D01*
X62437704Y-88262544D01*
X62437707Y-88262545D01*
X62437713Y-88262549D01*
X62597315Y-88315436D01*
X62695826Y-88325500D01*
X62695831Y-88325500D01*
X63304169Y-88325500D01*
X63304174Y-88325500D01*
X63402685Y-88315436D01*
X63562287Y-88262549D01*
X63705391Y-88174281D01*
X63824281Y-88055391D01*
X63912549Y-87912287D01*
X63965436Y-87752685D01*
X63975500Y-87654174D01*
X63975618Y-87653019D01*
X64002014Y-87588327D01*
X64011294Y-87577941D01*
X64048533Y-87540701D01*
X64109855Y-87507215D01*
X64122311Y-87505163D01*
X64209255Y-87495368D01*
X64379522Y-87435789D01*
X64532262Y-87339816D01*
X64659816Y-87212262D01*
X64755789Y-87059522D01*
X64815368Y-86889255D01*
X64816593Y-86878384D01*
X64835565Y-86710003D01*
X64835565Y-86709996D01*
X64815369Y-86530750D01*
X64815368Y-86530745D01*
X64792151Y-86464396D01*
X64755789Y-86360478D01*
X64752713Y-86355583D01*
X64680662Y-86240914D01*
X64659816Y-86207738D01*
X64532262Y-86080184D01*
X64379523Y-85984211D01*
X64209254Y-85924631D01*
X64209250Y-85924630D01*
X64085616Y-85910700D01*
X64021202Y-85883633D01*
X63981647Y-85826038D01*
X63975500Y-85787480D01*
X63975500Y-85545831D01*
X63975499Y-85545818D01*
X63965436Y-85447316D01*
X63965436Y-85447315D01*
X63912549Y-85287713D01*
X63912545Y-85287707D01*
X63912544Y-85287704D01*
X63824283Y-85144612D01*
X63824280Y-85144608D01*
X63705391Y-85025719D01*
X63705387Y-85025716D01*
X63562295Y-84937455D01*
X63562289Y-84937452D01*
X63562287Y-84937451D01*
X63402685Y-84884564D01*
X63402683Y-84884563D01*
X63304181Y-84874500D01*
X63304174Y-84874500D01*
X62695826Y-84874500D01*
X62695818Y-84874500D01*
X62597316Y-84884563D01*
X62597315Y-84884564D01*
X62518219Y-84910773D01*
X62437715Y-84937450D01*
X62437704Y-84937455D01*
X62294612Y-85025716D01*
X62294608Y-85025719D01*
X62205672Y-85114654D01*
X62144349Y-85148138D01*
X62074657Y-85143153D01*
X62030311Y-85114653D01*
X61985188Y-85069530D01*
X61983292Y-85068384D01*
X61839606Y-84981522D01*
X61677196Y-84930914D01*
X61677194Y-84930913D01*
X61677192Y-84930913D01*
X61627778Y-84926423D01*
X61606616Y-84924500D01*
X61093384Y-84924500D01*
X61074145Y-84926248D01*
X61022807Y-84930913D01*
X60860393Y-84981522D01*
X60714811Y-85069530D01*
X60714810Y-85069531D01*
X60612327Y-85172015D01*
X60551004Y-85205500D01*
X60481312Y-85200516D01*
X60436965Y-85172015D01*
X60334877Y-85069927D01*
X60189395Y-84981980D01*
X60189396Y-84981980D01*
X60027105Y-84931409D01*
X60027106Y-84931409D01*
X59956572Y-84925000D01*
X59950000Y-84925000D01*
X59950000Y-86404410D01*
X59972166Y-86445004D01*
X59975000Y-86471362D01*
X59975000Y-87376000D01*
X59955315Y-87443039D01*
X59902511Y-87488794D01*
X59851000Y-87500000D01*
X59725000Y-87500000D01*
X59725000Y-87626000D01*
X59705315Y-87693039D01*
X59652511Y-87738794D01*
X59601000Y-87750000D01*
X58775001Y-87750000D01*
X58775001Y-87798322D01*
X58785144Y-87897607D01*
X58838452Y-88058481D01*
X58838457Y-88058492D01*
X58927424Y-88202728D01*
X58927427Y-88202732D01*
X59047267Y-88322572D01*
X59047271Y-88322575D01*
X59193051Y-88412494D01*
X59239776Y-88464442D01*
X59250997Y-88533404D01*
X59223154Y-88597486D01*
X59165085Y-88636342D01*
X59162552Y-88637108D01*
X59139802Y-88643717D01*
X58998447Y-88727314D01*
X58998438Y-88727321D01*
X58882321Y-88843438D01*
X58882314Y-88843447D01*
X58798718Y-88984801D01*
X58752899Y-89142513D01*
X58752704Y-89144998D01*
X57149588Y-89144998D01*
X56641819Y-88637229D01*
X56608334Y-88575906D01*
X56605500Y-88549548D01*
X56605500Y-88253386D01*
X56600897Y-88202732D01*
X56599086Y-88182804D01*
X56548478Y-88020394D01*
X56467625Y-87886647D01*
X56449789Y-87819096D01*
X56467624Y-87758352D01*
X56548478Y-87624606D01*
X56599086Y-87462196D01*
X56605500Y-87391616D01*
X56605500Y-87201677D01*
X58775000Y-87201677D01*
X58775000Y-87250000D01*
X59475000Y-87250000D01*
X59475000Y-86995589D01*
X59452834Y-86954996D01*
X59450000Y-86928638D01*
X59450000Y-86150000D01*
X58800001Y-86150000D01*
X58800001Y-86231582D01*
X58806408Y-86302102D01*
X58806409Y-86302107D01*
X58856981Y-86464396D01*
X58944927Y-86609877D01*
X58949554Y-86615783D01*
X58947702Y-86617233D01*
X58975676Y-86668464D01*
X58970692Y-86738156D01*
X58942193Y-86782501D01*
X58927428Y-86797266D01*
X58927424Y-86797271D01*
X58838457Y-86941507D01*
X58838452Y-86941518D01*
X58785144Y-87102393D01*
X58775000Y-87201677D01*
X56605500Y-87201677D01*
X56605500Y-86878384D01*
X56599086Y-86807804D01*
X56548478Y-86645394D01*
X56460472Y-86499815D01*
X56460470Y-86499813D01*
X56460469Y-86499811D01*
X56357984Y-86397326D01*
X56324499Y-86336003D01*
X56329483Y-86266311D01*
X56357985Y-86221963D01*
X56460071Y-86119878D01*
X56460072Y-86119877D01*
X56548019Y-85974395D01*
X56598590Y-85812106D01*
X56605000Y-85741572D01*
X56605000Y-85735000D01*
X55754000Y-85735000D01*
X55686961Y-85715315D01*
X55641206Y-85662511D01*
X55630000Y-85611000D01*
X55630000Y-85568427D01*
X58800000Y-85568427D01*
X58800000Y-85650000D01*
X59450000Y-85650000D01*
X59450000Y-84925000D01*
X59449999Y-84924999D01*
X59443436Y-84925000D01*
X59443417Y-84925001D01*
X59372897Y-84931408D01*
X59372892Y-84931409D01*
X59210603Y-84981981D01*
X59065122Y-85069927D01*
X58944927Y-85190122D01*
X58856980Y-85335604D01*
X58806409Y-85497893D01*
X58800000Y-85568427D01*
X55630000Y-85568427D01*
X55630000Y-85485000D01*
X55504000Y-85485000D01*
X55436961Y-85465315D01*
X55391206Y-85412511D01*
X55380000Y-85361000D01*
X55380000Y-85235000D01*
X55880000Y-85235000D01*
X56604999Y-85235000D01*
X56604999Y-85228417D01*
X56598591Y-85157897D01*
X56598590Y-85157892D01*
X56548018Y-84995603D01*
X56460072Y-84850122D01*
X56339877Y-84729927D01*
X56194395Y-84641980D01*
X56194396Y-84641980D01*
X56032105Y-84591409D01*
X56032106Y-84591409D01*
X55961572Y-84585000D01*
X55880000Y-84585000D01*
X55880000Y-85235000D01*
X55380000Y-85235000D01*
X55380000Y-84585000D01*
X55379999Y-84584999D01*
X55298417Y-84585000D01*
X55227897Y-84591408D01*
X55227892Y-84591409D01*
X55065603Y-84641981D01*
X54920122Y-84729927D01*
X54799927Y-84850122D01*
X54711981Y-84995602D01*
X54698930Y-85037485D01*
X54660192Y-85095632D01*
X54596166Y-85123605D01*
X54527181Y-85112523D01*
X54492864Y-85088274D01*
X51635198Y-82230608D01*
X51635178Y-82230586D01*
X51543736Y-82139144D01*
X51543728Y-82139138D01*
X51463302Y-82085399D01*
X51463300Y-82085397D01*
X51463300Y-82085398D01*
X51441285Y-82070687D01*
X51401039Y-82054017D01*
X51360792Y-82037347D01*
X51327452Y-82023537D01*
X51327448Y-82023536D01*
X51327444Y-82023535D01*
X51225922Y-82003341D01*
X51225921Y-82003341D01*
X51206611Y-81999500D01*
X51206607Y-81999500D01*
X51206606Y-81999500D01*
X51049391Y-81999500D01*
X50982352Y-81979815D01*
X50936597Y-81927011D01*
X50926653Y-81857853D01*
X50955678Y-81794297D01*
X50983419Y-81770506D01*
X51032262Y-81739816D01*
X51062078Y-81710000D01*
X69424540Y-81710000D01*
X69444326Y-81898256D01*
X69444327Y-81898259D01*
X69502818Y-82078277D01*
X69502821Y-82078284D01*
X69597467Y-82242216D01*
X69724129Y-82382888D01*
X69877265Y-82494148D01*
X69877270Y-82494151D01*
X70050192Y-82571142D01*
X70050197Y-82571144D01*
X70235354Y-82610500D01*
X70235355Y-82610500D01*
X70424644Y-82610500D01*
X70424646Y-82610500D01*
X70609803Y-82571144D01*
X70782730Y-82494151D01*
X70935871Y-82382888D01*
X71062533Y-82242216D01*
X71157179Y-82078284D01*
X71215674Y-81898256D01*
X71235460Y-81710000D01*
X71235460Y-81709997D01*
X71235460Y-81709499D01*
X71235541Y-81709221D01*
X71236139Y-81703537D01*
X71237178Y-81703646D01*
X71255145Y-81642460D01*
X71307949Y-81596705D01*
X71359460Y-81585499D01*
X71603338Y-81585499D01*
X71603344Y-81585499D01*
X71603352Y-81585498D01*
X71603355Y-81585498D01*
X71657760Y-81579940D01*
X71702708Y-81575349D01*
X71863697Y-81522003D01*
X72008044Y-81432968D01*
X72017319Y-81423693D01*
X72078642Y-81390208D01*
X72148334Y-81395192D01*
X72192681Y-81423693D01*
X72201955Y-81432967D01*
X72201959Y-81432970D01*
X72346294Y-81521998D01*
X72346297Y-81521999D01*
X72346303Y-81522003D01*
X72507292Y-81575349D01*
X72606655Y-81585500D01*
X73153344Y-81585499D01*
X73153352Y-81585498D01*
X73153355Y-81585498D01*
X73207760Y-81579940D01*
X73252708Y-81575349D01*
X73413697Y-81522003D01*
X73558044Y-81432968D01*
X73677968Y-81313044D01*
X73702217Y-81273728D01*
X73754163Y-81227005D01*
X73783560Y-81217209D01*
X73812452Y-81211463D01*
X73853452Y-81194480D01*
X73926286Y-81164312D01*
X73988226Y-81122923D01*
X74043226Y-81102807D01*
X74109255Y-81095368D01*
X74279522Y-81035789D01*
X74408883Y-80954505D01*
X74474855Y-80935500D01*
X74676608Y-80935500D01*
X74676608Y-80935499D01*
X74758132Y-80919284D01*
X74758134Y-80919284D01*
X74797442Y-80911465D01*
X74797442Y-80911464D01*
X74797452Y-80911463D01*
X74830792Y-80897652D01*
X74911286Y-80864312D01*
X74962509Y-80830084D01*
X75013733Y-80795858D01*
X75100858Y-80708733D01*
X75100859Y-80708730D01*
X75197773Y-80611815D01*
X75259095Y-80578333D01*
X75285452Y-80575499D01*
X76597871Y-80575499D01*
X76597872Y-80575499D01*
X76657483Y-80569091D01*
X76792331Y-80518796D01*
X76907546Y-80432546D01*
X76993796Y-80317331D01*
X77044091Y-80182483D01*
X77050500Y-80122873D01*
X77050499Y-78327128D01*
X77044091Y-78267517D01*
X77023554Y-78212455D01*
X76993797Y-78132671D01*
X76993793Y-78132664D01*
X76907547Y-78017455D01*
X76907544Y-78017452D01*
X76792335Y-77931206D01*
X76792328Y-77931202D01*
X76660917Y-77882189D01*
X76604983Y-77840318D01*
X76580566Y-77774853D01*
X76595418Y-77706580D01*
X76616563Y-77678332D01*
X76738495Y-77556401D01*
X76874035Y-77362830D01*
X76973903Y-77148663D01*
X77035063Y-76920408D01*
X77055659Y-76685000D01*
X77035063Y-76449592D01*
X76973903Y-76221337D01*
X76874035Y-76007171D01*
X76785119Y-75880184D01*
X76738494Y-75813597D01*
X76571402Y-75646506D01*
X76571401Y-75646505D01*
X76385405Y-75516269D01*
X76341781Y-75461692D01*
X76334588Y-75392193D01*
X76366110Y-75329839D01*
X76385405Y-75313119D01*
X76571082Y-75183105D01*
X76738105Y-75016082D01*
X76873600Y-74822578D01*
X76973429Y-74608492D01*
X76973432Y-74608486D01*
X77030636Y-74395000D01*
X76133012Y-74395000D01*
X76165925Y-74337993D01*
X76200000Y-74210826D01*
X76200000Y-74079174D01*
X76165925Y-73952007D01*
X76133012Y-73895000D01*
X77030636Y-73895000D01*
X77030635Y-73894999D01*
X76973432Y-73681513D01*
X76973429Y-73681507D01*
X76873600Y-73467422D01*
X76873599Y-73467420D01*
X76738113Y-73273926D01*
X76738108Y-73273920D01*
X76571082Y-73106894D01*
X76377578Y-72971399D01*
X76163492Y-72871570D01*
X76163486Y-72871567D01*
X75950000Y-72814364D01*
X75950000Y-73711988D01*
X75892993Y-73679075D01*
X75765826Y-73645000D01*
X75634174Y-73645000D01*
X75507007Y-73679075D01*
X75450000Y-73711988D01*
X75450000Y-72814364D01*
X75449999Y-72814364D01*
X75236513Y-72871567D01*
X75236507Y-72871570D01*
X75022422Y-72971399D01*
X75022420Y-72971400D01*
X74828926Y-73106886D01*
X74828920Y-73106891D01*
X74661891Y-73273920D01*
X74661886Y-73273926D01*
X74526400Y-73467420D01*
X74526399Y-73467422D01*
X74426570Y-73681507D01*
X74426567Y-73681513D01*
X74369364Y-73894999D01*
X74369364Y-73895000D01*
X75266988Y-73895000D01*
X75234075Y-73952007D01*
X75200000Y-74079174D01*
X75200000Y-74210826D01*
X75234075Y-74337993D01*
X75266988Y-74395000D01*
X74369364Y-74395000D01*
X74426567Y-74608486D01*
X74426570Y-74608492D01*
X74526399Y-74822578D01*
X74661894Y-75016082D01*
X74828917Y-75183105D01*
X75014595Y-75313119D01*
X75058219Y-75367696D01*
X75065412Y-75437195D01*
X75033890Y-75499549D01*
X75014595Y-75516269D01*
X74828594Y-75646508D01*
X74661505Y-75813597D01*
X74525965Y-76007169D01*
X74525964Y-76007171D01*
X74426098Y-76221335D01*
X74426094Y-76221344D01*
X74364938Y-76449586D01*
X74364936Y-76449596D01*
X74344341Y-76684999D01*
X74344341Y-76685000D01*
X74364936Y-76920403D01*
X74364938Y-76920413D01*
X74399327Y-77048756D01*
X74397664Y-77118606D01*
X74367233Y-77168530D01*
X73490205Y-78045558D01*
X73428882Y-78079043D01*
X73365637Y-78076263D01*
X73252196Y-78040914D01*
X73252194Y-78040913D01*
X73252192Y-78040913D01*
X73202778Y-78036423D01*
X73181616Y-78034500D01*
X72668384Y-78034500D01*
X72649145Y-78036248D01*
X72597807Y-78040913D01*
X72435393Y-78091522D01*
X72289811Y-78179530D01*
X72289810Y-78179531D01*
X72187681Y-78281661D01*
X72126358Y-78315146D01*
X72056666Y-78310162D01*
X72012319Y-78281661D01*
X71910188Y-78179530D01*
X71877160Y-78159564D01*
X71764606Y-78091522D01*
X71602196Y-78040914D01*
X71602194Y-78040913D01*
X71602192Y-78040913D01*
X71552778Y-78036423D01*
X71531616Y-78034500D01*
X71018384Y-78034500D01*
X70999145Y-78036248D01*
X70947807Y-78040913D01*
X70785393Y-78091522D01*
X70639811Y-78179530D01*
X70519530Y-78299811D01*
X70431522Y-78445393D01*
X70380913Y-78607807D01*
X70375782Y-78664275D01*
X70374500Y-78678384D01*
X70374500Y-79341616D01*
X70376423Y-79362778D01*
X70380913Y-79412192D01*
X70380913Y-79412194D01*
X70380914Y-79412196D01*
X70431522Y-79574606D01*
X70519528Y-79720185D01*
X70531483Y-79732140D01*
X70564968Y-79793460D01*
X70559986Y-79863152D01*
X70535825Y-79900752D01*
X70536510Y-79901293D01*
X70532029Y-79906959D01*
X70443001Y-80051294D01*
X70442996Y-80051305D01*
X70389651Y-80212290D01*
X70379500Y-80311647D01*
X70379500Y-80624545D01*
X70359815Y-80691584D01*
X70343181Y-80712226D01*
X70274729Y-80780678D01*
X70213406Y-80814163D01*
X70212829Y-80814287D01*
X70050197Y-80848855D01*
X70050192Y-80848857D01*
X69877270Y-80925848D01*
X69877265Y-80925851D01*
X69724129Y-81037111D01*
X69597466Y-81177785D01*
X69502821Y-81341715D01*
X69502818Y-81341722D01*
X69446303Y-81515659D01*
X69444326Y-81521744D01*
X69424540Y-81710000D01*
X51062078Y-81710000D01*
X51159816Y-81612262D01*
X51255789Y-81459522D01*
X51315368Y-81289255D01*
X51315369Y-81289249D01*
X51335565Y-81110003D01*
X51335565Y-81109996D01*
X51315369Y-80930750D01*
X51315368Y-80930745D01*
X51280146Y-80830087D01*
X51255789Y-80760478D01*
X51249519Y-80750500D01*
X51178569Y-80637583D01*
X51159816Y-80607738D01*
X51032262Y-80480184D01*
X51019915Y-80472426D01*
X50879521Y-80384210D01*
X50709249Y-80324630D01*
X50622331Y-80314837D01*
X50557917Y-80287770D01*
X50548534Y-80279298D01*
X50547297Y-80278061D01*
X50513812Y-80216738D01*
X50518796Y-80147046D01*
X50560668Y-80091113D01*
X50598082Y-80071997D01*
X50689606Y-80043478D01*
X50835185Y-79955472D01*
X50937673Y-79852983D01*
X50998994Y-79819499D01*
X51068685Y-79824483D01*
X51113034Y-79852984D01*
X51215122Y-79955072D01*
X51360604Y-80043019D01*
X51360603Y-80043019D01*
X51522894Y-80093590D01*
X51522893Y-80093590D01*
X51593408Y-80099998D01*
X51593426Y-80099999D01*
X52100000Y-80099999D01*
X52106581Y-80099999D01*
X52177102Y-80093591D01*
X52177107Y-80093590D01*
X52339396Y-80043018D01*
X52484877Y-79955072D01*
X52605072Y-79834877D01*
X52693019Y-79689395D01*
X52743590Y-79527106D01*
X52750000Y-79456572D01*
X52750000Y-79375000D01*
X52100000Y-79375000D01*
X52100000Y-80099999D01*
X51593426Y-80099999D01*
X51599999Y-80099998D01*
X51600000Y-80099998D01*
X51600000Y-78875000D01*
X52100000Y-78875000D01*
X52749999Y-78875000D01*
X52749999Y-78793417D01*
X52743591Y-78722897D01*
X52743590Y-78722892D01*
X52693018Y-78560603D01*
X52605072Y-78415122D01*
X52484877Y-78294927D01*
X52339395Y-78206980D01*
X52339396Y-78206980D01*
X52177105Y-78156409D01*
X52177106Y-78156409D01*
X52106572Y-78150000D01*
X52100000Y-78150000D01*
X52100000Y-78875000D01*
X51600000Y-78875000D01*
X51600000Y-78150000D01*
X51599999Y-78149999D01*
X51593436Y-78150000D01*
X51593417Y-78150001D01*
X51522897Y-78156408D01*
X51522892Y-78156409D01*
X51360603Y-78206981D01*
X51215122Y-78294927D01*
X51215121Y-78294928D01*
X51113035Y-78397015D01*
X51051712Y-78430500D01*
X50982020Y-78425516D01*
X50937673Y-78397015D01*
X50835188Y-78294530D01*
X50790503Y-78267517D01*
X50689606Y-78206522D01*
X50527196Y-78155914D01*
X50527194Y-78155913D01*
X50527192Y-78155913D01*
X50477778Y-78151423D01*
X50456616Y-78149500D01*
X49943384Y-78149500D01*
X49924145Y-78151248D01*
X49872807Y-78155913D01*
X49710393Y-78206522D01*
X49564815Y-78294528D01*
X49557185Y-78302158D01*
X49495860Y-78335640D01*
X49426169Y-78330653D01*
X49386224Y-78304981D01*
X49386054Y-78305197D01*
X49383853Y-78303457D01*
X49381826Y-78302154D01*
X49380391Y-78300719D01*
X49380387Y-78300716D01*
X49237295Y-78212455D01*
X49237289Y-78212452D01*
X49237287Y-78212451D01*
X49077685Y-78159564D01*
X49077683Y-78159563D01*
X48979181Y-78149500D01*
X48979174Y-78149500D01*
X48445826Y-78149500D01*
X48445818Y-78149500D01*
X48347316Y-78159563D01*
X48347315Y-78159564D01*
X48287068Y-78179528D01*
X48187715Y-78212450D01*
X48187704Y-78212455D01*
X48044612Y-78300716D01*
X48044608Y-78300719D01*
X48012681Y-78332647D01*
X47951358Y-78366132D01*
X47881666Y-78361148D01*
X47837319Y-78332647D01*
X47805391Y-78300719D01*
X47805387Y-78300716D01*
X47662295Y-78212455D01*
X47662289Y-78212452D01*
X47662287Y-78212451D01*
X47502685Y-78159564D01*
X47502683Y-78159563D01*
X47404181Y-78149500D01*
X47404174Y-78149500D01*
X46870826Y-78149500D01*
X46870818Y-78149500D01*
X46772316Y-78159563D01*
X46772315Y-78159564D01*
X46712068Y-78179528D01*
X46612715Y-78212450D01*
X46612704Y-78212455D01*
X46469612Y-78300716D01*
X46463946Y-78305197D01*
X46461995Y-78302730D01*
X46412893Y-78329434D01*
X46343210Y-78324331D01*
X46303768Y-78298933D01*
X46303594Y-78299157D01*
X46301187Y-78297271D01*
X46299056Y-78295899D01*
X46297685Y-78294528D01*
X46152106Y-78206522D01*
X45989696Y-78155914D01*
X45989694Y-78155913D01*
X45989692Y-78155913D01*
X45940278Y-78151423D01*
X45919116Y-78149500D01*
X45405884Y-78149500D01*
X45386645Y-78151248D01*
X45335307Y-78155913D01*
X45172893Y-78206522D01*
X45027311Y-78294530D01*
X45027310Y-78294531D01*
X44925181Y-78396661D01*
X44863858Y-78430146D01*
X44794166Y-78425162D01*
X44749819Y-78396661D01*
X44647688Y-78294530D01*
X44603003Y-78267517D01*
X44502106Y-78206522D01*
X44339696Y-78155914D01*
X44339694Y-78155913D01*
X44339692Y-78155913D01*
X44290278Y-78151423D01*
X44269116Y-78149500D01*
X43755884Y-78149500D01*
X43736645Y-78151248D01*
X43685307Y-78155913D01*
X43522893Y-78206522D01*
X43377311Y-78294530D01*
X43257030Y-78414811D01*
X43169022Y-78560393D01*
X43118413Y-78722807D01*
X43112000Y-78793386D01*
X43112000Y-79225500D01*
X43092315Y-79292539D01*
X43039511Y-79338294D01*
X42988000Y-79349500D01*
X42174499Y-79349500D01*
X42107460Y-79329815D01*
X42061705Y-79277011D01*
X42050499Y-79225500D01*
X42050499Y-79202129D01*
X42050498Y-79202123D01*
X42050497Y-79202116D01*
X42044091Y-79142517D01*
X41993796Y-79007669D01*
X41993795Y-79007668D01*
X41993793Y-79007664D01*
X41907547Y-78892455D01*
X41907544Y-78892452D01*
X41792335Y-78806206D01*
X41792328Y-78806202D01*
X41657482Y-78755908D01*
X41657483Y-78755908D01*
X41597883Y-78749501D01*
X41597881Y-78749500D01*
X41597873Y-78749500D01*
X41597864Y-78749500D01*
X39802129Y-78749500D01*
X39802123Y-78749501D01*
X39742516Y-78755908D01*
X39607671Y-78806202D01*
X39607664Y-78806206D01*
X39492455Y-78892452D01*
X39492452Y-78892455D01*
X39406206Y-79007664D01*
X39406202Y-79007671D01*
X39355908Y-79142517D01*
X39349501Y-79202116D01*
X39349501Y-79202123D01*
X39349500Y-79202135D01*
X39349500Y-80997870D01*
X39349501Y-80997876D01*
X39355908Y-81057483D01*
X39406202Y-81192328D01*
X39406206Y-81192335D01*
X39492452Y-81307544D01*
X39492455Y-81307547D01*
X39607664Y-81393793D01*
X39607671Y-81393797D01*
X39739081Y-81442810D01*
X39795015Y-81484681D01*
X39819432Y-81550145D01*
X39804580Y-81618418D01*
X39783430Y-81646673D01*
X39661503Y-81768600D01*
X39525965Y-81962169D01*
X39525964Y-81962171D01*
X39426098Y-82176335D01*
X39426094Y-82176344D01*
X39364938Y-82404586D01*
X39364936Y-82404596D01*
X39344341Y-82639999D01*
X37930000Y-82639999D01*
X37930000Y-77134000D01*
X37949685Y-77066961D01*
X38002489Y-77021206D01*
X38054000Y-77010000D01*
X38246560Y-77010000D01*
X38313599Y-77029685D01*
X38334241Y-77046319D01*
X38427738Y-77139816D01*
X38580478Y-77235789D01*
X38750745Y-77295368D01*
X38750750Y-77295369D01*
X38929996Y-77315565D01*
X38930000Y-77315565D01*
X38930004Y-77315565D01*
X39109249Y-77295369D01*
X39109252Y-77295368D01*
X39109255Y-77295368D01*
X39279522Y-77235789D01*
X39432262Y-77139816D01*
X39525759Y-77046319D01*
X39587082Y-77012834D01*
X39613440Y-77010000D01*
X39946560Y-77010000D01*
X40013599Y-77029685D01*
X40034241Y-77046319D01*
X40127738Y-77139816D01*
X40280478Y-77235789D01*
X40450745Y-77295368D01*
X40450750Y-77295369D01*
X40629996Y-77315565D01*
X40630000Y-77315565D01*
X40630004Y-77315565D01*
X40809249Y-77295369D01*
X40809252Y-77295368D01*
X40809255Y-77295368D01*
X40979522Y-77235789D01*
X41132262Y-77139816D01*
X41225759Y-77046319D01*
X41287082Y-77012834D01*
X41313440Y-77010000D01*
X41746560Y-77010000D01*
X41813599Y-77029685D01*
X41834241Y-77046319D01*
X41927738Y-77139816D01*
X42080478Y-77235789D01*
X42250745Y-77295368D01*
X42250750Y-77295369D01*
X42429996Y-77315565D01*
X42430000Y-77315565D01*
X42430004Y-77315565D01*
X42609249Y-77295369D01*
X42609252Y-77295368D01*
X42609255Y-77295368D01*
X42779522Y-77235789D01*
X42932262Y-77139816D01*
X43025759Y-77046319D01*
X43087082Y-77012834D01*
X43113440Y-77010000D01*
X43246560Y-77010000D01*
X43313599Y-77029685D01*
X43334241Y-77046319D01*
X43427738Y-77139816D01*
X43580478Y-77235789D01*
X43750745Y-77295368D01*
X43750750Y-77295369D01*
X43929996Y-77315565D01*
X43930000Y-77315565D01*
X43930004Y-77315565D01*
X44109249Y-77295369D01*
X44109252Y-77295368D01*
X44109255Y-77295368D01*
X44279522Y-77235789D01*
X44432262Y-77139816D01*
X44525759Y-77046319D01*
X44587082Y-77012834D01*
X44613440Y-77010000D01*
X44746560Y-77010000D01*
X44813599Y-77029685D01*
X44834241Y-77046319D01*
X44927738Y-77139816D01*
X45080478Y-77235789D01*
X45250745Y-77295368D01*
X45250750Y-77295369D01*
X45429996Y-77315565D01*
X45430000Y-77315565D01*
X45430004Y-77315565D01*
X45609249Y-77295369D01*
X45609252Y-77295368D01*
X45609255Y-77295368D01*
X45779522Y-77235789D01*
X45932262Y-77139816D01*
X46025759Y-77046319D01*
X46087082Y-77012834D01*
X46113440Y-77010000D01*
X46246560Y-77010000D01*
X46313599Y-77029685D01*
X46334241Y-77046319D01*
X46427738Y-77139816D01*
X46580478Y-77235789D01*
X46750745Y-77295368D01*
X46750750Y-77295369D01*
X46929996Y-77315565D01*
X46930000Y-77315565D01*
X46930004Y-77315565D01*
X47109249Y-77295369D01*
X47109252Y-77295368D01*
X47109255Y-77295368D01*
X47279522Y-77235789D01*
X47432262Y-77139816D01*
X47525759Y-77046319D01*
X47587082Y-77012834D01*
X47613440Y-77010000D01*
X47746560Y-77010000D01*
X47813599Y-77029685D01*
X47834241Y-77046319D01*
X47927738Y-77139816D01*
X48080478Y-77235789D01*
X48250745Y-77295368D01*
X48250750Y-77295369D01*
X48429996Y-77315565D01*
X48430000Y-77315565D01*
X48430004Y-77315565D01*
X48609249Y-77295369D01*
X48609252Y-77295368D01*
X48609255Y-77295368D01*
X48779522Y-77235789D01*
X48932262Y-77139816D01*
X49025759Y-77046319D01*
X49087082Y-77012834D01*
X49113440Y-77010000D01*
X49246560Y-77010000D01*
X49313599Y-77029685D01*
X49334241Y-77046319D01*
X49427738Y-77139816D01*
X49580478Y-77235789D01*
X49750745Y-77295368D01*
X49750750Y-77295369D01*
X49929996Y-77315565D01*
X49930000Y-77315565D01*
X49930004Y-77315565D01*
X50109249Y-77295369D01*
X50109252Y-77295368D01*
X50109255Y-77295368D01*
X50279522Y-77235789D01*
X50432262Y-77139816D01*
X50525759Y-77046319D01*
X50587082Y-77012834D01*
X50613440Y-77010000D01*
X50746560Y-77010000D01*
X50813599Y-77029685D01*
X50834241Y-77046319D01*
X50927738Y-77139816D01*
X51080478Y-77235789D01*
X51250745Y-77295368D01*
X51250750Y-77295369D01*
X51429996Y-77315565D01*
X51430000Y-77315565D01*
X51430004Y-77315565D01*
X51609249Y-77295369D01*
X51609252Y-77295368D01*
X51609255Y-77295368D01*
X51779522Y-77235789D01*
X51932262Y-77139816D01*
X52025759Y-77046319D01*
X52087082Y-77012834D01*
X52113440Y-77010000D01*
X52246560Y-77010000D01*
X52313599Y-77029685D01*
X52334241Y-77046319D01*
X52427738Y-77139816D01*
X52580478Y-77235789D01*
X52750745Y-77295368D01*
X52750750Y-77295369D01*
X52929996Y-77315565D01*
X52930000Y-77315565D01*
X52930004Y-77315565D01*
X53109249Y-77295369D01*
X53109252Y-77295368D01*
X53109255Y-77295368D01*
X53279522Y-77235789D01*
X53432262Y-77139816D01*
X53525759Y-77046319D01*
X53587082Y-77012834D01*
X53613440Y-77010000D01*
X53746560Y-77010000D01*
X53813599Y-77029685D01*
X53834241Y-77046319D01*
X53927738Y-77139816D01*
X54080478Y-77235789D01*
X54250745Y-77295368D01*
X54250750Y-77295369D01*
X54429996Y-77315565D01*
X54430000Y-77315565D01*
X54430004Y-77315565D01*
X54609249Y-77295369D01*
X54609252Y-77295368D01*
X54609255Y-77295368D01*
X54779522Y-77235789D01*
X54932262Y-77139816D01*
X55025759Y-77046319D01*
X55087082Y-77012834D01*
X55113440Y-77010000D01*
X55246560Y-77010000D01*
X55313599Y-77029685D01*
X55334241Y-77046319D01*
X55427738Y-77139816D01*
X55580478Y-77235789D01*
X55750745Y-77295368D01*
X55750750Y-77295369D01*
X55929996Y-77315565D01*
X55930000Y-77315565D01*
X55930004Y-77315565D01*
X56109249Y-77295369D01*
X56109252Y-77295368D01*
X56109255Y-77295368D01*
X56279522Y-77235789D01*
X56364027Y-77182691D01*
X56431264Y-77163690D01*
X56495973Y-77182691D01*
X56580475Y-77235788D01*
X56750745Y-77295368D01*
X56750750Y-77295369D01*
X56929996Y-77315565D01*
X56930000Y-77315565D01*
X56930004Y-77315565D01*
X57109249Y-77295369D01*
X57109252Y-77295368D01*
X57109255Y-77295368D01*
X57279522Y-77235789D01*
X57432262Y-77139816D01*
X57525759Y-77046319D01*
X57587082Y-77012834D01*
X57613440Y-77010000D01*
X57746560Y-77010000D01*
X57813599Y-77029685D01*
X57834241Y-77046319D01*
X57927738Y-77139816D01*
X58080478Y-77235789D01*
X58250745Y-77295368D01*
X58250750Y-77295369D01*
X58429996Y-77315565D01*
X58430000Y-77315565D01*
X58430004Y-77315565D01*
X58609249Y-77295369D01*
X58609252Y-77295368D01*
X58609255Y-77295368D01*
X58779522Y-77235789D01*
X58932262Y-77139816D01*
X59025759Y-77046319D01*
X59087082Y-77012834D01*
X59113440Y-77010000D01*
X59246560Y-77010000D01*
X59313599Y-77029685D01*
X59334241Y-77046319D01*
X59427738Y-77139816D01*
X59580478Y-77235789D01*
X59750745Y-77295368D01*
X59750750Y-77295369D01*
X59929996Y-77315565D01*
X59930000Y-77315565D01*
X59930004Y-77315565D01*
X60109249Y-77295369D01*
X60109252Y-77295368D01*
X60109255Y-77295368D01*
X60279522Y-77235789D01*
X60432262Y-77139816D01*
X60525759Y-77046319D01*
X60587082Y-77012834D01*
X60613440Y-77010000D01*
X60746560Y-77010000D01*
X60813599Y-77029685D01*
X60834241Y-77046319D01*
X60927738Y-77139816D01*
X61080478Y-77235789D01*
X61250745Y-77295368D01*
X61250750Y-77295369D01*
X61429996Y-77315565D01*
X61430000Y-77315565D01*
X61430004Y-77315565D01*
X61609249Y-77295369D01*
X61609252Y-77295368D01*
X61609255Y-77295368D01*
X61779522Y-77235789D01*
X61932262Y-77139816D01*
X62025759Y-77046319D01*
X62087082Y-77012834D01*
X62113440Y-77010000D01*
X62246560Y-77010000D01*
X62313599Y-77029685D01*
X62334241Y-77046319D01*
X62427738Y-77139816D01*
X62580478Y-77235789D01*
X62750745Y-77295368D01*
X62750750Y-77295369D01*
X62929996Y-77315565D01*
X62930000Y-77315565D01*
X62930004Y-77315565D01*
X63109249Y-77295369D01*
X63109252Y-77295368D01*
X63109255Y-77295368D01*
X63279522Y-77235789D01*
X63432262Y-77139816D01*
X63525759Y-77046319D01*
X63587082Y-77012834D01*
X63613440Y-77010000D01*
X63746560Y-77010000D01*
X63813599Y-77029685D01*
X63834241Y-77046319D01*
X63927738Y-77139816D01*
X64080478Y-77235789D01*
X64250745Y-77295368D01*
X64250750Y-77295369D01*
X64429996Y-77315565D01*
X64430000Y-77315565D01*
X64430004Y-77315565D01*
X64609249Y-77295369D01*
X64609252Y-77295368D01*
X64609255Y-77295368D01*
X64779522Y-77235789D01*
X64932262Y-77139816D01*
X65025759Y-77046319D01*
X65087082Y-77012834D01*
X65113440Y-77010000D01*
X65246560Y-77010000D01*
X65313599Y-77029685D01*
X65334241Y-77046319D01*
X65427738Y-77139816D01*
X65580478Y-77235789D01*
X65750745Y-77295368D01*
X65750750Y-77295369D01*
X65929996Y-77315565D01*
X65930000Y-77315565D01*
X65930004Y-77315565D01*
X66109249Y-77295369D01*
X66109252Y-77295368D01*
X66109255Y-77295368D01*
X66279522Y-77235789D01*
X66432262Y-77139816D01*
X66525759Y-77046319D01*
X66587082Y-77012834D01*
X66613440Y-77010000D01*
X66746560Y-77010000D01*
X66813599Y-77029685D01*
X66834241Y-77046319D01*
X66927738Y-77139816D01*
X67080478Y-77235789D01*
X67250745Y-77295368D01*
X67250750Y-77295369D01*
X67429996Y-77315565D01*
X67430000Y-77315565D01*
X67430004Y-77315565D01*
X67609249Y-77295369D01*
X67609252Y-77295368D01*
X67609255Y-77295368D01*
X67779522Y-77235789D01*
X67932262Y-77139816D01*
X68025759Y-77046319D01*
X68087082Y-77012834D01*
X68113440Y-77010000D01*
X68246560Y-77010000D01*
X68313599Y-77029685D01*
X68334241Y-77046319D01*
X68427738Y-77139816D01*
X68580478Y-77235789D01*
X68750745Y-77295368D01*
X68750750Y-77295369D01*
X68929996Y-77315565D01*
X68930000Y-77315565D01*
X68930004Y-77315565D01*
X69109249Y-77295369D01*
X69109252Y-77295368D01*
X69109255Y-77295368D01*
X69279522Y-77235789D01*
X69432262Y-77139816D01*
X69525759Y-77046319D01*
X69587082Y-77012834D01*
X69613440Y-77010000D01*
X69746560Y-77010000D01*
X69813599Y-77029685D01*
X69834241Y-77046319D01*
X69927738Y-77139816D01*
X70080478Y-77235789D01*
X70250745Y-77295368D01*
X70250750Y-77295369D01*
X70429996Y-77315565D01*
X70430000Y-77315565D01*
X70430004Y-77315565D01*
X70609249Y-77295369D01*
X70609252Y-77295368D01*
X70609255Y-77295368D01*
X70779522Y-77235789D01*
X70932262Y-77139816D01*
X71059816Y-77012262D01*
X71155789Y-76859522D01*
X71186980Y-76770383D01*
X71216334Y-76723665D01*
X71930000Y-76010000D01*
X71901038Y-74822578D01*
X71830000Y-71910000D01*
X69314753Y-71910000D01*
X69247714Y-71890315D01*
X69201959Y-71837511D01*
X69192015Y-71768353D01*
X69209214Y-71720903D01*
X69241545Y-71668486D01*
X69241547Y-71668481D01*
X69294855Y-71507606D01*
X69304999Y-71408322D01*
X69305000Y-71408309D01*
X69305000Y-71385000D01*
X66854000Y-71385000D01*
X66786961Y-71365315D01*
X66741206Y-71312511D01*
X66730000Y-71261000D01*
X66730000Y-71009000D01*
X66749685Y-70941961D01*
X66802489Y-70896206D01*
X66854000Y-70885000D01*
X69304999Y-70885000D01*
X69304999Y-70861692D01*
X69304998Y-70861677D01*
X69294855Y-70762392D01*
X69241547Y-70601518D01*
X69241544Y-70601512D01*
X69240057Y-70599101D01*
X69239541Y-70597215D01*
X69238493Y-70594968D01*
X69238876Y-70594788D01*
X69221614Y-70531709D01*
X69242534Y-70465045D01*
X69296174Y-70420273D01*
X69345593Y-70410000D01*
X70930000Y-70410000D01*
X70930000Y-69232240D01*
X70949685Y-69165201D01*
X71002489Y-69119446D01*
X71052224Y-69108253D01*
X77804231Y-69011796D01*
X77871543Y-69030521D01*
G37*
%TD.AperFunction*%
%TD*%
%TA.AperFunction,Conductor*%
%TO.N,GND*%
G36*
X53898334Y-65695192D02*
G01*
X53942681Y-65723693D01*
X53951956Y-65732968D01*
X53970596Y-65744465D01*
X54017321Y-65796412D01*
X54029500Y-65850004D01*
X54029500Y-67197901D01*
X54009815Y-67264940D01*
X53993181Y-67285582D01*
X53216681Y-68062082D01*
X53155358Y-68095567D01*
X53085666Y-68090583D01*
X53029733Y-68048711D01*
X53006546Y-67986546D01*
X53005000Y-67985000D01*
X52629500Y-67985000D01*
X52562461Y-67965315D01*
X52516706Y-67912511D01*
X52505500Y-67861000D01*
X52505500Y-67759000D01*
X52525185Y-67691961D01*
X52577989Y-67646206D01*
X52629500Y-67635000D01*
X53004999Y-67635000D01*
X53004999Y-67521486D01*
X52989881Y-67406640D01*
X52989877Y-67406628D01*
X52930683Y-67263719D01*
X52930680Y-67263713D01*
X52861377Y-67173397D01*
X52836182Y-67108228D01*
X52850220Y-67039783D01*
X52861370Y-67022433D01*
X52931117Y-66931537D01*
X52990365Y-66788499D01*
X53005500Y-66673540D01*
X53005500Y-66096460D01*
X52996182Y-66025684D01*
X53006947Y-65956650D01*
X53053327Y-65904394D01*
X53119121Y-65885499D01*
X53353338Y-65885499D01*
X53353344Y-65885499D01*
X53353352Y-65885498D01*
X53353355Y-65885498D01*
X53407760Y-65879940D01*
X53452708Y-65875349D01*
X53613697Y-65822003D01*
X53758044Y-65732968D01*
X53767319Y-65723693D01*
X53828642Y-65690208D01*
X53898334Y-65695192D01*
G37*
%TD.AperFunction*%
%TA.AperFunction,Conductor*%
G36*
X74641756Y-59529685D02*
G01*
X74687511Y-59582489D01*
X74697455Y-59651647D01*
X74668430Y-59715203D01*
X74620364Y-59749292D01*
X74406117Y-59834117D01*
X74406109Y-59834121D01*
X74141476Y-59979604D01*
X74141471Y-59979607D01*
X73916565Y-60143010D01*
X73916564Y-60143011D01*
X74847262Y-61073709D01*
X74713398Y-61170967D01*
X74590967Y-61293398D01*
X74493709Y-61427262D01*
X73565311Y-60498864D01*
X73484520Y-60596525D01*
X73484518Y-60596528D01*
X73322707Y-60851502D01*
X73322704Y-60851508D01*
X73194127Y-61124747D01*
X73194125Y-61124752D01*
X73100805Y-61411959D01*
X73044216Y-61708609D01*
X73044215Y-61708616D01*
X73025255Y-62009994D01*
X73025255Y-62010005D01*
X73044215Y-62311383D01*
X73044216Y-62311390D01*
X73100805Y-62608040D01*
X73194125Y-62895247D01*
X73194127Y-62895252D01*
X73322704Y-63168491D01*
X73322707Y-63168497D01*
X73484516Y-63423469D01*
X73565311Y-63521133D01*
X74493708Y-62592736D01*
X74590967Y-62726602D01*
X74713398Y-62849033D01*
X74847262Y-62946290D01*
X73916564Y-63876987D01*
X73916565Y-63876989D01*
X74141461Y-64040385D01*
X74141479Y-64040397D01*
X74406109Y-64185878D01*
X74406117Y-64185882D01*
X74686889Y-64297047D01*
X74686892Y-64297048D01*
X74979399Y-64372150D01*
X75278995Y-64409999D01*
X75279007Y-64410000D01*
X75580993Y-64410000D01*
X75581004Y-64409999D01*
X75880600Y-64372150D01*
X76173107Y-64297048D01*
X76173110Y-64297047D01*
X76453882Y-64185882D01*
X76453890Y-64185878D01*
X76718520Y-64040397D01*
X76718530Y-64040390D01*
X76943433Y-63876987D01*
X76943434Y-63876987D01*
X76012737Y-62946290D01*
X76146602Y-62849033D01*
X76269033Y-62726602D01*
X76366290Y-62592737D01*
X77294687Y-63521134D01*
X77375486Y-63423464D01*
X77537292Y-63168497D01*
X77537295Y-63168491D01*
X77665872Y-62895252D01*
X77665874Y-62895247D01*
X77688069Y-62826940D01*
X77727506Y-62769265D01*
X77791865Y-62742066D01*
X77860711Y-62753981D01*
X77912187Y-62801225D01*
X77930000Y-62865258D01*
X77930000Y-68382659D01*
X77910315Y-68449698D01*
X77857511Y-68495453D01*
X77801433Y-68505985D01*
X77801438Y-68506284D01*
X77799713Y-68506308D01*
X77798924Y-68506457D01*
X77797005Y-68506347D01*
X71545155Y-68595659D01*
X71045003Y-68602805D01*
X71044999Y-68602805D01*
X71044984Y-68602806D01*
X70941241Y-68615087D01*
X70941237Y-68615087D01*
X70941236Y-68615088D01*
X70929865Y-68617646D01*
X70860141Y-68613161D01*
X70803910Y-68571690D01*
X70779025Y-68506402D01*
X70784256Y-68459786D01*
X70799086Y-68412196D01*
X70805500Y-68341616D01*
X70805500Y-67828384D01*
X70799086Y-67757804D01*
X70748478Y-67595394D01*
X70660472Y-67449815D01*
X70660470Y-67449813D01*
X70660469Y-67449811D01*
X70645838Y-67435180D01*
X70612353Y-67373857D01*
X70617337Y-67304165D01*
X70645838Y-67259818D01*
X70685472Y-67220185D01*
X70773478Y-67074606D01*
X70824086Y-66912196D01*
X70830500Y-66841616D01*
X70830500Y-66178384D01*
X70824086Y-66107804D01*
X70773478Y-65945394D01*
X70685472Y-65799815D01*
X70685470Y-65799813D01*
X70685469Y-65799811D01*
X70565188Y-65679530D01*
X70541933Y-65665472D01*
X70419606Y-65591522D01*
X70257196Y-65540914D01*
X70257194Y-65540913D01*
X70257192Y-65540913D01*
X70207778Y-65536423D01*
X70186616Y-65534500D01*
X69673384Y-65534500D01*
X69654145Y-65536248D01*
X69602807Y-65540913D01*
X69440393Y-65591522D01*
X69294813Y-65679529D01*
X69192680Y-65781662D01*
X69131357Y-65815146D01*
X69061665Y-65810162D01*
X69017318Y-65781661D01*
X68958338Y-65722681D01*
X68924853Y-65661358D01*
X68929837Y-65591666D01*
X68955890Y-65551130D01*
X68955843Y-65551094D01*
X68956237Y-65550590D01*
X68958344Y-65547313D01*
X68960470Y-65545187D01*
X68960470Y-65545186D01*
X68960472Y-65545185D01*
X69048478Y-65399606D01*
X69099086Y-65237196D01*
X69105500Y-65166616D01*
X69105500Y-64653384D01*
X69099086Y-64582804D01*
X69048478Y-64420394D01*
X68960472Y-64274815D01*
X68960470Y-64274813D01*
X68960469Y-64274811D01*
X68857984Y-64172326D01*
X68824499Y-64111003D01*
X68829483Y-64041311D01*
X68857985Y-63996963D01*
X68960071Y-63894878D01*
X68960072Y-63894877D01*
X69048019Y-63749395D01*
X69098590Y-63587106D01*
X69105000Y-63516572D01*
X69105000Y-63510000D01*
X67155001Y-63510000D01*
X67155001Y-63516582D01*
X67161408Y-63587102D01*
X67161409Y-63587107D01*
X67211981Y-63749396D01*
X67299927Y-63894877D01*
X67402015Y-63996965D01*
X67435500Y-64058288D01*
X67430516Y-64127980D01*
X67402015Y-64172327D01*
X67301161Y-64273181D01*
X67239838Y-64306666D01*
X67213480Y-64309500D01*
X66869097Y-64309500D01*
X66802058Y-64289815D01*
X66781416Y-64273181D01*
X66724700Y-64216465D01*
X66691215Y-64155142D01*
X66689163Y-64142686D01*
X66679368Y-64055745D01*
X66619789Y-63885478D01*
X66523816Y-63732738D01*
X66396262Y-63605184D01*
X66367485Y-63587102D01*
X66243523Y-63509211D01*
X66073254Y-63449631D01*
X66073249Y-63449630D01*
X65894004Y-63429435D01*
X65893996Y-63429435D01*
X65714750Y-63449630D01*
X65714745Y-63449631D01*
X65544476Y-63509211D01*
X65391737Y-63605184D01*
X65264184Y-63732737D01*
X65168211Y-63885476D01*
X65108631Y-64055745D01*
X65108630Y-64055750D01*
X65088435Y-64234996D01*
X65088435Y-64235003D01*
X65108630Y-64414249D01*
X65108631Y-64414254D01*
X65168211Y-64584523D01*
X65185260Y-64611656D01*
X65264184Y-64737262D01*
X65391738Y-64864816D01*
X65544478Y-64960789D01*
X65714745Y-65020368D01*
X65801669Y-65030161D01*
X65866080Y-65057226D01*
X65875465Y-65065700D01*
X66084139Y-65274374D01*
X66084149Y-65274385D01*
X66088479Y-65278715D01*
X66088480Y-65278716D01*
X66200284Y-65390520D01*
X66265576Y-65428216D01*
X66337215Y-65469577D01*
X66489943Y-65510500D01*
X66648057Y-65510500D01*
X67213480Y-65510500D01*
X67280519Y-65530185D01*
X67301161Y-65546819D01*
X67419811Y-65665469D01*
X67419813Y-65665470D01*
X67419815Y-65665472D01*
X67449864Y-65683637D01*
X67497050Y-65735164D01*
X67508889Y-65804023D01*
X67491830Y-65853902D01*
X67436523Y-65945391D01*
X67385913Y-66107807D01*
X67380782Y-66164275D01*
X67379500Y-66178384D01*
X67379500Y-66841616D01*
X67381423Y-66862778D01*
X67385913Y-66912192D01*
X67385913Y-66912194D01*
X67385914Y-66912196D01*
X67436522Y-67074606D01*
X67436523Y-67074608D01*
X67436524Y-67074610D01*
X67438590Y-67079201D01*
X67448154Y-67148413D01*
X67418781Y-67211809D01*
X67359796Y-67249260D01*
X67289928Y-67248877D01*
X67286511Y-67247799D01*
X67127607Y-67195144D01*
X67028322Y-67185000D01*
X66980000Y-67185000D01*
X66980000Y-68011000D01*
X66960315Y-68078039D01*
X66907511Y-68123794D01*
X66856000Y-68135000D01*
X66730000Y-68135000D01*
X66730000Y-68261000D01*
X66710315Y-68328039D01*
X66657511Y-68373794D01*
X66606000Y-68385000D01*
X65755001Y-68385000D01*
X65755001Y-68408322D01*
X65765144Y-68507607D01*
X65818452Y-68668481D01*
X65818457Y-68668492D01*
X65907424Y-68812728D01*
X65907427Y-68812732D01*
X65916660Y-68821965D01*
X65950145Y-68883288D01*
X65945161Y-68952980D01*
X65916663Y-68997324D01*
X65907033Y-69006953D01*
X65907029Y-69006959D01*
X65818001Y-69151294D01*
X65817996Y-69151305D01*
X65764651Y-69312290D01*
X65754500Y-69411647D01*
X65754500Y-69958337D01*
X65754501Y-69958355D01*
X65764650Y-70057707D01*
X65764651Y-70057710D01*
X65777504Y-70096496D01*
X65779906Y-70166324D01*
X65744174Y-70226366D01*
X65681654Y-70257559D01*
X65659798Y-70259500D01*
X65304499Y-70259500D01*
X65237460Y-70239815D01*
X65191705Y-70187011D01*
X65180499Y-70135500D01*
X65180499Y-69465232D01*
X65180498Y-69465210D01*
X65177742Y-69430178D01*
X65134169Y-69280199D01*
X65057940Y-69151303D01*
X65054669Y-69145772D01*
X65054662Y-69145763D01*
X64944236Y-69035337D01*
X64944227Y-69035330D01*
X64809799Y-68955830D01*
X64809796Y-68955829D01*
X64659826Y-68912258D01*
X64659820Y-68912257D01*
X64627771Y-68909735D01*
X64624779Y-68909500D01*
X64624778Y-68909500D01*
X63135232Y-68909500D01*
X63135210Y-68909501D01*
X63100177Y-68912258D01*
X63100176Y-68912258D01*
X62950203Y-68955829D01*
X62950200Y-68955830D01*
X62815772Y-69035330D01*
X62815763Y-69035337D01*
X62705337Y-69145763D01*
X62705330Y-69145772D01*
X62625830Y-69280200D01*
X62625829Y-69280203D01*
X62582258Y-69430173D01*
X62582257Y-69430179D01*
X62579500Y-69465214D01*
X62579500Y-72554767D01*
X62579501Y-72554789D01*
X62582258Y-72589822D01*
X62582258Y-72589823D01*
X62625829Y-72739796D01*
X62625830Y-72739799D01*
X62705330Y-72874227D01*
X62705337Y-72874236D01*
X62815763Y-72984662D01*
X62815767Y-72984665D01*
X62815769Y-72984667D01*
X62950199Y-73064169D01*
X62989750Y-73075659D01*
X63100173Y-73107741D01*
X63100176Y-73107741D01*
X63100178Y-73107742D01*
X63135221Y-73110500D01*
X64624778Y-73110499D01*
X64659822Y-73107742D01*
X64809801Y-73064169D01*
X64944231Y-72984667D01*
X64970576Y-72958322D01*
X65755001Y-72958322D01*
X65765144Y-73057607D01*
X65818452Y-73218481D01*
X65818457Y-73218492D01*
X65907424Y-73362728D01*
X65907427Y-73362732D01*
X66027267Y-73482572D01*
X66027271Y-73482575D01*
X66171507Y-73571542D01*
X66171518Y-73571547D01*
X66332393Y-73624855D01*
X66431683Y-73634999D01*
X66980000Y-73634999D01*
X67028308Y-73634999D01*
X67028322Y-73634998D01*
X67127607Y-73624855D01*
X67288481Y-73571547D01*
X67288492Y-73571542D01*
X67432728Y-73482575D01*
X67432732Y-73482572D01*
X67442319Y-73472986D01*
X67503642Y-73439501D01*
X67573334Y-73444485D01*
X67617681Y-73472986D01*
X67627267Y-73482572D01*
X67627271Y-73482575D01*
X67771507Y-73571542D01*
X67771518Y-73571547D01*
X67932393Y-73624855D01*
X68031683Y-73634999D01*
X68580000Y-73634999D01*
X68628308Y-73634999D01*
X68628322Y-73634998D01*
X68727607Y-73624855D01*
X68888481Y-73571547D01*
X68888492Y-73571542D01*
X69032728Y-73482575D01*
X69032732Y-73482572D01*
X69152572Y-73362732D01*
X69152575Y-73362728D01*
X69241542Y-73218492D01*
X69241547Y-73218481D01*
X69294855Y-73057606D01*
X69304999Y-72958322D01*
X69305000Y-72958309D01*
X69305000Y-72935000D01*
X68580000Y-72935000D01*
X68580000Y-73634999D01*
X68031683Y-73634999D01*
X68079999Y-73634998D01*
X68080000Y-73634998D01*
X68080000Y-72935000D01*
X66980000Y-72935000D01*
X66980000Y-73634999D01*
X66431683Y-73634999D01*
X66479999Y-73634998D01*
X66480000Y-73634998D01*
X66480000Y-72935000D01*
X65755001Y-72935000D01*
X65755001Y-72958322D01*
X64970576Y-72958322D01*
X65054667Y-72874231D01*
X65134169Y-72739801D01*
X65177742Y-72589822D01*
X65180500Y-72554779D01*
X65180500Y-71884500D01*
X65200185Y-71817461D01*
X65252989Y-71771706D01*
X65304500Y-71760500D01*
X65805453Y-71760500D01*
X65872492Y-71780185D01*
X65902724Y-71807595D01*
X65907036Y-71813049D01*
X65916659Y-71822672D01*
X65950144Y-71883995D01*
X65945160Y-71953687D01*
X65916665Y-71998028D01*
X65907430Y-72007264D01*
X65907424Y-72007271D01*
X65818457Y-72151507D01*
X65818452Y-72151518D01*
X65765144Y-72312393D01*
X65755000Y-72411677D01*
X65755000Y-72435000D01*
X69318982Y-72435000D01*
X69349503Y-72418334D01*
X69375861Y-72415500D01*
X71215667Y-72415500D01*
X71282706Y-72435185D01*
X71328461Y-72487989D01*
X71339629Y-72536475D01*
X71381598Y-74257187D01*
X71395688Y-74834904D01*
X71418071Y-75752620D01*
X71400027Y-75820119D01*
X71381789Y-75843324D01*
X70858891Y-76366222D01*
X70788308Y-76454731D01*
X70758961Y-76501438D01*
X70758959Y-76501441D01*
X70709848Y-76603425D01*
X70702080Y-76625622D01*
X70690034Y-76650634D01*
X70669530Y-76683266D01*
X70652217Y-76704975D01*
X70624975Y-76732217D01*
X70603266Y-76749529D01*
X70570636Y-76770032D01*
X70545618Y-76782081D01*
X70509243Y-76794809D01*
X70482172Y-76800987D01*
X70443882Y-76805301D01*
X70416116Y-76805301D01*
X70377826Y-76800987D01*
X70350755Y-76794809D01*
X70314380Y-76782081D01*
X70289362Y-76770032D01*
X70256732Y-76749529D01*
X70235023Y-76732217D01*
X70191698Y-76688892D01*
X70191690Y-76688884D01*
X70191683Y-76688877D01*
X70191659Y-76688855D01*
X70151441Y-76652728D01*
X70151429Y-76652718D01*
X70130778Y-76636076D01*
X70086896Y-76604433D01*
X69956022Y-76544663D01*
X69888977Y-76524976D01*
X69826914Y-76516053D01*
X69746560Y-76504500D01*
X69613440Y-76504500D01*
X69613438Y-76504500D01*
X69559389Y-76507397D01*
X69559388Y-76507397D01*
X69533055Y-76510229D01*
X69533028Y-76510232D01*
X69479632Y-76518885D01*
X69479630Y-76518885D01*
X69344825Y-76569166D01*
X69283500Y-76602651D01*
X69168322Y-76688873D01*
X69168309Y-76688884D01*
X69124974Y-76732218D01*
X69103268Y-76749528D01*
X69070637Y-76770032D01*
X69045618Y-76782081D01*
X69009243Y-76794809D01*
X68982172Y-76800987D01*
X68943882Y-76805301D01*
X68916116Y-76805301D01*
X68877826Y-76800987D01*
X68850755Y-76794809D01*
X68814380Y-76782081D01*
X68789362Y-76770032D01*
X68756732Y-76749529D01*
X68735023Y-76732217D01*
X68691698Y-76688892D01*
X68691690Y-76688884D01*
X68691683Y-76688877D01*
X68691659Y-76688855D01*
X68651441Y-76652728D01*
X68651429Y-76652718D01*
X68630778Y-76636076D01*
X68586896Y-76604433D01*
X68456022Y-76544663D01*
X68388977Y-76524976D01*
X68326914Y-76516053D01*
X68246560Y-76504500D01*
X68113440Y-76504500D01*
X68113438Y-76504500D01*
X68059389Y-76507397D01*
X68059388Y-76507397D01*
X68033055Y-76510229D01*
X68033028Y-76510232D01*
X67979632Y-76518885D01*
X67979630Y-76518885D01*
X67844825Y-76569166D01*
X67783500Y-76602651D01*
X67668322Y-76688873D01*
X67668309Y-76688884D01*
X67624974Y-76732218D01*
X67603268Y-76749528D01*
X67570637Y-76770032D01*
X67545618Y-76782081D01*
X67509243Y-76794809D01*
X67482172Y-76800987D01*
X67443882Y-76805301D01*
X67416116Y-76805301D01*
X67377826Y-76800987D01*
X67350755Y-76794809D01*
X67314380Y-76782081D01*
X67289362Y-76770032D01*
X67256732Y-76749529D01*
X67235023Y-76732217D01*
X67191698Y-76688892D01*
X67191690Y-76688884D01*
X67191683Y-76688877D01*
X67191659Y-76688855D01*
X67151441Y-76652728D01*
X67151429Y-76652718D01*
X67130778Y-76636076D01*
X67086896Y-76604433D01*
X66956022Y-76544663D01*
X66888977Y-76524976D01*
X66826914Y-76516053D01*
X66746560Y-76504500D01*
X66613440Y-76504500D01*
X66613438Y-76504500D01*
X66559389Y-76507397D01*
X66559388Y-76507397D01*
X66533055Y-76510229D01*
X66533028Y-76510232D01*
X66479632Y-76518885D01*
X66479630Y-76518885D01*
X66344825Y-76569166D01*
X66283500Y-76602651D01*
X66168322Y-76688873D01*
X66168309Y-76688884D01*
X66124974Y-76732218D01*
X66103268Y-76749528D01*
X66070637Y-76770032D01*
X66045618Y-76782081D01*
X66009243Y-76794809D01*
X65982172Y-76800987D01*
X65943882Y-76805301D01*
X65916116Y-76805301D01*
X65877826Y-76800987D01*
X65850755Y-76794809D01*
X65814380Y-76782081D01*
X65789362Y-76770032D01*
X65756732Y-76749529D01*
X65735023Y-76732217D01*
X65691698Y-76688892D01*
X65691690Y-76688884D01*
X65691683Y-76688877D01*
X65691659Y-76688855D01*
X65651441Y-76652728D01*
X65651429Y-76652718D01*
X65630778Y-76636076D01*
X65586896Y-76604433D01*
X65456022Y-76544663D01*
X65388977Y-76524976D01*
X65326914Y-76516053D01*
X65246560Y-76504500D01*
X65113440Y-76504500D01*
X65113438Y-76504500D01*
X65059389Y-76507397D01*
X65059388Y-76507397D01*
X65033055Y-76510229D01*
X65033028Y-76510232D01*
X64979632Y-76518885D01*
X64979630Y-76518885D01*
X64844825Y-76569166D01*
X64783500Y-76602651D01*
X64668322Y-76688873D01*
X64668309Y-76688884D01*
X64624974Y-76732218D01*
X64603268Y-76749528D01*
X64570637Y-76770032D01*
X64545618Y-76782081D01*
X64509243Y-76794809D01*
X64482172Y-76800987D01*
X64443882Y-76805301D01*
X64416116Y-76805301D01*
X64377826Y-76800987D01*
X64350755Y-76794809D01*
X64314380Y-76782081D01*
X64289362Y-76770032D01*
X64256732Y-76749529D01*
X64235023Y-76732217D01*
X64191698Y-76688892D01*
X64191690Y-76688884D01*
X64191683Y-76688877D01*
X64191659Y-76688855D01*
X64151441Y-76652728D01*
X64151429Y-76652718D01*
X64130778Y-76636076D01*
X64086896Y-76604433D01*
X63956022Y-76544663D01*
X63888977Y-76524976D01*
X63826914Y-76516053D01*
X63746560Y-76504500D01*
X63613440Y-76504500D01*
X63613438Y-76504500D01*
X63559389Y-76507397D01*
X63559388Y-76507397D01*
X63533055Y-76510229D01*
X63533028Y-76510232D01*
X63479632Y-76518885D01*
X63479630Y-76518885D01*
X63344825Y-76569166D01*
X63283500Y-76602651D01*
X63168322Y-76688873D01*
X63168309Y-76688884D01*
X63124974Y-76732218D01*
X63103268Y-76749528D01*
X63070637Y-76770032D01*
X63045618Y-76782081D01*
X63009243Y-76794809D01*
X62982172Y-76800987D01*
X62943882Y-76805301D01*
X62916116Y-76805301D01*
X62877826Y-76800987D01*
X62850755Y-76794809D01*
X62814380Y-76782081D01*
X62789362Y-76770032D01*
X62756732Y-76749529D01*
X62735023Y-76732217D01*
X62691698Y-76688892D01*
X62691690Y-76688884D01*
X62691683Y-76688877D01*
X62691659Y-76688855D01*
X62651441Y-76652728D01*
X62651429Y-76652718D01*
X62630778Y-76636076D01*
X62586896Y-76604433D01*
X62456022Y-76544663D01*
X62388977Y-76524976D01*
X62326914Y-76516053D01*
X62246560Y-76504500D01*
X62113440Y-76504500D01*
X62113438Y-76504500D01*
X62059389Y-76507397D01*
X62059388Y-76507397D01*
X62033055Y-76510229D01*
X62033028Y-76510232D01*
X61979632Y-76518885D01*
X61979630Y-76518885D01*
X61844825Y-76569166D01*
X61783500Y-76602651D01*
X61668322Y-76688873D01*
X61668309Y-76688884D01*
X61624974Y-76732218D01*
X61603268Y-76749528D01*
X61570637Y-76770032D01*
X61545618Y-76782081D01*
X61509243Y-76794809D01*
X61482172Y-76800987D01*
X61443882Y-76805301D01*
X61416116Y-76805301D01*
X61377826Y-76800987D01*
X61350755Y-76794809D01*
X61314380Y-76782081D01*
X61289362Y-76770032D01*
X61256732Y-76749529D01*
X61235023Y-76732217D01*
X61191698Y-76688892D01*
X61191690Y-76688884D01*
X61191683Y-76688877D01*
X61191659Y-76688855D01*
X61151441Y-76652728D01*
X61151429Y-76652718D01*
X61130778Y-76636076D01*
X61086896Y-76604433D01*
X60956022Y-76544663D01*
X60888977Y-76524976D01*
X60826914Y-76516053D01*
X60746560Y-76504500D01*
X60613440Y-76504500D01*
X60613438Y-76504500D01*
X60559389Y-76507397D01*
X60559388Y-76507397D01*
X60533055Y-76510229D01*
X60533028Y-76510232D01*
X60479632Y-76518885D01*
X60479630Y-76518885D01*
X60344825Y-76569166D01*
X60283500Y-76602651D01*
X60168322Y-76688873D01*
X60168309Y-76688884D01*
X60124974Y-76732218D01*
X60103268Y-76749528D01*
X60070637Y-76770032D01*
X60045618Y-76782081D01*
X60009243Y-76794809D01*
X59982172Y-76800987D01*
X59943882Y-76805301D01*
X59916116Y-76805301D01*
X59877826Y-76800987D01*
X59850755Y-76794809D01*
X59814380Y-76782081D01*
X59789362Y-76770032D01*
X59756732Y-76749529D01*
X59735023Y-76732217D01*
X59691698Y-76688892D01*
X59691690Y-76688884D01*
X59691683Y-76688877D01*
X59691659Y-76688855D01*
X59651441Y-76652728D01*
X59651429Y-76652718D01*
X59630778Y-76636076D01*
X59586896Y-76604433D01*
X59456022Y-76544663D01*
X59388977Y-76524976D01*
X59326914Y-76516053D01*
X59246560Y-76504500D01*
X59113440Y-76504500D01*
X59113438Y-76504500D01*
X59059389Y-76507397D01*
X59059388Y-76507397D01*
X59033055Y-76510229D01*
X59033028Y-76510232D01*
X58979632Y-76518885D01*
X58979630Y-76518885D01*
X58844825Y-76569166D01*
X58783500Y-76602651D01*
X58668322Y-76688873D01*
X58668309Y-76688884D01*
X58624974Y-76732218D01*
X58603268Y-76749528D01*
X58570637Y-76770032D01*
X58545618Y-76782081D01*
X58509243Y-76794809D01*
X58482172Y-76800987D01*
X58443882Y-76805301D01*
X58416116Y-76805301D01*
X58377826Y-76800987D01*
X58350755Y-76794809D01*
X58314380Y-76782081D01*
X58289362Y-76770032D01*
X58256732Y-76749529D01*
X58235023Y-76732217D01*
X58191698Y-76688892D01*
X58191690Y-76688884D01*
X58191683Y-76688877D01*
X58191659Y-76688855D01*
X58151441Y-76652728D01*
X58151429Y-76652718D01*
X58130778Y-76636076D01*
X58086896Y-76604433D01*
X57956022Y-76544663D01*
X57888977Y-76524976D01*
X57826914Y-76516053D01*
X57746560Y-76504500D01*
X57613440Y-76504500D01*
X57613438Y-76504500D01*
X57559389Y-76507397D01*
X57559388Y-76507397D01*
X57533055Y-76510229D01*
X57533028Y-76510232D01*
X57479632Y-76518885D01*
X57479630Y-76518885D01*
X57344825Y-76569166D01*
X57283500Y-76602651D01*
X57168322Y-76688873D01*
X57168309Y-76688884D01*
X57124974Y-76732218D01*
X57103268Y-76749528D01*
X57070637Y-76770032D01*
X57045618Y-76782081D01*
X57009243Y-76794809D01*
X56982172Y-76800987D01*
X56943882Y-76805301D01*
X56916117Y-76805301D01*
X56877825Y-76800987D01*
X56850756Y-76794809D01*
X56814376Y-76782079D01*
X56789364Y-76770034D01*
X56764918Y-76754674D01*
X56764914Y-76754672D01*
X56638400Y-76697671D01*
X56638387Y-76697667D01*
X56608452Y-76688877D01*
X56573685Y-76678668D01*
X56573683Y-76678667D01*
X56573681Y-76678667D01*
X56573679Y-76678666D01*
X56436411Y-76658215D01*
X56293802Y-76677239D01*
X56226550Y-76696244D01*
X56095090Y-76754669D01*
X56070630Y-76770037D01*
X56045618Y-76782081D01*
X56009243Y-76794809D01*
X55982172Y-76800987D01*
X55943882Y-76805301D01*
X55916116Y-76805301D01*
X55877826Y-76800987D01*
X55850755Y-76794809D01*
X55814380Y-76782081D01*
X55789362Y-76770032D01*
X55756732Y-76749529D01*
X55735023Y-76732217D01*
X55691698Y-76688892D01*
X55691690Y-76688884D01*
X55691683Y-76688877D01*
X55691659Y-76688855D01*
X55651441Y-76652728D01*
X55651429Y-76652718D01*
X55630778Y-76636076D01*
X55586896Y-76604433D01*
X55456022Y-76544663D01*
X55388977Y-76524976D01*
X55326914Y-76516053D01*
X55246560Y-76504500D01*
X55113440Y-76504500D01*
X55113438Y-76504500D01*
X55059389Y-76507397D01*
X55059388Y-76507397D01*
X55033055Y-76510229D01*
X55033028Y-76510232D01*
X54979632Y-76518885D01*
X54979630Y-76518885D01*
X54844825Y-76569166D01*
X54783500Y-76602651D01*
X54668322Y-76688873D01*
X54668309Y-76688884D01*
X54624974Y-76732218D01*
X54603268Y-76749528D01*
X54570637Y-76770032D01*
X54545618Y-76782081D01*
X54509243Y-76794809D01*
X54482172Y-76800987D01*
X54443882Y-76805301D01*
X54416116Y-76805301D01*
X54377826Y-76800987D01*
X54350755Y-76794809D01*
X54314380Y-76782081D01*
X54289362Y-76770032D01*
X54256732Y-76749529D01*
X54235023Y-76732217D01*
X54191698Y-76688892D01*
X54191690Y-76688884D01*
X54191683Y-76688877D01*
X54191659Y-76688855D01*
X54151441Y-76652728D01*
X54151429Y-76652718D01*
X54130778Y-76636076D01*
X54086896Y-76604433D01*
X53956022Y-76544663D01*
X53888977Y-76524976D01*
X53826914Y-76516053D01*
X53746560Y-76504500D01*
X53613440Y-76504500D01*
X53613438Y-76504500D01*
X53559389Y-76507397D01*
X53559388Y-76507397D01*
X53533055Y-76510229D01*
X53533028Y-76510232D01*
X53479632Y-76518885D01*
X53479630Y-76518885D01*
X53344825Y-76569166D01*
X53283500Y-76602651D01*
X53168322Y-76688873D01*
X53168309Y-76688884D01*
X53124974Y-76732218D01*
X53103268Y-76749528D01*
X53070637Y-76770032D01*
X53045618Y-76782081D01*
X53009243Y-76794809D01*
X52982172Y-76800987D01*
X52943882Y-76805301D01*
X52916116Y-76805301D01*
X52877826Y-76800987D01*
X52850755Y-76794809D01*
X52814380Y-76782081D01*
X52789362Y-76770032D01*
X52756732Y-76749529D01*
X52735023Y-76732217D01*
X52691698Y-76688892D01*
X52691690Y-76688884D01*
X52691683Y-76688877D01*
X52691659Y-76688855D01*
X52651441Y-76652728D01*
X52651429Y-76652718D01*
X52630778Y-76636076D01*
X52586896Y-76604433D01*
X52456022Y-76544663D01*
X52388977Y-76524976D01*
X52326914Y-76516053D01*
X52246560Y-76504500D01*
X52113440Y-76504500D01*
X52113438Y-76504500D01*
X52059389Y-76507397D01*
X52059388Y-76507397D01*
X52033055Y-76510229D01*
X52033028Y-76510232D01*
X51979632Y-76518885D01*
X51979630Y-76518885D01*
X51844825Y-76569166D01*
X51783500Y-76602651D01*
X51668322Y-76688873D01*
X51668309Y-76688884D01*
X51624974Y-76732218D01*
X51603268Y-76749528D01*
X51570637Y-76770032D01*
X51545618Y-76782081D01*
X51509243Y-76794809D01*
X51482172Y-76800987D01*
X51443882Y-76805301D01*
X51416116Y-76805301D01*
X51377826Y-76800987D01*
X51350755Y-76794809D01*
X51314380Y-76782081D01*
X51289362Y-76770032D01*
X51256732Y-76749529D01*
X51235023Y-76732217D01*
X51191698Y-76688892D01*
X51191690Y-76688884D01*
X51191683Y-76688877D01*
X51191659Y-76688855D01*
X51151441Y-76652728D01*
X51151429Y-76652718D01*
X51130778Y-76636076D01*
X51086896Y-76604433D01*
X50956022Y-76544663D01*
X50888977Y-76524976D01*
X50826914Y-76516053D01*
X50746560Y-76504500D01*
X50613440Y-76504500D01*
X50613438Y-76504500D01*
X50559389Y-76507397D01*
X50559388Y-76507397D01*
X50533055Y-76510229D01*
X50533028Y-76510232D01*
X50479632Y-76518885D01*
X50479630Y-76518885D01*
X50344825Y-76569166D01*
X50283500Y-76602651D01*
X50168322Y-76688873D01*
X50168309Y-76688884D01*
X50124974Y-76732218D01*
X50103268Y-76749528D01*
X50070637Y-76770032D01*
X50045618Y-76782081D01*
X50009243Y-76794809D01*
X49982172Y-76800987D01*
X49943882Y-76805301D01*
X49916116Y-76805301D01*
X49877826Y-76800987D01*
X49850755Y-76794809D01*
X49814380Y-76782081D01*
X49789362Y-76770032D01*
X49756732Y-76749529D01*
X49735023Y-76732217D01*
X49691698Y-76688892D01*
X49691690Y-76688884D01*
X49691683Y-76688877D01*
X49691659Y-76688855D01*
X49651441Y-76652728D01*
X49651429Y-76652718D01*
X49630778Y-76636076D01*
X49586896Y-76604433D01*
X49456022Y-76544663D01*
X49388977Y-76524976D01*
X49326914Y-76516053D01*
X49246560Y-76504500D01*
X49113440Y-76504500D01*
X49113438Y-76504500D01*
X49059389Y-76507397D01*
X49059388Y-76507397D01*
X49033055Y-76510229D01*
X49033028Y-76510232D01*
X48979632Y-76518885D01*
X48979630Y-76518885D01*
X48844825Y-76569166D01*
X48783500Y-76602651D01*
X48668322Y-76688873D01*
X48668309Y-76688884D01*
X48624974Y-76732218D01*
X48603268Y-76749528D01*
X48570637Y-76770032D01*
X48545618Y-76782081D01*
X48509243Y-76794809D01*
X48482172Y-76800987D01*
X48443882Y-76805301D01*
X48416116Y-76805301D01*
X48377826Y-76800987D01*
X48350755Y-76794809D01*
X48314380Y-76782081D01*
X48289362Y-76770032D01*
X48256732Y-76749529D01*
X48235023Y-76732217D01*
X48191698Y-76688892D01*
X48191690Y-76688884D01*
X48191683Y-76688877D01*
X48191659Y-76688855D01*
X48151441Y-76652728D01*
X48151429Y-76652718D01*
X48130778Y-76636076D01*
X48086896Y-76604433D01*
X47956022Y-76544663D01*
X47888977Y-76524976D01*
X47826914Y-76516053D01*
X47746560Y-76504500D01*
X47613440Y-76504500D01*
X47613438Y-76504500D01*
X47559389Y-76507397D01*
X47559388Y-76507397D01*
X47533055Y-76510229D01*
X47533028Y-76510232D01*
X47479632Y-76518885D01*
X47479630Y-76518885D01*
X47344825Y-76569166D01*
X47283500Y-76602651D01*
X47168322Y-76688873D01*
X47168309Y-76688884D01*
X47124974Y-76732218D01*
X47103268Y-76749528D01*
X47070637Y-76770032D01*
X47045618Y-76782081D01*
X47009243Y-76794809D01*
X46982172Y-76800987D01*
X46943882Y-76805301D01*
X46916116Y-76805301D01*
X46877826Y-76800987D01*
X46850755Y-76794809D01*
X46814380Y-76782081D01*
X46789362Y-76770032D01*
X46756732Y-76749529D01*
X46735023Y-76732217D01*
X46691698Y-76688892D01*
X46691690Y-76688884D01*
X46691683Y-76688877D01*
X46691659Y-76688855D01*
X46651441Y-76652728D01*
X46651429Y-76652718D01*
X46630778Y-76636076D01*
X46586896Y-76604433D01*
X46456022Y-76544663D01*
X46388977Y-76524976D01*
X46326914Y-76516053D01*
X46246560Y-76504500D01*
X46113440Y-76504500D01*
X46113438Y-76504500D01*
X46059389Y-76507397D01*
X46059388Y-76507397D01*
X46033055Y-76510229D01*
X46033028Y-76510232D01*
X45979632Y-76518885D01*
X45979630Y-76518885D01*
X45844825Y-76569166D01*
X45783500Y-76602651D01*
X45668322Y-76688873D01*
X45668309Y-76688884D01*
X45624974Y-76732218D01*
X45603268Y-76749528D01*
X45570637Y-76770032D01*
X45545618Y-76782081D01*
X45509243Y-76794809D01*
X45482172Y-76800987D01*
X45443882Y-76805301D01*
X45416116Y-76805301D01*
X45377826Y-76800987D01*
X45350755Y-76794809D01*
X45314380Y-76782081D01*
X45289362Y-76770032D01*
X45256732Y-76749529D01*
X45235023Y-76732217D01*
X45191698Y-76688892D01*
X45191690Y-76688884D01*
X45191683Y-76688877D01*
X45191659Y-76688855D01*
X45151441Y-76652728D01*
X45151429Y-76652718D01*
X45130778Y-76636076D01*
X45086896Y-76604433D01*
X44956022Y-76544663D01*
X44888977Y-76524976D01*
X44826914Y-76516053D01*
X44746560Y-76504500D01*
X44613440Y-76504500D01*
X44613438Y-76504500D01*
X44559389Y-76507397D01*
X44559388Y-76507397D01*
X44533055Y-76510229D01*
X44533028Y-76510232D01*
X44479632Y-76518885D01*
X44479630Y-76518885D01*
X44344825Y-76569166D01*
X44283500Y-76602651D01*
X44168322Y-76688873D01*
X44168309Y-76688884D01*
X44124974Y-76732218D01*
X44103268Y-76749528D01*
X44070637Y-76770032D01*
X44045618Y-76782081D01*
X44009243Y-76794809D01*
X43982172Y-76800987D01*
X43943882Y-76805301D01*
X43916116Y-76805301D01*
X43877826Y-76800987D01*
X43850755Y-76794809D01*
X43814380Y-76782081D01*
X43789362Y-76770032D01*
X43756732Y-76749529D01*
X43735023Y-76732217D01*
X43691698Y-76688892D01*
X43691690Y-76688884D01*
X43691683Y-76688877D01*
X43691659Y-76688855D01*
X43651441Y-76652728D01*
X43651429Y-76652718D01*
X43630778Y-76636076D01*
X43586896Y-76604433D01*
X43456022Y-76544663D01*
X43388977Y-76524976D01*
X43326914Y-76516053D01*
X43246560Y-76504500D01*
X43113440Y-76504500D01*
X43113438Y-76504500D01*
X43059389Y-76507397D01*
X43059388Y-76507397D01*
X43033055Y-76510229D01*
X43033028Y-76510232D01*
X42979632Y-76518885D01*
X42979630Y-76518885D01*
X42844825Y-76569166D01*
X42783500Y-76602651D01*
X42668322Y-76688873D01*
X42668309Y-76688884D01*
X42624974Y-76732218D01*
X42603268Y-76749528D01*
X42570637Y-76770032D01*
X42545618Y-76782081D01*
X42509243Y-76794809D01*
X42482172Y-76800987D01*
X42443882Y-76805301D01*
X42416116Y-76805301D01*
X42377826Y-76800987D01*
X42350755Y-76794809D01*
X42314380Y-76782081D01*
X42289362Y-76770032D01*
X42256732Y-76749529D01*
X42235023Y-76732217D01*
X42191698Y-76688892D01*
X42191690Y-76688884D01*
X42191683Y-76688877D01*
X42191659Y-76688855D01*
X42151441Y-76652728D01*
X42151429Y-76652718D01*
X42130778Y-76636076D01*
X42086896Y-76604433D01*
X41956022Y-76544663D01*
X41888977Y-76524976D01*
X41826914Y-76516053D01*
X41746560Y-76504500D01*
X41313440Y-76504500D01*
X41313438Y-76504500D01*
X41259389Y-76507397D01*
X41259388Y-76507397D01*
X41233055Y-76510229D01*
X41233028Y-76510232D01*
X41179632Y-76518885D01*
X41179630Y-76518885D01*
X41044825Y-76569166D01*
X40983500Y-76602651D01*
X40868322Y-76688873D01*
X40868309Y-76688884D01*
X40824974Y-76732218D01*
X40803268Y-76749528D01*
X40770637Y-76770032D01*
X40745618Y-76782081D01*
X40709243Y-76794809D01*
X40682172Y-76800987D01*
X40643882Y-76805301D01*
X40616116Y-76805301D01*
X40577826Y-76800987D01*
X40550755Y-76794809D01*
X40514380Y-76782081D01*
X40489362Y-76770032D01*
X40456732Y-76749529D01*
X40435023Y-76732217D01*
X40391698Y-76688892D01*
X40391690Y-76688884D01*
X40391683Y-76688877D01*
X40391659Y-76688855D01*
X40351441Y-76652728D01*
X40351429Y-76652718D01*
X40330778Y-76636076D01*
X40286896Y-76604433D01*
X40156022Y-76544663D01*
X40088977Y-76524976D01*
X40026914Y-76516053D01*
X39946560Y-76504500D01*
X39613440Y-76504500D01*
X39613438Y-76504500D01*
X39559389Y-76507397D01*
X39559388Y-76507397D01*
X39533055Y-76510229D01*
X39533028Y-76510232D01*
X39479632Y-76518885D01*
X39479630Y-76518885D01*
X39344825Y-76569166D01*
X39283500Y-76602651D01*
X39168322Y-76688873D01*
X39168309Y-76688884D01*
X39124974Y-76732218D01*
X39103268Y-76749528D01*
X39070637Y-76770032D01*
X39045618Y-76782081D01*
X39009243Y-76794809D01*
X38982172Y-76800987D01*
X38943882Y-76805301D01*
X38916116Y-76805301D01*
X38877826Y-76800987D01*
X38850755Y-76794809D01*
X38814380Y-76782081D01*
X38789362Y-76770032D01*
X38756732Y-76749529D01*
X38735023Y-76732217D01*
X38691698Y-76688892D01*
X38691690Y-76688884D01*
X38691683Y-76688877D01*
X38691659Y-76688855D01*
X38651441Y-76652728D01*
X38651429Y-76652718D01*
X38630778Y-76636076D01*
X38586896Y-76604433D01*
X38456022Y-76544663D01*
X38388977Y-76524976D01*
X38326914Y-76516053D01*
X38246560Y-76504500D01*
X38054000Y-76504500D01*
X37986961Y-76484815D01*
X37941206Y-76432011D01*
X37930000Y-76380500D01*
X37930000Y-66009983D01*
X38979500Y-66009983D01*
X38979500Y-67410001D01*
X38979501Y-67410018D01*
X38990000Y-67512796D01*
X38990001Y-67512799D01*
X39030495Y-67635000D01*
X39045186Y-67679334D01*
X39137288Y-67828656D01*
X39261344Y-67952712D01*
X39410666Y-68044814D01*
X39577203Y-68099999D01*
X39679991Y-68110500D01*
X39755500Y-68110499D01*
X39822538Y-68130183D01*
X39868294Y-68182986D01*
X39879500Y-68234499D01*
X39879500Y-69322298D01*
X39859815Y-69389337D01*
X39826625Y-69423872D01*
X39758595Y-69471507D01*
X39591505Y-69638597D01*
X39455965Y-69832169D01*
X39455964Y-69832171D01*
X39356098Y-70046335D01*
X39356094Y-70046344D01*
X39294938Y-70274586D01*
X39294936Y-70274596D01*
X39274341Y-70509999D01*
X39274341Y-70510000D01*
X39294936Y-70745403D01*
X39294938Y-70745413D01*
X39356094Y-70973655D01*
X39356096Y-70973659D01*
X39356097Y-70973663D01*
X39442521Y-71159000D01*
X39455965Y-71187830D01*
X39455967Y-71187834D01*
X39524004Y-71285000D01*
X39591501Y-71381396D01*
X39591506Y-71381402D01*
X39713818Y-71503714D01*
X39747303Y-71565037D01*
X39742319Y-71634729D01*
X39700447Y-71690662D01*
X39669471Y-71707577D01*
X39537912Y-71756646D01*
X39537906Y-71756649D01*
X39422812Y-71842809D01*
X39422809Y-71842812D01*
X39336649Y-71957906D01*
X39336645Y-71957913D01*
X39286403Y-72092620D01*
X39286401Y-72092627D01*
X39280000Y-72152155D01*
X39280000Y-72800000D01*
X40196988Y-72800000D01*
X40164075Y-72857007D01*
X40130000Y-72984174D01*
X40130000Y-73115826D01*
X40164075Y-73242993D01*
X40196988Y-73300000D01*
X39280000Y-73300000D01*
X39280000Y-73947844D01*
X39286401Y-74007372D01*
X39286403Y-74007379D01*
X39336645Y-74142086D01*
X39336649Y-74142093D01*
X39422809Y-74257187D01*
X39422812Y-74257190D01*
X39537906Y-74343350D01*
X39537913Y-74343354D01*
X39672620Y-74393596D01*
X39672627Y-74393598D01*
X39732155Y-74399999D01*
X39732172Y-74400000D01*
X40380000Y-74400000D01*
X40380000Y-73483012D01*
X40437007Y-73515925D01*
X40564174Y-73550000D01*
X40695826Y-73550000D01*
X40822993Y-73515925D01*
X40880000Y-73483012D01*
X40880000Y-74400000D01*
X41527828Y-74400000D01*
X41527844Y-74399999D01*
X41587372Y-74393598D01*
X41587379Y-74393596D01*
X41722086Y-74343354D01*
X41722093Y-74343350D01*
X41837187Y-74257190D01*
X41837190Y-74257187D01*
X41923350Y-74142093D01*
X41923354Y-74142086D01*
X41973596Y-74007379D01*
X41973598Y-74007372D01*
X41979999Y-73947844D01*
X41980000Y-73947827D01*
X41980000Y-73300000D01*
X41063012Y-73300000D01*
X41095925Y-73242993D01*
X41130000Y-73115826D01*
X41130000Y-72984174D01*
X41095925Y-72857007D01*
X41063012Y-72800000D01*
X41980000Y-72800000D01*
X41980000Y-72152172D01*
X41979999Y-72152155D01*
X41973598Y-72092627D01*
X41973596Y-72092620D01*
X41923354Y-71957913D01*
X41923350Y-71957906D01*
X41837190Y-71842812D01*
X41837187Y-71842809D01*
X41722093Y-71756649D01*
X41722088Y-71756646D01*
X41590528Y-71707577D01*
X41534595Y-71665705D01*
X41510178Y-71600241D01*
X41525030Y-71531968D01*
X41546175Y-71503720D01*
X41668495Y-71381401D01*
X41788521Y-71209986D01*
X46205001Y-71209986D01*
X46215494Y-71312697D01*
X46270641Y-71479119D01*
X46270643Y-71479124D01*
X46362684Y-71628345D01*
X46486654Y-71752315D01*
X46635875Y-71844356D01*
X46635880Y-71844358D01*
X46802302Y-71899505D01*
X46802309Y-71899506D01*
X46905019Y-71909999D01*
X47179999Y-71909999D01*
X47680000Y-71909999D01*
X47954972Y-71909999D01*
X47954986Y-71909998D01*
X48057697Y-71899505D01*
X48224119Y-71844358D01*
X48224130Y-71844353D01*
X48364903Y-71757523D01*
X48432295Y-71739082D01*
X48495097Y-71757523D01*
X48635869Y-71844353D01*
X48635880Y-71844358D01*
X48802302Y-71899505D01*
X48802309Y-71899506D01*
X48905019Y-71909999D01*
X49179999Y-71909999D01*
X49180000Y-71909998D01*
X49180000Y-71160000D01*
X47680000Y-71160000D01*
X47680000Y-71909999D01*
X47179999Y-71909999D01*
X47180000Y-71909998D01*
X47180000Y-71160000D01*
X46205001Y-71160000D01*
X46205001Y-71209986D01*
X41788521Y-71209986D01*
X41804035Y-71187830D01*
X41903903Y-70973663D01*
X41965063Y-70745408D01*
X41985659Y-70510000D01*
X41965063Y-70274592D01*
X41903903Y-70046337D01*
X41804035Y-69832171D01*
X41731554Y-69728656D01*
X41668494Y-69638597D01*
X41501404Y-69471507D01*
X41433375Y-69423872D01*
X41389751Y-69369294D01*
X41380500Y-69322298D01*
X41380500Y-68234499D01*
X41400185Y-68167460D01*
X41452989Y-68121705D01*
X41504500Y-68110499D01*
X41780002Y-68110499D01*
X41780008Y-68110499D01*
X41882797Y-68099999D01*
X42049334Y-68044814D01*
X42198656Y-67952712D01*
X42322712Y-67828656D01*
X42414814Y-67679334D01*
X42469999Y-67512797D01*
X42480500Y-67410009D01*
X42480499Y-66009992D01*
X42480498Y-66009983D01*
X42979500Y-66009983D01*
X42979500Y-67410001D01*
X42979501Y-67410018D01*
X42990000Y-67512796D01*
X42990001Y-67512799D01*
X43030495Y-67635000D01*
X43045186Y-67679334D01*
X43137288Y-67828656D01*
X43261344Y-67952712D01*
X43410666Y-68044814D01*
X43577203Y-68099999D01*
X43679991Y-68110500D01*
X45017769Y-68110499D01*
X45084808Y-68130184D01*
X45105450Y-68146818D01*
X46168181Y-69209549D01*
X46201666Y-69270872D01*
X46204500Y-69297222D01*
X46204500Y-69309998D01*
X46204501Y-69310018D01*
X46215001Y-69412797D01*
X46215001Y-69412799D01*
X46270185Y-69579331D01*
X46270186Y-69579334D01*
X46362288Y-69728656D01*
X46486344Y-69852712D01*
X46489628Y-69854737D01*
X46489653Y-69854753D01*
X46491445Y-69856746D01*
X46492011Y-69857193D01*
X46491934Y-69857289D01*
X46536379Y-69906699D01*
X46547603Y-69975661D01*
X46519761Y-70039744D01*
X46489665Y-70065826D01*
X46486660Y-70067679D01*
X46486655Y-70067683D01*
X46362684Y-70191654D01*
X46270643Y-70340875D01*
X46270641Y-70340880D01*
X46215494Y-70507302D01*
X46215493Y-70507309D01*
X46205000Y-70610013D01*
X46205000Y-70660000D01*
X49306000Y-70660000D01*
X49373039Y-70679685D01*
X49418794Y-70732489D01*
X49430000Y-70784000D01*
X49430000Y-70910000D01*
X49556000Y-70910000D01*
X49623039Y-70929685D01*
X49668794Y-70982489D01*
X49680000Y-71034000D01*
X49680000Y-71909999D01*
X49954972Y-71909999D01*
X49954986Y-71909998D01*
X50057695Y-71899506D01*
X50166164Y-71863562D01*
X50235992Y-71861160D01*
X50296034Y-71896891D01*
X50310707Y-71916171D01*
X50339424Y-71962728D01*
X50339427Y-71962732D01*
X50459267Y-72082572D01*
X50459271Y-72082575D01*
X50603507Y-72171542D01*
X50603518Y-72171547D01*
X50764393Y-72224855D01*
X50863683Y-72234999D01*
X51412000Y-72234999D01*
X51460308Y-72234999D01*
X51460322Y-72234998D01*
X51559607Y-72224855D01*
X51720481Y-72171547D01*
X51720492Y-72171542D01*
X51864728Y-72082575D01*
X51864732Y-72082572D01*
X51984572Y-71962732D01*
X51984575Y-71962728D01*
X52073542Y-71818492D01*
X52073547Y-71818481D01*
X52126855Y-71657606D01*
X52136999Y-71558322D01*
X52137000Y-71558309D01*
X52137000Y-71535000D01*
X51412000Y-71535000D01*
X51412000Y-72234999D01*
X50863683Y-72234999D01*
X50911999Y-72234998D01*
X50912000Y-72234998D01*
X50912000Y-71409000D01*
X50931685Y-71341961D01*
X50984489Y-71296206D01*
X51036000Y-71285000D01*
X51162000Y-71285000D01*
X51162000Y-71159000D01*
X51181685Y-71091961D01*
X51234489Y-71046206D01*
X51286000Y-71035000D01*
X52136999Y-71035000D01*
X52136999Y-71011692D01*
X52136998Y-71011677D01*
X52126855Y-70912392D01*
X52073547Y-70751518D01*
X52073542Y-70751507D01*
X51984575Y-70607271D01*
X51984572Y-70607267D01*
X51975339Y-70598034D01*
X51941854Y-70536711D01*
X51946838Y-70467019D01*
X51975343Y-70422668D01*
X51984968Y-70413044D01*
X52074003Y-70268697D01*
X52127349Y-70107708D01*
X52127707Y-70104203D01*
X52128533Y-70102177D01*
X52128766Y-70101091D01*
X52128959Y-70101132D01*
X52154095Y-70039512D01*
X52211272Y-69999354D01*
X52281083Y-69996484D01*
X52338746Y-70029115D01*
X53643181Y-71333548D01*
X53676666Y-71394871D01*
X53679500Y-71421229D01*
X53679500Y-72554767D01*
X53679501Y-72554789D01*
X53682258Y-72589822D01*
X53682258Y-72589823D01*
X53725829Y-72739796D01*
X53725830Y-72739799D01*
X53805330Y-72874227D01*
X53805337Y-72874236D01*
X53915763Y-72984662D01*
X53915767Y-72984665D01*
X53915769Y-72984667D01*
X54050199Y-73064169D01*
X54089750Y-73075659D01*
X54200173Y-73107741D01*
X54200176Y-73107741D01*
X54200178Y-73107742D01*
X54235221Y-73110500D01*
X55724778Y-73110499D01*
X55759822Y-73107742D01*
X55909801Y-73064169D01*
X56044231Y-72984667D01*
X56154667Y-72874231D01*
X56234169Y-72739801D01*
X56277742Y-72589822D01*
X56280500Y-72554779D01*
X56280499Y-69465222D01*
X56277742Y-69430178D01*
X56234169Y-69280199D01*
X56157940Y-69151303D01*
X56154669Y-69145772D01*
X56154662Y-69145763D01*
X56044236Y-69035337D01*
X56044227Y-69035330D01*
X55909799Y-68955830D01*
X55909796Y-68955829D01*
X55759826Y-68912258D01*
X55759820Y-68912257D01*
X55724785Y-68909500D01*
X54367095Y-68909500D01*
X54300056Y-68889815D01*
X54254301Y-68837011D01*
X54244357Y-68767853D01*
X54273382Y-68704297D01*
X54279393Y-68697841D01*
X55110520Y-67866716D01*
X55113429Y-67861677D01*
X65755000Y-67861677D01*
X65755000Y-67885000D01*
X66480000Y-67885000D01*
X66480000Y-67185000D01*
X66479999Y-67184999D01*
X66431693Y-67185000D01*
X66431675Y-67185001D01*
X66332392Y-67195144D01*
X66171518Y-67248452D01*
X66171507Y-67248457D01*
X66027271Y-67337424D01*
X66027267Y-67337427D01*
X65907427Y-67457267D01*
X65907424Y-67457271D01*
X65818457Y-67601507D01*
X65818452Y-67601518D01*
X65765144Y-67762393D01*
X65755000Y-67861677D01*
X55113429Y-67861677D01*
X55189577Y-67729784D01*
X55230501Y-67577057D01*
X55230501Y-67418942D01*
X55230501Y-67411347D01*
X55230500Y-67411329D01*
X55230500Y-65850004D01*
X55250185Y-65782965D01*
X55289403Y-65744465D01*
X55308044Y-65732968D01*
X55427968Y-65613044D01*
X55517003Y-65468697D01*
X55570349Y-65307708D01*
X55580500Y-65208345D01*
X55580499Y-64611656D01*
X55577727Y-64584523D01*
X55570349Y-64512292D01*
X55570348Y-64512289D01*
X55517003Y-64351303D01*
X55516999Y-64351297D01*
X55516998Y-64351294D01*
X55427970Y-64206959D01*
X55427967Y-64206955D01*
X55308044Y-64087032D01*
X55308040Y-64087029D01*
X55163705Y-63998001D01*
X55163699Y-63997998D01*
X55163697Y-63997997D01*
X55160577Y-63996963D01*
X55002709Y-63944651D01*
X54903346Y-63934500D01*
X54356662Y-63934500D01*
X54356644Y-63934501D01*
X54257292Y-63944650D01*
X54257289Y-63944651D01*
X54096305Y-63997996D01*
X54096294Y-63998001D01*
X53951959Y-64087029D01*
X53951955Y-64087032D01*
X53942681Y-64096307D01*
X53881358Y-64129792D01*
X53811666Y-64124808D01*
X53767319Y-64096307D01*
X53758044Y-64087032D01*
X53758040Y-64087029D01*
X53613705Y-63998001D01*
X53613699Y-63997998D01*
X53613697Y-63997997D01*
X53610577Y-63996963D01*
X53452709Y-63944651D01*
X53353346Y-63934500D01*
X52806662Y-63934500D01*
X52806644Y-63934501D01*
X52707292Y-63944650D01*
X52707289Y-63944651D01*
X52546305Y-63997996D01*
X52546294Y-63998001D01*
X52401959Y-64087029D01*
X52401955Y-64087032D01*
X52282032Y-64206955D01*
X52282029Y-64206959D01*
X52193001Y-64351294D01*
X52192996Y-64351305D01*
X52139651Y-64512290D01*
X52129500Y-64611647D01*
X52129500Y-64862434D01*
X52109815Y-64929473D01*
X52057011Y-64975228D01*
X51987853Y-64985172D01*
X51924297Y-64956147D01*
X51891271Y-64907531D01*
X51890812Y-64907753D01*
X51889326Y-64904668D01*
X51888460Y-64903393D01*
X51887790Y-64901480D01*
X51887789Y-64901478D01*
X51791816Y-64748738D01*
X51664262Y-64621184D01*
X51649079Y-64611644D01*
X51511523Y-64525211D01*
X51341254Y-64465631D01*
X51341249Y-64465630D01*
X51162004Y-64445435D01*
X51161996Y-64445435D01*
X50982750Y-64465630D01*
X50982745Y-64465631D01*
X50812476Y-64525211D01*
X50659737Y-64621184D01*
X50532184Y-64748737D01*
X50436209Y-64901479D01*
X50417384Y-64955279D01*
X50376662Y-65012054D01*
X50311709Y-65037801D01*
X50243148Y-65024344D01*
X50212662Y-65002004D01*
X50140188Y-64929530D01*
X50103797Y-64907531D01*
X49994606Y-64841522D01*
X49832196Y-64790914D01*
X49832194Y-64790913D01*
X49832192Y-64790913D01*
X49782778Y-64786423D01*
X49761616Y-64784500D01*
X49098384Y-64784500D01*
X49079145Y-64786248D01*
X49027807Y-64790913D01*
X48865393Y-64841522D01*
X48719811Y-64929530D01*
X48599530Y-65049811D01*
X48511522Y-65195393D01*
X48460913Y-65357807D01*
X48459334Y-65375185D01*
X48454500Y-65428384D01*
X48454500Y-65941616D01*
X48455866Y-65956650D01*
X48460913Y-66012192D01*
X48511522Y-66174606D01*
X48599530Y-66320188D01*
X48701661Y-66422319D01*
X48735146Y-66483642D01*
X48730162Y-66553334D01*
X48701661Y-66597681D01*
X48599531Y-66699810D01*
X48599530Y-66699811D01*
X48511522Y-66845393D01*
X48460913Y-67007807D01*
X48455782Y-67064275D01*
X48454500Y-67078384D01*
X48454500Y-67591616D01*
X48455380Y-67601303D01*
X48460913Y-67662192D01*
X48460913Y-67662194D01*
X48460914Y-67662196D01*
X48511522Y-67824606D01*
X48592000Y-67957733D01*
X48609836Y-68025285D01*
X48588319Y-68091759D01*
X48550980Y-68127420D01*
X48495097Y-68161889D01*
X48427705Y-68180329D01*
X48364904Y-68161889D01*
X48224340Y-68075189D01*
X48224335Y-68075187D01*
X48224334Y-68075186D01*
X48057797Y-68020001D01*
X48057795Y-68020000D01*
X47955016Y-68009500D01*
X47955009Y-68009500D01*
X47481225Y-68009500D01*
X47433773Y-68000061D01*
X47308912Y-67948342D01*
X47308906Y-67948340D01*
X47163919Y-67919500D01*
X47163917Y-67919500D01*
X47052229Y-67919500D01*
X46985190Y-67899815D01*
X46964548Y-67883181D01*
X46516818Y-67435451D01*
X46483333Y-67374128D01*
X46480499Y-67347770D01*
X46480499Y-66009998D01*
X46480498Y-66009981D01*
X46469999Y-65907203D01*
X46469998Y-65907200D01*
X46462807Y-65885498D01*
X46414814Y-65740666D01*
X46322712Y-65591344D01*
X46198656Y-65467288D01*
X46049334Y-65375186D01*
X45882797Y-65320001D01*
X45882795Y-65320000D01*
X45780010Y-65309500D01*
X43679998Y-65309500D01*
X43679981Y-65309501D01*
X43577203Y-65320000D01*
X43577200Y-65320001D01*
X43410668Y-65375185D01*
X43410663Y-65375187D01*
X43261342Y-65467289D01*
X43137289Y-65591342D01*
X43045187Y-65740663D01*
X43045185Y-65740668D01*
X43022157Y-65810162D01*
X42990001Y-65907203D01*
X42990001Y-65907204D01*
X42990000Y-65907204D01*
X42979500Y-66009983D01*
X42480498Y-66009983D01*
X42469999Y-65907203D01*
X42414814Y-65740666D01*
X42322712Y-65591344D01*
X42198656Y-65467288D01*
X42049334Y-65375186D01*
X41882797Y-65320001D01*
X41882795Y-65320000D01*
X41780010Y-65309500D01*
X39679998Y-65309500D01*
X39679981Y-65309501D01*
X39577203Y-65320000D01*
X39577200Y-65320001D01*
X39410668Y-65375185D01*
X39410663Y-65375187D01*
X39261342Y-65467289D01*
X39137289Y-65591342D01*
X39045187Y-65740663D01*
X39045185Y-65740668D01*
X39022157Y-65810162D01*
X38990001Y-65907203D01*
X38990001Y-65907204D01*
X38990000Y-65907204D01*
X38979500Y-66009983D01*
X37930000Y-66009983D01*
X37930000Y-62865258D01*
X37949685Y-62798219D01*
X38002489Y-62752464D01*
X38071647Y-62742520D01*
X38135203Y-62771545D01*
X38171931Y-62826940D01*
X38194125Y-62895247D01*
X38194127Y-62895252D01*
X38322704Y-63168491D01*
X38322707Y-63168497D01*
X38484516Y-63423469D01*
X38565311Y-63521133D01*
X39493708Y-62592736D01*
X39590967Y-62726602D01*
X39713398Y-62849033D01*
X39847262Y-62946290D01*
X38916564Y-63876987D01*
X38916565Y-63876989D01*
X39141461Y-64040385D01*
X39141479Y-64040397D01*
X39406109Y-64185878D01*
X39406117Y-64185882D01*
X39686889Y-64297047D01*
X39686892Y-64297048D01*
X39979399Y-64372150D01*
X40278995Y-64409999D01*
X40279007Y-64410000D01*
X40580993Y-64410000D01*
X40581004Y-64409999D01*
X40880600Y-64372150D01*
X41173107Y-64297048D01*
X41173110Y-64297047D01*
X41453882Y-64185882D01*
X41453890Y-64185878D01*
X41718520Y-64040397D01*
X41718530Y-64040390D01*
X41943433Y-63876987D01*
X41943434Y-63876987D01*
X41012737Y-62946290D01*
X41146602Y-62849033D01*
X41269033Y-62726602D01*
X41366290Y-62592737D01*
X42294687Y-63521134D01*
X42375486Y-63423464D01*
X42537292Y-63168497D01*
X42537295Y-63168491D01*
X42614969Y-63003427D01*
X67155000Y-63003427D01*
X67155000Y-63010000D01*
X67880000Y-63010000D01*
X68380000Y-63010000D01*
X69104999Y-63010000D01*
X69104999Y-63003417D01*
X69098591Y-62932897D01*
X69098590Y-62932892D01*
X69048018Y-62770603D01*
X68960072Y-62625122D01*
X68839877Y-62504927D01*
X68694395Y-62416980D01*
X68694396Y-62416980D01*
X68532105Y-62366409D01*
X68532106Y-62366409D01*
X68461572Y-62360000D01*
X68380000Y-62360000D01*
X68380000Y-63010000D01*
X67880000Y-63010000D01*
X67880000Y-62360000D01*
X67879999Y-62359999D01*
X67798417Y-62360000D01*
X67727897Y-62366408D01*
X67727892Y-62366409D01*
X67565603Y-62416981D01*
X67420122Y-62504927D01*
X67299927Y-62625122D01*
X67211980Y-62770604D01*
X67161409Y-62932893D01*
X67155000Y-63003427D01*
X42614969Y-63003427D01*
X42665872Y-62895252D01*
X42665874Y-62895247D01*
X42759194Y-62608040D01*
X42815783Y-62311390D01*
X42815784Y-62311383D01*
X42834745Y-62010005D01*
X42834745Y-62009994D01*
X42815784Y-61708616D01*
X42815783Y-61708609D01*
X42759194Y-61411959D01*
X42665874Y-61124752D01*
X42665872Y-61124747D01*
X42537295Y-60851508D01*
X42537292Y-60851502D01*
X42375483Y-60596530D01*
X42294686Y-60498864D01*
X41366289Y-61427261D01*
X41269033Y-61293398D01*
X41146602Y-61170967D01*
X41012736Y-61073709D01*
X41943434Y-60143011D01*
X41943433Y-60143009D01*
X41718538Y-59979614D01*
X41718520Y-59979602D01*
X41453890Y-59834121D01*
X41453882Y-59834117D01*
X41239636Y-59749292D01*
X41184550Y-59706311D01*
X41161447Y-59640372D01*
X41177660Y-59572410D01*
X41228043Y-59524002D01*
X41285283Y-59510000D01*
X74574717Y-59510000D01*
X74641756Y-59529685D01*
G37*
%TD.AperFunction*%
%TA.AperFunction,Conductor*%
G36*
X39641756Y-59529685D02*
G01*
X39687511Y-59582489D01*
X39697455Y-59651647D01*
X39668430Y-59715203D01*
X39620364Y-59749292D01*
X39406117Y-59834117D01*
X39406109Y-59834121D01*
X39141476Y-59979604D01*
X39141471Y-59979607D01*
X38916565Y-60143010D01*
X38916564Y-60143011D01*
X39847262Y-61073709D01*
X39713398Y-61170967D01*
X39590967Y-61293398D01*
X39493709Y-61427262D01*
X38565311Y-60498864D01*
X38484520Y-60596525D01*
X38484518Y-60596528D01*
X38322707Y-60851502D01*
X38322704Y-60851508D01*
X38194127Y-61124747D01*
X38194125Y-61124752D01*
X38171931Y-61193059D01*
X38132493Y-61250735D01*
X38068135Y-61277933D01*
X37999288Y-61266018D01*
X37947813Y-61218774D01*
X37930000Y-61154741D01*
X37930000Y-59634000D01*
X37949685Y-59566961D01*
X38002489Y-59521206D01*
X38054000Y-59510000D01*
X39574717Y-59510000D01*
X39641756Y-59529685D01*
G37*
%TD.AperFunction*%
%TA.AperFunction,Conductor*%
G36*
X77873039Y-59529685D02*
G01*
X77918794Y-59582489D01*
X77930000Y-59634000D01*
X77930000Y-61154741D01*
X77910315Y-61221780D01*
X77857511Y-61267535D01*
X77788353Y-61277479D01*
X77724797Y-61248454D01*
X77688069Y-61193059D01*
X77665874Y-61124752D01*
X77665872Y-61124747D01*
X77537295Y-60851508D01*
X77537292Y-60851502D01*
X77375483Y-60596530D01*
X77294686Y-60498864D01*
X76366289Y-61427261D01*
X76269033Y-61293398D01*
X76146602Y-61170967D01*
X76012736Y-61073709D01*
X76943434Y-60143011D01*
X76943433Y-60143009D01*
X76718538Y-59979614D01*
X76718520Y-59979602D01*
X76453890Y-59834121D01*
X76453882Y-59834117D01*
X76239636Y-59749292D01*
X76184550Y-59706311D01*
X76161447Y-59640372D01*
X76177660Y-59572410D01*
X76228043Y-59524002D01*
X76285283Y-59510000D01*
X77806000Y-59510000D01*
X77873039Y-59529685D01*
G37*
%TD.AperFunction*%
%TD*%
M02*
