<?xml version="1.0" standalone="no"?>
 <!DOCTYPE svg PUBLIC "-//W3C//DTD SVG 1.1//EN" 
 "http://www.w3.org/Graphics/SVG/1.1/DTD/svg11.dtd"> 
<svg
  xmlns:svg="http://www.w3.org/2000/svg"
  xmlns="http://www.w3.org/2000/svg"
  xmlns:xlink="http://www.w3.org/1999/xlink"
  version="1.1"
  width="40.1066mm" height="45.0342mm" viewBox="0.0000 0.0000 40.1066 45.0342">
<title>SVG Image created as LedDimmer-B_Mask.svg date 2025/06/23 11:32:29 </title>
  <desc>Image generated by PCBNEW </desc>
<g style="fill:#000000; fill-opacity:1.0000;stroke:#000000; stroke-opacity:1.0000;
stroke-linecap:round; stroke-linejoin:round;"
 transform="translate(0 0) scale(1 1)">
</g>
<g style="fill:#000000; fill-opacity:1.0000; stroke:none;">
<circle cx="2.5250" cy="2.5250" r="1.3000" /> 
</g>
<g style="fill:#000000; fill-opacity:1.0000; stroke:none;">
<circle cx="2.5250" cy="2.5250" r="1.9000" /> 
</g>
<g style="fill:#000000; fill-opacity:1.0000; stroke:none;">
<circle cx="29.8250" cy="33.4250" r="0.5000" /> 
</g>
<g style="fill:#000000; fill-opacity:1.0000; stroke:none;">
<circle cx="19.8250" cy="31.4250" r="0.5000" /> 
<path style="fill:#000000; fill-opacity:1.0000; stroke:none;fill-rule:evenodd;"
d="M 38.6450,28.0000
38.6450,29.7000
36.9450,29.7000
36.9450,28.0000
Z" /> 
</g>
<g style="fill:#000000; fill-opacity:1.0000; stroke:none;">
<circle cx="37.7950" cy="26.3100" r="0.8500" /> 
<circle cx="37.7950" cy="23.7700" r="0.8500" /> 
<circle cx="37.5250" cy="42.5250" r="1.3000" /> 
</g>
<g style="fill:#000000; fill-opacity:1.0000; stroke:none;">
<circle cx="37.5250" cy="42.5250" r="1.9000" /> 
<path style="fill:#000000; fill-opacity:1.0000; stroke:none;fill-rule:evenodd;"
d="M 1.9450,21.4650
1.9450,19.7650
3.6450,19.7650
3.6450,21.4650
Z" /> 
</g>
<g style="fill:#000000; fill-opacity:1.0000; stroke:none;">
<circle cx="2.7950" cy="23.1550" r="0.8500" /> 
<circle cx="2.7950" cy="25.6950" r="0.8500" /> 
<path style="fill:#000000; fill-opacity:1.0000; stroke:none;fill-rule:evenodd;"
d="M 3.5750,12.7150
3.5750,14.4150
1.8750,14.4150
1.8750,12.7150
Z" /> 
<circle cx="2.7250" cy="11.0250" r="0.8500" /> 
<circle cx="19.8250" cy="33.4250" r="0.5000" /> 
</g>
<g style="fill:#000000; fill-opacity:1.0000; stroke:none;">
<circle cx="29.8250" cy="31.4250" r="0.5000" /> 
</g>
<g style="fill:#000000; fill-opacity:1.0000; stroke:none;">
<circle cx="29.8250" cy="29.4250" r="0.5000" /> 
</g>
<g style="fill:#000000; fill-opacity:1.0000; stroke:none;">
<circle cx="2.5250" cy="42.5250" r="1.3000" /> 
</g>
<g style="fill:#000000; fill-opacity:1.0000; stroke:none;">
<circle cx="2.5250" cy="42.5250" r="1.9000" /> 
<path style="fill:#000000; fill-opacity:1.0000; stroke:none;fill-rule:evenodd;"
d="M 38.6450,35.0150
38.6450,36.7150
36.9450,36.7150
36.9450,35.0150
Z" /> 
</g>
<g style="fill:#000000; fill-opacity:1.0000; stroke:none;">
<circle cx="37.7950" cy="33.3250" r="0.8500" /> 
<circle cx="19.8250" cy="35.4250" r="0.5000" /> 
<path style="fill:#000000; fill-opacity:1.0000; stroke:none;fill-rule:evenodd;"
d="M 38.6450,18.8900
38.6450,20.5900
36.9450,20.5900
36.9450,18.8900
Z" /> 
</g>
<g style="fill:#000000; fill-opacity:1.0000; stroke:none;">
<circle cx="37.7950" cy="17.2000" r="0.8500" /> 
<circle cx="37.7950" cy="14.6600" r="0.8500" /> 
<circle cx="19.8250" cy="29.4250" r="0.5000" /> 
<path style="fill:#000000; fill-opacity:1.0000; stroke:none;fill-rule:evenodd;"
d="M 1.9450,31.1400
1.9450,29.4400
3.6450,29.4400
3.6450,31.1400
Z" /> 
</g>
<g style="fill:#000000; fill-opacity:1.0000; stroke:none;">
<circle cx="2.7950" cy="32.8300" r="0.8500" /> 
<circle cx="2.7950" cy="35.3700" r="0.8500" /> 
<circle cx="19.8250" cy="37.4250" r="0.5000" /> 
</g>
<g style="fill:#000000; fill-opacity:1.0000; stroke:none;">
<circle cx="37.5250" cy="2.5250" r="1.3000" /> 
</g>
<g style="fill:#000000; fill-opacity:1.0000; stroke:none;">
<circle cx="37.5250" cy="2.5250" r="1.9000" /> 
<path style="fill:none; 
stroke:#000000; stroke-width:0.0500; stroke-opacity:1; 
stroke-linecap:round; stroke-linejoin:round;fill:none"
d="M 0.0250,0.0250
40.0250,0.0250
40.0250,45.0250
0.0250,45.0250
Z" /> 
</g> 
</svg>
