<?xml version="1.0" standalone="no"?>
 <!DOCTYPE svg PUBLIC "-//W3C//DTD SVG 1.1//EN" 
 "http://www.w3.org/Graphics/SVG/1.1/DTD/svg11.dtd"> 
<svg
  xmlns:svg="http://www.w3.org/2000/svg"
  xmlns="http://www.w3.org/2000/svg"
  xmlns:xlink="http://www.w3.org/1999/xlink"
  version="1.1"
  width="40.1066mm" height="45.0342mm" viewBox="0.0000 0.0000 40.1066 45.0342">
<title>SVG Image created as LedDimmer-F_Mask.svg date 2025/06/12 11:51:23 </title>
  <desc>Image generated by PCBNEW </desc>
<g style="fill:#000000; fill-opacity:1.0000;stroke:#000000; stroke-opacity:1.0000;
stroke-linecap:round; stroke-linejoin:round;"
 transform="translate(0 0) scale(1 1)">
<path style="fill:#000000; fill-opacity:1.0000; stroke:none;fill-rule:evenodd;"
d="M 18.1000,32.3000
18.1765,32.3152
18.2414,32.3586
18.2848,32.4235
18.3000,32.5000
18.3000,32.9000
18.2848,32.9765
18.2414,33.0414
18.1765,33.0848
18.1000,33.1000
17.5500,33.1000
17.4735,33.0848
17.4086,33.0414
17.3652,32.9765
17.3500,32.9000
17.3500,32.5000
17.3652,32.4235
17.4086,32.3586
17.4735,32.3152
17.5500,32.3000
Z" /> 
<path style="fill:#000000; fill-opacity:1.0000; stroke:none;fill-rule:evenodd;"
d="M 18.1000,33.9500
18.1765,33.9652
18.2414,34.0086
18.2848,34.0735
18.3000,34.1500
18.3000,34.5500
18.2848,34.6265
18.2414,34.6914
18.1765,34.7348
18.1000,34.7500
17.5500,34.7500
17.4735,34.7348
17.4086,34.6914
17.3652,34.6265
17.3500,34.5500
17.3500,34.1500
17.3652,34.0735
17.4086,34.0086
17.4735,33.9652
17.5500,33.9500
Z" /> 
<path style="fill:#000000; fill-opacity:1.0000; stroke:none;fill-rule:evenodd;"
d="M 15.9500,34.7500
15.8735,34.7348
15.8086,34.6914
15.7652,34.6265
15.7500,34.5500
15.7500,34.1500
15.7652,34.0735
15.8086,34.0086
15.8735,33.9652
15.9500,33.9500
16.5000,33.9500
16.5765,33.9652
16.6414,34.0086
16.6848,34.0735
16.7000,34.1500
16.7000,34.5500
16.6848,34.6265
16.6414,34.6914
16.5765,34.7348
16.5000,34.7500
Z" /> 
<path style="fill:#000000; fill-opacity:1.0000; stroke:none;fill-rule:evenodd;"
d="M 15.9500,33.1000
15.8735,33.0848
15.8086,33.0414
15.7652,32.9765
15.7500,32.9000
15.7500,32.5000
15.7652,32.4235
15.8086,32.3586
15.8735,32.3152
15.9500,32.3000
16.5000,32.3000
16.5765,32.3152
16.6414,32.3586
16.6848,32.4235
16.7000,32.5000
16.7000,32.9000
16.6848,32.9765
16.6414,33.0414
16.5765,33.0848
16.5000,33.1000
Z" /> 
<path style="fill:#000000; fill-opacity:1.0000; stroke:none;fill-rule:evenodd;"
d="M 18.0000,25.6000
18.0765,25.6152
18.1414,25.6586
18.1848,25.7235
18.2000,25.8000
18.2000,26.2000
18.1848,26.2765
18.1414,26.3414
18.0765,26.3848
18.0000,26.4000
17.4500,26.4000
17.3735,26.3848
17.3086,26.3414
17.2652,26.2765
17.2500,26.2000
17.2500,25.8000
17.2652,25.7235
17.3086,25.6586
17.3735,25.6152
17.4500,25.6000
Z" /> 
<path style="fill:#000000; fill-opacity:1.0000; stroke:none;fill-rule:evenodd;"
d="M 18.0000,27.2500
18.0765,27.2652
18.1414,27.3086
18.1848,27.3735
18.2000,27.4500
18.2000,27.8500
18.1848,27.9265
18.1414,27.9914
18.0765,28.0348
18.0000,28.0500
17.4500,28.0500
17.3735,28.0348
17.3086,27.9914
17.2652,27.9265
17.2500,27.8500
17.2500,27.4500
17.2652,27.3735
17.3086,27.3086
17.3735,27.2652
17.4500,27.2500
Z" /> 
<path style="fill:#000000; fill-opacity:1.0000; stroke:none;fill-rule:evenodd;"
d="M 18.0000,28.6250
18.0765,28.6402
18.1414,28.6836
18.1848,28.7485
18.2000,28.8250
18.2000,29.2250
18.1848,29.3015
18.1414,29.3664
18.0765,29.4098
18.0000,29.4250
17.4500,29.4250
17.3735,29.4098
17.3086,29.3664
17.2652,29.3015
17.2500,29.2250
17.2500,28.8250
17.2652,28.7485
17.3086,28.6836
17.3735,28.6402
17.4500,28.6250
Z" /> 
<path style="fill:#000000; fill-opacity:1.0000; stroke:none;fill-rule:evenodd;"
d="M 18.0000,30.2750
18.0765,30.2902
18.1414,30.3336
18.1848,30.3985
18.2000,30.4750
18.2000,30.8750
18.1848,30.9515
18.1414,31.0164
18.0765,31.0598
18.0000,31.0750
17.4500,31.0750
17.3735,31.0598
17.3086,31.0164
17.2652,30.9515
17.2500,30.8750
17.2500,30.4750
17.2652,30.3985
17.3086,30.3336
17.3735,30.2902
17.4500,30.2750
Z" /> 
<path style="fill:#000000; fill-opacity:1.0000; stroke:none;fill-rule:evenodd;"
d="M 14.7250,5.1750
14.7421,5.0889
14.7909,5.0159
14.8639,4.9671
14.9500,4.9500
15.4000,4.9500
15.4861,4.9671
15.5591,5.0159
15.6079,5.0889
15.6250,5.1750
15.6250,5.6750
15.6079,5.7611
15.5591,5.8341
15.4861,5.8829
15.4000,5.9000
14.9500,5.9000
14.8639,5.8829
14.7909,5.8341
14.7421,5.7611
14.7250,5.6750
Z" /> 
<path style="fill:#000000; fill-opacity:1.0000; stroke:none;fill-rule:evenodd;"
d="M 16.2750,5.1750
16.2921,5.0889
16.3409,5.0159
16.4139,4.9671
16.5000,4.9500
16.9500,4.9500
17.0361,4.9671
17.1091,5.0159
17.1579,5.0889
17.1750,5.1750
17.1750,5.6750
17.1579,5.7611
17.1091,5.8341
17.0361,5.8829
16.9500,5.9000
16.5000,5.9000
16.4139,5.8829
16.3409,5.8341
16.2921,5.7611
16.2750,5.6750
Z" /> 
</g>
<g style="fill:#000000; fill-opacity:1.0000; stroke:none;">
<circle cx="2.5250" cy="2.5250" r="1.3000" /> 
</g>
<g style="fill:#000000; fill-opacity:1.0000; stroke:none;">
<circle cx="2.5250" cy="2.5250" r="1.9000" /> 
<path style="fill:#000000; fill-opacity:1.0000; stroke:none;fill-rule:evenodd;"
d="M 5.4450,34.8650
5.4640,34.7693
5.5182,34.6882
5.5993,34.6340
5.6950,34.6150
7.6950,34.6150
7.7907,34.6340
7.8718,34.6882
7.9260,34.7693
7.9450,34.8650
7.9450,36.1650
7.9260,36.2607
7.8718,36.3418
7.7907,36.3960
7.6950,36.4150
5.6950,36.4150
5.5993,36.3960
5.5182,36.3418
5.4640,36.2607
5.4450,36.1650
Z" /> 
<path style="fill:#000000; fill-opacity:1.0000; stroke:none;fill-rule:evenodd;"
d="M 9.4450,34.8650
9.4640,34.7693
9.5182,34.6882
9.5993,34.6340
9.6950,34.6150
11.6950,34.6150
11.7907,34.6340
11.8718,34.6882
11.9260,34.7693
11.9450,34.8650
11.9450,36.1650
11.9260,36.2607
11.8718,36.3418
11.7907,36.3960
11.6950,36.4150
9.6950,36.4150
9.5993,36.3960
9.5182,36.3418
9.4640,36.2607
9.4450,36.1650
Z" /> 
<path style="fill:#000000; fill-opacity:1.0000; stroke:none;fill-rule:evenodd;"
d="M 38.6450,27.6650
38.6450,29.3650
36.9450,29.3650
36.9450,27.6650
Z" /> 
</g>
<g style="fill:#000000; fill-opacity:1.0000; stroke:none;">
<circle cx="37.7950" cy="25.9750" r="0.8500" /> 
<circle cx="37.7950" cy="23.4350" r="0.8500" /> 
<path style="fill:#000000; fill-opacity:1.0000; stroke:none;fill-rule:evenodd;"
d="M 24.8387,28.3400
24.7550,28.3233
24.6841,28.2759
24.6367,28.2050
24.6200,28.1212
24.6200,27.6837
24.6367,27.6000
24.6841,27.5291
24.7550,27.4817
24.8387,27.4650
25.3513,27.4650
25.4350,27.4817
25.5059,27.5291
25.5533,27.6000
25.5700,27.6837
25.5700,28.1212
25.5533,28.2050
25.5059,28.2759
25.4350,28.3233
25.3513,28.3400
Z" /> 
<path style="fill:#000000; fill-opacity:1.0000; stroke:none;fill-rule:evenodd;"
d="M 24.8387,26.7650
24.7550,26.7483
24.6841,26.7009
24.6367,26.6300
24.6200,26.5463
24.6200,26.1088
24.6367,26.0250
24.6841,25.9541
24.7550,25.9067
24.8387,25.8900
25.3513,25.8900
25.4350,25.9067
25.5059,25.9541
25.5533,26.0250
25.5700,26.1088
25.5700,26.5463
25.5533,26.6300
25.5059,26.7009
25.4350,26.7483
25.3513,26.7650
Z" /> 
<path style="fill:#000000; fill-opacity:1.0000; stroke:none;fill-rule:evenodd;"
d="M 21.3950,26.1400
21.4102,26.0635
21.4536,25.9986
21.5185,25.9552
21.5950,25.9400
21.9950,25.9400
22.0715,25.9552
22.1364,25.9986
22.1798,26.0635
22.1950,26.1400
22.1950,26.6900
22.1798,26.7665
22.1364,26.8314
22.0715,26.8748
21.9950,26.8900
21.5950,26.8900
21.5185,26.8748
21.4536,26.8314
21.4102,26.7665
21.3950,26.6900
Z" /> 
<path style="fill:#000000; fill-opacity:1.0000; stroke:none;fill-rule:evenodd;"
d="M 23.0450,26.1400
23.0602,26.0635
23.1036,25.9986
23.1685,25.9552
23.2450,25.9400
23.6450,25.9400
23.7215,25.9552
23.7864,25.9986
23.8298,26.0635
23.8450,26.1400
23.8450,26.6900
23.8298,26.7665
23.7864,26.8314
23.7215,26.8748
23.6450,26.8900
23.2450,26.8900
23.1685,26.8748
23.1036,26.8314
23.0602,26.7665
23.0450,26.6900
Z" /> 
<path style="fill:#000000; fill-opacity:1.0000; stroke:none;fill-rule:evenodd;"
d="M 14.3450,19.9150
14.3298,19.9915
14.2864,20.0564
14.2215,20.0998
14.1450,20.1150
13.7450,20.1150
13.6685,20.0998
13.6036,20.0564
13.5602,19.9915
13.5450,19.9150
13.5450,19.3650
13.5602,19.2885
13.6036,19.2236
13.6685,19.1802
13.7450,19.1650
14.1450,19.1650
14.2215,19.1802
14.2864,19.2236
14.3298,19.2885
14.3450,19.3650
Z" /> 
<path style="fill:#000000; fill-opacity:1.0000; stroke:none;fill-rule:evenodd;"
d="M 12.6950,19.9150
12.6798,19.9915
12.6364,20.0564
12.5715,20.0998
12.4950,20.1150
12.0950,20.1150
12.0185,20.0998
11.9536,20.0564
11.9102,19.9915
11.8950,19.9150
11.8950,19.3650
11.9102,19.2885
11.9536,19.2236
12.0185,19.1802
12.0950,19.1650
12.4950,19.1650
12.5715,19.1802
12.6364,19.2236
12.6798,19.2885
12.6950,19.3650
Z" /> 
<path style="fill:#000000; fill-opacity:1.0000; stroke:none;fill-rule:evenodd;"
d="M 5.6450,25.2900
5.6640,25.1943
5.7182,25.1132
5.7993,25.0590
5.8950,25.0400
7.8950,25.0400
7.9907,25.0590
8.0718,25.1132
8.1260,25.1943
8.1450,25.2900
8.1450,26.5900
8.1260,26.6857
8.0718,26.7668
7.9907,26.8210
7.8950,26.8400
5.8950,26.8400
5.7993,26.8210
5.7182,26.7668
5.6640,26.6857
5.6450,26.5900
Z" /> 
<path style="fill:#000000; fill-opacity:1.0000; stroke:none;fill-rule:evenodd;"
d="M 9.6450,25.2900
9.6640,25.1943
9.7182,25.1132
9.7993,25.0590
9.8950,25.0400
11.8950,25.0400
11.9907,25.0590
12.0718,25.1132
12.1260,25.1943
12.1450,25.2900
12.1450,26.5900
12.1260,26.6857
12.0718,26.7668
11.9907,26.8210
11.8950,26.8400
9.8950,26.8400
9.7993,26.8210
9.7182,26.7668
9.6640,26.6857
9.6450,26.5900
Z" /> 
<circle cx="37.5250" cy="42.5250" r="1.3000" /> 
</g>
<g style="fill:#000000; fill-opacity:1.0000; stroke:none;">
<circle cx="37.5250" cy="42.5250" r="1.9000" /> 
<path style="fill:#000000; fill-opacity:1.0000; stroke:none;fill-rule:evenodd;"
d="M 35.0500,27.7750
35.0329,27.8611
34.9841,27.9341
34.9111,27.9829
34.8250,28.0000
34.3750,28.0000
34.2889,27.9829
34.2159,27.9341
34.1671,27.8611
34.1500,27.7750
34.1500,27.2750
34.1671,27.1889
34.2159,27.1159
34.2889,27.0671
34.3750,27.0500
34.8250,27.0500
34.9111,27.0671
34.9841,27.1159
35.0329,27.1889
35.0500,27.2750
Z" /> 
<path style="fill:#000000; fill-opacity:1.0000; stroke:none;fill-rule:evenodd;"
d="M 33.5000,27.7750
33.4829,27.8611
33.4341,27.9341
33.3611,27.9829
33.2750,28.0000
32.8250,28.0000
32.7389,27.9829
32.6659,27.9341
32.6171,27.8611
32.6000,27.7750
32.6000,27.2750
32.6171,27.1889
32.6659,27.1159
32.7389,27.0671
32.8250,27.0500
33.2750,27.0500
33.3611,27.0671
33.4341,27.1159
33.4829,27.1889
33.5000,27.2750
Z" /> 
<path style="fill:#000000; fill-opacity:1.0000; stroke:none;fill-rule:evenodd;"
d="M 35.0200,26.1900
35.0048,26.2665
34.9614,26.3314
34.8965,26.3748
34.8200,26.3900
34.4200,26.3900
34.3435,26.3748
34.2786,26.3314
34.2352,26.2665
34.2200,26.1900
34.2200,25.6400
34.2352,25.5635
34.2786,25.4986
34.3435,25.4552
34.4200,25.4400
34.8200,25.4400
34.8965,25.4552
34.9614,25.4986
35.0048,25.5635
35.0200,25.6400
Z" /> 
<path style="fill:#000000; fill-opacity:1.0000; stroke:none;fill-rule:evenodd;"
d="M 33.3700,26.1900
33.3548,26.2665
33.3114,26.3314
33.2465,26.3748
33.1700,26.3900
32.7700,26.3900
32.6935,26.3748
32.6286,26.3314
32.5852,26.2665
32.5700,26.1900
32.5700,25.6400
32.5852,25.5635
32.6286,25.4986
32.6935,25.4552
32.7700,25.4400
33.1700,25.4400
33.2465,25.4552
33.3114,25.4986
33.3548,25.5635
33.3700,25.6400
Z" /> 
<path style="fill:#000000; fill-opacity:1.0000; stroke:none;fill-rule:evenodd;"
d="M 28.8450,37.4650
28.7589,37.4479
28.6859,37.3991
28.6371,37.3261
28.6200,37.2400
28.6200,36.7900
28.6371,36.7039
28.6859,36.6309
28.7589,36.5821
28.8450,36.5650
29.3450,36.5650
29.4311,36.5821
29.5041,36.6309
29.5529,36.7039
29.5700,36.7900
29.5700,37.2400
29.5529,37.3261
29.5041,37.3991
29.4311,37.4479
29.3450,37.4650
Z" /> 
<path style="fill:#000000; fill-opacity:1.0000; stroke:none;fill-rule:evenodd;"
d="M 28.8450,35.9150
28.7589,35.8979
28.6859,35.8491
28.6371,35.7761
28.6200,35.6900
28.6200,35.2400
28.6371,35.1539
28.6859,35.0809
28.7589,35.0321
28.8450,35.0150
29.3450,35.0150
29.4311,35.0321
29.5041,35.0809
29.5529,35.1539
29.5700,35.2400
29.5700,35.6900
29.5529,35.7761
29.5041,35.8491
29.4311,35.8979
29.3450,35.9150
Z" /> 
<path style="fill:#000000; fill-opacity:1.0000; stroke:none;fill-rule:evenodd;"
d="M 1.9450,21.4650
1.9450,19.7650
3.6450,19.7650
3.6450,21.4650
Z" /> 
</g>
<g style="fill:#000000; fill-opacity:1.0000; stroke:none;">
<circle cx="2.7950" cy="23.1550" r="0.8500" /> 
<circle cx="2.7950" cy="25.6950" r="0.8500" /> 
<path style="fill:#000000; fill-opacity:1.0000; stroke:none;fill-rule:evenodd;"
d="M 13.0070,12.2500
12.9209,12.2329
12.8479,12.1841
12.7991,12.1111
12.7820,12.0250
12.7820,11.5750
12.7991,11.4889
12.8479,11.4159
12.9209,11.3671
13.0070,11.3500
13.5070,11.3500
13.5931,11.3671
13.6661,11.4159
13.7149,11.4889
13.7320,11.5750
13.7320,12.0250
13.7149,12.1111
13.6661,12.1841
13.5931,12.2329
13.5070,12.2500
Z" /> 
<path style="fill:#000000; fill-opacity:1.0000; stroke:none;fill-rule:evenodd;"
d="M 13.0070,10.7000
12.9209,10.6829
12.8479,10.6341
12.7991,10.5611
12.7820,10.4750
12.7820,10.0250
12.7991,9.9389
12.8479,9.8659
12.9209,9.8171
13.0070,9.8000
13.5070,9.8000
13.5931,9.8171
13.6661,9.8659
13.7149,9.9389
13.7320,10.0250
13.7320,10.4750
13.7149,10.5611
13.6661,10.6341
13.5931,10.6829
13.5070,10.7000
Z" /> 
<path style="fill:#000000; fill-opacity:1.0000; stroke:none;fill-rule:evenodd;"
d="M 11.8700,32.9150
11.8586,32.9724
11.8261,33.0211
11.7774,33.0536
11.7200,33.0650
10.5450,33.0650
10.4876,33.0536
10.4389,33.0211
10.4064,32.9724
10.3950,32.9150
10.3950,32.6150
10.4064,32.5576
10.4389,32.5089
10.4876,32.4764
10.5450,32.4650
11.7200,32.4650
11.7774,32.4764
11.8261,32.5089
11.8586,32.5576
11.8700,32.6150
Z" /> 
<path style="fill:#000000; fill-opacity:1.0000; stroke:none;fill-rule:evenodd;"
d="M 11.8700,31.0150
11.8586,31.0724
11.8261,31.1211
11.7774,31.1536
11.7200,31.1650
10.5450,31.1650
10.4876,31.1536
10.4389,31.1211
10.4064,31.0724
10.3950,31.0150
10.3950,30.7150
10.4064,30.6576
10.4389,30.6089
10.4876,30.5764
10.5450,30.5650
11.7200,30.5650
11.7774,30.5764
11.8261,30.6089
11.8586,30.6576
11.8700,30.7150
Z" /> 
<path style="fill:#000000; fill-opacity:1.0000; stroke:none;fill-rule:evenodd;"
d="M 9.9950,31.9650
9.9836,32.0224
9.9511,32.0711
9.9024,32.1036
9.8450,32.1150
8.6700,32.1150
8.6126,32.1036
8.5639,32.0711
8.5314,32.0224
8.5200,31.9650
8.5200,31.6650
8.5314,31.6076
8.5639,31.5589
8.6126,31.5264
8.6700,31.5150
9.8450,31.5150
9.9024,31.5264
9.9511,31.5589
9.9836,31.6076
9.9950,31.6650
Z" /> 
<path style="fill:#000000; fill-opacity:1.0000; stroke:none;fill-rule:evenodd;"
d="M 21.3450,29.7600
21.3564,29.7026
21.3889,29.6539
21.4376,29.6214
21.4950,29.6100
23.1450,29.6100
23.2024,29.6214
23.2511,29.6539
23.2836,29.7026
23.2950,29.7600
23.2950,30.0600
23.2836,30.1174
23.2511,30.1661
23.2024,30.1986
23.1450,30.2100
21.4950,30.2100
21.4376,30.1986
21.3889,30.1661
21.3564,30.1174
21.3450,30.0600
Z" /> 
<path style="fill:#000000; fill-opacity:1.0000; stroke:none;fill-rule:evenodd;"
d="M 21.3450,31.0300
21.3564,30.9726
21.3889,30.9239
21.4376,30.8914
21.4950,30.8800
23.1450,30.8800
23.2024,30.8914
23.2511,30.9239
23.2836,30.9726
23.2950,31.0300
23.2950,31.3300
23.2836,31.3874
23.2511,31.4361
23.2024,31.4686
23.1450,31.4800
21.4950,31.4800
21.4376,31.4686
21.3889,31.4361
21.3564,31.3874
21.3450,31.3300
Z" /> 
<path style="fill:#000000; fill-opacity:1.0000; stroke:none;fill-rule:evenodd;"
d="M 21.3450,32.3000
21.3564,32.2426
21.3889,32.1939
21.4376,32.1614
21.4950,32.1500
23.1450,32.1500
23.2024,32.1614
23.2511,32.1939
23.2836,32.2426
23.2950,32.3000
23.2950,32.6000
23.2836,32.6574
23.2511,32.7061
23.2024,32.7386
23.1450,32.7500
21.4950,32.7500
21.4376,32.7386
21.3889,32.7061
21.3564,32.6574
21.3450,32.6000
Z" /> 
<path style="fill:#000000; fill-opacity:1.0000; stroke:none;fill-rule:evenodd;"
d="M 21.3450,33.5700
21.3564,33.5126
21.3889,33.4639
21.4376,33.4314
21.4950,33.4200
23.1450,33.4200
23.2024,33.4314
23.2511,33.4639
23.2836,33.5126
23.2950,33.5700
23.2950,33.8700
23.2836,33.9274
23.2511,33.9761
23.2024,34.0086
23.1450,34.0200
21.4950,34.0200
21.4376,34.0086
21.3889,33.9761
21.3564,33.9274
21.3450,33.8700
Z" /> 
<path style="fill:#000000; fill-opacity:1.0000; stroke:none;fill-rule:evenodd;"
d="M 26.2950,33.5700
26.3064,33.5126
26.3389,33.4639
26.3876,33.4314
26.4450,33.4200
28.0950,33.4200
28.1524,33.4314
28.2011,33.4639
28.2336,33.5126
28.2450,33.5700
28.2450,33.8700
28.2336,33.9274
28.2011,33.9761
28.1524,34.0086
28.0950,34.0200
26.4450,34.0200
26.3876,34.0086
26.3389,33.9761
26.3064,33.9274
26.2950,33.8700
Z" /> 
<path style="fill:#000000; fill-opacity:1.0000; stroke:none;fill-rule:evenodd;"
d="M 26.2950,32.3000
26.3064,32.2426
26.3389,32.1939
26.3876,32.1614
26.4450,32.1500
28.0950,32.1500
28.1524,32.1614
28.2011,32.1939
28.2336,32.2426
28.2450,32.3000
28.2450,32.6000
28.2336,32.6574
28.2011,32.7061
28.1524,32.7386
28.0950,32.7500
26.4450,32.7500
26.3876,32.7386
26.3389,32.7061
26.3064,32.6574
26.2950,32.6000
Z" /> 
<path style="fill:#000000; fill-opacity:1.0000; stroke:none;fill-rule:evenodd;"
d="M 26.2950,31.0300
26.3064,30.9726
26.3389,30.9239
26.3876,30.8914
26.4450,30.8800
28.0950,30.8800
28.1524,30.8914
28.2011,30.9239
28.2336,30.9726
28.2450,31.0300
28.2450,31.3300
28.2336,31.3874
28.2011,31.4361
28.1524,31.4686
28.0950,31.4800
26.4450,31.4800
26.3876,31.4686
26.3389,31.4361
26.3064,31.3874
26.2950,31.3300
Z" /> 
<path style="fill:#000000; fill-opacity:1.0000; stroke:none;fill-rule:evenodd;"
d="M 26.2950,29.7600
26.3064,29.7026
26.3389,29.6539
26.3876,29.6214
26.4450,29.6100
28.0950,29.6100
28.1524,29.6214
28.2011,29.6539
28.2336,29.7026
28.2450,29.7600
28.2450,30.0600
28.2336,30.1174
28.2011,30.1661
28.1524,30.1986
28.0950,30.2100
26.4450,30.2100
26.3876,30.1986
26.3389,30.1661
26.3064,30.1174
26.2950,30.0600
Z" /> 
<path style="fill:#000000; fill-opacity:1.0000; stroke:none;fill-rule:evenodd;"
d="M 32.4250,7.3000
32.4098,7.3765
32.3664,7.4414
32.3015,7.4848
32.2250,7.5000
31.8250,7.5000
31.7485,7.4848
31.6836,7.4414
31.6402,7.3765
31.6250,7.3000
31.6250,6.7500
31.6402,6.6735
31.6836,6.6086
31.7485,6.5652
31.8250,6.5500
32.2250,6.5500
32.3015,6.5652
32.3664,6.6086
32.4098,6.6735
32.4250,6.7500
Z" /> 
<path style="fill:#000000; fill-opacity:1.0000; stroke:none;fill-rule:evenodd;"
d="M 30.7750,7.3000
30.7598,7.3765
30.7164,7.4414
30.6515,7.4848
30.5750,7.5000
30.1750,7.5000
30.0985,7.4848
30.0336,7.4414
29.9902,7.3765
29.9750,7.3000
29.9750,6.7500
29.9902,6.6735
30.0336,6.6086
30.0985,6.5652
30.1750,6.5500
30.5750,6.5500
30.6515,6.5652
30.7164,6.6086
30.7598,6.6735
30.7750,6.7500
Z" /> 
<path style="fill:#000000; fill-opacity:1.0000; stroke:none;fill-rule:evenodd;"
d="M 23.8200,28.2650
23.8029,28.3511
23.7541,28.4241
23.6811,28.4729
23.5950,28.4900
23.1450,28.4900
23.0589,28.4729
22.9859,28.4241
22.9371,28.3511
22.9200,28.2650
22.9200,27.7650
22.9371,27.6789
22.9859,27.6059
23.0589,27.5571
23.1450,27.5400
23.5950,27.5400
23.6811,27.5571
23.7541,27.6059
23.8029,27.6789
23.8200,27.7650
Z" /> 
<path style="fill:#000000; fill-opacity:1.0000; stroke:none;fill-rule:evenodd;"
d="M 22.2700,28.2650
22.2529,28.3511
22.2041,28.4241
22.1311,28.4729
22.0450,28.4900
21.5950,28.4900
21.5089,28.4729
21.4359,28.4241
21.3871,28.3511
21.3700,28.2650
21.3700,27.7650
21.3871,27.6789
21.4359,27.6059
21.5089,27.5571
21.5950,27.5400
22.0450,27.5400
22.1311,27.5571
22.2041,27.6059
22.2529,27.6789
22.2700,27.7650
Z" /> 
<path style="fill:#000000; fill-opacity:1.0000; stroke:none;fill-rule:evenodd;"
d="M 11.2500,8.2500
11.1735,8.2348
11.1086,8.1914
11.0652,8.1265
11.0500,8.0500
11.0500,7.6500
11.0652,7.5735
11.1086,7.5086
11.1735,7.4652
11.2500,7.4500
11.8000,7.4500
11.8765,7.4652
11.9414,7.5086
11.9848,7.5735
12.0000,7.6500
12.0000,8.0500
11.9848,8.1265
11.9414,8.1914
11.8765,8.2348
11.8000,8.2500
Z" /> 
<path style="fill:#000000; fill-opacity:1.0000; stroke:none;fill-rule:evenodd;"
d="M 11.2500,6.6000
11.1735,6.5848
11.1086,6.5414
11.0652,6.4765
11.0500,6.4000
11.0500,6.0000
11.0652,5.9235
11.1086,5.8586
11.1735,5.8152
11.2500,5.8000
11.8000,5.8000
11.8765,5.8152
11.9414,5.8586
11.9848,5.9235
12.0000,6.0000
12.0000,6.4000
11.9848,6.4765
11.9414,6.5414
11.8765,6.5848
11.8000,6.6000
Z" /> 
<path style="fill:#000000; fill-opacity:1.0000; stroke:none;fill-rule:evenodd;"
d="M 3.5750,12.7150
3.5750,14.4150
1.8750,14.4150
1.8750,12.7150
Z" /> 
<circle cx="2.7250" cy="11.0250" r="0.8500" /> 
<path style="fill:#000000; fill-opacity:1.0000; stroke:none;fill-rule:evenodd;"
d="M 29.9500,5.8250
29.8735,5.8098
29.8086,5.7664
29.7652,5.7015
29.7500,5.6250
29.7500,5.2250
29.7652,5.1485
29.8086,5.0836
29.8735,5.0402
29.9500,5.0250
30.5000,5.0250
30.5765,5.0402
30.6414,5.0836
30.6848,5.1485
30.7000,5.2250
30.7000,5.6250
30.6848,5.7015
30.6414,5.7664
30.5765,5.8098
30.5000,5.8250
Z" /> 
<path style="fill:#000000; fill-opacity:1.0000; stroke:none;fill-rule:evenodd;"
d="M 29.9500,4.1750
29.8735,4.1598
29.8086,4.1164
29.7652,4.0515
29.7500,3.9750
29.7500,3.5750
29.7652,3.4985
29.8086,3.4336
29.8735,3.3902
29.9500,3.3750
30.5000,3.3750
30.5765,3.3902
30.6414,3.4336
30.6848,3.4985
30.7000,3.5750
30.7000,3.9750
30.6848,4.0515
30.6414,4.1164
30.5765,4.1598
30.5000,4.1750
Z" /> 
<path style="fill:#000000; fill-opacity:1.0000; stroke:none;fill-rule:evenodd;"
d="M 16.2750,10.0426
16.2840,9.9976
16.3095,9.9595
16.3476,9.9340
16.3926,9.9250
17.7574,9.9250
17.8024,9.9340
17.8405,9.9595
17.8660,9.9976
17.8750,10.0426
17.8750,13.0074
17.8660,13.0524
17.8405,13.0905
17.8024,13.1160
17.7574,13.1250
16.3926,13.1250
16.3476,13.1160
16.3095,13.0905
16.2840,13.0524
16.2750,13.0074
Z" /> 
<path style="fill:#000000; fill-opacity:1.0000; stroke:none;fill-rule:evenodd;"
d="M 25.1750,10.0426
25.1840,9.9976
25.2095,9.9595
25.2476,9.9340
25.2926,9.9250
26.6574,9.9250
26.7024,9.9340
26.7405,9.9595
26.7660,9.9976
26.7750,10.0426
26.7750,13.0074
26.7660,13.0524
26.7405,13.0905
26.7024,13.1160
26.6574,13.1250
25.2926,13.1250
25.2476,13.1160
25.2095,13.0905
25.1840,13.0524
25.1750,13.0074
Z" /> 
<path style="fill:#000000; fill-opacity:1.0000; stroke:none;fill-rule:evenodd;"
d="M 25.4700,35.1400
25.4852,35.0635
25.5286,34.9986
25.5935,34.9552
25.6700,34.9400
26.0700,34.9400
26.1465,34.9552
26.2114,34.9986
26.2548,35.0635
26.2700,35.1400
26.2700,35.6900
26.2548,35.7665
26.2114,35.8314
26.1465,35.8748
26.0700,35.8900
25.6700,35.8900
25.5935,35.8748
25.5286,35.8314
25.4852,35.7665
25.4700,35.6900
Z" /> 
<path style="fill:#000000; fill-opacity:1.0000; stroke:none;fill-rule:evenodd;"
d="M 27.1200,35.1400
27.1352,35.0635
27.1786,34.9986
27.2435,34.9552
27.3200,34.9400
27.7200,34.9400
27.7965,34.9552
27.8614,34.9986
27.9048,35.0635
27.9200,35.1400
27.9200,35.6900
27.9048,35.7665
27.8614,35.8314
27.7965,35.8748
27.7200,35.8900
27.3200,35.8900
27.2435,35.8748
27.1786,35.8314
27.1352,35.7665
27.1200,35.6900
Z" /> 
<path style="fill:#000000; fill-opacity:1.0000; stroke:none;fill-rule:evenodd;"
d="M 30.0750,10.6500
29.9889,10.6329
29.9159,10.5841
29.8671,10.5111
29.8500,10.4250
29.8500,9.9750
29.8671,9.8889
29.9159,9.8159
29.9889,9.7671
30.0750,9.7500
30.5750,9.7500
30.6611,9.7671
30.7341,9.8159
30.7829,9.8889
30.8000,9.9750
30.8000,10.4250
30.7829,10.5111
30.7341,10.5841
30.6611,10.6329
30.5750,10.6500
Z" /> 
<path style="fill:#000000; fill-opacity:1.0000; stroke:none;fill-rule:evenodd;"
d="M 30.0750,9.1000
29.9889,9.0829
29.9159,9.0341
29.8671,8.9611
29.8500,8.8750
29.8500,8.4250
29.8671,8.3389
29.9159,8.2659
29.9889,8.2171
30.0750,8.2000
30.5750,8.2000
30.6611,8.2171
30.7341,8.2659
30.7829,8.3389
30.8000,8.4250
30.8000,8.8750
30.7829,8.9611
30.7341,9.0341
30.6611,9.0829
30.5750,9.1000
Z" /> 
<path style="fill:#000000; fill-opacity:1.0000; stroke:none;fill-rule:evenodd;"
d="M 7.4700,31.0525
7.4614,31.0956
7.4370,31.1320
7.4006,31.1564
7.3575,31.1650
7.1325,31.1650
7.0894,31.1564
7.0530,31.1320
7.0286,31.0956
7.0200,31.0525
7.0200,30.5775
7.0286,30.5344
7.0530,30.4979
7.0894,30.4736
7.1325,30.4650
7.3575,30.4650
7.4006,30.4736
7.4370,30.4979
7.4614,30.5344
7.4700,30.5775
Z" /> 
<path style="fill:#000000; fill-opacity:1.0000; stroke:none;fill-rule:evenodd;"
d="M 6.1700,31.0525
6.1614,31.0956
6.1370,31.1320
6.1006,31.1564
6.0575,31.1650
5.8325,31.1650
5.7894,31.1564
5.7529,31.1320
5.7286,31.0956
5.7200,31.0525
5.7200,30.5775
5.7286,30.5344
5.7529,30.4979
5.7894,30.4736
5.8325,30.4650
6.0575,30.4650
6.1006,30.4736
6.1370,30.4979
6.1614,30.5344
6.1700,30.5775
Z" /> 
<path style="fill:#000000; fill-opacity:1.0000; stroke:none;fill-rule:evenodd;"
d="M 6.8200,33.0525
6.8114,33.0956
6.7870,33.1320
6.7506,33.1564
6.7075,33.1650
6.4825,33.1650
6.4394,33.1564
6.4029,33.1320
6.3786,33.0956
6.3700,33.0525
6.3700,32.5775
6.3786,32.5344
6.4029,32.4979
6.4394,32.4736
6.4825,32.4650
6.7075,32.4650
6.7506,32.4736
6.7870,32.4979
6.8114,32.5344
6.8200,32.5775
Z" /> 
<path style="fill:#000000; fill-opacity:1.0000; stroke:none;fill-rule:evenodd;"
d="M 28.5750,10.6500
28.4889,10.6329
28.4159,10.5841
28.3671,10.5111
28.3500,10.4250
28.3500,9.9750
28.3671,9.8889
28.4159,9.8159
28.4889,9.7671
28.5750,9.7500
29.0750,9.7500
29.1611,9.7671
29.2341,9.8159
29.2829,9.8889
29.3000,9.9750
29.3000,10.4250
29.2829,10.5111
29.2341,10.5841
29.1611,10.6329
29.0750,10.6500
Z" /> 
<path style="fill:#000000; fill-opacity:1.0000; stroke:none;fill-rule:evenodd;"
d="M 28.5750,9.1000
28.4889,9.0829
28.4159,9.0341
28.3671,8.9611
28.3500,8.8750
28.3500,8.4250
28.3671,8.3389
28.4159,8.2659
28.4889,8.2171
28.5750,8.2000
29.0750,8.2000
29.1611,8.2171
29.2341,8.2659
29.2829,8.3389
29.3000,8.4250
29.3000,8.8750
29.2829,8.9611
29.2341,9.0341
29.1611,9.0829
29.0750,9.1000
Z" /> 
<circle cx="2.5250" cy="42.5250" r="1.3000" /> 
</g>
<g style="fill:#000000; fill-opacity:1.0000; stroke:none;">
<circle cx="2.5250" cy="42.5250" r="1.9000" /> 
<path style="fill:#000000; fill-opacity:1.0000; stroke:none;fill-rule:evenodd;"
d="M 8.5575,28.9587
8.5742,28.8750
8.6216,28.8041
8.6925,28.7567
8.7762,28.7400
9.2137,28.7400
9.2975,28.7567
9.3684,28.8041
9.4158,28.8750
9.4325,28.9587
9.4325,29.4712
9.4158,29.5550
9.3684,29.6259
9.2975,29.6733
9.2137,29.6900
8.7762,29.6900
8.6925,29.6733
8.6216,29.6259
8.5742,29.5550
8.5575,29.4712
Z" /> 
<path style="fill:#000000; fill-opacity:1.0000; stroke:none;fill-rule:evenodd;"
d="M 10.1325,28.9587
10.1492,28.8750
10.1966,28.8041
10.2675,28.7567
10.3513,28.7400
10.7888,28.7400
10.8725,28.7567
10.9434,28.8041
10.9908,28.8750
11.0075,28.9587
11.0075,29.4712
10.9908,29.5550
10.9434,29.6259
10.8725,29.6733
10.7888,29.6900
10.3513,29.6900
10.2675,29.6733
10.1966,29.6259
10.1492,29.5550
10.1325,29.4712
Z" /> 
<path style="fill:#000000; fill-opacity:1.0000; stroke:none;fill-rule:evenodd;"
d="M 13.9950,29.4900
13.9798,29.5665
13.9364,29.6314
13.8715,29.6748
13.7950,29.6900
13.3950,29.6900
13.3185,29.6748
13.2536,29.6314
13.2102,29.5665
13.1950,29.4900
13.1950,28.9400
13.2102,28.8635
13.2536,28.7986
13.3185,28.7552
13.3950,28.7400
13.7950,28.7400
13.8715,28.7552
13.9364,28.7986
13.9798,28.8635
13.9950,28.9400
Z" /> 
<path style="fill:#000000; fill-opacity:1.0000; stroke:none;fill-rule:evenodd;"
d="M 12.3450,29.4900
12.3298,29.5665
12.2864,29.6314
12.2215,29.6748
12.1450,29.6900
11.7450,29.6900
11.6685,29.6748
11.6036,29.6314
11.5602,29.5665
11.5450,29.4900
11.5450,28.9400
11.5602,28.8635
11.6036,28.7986
11.6685,28.7552
11.7450,28.7400
12.1450,28.7400
12.2215,28.7552
12.2864,28.7986
12.3298,28.8635
12.3450,28.9400
Z" /> 
<path style="fill:#000000; fill-opacity:1.0000; stroke:none;fill-rule:evenodd;"
d="M 38.6450,35.0150
38.6450,36.7150
36.9450,36.7150
36.9450,35.0150
Z" /> 
</g>
<g style="fill:#000000; fill-opacity:1.0000; stroke:none;">
<circle cx="37.7950" cy="33.3250" r="0.8500" /> 
<path style="fill:#000000; fill-opacity:1.0000; stroke:none;fill-rule:evenodd;"
d="M 12.0700,23.2900
12.0586,23.3474
12.0261,23.3961
11.9774,23.4286
11.9200,23.4400
10.7450,23.4400
10.6876,23.4286
10.6389,23.3961
10.6064,23.3474
10.5950,23.2900
10.5950,22.9900
10.6064,22.9326
10.6389,22.8839
10.6876,22.8514
10.7450,22.8400
11.9200,22.8400
11.9774,22.8514
12.0261,22.8839
12.0586,22.9326
12.0700,22.9900
Z" /> 
<path style="fill:#000000; fill-opacity:1.0000; stroke:none;fill-rule:evenodd;"
d="M 12.0700,21.3900
12.0586,21.4474
12.0261,21.4961
11.9774,21.5286
11.9200,21.5400
10.7450,21.5400
10.6876,21.5286
10.6389,21.4961
10.6064,21.4474
10.5950,21.3900
10.5950,21.0900
10.6064,21.0326
10.6389,20.9839
10.6876,20.9514
10.7450,20.9400
11.9200,20.9400
11.9774,20.9514
12.0261,20.9839
12.0586,21.0326
12.0700,21.0900
Z" /> 
<path style="fill:#000000; fill-opacity:1.0000; stroke:none;fill-rule:evenodd;"
d="M 10.1950,22.3400
10.1836,22.3974
10.1511,22.4461
10.1024,22.4786
10.0450,22.4900
8.8700,22.4900
8.8126,22.4786
8.7639,22.4461
8.7314,22.3974
8.7200,22.3400
8.7200,22.0400
8.7314,21.9826
8.7639,21.9339
8.8126,21.9014
8.8700,21.8900
10.0450,21.8900
10.1024,21.9014
10.1511,21.9339
10.1836,21.9826
10.1950,22.0400
Z" /> 
<path style="fill:#000000; fill-opacity:1.0000; stroke:none;fill-rule:evenodd;"
d="M 31.6500,10.6500
31.5735,10.6348
31.5086,10.5914
31.4652,10.5265
31.4500,10.4500
31.4500,10.0500
31.4652,9.9735
31.5086,9.9086
31.5735,9.8652
31.6500,9.8500
32.2000,9.8500
32.2765,9.8652
32.3414,9.9086
32.3848,9.9735
32.4000,10.0500
32.4000,10.4500
32.3848,10.5265
32.3414,10.5914
32.2765,10.6348
32.2000,10.6500
Z" /> 
<path style="fill:#000000; fill-opacity:1.0000; stroke:none;fill-rule:evenodd;"
d="M 31.6500,9.0000
31.5735,8.9848
31.5086,8.9414
31.4652,8.8765
31.4500,8.8000
31.4500,8.4000
31.4652,8.3235
31.5086,8.2586
31.5735,8.2152
31.6500,8.2000
32.2000,8.2000
32.2765,8.2152
32.3414,8.2586
32.3848,8.3235
32.4000,8.4000
32.4000,8.8000
32.3848,8.8765
32.3414,8.9414
32.2765,8.9848
32.2000,9.0000
Z" /> 
<path style="fill:#000000; fill-opacity:1.0000; stroke:none;fill-rule:evenodd;"
d="M 8.0750,7.8750
8.0560,7.9707
8.0018,8.0518
7.9207,8.1060
7.8250,8.1250
5.8250,8.1250
5.7293,8.1060
5.6482,8.0518
5.5940,7.9707
5.5750,7.8750
5.5750,6.5750
5.5940,6.4793
5.6482,6.3982
5.7293,6.3440
5.8250,6.3250
7.8250,6.3250
7.9207,6.3440
8.0018,6.3982
8.0560,6.4793
8.0750,6.5750
Z" /> 
<path style="fill:#000000; fill-opacity:1.0000; stroke:none;fill-rule:evenodd;"
d="M 4.0750,7.8750
4.0560,7.9707
4.0018,8.0518
3.9207,8.1060
3.8250,8.1250
1.8250,8.1250
1.7293,8.1060
1.6482,8.0518
1.5940,7.9707
1.5750,7.8750
1.5750,6.5750
1.5940,6.4793
1.6482,6.3982
1.7293,6.3440
1.8250,6.3250
3.8250,6.3250
3.9207,6.3440
4.0018,6.3982
4.0560,6.4793
4.0750,6.5750
Z" /> 
<path style="fill:#000000; fill-opacity:1.0000; stroke:none;fill-rule:evenodd;"
d="M 28.5750,13.6500
28.4889,13.6329
28.4159,13.5841
28.3671,13.5111
28.3500,13.4250
28.3500,12.9750
28.3671,12.8889
28.4159,12.8159
28.4889,12.7671
28.5750,12.7500
29.0750,12.7500
29.1611,12.7671
29.2341,12.8159
29.2829,12.8889
29.3000,12.9750
29.3000,13.4250
29.2829,13.5111
29.2341,13.5841
29.1611,13.6329
29.0750,13.6500
Z" /> 
<path style="fill:#000000; fill-opacity:1.0000; stroke:none;fill-rule:evenodd;"
d="M 28.5750,12.1000
28.4889,12.0829
28.4159,12.0341
28.3671,11.9611
28.3500,11.8750
28.3500,11.4250
28.3671,11.3389
28.4159,11.2659
28.4889,11.2171
28.5750,11.2000
29.0750,11.2000
29.1611,11.2171
29.2341,11.2659
29.2829,11.3389
29.3000,11.4250
29.3000,11.8750
29.2829,11.9611
29.2341,12.0341
29.1611,12.0829
29.0750,12.1000
Z" /> 
<path style="fill:#000000; fill-opacity:1.0000; stroke:none;fill-rule:evenodd;"
d="M 32.8200,35.8150
32.8048,35.8915
32.7614,35.9564
32.6965,35.9998
32.6200,36.0150
32.2200,36.0150
32.1435,35.9998
32.0786,35.9564
32.0352,35.8915
32.0200,35.8150
32.0200,35.2650
32.0352,35.1885
32.0786,35.1236
32.1435,35.0802
32.2200,35.0650
32.6200,35.0650
32.6965,35.0802
32.7614,35.1236
32.8048,35.1885
32.8200,35.2650
Z" /> 
<path style="fill:#000000; fill-opacity:1.0000; stroke:none;fill-rule:evenodd;"
d="M 31.1700,35.8150
31.1548,35.8915
31.1114,35.9564
31.0465,35.9998
30.9700,36.0150
30.5700,36.0150
30.4935,35.9998
30.4286,35.9564
30.3852,35.8915
30.3700,35.8150
30.3700,35.2650
30.3852,35.1885
30.4286,35.1236
30.4935,35.0802
30.5700,35.0650
30.9700,35.0650
31.0465,35.0802
31.1114,35.1236
31.1548,35.1885
31.1700,35.2650
Z" /> 
<path style="fill:#000000; fill-opacity:1.0000; stroke:none;fill-rule:evenodd;"
d="M 35.4250,21.3750
35.4079,21.4611
35.3591,21.5341
35.2861,21.5829
35.2000,21.6000
34.7500,21.6000
34.6639,21.5829
34.5909,21.5341
34.5421,21.4611
34.5250,21.3750
34.5250,20.8750
34.5421,20.7889
34.5909,20.7159
34.6639,20.6671
34.7500,20.6500
35.2000,20.6500
35.2861,20.6671
35.3591,20.7159
35.4079,20.7889
35.4250,20.8750
Z" /> 
<path style="fill:#000000; fill-opacity:1.0000; stroke:none;fill-rule:evenodd;"
d="M 33.8750,21.3750
33.8579,21.4611
33.8091,21.5341
33.7361,21.5829
33.6500,21.6000
33.2000,21.6000
33.1139,21.5829
33.0409,21.5341
32.9921,21.4611
32.9750,21.3750
32.9750,20.8750
32.9921,20.7889
33.0409,20.7159
33.1139,20.6671
33.2000,20.6500
33.6500,20.6500
33.7361,20.6671
33.8091,20.7159
33.8579,20.7889
33.8750,20.8750
Z" /> 
<path style="fill:#000000; fill-opacity:1.0000; stroke:none;fill-rule:evenodd;"
d="M 38.6450,18.8900
38.6450,20.5900
36.9450,20.5900
36.9450,18.8900
Z" /> 
<circle cx="37.7950" cy="17.2000" r="0.8500" /> 
<circle cx="37.7950" cy="14.6600" r="0.8500" /> 
<path style="fill:#000000; fill-opacity:1.0000; stroke:none;fill-rule:evenodd;"
d="M 30.6750,11.2000
30.7611,11.2171
30.8341,11.2659
30.8829,11.3389
30.9000,11.4250
30.9000,11.8750
30.8829,11.9611
30.8341,12.0341
30.7611,12.0829
30.6750,12.1000
30.1750,12.1000
30.0889,12.0829
30.0159,12.0341
29.9671,11.9611
29.9500,11.8750
29.9500,11.4250
29.9671,11.3389
30.0159,11.2659
30.0889,11.2171
30.1750,11.2000
Z" /> 
<path style="fill:#000000; fill-opacity:1.0000; stroke:none;fill-rule:evenodd;"
d="M 30.6750,12.7500
30.7611,12.7671
30.8341,12.8159
30.8829,12.8889
30.9000,12.9750
30.9000,13.4250
30.8829,13.5111
30.8341,13.5841
30.7611,13.6329
30.6750,13.6500
30.1750,13.6500
30.0889,13.6329
30.0159,13.5841
29.9671,13.5111
29.9500,13.4250
29.9500,12.9750
29.9671,12.8889
30.0159,12.8159
30.0889,12.7671
30.1750,12.7500
Z" /> 
<path style="fill:#000000; fill-opacity:1.0000; stroke:none;fill-rule:evenodd;"
d="M 5.4700,28.9400
5.4852,28.8635
5.5286,28.7986
5.5935,28.7552
5.6700,28.7400
6.0700,28.7400
6.1465,28.7552
6.2114,28.7986
6.2548,28.8635
6.2700,28.9400
6.2700,29.4900
6.2548,29.5665
6.2114,29.6314
6.1465,29.6748
6.0700,29.6900
5.6700,29.6900
5.5935,29.6748
5.5286,29.6314
5.4852,29.5665
5.4700,29.4900
Z" /> 
<path style="fill:#000000; fill-opacity:1.0000; stroke:none;fill-rule:evenodd;"
d="M 7.1200,28.9400
7.1352,28.8635
7.1786,28.7986
7.2435,28.7552
7.3200,28.7400
7.7200,28.7400
7.7965,28.7552
7.8614,28.7986
7.9048,28.8635
7.9200,28.9400
7.9200,29.4900
7.9048,29.5665
7.8614,29.6314
7.7965,29.6748
7.7200,29.6900
7.3200,29.6900
7.2435,29.6748
7.1786,29.6314
7.1352,29.5665
7.1200,29.4900
Z" /> 
<path style="fill:#000000; fill-opacity:1.0000; stroke:none;fill-rule:evenodd;"
d="M 24.6950,35.6900
24.6798,35.7665
24.6364,35.8314
24.5715,35.8748
24.4950,35.8900
24.0950,35.8900
24.0185,35.8748
23.9536,35.8314
23.9102,35.7665
23.8950,35.6900
23.8950,35.1400
23.9102,35.0635
23.9536,34.9986
24.0185,34.9552
24.0950,34.9400
24.4950,34.9400
24.5715,34.9552
24.6364,34.9986
24.6798,35.0635
24.6950,35.1400
Z" /> 
<path style="fill:#000000; fill-opacity:1.0000; stroke:none;fill-rule:evenodd;"
d="M 23.0450,35.6900
23.0298,35.7665
22.9864,35.8314
22.9215,35.8748
22.8450,35.8900
22.4450,35.8900
22.3685,35.8748
22.3036,35.8314
22.2602,35.7665
22.2450,35.6900
22.2450,35.1400
22.2602,35.0635
22.3036,34.9986
22.3685,34.9552
22.4450,34.9400
22.8450,34.9400
22.9215,34.9552
22.9864,34.9986
23.0298,35.0635
23.0450,35.1400
Z" /> 
<path style="fill:#000000; fill-opacity:1.0000; stroke:none;fill-rule:evenodd;"
d="M 5.7075,19.3650
5.7227,19.2885
5.7661,19.2236
5.8310,19.1802
5.9075,19.1650
6.3075,19.1650
6.3840,19.1802
6.4489,19.2236
6.4923,19.2885
6.5075,19.3650
6.5075,19.9150
6.4923,19.9915
6.4489,20.0564
6.3840,20.0998
6.3075,20.1150
5.9075,20.1150
5.8310,20.0998
5.7661,20.0564
5.7227,19.9915
5.7075,19.9150
Z" /> 
<path style="fill:#000000; fill-opacity:1.0000; stroke:none;fill-rule:evenodd;"
d="M 7.3575,19.3650
7.3727,19.2885
7.4161,19.2236
7.4810,19.1802
7.5575,19.1650
7.9575,19.1650
8.0340,19.1802
8.0989,19.2236
8.1423,19.2885
8.1575,19.3650
8.1575,19.9150
8.1423,19.9915
8.0989,20.0564
8.0340,20.0998
7.9575,20.1150
7.5575,20.1150
7.4810,20.0998
7.4161,20.0564
7.3727,19.9915
7.3575,19.9150
Z" /> 
<path style="fill:#000000; fill-opacity:1.0000; stroke:none;fill-rule:evenodd;"
d="M 35.4200,19.8000
35.4048,19.8765
35.3614,19.9414
35.2965,19.9848
35.2200,20.0000
34.8200,20.0000
34.7435,19.9848
34.6786,19.9414
34.6352,19.8765
34.6200,19.8000
34.6200,19.2500
34.6352,19.1735
34.6786,19.1086
34.7435,19.0652
34.8200,19.0500
35.2200,19.0500
35.2965,19.0652
35.3614,19.1086
35.4048,19.1735
35.4200,19.2500
Z" /> 
<path style="fill:#000000; fill-opacity:1.0000; stroke:none;fill-rule:evenodd;"
d="M 33.7700,19.8000
33.7548,19.8765
33.7114,19.9414
33.6465,19.9848
33.5700,20.0000
33.1700,20.0000
33.0935,19.9848
33.0286,19.9414
32.9852,19.8765
32.9700,19.8000
32.9700,19.2500
32.9852,19.1735
33.0286,19.1086
33.0935,19.0652
33.1700,19.0500
33.5700,19.0500
33.6465,19.0652
33.7114,19.1086
33.7548,19.1735
33.7700,19.2500
Z" /> 
<path style="fill:#000000; fill-opacity:1.0000; stroke:none;fill-rule:evenodd;"
d="M 13.3375,8.6625
13.3040,8.6558
13.2756,8.6369
13.2567,8.6085
13.2500,8.5750
13.2500,8.0750
13.2567,8.0415
13.2756,8.0131
13.3040,7.9942
13.3375,7.9875
13.5125,7.9875
13.5460,7.9942
13.5744,8.0131
13.5933,8.0415
13.6000,8.0750
13.6000,8.5750
13.5933,8.6085
13.5744,8.6369
13.5460,8.6558
13.5125,8.6625
Z" /> 
<path style="fill:#000000; fill-opacity:1.0000; stroke:none;fill-rule:evenodd;"
d="M 13.8375,8.6625
13.8040,8.6558
13.7756,8.6369
13.7567,8.6085
13.7500,8.5750
13.7500,8.0750
13.7567,8.0415
13.7756,8.0131
13.8040,7.9942
13.8375,7.9875
14.0125,7.9875
14.0460,7.9942
14.0744,8.0131
14.0933,8.0415
14.1000,8.0750
14.1000,8.5750
14.0933,8.6085
14.0744,8.6369
14.0460,8.6558
14.0125,8.6625
Z" /> 
<path style="fill:#000000; fill-opacity:1.0000; stroke:none;fill-rule:evenodd;"
d="M 14.3375,8.6625
14.3040,8.6558
14.2756,8.6369
14.2567,8.6085
14.2500,8.5750
14.2500,8.0750
14.2567,8.0415
14.2756,8.0131
14.3040,7.9942
14.3375,7.9875
14.5125,7.9875
14.5460,7.9942
14.5744,8.0131
14.5933,8.0415
14.6000,8.0750
14.6000,8.5750
14.5933,8.6085
14.5744,8.6369
14.5460,8.6558
14.5125,8.6625
Z" /> 
<path style="fill:#000000; fill-opacity:1.0000; stroke:none;fill-rule:evenodd;"
d="M 14.3375,7.2375
14.3040,7.2308
14.2756,7.2119
14.2567,7.1835
14.2500,7.1500
14.2500,6.6500
14.2567,6.6165
14.2756,6.5881
14.3040,6.5692
14.3375,6.5625
14.5125,6.5625
14.5460,6.5692
14.5744,6.5881
14.5933,6.6165
14.6000,6.6500
14.6000,7.1500
14.5933,7.1835
14.5744,7.2119
14.5460,7.2308
14.5125,7.2375
Z" /> 
<path style="fill:#000000; fill-opacity:1.0000; stroke:none;fill-rule:evenodd;"
d="M 13.8375,7.2375
13.8040,7.2308
13.7756,7.2119
13.7567,7.1835
13.7500,7.1500
13.7500,6.6500
13.7567,6.6165
13.7756,6.5881
13.8040,6.5692
13.8375,6.5625
14.0125,6.5625
14.0460,6.5692
14.0744,6.5881
14.0933,6.6165
14.1000,6.6500
14.1000,7.1500
14.0933,7.1835
14.0744,7.2119
14.0460,7.2308
14.0125,7.2375
Z" /> 
<path style="fill:#000000; fill-opacity:1.0000; stroke:none;fill-rule:evenodd;"
d="M 13.3375,7.2375
13.3040,7.2308
13.2756,7.2119
13.2567,7.1835
13.2500,7.1500
13.2500,6.6500
13.2567,6.6165
13.2756,6.5881
13.3040,6.5692
13.3375,6.5625
13.5125,6.5625
13.5460,6.5692
13.5744,6.5881
13.5933,6.6165
13.6000,6.6500
13.6000,7.1500
13.5933,7.1835
13.5744,7.2119
13.5460,7.2308
13.5125,7.2375
Z" /> 
<path style="fill:#000000; fill-opacity:1.0000; stroke:none;fill-rule:evenodd;"
d="M 8.7950,19.3837
8.8117,19.3000
8.8591,19.2291
8.9300,19.1817
9.0137,19.1650
9.4512,19.1650
9.5350,19.1817
9.6059,19.2291
9.6533,19.3000
9.6700,19.3837
9.6700,19.8962
9.6533,19.9800
9.6059,20.0509
9.5350,20.0983
9.4512,20.1150
9.0137,20.1150
8.9300,20.0983
8.8591,20.0509
8.8117,19.9800
8.7950,19.8962
Z" /> 
<path style="fill:#000000; fill-opacity:1.0000; stroke:none;fill-rule:evenodd;"
d="M 10.3700,19.3837
10.3867,19.3000
10.4341,19.2291
10.5050,19.1817
10.5887,19.1650
11.0262,19.1650
11.1100,19.1817
11.1809,19.2291
11.2283,19.3000
11.2450,19.3837
11.2450,19.8962
11.2283,19.9800
11.1809,20.0509
11.1100,20.0983
11.0262,20.1150
10.5887,20.1150
10.5050,20.0983
10.4341,20.0509
10.3867,19.9800
10.3700,19.8962
Z" /> 
<path style="fill:#000000; fill-opacity:1.0000; stroke:none;fill-rule:evenodd;"
d="M 12.0000,9.0250
12.0957,9.0440
12.1768,9.0982
12.2310,9.1793
12.2500,9.2750
12.2500,9.7750
12.2310,9.8707
12.1768,9.9518
12.0957,10.0060
12.0000,10.0250
11.0500,10.0250
10.9543,10.0060
10.8732,9.9518
10.8190,9.8707
10.8000,9.7750
10.8000,9.2750
10.8190,9.1793
10.8732,9.0982
10.9543,9.0440
11.0500,9.0250
Z" /> 
<path style="fill:#000000; fill-opacity:1.0000; stroke:none;fill-rule:evenodd;"
d="M 12.0000,10.9250
12.0957,10.9440
12.1768,10.9982
12.2310,11.0793
12.2500,11.1750
12.2500,11.6750
12.2310,11.7707
12.1768,11.8518
12.0957,11.9060
12.0000,11.9250
11.0500,11.9250
10.9543,11.9060
10.8732,11.8518
10.8190,11.7707
10.8000,11.6750
10.8000,11.1750
10.8190,11.0793
10.8732,10.9982
10.9543,10.9440
11.0500,10.9250
Z" /> 
<path style="fill:#000000; fill-opacity:1.0000; stroke:none;fill-rule:evenodd;"
d="M 1.9450,31.1400
1.9450,29.4400
3.6450,29.4400
3.6450,31.1400
Z" /> 
<circle cx="2.7950" cy="32.8300" r="0.8500" /> 
<circle cx="2.7950" cy="35.3700" r="0.8500" /> 
<path style="fill:#000000; fill-opacity:1.0000; stroke:none;fill-rule:evenodd;"
d="M 7.6700,21.4775
7.6614,21.5206
7.6370,21.5571
7.6006,21.5814
7.5575,21.5900
7.3325,21.5900
7.2894,21.5814
7.2529,21.5571
7.2286,21.5206
7.2200,21.4775
7.2200,21.0025
7.2286,20.9594
7.2529,20.9230
7.2894,20.8986
7.3325,20.8900
7.5575,20.8900
7.6006,20.8986
7.6370,20.9230
7.6614,20.9594
7.6700,21.0025
Z" /> 
<path style="fill:#000000; fill-opacity:1.0000; stroke:none;fill-rule:evenodd;"
d="M 6.3700,21.4775
6.3614,21.5206
6.3370,21.5571
6.3006,21.5814
6.2575,21.5900
6.0325,21.5900
5.9894,21.5814
5.9529,21.5571
5.9286,21.5206
5.9200,21.4775
5.9200,21.0025
5.9286,20.9594
5.9529,20.9230
5.9894,20.8986
6.0325,20.8900
6.2575,20.8900
6.3006,20.8986
6.3370,20.9230
6.3614,20.9594
6.3700,21.0025
Z" /> 
<path style="fill:#000000; fill-opacity:1.0000; stroke:none;fill-rule:evenodd;"
d="M 7.0200,23.4775
7.0114,23.5206
6.9870,23.5571
6.9506,23.5814
6.9075,23.5900
6.6825,23.5900
6.6394,23.5814
6.6029,23.5571
6.5786,23.5206
6.5700,23.4775
6.5700,23.0025
6.5786,22.9594
6.6029,22.9230
6.6394,22.8986
6.6825,22.8900
6.9075,22.8900
6.9506,22.8986
6.9870,22.9230
7.0114,22.9594
7.0200,23.0025
Z" /> 
<path style="fill:#000000; fill-opacity:1.0000; stroke:none;fill-rule:evenodd;"
d="M 10.0000,9.0250
10.0957,9.0440
10.1768,9.0982
10.2310,9.1793
10.2500,9.2750
10.2500,9.7750
10.2310,9.8707
10.1768,9.9518
10.0957,10.0060
10.0000,10.0250
9.0500,10.0250
8.9543,10.0060
8.8732,9.9518
8.8190,9.8707
8.8000,9.7750
8.8000,9.2750
8.8190,9.1793
8.8732,9.0982
8.9543,9.0440
9.0500,9.0250
Z" /> 
<path style="fill:#000000; fill-opacity:1.0000; stroke:none;fill-rule:evenodd;"
d="M 10.0000,10.9250
10.0957,10.9440
10.1768,10.9982
10.2310,11.0793
10.2500,11.1750
10.2500,11.6750
10.2310,11.7707
10.1768,11.8518
10.0957,11.9060
10.0000,11.9250
9.0500,11.9250
8.9543,11.9060
8.8732,11.8518
8.8190,11.7707
8.8000,11.6750
8.8000,11.1750
8.8190,11.0793
8.8732,10.9982
8.9543,10.9440
9.0500,10.9250
Z" /> 
<circle cx="37.5250" cy="2.5250" r="1.3000" /> 
</g>
<g style="fill:#000000; fill-opacity:1.0000; stroke:none;">
<circle cx="37.5250" cy="2.5250" r="1.9000" /> 
<path style="fill:none; 
stroke:#000000; stroke-width:0.0500; stroke-opacity:1; 
stroke-linecap:round; stroke-linejoin:round;fill:none"
d="M 0.0250,0.0250
40.0250,0.0250
40.0250,45.0250
0.0250,45.0250
Z" /> 
</g> 
</svg>
