<?xml version="1.0" standalone="no"?>
 <!DOCTYPE svg PUBLIC "-//W3C//DTD SVG 1.1//EN" 
 "http://www.w3.org/Graphics/SVG/1.1/DTD/svg11.dtd"> 
<svg
  xmlns:svg="http://www.w3.org/2000/svg"
  xmlns="http://www.w3.org/2000/svg"
  xmlns:xlink="http://www.w3.org/1999/xlink"
  version="1.1"
  width="40.1066mm" height="45.0342mm" viewBox="0.0000 0.0000 40.1066 45.0342">
<title>SVG Image created as LedDimmer-B_Cu.svg date 2025/06/23 11:32:29 </title>
  <desc>Image generated by PCBNEW </desc>
<g style="fill:#000000; fill-opacity:1.0000;stroke:#000000; stroke-opacity:1.0000;
stroke-linecap:round; stroke-linejoin:round;"
 transform="translate(0 0) scale(1 1)">
<path style="fill:none; 
stroke:#000000; stroke-width:0.0500; stroke-opacity:1; 
stroke-linecap:round; stroke-linejoin:round;fill:none"
d="M 0.0250,0.0250
40.0250,0.0250
40.0250,45.0250
0.0250,45.0250
Z" /> 
</g>
<g style="fill:#000000; fill-opacity:1.0000; stroke:none;">
<circle cx="2.5250" cy="2.5250" r="1.1000" /> 
</g>
<g style="fill:#000000; fill-opacity:1.0000; stroke:none;">
<circle cx="29.8250" cy="33.4250" r="0.2500" /> 
</g>
<g style="fill:#000000; fill-opacity:1.0000; stroke:none;">
<circle cx="19.8250" cy="31.4250" r="0.2500" /> 
</g>
<g style="fill:#000000; fill-opacity:1.0000; stroke:none;">
<circle cx="37.7950" cy="28.8500" r="0.5000" /> 
</g>
<g style="fill:#000000; fill-opacity:1.0000; stroke:none;">
<circle cx="37.7950" cy="26.3100" r="0.5000" /> 
</g>
<g style="fill:#000000; fill-opacity:1.0000; stroke:none;">
<circle cx="37.7950" cy="23.7700" r="0.5000" /> 
</g>
<g style="fill:#000000; fill-opacity:1.0000; stroke:none;">
<circle cx="37.5250" cy="42.5250" r="1.1000" /> 
</g>
<g style="fill:#000000; fill-opacity:1.0000; stroke:none;">
<circle cx="2.7950" cy="20.6150" r="0.5000" /> 
</g>
<g style="fill:#000000; fill-opacity:1.0000; stroke:none;">
<circle cx="2.7950" cy="23.1550" r="0.5000" /> 
</g>
<g style="fill:#000000; fill-opacity:1.0000; stroke:none;">
<circle cx="2.7950" cy="25.6950" r="0.5000" /> 
</g>
<g style="fill:#000000; fill-opacity:1.0000; stroke:none;">
<circle cx="2.7250" cy="13.5650" r="0.5000" /> 
</g>
<g style="fill:#000000; fill-opacity:1.0000; stroke:none;">
<circle cx="2.7250" cy="11.0250" r="0.5000" /> 
</g>
<g style="fill:#000000; fill-opacity:1.0000; stroke:none;">
<circle cx="19.8250" cy="33.4250" r="0.2500" /> 
</g>
<g style="fill:#000000; fill-opacity:1.0000; stroke:none;">
<circle cx="29.8250" cy="31.4250" r="0.2500" /> 
</g>
<g style="fill:#000000; fill-opacity:1.0000; stroke:none;">
<circle cx="29.8250" cy="29.4250" r="0.2500" /> 
</g>
<g style="fill:#000000; fill-opacity:1.0000; stroke:none;">
<circle cx="2.5250" cy="42.5250" r="1.1000" /> 
</g>
<g style="fill:#000000; fill-opacity:1.0000; stroke:none;">
<circle cx="37.7950" cy="35.8650" r="0.5000" /> 
</g>
<g style="fill:#000000; fill-opacity:1.0000; stroke:none;">
<circle cx="37.7950" cy="33.3250" r="0.5000" /> 
</g>
<g style="fill:#000000; fill-opacity:1.0000; stroke:none;">
<circle cx="19.8250" cy="35.4250" r="0.2500" /> 
</g>
<g style="fill:#000000; fill-opacity:1.0000; stroke:none;">
<circle cx="37.7950" cy="19.7400" r="0.5000" /> 
</g>
<g style="fill:#000000; fill-opacity:1.0000; stroke:none;">
<circle cx="37.7950" cy="17.2000" r="0.5000" /> 
</g>
<g style="fill:#000000; fill-opacity:1.0000; stroke:none;">
<circle cx="37.7950" cy="14.6600" r="0.5000" /> 
</g>
<g style="fill:#000000; fill-opacity:1.0000; stroke:none;">
<circle cx="19.8250" cy="29.4250" r="0.2500" /> 
</g>
<g style="fill:#000000; fill-opacity:1.0000; stroke:none;">
<circle cx="2.7950" cy="30.2900" r="0.5000" /> 
</g>
<g style="fill:#000000; fill-opacity:1.0000; stroke:none;">
<circle cx="2.7950" cy="32.8300" r="0.5000" /> 
</g>
<g style="fill:#000000; fill-opacity:1.0000; stroke:none;">
<circle cx="2.7950" cy="35.3700" r="0.5000" /> 
</g>
<g style="fill:#000000; fill-opacity:1.0000; stroke:none;">
<circle cx="19.8250" cy="37.4250" r="0.2500" /> 
</g>
<g style="fill:#000000; fill-opacity:1.0000; stroke:none;">
<circle cx="37.5250" cy="2.5250" r="1.1000" /> 
</g>
<g style="fill:#000000; fill-opacity:1.0000; stroke:none;">
<circle cx="2.5250" cy="2.5250" r="1.3000" /> 
</g>
<g style="fill:#000000; fill-opacity:1.0000; stroke:none;">
<circle cx="2.5250" cy="2.5250" r="1.9000" /> 
</g>
<g style="fill:#000000; fill-opacity:1.0000; stroke:none;">
<circle cx="29.8250" cy="33.4250" r="0.5000" /> 
</g>
<g style="fill:#000000; fill-opacity:1.0000; stroke:none;">
<circle cx="19.8250" cy="31.4250" r="0.5000" /> 
<path style="fill:#000000; fill-opacity:1.0000; stroke:none;fill-rule:evenodd;"
d="M 38.6450,28.0000
38.6450,29.7000
36.9450,29.7000
36.9450,28.0000
Z" /> 
</g>
<g style="fill:#000000; fill-opacity:1.0000; stroke:none;">
<circle cx="37.7950" cy="26.3100" r="0.8500" /> 
<circle cx="37.7950" cy="23.7700" r="0.8500" /> 
<circle cx="37.5250" cy="42.5250" r="1.3000" /> 
</g>
<g style="fill:#000000; fill-opacity:1.0000; stroke:none;">
<circle cx="37.5250" cy="42.5250" r="1.9000" /> 
<path style="fill:#000000; fill-opacity:1.0000; stroke:none;fill-rule:evenodd;"
d="M 1.9450,21.4650
1.9450,19.7650
3.6450,19.7650
3.6450,21.4650
Z" /> 
</g>
<g style="fill:#000000; fill-opacity:1.0000; stroke:none;">
<circle cx="2.7950" cy="23.1550" r="0.8500" /> 
<circle cx="2.7950" cy="25.6950" r="0.8500" /> 
<path style="fill:#000000; fill-opacity:1.0000; stroke:none;fill-rule:evenodd;"
d="M 3.5750,12.7150
3.5750,14.4150
1.8750,14.4150
1.8750,12.7150
Z" /> 
<circle cx="2.7250" cy="11.0250" r="0.8500" /> 
<circle cx="19.8250" cy="33.4250" r="0.5000" /> 
</g>
<g style="fill:#000000; fill-opacity:1.0000; stroke:none;">
<circle cx="29.8250" cy="31.4250" r="0.5000" /> 
</g>
<g style="fill:#000000; fill-opacity:1.0000; stroke:none;">
<circle cx="29.8250" cy="29.4250" r="0.5000" /> 
</g>
<g style="fill:#000000; fill-opacity:1.0000; stroke:none;">
<circle cx="2.5250" cy="42.5250" r="1.3000" /> 
</g>
<g style="fill:#000000; fill-opacity:1.0000; stroke:none;">
<circle cx="2.5250" cy="42.5250" r="1.9000" /> 
<path style="fill:#000000; fill-opacity:1.0000; stroke:none;fill-rule:evenodd;"
d="M 38.6450,35.0150
38.6450,36.7150
36.9450,36.7150
36.9450,35.0150
Z" /> 
</g>
<g style="fill:#000000; fill-opacity:1.0000; stroke:none;">
<circle cx="37.7950" cy="33.3250" r="0.8500" /> 
<circle cx="19.8250" cy="35.4250" r="0.5000" /> 
<path style="fill:#000000; fill-opacity:1.0000; stroke:none;fill-rule:evenodd;"
d="M 38.6450,18.8900
38.6450,20.5900
36.9450,20.5900
36.9450,18.8900
Z" /> 
</g>
<g style="fill:#000000; fill-opacity:1.0000; stroke:none;">
<circle cx="37.7950" cy="17.2000" r="0.8500" /> 
<circle cx="37.7950" cy="14.6600" r="0.8500" /> 
<circle cx="19.8250" cy="29.4250" r="0.5000" /> 
<path style="fill:#000000; fill-opacity:1.0000; stroke:none;fill-rule:evenodd;"
d="M 1.9450,31.1400
1.9450,29.4400
3.6450,29.4400
3.6450,31.1400
Z" /> 
</g>
<g style="fill:#000000; fill-opacity:1.0000; stroke:none;">
<circle cx="2.7950" cy="32.8300" r="0.8500" /> 
<circle cx="2.7950" cy="35.3700" r="0.8500" /> 
<circle cx="19.8250" cy="37.4250" r="0.5000" /> 
</g>
<g style="fill:#000000; fill-opacity:1.0000; stroke:none;">
<circle cx="37.5250" cy="2.5250" r="1.3000" /> 
</g>
<g style="fill:#000000; fill-opacity:1.0000; stroke:none;">
<circle cx="37.5250" cy="2.5250" r="1.9000" /> 
</g>
<g style="fill:#000000; fill-opacity:1.0000; stroke:none;">
<circle cx="21.8250" cy="41.9250" r="0.3000" /> 
</g>
<g style="fill:#000000; fill-opacity:1.0000; stroke:none;">
<circle cx="18.7250" cy="21.3250" r="0.3000" /> 
</g>
<g style="fill:#000000; fill-opacity:1.0000; stroke:none;">
<circle cx="8.9250" cy="25.7250" r="0.3000" /> 
</g>
<g style="fill:#000000; fill-opacity:1.0000; stroke:none;">
<circle cx="20.6230" cy="5.8930" r="0.3000" /> 
</g>
<g style="fill:#000000; fill-opacity:1.0000; stroke:none;">
<circle cx="15.0350" cy="7.6710" r="0.3000" /> 
</g>
<g style="fill:#000000; fill-opacity:1.0000; stroke:none;">
<circle cx="8.9250" cy="26.6250" r="0.3000" /> 
</g>
<g style="fill:#000000; fill-opacity:1.0000; stroke:none;">
<circle cx="18.4250" cy="3.8250" r="0.3000" /> 
</g>
<g style="fill:#000000; fill-opacity:1.0000; stroke:none;">
<circle cx="30.5250" cy="17.0250" r="0.3000" /> 
</g>
<g style="fill:#000000; fill-opacity:1.0000; stroke:none;">
<circle cx="28.5250" cy="7.5250" r="0.3000" /> 
</g>
<g style="fill:#000000; fill-opacity:1.0000; stroke:none;">
<circle cx="27.6250" cy="12.6250" r="0.3000" /> 
</g>
<g style="fill:#000000; fill-opacity:1.0000; stroke:none;">
<circle cx="22.0250" cy="2.0250" r="0.3000" /> 
</g>
<g style="fill:#000000; fill-opacity:1.0000; stroke:none;">
<circle cx="11.5250" cy="4.9250" r="0.3000" /> 
</g>
<g style="fill:#000000; fill-opacity:1.0000; stroke:none;">
<circle cx="27.6250" cy="13.9250" r="0.3000" /> 
</g>
<g style="fill:#000000; fill-opacity:1.0000; stroke:none;">
<circle cx="15.2250" cy="22.1250" r="0.3000" /> 
</g>
<g style="fill:#000000; fill-opacity:1.0000; stroke:none;">
<circle cx="28.0250" cy="29.2250" r="0.3000" /> 
</g>
<g style="fill:#000000; fill-opacity:1.0000; stroke:none;">
<circle cx="30.5250" cy="14.5250" r="0.3000" /> 
</g>
<g style="fill:#000000; fill-opacity:1.0000; stroke:none;">
<circle cx="22.0200" cy="5.8930" r="0.3000" /> 
</g>
<g style="fill:#000000; fill-opacity:1.0000; stroke:none;">
<circle cx="32.0250" cy="15.2250" r="0.3000" /> 
</g>
<g style="fill:#000000; fill-opacity:1.0000; stroke:none;">
<circle cx="31.2250" cy="16.2250" r="0.3000" /> 
</g>
<g style="fill:#000000; fill-opacity:1.0000; stroke:none;">
<circle cx="23.7250" cy="3.8250" r="0.3000" /> 
</g>
<g style="fill:#000000; fill-opacity:1.0000; stroke:none;">
<circle cx="30.1480" cy="2.5910" r="0.3000" /> 
</g>
<g style="fill:#000000; fill-opacity:1.0000; stroke:none;">
<circle cx="15.0250" cy="17.0250" r="0.3000" /> 
</g>
<g style="fill:#000000; fill-opacity:1.0000; stroke:none;">
<circle cx="15.6250" cy="6.7250" r="0.3000" /> 
</g>
<g style="fill:#000000; fill-opacity:1.0000; stroke:none;">
<circle cx="15.9250" cy="2.2250" r="0.3000" /> 
</g>
<g style="fill:#000000; fill-opacity:1.0000; stroke:none;">
<circle cx="28.8250" cy="14.4250" r="0.3000" /> 
</g>
<g style="fill:#000000; fill-opacity:1.0000; stroke:none;">
<circle cx="10.5250" cy="12.5250" r="0.3000" /> 
</g>
<g style="fill:#000000; fill-opacity:1.0000; stroke:none;">
<circle cx="19.3250" cy="2.0250" r="0.3000" /> 
</g>
<g style="fill:#000000; fill-opacity:1.0000; stroke:none;">
<circle cx="7.5250" cy="17.0250" r="0.3000" /> 
</g>
<g style="fill:#000000; fill-opacity:1.0000; stroke:none;">
<circle cx="22.0250" cy="17.0250" r="0.3000" /> 
</g>
<g style="fill:#000000; fill-opacity:1.0000; stroke:none;">
<circle cx="17.0250" cy="35.6250" r="0.3000" /> 
</g>
<g style="fill:#000000; fill-opacity:1.0000; stroke:none;">
<circle cx="31.5250" cy="13.5250" r="0.3000" /> 
</g>
<g style="fill:#000000; fill-opacity:1.0000; stroke:none;">
<circle cx="39.5250" cy="5.5250" r="0.3000" /> 
</g>
<g style="fill:#000000; fill-opacity:1.0000; stroke:none;">
<circle cx="15.5430" cy="8.1790" r="0.3000" /> 
</g>
<g style="fill:#000000; fill-opacity:1.0000; stroke:none;">
<circle cx="34.2250" cy="0.4250" r="0.3000" /> 
</g>
<g style="fill:#000000; fill-opacity:1.0000; stroke:none;">
<circle cx="9.5250" cy="12.5250" r="0.3000" /> 
</g>
<g style="fill:#000000; fill-opacity:1.0000; stroke:none;">
<circle cx="37.8363" cy="8.5219" r="0.3000" /> 
</g>
<g style="fill:#000000; fill-opacity:1.0000; stroke:none;">
<circle cx="2.6250" cy="15.5250" r="0.3000" /> 
</g>
<g style="fill:#000000; fill-opacity:1.0000; stroke:none;">
<circle cx="11.5250" cy="12.5250" r="0.3000" /> 
</g>
<g style="fill:#000000; fill-opacity:1.0000; stroke:none;">
<circle cx="12.5250" cy="12.5250" r="0.3000" /> 
</g>
<g style="fill:#000000; fill-opacity:1.0000; stroke:none;">
<circle cx="27.6250" cy="8.7250" r="0.3000" /> 
</g>
<g style="fill:#000000; fill-opacity:1.0000; stroke:none;">
<circle cx="19.3530" cy="5.8930" r="0.3000" /> 
</g>
<g style="fill:#000000; fill-opacity:1.0000; stroke:none;">
<circle cx="24.2250" cy="27.3250" r="0.3000" /> 
</g>
<g style="fill:#000000; fill-opacity:1.0000; stroke:none;">
<circle cx="9.7250" cy="30.8250" r="0.3000" /> 
</g>
<g style="fill:#000000; fill-opacity:1.0000; stroke:none;">
<circle cx="5.2250" cy="0.6250" r="0.3000" /> 
</g>
<g style="fill:#000000; fill-opacity:1.0000; stroke:none;">
<circle cx="29.5250" cy="17.0250" r="0.3000" /> 
</g>
<g style="fill:#000000; fill-opacity:1.0000; stroke:none;">
<circle cx="28.7250" cy="4.0250" r="0.3000" /> 
</g>
<g style="fill:#000000; fill-opacity:1.0000; stroke:none;">
<circle cx="39.2250" cy="8.5250" r="0.3000" /> 
</g>
<g style="fill:#000000; fill-opacity:1.0000; stroke:none;">
<circle cx="25.1250" cy="1.9250" r="0.3000" /> 
</g>
<g style="fill:#000000; fill-opacity:1.0000; stroke:none;">
<circle cx="36.0250" cy="20.8250" r="0.3000" /> 
</g>
<g style="fill:#000000; fill-opacity:1.0000; stroke:none;">
<circle cx="0.6250" cy="5.1250" r="0.3000" /> 
</g>
<g style="fill:#000000; fill-opacity:1.0000; stroke:none;">
<circle cx="20.9250" cy="3.8250" r="0.3000" /> 
</g>
<g style="fill:#000000; fill-opacity:1.0000; stroke:none;">
<circle cx="16.5250" cy="17.0250" r="0.3000" /> 
</g>
<g style="fill:#000000; fill-opacity:1.0000; stroke:none;">
<circle cx="23.2900" cy="5.8930" r="0.3000" /> 
</g>
<g style="fill:#000000; fill-opacity:1.0000; stroke:none;">
<circle cx="8.6250" cy="35.1250" r="0.3000" /> 
</g>
<g style="fill:#000000; fill-opacity:1.0000; stroke:none;">
<circle cx="12.0250" cy="17.0250" r="0.3000" /> 
</g>
<g style="fill:#000000; fill-opacity:1.0000; stroke:none;">
<circle cx="31.5450" cy="3.7340" r="0.3000" /> 
</g>
<g style="fill:#000000; fill-opacity:1.0000; stroke:none;">
<circle cx="10.5250" cy="17.0250" r="0.3000" /> 
</g>
<g style="fill:#000000; fill-opacity:1.0000; stroke:none;">
<circle cx="2.7250" cy="17.0250" r="0.3000" /> 
</g>
<g style="fill:#000000; fill-opacity:1.0000; stroke:none;">
<circle cx="25.6228" cy="3.8663" r="0.3000" /> 
</g>
<g style="fill:#000000; fill-opacity:1.0000; stroke:none;">
<circle cx="28.0250" cy="17.0250" r="0.3000" /> 
</g>
<g style="fill:#000000; fill-opacity:1.0000; stroke:none;">
<circle cx="19.0250" cy="17.0250" r="0.3000" /> 
</g>
<g style="fill:#000000; fill-opacity:1.0000; stroke:none;">
<circle cx="27.5250" cy="10.0250" r="0.3000" /> 
</g>
<g style="fill:#000000; fill-opacity:1.0000; stroke:none;">
<circle cx="20.5250" cy="17.0250" r="0.3000" /> 
</g>
<g style="fill:#000000; fill-opacity:1.0000; stroke:none;">
<circle cx="12.7250" cy="4.7250" r="0.3000" /> 
</g>
<g style="fill:#000000; fill-opacity:1.0000; stroke:none;">
<circle cx="9.9250" cy="21.2250" r="0.3000" /> 
</g>
<g style="fill:#000000; fill-opacity:1.0000; stroke:none;">
<circle cx="33.5250" cy="8.5250" r="0.3000" /> 
</g>
<g style="fill:#000000; fill-opacity:1.0000; stroke:none;">
<circle cx="10.0250" cy="5.5250" r="0.3000" /> 
</g>
<g style="fill:#000000; fill-opacity:1.0000; stroke:none;">
<circle cx="6.0250" cy="17.0250" r="0.3000" /> 
</g>
<g style="fill:#000000; fill-opacity:1.0000; stroke:none;">
<circle cx="1.0250" cy="17.0250" r="0.3000" /> 
</g>
<g style="fill:#000000; fill-opacity:1.0000; stroke:none;">
<circle cx="24.5600" cy="5.8930" r="0.3000" /> 
</g>
<g style="fill:#000000; fill-opacity:1.0000; stroke:none;">
<circle cx="13.5250" cy="17.0250" r="0.3000" /> 
</g>
<g style="fill:#000000; fill-opacity:1.0000; stroke:none;">
<circle cx="18.0830" cy="5.8930" r="0.3000" /> 
</g>
<g style="fill:#000000; fill-opacity:1.0000; stroke:none;">
<circle cx="15.0250" cy="31.8250" r="0.3000" /> 
</g>
<g style="fill:#000000; fill-opacity:1.0000; stroke:none;">
<circle cx="36.5250" cy="8.5250" r="0.3000" /> 
</g>
<g style="fill:#000000; fill-opacity:1.0000; stroke:none;">
<circle cx="25.8300" cy="5.8930" r="0.3000" /> 
</g>
<g style="fill:#000000; fill-opacity:1.0000; stroke:none;">
<circle cx="23.5250" cy="17.0250" r="0.3000" /> 
</g>
<g style="fill:#000000; fill-opacity:1.0000; stroke:none;">
<circle cx="15.0350" cy="8.6870" r="0.3000" /> 
</g>
<g style="fill:#000000; fill-opacity:1.0000; stroke:none;">
<circle cx="35.7250" cy="27.6250" r="0.3000" /> 
</g>
<g style="fill:#000000; fill-opacity:1.0000; stroke:none;">
<circle cx="27.1000" cy="5.8930" r="0.3000" /> 
</g>
<g style="fill:#000000; fill-opacity:1.0000; stroke:none;">
<circle cx="28.2250" cy="6.4250" r="0.3000" /> 
</g>
<g style="fill:#000000; fill-opacity:1.0000; stroke:none;">
<circle cx="4.5250" cy="17.0250" r="0.3000" /> 
</g>
<g style="fill:#000000; fill-opacity:1.0000; stroke:none;">
<circle cx="26.5250" cy="17.0250" r="0.3000" /> 
</g>
<g style="fill:#000000; fill-opacity:1.0000; stroke:none;">
<circle cx="9.7250" cy="7.9250" r="0.3000" /> 
</g>
<g style="fill:#000000; fill-opacity:1.0000; stroke:none;">
<circle cx="8.7250" cy="35.9250" r="0.3000" /> 
</g>
<g style="fill:#000000; fill-opacity:1.0000; stroke:none;">
<circle cx="29.1320" cy="38.0240" r="0.3000" /> 
</g>
<g style="fill:#000000; fill-opacity:1.0000; stroke:none;">
<circle cx="25.0250" cy="17.0250" r="0.3000" /> 
</g>
<g style="fill:#000000; fill-opacity:1.0000; stroke:none;">
<circle cx="9.0250" cy="17.0250" r="0.3000" /> 
</g>
<g style="fill:#000000; fill-opacity:1.0000; stroke:none;">
<circle cx="18.0250" cy="17.0250" r="0.3000" /> 
</g>
<g style="fill:#000000; fill-opacity:1.0000; stroke:none;">
<circle cx="35.1250" cy="8.5250" r="0.3000" /> 
</g>
<g style="fill:#000000; fill-opacity:1.0000; stroke:none;">
<circle cx="13.2570" cy="5.7660" r="0.3000" /> 
</g>
<g style="fill:#000000; fill-opacity:1.0000; stroke:none;">
<circle cx="27.9890" cy="4.7500" r="0.3000" /> 
</g>
<g style="fill:#000000; fill-opacity:1.0000; stroke:none;">
<circle cx="32.1250" cy="22.4250" r="0.4000" /> 
</g>
<g style="fill:#000000; fill-opacity:1.0000; stroke:none;">
<circle cx="32.9250" cy="28.7250" r="0.4000" /> 
</g>
<g style="fill:#000000; fill-opacity:1.0000; stroke:none;">
<circle cx="33.4250" cy="35.5250" r="0.4000" /> 
</g>
<g style="fill:none; 
stroke:#000000; stroke-width:0.2500; stroke-opacity:1; 
stroke-linecap:round; stroke-linejoin:round;">
<path d="M32.1250 22.4250
L30.0250 24.5250
" />
<path d="M30.0250 24.5250
L30.0250 29.4250
" />
</g>
<g style="fill:none; 
stroke:#000000; stroke-width:0.5000; stroke-opacity:1; 
stroke-linecap:round; stroke-linejoin:round;">
<path d="M37.7950 14.6600
L39.6250 16.4900
" />
<path d="M39.6250 16.4900
L39.6250 21.6050
" />
<path d="M39.6250 21.6050
L37.7950 23.4350
" />
</g>
<g style="fill:none; 
stroke:#000000; stroke-width:0.2000; stroke-opacity:1; 
stroke-linecap:round; stroke-linejoin:round;">
<path d="M15.3250 3.0250
L13.2570 5.0930
" />
<path d="M26.2640 3.0250
L15.3250 3.0250
" />
<path d="M27.9890 4.7500
L26.2640 3.0250
" />
<path d="M13.2570 5.0930
L13.2570 5.7660
" />
</g>
<g style="fill:none; 
stroke:#000000; stroke-width:0.2500; stroke-opacity:1; 
stroke-linecap:round; stroke-linejoin:round;">
<path d="M32.7250 28.7250
L32.9250 28.7250
" />
<path d="M30.0250 31.4250
L32.7250 28.7250
" />
<path d="M35.6250 33.3250
L37.7950 33.3250
" />
<path d="M33.4250 35.5250
L35.6250 33.3250
" />
<path style="fill:#000000; fill-opacity:1.0000; stroke:none;fill-rule:evenodd;"
d="M 1.6860,43.2416
1.8084,43.3640
1.9423,43.4613
1.0116,44.3920
1.0116,44.3920
1.2365,44.5554
1.2365,44.5554
1.5011,44.7009
1.5011,44.7009
1.7154,44.7857
1.7704,44.8287
1.7936,44.8946
1.7773,44.9626
1.7270,45.0110
1.6697,45.0250
0.1490,45.0250
0.0820,45.0053
0.0362,44.9525
0.0250,44.9010
0.0250,43.3803
0.0447,43.3132
0.0975,43.2675
0.1666,43.2575
0.2302,43.2865
0.2669,43.3419
0.2891,43.4102
0.2891,43.4103
0.4177,43.6835
0.4177,43.6835
0.5795,43.9385
0.6603,44.0361
1.5887,43.1077
Z" /> 
<path style="fill:#000000; fill-opacity:1.0000; stroke:none;fill-rule:evenodd;"
d="M 36.7368,0.0447
36.7825,0.0975
36.7925,0.1666
36.7634,0.2302
36.7154,0.2643
36.5011,0.3491
36.5011,0.3491
36.2365,0.4946
36.2365,0.4946
36.0116,0.6580
36.0116,0.6580
36.9423,1.5887
36.8084,1.6860
36.6860,1.8084
36.5887,1.9423
35.6603,1.0139
35.5795,1.1115
35.5795,1.1115
35.4177,1.3665
35.4177,1.3665
35.2891,1.6397
35.2891,1.6398
35.1958,1.9270
35.1392,2.2236
35.1392,2.2236
35.1203,2.5250
35.1203,2.5250
35.1392,2.8264
35.1392,2.8264
35.1958,3.1230
35.2891,3.4102
35.2891,3.4103
35.4177,3.6835
35.4177,3.6835
35.5795,3.9385
35.6603,4.0361
36.5887,3.1077
36.6860,3.2416
36.8084,3.3640
36.9423,3.4613
36.0116,4.3920
36.0116,4.3920
36.2365,4.5554
36.2365,4.5554
36.5011,4.7009
36.5011,4.7009
36.7819,4.8120
36.7819,4.8120
37.0744,4.8872
37.3740,4.9250
37.3740,4.9250
37.6760,4.9250
37.6760,4.9250
37.9756,4.8872
38.2681,4.8120
38.2681,4.8120
38.5489,4.7009
38.5489,4.7009
38.8135,4.5554
38.8135,4.5554
39.0384,4.3920
39.0384,4.3920
38.1077,3.4613
38.2416,3.3640
38.3640,3.2416
38.4613,3.1077
39.3897,4.0361
39.4705,3.9385
39.6323,3.6835
39.6323,3.6835
39.7609,3.4103
39.7609,3.4102
39.7831,3.3419
39.8225,3.2843
39.8869,3.2571
39.9557,3.2690
40.0072,3.3162
40.0250,3.3803
40.0250,15.5293
40.0053,15.5963
39.9525,15.6421
39.8834,15.6520
39.8198,15.6230
39.8133,15.6170
39.1679,14.9715
39.1344,14.9102
39.1320,14.8730
39.1333,14.8584
39.1507,14.6600
39.1301,14.4246
39.0689,14.1963
38.9690,13.9822
38.9571,13.9651
38.8335,13.7886
38.6664,13.6215
38.6664,13.6215
38.4728,13.4860
38.4728,13.4860
38.4728,13.4860
38.2587,13.3861
38.2587,13.3861
38.2587,13.3861
38.0304,13.3249
38.0304,13.3249
37.7950,13.3043
37.7950,13.3043
37.5596,13.3249
37.5596,13.3249
37.3313,13.3861
37.3313,13.3861
37.1172,13.4860
37.1172,13.4860
36.9236,13.6215
36.7565,13.7886
36.6210,13.9822
36.6210,13.9822
36.5211,14.1963
36.5211,14.1963
36.4599,14.4246
36.4599,14.4246
36.4393,14.6600
36.4393,14.6600
36.4599,14.8954
36.4599,14.8954
36.5211,15.1237
36.5211,15.1237
36.5211,15.1237
36.6210,15.3378
36.6210,15.3378
36.7565,15.5314
36.7565,15.5314
36.9236,15.6985
36.9236,15.6985
37.1092,15.8284
37.1528,15.8830
37.1600,15.9525
37.1285,16.0149
37.1092,16.0316
36.9236,16.1615
36.7565,16.3286
36.6210,16.5222
36.6210,16.5222
36.5211,16.7363
36.5211,16.7363
36.4599,16.9646
36.4599,16.9646
36.4393,17.2000
36.4393,17.2000
36.4599,17.4354
36.4599,17.4354
36.5211,17.6637
36.5211,17.6637
36.5211,17.6637
36.6210,17.8778
36.6210,17.8778
36.7565,18.0714
36.7565,18.0714
36.8788,18.1937
36.9123,18.2550
36.9073,18.3247
36.8654,18.3807
36.8345,18.3976
36.7029,18.4466
36.7029,18.4466
36.5878,18.5328
36.5878,18.5328
36.5016,18.6479
36.5016,18.6479
36.4514,18.7826
36.4514,18.7826
36.4450,18.8422
36.4450,19.4900
37.3620,19.4900
37.3291,19.5470
37.2950,19.6742
37.2950,19.8058
37.3291,19.9330
37.3620,19.9900
36.4450,19.9900
36.4450,20.6378
36.4514,20.6974
36.4514,20.6974
36.5016,20.8321
36.5016,20.8321
36.5878,20.9472
36.5878,20.9472
36.7029,21.0333
36.7029,21.0334
36.8376,21.0836
36.8376,21.0836
36.8972,21.0900
36.8972,21.0900
37.5450,21.0900
37.5450,20.1730
37.6020,20.2059
37.7292,20.2400
37.8608,20.2400
37.9880,20.2059
38.0450,20.1730
38.0450,21.0900
38.6928,21.0900
38.6928,21.0900
38.7372,21.0852
38.8060,21.0976
38.8571,21.1452
38.8745,21.2085
38.8745,21.2428
38.8548,21.3098
38.8382,21.3304
37.7823,22.3863
37.7210,22.4198
37.7054,22.4222
37.5596,22.4349
37.5596,22.4349
37.3313,22.4961
37.3313,22.4961
37.1172,22.5960
37.1172,22.5960
36.9236,22.7315
36.7565,22.8986
36.6210,23.0922
36.6210,23.0922
36.5211,23.3063
36.5211,23.3063
36.4599,23.5346
36.4599,23.5346
36.4393,23.7700
36.4393,23.7700
36.4599,24.0054
36.4599,24.0054
36.5211,24.2337
36.5211,24.2337
36.5211,24.2337
36.5885,24.3783
36.6210,24.4478
36.6210,24.4478
36.7565,24.6414
36.7565,24.6414
36.9236,24.8085
36.9236,24.8085
37.1092,24.9384
37.1528,24.9930
37.1600,25.0625
37.1285,25.1249
37.1092,25.1416
36.9236,25.2715
36.7565,25.4386
36.6210,25.6322
36.6210,25.6322
36.5211,25.8463
36.5211,25.8463
36.4599,26.0746
36.4599,26.0746
36.4393,26.3100
36.4393,26.3100
36.4599,26.5454
36.4599,26.5454
36.5211,26.7737
36.5211,26.7737
36.5211,26.7737
36.5654,26.8686
36.6210,26.9878
36.6210,26.9878
36.7293,27.1425
36.7565,27.1814
36.7565,27.1814
36.8788,27.3037
36.9123,27.3650
36.9073,27.4347
36.8654,27.4907
36.8345,27.5076
36.7029,27.5566
36.7029,27.5566
36.5878,27.6428
36.5878,27.6428
36.5016,27.7579
36.5016,27.7579
36.4514,27.8926
36.4514,27.8926
36.4450,27.9522
36.4450,28.6000
37.3620,28.6000
37.3291,28.6570
37.2950,28.7842
37.2950,28.9158
37.3291,29.0430
37.3620,29.1000
36.4450,29.1000
36.4450,29.7478
36.4514,29.8074
36.4514,29.8074
36.5016,29.9421
36.5016,29.9421
36.5878,30.0572
36.5878,30.0572
36.7029,30.1433
36.7029,30.1434
36.8376,30.1936
36.8376,30.1936
36.8972,30.2000
36.8972,30.2000
37.5450,30.2000
37.5450,29.2830
37.6020,29.3159
37.7292,29.3500
37.8608,29.3500
37.9880,29.3159
38.0450,29.2830
38.0450,30.2000
38.6928,30.2000
38.6928,30.2000
38.7524,30.1936
38.7524,30.1936
38.8871,30.1434
38.8871,30.1433
39.0022,30.0572
39.0022,30.0572
39.0883,29.9421
39.0884,29.9421
39.1386,29.8074
39.1386,29.8074
39.1450,29.7478
39.1450,29.7478
39.1450,29.1000
38.2280,29.1000
38.2609,29.0430
38.2950,28.9158
38.2950,28.7842
38.2609,28.6570
38.2280,28.6000
39.1450,28.6000
39.1450,27.9522
39.1450,27.9522
39.1386,27.8926
39.1386,27.8926
39.0884,27.7579
39.0883,27.7579
39.0022,27.6428
39.0022,27.6428
38.8871,27.5566
38.8871,27.5566
38.7555,27.5076
38.6996,27.4657
38.6752,27.4002
38.6900,27.3320
38.7112,27.3037
38.8335,27.1814
38.9690,26.9878
39.0689,26.7737
39.1301,26.5454
39.1507,26.3100
39.1301,26.0746
39.0689,25.8463
38.9690,25.6322
38.9669,25.6292
38.8335,25.4386
38.6664,25.2715
38.6664,25.2715
38.4808,25.1416
38.4372,25.0870
38.4300,25.0175
38.4615,24.9551
38.4808,24.9384
38.6444,24.8239
38.6664,24.8085
38.8335,24.6414
38.9690,24.4478
39.0689,24.2337
39.1301,24.0054
39.1507,23.7700
39.1301,23.5346
39.0697,23.3093
39.0714,23.2395
39.1018,23.1896
39.8133,22.4780
39.8746,22.4446
39.9443,22.4495
40.0003,22.4914
40.0247,22.5569
40.0250,22.5657
40.0250,41.6697
40.0053,41.7368
39.9525,41.7825
39.8834,41.7925
39.8198,41.7635
39.7831,41.7081
39.7609,41.6398
39.7609,41.6397
39.6323,41.3665
39.6323,41.3665
39.4705,41.1115
39.3897,41.0139
38.4613,41.9423
38.3640,41.8084
38.2416,41.6860
38.1077,41.5887
39.0384,40.6580
39.0384,40.6580
38.8135,40.4946
38.8135,40.4946
38.5489,40.3491
38.5489,40.3491
38.2681,40.2380
38.2681,40.2380
37.9756,40.1628
37.6760,40.1250
37.3740,40.1250
37.0744,40.1628
36.7819,40.2380
36.7819,40.2380
36.5011,40.3491
36.5011,40.3491
36.2365,40.4946
36.2365,40.4946
36.0116,40.6580
36.0116,40.6580
36.9423,41.5887
36.8084,41.6860
36.6860,41.8084
36.5887,41.9423
35.6603,41.0139
35.5795,41.1115
35.5795,41.1115
35.4177,41.3665
35.4177,41.3665
35.2891,41.6397
35.2891,41.6398
35.1958,41.9270
35.1392,42.2236
35.1392,42.2236
35.1203,42.5250
35.1203,42.5250
35.1392,42.8264
35.1392,42.8264
35.1958,43.1230
35.2891,43.4102
35.2891,43.4103
35.4177,43.6835
35.4177,43.6835
35.5795,43.9385
35.6603,44.0361
36.5887,43.1077
36.6860,43.2416
36.8084,43.3640
36.9423,43.4613
36.0116,44.3920
36.0116,44.3920
36.2365,44.5554
36.2365,44.5554
36.5011,44.7009
36.5011,44.7009
36.7154,44.7857
36.7704,44.8287
36.7936,44.8946
36.7773,44.9626
36.7270,45.0110
36.6697,45.0250
3.3803,45.0250
3.3132,45.0053
3.2675,44.9525
3.2575,44.8834
3.2866,44.8198
3.3346,44.7857
3.5489,44.7009
3.5489,44.7009
3.8135,44.5554
3.8135,44.5554
4.0384,44.3920
4.0384,44.3920
3.1077,43.4613
3.2416,43.3640
3.3640,43.2416
3.4613,43.1077
4.3897,44.0361
4.4705,43.9385
4.6323,43.6835
4.6323,43.6835
4.7609,43.4103
4.7609,43.4102
4.8542,43.1230
4.9108,42.8264
4.9108,42.8264
4.9297,42.5250
4.9297,42.5250
4.9108,42.2236
4.9108,42.2236
4.8542,41.9270
4.7609,41.6398
4.7609,41.6397
4.6323,41.3665
4.6323,41.3665
4.4705,41.1115
4.3897,41.0139
3.4613,41.9423
3.3640,41.8084
3.2416,41.6860
3.1077,41.5887
4.0384,40.6580
4.0384,40.6580
3.8135,40.4946
3.8135,40.4946
3.5489,40.3491
3.5489,40.3491
3.2681,40.2380
3.2681,40.2380
2.9756,40.1628
2.6760,40.1250
2.3740,40.1250
2.0744,40.1628
1.7819,40.2380
1.7819,40.2380
1.5011,40.3491
1.5011,40.3491
1.2365,40.4946
1.2365,40.4946
1.0116,40.6580
1.0116,40.6580
1.9423,41.5887
1.8084,41.6860
1.6860,41.8084
1.5887,41.9423
0.6603,41.0139
0.5795,41.1115
0.5795,41.1115
0.4177,41.3665
0.4177,41.3665
0.2891,41.6397
0.2891,41.6398
0.2669,41.7081
0.2275,41.7657
0.1631,41.7929
0.0943,41.7810
0.0428,41.7338
0.0250,41.6697
0.0250,37.4250
18.8197,37.4250
18.8390,37.6211
18.8962,37.8097
18.9891,37.9835
18.9891,37.9835
19.1141,38.1359
19.2665,38.2609
19.2665,38.2609
19.4403,38.3538
19.4403,38.3538
19.4403,38.3538
19.6289,38.4110
19.8250,38.4303
20.0211,38.4110
20.2097,38.3538
20.3835,38.2609
20.5359,38.1359
20.6609,37.9835
20.7538,37.8097
20.8110,37.6211
20.8303,37.4250
20.8110,37.2289
20.7538,37.0403
20.7538,37.0403
20.7538,37.0403
20.6609,36.8665
20.6609,36.8665
20.5359,36.7141
20.3835,36.5891
20.3835,36.5891
20.2806,36.5341
20.2308,36.4851
20.2153,36.4170
20.2391,36.3513
20.2806,36.3154
20.3335,36.2871
20.3335,36.2871
19.8250,35.7786
19.8250,35.7786
19.3165,36.2871
19.3694,36.3154
19.4192,36.3643
19.4347,36.4325
19.4109,36.4981
19.3694,36.5341
19.2665,36.5891
19.2665,36.5891
19.1141,36.7141
18.9891,36.8665
18.9891,36.8665
18.8962,37.0403
18.8390,37.2289
18.8197,37.4250
0.0250,37.4250
0.0250,32.8300
1.4393,32.8300
1.4393,32.8300
1.4599,33.0654
1.4599,33.0654
1.5211,33.2937
1.5211,33.2937
1.5211,33.2937
1.5357,33.3250
1.6210,33.5078
1.6210,33.5078
1.6578,33.5604
1.7565,33.7014
1.9236,33.8685
2.0879,33.9835
2.1096,33.9987
2.1532,34.0533
2.1604,34.1228
2.1289,34.1852
2.1096,34.2019
1.9239,34.3319
1.9239,34.3319
1.7569,34.4989
1.7569,34.4989
1.6214,34.6924
1.6214,34.6924
1.5216,34.9065
1.5216,34.9065
1.4644,35.1200
1.4644,35.1200
2.3620,35.1200
2.3291,35.1770
2.2950,35.3042
2.2950,35.4358
2.3291,35.5630
2.3620,35.6200
1.4644,35.6200
1.5216,35.8335
1.5216,35.8335
1.6214,36.0476
1.7569,36.2411
1.9239,36.4081
2.1174,36.5436
2.3315,36.6434
2.3315,36.6434
2.5450,36.7006
2.5450,35.8030
2.6020,35.8359
2.7292,35.8700
2.8608,35.8700
2.9880,35.8359
3.0450,35.8030
3.0450,36.7006
3.2585,36.6434
3.2585,36.6434
3.4726,36.5436
3.6661,36.4081
3.8331,36.2411
3.9686,36.0476
4.0684,35.8335
4.0684,35.8335
4.1256,35.6200
3.2280,35.6200
3.2609,35.5630
3.2950,35.4358
3.2950,35.4250
18.8202,35.4250
18.8395,35.6210
18.8967,35.8095
18.9629,35.9335
18.9629,35.9335
19.4714,35.4250
19.4714,35.4250
19.4217,35.3753
19.5750,35.3753
19.5750,35.4747
19.6131,35.5666
19.6834,35.6369
19.7753,35.6750
19.8747,35.6750
19.9666,35.6369
20.0369,35.5666
20.0750,35.4747
20.0750,35.4250
20.1786,35.4250
20.1786,35.4250
20.6871,35.9335
20.6871,35.9335
20.7533,35.8095
20.8105,35.6210
20.8200,35.5250
32.5195,35.5250
32.5393,35.7133
32.5393,35.7133
32.5978,35.8933
32.5978,35.8933
32.6925,36.0572
32.7958,36.1720
32.8191,36.1979
32.9723,36.3091
32.9723,36.3092
33.1452,36.3861
33.1452,36.3861
33.3304,36.4255
33.3304,36.4255
33.5196,36.4255
33.5196,36.4255
33.7048,36.3861
33.8777,36.3092
34.0309,36.1979
34.1575,36.0572
34.2522,35.8933
34.3107,35.7133
34.3283,35.5453
34.3549,35.4807
34.3640,35.4706
35.8478,33.9868
35.9091,33.9533
35.9355,33.9505
36.5198,33.9505
36.5868,33.9702
36.6213,34.0034
36.7565,34.1964
36.7565,34.1964
36.8788,34.3187
36.9123,34.3800
36.9073,34.4497
36.8654,34.5057
36.8345,34.5226
36.7029,34.5716
36.7029,34.5716
36.5878,34.6578
36.5878,34.6578
36.5016,34.7729
36.5016,34.7729
36.4514,34.9076
36.4514,34.9076
36.4450,34.9672
36.4450,35.6150
37.3620,35.6150
37.3291,35.6720
37.2950,35.7992
37.2950,35.9308
37.3291,36.0580
37.3620,36.1150
36.4450,36.1150
36.4450,36.7628
36.4514,36.8224
36.4514,36.8224
36.5016,36.9571
36.5016,36.9571
36.5878,37.0722
36.5878,37.0722
36.7029,37.1583
36.7029,37.1584
36.8376,37.2086
36.8376,37.2086
36.8972,37.2150
36.8972,37.2150
37.5450,37.2150
37.5450,36.2980
37.6020,36.3309
37.7292,36.3650
37.8608,36.3650
37.9880,36.3309
38.0450,36.2980
38.0450,37.2150
38.6928,37.2150
38.6928,37.2150
38.7524,37.2086
38.7524,37.2086
38.8871,37.1584
38.8871,37.1583
39.0022,37.0722
39.0022,37.0722
39.0883,36.9571
39.0884,36.9571
39.1386,36.8224
39.1386,36.8224
39.1450,36.7628
39.1450,36.7628
39.1450,36.1150
38.2280,36.1150
38.2609,36.0580
38.2950,35.9308
38.2950,35.7992
38.2609,35.6720
38.2280,35.6150
39.1450,35.6150
39.1450,34.9672
39.1450,34.9672
39.1386,34.9076
39.1386,34.9076
39.0884,34.7729
39.0883,34.7729
39.0022,34.6578
39.0022,34.6578
38.8871,34.5716
38.8871,34.5716
38.7555,34.5226
38.6996,34.4807
38.6752,34.4152
38.6900,34.3470
38.7112,34.3187
38.8335,34.1964
38.9690,34.0028
39.0689,33.7887
39.1301,33.5604
39.1507,33.3250
39.1301,33.0896
39.0689,32.8613
38.9690,32.6472
38.9687,32.6466
38.8335,32.4536
38.6664,32.2865
38.6664,32.2865
38.4728,32.1510
38.4728,32.1510
38.4728,32.1510
38.2587,32.0511
38.2587,32.0511
38.2587,32.0511
38.0304,31.9899
38.0304,31.9899
37.7950,31.9693
37.7950,31.9693
37.5596,31.9899
37.5596,31.9899
37.3313,32.0511
37.3313,32.0511
37.1172,32.1510
37.1172,32.1510
36.9236,32.2865
36.7565,32.4536
36.6213,32.6466
36.5668,32.6902
36.5198,32.6995
35.5634,32.6995
35.5441,32.7033
35.5441,32.7033
35.4426,32.7235
35.4425,32.7235
35.4234,32.7315
35.4234,32.7315
35.3287,32.7707
35.3186,32.7774
35.3186,32.7774
35.2263,32.8391
35.2041,32.8613
35.1391,32.9263
35.1391,32.9263
33.4772,34.5882
33.4159,34.6217
33.3895,34.6245
33.3304,34.6245
33.2979,34.6314
33.1452,34.6639
33.1452,34.6639
32.9723,34.7408
32.9723,34.7409
32.8191,34.8521
32.6925,34.9928
32.5978,35.1567
32.5978,35.1567
32.5393,35.3367
32.5393,35.3367
32.5195,35.5250
20.8200,35.5250
20.8298,35.4250
20.8105,35.2290
20.7533,35.0405
20.6871,34.9165
20.1786,35.4250
20.0750,35.4250
20.0750,35.3753
20.0369,35.2834
19.9666,35.2131
19.8747,35.1750
19.7753,35.1750
19.6834,35.2131
19.6131,35.2834
19.5750,35.3753
19.4217,35.3753
18.9629,34.9165
18.8966,35.0405
18.8395,35.2290
18.8202,35.4250
3.2950,35.4250
3.2950,35.3042
3.2609,35.1770
3.2280,35.1200
4.1256,35.1200
4.1256,35.1200
4.0684,34.9065
4.0684,34.9065
3.9686,34.6924
3.9686,34.6924
3.8331,34.4989
3.8331,34.4989
3.6661,34.3319
3.4804,34.2019
3.4368,34.1473
3.4296,34.0778
3.4611,34.0154
3.4804,33.9987
3.5021,33.9835
3.6664,33.8685
3.8335,33.7014
3.9690,33.5078
4.0689,33.2937
4.1301,33.0654
4.1507,32.8300
4.1301,32.5946
4.0689,32.3663
3.9690,32.1522
3.8983,32.0511
3.8335,31.9586
3.8335,31.9586
3.7116,31.8367
3.6781,31.7754
3.6831,31.7057
3.7249,31.6497
3.7559,31.6328
3.8873,31.5838
4.0025,31.4975
4.0888,31.3823
4.1391,31.2475
4.1455,31.1879
4.1455,29.4250
18.8197,29.4250
18.8390,29.6211
18.8962,29.8097
18.9891,29.9835
18.9891,29.9835
19.1141,30.1359
19.2665,30.2609
19.2665,30.2609
19.3689,30.3156
19.4187,30.3646
19.4342,30.4327
19.4103,30.4984
19.3689,30.5344
19.2665,30.5891
19.2665,30.5891
19.1141,30.7141
18.9891,30.8665
18.9891,30.8665
18.8962,31.0403
18.8390,31.2289
18.8197,31.4250
18.8390,31.6211
18.8552,31.6747
18.8907,31.7915
18.8962,31.8097
18.9891,31.9835
18.9891,31.9835
19.1141,32.1359
19.2665,32.2609
19.2665,32.2609
19.3689,32.3156
19.4187,32.3646
19.4342,32.4327
19.4103,32.4984
19.3689,32.5344
19.2665,32.5891
19.2665,32.5891
19.1141,32.7141
18.9891,32.8665
18.9891,32.8665
18.8962,33.0403
18.8390,33.2289
18.8197,33.4250
18.8390,33.6211
18.8390,33.6211
18.8633,33.7014
18.8962,33.8097
18.9891,33.9835
18.9891,33.9835
19.1141,34.1359
19.2665,34.2609
19.2665,34.2609
19.3694,34.3159
19.4192,34.3649
19.4347,34.4330
19.4109,34.4987
19.3694,34.5346
19.3165,34.5629
19.3165,34.5629
19.8250,35.0714
19.8250,35.0714
20.3335,34.5629
20.3335,34.5629
20.2806,34.5346
20.2308,34.4857
20.2153,34.4175
20.2391,34.3519
20.2806,34.3159
20.3835,34.2609
20.5359,34.1359
20.6609,33.9835
20.7538,33.8097
20.8110,33.6211
20.8303,33.4250
20.8110,33.2289
20.7538,33.0403
20.7538,33.0403
20.7538,33.0403
20.6609,32.8665
20.6609,32.8665
20.5359,32.7141
20.3835,32.5891
20.3835,32.5891
20.2811,32.5344
20.2313,32.4854
20.2158,32.4173
20.2397,32.3516
20.2811,32.3156
20.3597,32.2737
20.3835,32.2609
20.5359,32.1359
20.6609,31.9835
20.7538,31.8097
20.8110,31.6211
20.8303,31.4250
20.8110,31.2289
20.7538,31.0403
20.7538,31.0403
20.7538,31.0403
20.6609,30.8665
20.6609,30.8665
20.5359,30.7141
20.3835,30.5891
20.3835,30.5891
20.2811,30.5344
20.2313,30.4854
20.2158,30.4173
20.2397,30.3516
20.2811,30.3156
20.3597,30.2737
20.3835,30.2609
20.5359,30.1359
20.6609,29.9835
20.7074,29.8966
20.7538,29.8097
20.7538,29.8097
20.7538,29.8097
20.8110,29.6211
20.8303,29.4250
28.8197,29.4250
28.8390,29.6211
28.8962,29.8097
28.9891,29.9835
28.9891,29.9835
29.1141,30.1359
29.2665,30.2609
29.2665,30.2609
29.3689,30.3156
29.4187,30.3646
29.4342,30.4327
29.4103,30.4984
29.3689,30.5344
29.2665,30.5891
29.2665,30.5891
29.1141,30.7141
28.9891,30.8665
28.9891,30.8665
28.8962,31.0403
28.8390,31.2289
28.8197,31.4250
28.8390,31.6211
28.8552,31.6747
28.8907,31.7915
28.8962,31.8097
28.9891,31.9835
28.9891,31.9835
29.1141,32.1359
29.2665,32.2609
29.2665,32.2609
29.3689,32.3156
29.4187,32.3646
29.4342,32.4327
29.4103,32.4984
29.3689,32.5344
29.2665,32.5891
29.2665,32.5891
29.1141,32.7141
28.9891,32.8665
28.9891,32.8665
28.8962,33.0403
28.8390,33.2289
28.8197,33.4250
28.8390,33.6211
28.8390,33.6211
28.8633,33.7014
28.8962,33.8097
28.9891,33.9835
28.9891,33.9835
29.1141,34.1359
29.2665,34.2609
29.2665,34.2609
29.4403,34.3538
29.4403,34.3538
29.4403,34.3538
29.6289,34.4110
29.8250,34.4303
30.0211,34.4110
30.2097,34.3538
30.2754,34.3187
30.3835,34.2609
30.3835,34.2609
30.3835,34.2609
30.5359,34.1359
30.6609,33.9835
30.7538,33.8097
30.8110,33.6211
30.8303,33.4250
30.8110,33.2289
30.7538,33.0403
30.7538,33.0403
30.7538,33.0403
30.6609,32.8665
30.6609,32.8665
30.5359,32.7141
30.3835,32.5891
30.3835,32.5891
30.2811,32.5344
30.2313,32.4854
30.2158,32.4173
30.2397,32.3516
30.2811,32.3156
30.3597,32.2737
30.3835,32.2609
30.5359,32.1359
30.6609,31.9835
30.7538,31.8097
30.8110,31.6211
30.8173,31.5571
30.8435,31.4923
30.8530,31.4815
32.6827,29.6518
32.7441,29.6184
32.7962,29.6182
32.8304,29.6255
32.8304,29.6255
33.0196,29.6255
33.0196,29.6255
33.2048,29.5861
33.3777,29.5092
33.5309,29.3979
33.6575,29.2572
33.7522,29.0933
33.8107,28.9133
33.8305,28.7250
33.8107,28.5367
33.7522,28.3567
33.6575,28.1928
33.5309,28.0521
33.5309,28.0521
33.3777,27.9409
33.3777,27.9408
33.2048,27.8639
33.2048,27.8639
33.0590,27.8329
33.0196,27.8245
32.8304,27.8245
32.7979,27.8314
32.6452,27.8639
32.6452,27.8639
32.4723,27.9408
32.4723,27.9409
32.3191,28.0521
32.1925,28.1928
32.0978,28.3567
32.0978,28.3567
32.0537,28.4926
32.0234,28.5420
31.0415,29.5239
30.9802,29.5574
30.9105,29.5524
30.8546,29.5105
30.8302,29.4451
30.8303,29.4310
30.8303,29.4250
30.8110,29.2289
30.8110,29.2289
30.7538,29.0403
30.7303,28.9962
30.6651,28.8744
30.6505,28.8159
30.6505,24.8355
30.6702,24.7684
30.6868,24.7478
32.0728,23.3618
32.1341,23.3283
32.1605,23.3255
32.2196,23.3255
32.2196,23.3255
32.4048,23.2861
32.5777,23.2092
32.7309,23.0979
32.8575,22.9572
32.9522,22.7933
33.0107,22.6133
33.0305,22.4250
33.0107,22.2367
32.9522,22.0567
32.8575,21.8928
32.7309,21.7521
32.7309,21.7521
32.5777,21.6409
32.5777,21.6408
32.4048,21.5639
32.4048,21.5639
32.2590,21.5329
32.2196,21.5245
32.0304,21.5245
31.9979,21.5314
31.8452,21.5639
31.8452,21.5639
31.6723,21.6408
31.6723,21.6409
31.5191,21.7521
31.3925,21.8928
31.2978,22.0567
31.2978,22.0567
31.2393,22.2367
31.2393,22.2367
31.2236,22.3863
31.2217,22.4046
31.1951,22.4693
31.1860,22.4794
29.6263,24.0391
29.5391,24.1263
29.5391,24.1263
29.4707,24.2287
29.4707,24.2287
29.4373,24.3092
29.4318,24.3225
29.4235,24.3425
29.4235,24.3426
29.3995,24.4634
29.3995,28.4437
29.3798,28.5107
29.3340,28.5530
29.2665,28.5891
29.1141,28.7141
28.9891,28.8665
28.9891,28.8665
28.8962,29.0403
28.8390,29.2289
28.8197,29.4250
20.8303,29.4250
20.8110,29.2289
20.7538,29.0403
20.7538,29.0403
20.7538,29.0403
20.6609,28.8665
20.6609,28.8665
20.5359,28.7141
20.3835,28.5891
20.3835,28.5891
20.2097,28.4962
20.2097,28.4962
20.0211,28.4390
20.0211,28.4390
19.8250,28.4197
19.6289,28.4390
19.4403,28.4962
19.2665,28.5891
19.2665,28.5891
19.1141,28.7141
18.9891,28.8665
18.9891,28.8665
18.8962,29.0403
18.8390,29.2289
18.8197,29.4250
4.1455,29.4250
4.1455,29.3921
4.1391,29.3325
4.1004,29.2289
4.0888,29.1977
4.0888,29.1977
4.0025,29.0825
4.0025,29.0825
3.8873,28.9962
3.8873,28.9962
3.7525,28.9459
3.7525,28.9459
3.6929,28.9395
3.6929,28.9395
3.6929,28.9395
3.6929,28.9395
1.8971,28.9395
1.8971,28.9395
1.8375,28.9459
1.7027,28.9962
1.7027,28.9962
1.5875,29.0825
1.5875,29.0825
1.5012,29.1977
1.5012,29.1977
1.4509,29.3325
1.4490,29.3500
1.4445,29.3921
1.4445,29.3921
1.4445,31.1879
1.4445,31.1879
1.4509,31.2475
1.5012,31.3823
1.5012,31.3823
1.5875,31.4975
1.5875,31.4975
1.7027,31.5838
1.7027,31.5838
1.8341,31.6328
1.8900,31.6747
1.9144,31.7401
1.8996,31.8084
1.8784,31.8367
1.7565,31.9586
1.6210,32.1522
1.6210,32.1522
1.5211,32.3663
1.5211,32.3663
1.4599,32.5946
1.4599,32.5946
1.4393,32.8300
0.0250,32.8300
0.0250,23.1550
1.4393,23.1550
1.4393,23.1550
1.4599,23.3904
1.4599,23.3904
1.5211,23.6187
1.5211,23.6187
1.5211,23.6187
1.5917,23.7700
1.6210,23.8328
1.6210,23.8328
1.7565,24.0264
1.7565,24.0264
1.9236,24.1935
1.9236,24.1935
2.1096,24.3237
2.1532,24.3783
2.1604,24.4478
2.1289,24.5102
2.1096,24.5269
1.9239,24.6569
1.9239,24.6569
1.7569,24.8239
1.7569,24.8239
1.6214,25.0174
1.6214,25.0174
1.5216,25.2315
1.5216,25.2315
1.4644,25.4450
1.4644,25.4450
2.3620,25.4450
2.3291,25.5020
2.2950,25.6292
2.2950,25.7608
2.3291,25.8880
2.3620,25.9450
1.4644,25.9450
1.5216,26.1585
1.5216,26.1585
1.6214,26.3726
1.7569,26.5661
1.9239,26.7331
2.1174,26.8686
2.3315,26.9684
2.3315,26.9684
2.5450,27.0256
2.5450,26.1280
2.6020,26.1609
2.7292,26.1950
2.8608,26.1950
2.9880,26.1609
3.0450,26.1280
3.0450,27.0256
3.2585,26.9684
3.2585,26.9684
3.4726,26.8686
3.6661,26.7331
3.8331,26.5661
3.9686,26.3726
4.0684,26.1585
4.0684,26.1585
4.1256,25.9450
3.2280,25.9450
3.2609,25.8880
3.2950,25.7608
3.2950,25.6292
3.2609,25.5020
3.2280,25.4450
4.1256,25.4450
4.1256,25.4450
4.0684,25.2315
4.0684,25.2315
3.9686,25.0174
3.9686,25.0174
3.8331,24.8239
3.8331,24.8239
3.6661,24.6569
3.4804,24.5269
3.4368,24.4723
3.4296,24.4028
3.4611,24.3404
3.4804,24.3237
3.5011,24.3092
3.6664,24.1935
3.8335,24.0264
3.9690,23.8328
4.0689,23.6187
4.1301,23.3904
4.1507,23.1550
4.1301,22.9196
4.0689,22.6913
3.9690,22.4772
3.9457,22.4439
3.8335,22.2836
3.7866,22.2367
3.7116,22.1617
3.6781,22.1004
3.6831,22.0307
3.7249,21.9747
3.7559,21.9578
3.8873,21.9088
4.0025,21.8225
4.0888,21.7073
4.1391,21.5725
4.1455,21.5129
4.1455,19.7171
4.1391,19.6575
4.1229,19.6140
4.0888,19.5227
4.0888,19.5227
4.0025,19.4075
4.0025,19.4075
3.8873,19.3212
3.8873,19.3212
3.7525,19.2709
3.7525,19.2709
3.6929,19.2645
3.6929,19.2645
3.6929,19.2645
3.6929,19.2645
1.8971,19.2645
1.8971,19.2645
1.8375,19.2709
1.7027,19.3212
1.7027,19.3212
1.5875,19.4075
1.5875,19.4075
1.5012,19.5227
1.5012,19.5227
1.4509,19.6575
1.4445,19.7171
1.4445,19.7171
1.4445,19.7171
1.4445,21.5129
1.4445,21.5129
1.4509,21.5725
1.5012,21.7073
1.5012,21.7073
1.5875,21.8225
1.5875,21.8225
1.7027,21.9088
1.7027,21.9088
1.8341,21.9578
1.8900,21.9997
1.9144,22.0651
1.8996,22.1334
1.8784,22.1617
1.7565,22.2836
1.6210,22.4772
1.6210,22.4772
1.5211,22.6913
1.5211,22.6913
1.4599,22.9196
1.4599,22.9196
1.4393,23.1550
0.0250,23.1550
0.0250,11.0250
1.3693,11.0250
1.3693,11.0250
1.3899,11.2604
1.3899,11.2604
1.4511,11.4887
1.4511,11.4887
1.4511,11.4887
1.5510,11.7028
1.5510,11.7028
1.6593,11.8575
1.6865,11.8964
1.6865,11.8964
1.8088,12.0187
1.8423,12.0800
1.8373,12.1497
1.7954,12.2057
1.7645,12.2226
1.6329,12.2716
1.6329,12.2716
1.5178,12.3578
1.5178,12.3578
1.4316,12.4729
1.4316,12.4729
1.3814,12.6076
1.3814,12.6076
1.3750,12.6672
1.3750,13.3150
2.2920,13.3150
2.2591,13.3720
2.2250,13.4992
2.2250,13.6308
2.2591,13.7580
2.2920,13.8150
1.3750,13.8150
1.3750,14.4628
1.3814,14.5224
1.3814,14.5224
1.4316,14.6571
1.4316,14.6571
1.5178,14.7722
1.5178,14.7722
1.6329,14.8583
1.6329,14.8584
1.7676,14.9086
1.7676,14.9086
1.8272,14.9150
1.8272,14.9150
2.4750,14.9150
2.4750,13.9980
2.5320,14.0309
2.6592,14.0650
2.7908,14.0650
2.9180,14.0309
2.9750,13.9980
2.9750,14.9150
3.6228,14.9150
3.6228,14.9150
3.6824,14.9086
3.6824,14.9086
3.8171,14.8584
3.8171,14.8583
3.9322,14.7722
3.9322,14.7722
4.0183,14.6571
4.0184,14.6571
4.0686,14.5224
4.0686,14.5224
4.0750,14.4628
4.0750,14.4628
4.0750,13.8150
3.1580,13.8150
3.1909,13.7580
3.2250,13.6308
3.2250,13.4992
3.1909,13.3720
3.1580,13.3150
4.0750,13.3150
4.0750,12.6672
4.0750,12.6672
4.0686,12.6076
4.0686,12.6076
4.0184,12.4729
4.0183,12.4729
3.9322,12.3578
3.9322,12.3578
3.8171,12.2716
3.8171,12.2716
3.6855,12.2226
3.6296,12.1807
3.6052,12.1152
3.6200,12.0470
3.6412,12.0187
3.7635,11.8964
3.8990,11.7028
3.9989,11.4887
4.0601,11.2604
4.0807,11.0250
4.0601,10.7896
3.9989,10.5613
3.8990,10.3472
3.7635,10.1536
3.7635,10.1536
3.5964,9.9865
3.5964,9.9865
3.4028,9.8510
3.4028,9.8510
3.4028,9.8510
3.1887,9.7511
3.1887,9.7511
3.1887,9.7511
2.9604,9.6899
2.9604,9.6899
2.7250,9.6693
2.7250,9.6693
2.4896,9.6899
2.4896,9.6899
2.2613,9.7511
2.2613,9.7511
2.0472,9.8510
2.0472,9.8510
1.8536,9.9865
1.6865,10.1536
1.5510,10.3472
1.5510,10.3472
1.4511,10.5613
1.4511,10.5613
1.3899,10.7896
1.3899,10.7896
1.3693,11.0250
0.0250,11.0250
0.0250,5.7660
12.4514,5.7660
12.4514,5.7660
12.4716,5.9452
12.4716,5.9453
12.5312,6.1155
12.6272,6.2683
12.7547,6.3958
12.9075,6.4918
13.0777,6.5514
13.0777,6.5514
13.2570,6.5716
13.2570,6.5716
13.2570,6.5716
13.4362,6.5514
13.4363,6.5514
13.4363,6.5514
13.6065,6.4918
13.7593,6.3958
13.8868,6.2683
13.9828,6.1155
14.0424,5.9453
14.0626,5.7660
14.0424,5.5867
13.9828,5.4165
13.9828,5.4165
13.9828,5.4165
13.9582,5.3774
13.9392,5.3101
13.9596,5.2433
13.9755,5.2237
15.5374,3.6618
15.5987,3.6283
15.6251,3.6255
25.9639,3.6255
26.0309,3.6452
26.0516,3.6618
27.1583,4.7685
27.1918,4.8299
27.1938,4.8423
27.2036,4.9292
27.2632,5.0995
27.3412,5.2237
27.3592,5.2523
27.4867,5.3798
27.6395,5.4758
27.8097,5.5354
27.8097,5.5354
27.9890,5.5556
27.9890,5.5556
27.9890,5.5556
28.1682,5.5354
28.1683,5.5354
28.1683,5.5354
28.3385,5.4758
28.4913,5.3798
28.6188,5.2523
28.7148,5.0995
28.7744,4.9293
28.7744,4.9292
28.7946,4.7500
28.7946,4.7500
28.7744,4.5707
28.7744,4.5707
28.7148,4.4005
28.6188,4.2477
28.4913,4.1202
28.3385,4.0242
28.1682,3.9646
28.0813,3.9548
28.0169,3.9278
28.0075,3.9193
26.7516,2.6634
26.7516,2.6634
26.6327,2.5445
26.6327,2.5445
26.5459,2.4944
26.5459,2.4944
26.5459,2.4944
26.4958,2.4654
26.3431,2.4245
26.1849,2.4245
26.1773,2.4245
26.1773,2.4245
15.4117,2.4245
15.4117,2.4245
15.4041,2.4245
15.2459,2.4245
15.1696,2.4450
15.0932,2.4654
15.0932,2.4654
14.9563,2.5445
14.9563,2.5445
12.7765,4.7243
12.7765,4.7243
12.7264,4.8111
12.7264,4.8111
12.6974,4.8612
12.6974,4.8612
12.6815,4.9205
12.6565,5.0139
12.6565,5.0139
12.6565,5.1820
12.6565,5.1821
12.6565,5.1836
12.6368,5.2506
12.6295,5.2609
12.6272,5.2637
12.5312,5.4165
12.4716,5.5867
12.4716,5.5867
12.4514,5.7660
0.0250,5.7660
0.0250,3.3803
0.0447,3.3132
0.0975,3.2675
0.1666,3.2575
0.2302,3.2865
0.2669,3.3419
0.2891,3.4102
0.2891,3.4103
0.4177,3.6835
0.4177,3.6835
0.5795,3.9385
0.6603,4.0361
1.5887,3.1077
1.6860,3.2416
1.8084,3.3640
1.9423,3.4613
1.0116,4.3920
1.0116,4.3920
1.2365,4.5554
1.2365,4.5554
1.5011,4.7009
1.5011,4.7009
1.7819,4.8120
1.7819,4.8120
2.0744,4.8872
2.3740,4.9250
2.3740,4.9250
2.6760,4.9250
2.6760,4.9250
2.9756,4.8872
3.2681,4.8120
3.2681,4.8120
3.5489,4.7009
3.5489,4.7009
3.8135,4.5554
3.8135,4.5554
4.0384,4.3920
4.0384,4.3920
3.1077,3.4613
3.2416,3.3640
3.3640,3.2416
3.4613,3.1077
4.3897,4.0361
4.4705,3.9385
4.6323,3.6835
4.6323,3.6835
4.7609,3.4103
4.7609,3.4102
4.8542,3.1230
4.9108,2.8264
4.9108,2.8264
4.9297,2.5250
4.9297,2.5250
4.9108,2.2236
4.9108,2.2236
4.8542,1.9270
4.7609,1.6398
4.7609,1.6397
4.6323,1.3665
4.6323,1.3665
4.4705,1.1115
4.3897,1.0139
3.4613,1.9423
3.3640,1.8084
3.2416,1.6860
3.1077,1.5887
4.0384,0.6580
4.0384,0.6580
3.8135,0.4946
3.8135,0.4946
3.5489,0.3491
3.5489,0.3491
3.3346,0.2643
3.2795,0.2213
3.2564,0.1554
3.2727,0.0874
3.3230,0.0390
3.3803,0.0250
36.6697,0.0250
Z" /> 
<path style="fill:#000000; fill-opacity:1.0000; stroke:none;fill-rule:evenodd;"
d="M 39.3897,44.0361
39.4705,43.9385
39.6323,43.6835
39.6323,43.6835
39.7609,43.4103
39.7609,43.4102
39.7831,43.3419
39.8225,43.2843
39.8869,43.2571
39.9557,43.2690
40.0072,43.3162
40.0250,43.3803
40.0250,44.9010
40.0053,44.9680
39.9525,45.0138
39.9010,45.0250
38.3803,45.0250
38.3132,45.0053
38.2675,44.9525
38.2575,44.8834
38.2866,44.8198
38.3346,44.7857
38.5489,44.7009
38.5489,44.7009
38.8135,44.5554
38.8135,44.5554
39.0384,44.3920
39.0384,44.3920
38.1077,43.4613
38.2416,43.3640
38.3640,43.2416
38.4613,43.1077
Z" /> 
<path style="fill:#000000; fill-opacity:1.0000; stroke:none;fill-rule:evenodd;"
d="M 1.7368,0.0447
1.7825,0.0975
1.7925,0.1666
1.7634,0.2302
1.7154,0.2643
1.5011,0.3491
1.5011,0.3491
1.2365,0.4946
1.2365,0.4946
1.0116,0.6580
1.0116,0.6580
1.9423,1.5887
1.8084,1.6860
1.6860,1.8084
1.5887,1.9423
0.6603,1.0139
0.5795,1.1115
0.5795,1.1115
0.4177,1.3665
0.4177,1.3665
0.2891,1.6397
0.2891,1.6398
0.2669,1.7081
0.2275,1.7657
0.1631,1.7929
0.0943,1.7810
0.0428,1.7338
0.0250,1.6697
0.0250,0.1490
0.0447,0.0820
0.0975,0.0362
0.1490,0.0250
1.6697,0.0250
Z" /> 
<path style="fill:#000000; fill-opacity:1.0000; stroke:none;fill-rule:evenodd;"
d="M 39.9680,0.0447
40.0138,0.0975
40.0250,0.1490
40.0250,1.6697
40.0053,1.7368
39.9525,1.7825
39.8834,1.7925
39.8198,1.7635
39.7831,1.7081
39.7609,1.6398
39.7609,1.6397
39.6323,1.3665
39.6323,1.3665
39.4705,1.1115
39.3897,1.0139
38.4613,1.9423
38.3640,1.8084
38.2416,1.6860
38.1077,1.5887
39.0384,0.6580
39.0384,0.6580
38.8135,0.4946
38.8135,0.4946
38.5489,0.3491
38.5489,0.3491
38.3346,0.2643
38.2796,0.2213
38.2564,0.1554
38.2727,0.0874
38.3230,0.0390
38.3803,0.0250
39.9010,0.0250
Z" /> 
</g>
<g style="fill:#FFFFFF; fill-opacity:1.0000; stroke:none;">
<circle cx="21.8250" cy="41.9250" r="0.1500" /> 
</g>
<g style="fill:#FFFFFF; fill-opacity:1.0000; stroke:none;">
<circle cx="18.7250" cy="21.3250" r="0.1500" /> 
</g>
<g style="fill:#FFFFFF; fill-opacity:1.0000; stroke:none;">
<circle cx="8.9250" cy="25.7250" r="0.1500" /> 
</g>
<g style="fill:#FFFFFF; fill-opacity:1.0000; stroke:none;">
<circle cx="20.6230" cy="5.8930" r="0.1500" /> 
</g>
<g style="fill:#FFFFFF; fill-opacity:1.0000; stroke:none;">
<circle cx="15.0350" cy="7.6710" r="0.1500" /> 
</g>
<g style="fill:#FFFFFF; fill-opacity:1.0000; stroke:none;">
<circle cx="8.9250" cy="26.6250" r="0.1500" /> 
</g>
<g style="fill:#FFFFFF; fill-opacity:1.0000; stroke:none;">
<circle cx="18.4250" cy="3.8250" r="0.1500" /> 
</g>
<g style="fill:#FFFFFF; fill-opacity:1.0000; stroke:none;">
<circle cx="30.5250" cy="17.0250" r="0.1500" /> 
</g>
<g style="fill:#FFFFFF; fill-opacity:1.0000; stroke:none;">
<circle cx="28.5250" cy="7.5250" r="0.1500" /> 
</g>
<g style="fill:#FFFFFF; fill-opacity:1.0000; stroke:none;">
<circle cx="27.6250" cy="12.6250" r="0.1500" /> 
</g>
<g style="fill:#FFFFFF; fill-opacity:1.0000; stroke:none;">
<circle cx="22.0250" cy="2.0250" r="0.1500" /> 
</g>
<g style="fill:#FFFFFF; fill-opacity:1.0000; stroke:none;">
<circle cx="11.5250" cy="4.9250" r="0.1500" /> 
</g>
<g style="fill:#FFFFFF; fill-opacity:1.0000; stroke:none;">
<circle cx="27.6250" cy="13.9250" r="0.1500" /> 
</g>
<g style="fill:#FFFFFF; fill-opacity:1.0000; stroke:none;">
<circle cx="15.2250" cy="22.1250" r="0.1500" /> 
</g>
<g style="fill:#FFFFFF; fill-opacity:1.0000; stroke:none;">
<circle cx="28.0250" cy="29.2250" r="0.1500" /> 
</g>
<g style="fill:#FFFFFF; fill-opacity:1.0000; stroke:none;">
<circle cx="30.5250" cy="14.5250" r="0.1500" /> 
</g>
<g style="fill:#FFFFFF; fill-opacity:1.0000; stroke:none;">
<circle cx="22.0200" cy="5.8930" r="0.1500" /> 
</g>
<g style="fill:#FFFFFF; fill-opacity:1.0000; stroke:none;">
<circle cx="32.0250" cy="15.2250" r="0.1500" /> 
</g>
<g style="fill:#FFFFFF; fill-opacity:1.0000; stroke:none;">
<circle cx="31.2250" cy="16.2250" r="0.1500" /> 
</g>
<g style="fill:#FFFFFF; fill-opacity:1.0000; stroke:none;">
<circle cx="23.7250" cy="3.8250" r="0.1500" /> 
</g>
<g style="fill:#FFFFFF; fill-opacity:1.0000; stroke:none;">
<circle cx="30.1480" cy="2.5910" r="0.1500" /> 
</g>
<g style="fill:#FFFFFF; fill-opacity:1.0000; stroke:none;">
<circle cx="15.0250" cy="17.0250" r="0.1500" /> 
</g>
<g style="fill:#FFFFFF; fill-opacity:1.0000; stroke:none;">
<circle cx="15.6250" cy="6.7250" r="0.1500" /> 
</g>
<g style="fill:#FFFFFF; fill-opacity:1.0000; stroke:none;">
<circle cx="15.9250" cy="2.2250" r="0.1500" /> 
</g>
<g style="fill:#FFFFFF; fill-opacity:1.0000; stroke:none;">
<circle cx="28.8250" cy="14.4250" r="0.1500" /> 
</g>
<g style="fill:#FFFFFF; fill-opacity:1.0000; stroke:none;">
<circle cx="10.5250" cy="12.5250" r="0.1500" /> 
</g>
<g style="fill:#FFFFFF; fill-opacity:1.0000; stroke:none;">
<circle cx="19.3250" cy="2.0250" r="0.1500" /> 
</g>
<g style="fill:#FFFFFF; fill-opacity:1.0000; stroke:none;">
<circle cx="7.5250" cy="17.0250" r="0.1500" /> 
</g>
<g style="fill:#FFFFFF; fill-opacity:1.0000; stroke:none;">
<circle cx="22.0250" cy="17.0250" r="0.1500" /> 
</g>
<g style="fill:#FFFFFF; fill-opacity:1.0000; stroke:none;">
<circle cx="17.0250" cy="35.6250" r="0.1500" /> 
</g>
<g style="fill:#FFFFFF; fill-opacity:1.0000; stroke:none;">
<circle cx="31.5250" cy="13.5250" r="0.1500" /> 
</g>
<g style="fill:#FFFFFF; fill-opacity:1.0000; stroke:none;">
<circle cx="39.5250" cy="5.5250" r="0.1500" /> 
</g>
<g style="fill:#FFFFFF; fill-opacity:1.0000; stroke:none;">
<circle cx="15.5430" cy="8.1790" r="0.1500" /> 
</g>
<g style="fill:#FFFFFF; fill-opacity:1.0000; stroke:none;">
<circle cx="34.2250" cy="0.4250" r="0.1500" /> 
</g>
<g style="fill:#FFFFFF; fill-opacity:1.0000; stroke:none;">
<circle cx="9.5250" cy="12.5250" r="0.1500" /> 
</g>
<g style="fill:#FFFFFF; fill-opacity:1.0000; stroke:none;">
<circle cx="37.8363" cy="8.5219" r="0.1500" /> 
</g>
<g style="fill:#FFFFFF; fill-opacity:1.0000; stroke:none;">
<circle cx="2.6250" cy="15.5250" r="0.1500" /> 
</g>
<g style="fill:#FFFFFF; fill-opacity:1.0000; stroke:none;">
<circle cx="11.5250" cy="12.5250" r="0.1500" /> 
</g>
<g style="fill:#FFFFFF; fill-opacity:1.0000; stroke:none;">
<circle cx="12.5250" cy="12.5250" r="0.1500" /> 
</g>
<g style="fill:#FFFFFF; fill-opacity:1.0000; stroke:none;">
<circle cx="27.6250" cy="8.7250" r="0.1500" /> 
</g>
<g style="fill:#FFFFFF; fill-opacity:1.0000; stroke:none;">
<circle cx="19.3530" cy="5.8930" r="0.1500" /> 
</g>
<g style="fill:#FFFFFF; fill-opacity:1.0000; stroke:none;">
<circle cx="24.2250" cy="27.3250" r="0.1500" /> 
</g>
<g style="fill:#FFFFFF; fill-opacity:1.0000; stroke:none;">
<circle cx="9.7250" cy="30.8250" r="0.1500" /> 
</g>
<g style="fill:#FFFFFF; fill-opacity:1.0000; stroke:none;">
<circle cx="5.2250" cy="0.6250" r="0.1500" /> 
</g>
<g style="fill:#FFFFFF; fill-opacity:1.0000; stroke:none;">
<circle cx="29.5250" cy="17.0250" r="0.1500" /> 
</g>
<g style="fill:#FFFFFF; fill-opacity:1.0000; stroke:none;">
<circle cx="28.7250" cy="4.0250" r="0.1500" /> 
</g>
<g style="fill:#FFFFFF; fill-opacity:1.0000; stroke:none;">
<circle cx="39.2250" cy="8.5250" r="0.1500" /> 
</g>
<g style="fill:#FFFFFF; fill-opacity:1.0000; stroke:none;">
<circle cx="25.1250" cy="1.9250" r="0.1500" /> 
</g>
<g style="fill:#FFFFFF; fill-opacity:1.0000; stroke:none;">
<circle cx="36.0250" cy="20.8250" r="0.1500" /> 
</g>
<g style="fill:#FFFFFF; fill-opacity:1.0000; stroke:none;">
<circle cx="0.6250" cy="5.1250" r="0.1500" /> 
</g>
<g style="fill:#FFFFFF; fill-opacity:1.0000; stroke:none;">
<circle cx="20.9250" cy="3.8250" r="0.1500" /> 
</g>
<g style="fill:#FFFFFF; fill-opacity:1.0000; stroke:none;">
<circle cx="16.5250" cy="17.0250" r="0.1500" /> 
</g>
<g style="fill:#FFFFFF; fill-opacity:1.0000; stroke:none;">
<circle cx="23.2900" cy="5.8930" r="0.1500" /> 
</g>
<g style="fill:#FFFFFF; fill-opacity:1.0000; stroke:none;">
<circle cx="8.6250" cy="35.1250" r="0.1500" /> 
</g>
<g style="fill:#FFFFFF; fill-opacity:1.0000; stroke:none;">
<circle cx="12.0250" cy="17.0250" r="0.1500" /> 
</g>
<g style="fill:#FFFFFF; fill-opacity:1.0000; stroke:none;">
<circle cx="31.5450" cy="3.7340" r="0.1500" /> 
</g>
<g style="fill:#FFFFFF; fill-opacity:1.0000; stroke:none;">
<circle cx="10.5250" cy="17.0250" r="0.1500" /> 
</g>
<g style="fill:#FFFFFF; fill-opacity:1.0000; stroke:none;">
<circle cx="2.7250" cy="17.0250" r="0.1500" /> 
</g>
<g style="fill:#FFFFFF; fill-opacity:1.0000; stroke:none;">
<circle cx="25.6228" cy="3.8663" r="0.1500" /> 
</g>
<g style="fill:#FFFFFF; fill-opacity:1.0000; stroke:none;">
<circle cx="28.0250" cy="17.0250" r="0.1500" /> 
</g>
<g style="fill:#FFFFFF; fill-opacity:1.0000; stroke:none;">
<circle cx="19.0250" cy="17.0250" r="0.1500" /> 
</g>
<g style="fill:#FFFFFF; fill-opacity:1.0000; stroke:none;">
<circle cx="27.5250" cy="10.0250" r="0.1500" /> 
</g>
<g style="fill:#FFFFFF; fill-opacity:1.0000; stroke:none;">
<circle cx="20.5250" cy="17.0250" r="0.1500" /> 
</g>
<g style="fill:#FFFFFF; fill-opacity:1.0000; stroke:none;">
<circle cx="12.7250" cy="4.7250" r="0.1500" /> 
</g>
<g style="fill:#FFFFFF; fill-opacity:1.0000; stroke:none;">
<circle cx="9.9250" cy="21.2250" r="0.1500" /> 
</g>
<g style="fill:#FFFFFF; fill-opacity:1.0000; stroke:none;">
<circle cx="33.5250" cy="8.5250" r="0.1500" /> 
</g>
<g style="fill:#FFFFFF; fill-opacity:1.0000; stroke:none;">
<circle cx="10.0250" cy="5.5250" r="0.1500" /> 
</g>
<g style="fill:#FFFFFF; fill-opacity:1.0000; stroke:none;">
<circle cx="6.0250" cy="17.0250" r="0.1500" /> 
</g>
<g style="fill:#FFFFFF; fill-opacity:1.0000; stroke:none;">
<circle cx="1.0250" cy="17.0250" r="0.1500" /> 
</g>
<g style="fill:#FFFFFF; fill-opacity:1.0000; stroke:none;">
<circle cx="24.5600" cy="5.8930" r="0.1500" /> 
</g>
<g style="fill:#FFFFFF; fill-opacity:1.0000; stroke:none;">
<circle cx="13.5250" cy="17.0250" r="0.1500" /> 
</g>
<g style="fill:#FFFFFF; fill-opacity:1.0000; stroke:none;">
<circle cx="18.0830" cy="5.8930" r="0.1500" /> 
</g>
<g style="fill:#FFFFFF; fill-opacity:1.0000; stroke:none;">
<circle cx="15.0250" cy="31.8250" r="0.1500" /> 
</g>
<g style="fill:#FFFFFF; fill-opacity:1.0000; stroke:none;">
<circle cx="36.5250" cy="8.5250" r="0.1500" /> 
</g>
<g style="fill:#FFFFFF; fill-opacity:1.0000; stroke:none;">
<circle cx="25.8300" cy="5.8930" r="0.1500" /> 
</g>
<g style="fill:#FFFFFF; fill-opacity:1.0000; stroke:none;">
<circle cx="23.5250" cy="17.0250" r="0.1500" /> 
</g>
<g style="fill:#FFFFFF; fill-opacity:1.0000; stroke:none;">
<circle cx="15.0350" cy="8.6870" r="0.1500" /> 
</g>
<g style="fill:#FFFFFF; fill-opacity:1.0000; stroke:none;">
<circle cx="35.7250" cy="27.6250" r="0.1500" /> 
</g>
<g style="fill:#FFFFFF; fill-opacity:1.0000; stroke:none;">
<circle cx="27.1000" cy="5.8930" r="0.1500" /> 
</g>
<g style="fill:#FFFFFF; fill-opacity:1.0000; stroke:none;">
<circle cx="28.2250" cy="6.4250" r="0.1500" /> 
</g>
<g style="fill:#FFFFFF; fill-opacity:1.0000; stroke:none;">
<circle cx="4.5250" cy="17.0250" r="0.1500" /> 
</g>
<g style="fill:#FFFFFF; fill-opacity:1.0000; stroke:none;">
<circle cx="26.5250" cy="17.0250" r="0.1500" /> 
</g>
<g style="fill:#FFFFFF; fill-opacity:1.0000; stroke:none;">
<circle cx="9.7250" cy="7.9250" r="0.1500" /> 
</g>
<g style="fill:#FFFFFF; fill-opacity:1.0000; stroke:none;">
<circle cx="8.7250" cy="35.9250" r="0.1500" /> 
</g>
<g style="fill:#FFFFFF; fill-opacity:1.0000; stroke:none;">
<circle cx="29.1320" cy="38.0240" r="0.1500" /> 
</g>
<g style="fill:#FFFFFF; fill-opacity:1.0000; stroke:none;">
<circle cx="25.0250" cy="17.0250" r="0.1500" /> 
</g>
<g style="fill:#FFFFFF; fill-opacity:1.0000; stroke:none;">
<circle cx="9.0250" cy="17.0250" r="0.1500" /> 
</g>
<g style="fill:#FFFFFF; fill-opacity:1.0000; stroke:none;">
<circle cx="18.0250" cy="17.0250" r="0.1500" /> 
</g>
<g style="fill:#FFFFFF; fill-opacity:1.0000; stroke:none;">
<circle cx="35.1250" cy="8.5250" r="0.1500" /> 
</g>
<g style="fill:#FFFFFF; fill-opacity:1.0000; stroke:none;">
<circle cx="13.2570" cy="5.7660" r="0.1500" /> 
</g>
<g style="fill:#FFFFFF; fill-opacity:1.0000; stroke:none;">
<circle cx="27.9890" cy="4.7500" r="0.1500" /> 
</g>
<g style="fill:#FFFFFF; fill-opacity:1.0000; stroke:none;">
<circle cx="32.1250" cy="22.4250" r="0.2000" /> 
</g>
<g style="fill:#FFFFFF; fill-opacity:1.0000; stroke:none;">
<circle cx="32.9250" cy="28.7250" r="0.2000" /> 
</g>
<g style="fill:#FFFFFF; fill-opacity:1.0000; stroke:none;">
<circle cx="33.4250" cy="35.5250" r="0.2000" /> 
</g>
<g style="fill:#FFFFFF; fill-opacity:1.0000; stroke:none;">
<circle cx="2.5250" cy="2.5250" r="1.1000" /> 
</g>
<g style="fill:#FFFFFF; fill-opacity:1.0000; stroke:none;">
<circle cx="29.8250" cy="33.4250" r="0.2500" /> 
</g>
<g style="fill:#FFFFFF; fill-opacity:1.0000; stroke:none;">
<circle cx="19.8250" cy="31.4250" r="0.2500" /> 
</g>
<g style="fill:#FFFFFF; fill-opacity:1.0000; stroke:none;">
<circle cx="37.7950" cy="28.8500" r="0.5000" /> 
</g>
<g style="fill:#FFFFFF; fill-opacity:1.0000; stroke:none;">
<circle cx="37.7950" cy="26.3100" r="0.5000" /> 
</g>
<g style="fill:#FFFFFF; fill-opacity:1.0000; stroke:none;">
<circle cx="37.7950" cy="23.7700" r="0.5000" /> 
</g>
<g style="fill:#FFFFFF; fill-opacity:1.0000; stroke:none;">
<circle cx="37.5250" cy="42.5250" r="1.1000" /> 
</g>
<g style="fill:#FFFFFF; fill-opacity:1.0000; stroke:none;">
<circle cx="2.7950" cy="20.6150" r="0.5000" /> 
</g>
<g style="fill:#FFFFFF; fill-opacity:1.0000; stroke:none;">
<circle cx="2.7950" cy="23.1550" r="0.5000" /> 
</g>
<g style="fill:#FFFFFF; fill-opacity:1.0000; stroke:none;">
<circle cx="2.7950" cy="25.6950" r="0.5000" /> 
</g>
<g style="fill:#FFFFFF; fill-opacity:1.0000; stroke:none;">
<circle cx="2.7250" cy="13.5650" r="0.5000" /> 
</g>
<g style="fill:#FFFFFF; fill-opacity:1.0000; stroke:none;">
<circle cx="2.7250" cy="11.0250" r="0.5000" /> 
</g>
<g style="fill:#FFFFFF; fill-opacity:1.0000; stroke:none;">
<circle cx="19.8250" cy="33.4250" r="0.2500" /> 
</g>
<g style="fill:#FFFFFF; fill-opacity:1.0000; stroke:none;">
<circle cx="29.8250" cy="31.4250" r="0.2500" /> 
</g>
<g style="fill:#FFFFFF; fill-opacity:1.0000; stroke:none;">
<circle cx="29.8250" cy="29.4250" r="0.2500" /> 
</g>
<g style="fill:#FFFFFF; fill-opacity:1.0000; stroke:none;">
<circle cx="2.5250" cy="42.5250" r="1.1000" /> 
</g>
<g style="fill:#FFFFFF; fill-opacity:1.0000; stroke:none;">
<circle cx="37.7950" cy="35.8650" r="0.5000" /> 
</g>
<g style="fill:#FFFFFF; fill-opacity:1.0000; stroke:none;">
<circle cx="37.7950" cy="33.3250" r="0.5000" /> 
</g>
<g style="fill:#FFFFFF; fill-opacity:1.0000; stroke:none;">
<circle cx="19.8250" cy="35.4250" r="0.2500" /> 
</g>
<g style="fill:#FFFFFF; fill-opacity:1.0000; stroke:none;">
<circle cx="37.7950" cy="19.7400" r="0.5000" /> 
</g>
<g style="fill:#FFFFFF; fill-opacity:1.0000; stroke:none;">
<circle cx="37.7950" cy="17.2000" r="0.5000" /> 
</g>
<g style="fill:#FFFFFF; fill-opacity:1.0000; stroke:none;">
<circle cx="37.7950" cy="14.6600" r="0.5000" /> 
</g>
<g style="fill:#FFFFFF; fill-opacity:1.0000; stroke:none;">
<circle cx="19.8250" cy="29.4250" r="0.2500" /> 
</g>
<g style="fill:#FFFFFF; fill-opacity:1.0000; stroke:none;">
<circle cx="2.7950" cy="30.2900" r="0.5000" /> 
</g>
<g style="fill:#FFFFFF; fill-opacity:1.0000; stroke:none;">
<circle cx="2.7950" cy="32.8300" r="0.5000" /> 
</g>
<g style="fill:#FFFFFF; fill-opacity:1.0000; stroke:none;">
<circle cx="2.7950" cy="35.3700" r="0.5000" /> 
</g>
<g style="fill:#FFFFFF; fill-opacity:1.0000; stroke:none;">
<circle cx="19.8250" cy="37.4250" r="0.2500" /> 
</g>
<g style="fill:#FFFFFF; fill-opacity:1.0000; stroke:none;">
<circle cx="37.5250" cy="2.5250" r="1.1000" /> 
</g> 
</svg>
