M48
; DRILL file {KiCad 8.0.5} date 2024-09-23T13:18:58+0200
; FORMAT={-:-/ absolute / metric / decimal}
; #@! TF.CreationDate,2024-09-23T13:18:58+02:00
; #@! TF.GenerationSoftware,Kicad,Pcbnew,8.0.5
; #@! TF.FileFunction,Plated,1,4,PTH
FMAT,2
METRIC
; #@! TA.AperFunction,Plated,PTH,ViaDrill
T1C0.200
; #@! TA.AperFunction,Plated,PTH,ViaDrill
T2C0.300
; #@! TA.AperFunction,Plated,PTH,ViaDrill
T3C0.400
; #@! TA.AperFunction,Plated,PTH,ComponentDrill
T4C0.500
; #@! TA.AperFunction,Plated,PTH,ComponentDrill
T5C0.762
; #@! TA.AperFunction,Plated,PTH,ComponentDrill
T6C0.950
; #@! TA.AperFunction,Plated,PTH,ComponentDrill
T7C1.000
; #@! TA.AperFunction,Plated,PTH,ComponentDrill
T8C1.750
; #@! TA.AperFunction,Plated,PTH,ComponentDrill
T9C1.800
; #@! TA.AperFunction,Plated,PTH,ComponentDrill
T10C3.200
%
G90
G05
T1
X48.947Y-126.75
X48.947Y-128.528
X71.0Y-135.75
X71.25Y-105.75
X71.416Y-136.44
X71.5Y-143.75
X71.84Y-136.864
X72.178Y-144.314
X72.25Y-137.5
X72.602Y-144.738
X73.0Y-145.25
X73.75Y-122.428
X74.168Y-107.188
X75.306Y-122.428
X75.946Y-107.188
X76.861Y-122.428
X77.47Y-107.188
X78.417Y-122.428
X79.248Y-107.188
X79.75Y-135.75
X79.973Y-122.428
X80.264Y-136.098
X80.772Y-136.398
X81.0Y-135.75
X81.026Y-107.188
X81.163Y-146.695
X81.292Y-146.264
X81.529Y-122.428
X83.084Y-122.428
X83.5Y-139.75
X84.074Y-140.162
X84.074Y-140.762
X84.64Y-122.428
X84.75Y-140.75
X85.25Y-144.018
X85.852Y-144.526
X86.196Y-122.428
X86.614Y-143.764
X87.63Y-144.526
X87.884Y-162.052
X89.408Y-143.764
X89.5Y-106.5
X89.916Y-162.052
X90.17Y-139.446
X90.17Y-141.732
X91.186Y-143.51
X91.694Y-135.636
X92.202Y-133.624
X92.202Y-137.16
X92.202Y-142.494
X92.456Y-139.7
X93.0Y-102.5
X93.726Y-134.112
X95.25Y-141.224
X95.25Y-141.75
X96.266Y-139.192
X96.266Y-143.51
X97.536Y-162.052
X97.79Y-139.7
X98.044Y-134.112
X99.06Y-138.684
X99.568Y-162.052
X100.838Y-141.128
X101.262Y-141.562
X101.6Y-134.366
X101.6Y-134.874
X101.95Y-132.08
X102.616Y-135.636
X104.14Y-135.382
X105.664Y-132.334
X107.315Y-105.029
X107.696Y-162.052
X109.474Y-114.808
X109.474Y-162.052
X111.506Y-124.714
X112.268Y-123.15
X112.522Y-119.888
X113.284Y-136.652
X113.538Y-120.707
X113.538Y-122.057
X113.538Y-138.938
X114.3Y-121.666
X115.062Y-122.174
X115.412Y-117.856
X118.872Y-136.652
X118.872Y-139.192
X122.174Y-164.084
X122.428Y-116.078
X123.952Y-116.078
X124.206Y-164.338
X132.334Y-164.338
X132.588Y-115.824
X133.604Y-115.824
X134.112Y-164.338
X137.668Y-138.938
X138.176Y-138.176
X138.176Y-138.684
X138.176Y-140.208
X138.176Y-140.97
X138.176Y-141.478
X139.192Y-144.876
X139.446Y-137.668
X139.7Y-144.526
X139.954Y-135.128
X140.208Y-136.398
X140.462Y-141.508
X141.732Y-140.208
X141.986Y-126.746
X141.986Y-129.54
X142.24Y-150.114
X142.24Y-164.338
X142.494Y-115.824
X142.494Y-153.924
X144.018Y-164.338
X144.272Y-115.824
X147.066Y-127.254
X147.32Y-130.556
X149.098Y-148.844
X149.098Y-154.178
X152.4Y-164.338
X152.654Y-115.57
X154.178Y-115.57
X154.432Y-164.338
X159.004Y-139.126
X159.512Y-138.938
X159.766Y-138.526
X160.274Y-138.176
X160.782Y-141.224
X160.782Y-141.732
X161.798Y-132.334
X162.56Y-135.382
X163.068Y-136.906
X163.068Y-141.8
X163.068Y-146.05
X163.292Y-139.192
X163.322Y-149.098
X164.484Y-140.608
X167.386Y-132.588
X167.386Y-134.366
X168.402Y-145.288
X168.656Y-147.574
X178.816Y-122.682
T2
X62.484Y-110.236
X65.532Y-110.744
X67.056Y-109.474
X69.5Y-108.712
X70.75Y-107.5
X70.866Y-149.606
X70.866Y-153.416
X72.644Y-141.732
X73.406Y-148.59
X73.406Y-154.178
X74.168Y-137.922
X76.2Y-149.606
X76.2Y-153.67
X76.645Y-139.192
X78.232Y-141.478
X78.994Y-134.874
X80.772Y-132.842
X81.788Y-133.604
X81.788Y-153.162
X82.5Y-107.5
X83.82Y-137.922
X84.074Y-139.192
X84.328Y-132.08
X84.328Y-151.892
X85.598Y-149.098
X85.852Y-135.636
X86.81Y-104.883
X87.376Y-128.778
X87.884Y-135.636
X88.334Y-104.883
X88.392Y-116.586
X88.9Y-143.51
X89.662Y-149.025
X89.916Y-124.206
X90.1Y-131.502
X91.948Y-119.38
X92.202Y-132.334
X94.742Y-122.428
X95.758Y-130.556
X95.758Y-146.304
X96.266Y-119.634
X97.028Y-123.19
X97.79Y-119.634
X97.79Y-143.51
X98.552Y-122.936
X98.552Y-142.494
X99.314Y-134.112
X99.568Y-119.634
X99.568Y-123.952
X100.33Y-117.856
X100.584Y-123.952
X100.584Y-143.256
X101.6Y-131.064
X101.6Y-135.89
X101.6Y-146.05
X101.75Y-124.75
X102.912Y-121.666
X102.912Y-122.682
X102.912Y-123.444
X103.526Y-122.026
X103.886Y-123.952
X104.161Y-122.661
X105.156Y-131.318
X105.664Y-133.604
X105.918Y-142.748
X105.918Y-146.812
X110.998Y-115.57
X111.459Y-117.331
X111.506Y-104.902
X111.506Y-127.254
X111.76Y-113.538
X113.538Y-119.634
X114.046Y-122.936
X114.808Y-121.158
X116.078Y-110.236
X116.332Y-116.078
X137.414Y-139.7
X138.43Y-136.906
X139.954Y-145.288
X141.224Y-133.096
X158.496Y-139.7
X159.766Y-137.668
X161.798Y-146.812
X163.068Y-156.718
X163.576Y-122.682
X163.83Y-133.604
X168.148Y-156.718
X168.656Y-122.682
X173.228Y-156.464
X173.736Y-122.682
X178.308Y-156.464
X183.388Y-156.464
X183.642Y-122.682
X188.468Y-156.718
X188.722Y-122.682
X193.548Y-147.828
X193.802Y-131.572
X195.072Y-133.07
X198.628Y-147.574
X198.882Y-131.572
X200.152Y-133.07
T3
X70.75Y-105.25
X89.5Y-107.5
T4
X55.88Y-115.062
X55.88Y-118.364
X67.31Y-150.114
X67.31Y-152.4
X82.042Y-150.114
X84.836Y-147.828
X90.25Y-114.75
X92.75Y-114.75
X96.52Y-136.652
X98.552Y-126.746
X98.552Y-136.652
X100.584Y-136.652
X101.092Y-126.746
X107.95Y-137.922
X108.204Y-135.636
X114.046Y-118.11
X131.572Y-139.7
X132.588Y-142.494
X134.112Y-139.954
X136.144Y-140.716
T5
X50.25Y-133.78
X50.25Y-136.32
X50.25Y-144.5
X50.25Y-147.04
X60.66Y-135.965
X60.66Y-138.505
X60.66Y-141.045
X60.66Y-143.585
X63.2Y-137.235
X63.2Y-139.775
X63.2Y-142.315
X63.2Y-144.855
T6
X86.832Y-168.656
X86.832Y-171.156
X86.832Y-173.656
X91.658Y-168.656
X91.658Y-171.156
X91.658Y-173.656
X96.52Y-168.656
X96.52Y-171.156
X96.52Y-173.656
X99.014Y-106.72
X99.014Y-109.22
X99.014Y-111.72
X101.346Y-168.656
X101.346Y-171.156
X101.346Y-173.656
X104.048Y-106.68
X104.048Y-109.18
X104.048Y-111.68
X106.344Y-168.656
X106.344Y-171.156
X106.344Y-173.656
X111.17Y-168.656
X111.17Y-171.156
X111.17Y-173.656
T7
X52.2Y-160.5
X52.2Y-163.0
X87.122Y-153.162
X89.662Y-153.162
X92.202Y-153.162
X94.742Y-153.162
X97.282Y-153.162
X99.822Y-153.162
X120.096Y-171.236
X120.096Y-173.736
X120.742Y-105.998
X120.742Y-108.498
X125.222Y-171.256
X125.222Y-173.756
X125.822Y-105.978
X125.822Y-108.478
X130.302Y-171.256
X130.302Y-173.756
X130.902Y-105.958
X130.902Y-108.458
X135.382Y-171.256
X135.382Y-173.756
X135.982Y-105.958
X135.982Y-108.458
X140.462Y-171.256
X140.462Y-173.756
X141.016Y-105.998
X141.016Y-108.498
X145.542Y-171.256
X145.542Y-173.756
X146.096Y-105.998
X146.096Y-108.498
X150.622Y-171.256
X150.622Y-173.756
X151.222Y-105.978
X151.222Y-108.478
X155.656Y-171.236
X155.656Y-173.736
X156.256Y-105.958
X156.256Y-108.458
X163.276Y-105.958
X163.276Y-108.458
X163.622Y-171.278
X163.622Y-173.778
X168.348Y-105.958
X168.348Y-108.458
X168.702Y-171.216
X168.702Y-173.716
X173.436Y-105.958
X173.436Y-108.458
X173.736Y-171.216
X173.736Y-173.716
X178.516Y-105.958
X178.516Y-108.458
X178.816Y-171.216
X178.816Y-173.716
X183.342Y-105.958
X183.342Y-108.458
X183.942Y-171.216
X183.942Y-173.716
X188.422Y-105.958
X188.422Y-108.458
X188.976Y-171.216
X188.976Y-173.716
X193.502Y-114.594
X193.502Y-117.094
X194.102Y-162.388
X194.102Y-164.888
X198.536Y-114.594
X198.536Y-117.094
X199.136Y-162.388
X199.136Y-164.888
T8
X51.0Y-114.92
X51.0Y-120.0
T9
X57.36Y-132.79
X57.36Y-148.03
T10
X51.054Y-173.99
X52.324Y-105.918
X196.596Y-105.918
X197.104Y-173.228
M30
