%TF.GenerationSoftware,KiCad,Pcbnew,8.0.5*%
%TF.CreationDate,2024-09-23T13:18:53+02:00*%
%TF.ProjectId,PIC18F_ETH,50494331-3846-45f4-9554-482e6b696361,rev?*%
%TF.SameCoordinates,Original*%
%TF.FileFunction,Soldermask,Bot*%
%TF.FilePolarity,Negative*%
%FSLAX46Y46*%
G04 Gerber Fmt 4.6, Leading zero omitted, Abs format (unit mm)*
G04 Created by KiCad (PCBNEW 8.0.5) date 2024-09-23 13:18:53*
%MOMM*%
%LPD*%
G01*
G04 APERTURE LIST*
G04 Aperture macros list*
%AMRoundRect*
0 Rectangle with rounded corners*
0 $1 Rounding radius*
0 $2 $3 $4 $5 $6 $7 $8 $9 X,Y pos of 4 corners*
0 Add a 4 corners polygon primitive as box body*
4,1,4,$2,$3,$4,$5,$6,$7,$8,$9,$2,$3,0*
0 Add four circle primitives for the rounded corners*
1,1,$1+$1,$2,$3*
1,1,$1+$1,$4,$5*
1,1,$1+$1,$6,$7*
1,1,$1+$1,$8,$9*
0 Add four rect primitives between the rounded corners*
20,1,$1+$1,$2,$3,$4,$5,0*
20,1,$1+$1,$4,$5,$6,$7,0*
20,1,$1+$1,$6,$7,$8,$9,0*
20,1,$1+$1,$8,$9,$2,$3,0*%
G04 Aperture macros list end*
%ADD10C,5.700000*%
%ADD11RoundRect,0.250000X-0.750000X0.600000X-0.750000X-0.600000X0.750000X-0.600000X0.750000X0.600000X0*%
%ADD12O,2.000000X1.700000*%
%ADD13RoundRect,0.250000X0.725000X-0.600000X0.725000X0.600000X-0.725000X0.600000X-0.725000X-0.600000X0*%
%ADD14O,1.950000X1.700000*%
%ADD15RoundRect,0.250000X0.750000X-0.600000X0.750000X0.600000X-0.750000X0.600000X-0.750000X-0.600000X0*%
%ADD16R,1.000000X1.000000*%
%ADD17C,1.000000*%
%ADD18R,2.800000X2.800000*%
%ADD19C,2.800000*%
%ADD20R,1.700000X1.700000*%
%ADD21O,1.700000X1.700000*%
%ADD22RoundRect,0.250000X-0.725000X0.600000X-0.725000X-0.600000X0.725000X-0.600000X0.725000X0.600000X0*%
%ADD23C,3.200000*%
%ADD24R,1.524000X1.524000*%
%ADD25C,1.524000*%
%ADD26O,2.000000X3.500000*%
G04 APERTURE END LIST*
D10*
%TO.C,H7004*%
X51054000Y-173990000D03*
%TD*%
D11*
%TO.C,J8012*%
X141016000Y-105998000D03*
D12*
X141016000Y-108498000D03*
%TD*%
D11*
%TO.C,J8016*%
X120742000Y-105998000D03*
D12*
X120742000Y-108498000D03*
%TD*%
D10*
%TO.C,H7003*%
X197104000Y-173228000D03*
%TD*%
D13*
%TO.C,J6001*%
X99014000Y-111720000D03*
D14*
X99014000Y-109220000D03*
X99014000Y-106720000D03*
%TD*%
D15*
%TO.C,J8007*%
X150622000Y-173756000D03*
D12*
X150622000Y-171256000D03*
%TD*%
D16*
%TO.C,TP2015*%
X100584000Y-136652000D03*
%TD*%
D17*
%TO.C,TP2004*%
X96520000Y-136652000D03*
%TD*%
D11*
%TO.C,J9002*%
X168702000Y-171216000D03*
D12*
X168702000Y-173716000D03*
%TD*%
D17*
%TO.C,TP3001*%
X55880000Y-115062000D03*
%TD*%
D15*
%TO.C,J3002*%
X52200000Y-163000000D03*
D12*
X52200000Y-160500000D03*
%TD*%
D17*
%TO.C,TP2001*%
X67310000Y-150114000D03*
%TD*%
D16*
%TO.C,TP2016*%
X82042000Y-150114000D03*
%TD*%
D17*
%TO.C,TP2010*%
X134112000Y-139954000D03*
%TD*%
D15*
%TO.C,J9010*%
X193502000Y-117094000D03*
D12*
X193502000Y-114594000D03*
%TD*%
D15*
%TO.C,J9016*%
X163276000Y-108458000D03*
D12*
X163276000Y-105958000D03*
%TD*%
D17*
%TO.C,TP3003*%
X92750000Y-114750000D03*
%TD*%
%TO.C,TP2002*%
X67310000Y-152400000D03*
%TD*%
D18*
%TO.C,J3001*%
X51000000Y-120000000D03*
D19*
X51000000Y-114920000D03*
%TD*%
D15*
%TO.C,J8008*%
X155656000Y-173736000D03*
D12*
X155656000Y-171236000D03*
%TD*%
D13*
%TO.C,J6002*%
X104048000Y-111680000D03*
D14*
X104048000Y-109180000D03*
X104048000Y-106680000D03*
%TD*%
D15*
%TO.C,J9013*%
X178516000Y-108458000D03*
D12*
X178516000Y-105958000D03*
%TD*%
D11*
%TO.C,J9003*%
X173736000Y-171216000D03*
D12*
X173736000Y-173716000D03*
%TD*%
D11*
%TO.C,J8013*%
X135982000Y-105958000D03*
D12*
X135982000Y-108458000D03*
%TD*%
D11*
%TO.C,J9006*%
X188976000Y-171216000D03*
D12*
X188976000Y-173716000D03*
%TD*%
D17*
%TO.C,TP2008*%
X131572000Y-139700000D03*
%TD*%
D11*
%TO.C,J8014*%
X130902000Y-105958000D03*
D12*
X130902000Y-108458000D03*
%TD*%
D17*
%TO.C,TP2011*%
X108204000Y-135636000D03*
%TD*%
D20*
%TO.C,J2001*%
X87122000Y-153162000D03*
D21*
X89662000Y-153162000D03*
X92202000Y-153162000D03*
X94742000Y-153162000D03*
X97282000Y-153162000D03*
X99822000Y-153162000D03*
%TD*%
D17*
%TO.C,TP2003*%
X98552000Y-136652000D03*
%TD*%
%TO.C,TP3005*%
X101092000Y-126746000D03*
%TD*%
D22*
%TO.C,J4003*%
X101346000Y-168656000D03*
D14*
X101346000Y-171156000D03*
X101346000Y-173656000D03*
%TD*%
D15*
%TO.C,J8006*%
X145542000Y-173756000D03*
D12*
X145542000Y-171256000D03*
%TD*%
D10*
%TO.C,H7002*%
X196596000Y-105918000D03*
%TD*%
D15*
%TO.C,J8004*%
X135382000Y-173756000D03*
D12*
X135382000Y-171256000D03*
%TD*%
D22*
%TO.C,J4006*%
X86832000Y-168656000D03*
D14*
X86832000Y-171156000D03*
X86832000Y-173656000D03*
%TD*%
D15*
%TO.C,J8005*%
X140462000Y-173756000D03*
D12*
X140462000Y-171256000D03*
%TD*%
D15*
%TO.C,J9012*%
X183342000Y-108458000D03*
D12*
X183342000Y-105958000D03*
%TD*%
D11*
%TO.C,J9007*%
X194102000Y-162388000D03*
D12*
X194102000Y-164888000D03*
%TD*%
D22*
%TO.C,J4002*%
X106344000Y-168656000D03*
D14*
X106344000Y-171156000D03*
X106344000Y-173656000D03*
%TD*%
D15*
%TO.C,J9015*%
X168348000Y-108458000D03*
D12*
X168348000Y-105958000D03*
%TD*%
D17*
%TO.C,TP2009*%
X136144000Y-140716000D03*
%TD*%
%TO.C,TP2012*%
X84836000Y-147828000D03*
%TD*%
%TO.C,TP2007*%
X114046000Y-118110000D03*
%TD*%
D11*
%TO.C,J8011*%
X146096000Y-105998000D03*
D12*
X146096000Y-108498000D03*
%TD*%
D11*
%TO.C,J9001*%
X163622000Y-171278000D03*
D12*
X163622000Y-173778000D03*
%TD*%
D15*
%TO.C,J8001*%
X120096000Y-173736000D03*
D12*
X120096000Y-171236000D03*
%TD*%
D17*
%TO.C,TP2006*%
X107950000Y-137922000D03*
%TD*%
D23*
%TO.C,J5001*%
X54310000Y-134695000D03*
X54310000Y-146125000D03*
D24*
X60660000Y-135965000D03*
D25*
X63200000Y-137235000D03*
X60660000Y-138505000D03*
X63200000Y-139775000D03*
X60660000Y-141045000D03*
X63200000Y-142315000D03*
X60660000Y-143585000D03*
X63200000Y-144855000D03*
X50250000Y-133780000D03*
X50250000Y-136320000D03*
X50250000Y-144500000D03*
X50250000Y-147040000D03*
D26*
X57360000Y-133290000D03*
X57360000Y-147530000D03*
%TD*%
D11*
%TO.C,J8015*%
X125822000Y-105978000D03*
D12*
X125822000Y-108478000D03*
%TD*%
D22*
%TO.C,J4004*%
X96520000Y-168656000D03*
D14*
X96520000Y-171156000D03*
X96520000Y-173656000D03*
%TD*%
D16*
%TO.C,TP3006*%
X90250000Y-114750000D03*
%TD*%
D15*
%TO.C,J9009*%
X198536000Y-117094000D03*
D12*
X198536000Y-114594000D03*
%TD*%
D15*
%TO.C,J9011*%
X188422000Y-108458000D03*
D12*
X188422000Y-105958000D03*
%TD*%
D11*
%TO.C,J9008*%
X199136000Y-162388000D03*
D12*
X199136000Y-164888000D03*
%TD*%
D10*
%TO.C,H7001*%
X52324000Y-105918000D03*
%TD*%
D16*
%TO.C,TP3002*%
X55880000Y-118364000D03*
%TD*%
D11*
%TO.C,J9004*%
X178816000Y-171216000D03*
D12*
X178816000Y-173716000D03*
%TD*%
D11*
%TO.C,J8010*%
X151222000Y-105978000D03*
D12*
X151222000Y-108478000D03*
%TD*%
D16*
%TO.C,TP2005*%
X132588000Y-142494000D03*
%TD*%
D11*
%TO.C,J8009*%
X156256000Y-105958000D03*
D12*
X156256000Y-108458000D03*
%TD*%
D11*
%TO.C,J9005*%
X183942000Y-171216000D03*
D12*
X183942000Y-173716000D03*
%TD*%
D22*
%TO.C,J4005*%
X91658000Y-168656000D03*
D14*
X91658000Y-171156000D03*
X91658000Y-173656000D03*
%TD*%
D15*
%TO.C,J8002*%
X125222000Y-173756000D03*
D12*
X125222000Y-171256000D03*
%TD*%
D22*
%TO.C,J4001*%
X111170000Y-168656000D03*
D14*
X111170000Y-171156000D03*
X111170000Y-173656000D03*
%TD*%
D16*
%TO.C,TP3004*%
X98552000Y-126746000D03*
%TD*%
D15*
%TO.C,J9014*%
X173436000Y-108458000D03*
D12*
X173436000Y-105958000D03*
%TD*%
D15*
%TO.C,J8003*%
X130302000Y-173756000D03*
D12*
X130302000Y-171256000D03*
%TD*%
M02*
