%TF.GenerationSoftware,KiCad,Pcbnew,8.0.5*%
%TF.CreationDate,2024-09-27T12:36:33+02:00*%
%TF.ProjectId,PIC18F_ETH,50494331-3846-45f4-9554-482e6b696361,rev?*%
%TF.SameCoordinates,Original*%
%TF.FileFunction,Soldermask,Bot*%
%TF.FilePolarity,Negative*%
%FSLAX46Y46*%
G04 Gerber Fmt 4.6, Leading zero omitted, Abs format (unit mm)*
G04 Created by KiCad (PCBNEW 8.0.5) date 2024-09-27 12:36:33*
%MOMM*%
%LPD*%
G01*
G04 APERTURE LIST*
G04 Aperture macros list*
%AMRoundRect*
0 Rectangle with rounded corners*
0 $1 Rounding radius*
0 $2 $3 $4 $5 $6 $7 $8 $9 X,Y pos of 4 corners*
0 Add a 4 corners polygon primitive as box body*
4,1,4,$2,$3,$4,$5,$6,$7,$8,$9,$2,$3,0*
0 Add four circle primitives for the rounded corners*
1,1,$1+$1,$2,$3*
1,1,$1+$1,$4,$5*
1,1,$1+$1,$6,$7*
1,1,$1+$1,$8,$9*
0 Add four rect primitives between the rounded corners*
20,1,$1+$1,$2,$3,$4,$5,0*
20,1,$1+$1,$4,$5,$6,$7,0*
20,1,$1+$1,$6,$7,$8,$9,0*
20,1,$1+$1,$8,$9,$2,$3,0*%
G04 Aperture macros list end*
%ADD10C,5.700000*%
%ADD11RoundRect,0.250000X-0.750000X0.600000X-0.750000X-0.600000X0.750000X-0.600000X0.750000X0.600000X0*%
%ADD12O,2.000000X1.700000*%
%ADD13RoundRect,0.250000X0.725000X-0.600000X0.725000X0.600000X-0.725000X0.600000X-0.725000X-0.600000X0*%
%ADD14O,1.950000X1.700000*%
%ADD15RoundRect,0.250000X0.750000X-0.600000X0.750000X0.600000X-0.750000X0.600000X-0.750000X-0.600000X0*%
%ADD16C,1.000000*%
%ADD17R,1.000000X1.000000*%
%ADD18R,2.800000X2.800000*%
%ADD19C,2.800000*%
%ADD20RoundRect,0.250000X-0.725000X0.600000X-0.725000X-0.600000X0.725000X-0.600000X0.725000X0.600000X0*%
%ADD21R,1.700000X1.700000*%
%ADD22O,1.700000X1.700000*%
%ADD23C,3.200000*%
%ADD24R,1.524000X1.524000*%
%ADD25C,1.524000*%
%ADD26O,2.000000X3.500000*%
G04 APERTURE END LIST*
D10*
%TO.C,H7004*%
X135540000Y-169631998D03*
%TD*%
D11*
%TO.C,J8012*%
X225423000Y-102421999D03*
D12*
X225423000Y-104921999D03*
%TD*%
D11*
%TO.C,J8016*%
X205149000Y-102421999D03*
D12*
X205149000Y-104921999D03*
%TD*%
D10*
%TO.C,H7003*%
X281540000Y-169631998D03*
%TD*%
D13*
%TO.C,J6001*%
X183421000Y-108143999D03*
D14*
X183421000Y-105643999D03*
X183421000Y-103143999D03*
%TD*%
D15*
%TO.C,J8007*%
X235029000Y-170179999D03*
D12*
X235029000Y-167679999D03*
%TD*%
D11*
%TO.C,J9002*%
X253109000Y-167639999D03*
D12*
X253109000Y-170139999D03*
%TD*%
D16*
%TO.C,TP3001*%
X140287000Y-111485999D03*
%TD*%
D15*
%TO.C,J3002*%
X136607000Y-159423999D03*
D12*
X136607000Y-156923999D03*
%TD*%
D16*
%TO.C,TP2001*%
X151717000Y-146537999D03*
%TD*%
D17*
%TO.C,TP2016*%
X166449000Y-146537999D03*
%TD*%
D16*
%TO.C,TP2010*%
X218519000Y-136377999D03*
%TD*%
D15*
%TO.C,J9010*%
X277909000Y-113517999D03*
D12*
X277909000Y-111017999D03*
%TD*%
D15*
%TO.C,J9016*%
X247683000Y-104881999D03*
D12*
X247683000Y-102381999D03*
%TD*%
D16*
%TO.C,TP3003*%
X177157000Y-111173999D03*
%TD*%
%TO.C,TP2002*%
X151717000Y-148823999D03*
%TD*%
D18*
%TO.C,J3001*%
X135407000Y-116423999D03*
D19*
X135407000Y-111343999D03*
%TD*%
D15*
%TO.C,J8008*%
X240063000Y-170159999D03*
D12*
X240063000Y-167659999D03*
%TD*%
D13*
%TO.C,J6002*%
X188455000Y-108103999D03*
D14*
X188455000Y-105603999D03*
X188455000Y-103103999D03*
%TD*%
D15*
%TO.C,J9013*%
X262923000Y-104881999D03*
D12*
X262923000Y-102381999D03*
%TD*%
D11*
%TO.C,J9003*%
X258143000Y-167639999D03*
D12*
X258143000Y-170139999D03*
%TD*%
D20*
%TO.C,J2002*%
X199977000Y-125749999D03*
D14*
X199977000Y-128249999D03*
X199977000Y-130749999D03*
%TD*%
D11*
%TO.C,J8013*%
X220389000Y-102381999D03*
D12*
X220389000Y-104881999D03*
%TD*%
D11*
%TO.C,J9006*%
X273383000Y-167639999D03*
D12*
X273383000Y-170139999D03*
%TD*%
D16*
%TO.C,TP2008*%
X215979000Y-136123999D03*
%TD*%
D11*
%TO.C,J8014*%
X215309000Y-102381999D03*
D12*
X215309000Y-104881999D03*
%TD*%
D16*
%TO.C,TP2011*%
X192357000Y-130027999D03*
%TD*%
D21*
%TO.C,J2001*%
X171529000Y-149585999D03*
D22*
X174069000Y-149585999D03*
X176609000Y-149585999D03*
X179149000Y-149585999D03*
X181689000Y-149585999D03*
X184229000Y-149585999D03*
%TD*%
D16*
%TO.C,TP3005*%
X185499000Y-123169999D03*
%TD*%
D20*
%TO.C,J4003*%
X185753000Y-165079999D03*
D14*
X185753000Y-167579999D03*
X185753000Y-170079999D03*
%TD*%
D15*
%TO.C,J8006*%
X229949000Y-170179999D03*
D12*
X229949000Y-167679999D03*
%TD*%
D10*
%TO.C,H7002*%
X281540000Y-103631998D03*
%TD*%
D15*
%TO.C,J8004*%
X219789000Y-170179999D03*
D12*
X219789000Y-167679999D03*
%TD*%
D20*
%TO.C,J4006*%
X171239000Y-165079999D03*
D14*
X171239000Y-167579999D03*
X171239000Y-170079999D03*
%TD*%
D15*
%TO.C,J8005*%
X224869000Y-170179999D03*
D12*
X224869000Y-167679999D03*
%TD*%
D15*
%TO.C,J9012*%
X267749000Y-104881999D03*
D12*
X267749000Y-102381999D03*
%TD*%
D11*
%TO.C,J9007*%
X278509000Y-158811999D03*
D12*
X278509000Y-161311999D03*
%TD*%
D20*
%TO.C,J4002*%
X190751000Y-165079999D03*
D14*
X190751000Y-167579999D03*
X190751000Y-170079999D03*
%TD*%
D15*
%TO.C,J9015*%
X252755000Y-104881999D03*
D12*
X252755000Y-102381999D03*
%TD*%
D16*
%TO.C,TP2009*%
X220551000Y-137139999D03*
%TD*%
%TO.C,TP2012*%
X168481000Y-151617999D03*
%TD*%
%TO.C,TP2007*%
X198707000Y-115803999D03*
%TD*%
D11*
%TO.C,J8011*%
X230503000Y-102421999D03*
D12*
X230503000Y-104921999D03*
%TD*%
D11*
%TO.C,J9001*%
X248029000Y-167701999D03*
D12*
X248029000Y-170201999D03*
%TD*%
D15*
%TO.C,J8001*%
X204503000Y-170159999D03*
D12*
X204503000Y-167659999D03*
%TD*%
D16*
%TO.C,TP2006*%
X221313000Y-132821999D03*
%TD*%
D23*
%TO.C,J5001*%
X138717000Y-131118999D03*
X138717000Y-142548999D03*
D24*
X145067000Y-132388999D03*
D25*
X147607000Y-133658999D03*
X145067000Y-134928999D03*
X147607000Y-136198999D03*
X145067000Y-137468999D03*
X147607000Y-138738999D03*
X145067000Y-140008999D03*
X147607000Y-141278999D03*
X134657000Y-130203999D03*
X134657000Y-132743999D03*
X134657000Y-140923999D03*
X134657000Y-143463999D03*
D26*
X141767000Y-129713999D03*
X141767000Y-143953999D03*
%TD*%
D11*
%TO.C,J8015*%
X210229000Y-102401999D03*
D12*
X210229000Y-104901999D03*
%TD*%
D20*
%TO.C,J4004*%
X180927000Y-165079999D03*
D14*
X180927000Y-167579999D03*
X180927000Y-170079999D03*
%TD*%
D17*
%TO.C,TP3006*%
X174657000Y-111173999D03*
%TD*%
D15*
%TO.C,J9009*%
X282943000Y-113517999D03*
D12*
X282943000Y-111017999D03*
%TD*%
D15*
%TO.C,J9011*%
X272829000Y-104881999D03*
D12*
X272829000Y-102381999D03*
%TD*%
D11*
%TO.C,J9008*%
X283543000Y-158811999D03*
D12*
X283543000Y-161311999D03*
%TD*%
D10*
%TO.C,H7001*%
X135540000Y-103631998D03*
%TD*%
D17*
%TO.C,TP3002*%
X140287000Y-114787999D03*
%TD*%
D11*
%TO.C,J9004*%
X263223000Y-167639999D03*
D12*
X263223000Y-170139999D03*
%TD*%
D11*
%TO.C,J8010*%
X235629000Y-102401999D03*
D12*
X235629000Y-104901999D03*
%TD*%
D17*
%TO.C,TP2005*%
X216995000Y-138917999D03*
%TD*%
D11*
%TO.C,J8009*%
X240663000Y-102381999D03*
D12*
X240663000Y-104881999D03*
%TD*%
D11*
%TO.C,J9005*%
X268349000Y-167639999D03*
D12*
X268349000Y-170139999D03*
%TD*%
D20*
%TO.C,J4005*%
X176065000Y-165079999D03*
D14*
X176065000Y-167579999D03*
X176065000Y-170079999D03*
%TD*%
D15*
%TO.C,J8002*%
X209629000Y-170179999D03*
D12*
X209629000Y-167679999D03*
%TD*%
D20*
%TO.C,J4001*%
X195577000Y-165079999D03*
D14*
X195577000Y-167579999D03*
X195577000Y-170079999D03*
%TD*%
D17*
%TO.C,TP3004*%
X182959000Y-123169999D03*
%TD*%
D15*
%TO.C,J9014*%
X257843000Y-104881999D03*
D12*
X257843000Y-102381999D03*
%TD*%
D15*
%TO.C,J8003*%
X214709000Y-170179999D03*
D12*
X214709000Y-167679999D03*
%TD*%
M02*
