M48
; DRILL file {KiCad 8.0.5} date 2024-09-28T09:46:05+0200
; FORMAT={-:-/ absolute / inch / decimal}
; #@! TF.CreationDate,2024-09-28T09:46:05+02:00
; #@! TF.GenerationSoftware,Kicad,Pcbnew,8.0.5
; #@! TF.FileFunction,Plated,1,4,PTH
FMAT,2
INCH
; #@! TA.AperFunction,Plated,PTH,ViaDrill
T1C0.0079
; #@! TA.AperFunction,Plated,PTH,ViaDrill
T2C0.0118
; #@! TA.AperFunction,Plated,PTH,ViaDrill
T3C0.0157
; #@! TA.AperFunction,Plated,PTH,ComponentDrill
T4C0.0197
; #@! TA.AperFunction,Plated,PTH,ComponentDrill
T5C0.0300
; #@! TA.AperFunction,Plated,PTH,ComponentDrill
T6C0.0374
; #@! TA.AperFunction,Plated,PTH,ComponentDrill
T7C0.0394
; #@! TA.AperFunction,Plated,PTH,ComponentDrill
T8C0.0689
; #@! TA.AperFunction,Plated,PTH,ComponentDrill
T9C0.0709
; #@! TA.AperFunction,Plated,PTH,ComponentDrill
T10C0.1260
%
G90
G05
T1
X5.2501Y-4.8494
X5.2501Y-4.9194
X6.1184Y-5.2037
X6.1348Y-5.2309
X6.1359Y-4.036
X6.1359Y-5.5222
X6.1515Y-5.2476
X6.1556Y-5.7486
X6.1556Y-5.8992
X6.1648Y-5.5409
X6.1676Y-5.2726
X6.1815Y-5.5576
X6.2048Y-5.5813
X6.2267Y-4.6792
X6.2431Y-4.0792
X6.2442Y-5.6895
X6.2541Y-5.9356
X6.2879Y-4.6792
X6.3131Y-4.0792
X6.3492Y-4.6792
X6.3623Y-5.7289
X6.3623Y-5.9257
X6.3731Y-4.0792
X6.4104Y-4.6792
X6.4431Y-4.0792
X6.4629Y-5.2037
X6.4717Y-4.6792
X6.4831Y-5.2174
X6.5001Y-5.6108
X6.5001Y-5.6346
X6.5031Y-5.2292
X6.5121Y-5.2037
X6.5131Y-4.0792
X6.5236Y-5.6009
X6.5329Y-4.6792
X6.5942Y-4.6792
X6.6105Y-5.3612
X6.6331Y-5.3774
X6.6331Y-5.401
X6.6554Y-4.6792
X6.6597Y-5.4006
X6.6794Y-5.5292
X6.7031Y-5.5492
X6.7131Y-5.6692
X6.7167Y-4.6792
X6.7331Y-5.5192
X6.7659Y-5.532
X6.7831Y-6.2392
X6.8431Y-5.5192
X6.8467Y-4.0521
X6.8631Y-6.2392
X6.8731Y-5.3492
X6.8731Y-5.4392
X6.9131Y-5.5092
X6.9531Y-5.2592
X6.9531Y-5.4692
X6.9631Y-5.3592
X6.9726Y-5.1285
X6.9845Y-3.8946
X7.0131Y-5.1392
X7.0731Y-5.4399
X7.0907Y-5.4154
X7.1108Y-5.3415
X7.1131Y-5.5092
X7.1202Y-5.6192
X7.1631Y-6.2392
X7.1731Y-5.3592
X7.1831Y-5.1392
X7.2231Y-5.3192
X7.2431Y-6.2392
X7.2531Y-5.4992
X7.2974Y-5.2072
X7.3031Y-5.6092
X7.3269Y-5.4325
X7.3369Y-5.0592
X7.3494Y-5.4328
X7.3663Y-5.2072
X7.4231Y-5.1892
X7.4831Y-5.0692
X7.5237Y-5.4792
X7.5336Y-5.6392
X7.5481Y-3.9942
X7.5631Y-6.2392
X7.6331Y-4.3792
X7.6331Y-6.2392
X7.7131Y-4.7692
X7.7403Y-5.2466
X7.7501Y-4.7151
X7.7531Y-4.5792
X7.76Y-5.3292
X7.7796Y-4.7387
X7.7831Y-5.2392
X7.7931Y-5.3292
X7.7988Y-4.6172
X7.8005Y-4.6691
X7.8387Y-4.6069
X7.8431Y-4.6392
X7.8669Y-4.6265
X7.8682Y-4.6692
X8.0031Y-5.2392
X8.0031Y-5.3392
X8.0356Y-5.3392
X8.0454Y-5.2392
X8.1331Y-6.3192
X8.1431Y-4.4292
X8.2031Y-4.4292
X8.2131Y-6.3292
X8.5331Y-6.3292
X8.5431Y-4.4192
X8.5831Y-4.4192
X8.6031Y-6.3292
X8.7425Y-5.3384
X8.7526Y-5.3192
X8.7631Y-5.2992
X8.7631Y-5.3792
X8.7631Y-5.4092
X8.7631Y-5.4292
X8.8131Y-5.532
X8.8331Y-5.1792
X8.8431Y-5.2292
X8.8525Y-5.4238
X8.8529Y-5.539
X8.882Y-4.8492
X8.882Y-4.9592
X8.882Y-5.3746
X8.9131Y-4.8492
X8.9131Y-4.9592
X8.9211Y-5.7908
X8.9231Y-5.7692
X8.9231Y-6.3292
X8.9312Y-5.9454
X8.9331Y-4.4192
X8.9331Y-5.9192
X8.9411Y-5.4139
X8.9931Y-6.3292
X9.0031Y-4.4192
X9.1131Y-4.8692
X9.1231Y-4.9992
X9.1576Y-4.8792
X9.1576Y-4.9992
X9.1931Y-5.7192
X9.1931Y-5.9292
X9.197Y-5.9553
X9.1973Y-5.7405
X9.3231Y-6.3292
X9.3331Y-4.4092
X9.3931Y-4.4092
X9.4031Y-6.3292
X9.5611Y-5.3549
X9.5808Y-5.3352
X9.6005Y-5.286
X9.6131Y-5.313
X9.6531Y-5.4192
X9.6531Y-5.4392
X9.6931Y-5.0692
X9.7231Y-5.1892
X9.7383Y-5.6403
X9.7431Y-5.2492
X9.7431Y-5.4419
X9.7431Y-5.6092
X9.7481Y-5.7584
X9.7519Y-5.3392
X9.7531Y-5.7292
X9.7989Y-5.395
X9.9131Y-5.0792
X9.9131Y-5.1492
X9.9531Y-5.5792
X9.9631Y-5.5992
X9.9631Y-5.6692
X9.9731Y-5.6892
X10.3631Y-4.6892
T2
X5.7831Y-4.1992
X5.9031Y-4.2192
X5.9631Y-4.1692
X6.0593Y-4.1392
X6.1085Y-4.0915
X6.1131Y-5.7492
X6.1131Y-5.8992
X6.1831Y-5.3492
X6.1831Y-5.4392
X6.2131Y-5.7092
X6.2131Y-5.9292
X6.2431Y-5.2892
X6.3231Y-5.7492
X6.3231Y-5.9092
X6.3406Y-5.3392
X6.4031Y-5.4292
X6.4331Y-5.1692
X6.5031Y-5.0892
X6.5431Y-5.1192
X6.5431Y-5.8892
X6.5711Y-4.0915
X6.6231Y-5.2892
X6.6331Y-5.3392
X6.6431Y-5.0592
X6.6431Y-5.8392
X6.7031Y-5.1992
X6.7131Y-5.6992
X6.7408Y-3.9885
X6.7631Y-4.9292
X6.7831Y-5.1992
X6.8008Y-3.9885
X6.8031Y-4.4492
X6.8052Y-5.5092
X6.8531Y-5.7263
X6.8631Y-4.7492
X6.8704Y-5.0365
X6.9431Y-4.5592
X6.9631Y-5.0792
X7.0531Y-4.6792
X7.0831Y-5.6292
X7.0931Y-4.4792
X7.0931Y-4.9992
X7.1131Y-4.5692
X7.1431Y-4.7092
X7.1731Y-4.5692
X7.1731Y-5.5092
X7.2031Y-4.6992
X7.2031Y-5.4692
X7.2331Y-5.1392
X7.2431Y-4.7392
X7.2777Y-4.971
X7.2831Y-4.7392
X7.2831Y-5.4992
X7.3131Y-4.4892
X7.3131Y-4.5792
X7.3269Y-5.6403
X7.329Y-4.7706
X7.3748Y-4.6492
X7.3748Y-4.6892
X7.3748Y-4.7192
X7.3989Y-4.6634
X7.4131Y-4.7392
X7.4239Y-4.6884
X7.4331Y-4.6192
X7.4631Y-5.0292
X7.4831Y-5.4792
X7.4844Y-5.6392
X7.5031Y-5.1992
X7.6931Y-4.4092
X7.7113Y-4.4786
X7.7131Y-3.9892
X7.7131Y-4.8692
X7.7231Y-4.3292
X7.7631Y-4.5392
X7.8931Y-4.1992
X7.9031Y-4.4292
X8.6261Y-5.4336
X8.6931Y-5.6292
X8.8831Y-5.0992
X9.5513Y-5.3844
X9.571Y-5.2761
X9.6931Y-5.6392
X9.7431Y-6.0292
X9.7631Y-4.6892
X9.7731Y-5.1192
X9.9431Y-6.0292
X9.9631Y-4.6892
X10.1431Y-6.0192
X10.1631Y-4.6892
X10.3431Y-6.0192
X10.5431Y-6.0192
X10.5531Y-4.6892
X10.7431Y-6.0292
X10.7531Y-4.6892
X10.9431Y-5.6792
X10.9531Y-5.0392
X11.0031Y-5.0982
X11.1431Y-5.6692
X11.1531Y-5.0392
X11.2031Y-5.0982
T3
X6.1085Y-4.0029
X6.8467Y-4.0915
T4
X5.5231Y-4.3892
X5.5231Y-4.5192
X5.9731Y-5.7692
X5.9731Y-5.8592
X6.5531Y-5.7692
X6.6331Y-5.9692
X6.8763Y-4.3769
X6.9747Y-4.3769
X7.2031Y-4.8492
X7.3031Y-4.8492
X7.5731Y-5.1192
X7.8231Y-4.5592
X8.5031Y-5.3592
X8.5431Y-5.4692
X8.6031Y-5.3692
X8.6831Y-5.3992
X8.7131Y-5.2292
T5
X5.3015Y-5.1261
X5.3015Y-5.2261
X5.3015Y-5.5482
X5.3015Y-5.6482
X5.7113Y-5.2122
X5.7113Y-5.3122
X5.7113Y-5.4122
X5.7113Y-5.5122
X5.8113Y-5.2622
X5.8113Y-5.3622
X5.8113Y-5.4622
X5.8113Y-5.5622
T6
X6.7417Y-6.4992
X6.7417Y-6.5976
X6.7417Y-6.6961
X6.9317Y-6.4992
X6.9317Y-6.5976
X6.9317Y-6.6961
X7.1231Y-6.4992
X7.1231Y-6.5976
X7.1231Y-6.6961
X7.2213Y-4.0608
X7.2213Y-4.1592
X7.2213Y-4.2576
X7.3131Y-6.4992
X7.3131Y-6.5976
X7.3131Y-6.6961
X7.4195Y-4.0592
X7.4195Y-4.1576
X7.4195Y-4.2561
X7.5099Y-6.4992
X7.5099Y-6.5976
X7.5099Y-6.6961
X7.6999Y-6.4992
X7.6999Y-6.5976
X7.6999Y-6.6961
X7.8731Y-4.9508
X7.8731Y-5.0492
X7.8731Y-5.1476
T7
X5.3782Y-6.1781
X5.3782Y-6.2765
X6.7531Y-5.8892
X6.8531Y-5.8892
X6.9531Y-5.8892
X7.0531Y-5.8892
X7.1531Y-5.8892
X7.2531Y-5.8892
X8.0513Y-6.6008
X8.0513Y-6.6992
X8.0767Y-4.0324
X8.0767Y-4.1308
X8.2531Y-6.6016
X8.2531Y-6.7
X8.2767Y-4.0316
X8.2767Y-4.13
X8.4531Y-6.6016
X8.4531Y-6.7
X8.4767Y-4.0308
X8.4767Y-4.1292
X8.6531Y-6.6016
X8.6531Y-6.7
X8.6767Y-4.0308
X8.6767Y-4.1292
X8.8531Y-6.6016
X8.8531Y-6.7
X8.8749Y-4.0324
X8.8749Y-4.1308
X9.0531Y-6.6016
X9.0531Y-6.7
X9.0749Y-4.0324
X9.0749Y-4.1308
X9.2531Y-6.6016
X9.2531Y-6.7
X9.2767Y-4.0316
X9.2767Y-4.13
X9.4513Y-6.6008
X9.4513Y-6.6992
X9.4749Y-4.0308
X9.4749Y-4.1292
X9.7513Y-4.0308
X9.7513Y-4.1292
X9.7649Y-6.6024
X9.7649Y-6.7009
X9.951Y-4.0308
X9.951Y-4.1292
X9.9649Y-6.6
X9.9649Y-6.6984
X10.1513Y-4.0308
X10.1513Y-4.1292
X10.1631Y-6.6
X10.1631Y-6.6984
X10.3513Y-4.0308
X10.3513Y-4.1292
X10.3631Y-6.6
X10.3631Y-6.6984
X10.5413Y-4.0308
X10.5413Y-4.1292
X10.5649Y-6.6
X10.5649Y-6.6984
X10.7413Y-4.0308
X10.7413Y-4.1292
X10.7631Y-6.6
X10.7631Y-6.6984
X10.9413Y-4.3708
X10.9413Y-4.4692
X10.9649Y-6.2524
X10.9649Y-6.3509
X11.1395Y-4.3708
X11.1395Y-4.4692
X11.1631Y-6.2524
X11.1631Y-6.3509
T8
X5.331Y-4.3836
X5.331Y-4.5836
T9
X5.5814Y-5.0872
X5.5814Y-5.6872
T10
X5.3362Y-4.08
X5.3362Y-6.6784
X11.0843Y-4.08
X11.0843Y-6.6784
M30
