M48
; DRILL file {KiCad 8.0.5} date 2024-09-27T12:36:38+0200
; FORMAT={-:-/ absolute / metric / decimal}
; #@! TF.CreationDate,2024-09-27T12:36:38+02:00
; #@! TF.GenerationSoftware,Kicad,Pcbnew,8.0.5
; #@! TF.FileFunction,Plated,1,4,PTH
FMAT,2
METRIC
; #@! TA.AperFunction,Plated,PTH,ViaDrill
T1C0.200
; #@! TA.AperFunction,Plated,PTH,ViaDrill
T2C0.300
; #@! TA.AperFunction,Plated,PTH,ViaDrill
T3C0.400
; #@! TA.AperFunction,Plated,PTH,ComponentDrill
T4C0.500
; #@! TA.AperFunction,Plated,PTH,ComponentDrill
T5C0.762
; #@! TA.AperFunction,Plated,PTH,ComponentDrill
T6C0.950
; #@! TA.AperFunction,Plated,PTH,ComponentDrill
T7C1.000
; #@! TA.AperFunction,Plated,PTH,ComponentDrill
T8C1.750
; #@! TA.AperFunction,Plated,PTH,ComponentDrill
T9C1.800
; #@! TA.AperFunction,Plated,PTH,ComponentDrill
T10C3.200
%
G90
G05
T1
X133.353Y-123.174
X133.353Y-124.952
X155.407Y-132.174
X155.657Y-102.174
X155.823Y-132.864
X156.035Y-140.442
X156.035Y-146.03
X156.035Y-149.84
X156.247Y-133.288
X156.585Y-140.738
X156.657Y-133.924
X157.009Y-141.162
X157.559Y-141.458
X158.157Y-118.852
X158.321Y-144.76
X158.575Y-103.612
X158.575Y-150.602
X159.713Y-118.852
X160.353Y-103.612
X161.268Y-118.852
X161.369Y-150.348
X161.623Y-145.776
X161.877Y-103.612
X162.824Y-118.852
X163.655Y-103.612
X164.157Y-132.174
X164.38Y-118.852
X164.671Y-132.522
X165.179Y-132.822
X165.179Y-142.728
X165.407Y-132.174
X165.433Y-103.612
X165.57Y-143.119
X165.699Y-142.688
X165.936Y-118.852
X167.492Y-118.852
X167.907Y-136.174
X168.481Y-136.586
X168.481Y-137.186
X169.047Y-118.852
X169.157Y-137.174
X169.657Y-140.442
X170.259Y-140.95
X170.513Y-143.998
X170.603Y-118.852
X171.021Y-140.188
X172.037Y-140.95
X172.291Y-158.476
X173.815Y-140.188
X173.907Y-102.924
X174.323Y-158.476
X174.577Y-135.87
X174.577Y-138.156
X175.593Y-139.934
X176.101Y-132.06
X176.609Y-130.048
X176.609Y-133.584
X176.609Y-138.918
X176.863Y-136.124
X177.407Y-98.924
X178.133Y-130.536
X179.657Y-137.648
X179.657Y-138.174
X180.673Y-135.616
X180.673Y-139.934
X180.673Y-142.728
X181.943Y-158.476
X182.197Y-136.124
X182.451Y-130.536
X183.467Y-135.108
X183.975Y-158.476
X184.229Y-139.68
X185.245Y-137.552
X185.499Y-142.474
X185.669Y-137.986
X186.007Y-130.79
X186.007Y-131.298
X186.357Y-128.504
X187.023Y-132.06
X188.547Y-131.806
X190.071Y-128.758
X190.833Y-139.172
X191.087Y-143.236
X191.722Y-101.453
X192.103Y-158.476
X193.881Y-111.232
X193.881Y-158.476
X195.913Y-121.138
X196.675Y-119.574
X196.929Y-116.312
X196.929Y-133.076
X197.437Y-135.362
X197.691Y-133.076
X197.945Y-117.131
X197.945Y-117.836
X197.945Y-118.481
X197.945Y-135.362
X198.453Y-119.106
X199.215Y-117.836
X199.469Y-117.328
X199.469Y-118.598
X199.819Y-118.09
X203.279Y-133.076
X203.279Y-135.616
X203.787Y-133.076
X203.787Y-135.616
X206.581Y-160.508
X206.835Y-112.502
X208.359Y-112.502
X208.613Y-160.762
X216.741Y-160.762
X216.995Y-112.248
X218.011Y-112.248
X218.519Y-160.762
X222.075Y-135.362
X222.583Y-134.6
X222.583Y-135.108
X222.583Y-136.632
X222.583Y-137.394
X222.583Y-137.902
X223.853Y-134.092
X224.107Y-140.95
X224.361Y-131.552
X224.615Y-132.822
X224.862Y-140.689
X224.869Y-137.932
X225.885Y-123.17
X225.885Y-125.964
X226.139Y-136.632
X226.393Y-123.17
X226.393Y-125.964
X226.647Y-146.538
X226.647Y-147.046
X226.647Y-160.762
X226.901Y-112.248
X226.901Y-150.348
X226.901Y-150.856
X228.425Y-160.762
X228.679Y-112.248
X231.473Y-123.678
X231.727Y-126.98
X231.981Y-123.932
X232.235Y-126.98
X233.505Y-145.268
X233.505Y-145.776
X233.505Y-150.602
X233.505Y-151.11
X236.807Y-160.762
X237.061Y-111.994
X238.585Y-111.994
X238.839Y-160.762
X243.411Y-135.55
X243.919Y-135.362
X244.173Y-134.95
X244.681Y-134.6
X245.189Y-137.648
X245.189Y-138.156
X246.205Y-128.758
X246.967Y-131.806
X247.475Y-133.33
X247.475Y-138.224
X247.475Y-142.474
X247.475Y-142.982
X247.699Y-135.616
X247.729Y-145.522
X247.729Y-146.03
X248.891Y-137.032
X251.793Y-129.012
X251.793Y-130.79
X252.809Y-141.712
X253.063Y-142.22
X253.063Y-143.998
X253.317Y-144.506
X263.223Y-119.106
T2
X146.891Y-106.66
X149.939Y-107.168
X151.463Y-105.898
X153.907Y-105.136
X155.157Y-103.924
X155.273Y-146.03
X155.273Y-149.84
X157.051Y-135.87
X157.051Y-138.156
X157.813Y-145.014
X157.813Y-150.602
X158.575Y-134.346
X160.607Y-146.03
X160.607Y-150.094
X161.052Y-135.616
X162.639Y-137.902
X163.401Y-131.298
X165.179Y-129.266
X166.195Y-130.028
X166.195Y-149.586
X166.907Y-103.924
X168.227Y-134.346
X168.481Y-135.616
X168.735Y-128.504
X168.735Y-148.316
X170.259Y-132.06
X170.513Y-144.76
X171.217Y-101.307
X171.783Y-125.202
X172.291Y-132.06
X172.741Y-101.307
X172.799Y-113.01
X173.307Y-139.934
X174.069Y-145.449
X174.323Y-120.63
X174.507Y-127.926
X176.355Y-115.804
X176.863Y-129.012
X179.149Y-118.852
X179.911Y-142.982
X180.165Y-113.772
X180.165Y-126.98
X180.673Y-116.058
X181.435Y-119.614
X182.197Y-116.058
X182.197Y-139.934
X182.959Y-119.36
X182.959Y-138.918
X183.721Y-130.536
X183.975Y-120.376
X184.991Y-120.376
X184.991Y-139.68
X185.753Y-114.026
X185.753Y-116.312
X186.007Y-127.488
X186.007Y-132.314
X186.157Y-121.174
X186.261Y-142.728
X187.319Y-118.09
X187.319Y-119.106
X187.319Y-119.868
X187.933Y-118.45
X188.293Y-120.376
X188.568Y-119.085
X188.801Y-117.328
X189.563Y-127.742
X190.071Y-139.172
X190.325Y-143.236
X190.579Y-132.06
X195.405Y-111.994
X195.866Y-113.755
X195.913Y-101.326
X195.913Y-123.678
X196.167Y-109.962
X197.183Y-115.296
X200.485Y-106.66
X200.739Y-112.502
X220.805Y-142.982
X221.821Y-136.124
X222.837Y-133.33
X225.631Y-129.52
X242.903Y-136.124
X244.173Y-134.092
X246.205Y-143.236
X247.475Y-153.142
X247.983Y-119.106
X248.237Y-130.028
X252.555Y-153.142
X253.063Y-119.106
X257.635Y-152.888
X258.143Y-119.106
X262.715Y-152.888
X267.795Y-152.888
X268.049Y-119.106
X272.875Y-153.142
X273.129Y-119.106
X277.955Y-144.252
X278.209Y-127.996
X279.479Y-129.494
X283.035Y-143.998
X283.289Y-127.996
X284.559Y-129.494
T3
X155.157Y-101.674
X173.907Y-103.924
T4
X140.287Y-111.486
X140.287Y-114.788
X151.717Y-146.538
X151.717Y-148.824
X166.449Y-146.538
X168.481Y-151.618
X174.657Y-111.174
X177.157Y-111.174
X182.959Y-123.17
X185.499Y-123.17
X192.357Y-130.028
X198.707Y-115.804
X215.979Y-136.124
X216.995Y-138.918
X218.519Y-136.378
X220.551Y-137.14
X221.313Y-132.822
T5
X134.657Y-130.204
X134.657Y-132.744
X134.657Y-140.924
X134.657Y-143.464
X145.067Y-132.389
X145.067Y-134.929
X145.067Y-137.469
X145.067Y-140.009
X147.607Y-133.659
X147.607Y-136.199
X147.607Y-138.739
X147.607Y-141.279
T6
X171.239Y-165.08
X171.239Y-167.58
X171.239Y-170.08
X176.065Y-165.08
X176.065Y-167.58
X176.065Y-170.08
X180.927Y-165.08
X180.927Y-167.58
X180.927Y-170.08
X183.421Y-103.144
X183.421Y-105.644
X183.421Y-108.144
X185.753Y-165.08
X185.753Y-167.58
X185.753Y-170.08
X188.455Y-103.104
X188.455Y-105.604
X188.455Y-108.104
X190.751Y-165.08
X190.751Y-167.58
X190.751Y-170.08
X195.577Y-165.08
X195.577Y-167.58
X195.577Y-170.08
X199.977Y-125.75
X199.977Y-128.25
X199.977Y-130.75
T7
X136.607Y-156.924
X136.607Y-159.424
X171.529Y-149.586
X174.069Y-149.586
X176.609Y-149.586
X179.149Y-149.586
X181.689Y-149.586
X184.229Y-149.586
X204.503Y-167.66
X204.503Y-170.16
X205.149Y-102.422
X205.149Y-104.922
X209.629Y-167.68
X209.629Y-170.18
X210.229Y-102.402
X210.229Y-104.902
X214.709Y-167.68
X214.709Y-170.18
X215.309Y-102.382
X215.309Y-104.882
X219.789Y-167.68
X219.789Y-170.18
X220.389Y-102.382
X220.389Y-104.882
X224.869Y-167.68
X224.869Y-170.18
X225.423Y-102.422
X225.423Y-104.922
X229.949Y-167.68
X229.949Y-170.18
X230.503Y-102.422
X230.503Y-104.922
X235.029Y-167.68
X235.029Y-170.18
X235.629Y-102.402
X235.629Y-104.902
X240.063Y-167.66
X240.063Y-170.16
X240.663Y-102.382
X240.663Y-104.882
X247.683Y-102.382
X247.683Y-104.882
X248.029Y-167.702
X248.029Y-170.202
X252.755Y-102.382
X252.755Y-104.882
X253.109Y-167.64
X253.109Y-170.14
X257.843Y-102.382
X257.843Y-104.882
X258.143Y-167.64
X258.143Y-170.14
X262.923Y-102.382
X262.923Y-104.882
X263.223Y-167.64
X263.223Y-170.14
X267.749Y-102.382
X267.749Y-104.882
X268.349Y-167.64
X268.349Y-170.14
X272.829Y-102.382
X272.829Y-104.882
X273.383Y-167.64
X273.383Y-170.14
X277.909Y-111.018
X277.909Y-113.518
X278.509Y-158.812
X278.509Y-161.312
X282.943Y-111.018
X282.943Y-113.518
X283.543Y-158.812
X283.543Y-161.312
T8
X135.407Y-111.344
X135.407Y-116.424
T9
X141.767Y-129.214
X141.767Y-144.454
T10
X135.54Y-103.632
X135.54Y-169.632
X281.54Y-103.632
X281.54Y-169.632
M30
