%TF.GenerationSoftware,KiCad,Pcbnew,8.0.5*%
%TF.CreationDate,2024-09-23T13:18:53+02:00*%
%TF.ProjectId,PIC18F_ETH,50494331-3846-45f4-9554-482e6b696361,rev?*%
%TF.SameCoordinates,Original*%
%TF.FileFunction,Soldermask,Top*%
%TF.FilePolarity,Negative*%
%FSLAX46Y46*%
G04 Gerber Fmt 4.6, Leading zero omitted, Abs format (unit mm)*
G04 Created by KiCad (PCBNEW 8.0.5) date 2024-09-23 13:18:53*
%MOMM*%
%LPD*%
G01*
G04 APERTURE LIST*
G04 Aperture macros list*
%AMRoundRect*
0 Rectangle with rounded corners*
0 $1 Rounding radius*
0 $2 $3 $4 $5 $6 $7 $8 $9 X,Y pos of 4 corners*
0 Add a 4 corners polygon primitive as box body*
4,1,4,$2,$3,$4,$5,$6,$7,$8,$9,$2,$3,0*
0 Add four circle primitives for the rounded corners*
1,1,$1+$1,$2,$3*
1,1,$1+$1,$4,$5*
1,1,$1+$1,$6,$7*
1,1,$1+$1,$8,$9*
0 Add four rect primitives between the rounded corners*
20,1,$1+$1,$2,$3,$4,$5,0*
20,1,$1+$1,$4,$5,$6,$7,0*
20,1,$1+$1,$6,$7,$8,$9,0*
20,1,$1+$1,$8,$9,$2,$3,0*%
G04 Aperture macros list end*
%ADD10RoundRect,0.225000X-0.225000X-0.250000X0.225000X-0.250000X0.225000X0.250000X-0.225000X0.250000X0*%
%ADD11RoundRect,0.225000X0.250000X-0.225000X0.250000X0.225000X-0.250000X0.225000X-0.250000X-0.225000X0*%
%ADD12RoundRect,0.225000X-0.250000X0.225000X-0.250000X-0.225000X0.250000X-0.225000X0.250000X0.225000X0*%
%ADD13RoundRect,0.225000X0.225000X0.250000X-0.225000X0.250000X-0.225000X-0.250000X0.225000X-0.250000X0*%
%ADD14C,5.700000*%
%ADD15RoundRect,0.200000X-0.200000X-0.275000X0.200000X-0.275000X0.200000X0.275000X-0.200000X0.275000X0*%
%ADD16RoundRect,0.200000X-0.275000X0.200000X-0.275000X-0.200000X0.275000X-0.200000X0.275000X0.200000X0*%
%ADD17R,0.640000X2.000000*%
%ADD18RoundRect,0.200000X0.200000X0.275000X-0.200000X0.275000X-0.200000X-0.275000X0.200000X-0.275000X0*%
%ADD19RoundRect,0.250000X-0.750000X0.600000X-0.750000X-0.600000X0.750000X-0.600000X0.750000X0.600000X0*%
%ADD20O,2.000000X1.700000*%
%ADD21RoundRect,0.250000X0.725000X-0.600000X0.725000X0.600000X-0.725000X0.600000X-0.725000X-0.600000X0*%
%ADD22O,1.950000X1.700000*%
%ADD23RoundRect,0.200000X0.275000X-0.200000X0.275000X0.200000X-0.275000X0.200000X-0.275000X-0.200000X0*%
%ADD24RoundRect,0.250000X0.750000X-0.600000X0.750000X0.600000X-0.750000X0.600000X-0.750000X-0.600000X0*%
%ADD25R,1.000000X1.000000*%
%ADD26C,1.000000*%
%ADD27RoundRect,0.218750X0.256250X-0.218750X0.256250X0.218750X-0.256250X0.218750X-0.256250X-0.218750X0*%
%ADD28RoundRect,0.150000X-0.150000X0.512500X-0.150000X-0.512500X0.150000X-0.512500X0.150000X0.512500X0*%
%ADD29RoundRect,0.085000X0.265000X0.085000X-0.265000X0.085000X-0.265000X-0.085000X0.265000X-0.085000X0*%
%ADD30R,4.000000X7.000000*%
%ADD31R,1.969999X0.558000*%
%ADD32R,2.800000X2.800000*%
%ADD33C,2.800000*%
%ADD34RoundRect,0.218750X-0.256250X0.218750X-0.256250X-0.218750X0.256250X-0.218750X0.256250X0.218750X0*%
%ADD35RoundRect,0.150000X0.150000X-0.512500X0.150000X0.512500X-0.150000X0.512500X-0.150000X-0.512500X0*%
%ADD36R,1.700000X1.700000*%
%ADD37O,1.700000X1.700000*%
%ADD38RoundRect,0.218750X-0.218750X-0.256250X0.218750X-0.256250X0.218750X0.256250X-0.218750X0.256250X0*%
%ADD39RoundRect,0.150000X-0.512500X-0.150000X0.512500X-0.150000X0.512500X0.150000X-0.512500X0.150000X0*%
%ADD40RoundRect,0.250000X-0.725000X0.600000X-0.725000X-0.600000X0.725000X-0.600000X0.725000X0.600000X0*%
%ADD41RoundRect,0.243750X0.243750X0.456250X-0.243750X0.456250X-0.243750X-0.456250X0.243750X-0.456250X0*%
%ADD42R,0.304800X1.016000*%
%ADD43R,1.016000X0.304800*%
%ADD44R,4.191000X4.191000*%
%ADD45R,0.279400X1.461999*%
%ADD46R,1.461999X0.279400*%
%ADD47RoundRect,0.218750X-0.218750X-0.381250X0.218750X-0.381250X0.218750X0.381250X-0.218750X0.381250X0*%
%ADD48R,0.711200X0.254000*%
%ADD49R,0.254000X0.711200*%
%ADD50R,2.692400X2.692400*%
%ADD51C,3.200000*%
%ADD52R,1.524000X1.524000*%
%ADD53C,1.524000*%
%ADD54O,2.000000X3.500000*%
%ADD55R,1.400000X1.200000*%
%ADD56RoundRect,0.250000X0.550000X-1.050000X0.550000X1.050000X-0.550000X1.050000X-0.550000X-1.050000X0*%
G04 APERTURE END LIST*
D10*
%TO.C,C6005*%
X113766000Y-116078000D03*
X115316000Y-116078000D03*
%TD*%
D11*
%TO.C,C4010*%
X160528000Y-146825000D03*
X160528000Y-145275000D03*
%TD*%
D12*
%TO.C,C4009*%
X137922000Y-145021000D03*
X137922000Y-146571000D03*
%TD*%
D13*
%TO.C,C2012*%
X84341000Y-153162000D03*
X82791000Y-153162000D03*
%TD*%
D14*
%TO.C,H7004*%
X51054000Y-173990000D03*
%TD*%
D15*
%TO.C,R9023*%
X183262000Y-152146000D03*
X184912000Y-152146000D03*
%TD*%
D16*
%TO.C,R8001*%
X140462000Y-164295000D03*
X140462000Y-165945000D03*
%TD*%
D11*
%TO.C,C3008*%
X86750000Y-107535000D03*
X86750000Y-105985000D03*
%TD*%
D17*
%TO.C,U9015*%
X167340000Y-122290000D03*
X169880000Y-122290000D03*
X169880000Y-112790000D03*
X167340000Y-112790000D03*
%TD*%
D18*
%TO.C,R2003*%
X79819000Y-137668000D03*
X78169000Y-137668000D03*
%TD*%
D19*
%TO.C,J8012*%
X141016000Y-105998000D03*
D20*
X141016000Y-108498000D03*
%TD*%
D18*
%TO.C,R9030*%
X174053000Y-127508000D03*
X172403000Y-127508000D03*
%TD*%
D19*
%TO.C,J8016*%
X120742000Y-105998000D03*
D20*
X120742000Y-108498000D03*
%TD*%
D10*
%TO.C,C5001*%
X70000000Y-142250000D03*
X71550000Y-142250000D03*
%TD*%
D15*
%TO.C,R9022*%
X178182000Y-152146000D03*
X179832000Y-152146000D03*
%TD*%
D14*
%TO.C,H7003*%
X197104000Y-173228000D03*
%TD*%
D17*
%TO.C,U9006*%
X189992000Y-157384000D03*
X187452000Y-157384000D03*
X187452000Y-166884000D03*
X189992000Y-166884000D03*
%TD*%
D16*
%TO.C,R9007*%
X195072000Y-144779000D03*
X195072000Y-146429000D03*
%TD*%
D15*
%TO.C,R8032*%
X118601000Y-112308000D03*
X120251000Y-112308000D03*
%TD*%
D18*
%TO.C,R8012*%
X127063000Y-167406000D03*
X125413000Y-167406000D03*
%TD*%
D21*
%TO.C,J6001*%
X99014000Y-111720000D03*
D22*
X99014000Y-109220000D03*
X99014000Y-106720000D03*
%TD*%
D23*
%TO.C,R9015*%
X167340000Y-126067000D03*
X167340000Y-124417000D03*
%TD*%
D24*
%TO.C,J8007*%
X150622000Y-173756000D03*
D20*
X150622000Y-171256000D03*
%TD*%
D13*
%TO.C,C8004*%
X145809000Y-162834000D03*
X144259000Y-162834000D03*
%TD*%
D10*
%TO.C,C8002*%
X140449000Y-162834000D03*
X141999000Y-162834000D03*
%TD*%
%TO.C,C8012*%
X130602000Y-116880000D03*
X132152000Y-116880000D03*
%TD*%
D25*
%TO.C,TP2015*%
X100584000Y-136652000D03*
%TD*%
D15*
%TO.C,R2001*%
X104232000Y-134452000D03*
X105882000Y-134452000D03*
%TD*%
D16*
%TO.C,R8003*%
X150876000Y-164295000D03*
X150876000Y-165945000D03*
%TD*%
D23*
%TO.C,R9012*%
X182326000Y-126067000D03*
X182326000Y-124417000D03*
%TD*%
D17*
%TO.C,U9001*%
X164592000Y-157446000D03*
X162052000Y-157446000D03*
X162052000Y-166946000D03*
X164592000Y-166946000D03*
%TD*%
D11*
%TO.C,C3009*%
X67056000Y-112281000D03*
X67056000Y-110731000D03*
%TD*%
D23*
%TO.C,R2002*%
X87000000Y-149224000D03*
X87000000Y-147574000D03*
%TD*%
D16*
%TO.C,R5004*%
X68500000Y-142425000D03*
X68500000Y-144075000D03*
%TD*%
D26*
%TO.C,TP2004*%
X96520000Y-136652000D03*
%TD*%
D27*
%TO.C,D9007*%
X183388000Y-155194000D03*
X183388000Y-153619000D03*
%TD*%
D19*
%TO.C,J9002*%
X168702000Y-171216000D03*
D20*
X168702000Y-173716000D03*
%TD*%
D12*
%TO.C,C3005*%
X99500000Y-121450000D03*
X99500000Y-123000000D03*
%TD*%
D28*
%TO.C,U3001*%
X70450000Y-109862500D03*
X69500000Y-109862500D03*
X68550000Y-109862500D03*
X68550000Y-112137500D03*
X69500000Y-112137500D03*
X70450000Y-112137500D03*
%TD*%
D11*
%TO.C,C3002*%
X88250000Y-107535000D03*
X88250000Y-105985000D03*
%TD*%
D15*
%TO.C,R8010*%
X118872000Y-167406000D03*
X120522000Y-167406000D03*
%TD*%
D23*
%TO.C,R3004*%
X91500000Y-123325000D03*
X91500000Y-121675000D03*
%TD*%
D16*
%TO.C,R4004*%
X96022000Y-162126000D03*
X96022000Y-163776000D03*
%TD*%
D18*
%TO.C,R9032*%
X163893000Y-127508000D03*
X162243000Y-127508000D03*
%TD*%
D26*
%TO.C,TP3001*%
X55880000Y-115062000D03*
%TD*%
D29*
%TO.C,U3002*%
X94476000Y-121912000D03*
X94476000Y-121412000D03*
X94476000Y-120912000D03*
X92976000Y-120912000D03*
X92976000Y-121412000D03*
X92976000Y-121912000D03*
%TD*%
D13*
%TO.C,C4001*%
X111115000Y-160528000D03*
X109565000Y-160528000D03*
%TD*%
D24*
%TO.C,J3002*%
X52200000Y-163000000D03*
D20*
X52200000Y-160500000D03*
%TD*%
D13*
%TO.C,C8014*%
X125535000Y-116880000D03*
X123985000Y-116880000D03*
%TD*%
D26*
%TO.C,TP2001*%
X67310000Y-150114000D03*
%TD*%
D28*
%TO.C,D8008*%
X134092000Y-112573000D03*
X132192000Y-112573000D03*
X133142000Y-114848000D03*
%TD*%
D10*
%TO.C,C4006*%
X86335000Y-160528000D03*
X87885000Y-160528000D03*
%TD*%
D16*
%TO.C,R5005*%
X68500000Y-137175000D03*
X68500000Y-138825000D03*
%TD*%
%TO.C,R9003*%
X174752000Y-153607000D03*
X174752000Y-155257000D03*
%TD*%
D27*
%TO.C,D9004*%
X168148000Y-155194000D03*
X168148000Y-153619000D03*
%TD*%
D12*
%TO.C,C6004*%
X115778000Y-107444003D03*
X115778000Y-108994003D03*
%TD*%
D25*
%TO.C,TP2016*%
X82042000Y-150114000D03*
%TD*%
D17*
%TO.C,U9003*%
X174752000Y-157384000D03*
X172212000Y-157384000D03*
X172212000Y-166884000D03*
X174752000Y-166884000D03*
%TD*%
D26*
%TO.C,TP2010*%
X134112000Y-139954000D03*
%TD*%
D16*
%TO.C,R8002*%
X145796000Y-164295000D03*
X145796000Y-165945000D03*
%TD*%
D24*
%TO.C,J9010*%
X193502000Y-117094000D03*
D20*
X193502000Y-114594000D03*
%TD*%
D18*
%TO.C,R8029*%
X147429000Y-112308000D03*
X145779000Y-112308000D03*
%TD*%
D26*
%TO.C,FID7004*%
X56500000Y-174500000D03*
%TD*%
D23*
%TO.C,R8018*%
X150922000Y-115419000D03*
X150922000Y-113769000D03*
%TD*%
D30*
%TO.C,L3001*%
X75000000Y-115000000D03*
X85000000Y-115000000D03*
%TD*%
D16*
%TO.C,R4001*%
X111090000Y-162126000D03*
X111090000Y-163776000D03*
%TD*%
%TO.C,R8005*%
X120396000Y-164232000D03*
X120396000Y-165882000D03*
%TD*%
D31*
%TO.C,U6003*%
X113549300Y-110155000D03*
X113549300Y-108885000D03*
X113549300Y-107615000D03*
X113549300Y-106345000D03*
X108621700Y-106345000D03*
X108621700Y-107615000D03*
X108621700Y-108885000D03*
X108621700Y-110155000D03*
%TD*%
D17*
%TO.C,U9016*%
X162260000Y-122290000D03*
X164800000Y-122290000D03*
X164800000Y-112790000D03*
X162260000Y-112790000D03*
%TD*%
D24*
%TO.C,J9016*%
X163276000Y-108458000D03*
D20*
X163276000Y-105958000D03*
%TD*%
D26*
%TO.C,TP3003*%
X92750000Y-114750000D03*
%TD*%
D16*
%TO.C,R4002*%
X106090000Y-162126000D03*
X106090000Y-163776000D03*
%TD*%
D11*
%TO.C,C6002*%
X110744000Y-118123000D03*
X110744000Y-116573000D03*
%TD*%
D26*
%TO.C,TP2002*%
X67310000Y-152400000D03*
%TD*%
D32*
%TO.C,J3001*%
X51000000Y-120000000D03*
D33*
X51000000Y-114920000D03*
%TD*%
D16*
%TO.C,R3005*%
X90000000Y-121675000D03*
X90000000Y-123325000D03*
%TD*%
D10*
%TO.C,C6003*%
X108666000Y-104663003D03*
X110216000Y-104663003D03*
%TD*%
D16*
%TO.C,R9002*%
X169718000Y-153607000D03*
X169718000Y-155257000D03*
%TD*%
D27*
%TO.C,D9006*%
X178308000Y-155194000D03*
X178308000Y-153619000D03*
%TD*%
%TO.C,D9005*%
X173228000Y-155194000D03*
X173228000Y-153619000D03*
%TD*%
D13*
%TO.C,C8003*%
X125743000Y-162834000D03*
X124193000Y-162834000D03*
%TD*%
D10*
%TO.C,C2010*%
X95450000Y-144250000D03*
X97000000Y-144250000D03*
%TD*%
D16*
%TO.C,R4003*%
X101022000Y-162126000D03*
X101022000Y-163776000D03*
%TD*%
D13*
%TO.C,C2005*%
X79769000Y-140716000D03*
X78219000Y-140716000D03*
%TD*%
D18*
%TO.C,R3003*%
X94825000Y-123500000D03*
X93175000Y-123500000D03*
%TD*%
D16*
%TO.C,R9005*%
X184912000Y-153607000D03*
X184912000Y-155257000D03*
%TD*%
D24*
%TO.C,J8008*%
X155656000Y-173736000D03*
D20*
X155656000Y-171236000D03*
%TD*%
D21*
%TO.C,J6002*%
X104048000Y-111680000D03*
D22*
X104048000Y-109180000D03*
X104048000Y-106680000D03*
%TD*%
D10*
%TO.C,C2002*%
X95475000Y-139250000D03*
X97025000Y-139250000D03*
%TD*%
D18*
%TO.C,R9028*%
X183959000Y-127508000D03*
X182309000Y-127508000D03*
%TD*%
D10*
%TO.C,C2003*%
X92964000Y-130556000D03*
X94514000Y-130556000D03*
%TD*%
D18*
%TO.C,R9031*%
X168973000Y-127508000D03*
X167323000Y-127508000D03*
%TD*%
D34*
%TO.C,D9015*%
X168910000Y-124434500D03*
X168910000Y-126009500D03*
%TD*%
D26*
%TO.C,FID7001*%
X57500000Y-106000000D03*
%TD*%
D23*
%TO.C,R8024*%
X120188000Y-115419000D03*
X120188000Y-113769000D03*
%TD*%
D24*
%TO.C,J9013*%
X178516000Y-108458000D03*
D20*
X178516000Y-105958000D03*
%TD*%
D23*
%TO.C,R6005*%
X107696000Y-113601000D03*
X107696000Y-111951000D03*
%TD*%
D19*
%TO.C,J9003*%
X173736000Y-171216000D03*
D20*
X173736000Y-173716000D03*
%TD*%
D18*
%TO.C,R8030*%
X127109000Y-112308000D03*
X125459000Y-112308000D03*
%TD*%
%TO.C,R8015*%
X157606000Y-167406000D03*
X155956000Y-167406000D03*
%TD*%
D19*
%TO.C,J8013*%
X135982000Y-105958000D03*
D20*
X135982000Y-108458000D03*
%TD*%
D19*
%TO.C,J9006*%
X188976000Y-171216000D03*
D20*
X188976000Y-173716000D03*
%TD*%
D26*
%TO.C,TP2008*%
X131572000Y-139700000D03*
%TD*%
D15*
%TO.C,R4008*%
X158941000Y-143660001D03*
X160591000Y-143660001D03*
%TD*%
D27*
%TO.C,D9003*%
X163068000Y-155219500D03*
X163068000Y-153644500D03*
%TD*%
D35*
%TO.C,D4002*%
X97572000Y-164658500D03*
X99472000Y-164658500D03*
X98522000Y-162383500D03*
%TD*%
D13*
%TO.C,C8009*%
X156015000Y-116880000D03*
X154465000Y-116880000D03*
%TD*%
D10*
%TO.C,C2007*%
X95475000Y-142750000D03*
X97025000Y-142750000D03*
%TD*%
D19*
%TO.C,J8014*%
X130902000Y-105958000D03*
D20*
X130902000Y-108458000D03*
%TD*%
D17*
%TO.C,U9009*%
X197566000Y-130926000D03*
X200106000Y-130926000D03*
X200106000Y-121426000D03*
X197566000Y-121426000D03*
%TD*%
%TO.C,U9005*%
X184912000Y-157384000D03*
X182372000Y-157384000D03*
X182372000Y-166884000D03*
X184912000Y-166884000D03*
%TD*%
D12*
%TO.C,C2011*%
X88750000Y-147475000D03*
X88750000Y-149025000D03*
%TD*%
D18*
%TO.C,R9026*%
X194119000Y-136144000D03*
X192469000Y-136144000D03*
%TD*%
D23*
%TO.C,R9016*%
X162260000Y-126067000D03*
X162260000Y-124417000D03*
%TD*%
%TO.C,R6006*%
X95750000Y-111150000D03*
X95750000Y-109500000D03*
%TD*%
D26*
%TO.C,TP2011*%
X108204000Y-135636000D03*
%TD*%
D36*
%TO.C,J2001*%
X87122000Y-153162000D03*
D37*
X89662000Y-153162000D03*
X92202000Y-153162000D03*
X94742000Y-153162000D03*
X97282000Y-153162000D03*
X99822000Y-153162000D03*
%TD*%
D11*
%TO.C,C2009*%
X83058000Y-133363000D03*
X83058000Y-131813000D03*
%TD*%
D13*
%TO.C,C4005*%
X91385000Y-160528000D03*
X89835000Y-160528000D03*
%TD*%
D16*
%TO.C,R6003*%
X109220000Y-111951000D03*
X109220000Y-113601000D03*
%TD*%
D12*
%TO.C,C3007*%
X100976000Y-121412000D03*
X100976000Y-122962000D03*
%TD*%
D26*
%TO.C,TP2003*%
X98552000Y-136652000D03*
%TD*%
%TO.C,TP3005*%
X101092000Y-126746000D03*
%TD*%
D28*
%TO.C,D8005*%
X144252000Y-112573000D03*
X142352000Y-112573000D03*
X143302000Y-114848000D03*
%TD*%
D17*
%TO.C,U9011*%
X187406000Y-122290000D03*
X189946000Y-122290000D03*
X189946000Y-112790000D03*
X187406000Y-112790000D03*
%TD*%
D38*
%TO.C,D3002*%
X49962500Y-126750000D03*
X51537500Y-126750000D03*
%TD*%
D10*
%TO.C,C5002*%
X70000000Y-139500000D03*
X71550000Y-139500000D03*
%TD*%
D18*
%TO.C,R3001*%
X69650000Y-106000000D03*
X68000000Y-106000000D03*
%TD*%
D17*
%TO.C,U9007*%
X195072000Y-148556000D03*
X192532000Y-148556000D03*
X192532000Y-158056000D03*
X195072000Y-158056000D03*
%TD*%
D39*
%TO.C,U2001*%
X100341000Y-132974000D03*
X100341000Y-133924000D03*
X100341000Y-134874000D03*
X102616000Y-134874000D03*
X102616000Y-133924000D03*
X102616000Y-132974000D03*
%TD*%
D17*
%TO.C,U9008*%
X200152000Y-148556000D03*
X197612000Y-148556000D03*
X197612000Y-158056000D03*
X200152000Y-158056000D03*
%TD*%
D10*
%TO.C,C8001*%
X120383000Y-162834000D03*
X121933000Y-162834000D03*
%TD*%
%TO.C,C2004*%
X89450000Y-132500000D03*
X91000000Y-132500000D03*
%TD*%
D11*
%TO.C,C2001*%
X104405000Y-132855000D03*
X104405000Y-131305000D03*
%TD*%
D40*
%TO.C,J4003*%
X101346000Y-168656000D03*
D22*
X101346000Y-171156000D03*
X101346000Y-173656000D03*
%TD*%
D41*
%TO.C,D3001*%
X60119500Y-114808000D03*
X58244500Y-114808000D03*
%TD*%
D15*
%TO.C,R9020*%
X168085000Y-152146000D03*
X169735000Y-152146000D03*
%TD*%
D24*
%TO.C,J8006*%
X145542000Y-173756000D03*
D20*
X145542000Y-171256000D03*
%TD*%
D34*
%TO.C,D9014*%
X173990000Y-124460000D03*
X173990000Y-126035000D03*
%TD*%
D23*
%TO.C,R9013*%
X177500000Y-126067000D03*
X177500000Y-124417000D03*
%TD*%
%TO.C,R8017*%
X156002000Y-115419000D03*
X156002000Y-113769000D03*
%TD*%
D15*
%TO.C,R8014*%
X129032000Y-167406000D03*
X130682000Y-167406000D03*
%TD*%
D23*
%TO.C,R8020*%
X140762000Y-115482000D03*
X140762000Y-113832000D03*
%TD*%
D18*
%TO.C,R2005*%
X76771000Y-137668000D03*
X75121000Y-137668000D03*
%TD*%
D34*
%TO.C,D9013*%
X179070000Y-124434500D03*
X179070000Y-126009500D03*
%TD*%
D14*
%TO.C,H7002*%
X196596000Y-105918000D03*
%TD*%
D23*
%TO.C,R5003*%
X70000000Y-145325000D03*
X70000000Y-143675000D03*
%TD*%
D34*
%TO.C,D9011*%
X188976000Y-124434500D03*
X188976000Y-126009500D03*
%TD*%
D15*
%TO.C,R8028*%
X129078000Y-112308000D03*
X130728000Y-112308000D03*
%TD*%
D16*
%TO.C,R9006*%
X189992000Y-153607000D03*
X189992000Y-155257000D03*
%TD*%
D15*
%TO.C,R9024*%
X193485000Y-143256000D03*
X195135000Y-143256000D03*
%TD*%
D42*
%TO.C,U4002*%
X166542001Y-137706000D03*
X165892000Y-137706000D03*
X165241999Y-137706000D03*
X164592000Y-137706000D03*
X163942001Y-137706000D03*
X163292000Y-137706000D03*
X162642001Y-137706000D03*
D43*
X161798000Y-138549999D03*
X161798000Y-139200000D03*
X161798000Y-139849999D03*
X161798000Y-140500000D03*
X161798000Y-141149999D03*
X161798000Y-141800000D03*
X161798000Y-142449999D03*
D42*
X162641999Y-143294000D03*
X163292000Y-143294000D03*
X163941999Y-143294000D03*
X164592000Y-143294000D03*
X165241999Y-143294000D03*
X165892000Y-143294000D03*
X166541999Y-143294000D03*
D43*
X167386000Y-142450001D03*
X167386000Y-141800000D03*
X167386000Y-141150001D03*
X167386000Y-140500000D03*
X167386000Y-139850001D03*
X167386000Y-139200000D03*
X167386000Y-138550001D03*
D44*
X164592000Y-140500000D03*
%TD*%
D28*
%TO.C,D8007*%
X154366000Y-112533000D03*
X152466000Y-112533000D03*
X153416000Y-114808000D03*
%TD*%
D13*
%TO.C,C6001*%
X106025000Y-125000000D03*
X104475000Y-125000000D03*
%TD*%
D24*
%TO.C,J8004*%
X135382000Y-173756000D03*
D20*
X135382000Y-171256000D03*
%TD*%
D16*
%TO.C,R9008*%
X200152000Y-144779000D03*
X200152000Y-146429000D03*
%TD*%
D17*
%TO.C,U9002*%
X169672000Y-157384000D03*
X167132000Y-157384000D03*
X167132000Y-166884000D03*
X169672000Y-166884000D03*
%TD*%
D40*
%TO.C,J4006*%
X86832000Y-168656000D03*
D22*
X86832000Y-171156000D03*
X86832000Y-173656000D03*
%TD*%
D24*
%TO.C,J8005*%
X140462000Y-173756000D03*
D20*
X140462000Y-171256000D03*
%TD*%
D24*
%TO.C,J9012*%
X183342000Y-108458000D03*
D20*
X183342000Y-105958000D03*
%TD*%
D35*
%TO.C,D4003*%
X87884000Y-164658500D03*
X89784000Y-164658500D03*
X88834000Y-162383500D03*
%TD*%
D15*
%TO.C,R8013*%
X149289000Y-167406000D03*
X150939000Y-167406000D03*
%TD*%
D12*
%TO.C,C3003*%
X72000000Y-109950000D03*
X72000000Y-111500000D03*
%TD*%
D35*
%TO.C,D4001*%
X107696000Y-164658500D03*
X109596000Y-164658500D03*
X108646000Y-162383500D03*
%TD*%
D16*
%TO.C,R9001*%
X164638000Y-153669000D03*
X164638000Y-155319000D03*
%TD*%
D27*
%TO.C,D9001*%
X198628000Y-146304000D03*
X198628000Y-144729000D03*
%TD*%
D18*
%TO.C,R8026*%
X137269000Y-112308000D03*
X135619000Y-112308000D03*
%TD*%
D17*
%TO.C,U9012*%
X182326000Y-122290000D03*
X184866000Y-122290000D03*
X184866000Y-112790000D03*
X182326000Y-112790000D03*
%TD*%
D19*
%TO.C,J9007*%
X194102000Y-162388000D03*
D20*
X194102000Y-164888000D03*
%TD*%
D35*
%TO.C,D8003*%
X122052000Y-167152000D03*
X123952000Y-167152000D03*
X123002000Y-164877000D03*
%TD*%
D45*
%TO.C,U2002*%
X84250000Y-145618998D03*
X84749999Y-145618998D03*
X85250000Y-145618998D03*
X85749999Y-145618998D03*
X86250001Y-145618998D03*
X86750000Y-145618998D03*
X87249999Y-145618998D03*
X87750000Y-145618998D03*
X88250000Y-145618998D03*
X88750001Y-145618998D03*
X89250000Y-145618998D03*
X89749999Y-145618998D03*
X90250001Y-145618998D03*
X90750000Y-145618998D03*
X91250001Y-145618998D03*
X91750000Y-145618998D03*
D46*
X93618998Y-143750000D03*
X93618998Y-143250001D03*
X93618998Y-142750000D03*
X93618998Y-142250001D03*
X93618998Y-141749999D03*
X93618998Y-141250000D03*
X93618998Y-140750001D03*
X93618998Y-140250000D03*
X93618998Y-139750000D03*
X93618998Y-139249999D03*
X93618998Y-138750000D03*
X93618998Y-138250001D03*
X93618998Y-137749999D03*
X93618998Y-137250000D03*
X93618998Y-136749999D03*
X93618998Y-136250000D03*
D45*
X91750000Y-134381002D03*
X91250001Y-134381002D03*
X90750000Y-134381002D03*
X90250001Y-134381002D03*
X89749999Y-134381002D03*
X89250000Y-134381002D03*
X88750001Y-134381002D03*
X88250000Y-134381002D03*
X87750000Y-134381002D03*
X87249999Y-134381002D03*
X86750000Y-134381002D03*
X86250001Y-134381002D03*
X85749999Y-134381002D03*
X85250000Y-134381002D03*
X84749999Y-134381002D03*
X84250000Y-134381002D03*
D46*
X82381002Y-136250000D03*
X82381002Y-136749999D03*
X82381002Y-137250000D03*
X82381002Y-137749999D03*
X82381002Y-138250001D03*
X82381002Y-138750000D03*
X82381002Y-139249999D03*
X82381002Y-139750000D03*
X82381002Y-140250000D03*
X82381002Y-140750001D03*
X82381002Y-141250000D03*
X82381002Y-141749999D03*
X82381002Y-142250001D03*
X82381002Y-142750000D03*
X82381002Y-143250001D03*
X82381002Y-143750000D03*
%TD*%
D23*
%TO.C,R8019*%
X145842000Y-115419000D03*
X145842000Y-113769000D03*
%TD*%
D35*
%TO.C,D8001*%
X152532000Y-167152000D03*
X154432000Y-167152000D03*
X153482000Y-164877000D03*
%TD*%
D13*
%TO.C,C8013*%
X145855000Y-116880000D03*
X144305000Y-116880000D03*
%TD*%
D40*
%TO.C,J4002*%
X106344000Y-168656000D03*
D22*
X106344000Y-171156000D03*
X106344000Y-173656000D03*
%TD*%
D18*
%TO.C,R9027*%
X189039000Y-127508000D03*
X187389000Y-127508000D03*
%TD*%
D24*
%TO.C,J9015*%
X168348000Y-108458000D03*
D20*
X168348000Y-105958000D03*
%TD*%
D26*
%TO.C,TP2009*%
X136144000Y-140716000D03*
%TD*%
D42*
%TO.C,U4001*%
X143936001Y-137414000D03*
X143286000Y-137414000D03*
X142635999Y-137414000D03*
X141986000Y-137414000D03*
X141336001Y-137414000D03*
X140686000Y-137414000D03*
X140036001Y-137414000D03*
D43*
X139192000Y-138257999D03*
X139192000Y-138908000D03*
X139192000Y-139557999D03*
X139192000Y-140208000D03*
X139192000Y-140857999D03*
X139192000Y-141508000D03*
X139192000Y-142157999D03*
D42*
X140035999Y-143002000D03*
X140686000Y-143002000D03*
X141335999Y-143002000D03*
X141986000Y-143002000D03*
X142635999Y-143002000D03*
X143286000Y-143002000D03*
X143935999Y-143002000D03*
D43*
X144780000Y-142158001D03*
X144780000Y-141508000D03*
X144780000Y-140858001D03*
X144780000Y-140208000D03*
X144780000Y-139558001D03*
X144780000Y-138908000D03*
X144780000Y-138258001D03*
D44*
X141986000Y-140208000D03*
%TD*%
D13*
%TO.C,C4003*%
X101047000Y-160528000D03*
X99497000Y-160528000D03*
%TD*%
D15*
%TO.C,R9018*%
X188596000Y-152146000D03*
X190246000Y-152146000D03*
%TD*%
D17*
%TO.C,U9004*%
X179832000Y-157384000D03*
X177292000Y-157384000D03*
X177292000Y-166884000D03*
X179832000Y-166884000D03*
%TD*%
D23*
%TO.C,R9014*%
X172390000Y-126067000D03*
X172390000Y-124417000D03*
%TD*%
D10*
%TO.C,C4004*%
X95997000Y-160528000D03*
X97547000Y-160528000D03*
%TD*%
D47*
%TO.C,L3002*%
X95913500Y-121412000D03*
X98038500Y-121412000D03*
%TD*%
D13*
%TO.C,C8008*%
X156223000Y-162834000D03*
X154673000Y-162834000D03*
%TD*%
D26*
%TO.C,TP2012*%
X84836000Y-147828000D03*
%TD*%
D18*
%TO.C,R8016*%
X137223000Y-167406000D03*
X135573000Y-167406000D03*
%TD*%
D26*
%TO.C,TP2007*%
X114046000Y-118110000D03*
%TD*%
D48*
%TO.C,U6002*%
X108806899Y-120556899D03*
X108806899Y-121056901D03*
X108806899Y-121556900D03*
X108806899Y-122056899D03*
X108806899Y-122556901D03*
D49*
X109749998Y-123500000D03*
X110250000Y-123500000D03*
X110749999Y-123500000D03*
X111249998Y-123500000D03*
X111750000Y-123500000D03*
D48*
X112693099Y-122556901D03*
X112693099Y-122056899D03*
X112693099Y-121556900D03*
X112693099Y-121056901D03*
X112693099Y-120556899D03*
D49*
X111750000Y-119613800D03*
X111249998Y-119613800D03*
X110749999Y-119613800D03*
X110250000Y-119613800D03*
X109749998Y-119613800D03*
D50*
X110749999Y-121556900D03*
%TD*%
D15*
%TO.C,R9019*%
X162942000Y-152146000D03*
X164592000Y-152146000D03*
%TD*%
D26*
%TO.C,FID7002*%
X193040000Y-109982000D03*
%TD*%
D15*
%TO.C,R9021*%
X173165000Y-152146000D03*
X174815000Y-152146000D03*
%TD*%
D19*
%TO.C,J8011*%
X146096000Y-105998000D03*
D20*
X146096000Y-108498000D03*
%TD*%
D23*
%TO.C,R8023*%
X125522000Y-115419000D03*
X125522000Y-113769000D03*
%TD*%
D17*
%TO.C,U9010*%
X192486000Y-130926000D03*
X195026000Y-130926000D03*
X195026000Y-121426000D03*
X192486000Y-121426000D03*
%TD*%
D16*
%TO.C,R8007*%
X130556000Y-164232000D03*
X130556000Y-165882000D03*
%TD*%
D34*
%TO.C,D9016*%
X163830000Y-124460000D03*
X163830000Y-126035000D03*
%TD*%
D15*
%TO.C,R3002*%
X68000000Y-107500000D03*
X69650000Y-107500000D03*
%TD*%
D19*
%TO.C,J9001*%
X163622000Y-171278000D03*
D20*
X163622000Y-173778000D03*
%TD*%
D24*
%TO.C,J8001*%
X120096000Y-173736000D03*
D20*
X120096000Y-171236000D03*
%TD*%
D11*
%TO.C,C4007*%
X141224000Y-135903000D03*
X141224000Y-134353000D03*
%TD*%
D10*
%TO.C,C8006*%
X150863000Y-162834000D03*
X152413000Y-162834000D03*
%TD*%
D26*
%TO.C,TP2006*%
X107950000Y-137922000D03*
%TD*%
D13*
%TO.C,C3006*%
X94526000Y-119412000D03*
X92976000Y-119412000D03*
%TD*%
D16*
%TO.C,R8004*%
X156210000Y-164232000D03*
X156210000Y-165882000D03*
%TD*%
D18*
%TO.C,R5002*%
X53466000Y-151250000D03*
X51816000Y-151250000D03*
%TD*%
D16*
%TO.C,R4006*%
X86360000Y-162126000D03*
X86360000Y-163776000D03*
%TD*%
D51*
%TO.C,J5001*%
X54310000Y-134695000D03*
X54310000Y-146125000D03*
D52*
X60660000Y-135965000D03*
D53*
X63200000Y-137235000D03*
X60660000Y-138505000D03*
X63200000Y-139775000D03*
X60660000Y-141045000D03*
X63200000Y-142315000D03*
X60660000Y-143585000D03*
X63200000Y-144855000D03*
X50250000Y-133780000D03*
X50250000Y-136320000D03*
X50250000Y-144500000D03*
X50250000Y-147040000D03*
D54*
X57360000Y-133290000D03*
X57360000Y-147530000D03*
%TD*%
D15*
%TO.C,R8009*%
X138938000Y-167406000D03*
X140588000Y-167406000D03*
%TD*%
D18*
%TO.C,R9029*%
X179070000Y-127508000D03*
X177420000Y-127508000D03*
%TD*%
D19*
%TO.C,J8015*%
X125822000Y-105978000D03*
D20*
X125822000Y-108478000D03*
%TD*%
D27*
%TO.C,D9008*%
X193548000Y-146329500D03*
X193548000Y-144754500D03*
%TD*%
D55*
%TO.C,U6001*%
X107800000Y-126950000D03*
X110200000Y-126950000D03*
X110200000Y-125050000D03*
X107800000Y-125050000D03*
%TD*%
D40*
%TO.C,J4004*%
X96520000Y-168656000D03*
D22*
X96520000Y-171156000D03*
X96520000Y-173656000D03*
%TD*%
D25*
%TO.C,TP3006*%
X90250000Y-114750000D03*
%TD*%
D24*
%TO.C,J9009*%
X198536000Y-117094000D03*
D20*
X198536000Y-114594000D03*
%TD*%
D15*
%TO.C,R4007*%
X136335000Y-143510000D03*
X137985000Y-143510000D03*
%TD*%
D17*
%TO.C,U9014*%
X172420000Y-122290000D03*
X174960000Y-122290000D03*
X174960000Y-112790000D03*
X172420000Y-112790000D03*
%TD*%
D13*
%TO.C,C2006*%
X79769000Y-139192000D03*
X78219000Y-139192000D03*
%TD*%
D24*
%TO.C,J9011*%
X188422000Y-108458000D03*
D20*
X188422000Y-105958000D03*
%TD*%
D35*
%TO.C,D8002*%
X142240000Y-167152000D03*
X144140000Y-167152000D03*
X143190000Y-164877000D03*
%TD*%
D19*
%TO.C,J9008*%
X199136000Y-162388000D03*
D20*
X199136000Y-164888000D03*
%TD*%
D17*
%TO.C,U9013*%
X177500000Y-122290000D03*
X180040000Y-122290000D03*
X180040000Y-112790000D03*
X177500000Y-112790000D03*
%TD*%
D35*
%TO.C,D8004*%
X132212000Y-167152000D03*
X134112000Y-167152000D03*
X133162000Y-164877000D03*
%TD*%
D10*
%TO.C,C4002*%
X106065000Y-160528000D03*
X107615000Y-160528000D03*
%TD*%
D16*
%TO.C,R6002*%
X112268000Y-116015000D03*
X112268000Y-117665000D03*
%TD*%
D34*
%TO.C,D9012*%
X183896000Y-124460000D03*
X183896000Y-126035000D03*
%TD*%
D15*
%TO.C,R6001*%
X104425000Y-126500000D03*
X106075000Y-126500000D03*
%TD*%
D23*
%TO.C,R2004*%
X92964000Y-129095000D03*
X92964000Y-127445000D03*
%TD*%
D14*
%TO.C,H7001*%
X52324000Y-105918000D03*
%TD*%
D23*
%TO.C,R8021*%
X135682000Y-115419000D03*
X135682000Y-113769000D03*
%TD*%
D16*
%TO.C,R8008*%
X135890000Y-164232000D03*
X135890000Y-165882000D03*
%TD*%
D25*
%TO.C,TP3002*%
X55880000Y-118364000D03*
%TD*%
D19*
%TO.C,J9004*%
X178816000Y-171216000D03*
D20*
X178816000Y-173716000D03*
%TD*%
D15*
%TO.C,R9017*%
X198502000Y-143256000D03*
X200152000Y-143256000D03*
%TD*%
D18*
%TO.C,R8025*%
X157589000Y-112308000D03*
X155939000Y-112308000D03*
%TD*%
D19*
%TO.C,J8010*%
X151222000Y-105978000D03*
D20*
X151222000Y-108478000D03*
%TD*%
D55*
%TO.C,U2003*%
X91046000Y-128656000D03*
X88646000Y-128656000D03*
X88646000Y-130556000D03*
X91046000Y-130556000D03*
%TD*%
D18*
%TO.C,R5001*%
X53466000Y-152908000D03*
X51816000Y-152908000D03*
%TD*%
D11*
%TO.C,C4008*%
X163830000Y-136053001D03*
X163830000Y-134503001D03*
%TD*%
D23*
%TO.C,R6004*%
X110744000Y-113601000D03*
X110744000Y-111951000D03*
%TD*%
D18*
%TO.C,R9025*%
X199199000Y-136144000D03*
X197549000Y-136144000D03*
%TD*%
D13*
%TO.C,C8010*%
X135695000Y-116880000D03*
X134145000Y-116880000D03*
%TD*%
D25*
%TO.C,TP2005*%
X132588000Y-142494000D03*
%TD*%
D19*
%TO.C,J8009*%
X156256000Y-105958000D03*
D20*
X156256000Y-108458000D03*
%TD*%
D23*
%TO.C,R8022*%
X130602000Y-115419000D03*
X130602000Y-113769000D03*
%TD*%
%TO.C,R9011*%
X187406000Y-126067000D03*
X187406000Y-124417000D03*
%TD*%
D10*
%TO.C,C8015*%
X140749000Y-116880000D03*
X142299000Y-116880000D03*
%TD*%
D23*
%TO.C,R9009*%
X197566000Y-134703000D03*
X197566000Y-133053000D03*
%TD*%
D26*
%TO.C,FID7003*%
X192786000Y-170180000D03*
%TD*%
D10*
%TO.C,C8005*%
X130543000Y-162834000D03*
X132093000Y-162834000D03*
%TD*%
D34*
%TO.C,D9009*%
X199136000Y-133070500D03*
X199136000Y-134645500D03*
%TD*%
D13*
%TO.C,C3004*%
X85275000Y-107500000D03*
X83725000Y-107500000D03*
%TD*%
D27*
%TO.C,D9002*%
X188468000Y-155219500D03*
X188468000Y-153644500D03*
%TD*%
D15*
%TO.C,R8031*%
X139175000Y-112308000D03*
X140825000Y-112308000D03*
%TD*%
D19*
%TO.C,J9005*%
X183942000Y-171216000D03*
D20*
X183942000Y-173716000D03*
%TD*%
D18*
%TO.C,R8011*%
X147383000Y-167406000D03*
X145733000Y-167406000D03*
%TD*%
D16*
%TO.C,R8006*%
X125730000Y-164232000D03*
X125730000Y-165882000D03*
%TD*%
D18*
%TO.C,R3006*%
X51537500Y-128528000D03*
X49887500Y-128528000D03*
%TD*%
D28*
%TO.C,D8006*%
X123886000Y-112533000D03*
X121986000Y-112533000D03*
X122936000Y-114808000D03*
%TD*%
D34*
%TO.C,D9010*%
X194056000Y-133070500D03*
X194056000Y-134645500D03*
%TD*%
D40*
%TO.C,J4005*%
X91658000Y-168656000D03*
D22*
X91658000Y-171156000D03*
X91658000Y-173656000D03*
%TD*%
D10*
%TO.C,C8011*%
X150896000Y-116880000D03*
X152446000Y-116880000D03*
%TD*%
D24*
%TO.C,J8002*%
X125222000Y-173756000D03*
D20*
X125222000Y-171256000D03*
%TD*%
D40*
%TO.C,J4001*%
X111170000Y-168656000D03*
D22*
X111170000Y-171156000D03*
X111170000Y-173656000D03*
%TD*%
D10*
%TO.C,C8016*%
X120175000Y-116880000D03*
X121725000Y-116880000D03*
%TD*%
D25*
%TO.C,TP3004*%
X98552000Y-126746000D03*
%TD*%
D24*
%TO.C,J9014*%
X173436000Y-108458000D03*
D20*
X173436000Y-105958000D03*
%TD*%
D56*
%TO.C,C3001*%
X63754000Y-113600000D03*
X63754000Y-110000000D03*
%TD*%
D23*
%TO.C,R5006*%
X70000000Y-138075000D03*
X70000000Y-136425000D03*
%TD*%
D13*
%TO.C,C8007*%
X135903000Y-162834000D03*
X134353000Y-162834000D03*
%TD*%
D23*
%TO.C,R9010*%
X192486000Y-134703000D03*
X192486000Y-133053000D03*
%TD*%
D24*
%TO.C,J8003*%
X130302000Y-173756000D03*
D20*
X130302000Y-171256000D03*
%TD*%
D16*
%TO.C,R4005*%
X91360000Y-162126000D03*
X91360000Y-163776000D03*
%TD*%
D15*
%TO.C,R8027*%
X149335000Y-112308000D03*
X150985000Y-112308000D03*
%TD*%
D16*
%TO.C,R9004*%
X179832000Y-153607000D03*
X179832000Y-155257000D03*
%TD*%
D13*
%TO.C,C2008*%
X81547000Y-134874000D03*
X79997000Y-134874000D03*
%TD*%
M02*
