M48
; DRILL file {KiCad 8.0.1} date 2024-09-10T07:57:00+0200
; FORMAT={-:-/ absolute / metric / decimal}
; #@! TF.CreationDate,2024-09-10T07:57:00+02:00
; #@! TF.GenerationSoftware,Kicad,Pcbnew,8.0.1
; #@! TF.FileFunction,Plated,1,4,PTH
FMAT,2
METRIC
; #@! TA.AperFunction,Plated,PTH,ViaDrill
T1C0.200
; #@! TA.AperFunction,Plated,PTH,ViaDrill
T2C0.300
; #@! TA.AperFunction,Plated,PTH,ViaDrill
T3C0.400
; #@! TA.AperFunction,Plated,PTH,ComponentDrill
T4C0.500
; #@! TA.AperFunction,Plated,PTH,ComponentDrill
T5C0.920
; #@! TA.AperFunction,Plated,PTH,ComponentDrill
T6C1.000
; #@! TA.AperFunction,Plated,PTH,ComponentDrill
T7C2.300
%
G90
G05
T1
X91.792Y-90.038
X94.078Y-85.72
X99.412Y-79.624
X100.428Y-85.212
X100.623Y-122.042
X100.682Y-88.006
X101.639Y-125.344
X102.206Y-99.436
X102.206Y-100.198
X102.968Y-99.944
X104.492Y-73.782
X105.762Y-77.084
X106.934Y-126.106
X107.794Y-101.722
X109.318Y-99.944
X109.826Y-79.116
X110.08Y-94.102
X110.842Y-78.608
X110.842Y-99.944
X111.604Y-99.436
X111.604Y-100.198
X112.112Y-127.884
X112.627Y-110.873
X113.121Y-111.367
X114.144Y-76.576
X115.76Y-126.614
X116.46Y-126.614
X117.199Y-112.129
X117.693Y-111.635
X120.494Y-78.354
X121.002Y-79.116
T2
X101.19Y-101.722
X107.111Y-125.264
X109.064Y-105.532
T3
X90.268Y-104.516
X91.792Y-95.118
X95.856Y-97.15
X95.856Y-98.166
X96.11Y-104.516
X96.872Y-93.34
X98.015Y-130.551
X99.412Y-77.592
X99.412Y-78.608
X101.698Y-130.678
X102.968Y-97.658
X102.968Y-103.5
X103.222Y-80.132
X105.254Y-131.186
X106.524Y-132.456
X106.778Y-118.232
X107.032Y-119.756
X109.064Y-107.818
X109.318Y-116.2
X109.826Y-124.328
X110.334Y-116.454
X110.842Y-91.816
X110.842Y-124.328
X111.35Y-84.196
X111.398Y-130.791
X112.62Y-133.472
X113.562Y-126.381
X113.636Y-122.804
X114.094Y-120.718
X114.398Y-117.216
X114.652Y-99.69
X114.652Y-132.202
X114.906Y-101.214
X114.906Y-122.804
X115.16Y-124.328
X115.922Y-76.83
X116.049Y-83.294
X116.684Y-99.69
X116.684Y-101.214
X116.684Y-132.202
X116.938Y-120.01
X117.192Y-108.834
X117.192Y-114.422
X117.348Y-66.294
X117.446Y-92.832
X117.954Y-122.042
X117.954Y-124.582
X118.134Y-120.031
X118.134Y-126.381
X118.208Y-113.66
X118.618Y-66.294
X118.618Y-75.184
X118.618Y-76.2
X118.663Y-73.073
X118.716Y-84.196
X118.79Y-78.915
X118.97Y-132.202
X119.224Y-69.718
X119.732Y-84.45
X120.494Y-75.052
X120.904Y-66.04
X121.51Y-84.45
X122.526Y-75.052
X122.526Y-76.576
X122.78Y-121.28
X122.78Y-124.328
X122.854Y-72.819
X123.235Y-78.915
X123.444Y-66.294
X123.542Y-84.45
X123.542Y-97.912
X124.05Y-105.024
X126.336Y-102.23
X126.844Y-123.566
X127.606Y-73.782
X127.606Y-76.83
X131.064Y-73.66
X131.318Y-77.724
X135.226Y-124.836
X135.636Y-72.136
X135.636Y-78.486
X135.636Y-86.106
X136.144Y-100.838
X136.242Y-112.898
X136.75Y-114.422
X137.258Y-68.448
X138.02Y-134.234
X138.274Y-137.028
X139.544Y-136.266
X139.798Y-73.274
X139.798Y-80.386
X139.798Y-87.498
X139.798Y-111.374
X139.798Y-118.232
X139.798Y-125.09
X139.798Y-131.948
X140.56Y-135.25
X141.068Y-114.676
X141.224Y-86.106
X141.322Y-116.708
X143.256Y-73.406
X143.256Y-80.518
X143.256Y-132.334
X143.256Y-139.192
X143.51Y-118.364
X143.608Y-125.598
X148.336Y-125.476
X148.336Y-132.334
X148.59Y-111.252
X149.352Y-94.996
X149.352Y-139.446
X150.114Y-86.614
X150.368Y-80.01
X150.368Y-118.11
X150.622Y-72.39
X150.876Y-64.77
X150.876Y-131.318
X151.13Y-105.41
X153.67Y-126.746
X153.67Y-133.604
X153.924Y-67.818
X153.924Y-119.888
X154.178Y-74.93
X154.178Y-82.55
X154.178Y-88.646
X154.178Y-111.506
X155.448Y-79.756
X155.956Y-114.554
X156.464Y-102.362
X156.464Y-123.444
X157.48Y-107.95
X157.988Y-88.9
X158.75Y-132.842
X160.274Y-96.266
X161.29Y-118.364
X164.084Y-81.788
X164.592Y-121.92
X164.592Y-136.144
X165.1Y-126.238
X165.862Y-102.362
X166.116Y-92.202
X166.116Y-113.538
X166.624Y-66.548
X166.878Y-81.026
X167.132Y-78.486
X167.132Y-88.138
X168.402Y-74.422
X171.45Y-112.268
X171.704Y-94.996
X171.704Y-105.664
X171.958Y-91.186
X171.958Y-99.06
X171.958Y-104.14
X172.212Y-125.476
X173.228Y-101.346
X173.228Y-129.794
X173.228Y-134.62
X173.736Y-122.936
X174.244Y-126.238
X174.498Y-81.026
X174.752Y-108.966
X175.006Y-95.504
X175.514Y-99.314
X176.784Y-83.566
X177.038Y-127.762
X177.8Y-95.504
X178.054Y-87.122
X178.562Y-109.22
X179.07Y-115.316
X179.324Y-90.17
X179.324Y-113.03
X179.578Y-80.264
X180.34Y-103.124
X180.848Y-77.216
X184.912Y-95.758
X186.69Y-117.856
X187.452Y-115.57
X190.754Y-99.06
X190.754Y-115.824
X191.262Y-104.902
X193.04Y-116.332
X193.04Y-118.618
X193.802Y-76.2
X193.802Y-101.854
X196.596Y-113.284
X196.85Y-85.344
X197.104Y-100.076
X197.358Y-71.882
X197.358Y-106.68
X197.358Y-127.762
X197.866Y-103.886
X198.628Y-121.412
X199.898Y-68.072
X201.93Y-124.46
X205.74Y-124.714
X206.248Y-83.058
X206.756Y-117.602
X207.772Y-93.472
X207.772Y-106.426
X208.28Y-120.142
X209.55Y-78.74
X210.058Y-134.62
X210.82Y-130.81
X211.074Y-103.378
X211.328Y-111.76
X214.63Y-134.62
X214.63Y-139.446
X214.884Y-68.326
X215.646Y-110.998
X217.17Y-106.172
X217.424Y-121.158
X217.678Y-124.714
X218.694Y-133.35
X219.456Y-122.936
X221.234Y-102.87
X221.488Y-106.68
X224.536Y-93.98
X224.536Y-98.552
X224.536Y-102.362
X224.536Y-132.842
X225.044Y-115.316
X225.298Y-101.346
X226.06Y-124.206
X227.076Y-99.822
X227.076Y-100.838
X227.584Y-93.218
X227.838Y-108.204
X228.092Y-78.74
X229.108Y-92.202
X230.124Y-92.964
X230.124Y-97.536
X230.632Y-129.54
X230.886Y-94.234
X230.886Y-105.41
X231.648Y-95.25
X231.902Y-117.602
X232.156Y-90.678
X232.664Y-93.726
X232.664Y-94.996
X232.918Y-66.04
X233.426Y-96.266
X233.68Y-93.218
X233.934Y-101.854
X234.442Y-105.156
X234.442Y-112.522
X234.442Y-113.538
X234.696Y-92.71
X235.204Y-109.22
X235.458Y-95.504
X235.458Y-107.188
X235.712Y-92.71
X235.712Y-114.808
X235.966Y-103.378
X235.966Y-124.46
X236.982Y-120.396
X239.014Y-105.156
X239.014Y-107.95
X239.268Y-84.582
X239.268Y-96.52
X239.268Y-100.076
X239.522Y-110.744
X239.776Y-92.456
X239.776Y-104.14
X240.03Y-95.25
X240.03Y-105.41
X240.03Y-106.426
X240.03Y-116.332
X240.03Y-120.904
X240.792Y-107.696
X241.046Y-92.202
X242.062Y-74.168
X242.062Y-108.712
X242.824Y-64.77
X242.824Y-119.126
T4
X95.504Y-78.232
X96.968Y-122.751
X97.79Y-78.232
X98.238Y-125.037
X99.254Y-123.005
X102.153Y-76.629
X103.169Y-74.597
X104.853Y-127.831
X108.302Y-125.09
X108.63Y-80.058
X109.22Y-73.66
X112.694Y-77.772
X123.288Y-129.228
X123.288Y-131.514
X128.315Y-82.217
X130.048Y-84.074
T5
X90.624Y-97.952
X90.624Y-100.452
X93.824Y-97.952
X93.824Y-100.452
T6
X185.928Y-74.93
X185.928Y-77.47
X185.928Y-80.01
X185.928Y-82.55
X185.928Y-85.09
X185.928Y-98.806
X185.928Y-101.346
X185.928Y-103.886
X185.928Y-106.426
X185.928Y-108.966
X188.468Y-74.93
X188.468Y-77.47
X188.468Y-80.01
X188.468Y-82.55
X188.468Y-85.09
X188.468Y-98.806
X188.468Y-101.346
X188.468Y-103.886
X188.468Y-106.426
X188.468Y-108.966
X199.898Y-70.866
X199.898Y-73.406
X199.898Y-84.836
X199.898Y-87.376
X199.898Y-98.816
X199.898Y-101.355
X199.898Y-112.795
X199.898Y-115.335
X199.898Y-126.765
X199.898Y-129.305
X202.438Y-70.866
X202.438Y-73.406
X202.438Y-84.836
X202.438Y-87.376
X202.438Y-98.816
X202.438Y-101.355
X202.438Y-112.795
X202.438Y-115.335
X202.438Y-126.765
X202.438Y-129.305
X204.978Y-70.866
X204.978Y-73.406
X204.978Y-84.836
X204.978Y-87.376
X204.978Y-98.816
X204.978Y-101.355
X204.978Y-112.795
X204.978Y-115.335
X204.978Y-126.765
X204.978Y-129.305
X207.518Y-70.866
X207.518Y-73.406
X207.518Y-84.836
X207.518Y-87.376
X207.518Y-98.816
X207.518Y-101.355
X207.518Y-112.795
X207.518Y-115.335
X207.518Y-126.765
X207.518Y-129.305
X210.058Y-70.866
X210.058Y-73.406
X210.058Y-84.836
X210.058Y-87.376
X210.058Y-98.816
X210.058Y-101.355
X210.058Y-112.795
X210.058Y-115.335
X210.058Y-126.765
X210.058Y-129.305
X212.598Y-70.866
X212.598Y-73.406
X212.598Y-84.836
X212.598Y-87.376
X212.598Y-98.816
X212.598Y-101.355
X212.598Y-112.795
X212.598Y-115.335
X212.598Y-126.765
X212.598Y-129.305
X215.138Y-70.866
X215.138Y-73.406
X215.138Y-84.836
X215.138Y-87.376
X215.138Y-98.816
X215.138Y-101.355
X215.138Y-112.795
X215.138Y-115.335
X215.138Y-126.765
X215.138Y-129.305
X217.678Y-70.866
X217.678Y-73.406
X217.678Y-84.836
X217.678Y-87.376
X217.678Y-98.816
X217.678Y-101.355
X217.678Y-112.795
X217.678Y-115.335
X217.678Y-126.765
X217.678Y-129.305
X220.218Y-70.866
X220.218Y-73.406
X220.218Y-84.836
X220.218Y-87.376
X220.218Y-98.816
X220.218Y-101.355
X220.218Y-112.795
X220.218Y-115.335
X220.218Y-126.765
X220.218Y-129.305
X222.758Y-70.866
X222.758Y-73.406
X222.758Y-84.836
X222.758Y-87.376
X222.758Y-98.816
X222.758Y-101.355
X222.758Y-112.795
X222.758Y-115.335
X222.758Y-126.765
X222.758Y-129.305
T7
X93.334Y-93.182
X93.334Y-105.222
M30
