%TF.GenerationSoftware,KiCad,Pcbnew,8.0.1*%
%TF.CreationDate,2024-09-10T07:56:54+02:00*%
%TF.ProjectId,CC_Debug,43435f44-6562-4756-972e-6b696361645f,rev?*%
%TF.SameCoordinates,Original*%
%TF.FileFunction,Paste,Top*%
%TF.FilePolarity,Positive*%
%FSLAX46Y46*%
G04 Gerber Fmt 4.6, Leading zero omitted, Abs format (unit mm)*
G04 Created by KiCad (PCBNEW 8.0.1) date 2024-09-10 07:56:54*
%MOMM*%
%LPD*%
G01*
G04 APERTURE LIST*
G04 Aperture macros list*
%AMRoundRect*
0 Rectangle with rounded corners*
0 $1 Rounding radius*
0 $2 $3 $4 $5 $6 $7 $8 $9 X,Y pos of 4 corners*
0 Add a 4 corners polygon primitive as box body*
4,1,4,$2,$3,$4,$5,$6,$7,$8,$9,$2,$3,0*
0 Add four circle primitives for the rounded corners*
1,1,$1+$1,$2,$3*
1,1,$1+$1,$4,$5*
1,1,$1+$1,$6,$7*
1,1,$1+$1,$8,$9*
0 Add four rect primitives between the rounded corners*
20,1,$1+$1,$2,$3,$4,$5,0*
20,1,$1+$1,$4,$5,$6,$7,0*
20,1,$1+$1,$6,$7,$8,$9,0*
20,1,$1+$1,$8,$9,$2,$3,0*%
G04 Aperture macros list end*
%ADD10C,0.010000*%
%ADD11C,0.000000*%
%ADD12RoundRect,0.225000X-0.250000X0.225000X-0.250000X-0.225000X0.250000X-0.225000X0.250000X0.225000X0*%
%ADD13RoundRect,0.200000X-0.200000X-0.275000X0.200000X-0.275000X0.200000X0.275000X-0.200000X0.275000X0*%
%ADD14RoundRect,0.225000X0.225000X0.250000X-0.225000X0.250000X-0.225000X-0.250000X0.225000X-0.250000X0*%
%ADD15RoundRect,0.200000X-0.275000X0.200000X-0.275000X-0.200000X0.275000X-0.200000X0.275000X0.200000X0*%
%ADD16RoundRect,0.200000X0.275000X-0.200000X0.275000X0.200000X-0.275000X0.200000X-0.275000X-0.200000X0*%
%ADD17RoundRect,0.225000X-0.225000X-0.250000X0.225000X-0.250000X0.225000X0.250000X-0.225000X0.250000X0*%
%ADD18RoundRect,0.150000X-0.825000X-0.150000X0.825000X-0.150000X0.825000X0.150000X-0.825000X0.150000X0*%
%ADD19RoundRect,0.218750X0.381250X-0.218750X0.381250X0.218750X-0.381250X0.218750X-0.381250X-0.218750X0*%
%ADD20RoundRect,0.200000X0.200000X0.275000X-0.200000X0.275000X-0.200000X-0.275000X0.200000X-0.275000X0*%
%ADD21RoundRect,0.218750X-0.218750X-0.256250X0.218750X-0.256250X0.218750X0.256250X-0.218750X0.256250X0*%
%ADD22RoundRect,0.225000X0.250000X-0.225000X0.250000X0.225000X-0.250000X0.225000X-0.250000X-0.225000X0*%
%ADD23R,1.500000X1.100000*%
%ADD24RoundRect,0.150000X0.587500X0.150000X-0.587500X0.150000X-0.587500X-0.150000X0.587500X-0.150000X0*%
%ADD25RoundRect,0.150000X0.512500X0.150000X-0.512500X0.150000X-0.512500X-0.150000X0.512500X-0.150000X0*%
%ADD26RoundRect,0.250000X0.335000X-0.335000X0.335000X0.335000X-0.335000X0.335000X-0.335000X-0.335000X0*%
%ADD27RoundRect,0.062500X0.062500X-0.337500X0.062500X0.337500X-0.062500X0.337500X-0.062500X-0.337500X0*%
%ADD28RoundRect,0.062500X0.337500X-0.062500X0.337500X0.062500X-0.337500X0.062500X-0.337500X-0.062500X0*%
%ADD29RoundRect,0.218750X-0.256250X0.218750X-0.256250X-0.218750X0.256250X-0.218750X0.256250X0.218750X0*%
%ADD30RoundRect,0.150000X-0.750000X-0.150000X0.750000X-0.150000X0.750000X0.150000X-0.750000X0.150000X0*%
%ADD31R,1.200000X0.300000*%
%ADD32RoundRect,0.249999X-0.450001X-1.450001X0.450001X-1.450001X0.450001X1.450001X-0.450001X1.450001X0*%
%ADD33R,1.400000X1.200000*%
%ADD34RoundRect,0.250000X-0.312500X-1.075000X0.312500X-1.075000X0.312500X1.075000X-0.312500X1.075000X0*%
%ADD35RoundRect,0.015000X-0.135000X-0.275000X0.135000X-0.275000X0.135000X0.275000X-0.135000X0.275000X0*%
%ADD36R,0.254000X1.066800*%
%ADD37R,1.066800X0.254000*%
%ADD38R,3.810000X3.810000*%
%ADD39RoundRect,0.150000X-0.150000X0.587500X-0.150000X-0.587500X0.150000X-0.587500X0.150000X0.587500X0*%
G04 APERTURE END LIST*
D10*
%TO.C,J8001*%
X241371000Y-90696000D02*
X238971000Y-90696000D01*
X238971000Y-89096000D01*
X239771000Y-89096000D01*
X239771000Y-88296000D01*
X241371000Y-88296000D01*
X241371000Y-90696000D01*
G36*
X241371000Y-90696000D02*
G01*
X238971000Y-90696000D01*
X238971000Y-89096000D01*
X239771000Y-89096000D01*
X239771000Y-88296000D01*
X241371000Y-88296000D01*
X241371000Y-90696000D01*
G37*
X241371000Y-114396000D02*
X239771000Y-114396000D01*
X239771000Y-113596000D01*
X238971000Y-113596000D01*
X238971000Y-111996000D01*
X241371000Y-111996000D01*
X241371000Y-114396000D01*
G36*
X241371000Y-114396000D02*
G01*
X239771000Y-114396000D01*
X239771000Y-113596000D01*
X238971000Y-113596000D01*
X238971000Y-111996000D01*
X241371000Y-111996000D01*
X241371000Y-114396000D01*
G37*
D11*
%TO.C,U2001*%
G36*
X114951000Y-99661000D02*
G01*
X113881000Y-99661000D01*
X113881000Y-98591000D01*
X114951000Y-98591000D01*
X114951000Y-99661000D01*
G37*
G36*
X114951000Y-100931000D02*
G01*
X113881000Y-100931000D01*
X113881000Y-99861000D01*
X114951000Y-99861000D01*
X114951000Y-100931000D01*
G37*
G36*
X114951000Y-102201000D02*
G01*
X113881000Y-102201000D01*
X113881000Y-101131000D01*
X114951000Y-101131000D01*
X114951000Y-102201000D01*
G37*
G36*
X116221000Y-99661000D02*
G01*
X115151000Y-99661000D01*
X115151000Y-98591000D01*
X116221000Y-98591000D01*
X116221000Y-99661000D01*
G37*
G36*
X116221000Y-100931000D02*
G01*
X115151000Y-100931000D01*
X115151000Y-99861000D01*
X116221000Y-99861000D01*
X116221000Y-100931000D01*
G37*
G36*
X116221000Y-102201000D02*
G01*
X115151000Y-102201000D01*
X115151000Y-101131000D01*
X116221000Y-101131000D01*
X116221000Y-102201000D01*
G37*
G36*
X117491000Y-99661000D02*
G01*
X116421000Y-99661000D01*
X116421000Y-98591000D01*
X117491000Y-98591000D01*
X117491000Y-99661000D01*
G37*
G36*
X117491000Y-100931000D02*
G01*
X116421000Y-100931000D01*
X116421000Y-99861000D01*
X117491000Y-99861000D01*
X117491000Y-100931000D01*
G37*
G36*
X117491000Y-102201000D02*
G01*
X116421000Y-102201000D01*
X116421000Y-101131000D01*
X117491000Y-101131000D01*
X117491000Y-102201000D01*
G37*
%TD*%
D12*
%TO.C,C7020*%
X153162000Y-102349000D03*
X153162000Y-103899000D03*
%TD*%
D13*
%TO.C,R7012*%
X150559000Y-70866000D03*
X152209000Y-70866000D03*
%TD*%
D14*
%TO.C,C2014*%
X99425000Y-80767000D03*
X97875000Y-80767000D03*
%TD*%
D15*
%TO.C,R2006*%
X117464000Y-105667000D03*
X117464000Y-107317000D03*
%TD*%
D16*
%TO.C,R8036*%
X193294000Y-86994000D03*
X193294000Y-85344000D03*
%TD*%
%TO.C,R8008*%
X215201000Y-107514500D03*
X215201000Y-105864500D03*
%TD*%
D17*
%TO.C,C6009*%
X123529000Y-85720000D03*
X125079000Y-85720000D03*
%TD*%
D18*
%TO.C,U7001*%
X143419000Y-126995000D03*
X143419000Y-128265000D03*
X143419000Y-129535000D03*
X143419000Y-130805000D03*
X148369000Y-130805000D03*
X148369000Y-129535000D03*
X148369000Y-128265000D03*
X148369000Y-126995000D03*
%TD*%
D13*
%TO.C,R7015*%
X150559000Y-121412000D03*
X152209000Y-121412000D03*
%TD*%
D15*
%TO.C,R8030*%
X197104000Y-120142000D03*
X197104000Y-121792000D03*
%TD*%
D17*
%TO.C,C2009*%
X120245000Y-102936000D03*
X121795000Y-102936000D03*
%TD*%
D15*
%TO.C,R6004*%
X121510000Y-86419000D03*
X121510000Y-88069000D03*
%TD*%
D16*
%TO.C,R8012*%
X222758000Y-121494000D03*
X222758000Y-119844000D03*
%TD*%
D19*
%TO.C,L2001*%
X101190000Y-86355000D03*
X101190000Y-84230000D03*
%TD*%
D18*
%TO.C,U7008*%
X143419000Y-68067000D03*
X143419000Y-69337000D03*
X143419000Y-70607000D03*
X143419000Y-71877000D03*
X148369000Y-71877000D03*
X148369000Y-70607000D03*
X148369000Y-69337000D03*
X148369000Y-68067000D03*
%TD*%
D14*
%TO.C,C6012*%
X115554000Y-72692000D03*
X114004000Y-72692000D03*
%TD*%
D20*
%TO.C,R8029*%
X199262000Y-94234000D03*
X197612000Y-94234000D03*
%TD*%
D16*
%TO.C,R8005*%
X215138000Y-93535000D03*
X215138000Y-91885000D03*
%TD*%
D12*
%TO.C,C5010*%
X114398000Y-133713000D03*
X114398000Y-135263000D03*
%TD*%
D21*
%TO.C,D6001*%
X114065500Y-74216000D03*
X115640500Y-74216000D03*
%TD*%
D14*
%TO.C,C5014*%
X110502000Y-118433000D03*
X108952000Y-118433000D03*
%TD*%
D16*
%TO.C,R6003*%
X108683000Y-78153000D03*
X108683000Y-76503000D03*
%TD*%
D14*
%TO.C,C6014*%
X115554000Y-71168000D03*
X114004000Y-71168000D03*
%TD*%
D13*
%TO.C,R2015*%
X120258000Y-97856000D03*
X121908000Y-97856000D03*
%TD*%
D22*
%TO.C,C6015*%
X121002000Y-69657000D03*
X121002000Y-68107000D03*
%TD*%
D15*
%TO.C,R2005*%
X118988000Y-105667000D03*
X118988000Y-107317000D03*
%TD*%
D23*
%TO.C,SW8002*%
X242702000Y-126746000D03*
X242702000Y-124206000D03*
X242702000Y-121666000D03*
X233802000Y-121666000D03*
X233802000Y-124206000D03*
X233802000Y-126746000D03*
%TD*%
D17*
%TO.C,C7016*%
X150609000Y-126746000D03*
X152159000Y-126746000D03*
%TD*%
D14*
%TO.C,C7002*%
X141348000Y-126868000D03*
X139798000Y-126868000D03*
%TD*%
D13*
%TO.C,R7008*%
X150559000Y-91948000D03*
X152209000Y-91948000D03*
%TD*%
D16*
%TO.C,R2007*%
X112384000Y-95379000D03*
X112384000Y-93729000D03*
%TD*%
D24*
%TO.C,Q8004*%
X196850000Y-79944000D03*
X196850000Y-78044000D03*
X194975000Y-78994000D03*
%TD*%
D23*
%TO.C,SW8003*%
X160650000Y-77343000D03*
X160650000Y-79883000D03*
X160650000Y-82423000D03*
X169550000Y-82423000D03*
X169550000Y-79883000D03*
X169550000Y-77343000D03*
%TD*%
D17*
%TO.C,C7015*%
X150609000Y-119888000D03*
X152159000Y-119888000D03*
%TD*%
D16*
%TO.C,R8020*%
X220218000Y-93535000D03*
X220218000Y-91885000D03*
%TD*%
%TO.C,R8019*%
X212598000Y-93535000D03*
X212598000Y-91885000D03*
%TD*%
D13*
%TO.C,R7009*%
X150559000Y-76454000D03*
X152209000Y-76454000D03*
%TD*%
D22*
%TO.C,C2005*%
X115686000Y-95712000D03*
X115686000Y-94162000D03*
%TD*%
D17*
%TO.C,C5013*%
X117941000Y-133472000D03*
X119491000Y-133472000D03*
%TD*%
D23*
%TO.C,SW8006*%
X160650000Y-109728000D03*
X160650000Y-112268000D03*
X160650000Y-114808000D03*
X169550000Y-114808000D03*
X169550000Y-112268000D03*
X169550000Y-109728000D03*
%TD*%
D16*
%TO.C,R8015*%
X202438000Y-79565000D03*
X202438000Y-77915000D03*
%TD*%
%TO.C,R8010*%
X204978000Y-121494000D03*
X204978000Y-119844000D03*
%TD*%
D14*
%TO.C,C5006*%
X110502000Y-119957000D03*
X108952000Y-119957000D03*
%TD*%
D25*
%TO.C,U5003*%
X102703000Y-126849000D03*
X102703000Y-125899000D03*
X102703000Y-124949000D03*
X100428000Y-124949000D03*
X100428000Y-125899000D03*
X100428000Y-126849000D03*
%TD*%
D17*
%TO.C,C2002*%
X120245000Y-100904000D03*
X121795000Y-100904000D03*
%TD*%
D15*
%TO.C,R2004*%
X120512000Y-105159000D03*
X120512000Y-106809000D03*
%TD*%
D13*
%TO.C,R7006*%
X150559000Y-136906000D03*
X152209000Y-136906000D03*
%TD*%
D22*
%TO.C,C6002*%
X123288000Y-69657000D03*
X123288000Y-68107000D03*
%TD*%
D17*
%TO.C,C2007*%
X120245000Y-99380000D03*
X121795000Y-99380000D03*
%TD*%
D16*
%TO.C,R8021*%
X202438000Y-107514500D03*
X202438000Y-105864500D03*
%TD*%
%TO.C,R8002*%
X215138000Y-79565000D03*
X215138000Y-77915000D03*
%TD*%
D26*
%TO.C,U6003*%
X120187000Y-77264000D03*
X121637000Y-77264000D03*
X123087000Y-77264000D03*
X120187000Y-75814000D03*
X121637000Y-75814000D03*
X123087000Y-75814000D03*
X120187000Y-74364000D03*
X121637000Y-74364000D03*
X123087000Y-74364000D03*
D27*
X117887000Y-80264000D03*
X118387000Y-80264000D03*
X118887000Y-80264000D03*
X119387000Y-80264000D03*
X119887000Y-80264000D03*
X120387000Y-80264000D03*
X120887000Y-80264000D03*
X121387000Y-80264000D03*
X121887000Y-80264000D03*
X122387000Y-80264000D03*
X122887000Y-80264000D03*
X123387000Y-80264000D03*
X123887000Y-80264000D03*
X124387000Y-80264000D03*
X124887000Y-80264000D03*
X125387000Y-80264000D03*
D28*
X126087000Y-79564000D03*
X126087000Y-79064000D03*
X126087000Y-78564000D03*
X126087000Y-78064000D03*
X126087000Y-77564000D03*
X126087000Y-77064000D03*
X126087000Y-76564000D03*
X126087000Y-76064000D03*
X126087000Y-75564000D03*
X126087000Y-75064000D03*
X126087000Y-74564000D03*
X126087000Y-74064000D03*
X126087000Y-73564000D03*
X126087000Y-73064000D03*
X126087000Y-72564000D03*
X126087000Y-72064000D03*
D27*
X125387000Y-71364000D03*
X124887000Y-71364000D03*
X124387000Y-71364000D03*
X123887000Y-71364000D03*
X123387000Y-71364000D03*
X122887000Y-71364000D03*
X122387000Y-71364000D03*
X121887000Y-71364000D03*
X121387000Y-71364000D03*
X120887000Y-71364000D03*
X120387000Y-71364000D03*
X119887000Y-71364000D03*
X119387000Y-71364000D03*
X118887000Y-71364000D03*
X118387000Y-71364000D03*
X117887000Y-71364000D03*
D28*
X117187000Y-72064000D03*
X117187000Y-72564000D03*
X117187000Y-73064000D03*
X117187000Y-73564000D03*
X117187000Y-74064000D03*
X117187000Y-74564000D03*
X117187000Y-75064000D03*
X117187000Y-75564000D03*
X117187000Y-76064000D03*
X117187000Y-76564000D03*
X117187000Y-77064000D03*
X117187000Y-77564000D03*
X117187000Y-78064000D03*
X117187000Y-78564000D03*
X117187000Y-79064000D03*
X117187000Y-79564000D03*
%TD*%
D14*
%TO.C,C6001*%
X102854000Y-78534000D03*
X101304000Y-78534000D03*
%TD*%
D16*
%TO.C,R8027*%
X220218000Y-135464000D03*
X220218000Y-133814000D03*
%TD*%
D17*
%TO.C,C7013*%
X150609000Y-133604000D03*
X152159000Y-133604000D03*
%TD*%
D12*
%TO.C,C2006*%
X112638000Y-104968000D03*
X112638000Y-106518000D03*
%TD*%
D16*
%TO.C,R8004*%
X204978000Y-93535000D03*
X204978000Y-91885000D03*
%TD*%
D12*
%TO.C,C7018*%
X136398000Y-102349000D03*
X136398000Y-103899000D03*
%TD*%
D16*
%TO.C,R8026*%
X220218000Y-121494000D03*
X220218000Y-119844000D03*
%TD*%
D17*
%TO.C,C7014*%
X150609000Y-113284000D03*
X152159000Y-113284000D03*
%TD*%
D14*
%TO.C,C5009*%
X98652000Y-126981000D03*
X97102000Y-126981000D03*
%TD*%
D20*
%TO.C,R2018*%
X94966000Y-90038000D03*
X93316000Y-90038000D03*
%TD*%
D13*
%TO.C,R7001*%
X150559000Y-128270000D03*
X152209000Y-128270000D03*
%TD*%
D12*
%TO.C,C7019*%
X154686000Y-102349000D03*
X154686000Y-103899000D03*
%TD*%
D14*
%TO.C,C7005*%
X140840000Y-89022000D03*
X139290000Y-89022000D03*
%TD*%
%TO.C,C2013*%
X99425000Y-82291000D03*
X97875000Y-82291000D03*
%TD*%
%TO.C,C2010*%
X111368000Y-98364000D03*
X109818000Y-98364000D03*
%TD*%
D12*
%TO.C,C6008*%
X119478000Y-81823000D03*
X119478000Y-83373000D03*
%TD*%
D18*
%TO.C,U7007*%
X143419000Y-75052000D03*
X143419000Y-76322000D03*
X143419000Y-77592000D03*
X143419000Y-78862000D03*
X148369000Y-78862000D03*
X148369000Y-77592000D03*
X148369000Y-76322000D03*
X148369000Y-75052000D03*
%TD*%
D14*
%TO.C,C6013*%
X115628000Y-75740000D03*
X114078000Y-75740000D03*
%TD*%
D23*
%TO.C,SW8004*%
X160650000Y-131318000D03*
X160650000Y-133858000D03*
X160650000Y-136398000D03*
X169550000Y-136398000D03*
X169550000Y-133858000D03*
X169550000Y-131318000D03*
%TD*%
D12*
%TO.C,C2012*%
X99412000Y-83929000D03*
X99412000Y-85479000D03*
%TD*%
%TO.C,C6006*%
X119478000Y-85720000D03*
X119478000Y-87270000D03*
%TD*%
D18*
%TO.C,U7002*%
X143419000Y-120137000D03*
X143419000Y-121407000D03*
X143419000Y-122677000D03*
X143419000Y-123947000D03*
X148369000Y-123947000D03*
X148369000Y-122677000D03*
X148369000Y-121407000D03*
X148369000Y-120137000D03*
%TD*%
D14*
%TO.C,C2001*%
X104777000Y-101666000D03*
X103227000Y-101666000D03*
%TD*%
D13*
%TO.C,R7007*%
X150559000Y-90424000D03*
X152209000Y-90424000D03*
%TD*%
D24*
%TO.C,Q8002*%
X195677000Y-94234000D03*
X195677000Y-92334000D03*
X193802000Y-93284000D03*
%TD*%
D16*
%TO.C,R8009*%
X222758000Y-107514500D03*
X222758000Y-105864500D03*
%TD*%
%TO.C,R5006*%
X107413000Y-123068000D03*
X107413000Y-121418000D03*
%TD*%
D20*
%TO.C,R2001*%
X108383000Y-97094000D03*
X106733000Y-97094000D03*
%TD*%
D16*
%TO.C,R8035*%
X171704000Y-132968000D03*
X171704000Y-131318000D03*
%TD*%
D17*
%TO.C,C7011*%
X150609000Y-82042000D03*
X152159000Y-82042000D03*
%TD*%
D14*
%TO.C,C7007*%
X140573000Y-75052000D03*
X139023000Y-75052000D03*
%TD*%
D16*
%TO.C,R8023*%
X220218000Y-107514500D03*
X220218000Y-105864500D03*
%TD*%
D12*
%TO.C,C7017*%
X138176000Y-102349000D03*
X138176000Y-103899000D03*
%TD*%
D18*
%TO.C,U7004*%
X143419000Y-133853000D03*
X143419000Y-135123000D03*
X143419000Y-136393000D03*
X143419000Y-137663000D03*
X148369000Y-137663000D03*
X148369000Y-136393000D03*
X148369000Y-135123000D03*
X148369000Y-133853000D03*
%TD*%
D29*
%TO.C,D8002*%
X193294000Y-95961000D03*
X193294000Y-97536000D03*
%TD*%
D16*
%TO.C,R8017*%
X220218000Y-79565000D03*
X220218000Y-77915000D03*
%TD*%
D30*
%TO.C,U7009*%
X140480000Y-99568000D03*
X140480000Y-100838000D03*
X140480000Y-102108000D03*
X140480000Y-103378000D03*
X151130000Y-103378000D03*
X151130000Y-102108000D03*
X151130000Y-100838000D03*
X151130000Y-99568000D03*
%TD*%
D13*
%TO.C,R7016*%
X150559000Y-122936000D03*
X152209000Y-122936000D03*
%TD*%
D29*
%TO.C,D8003*%
X193294000Y-123952000D03*
X193294000Y-125527000D03*
%TD*%
D18*
%TO.C,U7005*%
X143419000Y-89022000D03*
X143419000Y-90292000D03*
X143419000Y-91562000D03*
X143419000Y-92832000D03*
X148369000Y-92832000D03*
X148369000Y-91562000D03*
X148369000Y-90292000D03*
X148369000Y-89022000D03*
%TD*%
D17*
%TO.C,C6010*%
X127720000Y-72565000D03*
X129270000Y-72565000D03*
%TD*%
%TO.C,C7009*%
X150609000Y-67818000D03*
X152159000Y-67818000D03*
%TD*%
D16*
%TO.C,R8016*%
X212598000Y-79565000D03*
X212598000Y-77915000D03*
%TD*%
D18*
%TO.C,U7006*%
X143419000Y-82164000D03*
X143419000Y-83434000D03*
X143419000Y-84704000D03*
X143419000Y-85974000D03*
X148369000Y-85974000D03*
X148369000Y-84704000D03*
X148369000Y-83434000D03*
X148369000Y-82164000D03*
%TD*%
D13*
%TO.C,R2014*%
X123243000Y-102174000D03*
X124893000Y-102174000D03*
%TD*%
D23*
%TO.C,SW8008*%
X160650000Y-88138000D03*
X160650000Y-90678000D03*
X160650000Y-93218000D03*
X169550000Y-93218000D03*
X169550000Y-90678000D03*
X169550000Y-88138000D03*
%TD*%
D15*
%TO.C,R5003*%
X120141000Y-129292000D03*
X120141000Y-130942000D03*
%TD*%
D14*
%TO.C,C5004*%
X110502000Y-127831000D03*
X108952000Y-127831000D03*
%TD*%
D16*
%TO.C,R8006*%
X222758000Y-93535000D03*
X222758000Y-91885000D03*
%TD*%
D13*
%TO.C,R7005*%
X150559000Y-135382000D03*
X152209000Y-135382000D03*
%TD*%
D12*
%TO.C,C5001*%
X118510000Y-129254000D03*
X118510000Y-130804000D03*
%TD*%
D15*
%TO.C,R2011*%
X105272000Y-95507000D03*
X105272000Y-97157000D03*
%TD*%
%TO.C,R2003*%
X122036000Y-105159000D03*
X122036000Y-106809000D03*
%TD*%
D16*
%TO.C,R6006*%
X112440000Y-75676000D03*
X112440000Y-74026000D03*
%TD*%
D31*
%TO.C,J8001*%
X237471000Y-111096000D03*
X237471000Y-110596000D03*
X237471000Y-110096000D03*
X237471000Y-109596000D03*
X237471000Y-109096000D03*
X237471000Y-108596000D03*
X237471000Y-108096000D03*
X237471000Y-107596000D03*
X237471000Y-107096000D03*
X237471000Y-106596000D03*
X237471000Y-106096000D03*
X237471000Y-105596000D03*
X237471000Y-105096000D03*
X237471000Y-104596000D03*
X237471000Y-104096000D03*
X237471000Y-103596000D03*
X237471000Y-103096000D03*
X237471000Y-102596000D03*
X237471000Y-102096000D03*
X237471000Y-101596000D03*
X237471000Y-101096000D03*
X237471000Y-100596000D03*
X237471000Y-100096000D03*
X237471000Y-99596000D03*
X237471000Y-99096000D03*
X237471000Y-98596000D03*
X237471000Y-98096000D03*
X237471000Y-97596000D03*
X237471000Y-97096000D03*
X237471000Y-96596000D03*
X237471000Y-96096000D03*
X237471000Y-95596000D03*
X237471000Y-95096000D03*
X237471000Y-94596000D03*
X237471000Y-94096000D03*
X237471000Y-93596000D03*
X237471000Y-93096000D03*
X237471000Y-92596000D03*
X237471000Y-92096000D03*
X237471000Y-91596000D03*
%TD*%
D32*
%TO.C,C7021*%
X143746000Y-108458000D03*
X147846000Y-108458000D03*
%TD*%
D20*
%TO.C,R2016*%
X94903000Y-86990000D03*
X93253000Y-86990000D03*
%TD*%
D12*
%TO.C,C5011*%
X116887200Y-129254000D03*
X116887200Y-130804000D03*
%TD*%
D13*
%TO.C,R7010*%
X150559000Y-77978000D03*
X152209000Y-77978000D03*
%TD*%
D22*
%TO.C,C5002*%
X118363000Y-117176000D03*
X118363000Y-115626000D03*
%TD*%
D13*
%TO.C,R7002*%
X150559000Y-129794000D03*
X152209000Y-129794000D03*
%TD*%
D14*
%TO.C,C7004*%
X141348000Y-113152000D03*
X139798000Y-113152000D03*
%TD*%
D15*
%TO.C,R5002*%
X116102000Y-133663000D03*
X116102000Y-135313000D03*
%TD*%
D17*
%TO.C,C6011*%
X127733000Y-78026000D03*
X129283000Y-78026000D03*
%TD*%
D16*
%TO.C,R8007*%
X204978000Y-107514500D03*
X204978000Y-105864500D03*
%TD*%
%TO.C,R8037*%
X193548000Y-114934000D03*
X193548000Y-113284000D03*
%TD*%
D13*
%TO.C,R7011*%
X150559000Y-69342000D03*
X152209000Y-69342000D03*
%TD*%
D33*
%TO.C,U5001*%
X110198000Y-131741000D03*
X112598000Y-131741000D03*
X112598000Y-129841000D03*
X110198000Y-129841000D03*
%TD*%
D12*
%TO.C,C2003*%
X110860000Y-101666000D03*
X110860000Y-103216000D03*
%TD*%
D23*
%TO.C,SW8009*%
X172080000Y-78740000D03*
X172080000Y-81280000D03*
X172080000Y-83820000D03*
X180980000Y-83820000D03*
X180980000Y-81280000D03*
X180980000Y-78740000D03*
%TD*%
D15*
%TO.C,R8034*%
X198628000Y-77978000D03*
X198628000Y-79628000D03*
%TD*%
D13*
%TO.C,R7013*%
X150559000Y-83566000D03*
X152209000Y-83566000D03*
%TD*%
D16*
%TO.C,R8011*%
X215138000Y-121494000D03*
X215138000Y-119844000D03*
%TD*%
D33*
%TO.C,U2002*%
X106612000Y-103632000D03*
X109012000Y-103632000D03*
X109012000Y-101732000D03*
X106612000Y-101732000D03*
%TD*%
D21*
%TO.C,D5001*%
X108911500Y-121481000D03*
X110486500Y-121481000D03*
%TD*%
D29*
%TO.C,D8001*%
X193294000Y-68021000D03*
X193294000Y-69596000D03*
%TD*%
D13*
%TO.C,R2010*%
X102161000Y-95570000D03*
X103811000Y-95570000D03*
%TD*%
D20*
%TO.C,R6001*%
X106587000Y-80185000D03*
X104937000Y-80185000D03*
%TD*%
D14*
%TO.C,C5007*%
X110756000Y-123005000D03*
X109206000Y-123005000D03*
%TD*%
%TO.C,C7003*%
X141335000Y-120010000D03*
X139785000Y-120010000D03*
%TD*%
D17*
%TO.C,C5015*%
X122640000Y-125619000D03*
X124190000Y-125619000D03*
%TD*%
D34*
%TO.C,R7017*%
X144333500Y-96012000D03*
X147258500Y-96012000D03*
%TD*%
D35*
%TO.C,FL3001*%
X100709000Y-99133000D03*
X101259000Y-99133000D03*
X101259000Y-100443000D03*
X100709000Y-100443000D03*
%TD*%
D13*
%TO.C,R7004*%
X150559000Y-116332000D03*
X152209000Y-116332000D03*
%TD*%
D16*
%TO.C,R8013*%
X212598000Y-135401000D03*
X212598000Y-133751000D03*
%TD*%
D24*
%TO.C,Q8003*%
X195247500Y-122108000D03*
X195247500Y-120208000D03*
X193372500Y-121158000D03*
%TD*%
D15*
%TO.C,R2013*%
X111114000Y-104905000D03*
X111114000Y-106555000D03*
%TD*%
%TO.C,R5001*%
X108096000Y-131553000D03*
X108096000Y-133203000D03*
%TD*%
D16*
%TO.C,R8003*%
X222758000Y-79565000D03*
X222758000Y-77915000D03*
%TD*%
D23*
%TO.C,SW8007*%
X160650000Y-120523000D03*
X160650000Y-123063000D03*
X160650000Y-125603000D03*
X169550000Y-125603000D03*
X169550000Y-123063000D03*
X169550000Y-120523000D03*
%TD*%
D24*
%TO.C,Q8005*%
X195580000Y-108326000D03*
X195580000Y-106426000D03*
X193705000Y-107376000D03*
%TD*%
D18*
%TO.C,U7003*%
X143419000Y-113152000D03*
X143419000Y-114422000D03*
X143419000Y-115692000D03*
X143419000Y-116962000D03*
X148369000Y-116962000D03*
X148369000Y-115692000D03*
X148369000Y-114422000D03*
X148369000Y-113152000D03*
%TD*%
D33*
%TO.C,U6002*%
X114849000Y-84244000D03*
X117249000Y-84244000D03*
X117249000Y-82344000D03*
X114849000Y-82344000D03*
%TD*%
D13*
%TO.C,R2017*%
X93316000Y-88514000D03*
X94966000Y-88514000D03*
%TD*%
D14*
%TO.C,C6004*%
X112690000Y-82344000D03*
X111140000Y-82344000D03*
%TD*%
D17*
%TO.C,C7010*%
X150609000Y-74930000D03*
X152159000Y-74930000D03*
%TD*%
D26*
%TO.C,U5002*%
X115160000Y-124709000D03*
X116610000Y-124709000D03*
X118060000Y-124709000D03*
X115160000Y-123259000D03*
X116610000Y-123259000D03*
X118060000Y-123259000D03*
X115160000Y-121809000D03*
X116610000Y-121809000D03*
X118060000Y-121809000D03*
D27*
X112860000Y-127709000D03*
X113360000Y-127709000D03*
X113860000Y-127709000D03*
X114360000Y-127709000D03*
X114860000Y-127709000D03*
X115360000Y-127709000D03*
X115860000Y-127709000D03*
X116360000Y-127709000D03*
X116860000Y-127709000D03*
X117360000Y-127709000D03*
X117860000Y-127709000D03*
X118360000Y-127709000D03*
X118860000Y-127709000D03*
X119360000Y-127709000D03*
X119860000Y-127709000D03*
X120360000Y-127709000D03*
D28*
X121060000Y-127009000D03*
X121060000Y-126509000D03*
X121060000Y-126009000D03*
X121060000Y-125509000D03*
X121060000Y-125009000D03*
X121060000Y-124509000D03*
X121060000Y-124009000D03*
X121060000Y-123509000D03*
X121060000Y-123009000D03*
X121060000Y-122509000D03*
X121060000Y-122009000D03*
X121060000Y-121509000D03*
X121060000Y-121009000D03*
X121060000Y-120509000D03*
X121060000Y-120009000D03*
X121060000Y-119509000D03*
D27*
X120360000Y-118809000D03*
X119860000Y-118809000D03*
X119360000Y-118809000D03*
X118860000Y-118809000D03*
X118360000Y-118809000D03*
X117860000Y-118809000D03*
X117360000Y-118809000D03*
X116860000Y-118809000D03*
X116360000Y-118809000D03*
X115860000Y-118809000D03*
X115360000Y-118809000D03*
X114860000Y-118809000D03*
X114360000Y-118809000D03*
X113860000Y-118809000D03*
X113360000Y-118809000D03*
X112860000Y-118809000D03*
D28*
X112160000Y-119509000D03*
X112160000Y-120009000D03*
X112160000Y-120509000D03*
X112160000Y-121009000D03*
X112160000Y-121509000D03*
X112160000Y-122009000D03*
X112160000Y-122509000D03*
X112160000Y-123009000D03*
X112160000Y-123509000D03*
X112160000Y-124009000D03*
X112160000Y-124509000D03*
X112160000Y-125009000D03*
X112160000Y-125509000D03*
X112160000Y-126009000D03*
X112160000Y-126509000D03*
X112160000Y-127009000D03*
%TD*%
D20*
%TO.C,R5004*%
X102766000Y-128759000D03*
X101116000Y-128759000D03*
%TD*%
D12*
%TO.C,C6007*%
X121584000Y-81823000D03*
X121584000Y-83373000D03*
%TD*%
D14*
%TO.C,C7006*%
X141094000Y-82164000D03*
X139544000Y-82164000D03*
%TD*%
D16*
%TO.C,R8025*%
X212598000Y-121494000D03*
X212598000Y-119844000D03*
%TD*%
%TO.C,R5005*%
X104746000Y-126116000D03*
X104746000Y-124466000D03*
%TD*%
D20*
%TO.C,R8028*%
X196722000Y-66040000D03*
X195072000Y-66040000D03*
%TD*%
D16*
%TO.C,R8018*%
X202438000Y-93535000D03*
X202438000Y-91885000D03*
%TD*%
D15*
%TO.C,R6005*%
X125066000Y-81773000D03*
X125066000Y-83423000D03*
%TD*%
D16*
%TO.C,R8033*%
X193294000Y-128841000D03*
X193294000Y-127191000D03*
%TD*%
%TO.C,R8032*%
X193294000Y-100710000D03*
X193294000Y-99060000D03*
%TD*%
%TO.C,R2009*%
X114162000Y-95125000D03*
X114162000Y-93475000D03*
%TD*%
D17*
%TO.C,C2011*%
X96338000Y-85466000D03*
X97888000Y-85466000D03*
%TD*%
D23*
%TO.C,SW8005*%
X160650000Y-98933000D03*
X160650000Y-101473000D03*
X160650000Y-104013000D03*
X169550000Y-104013000D03*
X169550000Y-101473000D03*
X169550000Y-98933000D03*
%TD*%
D16*
%TO.C,R8024*%
X202438000Y-121494000D03*
X202438000Y-119844000D03*
%TD*%
D15*
%TO.C,R2002*%
X117464000Y-94237000D03*
X117464000Y-95887000D03*
%TD*%
D14*
%TO.C,C7008*%
X141081000Y-67940000D03*
X139531000Y-67940000D03*
%TD*%
D17*
%TO.C,C7012*%
X150609000Y-88900000D03*
X152159000Y-88900000D03*
%TD*%
D13*
%TO.C,R7014*%
X150559000Y-85090000D03*
X152209000Y-85090000D03*
%TD*%
D16*
%TO.C,R8014*%
X222758000Y-135464000D03*
X222758000Y-133814000D03*
%TD*%
D13*
%TO.C,R7003*%
X150559000Y-114808000D03*
X152209000Y-114808000D03*
%TD*%
D16*
%TO.C,R2008*%
X104510000Y-104840000D03*
X104510000Y-103190000D03*
%TD*%
D14*
%TO.C,C7001*%
X141348000Y-133726000D03*
X139798000Y-133726000D03*
%TD*%
D23*
%TO.C,SW8001*%
X160650000Y-66548000D03*
X160650000Y-69088000D03*
X160650000Y-71628000D03*
X169550000Y-71628000D03*
X169550000Y-69088000D03*
X169550000Y-66548000D03*
%TD*%
D12*
%TO.C,C2008*%
X115940000Y-105209000D03*
X115940000Y-106759000D03*
%TD*%
D16*
%TO.C,R8001*%
X204978000Y-79565000D03*
X204978000Y-77915000D03*
%TD*%
D36*
%TO.C,U2001*%
X113685999Y-103215400D03*
X114186000Y-103215400D03*
X114685999Y-103215400D03*
X115186001Y-103215400D03*
X115686000Y-103215400D03*
X116185999Y-103215400D03*
X116686001Y-103215400D03*
X117186000Y-103215400D03*
X117686001Y-103215400D03*
D37*
X118505400Y-102396001D03*
X118505400Y-101896000D03*
X118505400Y-101396001D03*
X118505400Y-100895999D03*
X118505400Y-100396000D03*
X118505400Y-99896001D03*
X118505400Y-99395999D03*
X118505400Y-98896000D03*
X118505400Y-98395999D03*
D36*
X117686001Y-97576600D03*
X117186000Y-97576600D03*
X116686001Y-97576600D03*
X116185999Y-97576600D03*
X115686000Y-97576600D03*
X115186001Y-97576600D03*
X114685999Y-97576600D03*
X114186000Y-97576600D03*
X113685999Y-97576600D03*
D37*
X112866600Y-98395999D03*
X112866600Y-98896000D03*
X112866600Y-99395999D03*
X112866600Y-99896001D03*
X112866600Y-100396000D03*
X112866600Y-100895999D03*
X112866600Y-101396001D03*
X112866600Y-101896000D03*
X112866600Y-102396001D03*
D38*
X115686000Y-100396000D03*
%TD*%
D29*
%TO.C,D8004*%
X193268500Y-82296000D03*
X193268500Y-83871000D03*
%TD*%
D12*
%TO.C,C5012*%
X114553000Y-129342000D03*
X114553000Y-130892000D03*
%TD*%
D39*
%TO.C,Q8001*%
X191274500Y-66052500D03*
X189374500Y-66052500D03*
X190324500Y-67927500D03*
%TD*%
D17*
%TO.C,C5008*%
X122668000Y-119957000D03*
X124218000Y-119957000D03*
%TD*%
D22*
%TO.C,C5005*%
X115823000Y-117176000D03*
X115823000Y-115626000D03*
%TD*%
D14*
%TO.C,C6005*%
X115681000Y-80439000D03*
X114131000Y-80439000D03*
%TD*%
D16*
%TO.C,R2012*%
X110860000Y-94871000D03*
X110860000Y-93221000D03*
%TD*%
D14*
%TO.C,C5003*%
X108096000Y-129775000D03*
X106546000Y-129775000D03*
%TD*%
D22*
%TO.C,C2004*%
X109336000Y-94821000D03*
X109336000Y-93271000D03*
%TD*%
D25*
%TO.C,U6001*%
X106899500Y-78468000D03*
X106899500Y-77518000D03*
X106899500Y-76568000D03*
X104624500Y-76568000D03*
X104624500Y-77518000D03*
X104624500Y-78468000D03*
%TD*%
%TO.C,U2003*%
X99279500Y-88956000D03*
X99279500Y-88006000D03*
X99279500Y-87056000D03*
X97004500Y-87056000D03*
X97004500Y-88006000D03*
X97004500Y-88956000D03*
%TD*%
D12*
%TO.C,C6003*%
X123415000Y-81823000D03*
X123415000Y-83373000D03*
%TD*%
D16*
%TO.C,R8022*%
X212598000Y-107514500D03*
X212598000Y-105864500D03*
%TD*%
D29*
%TO.C,D8005*%
X193548000Y-110236000D03*
X193548000Y-111811000D03*
%TD*%
D15*
%TO.C,R6002*%
X112804000Y-84123000D03*
X112804000Y-85773000D03*
%TD*%
D16*
%TO.C,R8031*%
X193294000Y-72644000D03*
X193294000Y-70994000D03*
%TD*%
M02*
