%TF.GenerationSoftware,KiCad,Pcbnew,8.0.1*%
%TF.CreationDate,2024-09-10T07:56:54+02:00*%
%TF.ProjectId,CC_Debug,43435f44-6562-4756-972e-6b696361645f,rev?*%
%TF.SameCoordinates,Original*%
%TF.FileFunction,Legend,Top*%
%TF.FilePolarity,Positive*%
%FSLAX46Y46*%
G04 Gerber Fmt 4.6, Leading zero omitted, Abs format (unit mm)*
G04 Created by KiCad (PCBNEW 8.0.1) date 2024-09-10 07:56:54*
%MOMM*%
%LPD*%
G01*
G04 APERTURE LIST*
%ADD10C,0.200000*%
%ADD11C,0.125000*%
%ADD12C,0.150000*%
%ADD13C,0.120000*%
%ADD14C,0.127000*%
%ADD15C,0.100000*%
%ADD16C,0.152400*%
%ADD17C,0.000000*%
G04 APERTURE END LIST*
D10*
X101572816Y-138821219D02*
X101906149Y-139821219D01*
X101906149Y-139821219D02*
X102239482Y-138821219D01*
X102953768Y-139773600D02*
X102858530Y-139821219D01*
X102858530Y-139821219D02*
X102668054Y-139821219D01*
X102668054Y-139821219D02*
X102572816Y-139773600D01*
X102572816Y-139773600D02*
X102525197Y-139678361D01*
X102525197Y-139678361D02*
X102525197Y-139297409D01*
X102525197Y-139297409D02*
X102572816Y-139202171D01*
X102572816Y-139202171D02*
X102668054Y-139154552D01*
X102668054Y-139154552D02*
X102858530Y-139154552D01*
X102858530Y-139154552D02*
X102953768Y-139202171D01*
X102953768Y-139202171D02*
X103001387Y-139297409D01*
X103001387Y-139297409D02*
X103001387Y-139392647D01*
X103001387Y-139392647D02*
X102525197Y-139487885D01*
X103429959Y-139821219D02*
X103429959Y-139154552D01*
X103429959Y-139345028D02*
X103477578Y-139249790D01*
X103477578Y-139249790D02*
X103525197Y-139202171D01*
X103525197Y-139202171D02*
X103620435Y-139154552D01*
X103620435Y-139154552D02*
X103715673Y-139154552D01*
X104001388Y-139773600D02*
X104096626Y-139821219D01*
X104096626Y-139821219D02*
X104287102Y-139821219D01*
X104287102Y-139821219D02*
X104382340Y-139773600D01*
X104382340Y-139773600D02*
X104429959Y-139678361D01*
X104429959Y-139678361D02*
X104429959Y-139630742D01*
X104429959Y-139630742D02*
X104382340Y-139535504D01*
X104382340Y-139535504D02*
X104287102Y-139487885D01*
X104287102Y-139487885D02*
X104144245Y-139487885D01*
X104144245Y-139487885D02*
X104049007Y-139440266D01*
X104049007Y-139440266D02*
X104001388Y-139345028D01*
X104001388Y-139345028D02*
X104001388Y-139297409D01*
X104001388Y-139297409D02*
X104049007Y-139202171D01*
X104049007Y-139202171D02*
X104144245Y-139154552D01*
X104144245Y-139154552D02*
X104287102Y-139154552D01*
X104287102Y-139154552D02*
X104382340Y-139202171D01*
X104858531Y-139821219D02*
X104858531Y-139154552D01*
X104858531Y-138821219D02*
X104810912Y-138868838D01*
X104810912Y-138868838D02*
X104858531Y-138916457D01*
X104858531Y-138916457D02*
X104906150Y-138868838D01*
X104906150Y-138868838D02*
X104858531Y-138821219D01*
X104858531Y-138821219D02*
X104858531Y-138916457D01*
X105477578Y-139821219D02*
X105382340Y-139773600D01*
X105382340Y-139773600D02*
X105334721Y-139725980D01*
X105334721Y-139725980D02*
X105287102Y-139630742D01*
X105287102Y-139630742D02*
X105287102Y-139345028D01*
X105287102Y-139345028D02*
X105334721Y-139249790D01*
X105334721Y-139249790D02*
X105382340Y-139202171D01*
X105382340Y-139202171D02*
X105477578Y-139154552D01*
X105477578Y-139154552D02*
X105620435Y-139154552D01*
X105620435Y-139154552D02*
X105715673Y-139202171D01*
X105715673Y-139202171D02*
X105763292Y-139249790D01*
X105763292Y-139249790D02*
X105810911Y-139345028D01*
X105810911Y-139345028D02*
X105810911Y-139630742D01*
X105810911Y-139630742D02*
X105763292Y-139725980D01*
X105763292Y-139725980D02*
X105715673Y-139773600D01*
X105715673Y-139773600D02*
X105620435Y-139821219D01*
X105620435Y-139821219D02*
X105477578Y-139821219D01*
X106239483Y-139154552D02*
X106239483Y-139821219D01*
X106239483Y-139249790D02*
X106287102Y-139202171D01*
X106287102Y-139202171D02*
X106382340Y-139154552D01*
X106382340Y-139154552D02*
X106525197Y-139154552D01*
X106525197Y-139154552D02*
X106620435Y-139202171D01*
X106620435Y-139202171D02*
X106668054Y-139297409D01*
X106668054Y-139297409D02*
X106668054Y-139821219D01*
X108096626Y-138821219D02*
X108191864Y-138821219D01*
X108191864Y-138821219D02*
X108287102Y-138868838D01*
X108287102Y-138868838D02*
X108334721Y-138916457D01*
X108334721Y-138916457D02*
X108382340Y-139011695D01*
X108382340Y-139011695D02*
X108429959Y-139202171D01*
X108429959Y-139202171D02*
X108429959Y-139440266D01*
X108429959Y-139440266D02*
X108382340Y-139630742D01*
X108382340Y-139630742D02*
X108334721Y-139725980D01*
X108334721Y-139725980D02*
X108287102Y-139773600D01*
X108287102Y-139773600D02*
X108191864Y-139821219D01*
X108191864Y-139821219D02*
X108096626Y-139821219D01*
X108096626Y-139821219D02*
X108001388Y-139773600D01*
X108001388Y-139773600D02*
X107953769Y-139725980D01*
X107953769Y-139725980D02*
X107906150Y-139630742D01*
X107906150Y-139630742D02*
X107858531Y-139440266D01*
X107858531Y-139440266D02*
X107858531Y-139202171D01*
X107858531Y-139202171D02*
X107906150Y-139011695D01*
X107906150Y-139011695D02*
X107953769Y-138916457D01*
X107953769Y-138916457D02*
X108001388Y-138868838D01*
X108001388Y-138868838D02*
X108096626Y-138821219D01*
X108858531Y-139725980D02*
X108906150Y-139773600D01*
X108906150Y-139773600D02*
X108858531Y-139821219D01*
X108858531Y-139821219D02*
X108810912Y-139773600D01*
X108810912Y-139773600D02*
X108858531Y-139725980D01*
X108858531Y-139725980D02*
X108858531Y-139821219D01*
X109858530Y-139821219D02*
X109287102Y-139821219D01*
X109572816Y-139821219D02*
X109572816Y-138821219D01*
X109572816Y-138821219D02*
X109477578Y-138964076D01*
X109477578Y-138964076D02*
X109382340Y-139059314D01*
X109382340Y-139059314D02*
X109287102Y-139106933D01*
X126980720Y-85420364D02*
X126980720Y-86634650D01*
X126980720Y-86634650D02*
X127052149Y-86777507D01*
X127052149Y-86777507D02*
X127123578Y-86848936D01*
X127123578Y-86848936D02*
X127266435Y-86920364D01*
X127266435Y-86920364D02*
X127552149Y-86920364D01*
X127552149Y-86920364D02*
X127695006Y-86848936D01*
X127695006Y-86848936D02*
X127766435Y-86777507D01*
X127766435Y-86777507D02*
X127837863Y-86634650D01*
X127837863Y-86634650D02*
X127837863Y-85420364D01*
X128480721Y-86848936D02*
X128695007Y-86920364D01*
X128695007Y-86920364D02*
X129052149Y-86920364D01*
X129052149Y-86920364D02*
X129195007Y-86848936D01*
X129195007Y-86848936D02*
X129266435Y-86777507D01*
X129266435Y-86777507D02*
X129337864Y-86634650D01*
X129337864Y-86634650D02*
X129337864Y-86491793D01*
X129337864Y-86491793D02*
X129266435Y-86348936D01*
X129266435Y-86348936D02*
X129195007Y-86277507D01*
X129195007Y-86277507D02*
X129052149Y-86206078D01*
X129052149Y-86206078D02*
X128766435Y-86134650D01*
X128766435Y-86134650D02*
X128623578Y-86063221D01*
X128623578Y-86063221D02*
X128552149Y-85991793D01*
X128552149Y-85991793D02*
X128480721Y-85848936D01*
X128480721Y-85848936D02*
X128480721Y-85706078D01*
X128480721Y-85706078D02*
X128552149Y-85563221D01*
X128552149Y-85563221D02*
X128623578Y-85491793D01*
X128623578Y-85491793D02*
X128766435Y-85420364D01*
X128766435Y-85420364D02*
X129123578Y-85420364D01*
X129123578Y-85420364D02*
X129337864Y-85491793D01*
X130480720Y-86134650D02*
X130695006Y-86206078D01*
X130695006Y-86206078D02*
X130766435Y-86277507D01*
X130766435Y-86277507D02*
X130837863Y-86420364D01*
X130837863Y-86420364D02*
X130837863Y-86634650D01*
X130837863Y-86634650D02*
X130766435Y-86777507D01*
X130766435Y-86777507D02*
X130695006Y-86848936D01*
X130695006Y-86848936D02*
X130552149Y-86920364D01*
X130552149Y-86920364D02*
X129980720Y-86920364D01*
X129980720Y-86920364D02*
X129980720Y-85420364D01*
X129980720Y-85420364D02*
X130480720Y-85420364D01*
X130480720Y-85420364D02*
X130623578Y-85491793D01*
X130623578Y-85491793D02*
X130695006Y-85563221D01*
X130695006Y-85563221D02*
X130766435Y-85706078D01*
X130766435Y-85706078D02*
X130766435Y-85848936D01*
X130766435Y-85848936D02*
X130695006Y-85991793D01*
X130695006Y-85991793D02*
X130623578Y-86063221D01*
X130623578Y-86063221D02*
X130480720Y-86134650D01*
X130480720Y-86134650D02*
X129980720Y-86134650D01*
X133123577Y-86134650D02*
X133337863Y-86206078D01*
X133337863Y-86206078D02*
X133409292Y-86277507D01*
X133409292Y-86277507D02*
X133480720Y-86420364D01*
X133480720Y-86420364D02*
X133480720Y-86634650D01*
X133480720Y-86634650D02*
X133409292Y-86777507D01*
X133409292Y-86777507D02*
X133337863Y-86848936D01*
X133337863Y-86848936D02*
X133195006Y-86920364D01*
X133195006Y-86920364D02*
X132623577Y-86920364D01*
X132623577Y-86920364D02*
X132623577Y-85420364D01*
X132623577Y-85420364D02*
X133123577Y-85420364D01*
X133123577Y-85420364D02*
X133266435Y-85491793D01*
X133266435Y-85491793D02*
X133337863Y-85563221D01*
X133337863Y-85563221D02*
X133409292Y-85706078D01*
X133409292Y-85706078D02*
X133409292Y-85848936D01*
X133409292Y-85848936D02*
X133337863Y-85991793D01*
X133337863Y-85991793D02*
X133266435Y-86063221D01*
X133266435Y-86063221D02*
X133123577Y-86134650D01*
X133123577Y-86134650D02*
X132623577Y-86134650D01*
X127837863Y-89192423D02*
X127766435Y-89263852D01*
X127766435Y-89263852D02*
X127552149Y-89335280D01*
X127552149Y-89335280D02*
X127409292Y-89335280D01*
X127409292Y-89335280D02*
X127195006Y-89263852D01*
X127195006Y-89263852D02*
X127052149Y-89120994D01*
X127052149Y-89120994D02*
X126980720Y-88978137D01*
X126980720Y-88978137D02*
X126909292Y-88692423D01*
X126909292Y-88692423D02*
X126909292Y-88478137D01*
X126909292Y-88478137D02*
X126980720Y-88192423D01*
X126980720Y-88192423D02*
X127052149Y-88049566D01*
X127052149Y-88049566D02*
X127195006Y-87906709D01*
X127195006Y-87906709D02*
X127409292Y-87835280D01*
X127409292Y-87835280D02*
X127552149Y-87835280D01*
X127552149Y-87835280D02*
X127766435Y-87906709D01*
X127766435Y-87906709D02*
X127837863Y-87978137D01*
X128480720Y-89335280D02*
X128480720Y-87835280D01*
X128480720Y-88549566D02*
X129337863Y-88549566D01*
X129337863Y-89335280D02*
X129337863Y-87835280D01*
X131123578Y-88906709D02*
X131837864Y-88906709D01*
X130980721Y-89335280D02*
X131480721Y-87835280D01*
X131480721Y-87835280D02*
X131980721Y-89335280D01*
X132480720Y-89192423D02*
X132552149Y-89263852D01*
X132552149Y-89263852D02*
X132480720Y-89335280D01*
X132480720Y-89335280D02*
X132409292Y-89263852D01*
X132409292Y-89263852D02*
X132480720Y-89192423D01*
X132480720Y-89192423D02*
X132480720Y-89335280D01*
X132480720Y-88406709D02*
X132552149Y-88478137D01*
X132552149Y-88478137D02*
X132480720Y-88549566D01*
X132480720Y-88549566D02*
X132409292Y-88478137D01*
X132409292Y-88478137D02*
X132480720Y-88406709D01*
X132480720Y-88406709D02*
X132480720Y-88549566D01*
X133195006Y-89335280D02*
X133195006Y-87835280D01*
X133837864Y-87978137D02*
X133909292Y-87906709D01*
X133909292Y-87906709D02*
X134052150Y-87835280D01*
X134052150Y-87835280D02*
X134409292Y-87835280D01*
X134409292Y-87835280D02*
X134552150Y-87906709D01*
X134552150Y-87906709D02*
X134623578Y-87978137D01*
X134623578Y-87978137D02*
X134695007Y-88120994D01*
X134695007Y-88120994D02*
X134695007Y-88263852D01*
X134695007Y-88263852D02*
X134623578Y-88478137D01*
X134623578Y-88478137D02*
X133766435Y-89335280D01*
X133766435Y-89335280D02*
X134695007Y-89335280D01*
X136195006Y-89192423D02*
X136123578Y-89263852D01*
X136123578Y-89263852D02*
X135909292Y-89335280D01*
X135909292Y-89335280D02*
X135766435Y-89335280D01*
X135766435Y-89335280D02*
X135552149Y-89263852D01*
X135552149Y-89263852D02*
X135409292Y-89120994D01*
X135409292Y-89120994D02*
X135337863Y-88978137D01*
X135337863Y-88978137D02*
X135266435Y-88692423D01*
X135266435Y-88692423D02*
X135266435Y-88478137D01*
X135266435Y-88478137D02*
X135337863Y-88192423D01*
X135337863Y-88192423D02*
X135409292Y-88049566D01*
X135409292Y-88049566D02*
X135552149Y-87906709D01*
X135552149Y-87906709D02*
X135766435Y-87835280D01*
X135766435Y-87835280D02*
X135909292Y-87835280D01*
X135909292Y-87835280D02*
X136123578Y-87906709D01*
X136123578Y-87906709D02*
X136195006Y-87978137D01*
X127837863Y-91607339D02*
X127766435Y-91678768D01*
X127766435Y-91678768D02*
X127552149Y-91750196D01*
X127552149Y-91750196D02*
X127409292Y-91750196D01*
X127409292Y-91750196D02*
X127195006Y-91678768D01*
X127195006Y-91678768D02*
X127052149Y-91535910D01*
X127052149Y-91535910D02*
X126980720Y-91393053D01*
X126980720Y-91393053D02*
X126909292Y-91107339D01*
X126909292Y-91107339D02*
X126909292Y-90893053D01*
X126909292Y-90893053D02*
X126980720Y-90607339D01*
X126980720Y-90607339D02*
X127052149Y-90464482D01*
X127052149Y-90464482D02*
X127195006Y-90321625D01*
X127195006Y-90321625D02*
X127409292Y-90250196D01*
X127409292Y-90250196D02*
X127552149Y-90250196D01*
X127552149Y-90250196D02*
X127766435Y-90321625D01*
X127766435Y-90321625D02*
X127837863Y-90393053D01*
X128480720Y-91750196D02*
X128480720Y-90250196D01*
X128480720Y-90964482D02*
X129337863Y-90964482D01*
X129337863Y-91750196D02*
X129337863Y-90250196D01*
X131695006Y-90964482D02*
X131909292Y-91035910D01*
X131909292Y-91035910D02*
X131980721Y-91107339D01*
X131980721Y-91107339D02*
X132052149Y-91250196D01*
X132052149Y-91250196D02*
X132052149Y-91464482D01*
X132052149Y-91464482D02*
X131980721Y-91607339D01*
X131980721Y-91607339D02*
X131909292Y-91678768D01*
X131909292Y-91678768D02*
X131766435Y-91750196D01*
X131766435Y-91750196D02*
X131195006Y-91750196D01*
X131195006Y-91750196D02*
X131195006Y-90250196D01*
X131195006Y-90250196D02*
X131695006Y-90250196D01*
X131695006Y-90250196D02*
X131837864Y-90321625D01*
X131837864Y-90321625D02*
X131909292Y-90393053D01*
X131909292Y-90393053D02*
X131980721Y-90535910D01*
X131980721Y-90535910D02*
X131980721Y-90678768D01*
X131980721Y-90678768D02*
X131909292Y-90821625D01*
X131909292Y-90821625D02*
X131837864Y-90893053D01*
X131837864Y-90893053D02*
X131695006Y-90964482D01*
X131695006Y-90964482D02*
X131195006Y-90964482D01*
X132695006Y-91607339D02*
X132766435Y-91678768D01*
X132766435Y-91678768D02*
X132695006Y-91750196D01*
X132695006Y-91750196D02*
X132623578Y-91678768D01*
X132623578Y-91678768D02*
X132695006Y-91607339D01*
X132695006Y-91607339D02*
X132695006Y-91750196D01*
X132695006Y-90821625D02*
X132766435Y-90893053D01*
X132766435Y-90893053D02*
X132695006Y-90964482D01*
X132695006Y-90964482D02*
X132623578Y-90893053D01*
X132623578Y-90893053D02*
X132695006Y-90821625D01*
X132695006Y-90821625D02*
X132695006Y-90964482D01*
X133409292Y-91750196D02*
X133409292Y-90250196D01*
X134052150Y-90393053D02*
X134123578Y-90321625D01*
X134123578Y-90321625D02*
X134266436Y-90250196D01*
X134266436Y-90250196D02*
X134623578Y-90250196D01*
X134623578Y-90250196D02*
X134766436Y-90321625D01*
X134766436Y-90321625D02*
X134837864Y-90393053D01*
X134837864Y-90393053D02*
X134909293Y-90535910D01*
X134909293Y-90535910D02*
X134909293Y-90678768D01*
X134909293Y-90678768D02*
X134837864Y-90893053D01*
X134837864Y-90893053D02*
X133980721Y-91750196D01*
X133980721Y-91750196D02*
X134909293Y-91750196D01*
X136409292Y-91607339D02*
X136337864Y-91678768D01*
X136337864Y-91678768D02*
X136123578Y-91750196D01*
X136123578Y-91750196D02*
X135980721Y-91750196D01*
X135980721Y-91750196D02*
X135766435Y-91678768D01*
X135766435Y-91678768D02*
X135623578Y-91535910D01*
X135623578Y-91535910D02*
X135552149Y-91393053D01*
X135552149Y-91393053D02*
X135480721Y-91107339D01*
X135480721Y-91107339D02*
X135480721Y-90893053D01*
X135480721Y-90893053D02*
X135552149Y-90607339D01*
X135552149Y-90607339D02*
X135623578Y-90464482D01*
X135623578Y-90464482D02*
X135766435Y-90321625D01*
X135766435Y-90321625D02*
X135980721Y-90250196D01*
X135980721Y-90250196D02*
X136123578Y-90250196D01*
X136123578Y-90250196D02*
X136337864Y-90321625D01*
X136337864Y-90321625D02*
X136409292Y-90393053D01*
X127837863Y-94022255D02*
X127766435Y-94093684D01*
X127766435Y-94093684D02*
X127552149Y-94165112D01*
X127552149Y-94165112D02*
X127409292Y-94165112D01*
X127409292Y-94165112D02*
X127195006Y-94093684D01*
X127195006Y-94093684D02*
X127052149Y-93950826D01*
X127052149Y-93950826D02*
X126980720Y-93807969D01*
X126980720Y-93807969D02*
X126909292Y-93522255D01*
X126909292Y-93522255D02*
X126909292Y-93307969D01*
X126909292Y-93307969D02*
X126980720Y-93022255D01*
X126980720Y-93022255D02*
X127052149Y-92879398D01*
X127052149Y-92879398D02*
X127195006Y-92736541D01*
X127195006Y-92736541D02*
X127409292Y-92665112D01*
X127409292Y-92665112D02*
X127552149Y-92665112D01*
X127552149Y-92665112D02*
X127766435Y-92736541D01*
X127766435Y-92736541D02*
X127837863Y-92807969D01*
X128480720Y-94165112D02*
X128480720Y-92665112D01*
X128480720Y-93379398D02*
X129337863Y-93379398D01*
X129337863Y-94165112D02*
X129337863Y-92665112D01*
X132052149Y-94022255D02*
X131980721Y-94093684D01*
X131980721Y-94093684D02*
X131766435Y-94165112D01*
X131766435Y-94165112D02*
X131623578Y-94165112D01*
X131623578Y-94165112D02*
X131409292Y-94093684D01*
X131409292Y-94093684D02*
X131266435Y-93950826D01*
X131266435Y-93950826D02*
X131195006Y-93807969D01*
X131195006Y-93807969D02*
X131123578Y-93522255D01*
X131123578Y-93522255D02*
X131123578Y-93307969D01*
X131123578Y-93307969D02*
X131195006Y-93022255D01*
X131195006Y-93022255D02*
X131266435Y-92879398D01*
X131266435Y-92879398D02*
X131409292Y-92736541D01*
X131409292Y-92736541D02*
X131623578Y-92665112D01*
X131623578Y-92665112D02*
X131766435Y-92665112D01*
X131766435Y-92665112D02*
X131980721Y-92736541D01*
X131980721Y-92736541D02*
X132052149Y-92807969D01*
X132695006Y-94022255D02*
X132766435Y-94093684D01*
X132766435Y-94093684D02*
X132695006Y-94165112D01*
X132695006Y-94165112D02*
X132623578Y-94093684D01*
X132623578Y-94093684D02*
X132695006Y-94022255D01*
X132695006Y-94022255D02*
X132695006Y-94165112D01*
X132695006Y-93236541D02*
X132766435Y-93307969D01*
X132766435Y-93307969D02*
X132695006Y-93379398D01*
X132695006Y-93379398D02*
X132623578Y-93307969D01*
X132623578Y-93307969D02*
X132695006Y-93236541D01*
X132695006Y-93236541D02*
X132695006Y-93379398D01*
X133409292Y-92665112D02*
X133409292Y-93879398D01*
X133409292Y-93879398D02*
X133480721Y-94022255D01*
X133480721Y-94022255D02*
X133552150Y-94093684D01*
X133552150Y-94093684D02*
X133695007Y-94165112D01*
X133695007Y-94165112D02*
X133980721Y-94165112D01*
X133980721Y-94165112D02*
X134123578Y-94093684D01*
X134123578Y-94093684D02*
X134195007Y-94022255D01*
X134195007Y-94022255D02*
X134266435Y-93879398D01*
X134266435Y-93879398D02*
X134266435Y-92665112D01*
X134909293Y-93736541D02*
X135623579Y-93736541D01*
X134766436Y-94165112D02*
X135266436Y-92665112D01*
X135266436Y-92665112D02*
X135766436Y-94165112D01*
X137123578Y-94165112D02*
X136623578Y-93450826D01*
X136266435Y-94165112D02*
X136266435Y-92665112D01*
X136266435Y-92665112D02*
X136837864Y-92665112D01*
X136837864Y-92665112D02*
X136980721Y-92736541D01*
X136980721Y-92736541D02*
X137052150Y-92807969D01*
X137052150Y-92807969D02*
X137123578Y-92950826D01*
X137123578Y-92950826D02*
X137123578Y-93165112D01*
X137123578Y-93165112D02*
X137052150Y-93307969D01*
X137052150Y-93307969D02*
X136980721Y-93379398D01*
X136980721Y-93379398D02*
X136837864Y-93450826D01*
X136837864Y-93450826D02*
X136266435Y-93450826D01*
X137552150Y-92665112D02*
X138409293Y-92665112D01*
X137980721Y-94165112D02*
X137980721Y-92665112D01*
X140552149Y-93379398D02*
X140052149Y-93379398D01*
X140052149Y-94165112D02*
X140052149Y-92665112D01*
X140052149Y-92665112D02*
X140766435Y-92665112D01*
X127837863Y-96437171D02*
X127766435Y-96508600D01*
X127766435Y-96508600D02*
X127552149Y-96580028D01*
X127552149Y-96580028D02*
X127409292Y-96580028D01*
X127409292Y-96580028D02*
X127195006Y-96508600D01*
X127195006Y-96508600D02*
X127052149Y-96365742D01*
X127052149Y-96365742D02*
X126980720Y-96222885D01*
X126980720Y-96222885D02*
X126909292Y-95937171D01*
X126909292Y-95937171D02*
X126909292Y-95722885D01*
X126909292Y-95722885D02*
X126980720Y-95437171D01*
X126980720Y-95437171D02*
X127052149Y-95294314D01*
X127052149Y-95294314D02*
X127195006Y-95151457D01*
X127195006Y-95151457D02*
X127409292Y-95080028D01*
X127409292Y-95080028D02*
X127552149Y-95080028D01*
X127552149Y-95080028D02*
X127766435Y-95151457D01*
X127766435Y-95151457D02*
X127837863Y-95222885D01*
X128480720Y-96580028D02*
X128480720Y-95080028D01*
X128480720Y-95794314D02*
X129337863Y-95794314D01*
X129337863Y-96580028D02*
X129337863Y-95080028D01*
X131195006Y-96580028D02*
X131195006Y-95080028D01*
X131195006Y-95080028D02*
X131552149Y-95080028D01*
X131552149Y-95080028D02*
X131766435Y-95151457D01*
X131766435Y-95151457D02*
X131909292Y-95294314D01*
X131909292Y-95294314D02*
X131980721Y-95437171D01*
X131980721Y-95437171D02*
X132052149Y-95722885D01*
X132052149Y-95722885D02*
X132052149Y-95937171D01*
X132052149Y-95937171D02*
X131980721Y-96222885D01*
X131980721Y-96222885D02*
X131909292Y-96365742D01*
X131909292Y-96365742D02*
X131766435Y-96508600D01*
X131766435Y-96508600D02*
X131552149Y-96580028D01*
X131552149Y-96580028D02*
X131195006Y-96580028D01*
X132695006Y-96437171D02*
X132766435Y-96508600D01*
X132766435Y-96508600D02*
X132695006Y-96580028D01*
X132695006Y-96580028D02*
X132623578Y-96508600D01*
X132623578Y-96508600D02*
X132695006Y-96437171D01*
X132695006Y-96437171D02*
X132695006Y-96580028D01*
X132695006Y-95651457D02*
X132766435Y-95722885D01*
X132766435Y-95722885D02*
X132695006Y-95794314D01*
X132695006Y-95794314D02*
X132623578Y-95722885D01*
X132623578Y-95722885D02*
X132695006Y-95651457D01*
X132695006Y-95651457D02*
X132695006Y-95794314D01*
X133409292Y-95080028D02*
X133409292Y-96294314D01*
X133409292Y-96294314D02*
X133480721Y-96437171D01*
X133480721Y-96437171D02*
X133552150Y-96508600D01*
X133552150Y-96508600D02*
X133695007Y-96580028D01*
X133695007Y-96580028D02*
X133980721Y-96580028D01*
X133980721Y-96580028D02*
X134123578Y-96508600D01*
X134123578Y-96508600D02*
X134195007Y-96437171D01*
X134195007Y-96437171D02*
X134266435Y-96294314D01*
X134266435Y-96294314D02*
X134266435Y-95080028D01*
X134909293Y-96151457D02*
X135623579Y-96151457D01*
X134766436Y-96580028D02*
X135266436Y-95080028D01*
X135266436Y-95080028D02*
X135766436Y-96580028D01*
X137123578Y-96580028D02*
X136623578Y-95865742D01*
X136266435Y-96580028D02*
X136266435Y-95080028D01*
X136266435Y-95080028D02*
X136837864Y-95080028D01*
X136837864Y-95080028D02*
X136980721Y-95151457D01*
X136980721Y-95151457D02*
X137052150Y-95222885D01*
X137052150Y-95222885D02*
X137123578Y-95365742D01*
X137123578Y-95365742D02*
X137123578Y-95580028D01*
X137123578Y-95580028D02*
X137052150Y-95722885D01*
X137052150Y-95722885D02*
X136980721Y-95794314D01*
X136980721Y-95794314D02*
X136837864Y-95865742D01*
X136837864Y-95865742D02*
X136266435Y-95865742D01*
X137552150Y-95080028D02*
X138409293Y-95080028D01*
X137980721Y-96580028D02*
X137980721Y-95080028D01*
X140052149Y-95794314D02*
X140552149Y-95794314D01*
X140766435Y-96580028D02*
X140052149Y-96580028D01*
X140052149Y-96580028D02*
X140052149Y-95080028D01*
X140052149Y-95080028D02*
X140766435Y-95080028D01*
X106525768Y-66038838D02*
X106525768Y-64038838D01*
X106525768Y-64038838D02*
X107001958Y-64038838D01*
X107001958Y-64038838D02*
X107287673Y-64134076D01*
X107287673Y-64134076D02*
X107478149Y-64324552D01*
X107478149Y-64324552D02*
X107573387Y-64515028D01*
X107573387Y-64515028D02*
X107668625Y-64895980D01*
X107668625Y-64895980D02*
X107668625Y-65181695D01*
X107668625Y-65181695D02*
X107573387Y-65562647D01*
X107573387Y-65562647D02*
X107478149Y-65753123D01*
X107478149Y-65753123D02*
X107287673Y-65943600D01*
X107287673Y-65943600D02*
X107001958Y-66038838D01*
X107001958Y-66038838D02*
X106525768Y-66038838D01*
X108525768Y-64991219D02*
X109192435Y-64991219D01*
X109478149Y-66038838D02*
X108525768Y-66038838D01*
X108525768Y-66038838D02*
X108525768Y-64038838D01*
X108525768Y-64038838D02*
X109478149Y-64038838D01*
X111001959Y-64991219D02*
X111287673Y-65086457D01*
X111287673Y-65086457D02*
X111382911Y-65181695D01*
X111382911Y-65181695D02*
X111478149Y-65372171D01*
X111478149Y-65372171D02*
X111478149Y-65657885D01*
X111478149Y-65657885D02*
X111382911Y-65848361D01*
X111382911Y-65848361D02*
X111287673Y-65943600D01*
X111287673Y-65943600D02*
X111097197Y-66038838D01*
X111097197Y-66038838D02*
X110335292Y-66038838D01*
X110335292Y-66038838D02*
X110335292Y-64038838D01*
X110335292Y-64038838D02*
X111001959Y-64038838D01*
X111001959Y-64038838D02*
X111192435Y-64134076D01*
X111192435Y-64134076D02*
X111287673Y-64229314D01*
X111287673Y-64229314D02*
X111382911Y-64419790D01*
X111382911Y-64419790D02*
X111382911Y-64610266D01*
X111382911Y-64610266D02*
X111287673Y-64800742D01*
X111287673Y-64800742D02*
X111192435Y-64895980D01*
X111192435Y-64895980D02*
X111001959Y-64991219D01*
X111001959Y-64991219D02*
X110335292Y-64991219D01*
X112335292Y-64038838D02*
X112335292Y-65657885D01*
X112335292Y-65657885D02*
X112430530Y-65848361D01*
X112430530Y-65848361D02*
X112525768Y-65943600D01*
X112525768Y-65943600D02*
X112716244Y-66038838D01*
X112716244Y-66038838D02*
X113097197Y-66038838D01*
X113097197Y-66038838D02*
X113287673Y-65943600D01*
X113287673Y-65943600D02*
X113382911Y-65848361D01*
X113382911Y-65848361D02*
X113478149Y-65657885D01*
X113478149Y-65657885D02*
X113478149Y-64038838D01*
X115478149Y-64134076D02*
X115287673Y-64038838D01*
X115287673Y-64038838D02*
X115001959Y-64038838D01*
X115001959Y-64038838D02*
X114716244Y-64134076D01*
X114716244Y-64134076D02*
X114525768Y-64324552D01*
X114525768Y-64324552D02*
X114430530Y-64515028D01*
X114430530Y-64515028D02*
X114335292Y-64895980D01*
X114335292Y-64895980D02*
X114335292Y-65181695D01*
X114335292Y-65181695D02*
X114430530Y-65562647D01*
X114430530Y-65562647D02*
X114525768Y-65753123D01*
X114525768Y-65753123D02*
X114716244Y-65943600D01*
X114716244Y-65943600D02*
X115001959Y-66038838D01*
X115001959Y-66038838D02*
X115192435Y-66038838D01*
X115192435Y-66038838D02*
X115478149Y-65943600D01*
X115478149Y-65943600D02*
X115573387Y-65848361D01*
X115573387Y-65848361D02*
X115573387Y-65181695D01*
X115573387Y-65181695D02*
X115192435Y-65181695D01*
X117954340Y-66038838D02*
X117954340Y-64038838D01*
X117954340Y-64800742D02*
X118144816Y-64705504D01*
X118144816Y-64705504D02*
X118525769Y-64705504D01*
X118525769Y-64705504D02*
X118716245Y-64800742D01*
X118716245Y-64800742D02*
X118811483Y-64895980D01*
X118811483Y-64895980D02*
X118906721Y-65086457D01*
X118906721Y-65086457D02*
X118906721Y-65657885D01*
X118906721Y-65657885D02*
X118811483Y-65848361D01*
X118811483Y-65848361D02*
X118716245Y-65943600D01*
X118716245Y-65943600D02*
X118525769Y-66038838D01*
X118525769Y-66038838D02*
X118144816Y-66038838D01*
X118144816Y-66038838D02*
X117954340Y-65943600D01*
X120049578Y-66038838D02*
X119859102Y-65943600D01*
X119859102Y-65943600D02*
X119763864Y-65848361D01*
X119763864Y-65848361D02*
X119668626Y-65657885D01*
X119668626Y-65657885D02*
X119668626Y-65086457D01*
X119668626Y-65086457D02*
X119763864Y-64895980D01*
X119763864Y-64895980D02*
X119859102Y-64800742D01*
X119859102Y-64800742D02*
X120049578Y-64705504D01*
X120049578Y-64705504D02*
X120335293Y-64705504D01*
X120335293Y-64705504D02*
X120525769Y-64800742D01*
X120525769Y-64800742D02*
X120621007Y-64895980D01*
X120621007Y-64895980D02*
X120716245Y-65086457D01*
X120716245Y-65086457D02*
X120716245Y-65657885D01*
X120716245Y-65657885D02*
X120621007Y-65848361D01*
X120621007Y-65848361D02*
X120525769Y-65943600D01*
X120525769Y-65943600D02*
X120335293Y-66038838D01*
X120335293Y-66038838D02*
X120049578Y-66038838D01*
X122430531Y-66038838D02*
X122430531Y-64991219D01*
X122430531Y-64991219D02*
X122335293Y-64800742D01*
X122335293Y-64800742D02*
X122144817Y-64705504D01*
X122144817Y-64705504D02*
X121763864Y-64705504D01*
X121763864Y-64705504D02*
X121573388Y-64800742D01*
X122430531Y-65943600D02*
X122240055Y-66038838D01*
X122240055Y-66038838D02*
X121763864Y-66038838D01*
X121763864Y-66038838D02*
X121573388Y-65943600D01*
X121573388Y-65943600D02*
X121478150Y-65753123D01*
X121478150Y-65753123D02*
X121478150Y-65562647D01*
X121478150Y-65562647D02*
X121573388Y-65372171D01*
X121573388Y-65372171D02*
X121763864Y-65276933D01*
X121763864Y-65276933D02*
X122240055Y-65276933D01*
X122240055Y-65276933D02*
X122430531Y-65181695D01*
X123382912Y-66038838D02*
X123382912Y-64705504D01*
X123382912Y-65086457D02*
X123478150Y-64895980D01*
X123478150Y-64895980D02*
X123573388Y-64800742D01*
X123573388Y-64800742D02*
X123763864Y-64705504D01*
X123763864Y-64705504D02*
X123954341Y-64705504D01*
X125478150Y-66038838D02*
X125478150Y-64038838D01*
X125478150Y-65943600D02*
X125287674Y-66038838D01*
X125287674Y-66038838D02*
X124906721Y-66038838D01*
X124906721Y-66038838D02*
X124716245Y-65943600D01*
X124716245Y-65943600D02*
X124621007Y-65848361D01*
X124621007Y-65848361D02*
X124525769Y-65657885D01*
X124525769Y-65657885D02*
X124525769Y-65086457D01*
X124525769Y-65086457D02*
X124621007Y-64895980D01*
X124621007Y-64895980D02*
X124716245Y-64800742D01*
X124716245Y-64800742D02*
X124906721Y-64705504D01*
X124906721Y-64705504D02*
X125287674Y-64705504D01*
X125287674Y-64705504D02*
X125478150Y-64800742D01*
X127668627Y-64705504D02*
X128430531Y-64705504D01*
X127954341Y-66038838D02*
X127954341Y-64324552D01*
X127954341Y-64324552D02*
X128049579Y-64134076D01*
X128049579Y-64134076D02*
X128240055Y-64038838D01*
X128240055Y-64038838D02*
X128430531Y-64038838D01*
X129382912Y-66038838D02*
X129192436Y-65943600D01*
X129192436Y-65943600D02*
X129097198Y-65848361D01*
X129097198Y-65848361D02*
X129001960Y-65657885D01*
X129001960Y-65657885D02*
X129001960Y-65086457D01*
X129001960Y-65086457D02*
X129097198Y-64895980D01*
X129097198Y-64895980D02*
X129192436Y-64800742D01*
X129192436Y-64800742D02*
X129382912Y-64705504D01*
X129382912Y-64705504D02*
X129668627Y-64705504D01*
X129668627Y-64705504D02*
X129859103Y-64800742D01*
X129859103Y-64800742D02*
X129954341Y-64895980D01*
X129954341Y-64895980D02*
X130049579Y-65086457D01*
X130049579Y-65086457D02*
X130049579Y-65657885D01*
X130049579Y-65657885D02*
X129954341Y-65848361D01*
X129954341Y-65848361D02*
X129859103Y-65943600D01*
X129859103Y-65943600D02*
X129668627Y-66038838D01*
X129668627Y-66038838D02*
X129382912Y-66038838D01*
X130906722Y-66038838D02*
X130906722Y-64705504D01*
X130906722Y-65086457D02*
X131001960Y-64895980D01*
X131001960Y-64895980D02*
X131097198Y-64800742D01*
X131097198Y-64800742D02*
X131287674Y-64705504D01*
X131287674Y-64705504D02*
X131478151Y-64705504D01*
X134811484Y-65848361D02*
X134716246Y-65943600D01*
X134716246Y-65943600D02*
X134430532Y-66038838D01*
X134430532Y-66038838D02*
X134240056Y-66038838D01*
X134240056Y-66038838D02*
X133954341Y-65943600D01*
X133954341Y-65943600D02*
X133763865Y-65753123D01*
X133763865Y-65753123D02*
X133668627Y-65562647D01*
X133668627Y-65562647D02*
X133573389Y-65181695D01*
X133573389Y-65181695D02*
X133573389Y-64895980D01*
X133573389Y-64895980D02*
X133668627Y-64515028D01*
X133668627Y-64515028D02*
X133763865Y-64324552D01*
X133763865Y-64324552D02*
X133954341Y-64134076D01*
X133954341Y-64134076D02*
X134240056Y-64038838D01*
X134240056Y-64038838D02*
X134430532Y-64038838D01*
X134430532Y-64038838D02*
X134716246Y-64134076D01*
X134716246Y-64134076D02*
X134811484Y-64229314D01*
X136811484Y-65848361D02*
X136716246Y-65943600D01*
X136716246Y-65943600D02*
X136430532Y-66038838D01*
X136430532Y-66038838D02*
X136240056Y-66038838D01*
X136240056Y-66038838D02*
X135954341Y-65943600D01*
X135954341Y-65943600D02*
X135763865Y-65753123D01*
X135763865Y-65753123D02*
X135668627Y-65562647D01*
X135668627Y-65562647D02*
X135573389Y-65181695D01*
X135573389Y-65181695D02*
X135573389Y-64895980D01*
X135573389Y-64895980D02*
X135668627Y-64515028D01*
X135668627Y-64515028D02*
X135763865Y-64324552D01*
X135763865Y-64324552D02*
X135954341Y-64134076D01*
X135954341Y-64134076D02*
X136240056Y-64038838D01*
X136240056Y-64038838D02*
X136430532Y-64038838D01*
X136430532Y-64038838D02*
X136716246Y-64134076D01*
X136716246Y-64134076D02*
X136811484Y-64229314D01*
X228337673Y-124682331D02*
X228337673Y-123682331D01*
X228337673Y-123682331D02*
X228671006Y-124396616D01*
X228671006Y-124396616D02*
X229004339Y-123682331D01*
X229004339Y-123682331D02*
X229004339Y-124682331D01*
X230051958Y-124587092D02*
X230004339Y-124634712D01*
X230004339Y-124634712D02*
X229861482Y-124682331D01*
X229861482Y-124682331D02*
X229766244Y-124682331D01*
X229766244Y-124682331D02*
X229623387Y-124634712D01*
X229623387Y-124634712D02*
X229528149Y-124539473D01*
X229528149Y-124539473D02*
X229480530Y-124444235D01*
X229480530Y-124444235D02*
X229432911Y-124253759D01*
X229432911Y-124253759D02*
X229432911Y-124110902D01*
X229432911Y-124110902D02*
X229480530Y-123920426D01*
X229480530Y-123920426D02*
X229528149Y-123825188D01*
X229528149Y-123825188D02*
X229623387Y-123729950D01*
X229623387Y-123729950D02*
X229766244Y-123682331D01*
X229766244Y-123682331D02*
X229861482Y-123682331D01*
X229861482Y-123682331D02*
X230004339Y-123729950D01*
X230004339Y-123729950D02*
X230051958Y-123777569D01*
X230480530Y-123682331D02*
X230480530Y-124491854D01*
X230480530Y-124491854D02*
X230528149Y-124587092D01*
X230528149Y-124587092D02*
X230575768Y-124634712D01*
X230575768Y-124634712D02*
X230671006Y-124682331D01*
X230671006Y-124682331D02*
X230861482Y-124682331D01*
X230861482Y-124682331D02*
X230956720Y-124634712D01*
X230956720Y-124634712D02*
X231004339Y-124587092D01*
X231004339Y-124587092D02*
X231051958Y-124491854D01*
X231051958Y-124491854D02*
X231051958Y-123682331D01*
X232290054Y-124158521D02*
X232623387Y-124158521D01*
X232766244Y-124682331D02*
X232290054Y-124682331D01*
X232290054Y-124682331D02*
X232290054Y-123682331D01*
X232290054Y-123682331D02*
X232766244Y-123682331D01*
X228290054Y-126244656D02*
X228432911Y-126292275D01*
X228432911Y-126292275D02*
X228671006Y-126292275D01*
X228671006Y-126292275D02*
X228766244Y-126244656D01*
X228766244Y-126244656D02*
X228813863Y-126197036D01*
X228813863Y-126197036D02*
X228861482Y-126101798D01*
X228861482Y-126101798D02*
X228861482Y-126006560D01*
X228861482Y-126006560D02*
X228813863Y-125911322D01*
X228813863Y-125911322D02*
X228766244Y-125863703D01*
X228766244Y-125863703D02*
X228671006Y-125816084D01*
X228671006Y-125816084D02*
X228480530Y-125768465D01*
X228480530Y-125768465D02*
X228385292Y-125720846D01*
X228385292Y-125720846D02*
X228337673Y-125673227D01*
X228337673Y-125673227D02*
X228290054Y-125577989D01*
X228290054Y-125577989D02*
X228290054Y-125482751D01*
X228290054Y-125482751D02*
X228337673Y-125387513D01*
X228337673Y-125387513D02*
X228385292Y-125339894D01*
X228385292Y-125339894D02*
X228480530Y-125292275D01*
X228480530Y-125292275D02*
X228718625Y-125292275D01*
X228718625Y-125292275D02*
X228861482Y-125339894D01*
X229194816Y-125292275D02*
X229432911Y-126292275D01*
X229432911Y-126292275D02*
X229623387Y-125577989D01*
X229623387Y-125577989D02*
X229813863Y-126292275D01*
X229813863Y-126292275D02*
X230051959Y-125292275D01*
X230432911Y-126292275D02*
X230432911Y-125292275D01*
X230432911Y-125292275D02*
X230671006Y-125292275D01*
X230671006Y-125292275D02*
X230813863Y-125339894D01*
X230813863Y-125339894D02*
X230909101Y-125435132D01*
X230909101Y-125435132D02*
X230956720Y-125530370D01*
X230956720Y-125530370D02*
X231004339Y-125720846D01*
X231004339Y-125720846D02*
X231004339Y-125863703D01*
X231004339Y-125863703D02*
X230956720Y-126054179D01*
X230956720Y-126054179D02*
X230909101Y-126149417D01*
X230909101Y-126149417D02*
X230813863Y-126244656D01*
X230813863Y-126244656D02*
X230671006Y-126292275D01*
X230671006Y-126292275D02*
X230432911Y-126292275D01*
X232147196Y-125244656D02*
X231290054Y-126530370D01*
X228623387Y-126902219D02*
X228623387Y-127616504D01*
X228623387Y-127616504D02*
X228575768Y-127759361D01*
X228575768Y-127759361D02*
X228480530Y-127854600D01*
X228480530Y-127854600D02*
X228337673Y-127902219D01*
X228337673Y-127902219D02*
X228242435Y-127902219D01*
X228956721Y-126902219D02*
X229528149Y-126902219D01*
X229242435Y-127902219D02*
X229242435Y-126902219D01*
X229813864Y-127616504D02*
X230290054Y-127616504D01*
X229718626Y-127902219D02*
X230051959Y-126902219D01*
X230051959Y-126902219D02*
X230385292Y-127902219D01*
X231242435Y-126949838D02*
X231147197Y-126902219D01*
X231147197Y-126902219D02*
X231004340Y-126902219D01*
X231004340Y-126902219D02*
X230861483Y-126949838D01*
X230861483Y-126949838D02*
X230766245Y-127045076D01*
X230766245Y-127045076D02*
X230718626Y-127140314D01*
X230718626Y-127140314D02*
X230671007Y-127330790D01*
X230671007Y-127330790D02*
X230671007Y-127473647D01*
X230671007Y-127473647D02*
X230718626Y-127664123D01*
X230718626Y-127664123D02*
X230766245Y-127759361D01*
X230766245Y-127759361D02*
X230861483Y-127854600D01*
X230861483Y-127854600D02*
X231004340Y-127902219D01*
X231004340Y-127902219D02*
X231099578Y-127902219D01*
X231099578Y-127902219D02*
X231242435Y-127854600D01*
X231242435Y-127854600D02*
X231290054Y-127806980D01*
X231290054Y-127806980D02*
X231290054Y-127473647D01*
X231290054Y-127473647D02*
X231099578Y-127473647D01*
X173752054Y-76527600D02*
X173894911Y-76575219D01*
X173894911Y-76575219D02*
X174133006Y-76575219D01*
X174133006Y-76575219D02*
X174228244Y-76527600D01*
X174228244Y-76527600D02*
X174275863Y-76479980D01*
X174275863Y-76479980D02*
X174323482Y-76384742D01*
X174323482Y-76384742D02*
X174323482Y-76289504D01*
X174323482Y-76289504D02*
X174275863Y-76194266D01*
X174275863Y-76194266D02*
X174228244Y-76146647D01*
X174228244Y-76146647D02*
X174133006Y-76099028D01*
X174133006Y-76099028D02*
X173942530Y-76051409D01*
X173942530Y-76051409D02*
X173847292Y-76003790D01*
X173847292Y-76003790D02*
X173799673Y-75956171D01*
X173799673Y-75956171D02*
X173752054Y-75860933D01*
X173752054Y-75860933D02*
X173752054Y-75765695D01*
X173752054Y-75765695D02*
X173799673Y-75670457D01*
X173799673Y-75670457D02*
X173847292Y-75622838D01*
X173847292Y-75622838D02*
X173942530Y-75575219D01*
X173942530Y-75575219D02*
X174180625Y-75575219D01*
X174180625Y-75575219D02*
X174323482Y-75622838D01*
X174656816Y-75575219D02*
X174894911Y-76575219D01*
X174894911Y-76575219D02*
X175085387Y-75860933D01*
X175085387Y-75860933D02*
X175275863Y-76575219D01*
X175275863Y-76575219D02*
X175513959Y-75575219D01*
X176323482Y-75908552D02*
X176323482Y-76575219D01*
X176085387Y-75527600D02*
X175847292Y-76241885D01*
X175847292Y-76241885D02*
X176466339Y-76241885D01*
X177609197Y-76575219D02*
X177609197Y-75575219D01*
X178037768Y-75670457D02*
X178085387Y-75622838D01*
X178085387Y-75622838D02*
X178180625Y-75575219D01*
X178180625Y-75575219D02*
X178418720Y-75575219D01*
X178418720Y-75575219D02*
X178513958Y-75622838D01*
X178513958Y-75622838D02*
X178561577Y-75670457D01*
X178561577Y-75670457D02*
X178609196Y-75765695D01*
X178609196Y-75765695D02*
X178609196Y-75860933D01*
X178609196Y-75860933D02*
X178561577Y-76003790D01*
X178561577Y-76003790D02*
X177990149Y-76575219D01*
X177990149Y-76575219D02*
X178609196Y-76575219D01*
X179609196Y-76479980D02*
X179561577Y-76527600D01*
X179561577Y-76527600D02*
X179418720Y-76575219D01*
X179418720Y-76575219D02*
X179323482Y-76575219D01*
X179323482Y-76575219D02*
X179180625Y-76527600D01*
X179180625Y-76527600D02*
X179085387Y-76432361D01*
X179085387Y-76432361D02*
X179037768Y-76337123D01*
X179037768Y-76337123D02*
X178990149Y-76146647D01*
X178990149Y-76146647D02*
X178990149Y-76003790D01*
X178990149Y-76003790D02*
X179037768Y-75813314D01*
X179037768Y-75813314D02*
X179085387Y-75718076D01*
X179085387Y-75718076D02*
X179180625Y-75622838D01*
X179180625Y-75622838D02*
X179323482Y-75575219D01*
X179323482Y-75575219D02*
X179418720Y-75575219D01*
X179418720Y-75575219D02*
X179561577Y-75622838D01*
X179561577Y-75622838D02*
X179609196Y-75670457D01*
X228337673Y-110712331D02*
X228337673Y-109712331D01*
X228337673Y-109712331D02*
X228671006Y-110426616D01*
X228671006Y-110426616D02*
X229004339Y-109712331D01*
X229004339Y-109712331D02*
X229004339Y-110712331D01*
X230051958Y-110617092D02*
X230004339Y-110664712D01*
X230004339Y-110664712D02*
X229861482Y-110712331D01*
X229861482Y-110712331D02*
X229766244Y-110712331D01*
X229766244Y-110712331D02*
X229623387Y-110664712D01*
X229623387Y-110664712D02*
X229528149Y-110569473D01*
X229528149Y-110569473D02*
X229480530Y-110474235D01*
X229480530Y-110474235D02*
X229432911Y-110283759D01*
X229432911Y-110283759D02*
X229432911Y-110140902D01*
X229432911Y-110140902D02*
X229480530Y-109950426D01*
X229480530Y-109950426D02*
X229528149Y-109855188D01*
X229528149Y-109855188D02*
X229623387Y-109759950D01*
X229623387Y-109759950D02*
X229766244Y-109712331D01*
X229766244Y-109712331D02*
X229861482Y-109712331D01*
X229861482Y-109712331D02*
X230004339Y-109759950D01*
X230004339Y-109759950D02*
X230051958Y-109807569D01*
X230480530Y-109712331D02*
X230480530Y-110521854D01*
X230480530Y-110521854D02*
X230528149Y-110617092D01*
X230528149Y-110617092D02*
X230575768Y-110664712D01*
X230575768Y-110664712D02*
X230671006Y-110712331D01*
X230671006Y-110712331D02*
X230861482Y-110712331D01*
X230861482Y-110712331D02*
X230956720Y-110664712D01*
X230956720Y-110664712D02*
X231004339Y-110617092D01*
X231004339Y-110617092D02*
X231051958Y-110521854D01*
X231051958Y-110521854D02*
X231051958Y-109712331D01*
X232290054Y-110712331D02*
X232290054Y-109712331D01*
X232290054Y-109712331D02*
X232528149Y-109712331D01*
X232528149Y-109712331D02*
X232671006Y-109759950D01*
X232671006Y-109759950D02*
X232766244Y-109855188D01*
X232766244Y-109855188D02*
X232813863Y-109950426D01*
X232813863Y-109950426D02*
X232861482Y-110140902D01*
X232861482Y-110140902D02*
X232861482Y-110283759D01*
X232861482Y-110283759D02*
X232813863Y-110474235D01*
X232813863Y-110474235D02*
X232766244Y-110569473D01*
X232766244Y-110569473D02*
X232671006Y-110664712D01*
X232671006Y-110664712D02*
X232528149Y-110712331D01*
X232528149Y-110712331D02*
X232290054Y-110712331D01*
X228290054Y-112274656D02*
X228432911Y-112322275D01*
X228432911Y-112322275D02*
X228671006Y-112322275D01*
X228671006Y-112322275D02*
X228766244Y-112274656D01*
X228766244Y-112274656D02*
X228813863Y-112227036D01*
X228813863Y-112227036D02*
X228861482Y-112131798D01*
X228861482Y-112131798D02*
X228861482Y-112036560D01*
X228861482Y-112036560D02*
X228813863Y-111941322D01*
X228813863Y-111941322D02*
X228766244Y-111893703D01*
X228766244Y-111893703D02*
X228671006Y-111846084D01*
X228671006Y-111846084D02*
X228480530Y-111798465D01*
X228480530Y-111798465D02*
X228385292Y-111750846D01*
X228385292Y-111750846D02*
X228337673Y-111703227D01*
X228337673Y-111703227D02*
X228290054Y-111607989D01*
X228290054Y-111607989D02*
X228290054Y-111512751D01*
X228290054Y-111512751D02*
X228337673Y-111417513D01*
X228337673Y-111417513D02*
X228385292Y-111369894D01*
X228385292Y-111369894D02*
X228480530Y-111322275D01*
X228480530Y-111322275D02*
X228718625Y-111322275D01*
X228718625Y-111322275D02*
X228861482Y-111369894D01*
X229194816Y-111322275D02*
X229432911Y-112322275D01*
X229432911Y-112322275D02*
X229623387Y-111607989D01*
X229623387Y-111607989D02*
X229813863Y-112322275D01*
X229813863Y-112322275D02*
X230051959Y-111322275D01*
X230432911Y-112322275D02*
X230432911Y-111322275D01*
X230432911Y-111322275D02*
X230671006Y-111322275D01*
X230671006Y-111322275D02*
X230813863Y-111369894D01*
X230813863Y-111369894D02*
X230909101Y-111465132D01*
X230909101Y-111465132D02*
X230956720Y-111560370D01*
X230956720Y-111560370D02*
X231004339Y-111750846D01*
X231004339Y-111750846D02*
X231004339Y-111893703D01*
X231004339Y-111893703D02*
X230956720Y-112084179D01*
X230956720Y-112084179D02*
X230909101Y-112179417D01*
X230909101Y-112179417D02*
X230813863Y-112274656D01*
X230813863Y-112274656D02*
X230671006Y-112322275D01*
X230671006Y-112322275D02*
X230432911Y-112322275D01*
X231432911Y-112227036D02*
X231480530Y-112274656D01*
X231480530Y-112274656D02*
X231432911Y-112322275D01*
X231432911Y-112322275D02*
X231385292Y-112274656D01*
X231385292Y-112274656D02*
X231432911Y-112227036D01*
X231432911Y-112227036D02*
X231432911Y-112322275D01*
X231432911Y-111703227D02*
X231480530Y-111750846D01*
X231480530Y-111750846D02*
X231432911Y-111798465D01*
X231432911Y-111798465D02*
X231385292Y-111750846D01*
X231385292Y-111750846D02*
X231432911Y-111703227D01*
X231432911Y-111703227D02*
X231432911Y-111798465D01*
X228290054Y-113884600D02*
X228432911Y-113932219D01*
X228432911Y-113932219D02*
X228671006Y-113932219D01*
X228671006Y-113932219D02*
X228766244Y-113884600D01*
X228766244Y-113884600D02*
X228813863Y-113836980D01*
X228813863Y-113836980D02*
X228861482Y-113741742D01*
X228861482Y-113741742D02*
X228861482Y-113646504D01*
X228861482Y-113646504D02*
X228813863Y-113551266D01*
X228813863Y-113551266D02*
X228766244Y-113503647D01*
X228766244Y-113503647D02*
X228671006Y-113456028D01*
X228671006Y-113456028D02*
X228480530Y-113408409D01*
X228480530Y-113408409D02*
X228385292Y-113360790D01*
X228385292Y-113360790D02*
X228337673Y-113313171D01*
X228337673Y-113313171D02*
X228290054Y-113217933D01*
X228290054Y-113217933D02*
X228290054Y-113122695D01*
X228290054Y-113122695D02*
X228337673Y-113027457D01*
X228337673Y-113027457D02*
X228385292Y-112979838D01*
X228385292Y-112979838D02*
X228480530Y-112932219D01*
X228480530Y-112932219D02*
X228718625Y-112932219D01*
X228718625Y-112932219D02*
X228861482Y-112979838D01*
X229242435Y-113884600D02*
X229385292Y-113932219D01*
X229385292Y-113932219D02*
X229623387Y-113932219D01*
X229623387Y-113932219D02*
X229718625Y-113884600D01*
X229718625Y-113884600D02*
X229766244Y-113836980D01*
X229766244Y-113836980D02*
X229813863Y-113741742D01*
X229813863Y-113741742D02*
X229813863Y-113646504D01*
X229813863Y-113646504D02*
X229766244Y-113551266D01*
X229766244Y-113551266D02*
X229718625Y-113503647D01*
X229718625Y-113503647D02*
X229623387Y-113456028D01*
X229623387Y-113456028D02*
X229432911Y-113408409D01*
X229432911Y-113408409D02*
X229337673Y-113360790D01*
X229337673Y-113360790D02*
X229290054Y-113313171D01*
X229290054Y-113313171D02*
X229242435Y-113217933D01*
X229242435Y-113217933D02*
X229242435Y-113122695D01*
X229242435Y-113122695D02*
X229290054Y-113027457D01*
X229290054Y-113027457D02*
X229337673Y-112979838D01*
X229337673Y-112979838D02*
X229432911Y-112932219D01*
X229432911Y-112932219D02*
X229671006Y-112932219D01*
X229671006Y-112932219D02*
X229813863Y-112979838D01*
X162120054Y-75003600D02*
X162262911Y-75051219D01*
X162262911Y-75051219D02*
X162501006Y-75051219D01*
X162501006Y-75051219D02*
X162596244Y-75003600D01*
X162596244Y-75003600D02*
X162643863Y-74955980D01*
X162643863Y-74955980D02*
X162691482Y-74860742D01*
X162691482Y-74860742D02*
X162691482Y-74765504D01*
X162691482Y-74765504D02*
X162643863Y-74670266D01*
X162643863Y-74670266D02*
X162596244Y-74622647D01*
X162596244Y-74622647D02*
X162501006Y-74575028D01*
X162501006Y-74575028D02*
X162310530Y-74527409D01*
X162310530Y-74527409D02*
X162215292Y-74479790D01*
X162215292Y-74479790D02*
X162167673Y-74432171D01*
X162167673Y-74432171D02*
X162120054Y-74336933D01*
X162120054Y-74336933D02*
X162120054Y-74241695D01*
X162120054Y-74241695D02*
X162167673Y-74146457D01*
X162167673Y-74146457D02*
X162215292Y-74098838D01*
X162215292Y-74098838D02*
X162310530Y-74051219D01*
X162310530Y-74051219D02*
X162548625Y-74051219D01*
X162548625Y-74051219D02*
X162691482Y-74098838D01*
X163024816Y-74051219D02*
X163262911Y-75051219D01*
X163262911Y-75051219D02*
X163453387Y-74336933D01*
X163453387Y-74336933D02*
X163643863Y-75051219D01*
X163643863Y-75051219D02*
X163881959Y-74051219D01*
X164215292Y-74146457D02*
X164262911Y-74098838D01*
X164262911Y-74098838D02*
X164358149Y-74051219D01*
X164358149Y-74051219D02*
X164596244Y-74051219D01*
X164596244Y-74051219D02*
X164691482Y-74098838D01*
X164691482Y-74098838D02*
X164739101Y-74146457D01*
X164739101Y-74146457D02*
X164786720Y-74241695D01*
X164786720Y-74241695D02*
X164786720Y-74336933D01*
X164786720Y-74336933D02*
X164739101Y-74479790D01*
X164739101Y-74479790D02*
X164167673Y-75051219D01*
X164167673Y-75051219D02*
X164786720Y-75051219D01*
X165977197Y-74051219D02*
X165977197Y-74860742D01*
X165977197Y-74860742D02*
X166024816Y-74955980D01*
X166024816Y-74955980D02*
X166072435Y-75003600D01*
X166072435Y-75003600D02*
X166167673Y-75051219D01*
X166167673Y-75051219D02*
X166358149Y-75051219D01*
X166358149Y-75051219D02*
X166453387Y-75003600D01*
X166453387Y-75003600D02*
X166501006Y-74955980D01*
X166501006Y-74955980D02*
X166548625Y-74860742D01*
X166548625Y-74860742D02*
X166548625Y-74051219D01*
X166977197Y-74765504D02*
X167453387Y-74765504D01*
X166881959Y-75051219D02*
X167215292Y-74051219D01*
X167215292Y-74051219D02*
X167548625Y-75051219D01*
X168453387Y-75051219D02*
X168120054Y-74575028D01*
X167881959Y-75051219D02*
X167881959Y-74051219D01*
X167881959Y-74051219D02*
X168262911Y-74051219D01*
X168262911Y-74051219D02*
X168358149Y-74098838D01*
X168358149Y-74098838D02*
X168405768Y-74146457D01*
X168405768Y-74146457D02*
X168453387Y-74241695D01*
X168453387Y-74241695D02*
X168453387Y-74384552D01*
X168453387Y-74384552D02*
X168405768Y-74479790D01*
X168405768Y-74479790D02*
X168358149Y-74527409D01*
X168358149Y-74527409D02*
X168262911Y-74575028D01*
X168262911Y-74575028D02*
X167881959Y-74575028D01*
X168739102Y-74051219D02*
X169310530Y-74051219D01*
X169024816Y-75051219D02*
X169024816Y-74051219D01*
X170405769Y-74527409D02*
X170739102Y-74527409D01*
X170881959Y-75051219D02*
X170405769Y-75051219D01*
X170405769Y-75051219D02*
X170405769Y-74051219D01*
X170405769Y-74051219D02*
X170881959Y-74051219D01*
X228337673Y-68783331D02*
X228337673Y-67783331D01*
X228337673Y-67783331D02*
X228671006Y-68497616D01*
X228671006Y-68497616D02*
X229004339Y-67783331D01*
X229004339Y-67783331D02*
X229004339Y-68783331D01*
X230051958Y-68688092D02*
X230004339Y-68735712D01*
X230004339Y-68735712D02*
X229861482Y-68783331D01*
X229861482Y-68783331D02*
X229766244Y-68783331D01*
X229766244Y-68783331D02*
X229623387Y-68735712D01*
X229623387Y-68735712D02*
X229528149Y-68640473D01*
X229528149Y-68640473D02*
X229480530Y-68545235D01*
X229480530Y-68545235D02*
X229432911Y-68354759D01*
X229432911Y-68354759D02*
X229432911Y-68211902D01*
X229432911Y-68211902D02*
X229480530Y-68021426D01*
X229480530Y-68021426D02*
X229528149Y-67926188D01*
X229528149Y-67926188D02*
X229623387Y-67830950D01*
X229623387Y-67830950D02*
X229766244Y-67783331D01*
X229766244Y-67783331D02*
X229861482Y-67783331D01*
X229861482Y-67783331D02*
X230004339Y-67830950D01*
X230004339Y-67830950D02*
X230051958Y-67878569D01*
X230480530Y-67783331D02*
X230480530Y-68592854D01*
X230480530Y-68592854D02*
X230528149Y-68688092D01*
X230528149Y-68688092D02*
X230575768Y-68735712D01*
X230575768Y-68735712D02*
X230671006Y-68783331D01*
X230671006Y-68783331D02*
X230861482Y-68783331D01*
X230861482Y-68783331D02*
X230956720Y-68735712D01*
X230956720Y-68735712D02*
X231004339Y-68688092D01*
X231004339Y-68688092D02*
X231051958Y-68592854D01*
X231051958Y-68592854D02*
X231051958Y-67783331D01*
X232242435Y-68497616D02*
X232718625Y-68497616D01*
X232147197Y-68783331D02*
X232480530Y-67783331D01*
X232480530Y-67783331D02*
X232813863Y-68783331D01*
X228290054Y-70345656D02*
X228432911Y-70393275D01*
X228432911Y-70393275D02*
X228671006Y-70393275D01*
X228671006Y-70393275D02*
X228766244Y-70345656D01*
X228766244Y-70345656D02*
X228813863Y-70298036D01*
X228813863Y-70298036D02*
X228861482Y-70202798D01*
X228861482Y-70202798D02*
X228861482Y-70107560D01*
X228861482Y-70107560D02*
X228813863Y-70012322D01*
X228813863Y-70012322D02*
X228766244Y-69964703D01*
X228766244Y-69964703D02*
X228671006Y-69917084D01*
X228671006Y-69917084D02*
X228480530Y-69869465D01*
X228480530Y-69869465D02*
X228385292Y-69821846D01*
X228385292Y-69821846D02*
X228337673Y-69774227D01*
X228337673Y-69774227D02*
X228290054Y-69678989D01*
X228290054Y-69678989D02*
X228290054Y-69583751D01*
X228290054Y-69583751D02*
X228337673Y-69488513D01*
X228337673Y-69488513D02*
X228385292Y-69440894D01*
X228385292Y-69440894D02*
X228480530Y-69393275D01*
X228480530Y-69393275D02*
X228718625Y-69393275D01*
X228718625Y-69393275D02*
X228861482Y-69440894D01*
X229194816Y-69393275D02*
X229432911Y-70393275D01*
X229432911Y-70393275D02*
X229623387Y-69678989D01*
X229623387Y-69678989D02*
X229813863Y-70393275D01*
X229813863Y-70393275D02*
X230051959Y-69393275D01*
X230432911Y-70393275D02*
X230432911Y-69393275D01*
X230432911Y-69393275D02*
X230671006Y-69393275D01*
X230671006Y-69393275D02*
X230813863Y-69440894D01*
X230813863Y-69440894D02*
X230909101Y-69536132D01*
X230909101Y-69536132D02*
X230956720Y-69631370D01*
X230956720Y-69631370D02*
X231004339Y-69821846D01*
X231004339Y-69821846D02*
X231004339Y-69964703D01*
X231004339Y-69964703D02*
X230956720Y-70155179D01*
X230956720Y-70155179D02*
X230909101Y-70250417D01*
X230909101Y-70250417D02*
X230813863Y-70345656D01*
X230813863Y-70345656D02*
X230671006Y-70393275D01*
X230671006Y-70393275D02*
X230432911Y-70393275D01*
X231432911Y-70298036D02*
X231480530Y-70345656D01*
X231480530Y-70345656D02*
X231432911Y-70393275D01*
X231432911Y-70393275D02*
X231385292Y-70345656D01*
X231385292Y-70345656D02*
X231432911Y-70298036D01*
X231432911Y-70298036D02*
X231432911Y-70393275D01*
X231432911Y-69774227D02*
X231480530Y-69821846D01*
X231480530Y-69821846D02*
X231432911Y-69869465D01*
X231432911Y-69869465D02*
X231385292Y-69821846D01*
X231385292Y-69821846D02*
X231432911Y-69774227D01*
X231432911Y-69774227D02*
X231432911Y-69869465D01*
X228290054Y-71955600D02*
X228432911Y-72003219D01*
X228432911Y-72003219D02*
X228671006Y-72003219D01*
X228671006Y-72003219D02*
X228766244Y-71955600D01*
X228766244Y-71955600D02*
X228813863Y-71907980D01*
X228813863Y-71907980D02*
X228861482Y-71812742D01*
X228861482Y-71812742D02*
X228861482Y-71717504D01*
X228861482Y-71717504D02*
X228813863Y-71622266D01*
X228813863Y-71622266D02*
X228766244Y-71574647D01*
X228766244Y-71574647D02*
X228671006Y-71527028D01*
X228671006Y-71527028D02*
X228480530Y-71479409D01*
X228480530Y-71479409D02*
X228385292Y-71431790D01*
X228385292Y-71431790D02*
X228337673Y-71384171D01*
X228337673Y-71384171D02*
X228290054Y-71288933D01*
X228290054Y-71288933D02*
X228290054Y-71193695D01*
X228290054Y-71193695D02*
X228337673Y-71098457D01*
X228337673Y-71098457D02*
X228385292Y-71050838D01*
X228385292Y-71050838D02*
X228480530Y-71003219D01*
X228480530Y-71003219D02*
X228718625Y-71003219D01*
X228718625Y-71003219D02*
X228861482Y-71050838D01*
X229242435Y-71955600D02*
X229385292Y-72003219D01*
X229385292Y-72003219D02*
X229623387Y-72003219D01*
X229623387Y-72003219D02*
X229718625Y-71955600D01*
X229718625Y-71955600D02*
X229766244Y-71907980D01*
X229766244Y-71907980D02*
X229813863Y-71812742D01*
X229813863Y-71812742D02*
X229813863Y-71717504D01*
X229813863Y-71717504D02*
X229766244Y-71622266D01*
X229766244Y-71622266D02*
X229718625Y-71574647D01*
X229718625Y-71574647D02*
X229623387Y-71527028D01*
X229623387Y-71527028D02*
X229432911Y-71479409D01*
X229432911Y-71479409D02*
X229337673Y-71431790D01*
X229337673Y-71431790D02*
X229290054Y-71384171D01*
X229290054Y-71384171D02*
X229242435Y-71288933D01*
X229242435Y-71288933D02*
X229242435Y-71193695D01*
X229242435Y-71193695D02*
X229290054Y-71098457D01*
X229290054Y-71098457D02*
X229337673Y-71050838D01*
X229337673Y-71050838D02*
X229432911Y-71003219D01*
X229432911Y-71003219D02*
X229671006Y-71003219D01*
X229671006Y-71003219D02*
X229813863Y-71050838D01*
X183007673Y-69209219D02*
X183007673Y-68209219D01*
X183436244Y-68304457D02*
X183483863Y-68256838D01*
X183483863Y-68256838D02*
X183579101Y-68209219D01*
X183579101Y-68209219D02*
X183817196Y-68209219D01*
X183817196Y-68209219D02*
X183912434Y-68256838D01*
X183912434Y-68256838D02*
X183960053Y-68304457D01*
X183960053Y-68304457D02*
X184007672Y-68399695D01*
X184007672Y-68399695D02*
X184007672Y-68494933D01*
X184007672Y-68494933D02*
X183960053Y-68637790D01*
X183960053Y-68637790D02*
X183388625Y-69209219D01*
X183388625Y-69209219D02*
X184007672Y-69209219D01*
X185007672Y-69113980D02*
X184960053Y-69161600D01*
X184960053Y-69161600D02*
X184817196Y-69209219D01*
X184817196Y-69209219D02*
X184721958Y-69209219D01*
X184721958Y-69209219D02*
X184579101Y-69161600D01*
X184579101Y-69161600D02*
X184483863Y-69066361D01*
X184483863Y-69066361D02*
X184436244Y-68971123D01*
X184436244Y-68971123D02*
X184388625Y-68780647D01*
X184388625Y-68780647D02*
X184388625Y-68637790D01*
X184388625Y-68637790D02*
X184436244Y-68447314D01*
X184436244Y-68447314D02*
X184483863Y-68352076D01*
X184483863Y-68352076D02*
X184579101Y-68256838D01*
X184579101Y-68256838D02*
X184721958Y-68209219D01*
X184721958Y-68209219D02*
X184817196Y-68209219D01*
X184817196Y-68209219D02*
X184960053Y-68256838D01*
X184960053Y-68256838D02*
X185007672Y-68304457D01*
X228337673Y-96732831D02*
X228337673Y-95732831D01*
X228337673Y-95732831D02*
X228671006Y-96447116D01*
X228671006Y-96447116D02*
X229004339Y-95732831D01*
X229004339Y-95732831D02*
X229004339Y-96732831D01*
X230051958Y-96637592D02*
X230004339Y-96685212D01*
X230004339Y-96685212D02*
X229861482Y-96732831D01*
X229861482Y-96732831D02*
X229766244Y-96732831D01*
X229766244Y-96732831D02*
X229623387Y-96685212D01*
X229623387Y-96685212D02*
X229528149Y-96589973D01*
X229528149Y-96589973D02*
X229480530Y-96494735D01*
X229480530Y-96494735D02*
X229432911Y-96304259D01*
X229432911Y-96304259D02*
X229432911Y-96161402D01*
X229432911Y-96161402D02*
X229480530Y-95970926D01*
X229480530Y-95970926D02*
X229528149Y-95875688D01*
X229528149Y-95875688D02*
X229623387Y-95780450D01*
X229623387Y-95780450D02*
X229766244Y-95732831D01*
X229766244Y-95732831D02*
X229861482Y-95732831D01*
X229861482Y-95732831D02*
X230004339Y-95780450D01*
X230004339Y-95780450D02*
X230051958Y-95828069D01*
X230480530Y-95732831D02*
X230480530Y-96542354D01*
X230480530Y-96542354D02*
X230528149Y-96637592D01*
X230528149Y-96637592D02*
X230575768Y-96685212D01*
X230575768Y-96685212D02*
X230671006Y-96732831D01*
X230671006Y-96732831D02*
X230861482Y-96732831D01*
X230861482Y-96732831D02*
X230956720Y-96685212D01*
X230956720Y-96685212D02*
X231004339Y-96637592D01*
X231004339Y-96637592D02*
X231051958Y-96542354D01*
X231051958Y-96542354D02*
X231051958Y-95732831D01*
X232861482Y-96637592D02*
X232813863Y-96685212D01*
X232813863Y-96685212D02*
X232671006Y-96732831D01*
X232671006Y-96732831D02*
X232575768Y-96732831D01*
X232575768Y-96732831D02*
X232432911Y-96685212D01*
X232432911Y-96685212D02*
X232337673Y-96589973D01*
X232337673Y-96589973D02*
X232290054Y-96494735D01*
X232290054Y-96494735D02*
X232242435Y-96304259D01*
X232242435Y-96304259D02*
X232242435Y-96161402D01*
X232242435Y-96161402D02*
X232290054Y-95970926D01*
X232290054Y-95970926D02*
X232337673Y-95875688D01*
X232337673Y-95875688D02*
X232432911Y-95780450D01*
X232432911Y-95780450D02*
X232575768Y-95732831D01*
X232575768Y-95732831D02*
X232671006Y-95732831D01*
X232671006Y-95732831D02*
X232813863Y-95780450D01*
X232813863Y-95780450D02*
X232861482Y-95828069D01*
X228290054Y-98295156D02*
X228432911Y-98342775D01*
X228432911Y-98342775D02*
X228671006Y-98342775D01*
X228671006Y-98342775D02*
X228766244Y-98295156D01*
X228766244Y-98295156D02*
X228813863Y-98247536D01*
X228813863Y-98247536D02*
X228861482Y-98152298D01*
X228861482Y-98152298D02*
X228861482Y-98057060D01*
X228861482Y-98057060D02*
X228813863Y-97961822D01*
X228813863Y-97961822D02*
X228766244Y-97914203D01*
X228766244Y-97914203D02*
X228671006Y-97866584D01*
X228671006Y-97866584D02*
X228480530Y-97818965D01*
X228480530Y-97818965D02*
X228385292Y-97771346D01*
X228385292Y-97771346D02*
X228337673Y-97723727D01*
X228337673Y-97723727D02*
X228290054Y-97628489D01*
X228290054Y-97628489D02*
X228290054Y-97533251D01*
X228290054Y-97533251D02*
X228337673Y-97438013D01*
X228337673Y-97438013D02*
X228385292Y-97390394D01*
X228385292Y-97390394D02*
X228480530Y-97342775D01*
X228480530Y-97342775D02*
X228718625Y-97342775D01*
X228718625Y-97342775D02*
X228861482Y-97390394D01*
X229194816Y-97342775D02*
X229432911Y-98342775D01*
X229432911Y-98342775D02*
X229623387Y-97628489D01*
X229623387Y-97628489D02*
X229813863Y-98342775D01*
X229813863Y-98342775D02*
X230051959Y-97342775D01*
X230432911Y-98342775D02*
X230432911Y-97342775D01*
X230432911Y-97342775D02*
X230671006Y-97342775D01*
X230671006Y-97342775D02*
X230813863Y-97390394D01*
X230813863Y-97390394D02*
X230909101Y-97485632D01*
X230909101Y-97485632D02*
X230956720Y-97580870D01*
X230956720Y-97580870D02*
X231004339Y-97771346D01*
X231004339Y-97771346D02*
X231004339Y-97914203D01*
X231004339Y-97914203D02*
X230956720Y-98104679D01*
X230956720Y-98104679D02*
X230909101Y-98199917D01*
X230909101Y-98199917D02*
X230813863Y-98295156D01*
X230813863Y-98295156D02*
X230671006Y-98342775D01*
X230671006Y-98342775D02*
X230432911Y-98342775D01*
X231432911Y-98247536D02*
X231480530Y-98295156D01*
X231480530Y-98295156D02*
X231432911Y-98342775D01*
X231432911Y-98342775D02*
X231385292Y-98295156D01*
X231385292Y-98295156D02*
X231432911Y-98247536D01*
X231432911Y-98247536D02*
X231432911Y-98342775D01*
X231432911Y-97723727D02*
X231480530Y-97771346D01*
X231480530Y-97771346D02*
X231432911Y-97818965D01*
X231432911Y-97818965D02*
X231385292Y-97771346D01*
X231385292Y-97771346D02*
X231432911Y-97723727D01*
X231432911Y-97723727D02*
X231432911Y-97818965D01*
X228337673Y-99952719D02*
X228337673Y-98952719D01*
X229004339Y-98952719D02*
X229194815Y-98952719D01*
X229194815Y-98952719D02*
X229290053Y-99000338D01*
X229290053Y-99000338D02*
X229385291Y-99095576D01*
X229385291Y-99095576D02*
X229432910Y-99286052D01*
X229432910Y-99286052D02*
X229432910Y-99619385D01*
X229432910Y-99619385D02*
X229385291Y-99809861D01*
X229385291Y-99809861D02*
X229290053Y-99905100D01*
X229290053Y-99905100D02*
X229194815Y-99952719D01*
X229194815Y-99952719D02*
X229004339Y-99952719D01*
X229004339Y-99952719D02*
X228909101Y-99905100D01*
X228909101Y-99905100D02*
X228813863Y-99809861D01*
X228813863Y-99809861D02*
X228766244Y-99619385D01*
X228766244Y-99619385D02*
X228766244Y-99286052D01*
X228766244Y-99286052D02*
X228813863Y-99095576D01*
X228813863Y-99095576D02*
X228909101Y-99000338D01*
X228909101Y-99000338D02*
X229004339Y-98952719D01*
X229861482Y-99571766D02*
X230623387Y-99571766D01*
X231099577Y-99952719D02*
X231099577Y-98952719D01*
X231099577Y-98952719D02*
X231432910Y-99667004D01*
X231432910Y-99667004D02*
X231766243Y-98952719D01*
X231766243Y-98952719D02*
X231766243Y-99952719D01*
X232813862Y-99857480D02*
X232766243Y-99905100D01*
X232766243Y-99905100D02*
X232623386Y-99952719D01*
X232623386Y-99952719D02*
X232528148Y-99952719D01*
X232528148Y-99952719D02*
X232385291Y-99905100D01*
X232385291Y-99905100D02*
X232290053Y-99809861D01*
X232290053Y-99809861D02*
X232242434Y-99714623D01*
X232242434Y-99714623D02*
X232194815Y-99524147D01*
X232194815Y-99524147D02*
X232194815Y-99381290D01*
X232194815Y-99381290D02*
X232242434Y-99190814D01*
X232242434Y-99190814D02*
X232290053Y-99095576D01*
X232290053Y-99095576D02*
X232385291Y-99000338D01*
X232385291Y-99000338D02*
X232528148Y-98952719D01*
X232528148Y-98952719D02*
X232623386Y-98952719D01*
X232623386Y-98952719D02*
X232766243Y-99000338D01*
X232766243Y-99000338D02*
X232813862Y-99047957D01*
X233242434Y-98952719D02*
X233242434Y-99762242D01*
X233242434Y-99762242D02*
X233290053Y-99857480D01*
X233290053Y-99857480D02*
X233337672Y-99905100D01*
X233337672Y-99905100D02*
X233432910Y-99952719D01*
X233432910Y-99952719D02*
X233623386Y-99952719D01*
X233623386Y-99952719D02*
X233718624Y-99905100D01*
X233718624Y-99905100D02*
X233766243Y-99857480D01*
X233766243Y-99857480D02*
X233813862Y-99762242D01*
X233813862Y-99762242D02*
X233813862Y-98952719D01*
X162374054Y-64335600D02*
X162516911Y-64383219D01*
X162516911Y-64383219D02*
X162755006Y-64383219D01*
X162755006Y-64383219D02*
X162850244Y-64335600D01*
X162850244Y-64335600D02*
X162897863Y-64287980D01*
X162897863Y-64287980D02*
X162945482Y-64192742D01*
X162945482Y-64192742D02*
X162945482Y-64097504D01*
X162945482Y-64097504D02*
X162897863Y-64002266D01*
X162897863Y-64002266D02*
X162850244Y-63954647D01*
X162850244Y-63954647D02*
X162755006Y-63907028D01*
X162755006Y-63907028D02*
X162564530Y-63859409D01*
X162564530Y-63859409D02*
X162469292Y-63811790D01*
X162469292Y-63811790D02*
X162421673Y-63764171D01*
X162421673Y-63764171D02*
X162374054Y-63668933D01*
X162374054Y-63668933D02*
X162374054Y-63573695D01*
X162374054Y-63573695D02*
X162421673Y-63478457D01*
X162421673Y-63478457D02*
X162469292Y-63430838D01*
X162469292Y-63430838D02*
X162564530Y-63383219D01*
X162564530Y-63383219D02*
X162802625Y-63383219D01*
X162802625Y-63383219D02*
X162945482Y-63430838D01*
X163278816Y-63383219D02*
X163516911Y-64383219D01*
X163516911Y-64383219D02*
X163707387Y-63668933D01*
X163707387Y-63668933D02*
X163897863Y-64383219D01*
X163897863Y-64383219D02*
X164135959Y-63383219D01*
X165040720Y-64383219D02*
X164469292Y-64383219D01*
X164755006Y-64383219D02*
X164755006Y-63383219D01*
X164755006Y-63383219D02*
X164659768Y-63526076D01*
X164659768Y-63526076D02*
X164564530Y-63621314D01*
X164564530Y-63621314D02*
X164469292Y-63668933D01*
X166231197Y-63383219D02*
X166231197Y-64192742D01*
X166231197Y-64192742D02*
X166278816Y-64287980D01*
X166278816Y-64287980D02*
X166326435Y-64335600D01*
X166326435Y-64335600D02*
X166421673Y-64383219D01*
X166421673Y-64383219D02*
X166612149Y-64383219D01*
X166612149Y-64383219D02*
X166707387Y-64335600D01*
X166707387Y-64335600D02*
X166755006Y-64287980D01*
X166755006Y-64287980D02*
X166802625Y-64192742D01*
X166802625Y-64192742D02*
X166802625Y-63383219D01*
X167231197Y-64097504D02*
X167707387Y-64097504D01*
X167135959Y-64383219D02*
X167469292Y-63383219D01*
X167469292Y-63383219D02*
X167802625Y-64383219D01*
X168707387Y-64383219D02*
X168374054Y-63907028D01*
X168135959Y-64383219D02*
X168135959Y-63383219D01*
X168135959Y-63383219D02*
X168516911Y-63383219D01*
X168516911Y-63383219D02*
X168612149Y-63430838D01*
X168612149Y-63430838D02*
X168659768Y-63478457D01*
X168659768Y-63478457D02*
X168707387Y-63573695D01*
X168707387Y-63573695D02*
X168707387Y-63716552D01*
X168707387Y-63716552D02*
X168659768Y-63811790D01*
X168659768Y-63811790D02*
X168612149Y-63859409D01*
X168612149Y-63859409D02*
X168516911Y-63907028D01*
X168516911Y-63907028D02*
X168135959Y-63907028D01*
X168993102Y-63383219D02*
X169564530Y-63383219D01*
X169278816Y-64383219D02*
X169278816Y-63383219D01*
X170993102Y-63859409D02*
X170659769Y-63859409D01*
X170659769Y-64383219D02*
X170659769Y-63383219D01*
X170659769Y-63383219D02*
X171135959Y-63383219D01*
X162322054Y-107515600D02*
X162464911Y-107563219D01*
X162464911Y-107563219D02*
X162703006Y-107563219D01*
X162703006Y-107563219D02*
X162798244Y-107515600D01*
X162798244Y-107515600D02*
X162845863Y-107467980D01*
X162845863Y-107467980D02*
X162893482Y-107372742D01*
X162893482Y-107372742D02*
X162893482Y-107277504D01*
X162893482Y-107277504D02*
X162845863Y-107182266D01*
X162845863Y-107182266D02*
X162798244Y-107134647D01*
X162798244Y-107134647D02*
X162703006Y-107087028D01*
X162703006Y-107087028D02*
X162512530Y-107039409D01*
X162512530Y-107039409D02*
X162417292Y-106991790D01*
X162417292Y-106991790D02*
X162369673Y-106944171D01*
X162369673Y-106944171D02*
X162322054Y-106848933D01*
X162322054Y-106848933D02*
X162322054Y-106753695D01*
X162322054Y-106753695D02*
X162369673Y-106658457D01*
X162369673Y-106658457D02*
X162417292Y-106610838D01*
X162417292Y-106610838D02*
X162512530Y-106563219D01*
X162512530Y-106563219D02*
X162750625Y-106563219D01*
X162750625Y-106563219D02*
X162893482Y-106610838D01*
X163226816Y-106563219D02*
X163464911Y-107563219D01*
X163464911Y-107563219D02*
X163655387Y-106848933D01*
X163655387Y-106848933D02*
X163845863Y-107563219D01*
X163845863Y-107563219D02*
X164083959Y-106563219D01*
X164893482Y-106563219D02*
X164703006Y-106563219D01*
X164703006Y-106563219D02*
X164607768Y-106610838D01*
X164607768Y-106610838D02*
X164560149Y-106658457D01*
X164560149Y-106658457D02*
X164464911Y-106801314D01*
X164464911Y-106801314D02*
X164417292Y-106991790D01*
X164417292Y-106991790D02*
X164417292Y-107372742D01*
X164417292Y-107372742D02*
X164464911Y-107467980D01*
X164464911Y-107467980D02*
X164512530Y-107515600D01*
X164512530Y-107515600D02*
X164607768Y-107563219D01*
X164607768Y-107563219D02*
X164798244Y-107563219D01*
X164798244Y-107563219D02*
X164893482Y-107515600D01*
X164893482Y-107515600D02*
X164941101Y-107467980D01*
X164941101Y-107467980D02*
X164988720Y-107372742D01*
X164988720Y-107372742D02*
X164988720Y-107134647D01*
X164988720Y-107134647D02*
X164941101Y-107039409D01*
X164941101Y-107039409D02*
X164893482Y-106991790D01*
X164893482Y-106991790D02*
X164798244Y-106944171D01*
X164798244Y-106944171D02*
X164607768Y-106944171D01*
X164607768Y-106944171D02*
X164512530Y-106991790D01*
X164512530Y-106991790D02*
X164464911Y-107039409D01*
X164464911Y-107039409D02*
X164417292Y-107134647D01*
X166179197Y-106563219D02*
X166179197Y-107372742D01*
X166179197Y-107372742D02*
X166226816Y-107467980D01*
X166226816Y-107467980D02*
X166274435Y-107515600D01*
X166274435Y-107515600D02*
X166369673Y-107563219D01*
X166369673Y-107563219D02*
X166560149Y-107563219D01*
X166560149Y-107563219D02*
X166655387Y-107515600D01*
X166655387Y-107515600D02*
X166703006Y-107467980D01*
X166703006Y-107467980D02*
X166750625Y-107372742D01*
X166750625Y-107372742D02*
X166750625Y-106563219D01*
X167179197Y-107277504D02*
X167655387Y-107277504D01*
X167083959Y-107563219D02*
X167417292Y-106563219D01*
X167417292Y-106563219D02*
X167750625Y-107563219D01*
X168655387Y-107563219D02*
X168322054Y-107087028D01*
X168083959Y-107563219D02*
X168083959Y-106563219D01*
X168083959Y-106563219D02*
X168464911Y-106563219D01*
X168464911Y-106563219D02*
X168560149Y-106610838D01*
X168560149Y-106610838D02*
X168607768Y-106658457D01*
X168607768Y-106658457D02*
X168655387Y-106753695D01*
X168655387Y-106753695D02*
X168655387Y-106896552D01*
X168655387Y-106896552D02*
X168607768Y-106991790D01*
X168607768Y-106991790D02*
X168560149Y-107039409D01*
X168560149Y-107039409D02*
X168464911Y-107087028D01*
X168464911Y-107087028D02*
X168083959Y-107087028D01*
X168941102Y-106563219D02*
X169512530Y-106563219D01*
X169226816Y-107563219D02*
X169226816Y-106563219D01*
X170941102Y-107039409D02*
X171083959Y-107087028D01*
X171083959Y-107087028D02*
X171131578Y-107134647D01*
X171131578Y-107134647D02*
X171179197Y-107229885D01*
X171179197Y-107229885D02*
X171179197Y-107372742D01*
X171179197Y-107372742D02*
X171131578Y-107467980D01*
X171131578Y-107467980D02*
X171083959Y-107515600D01*
X171083959Y-107515600D02*
X170988721Y-107563219D01*
X170988721Y-107563219D02*
X170607769Y-107563219D01*
X170607769Y-107563219D02*
X170607769Y-106563219D01*
X170607769Y-106563219D02*
X170941102Y-106563219D01*
X170941102Y-106563219D02*
X171036340Y-106610838D01*
X171036340Y-106610838D02*
X171083959Y-106658457D01*
X171083959Y-106658457D02*
X171131578Y-106753695D01*
X171131578Y-106753695D02*
X171131578Y-106848933D01*
X171131578Y-106848933D02*
X171083959Y-106944171D01*
X171083959Y-106944171D02*
X171036340Y-106991790D01*
X171036340Y-106991790D02*
X170941102Y-107039409D01*
X170941102Y-107039409D02*
X170607769Y-107039409D01*
X228337673Y-82753331D02*
X228337673Y-81753331D01*
X228337673Y-81753331D02*
X228671006Y-82467616D01*
X228671006Y-82467616D02*
X229004339Y-81753331D01*
X229004339Y-81753331D02*
X229004339Y-82753331D01*
X230051958Y-82658092D02*
X230004339Y-82705712D01*
X230004339Y-82705712D02*
X229861482Y-82753331D01*
X229861482Y-82753331D02*
X229766244Y-82753331D01*
X229766244Y-82753331D02*
X229623387Y-82705712D01*
X229623387Y-82705712D02*
X229528149Y-82610473D01*
X229528149Y-82610473D02*
X229480530Y-82515235D01*
X229480530Y-82515235D02*
X229432911Y-82324759D01*
X229432911Y-82324759D02*
X229432911Y-82181902D01*
X229432911Y-82181902D02*
X229480530Y-81991426D01*
X229480530Y-81991426D02*
X229528149Y-81896188D01*
X229528149Y-81896188D02*
X229623387Y-81800950D01*
X229623387Y-81800950D02*
X229766244Y-81753331D01*
X229766244Y-81753331D02*
X229861482Y-81753331D01*
X229861482Y-81753331D02*
X230004339Y-81800950D01*
X230004339Y-81800950D02*
X230051958Y-81848569D01*
X230480530Y-81753331D02*
X230480530Y-82562854D01*
X230480530Y-82562854D02*
X230528149Y-82658092D01*
X230528149Y-82658092D02*
X230575768Y-82705712D01*
X230575768Y-82705712D02*
X230671006Y-82753331D01*
X230671006Y-82753331D02*
X230861482Y-82753331D01*
X230861482Y-82753331D02*
X230956720Y-82705712D01*
X230956720Y-82705712D02*
X231004339Y-82658092D01*
X231004339Y-82658092D02*
X231051958Y-82562854D01*
X231051958Y-82562854D02*
X231051958Y-81753331D01*
X232623387Y-82229521D02*
X232766244Y-82277140D01*
X232766244Y-82277140D02*
X232813863Y-82324759D01*
X232813863Y-82324759D02*
X232861482Y-82419997D01*
X232861482Y-82419997D02*
X232861482Y-82562854D01*
X232861482Y-82562854D02*
X232813863Y-82658092D01*
X232813863Y-82658092D02*
X232766244Y-82705712D01*
X232766244Y-82705712D02*
X232671006Y-82753331D01*
X232671006Y-82753331D02*
X232290054Y-82753331D01*
X232290054Y-82753331D02*
X232290054Y-81753331D01*
X232290054Y-81753331D02*
X232623387Y-81753331D01*
X232623387Y-81753331D02*
X232718625Y-81800950D01*
X232718625Y-81800950D02*
X232766244Y-81848569D01*
X232766244Y-81848569D02*
X232813863Y-81943807D01*
X232813863Y-81943807D02*
X232813863Y-82039045D01*
X232813863Y-82039045D02*
X232766244Y-82134283D01*
X232766244Y-82134283D02*
X232718625Y-82181902D01*
X232718625Y-82181902D02*
X232623387Y-82229521D01*
X232623387Y-82229521D02*
X232290054Y-82229521D01*
X228290054Y-84315656D02*
X228432911Y-84363275D01*
X228432911Y-84363275D02*
X228671006Y-84363275D01*
X228671006Y-84363275D02*
X228766244Y-84315656D01*
X228766244Y-84315656D02*
X228813863Y-84268036D01*
X228813863Y-84268036D02*
X228861482Y-84172798D01*
X228861482Y-84172798D02*
X228861482Y-84077560D01*
X228861482Y-84077560D02*
X228813863Y-83982322D01*
X228813863Y-83982322D02*
X228766244Y-83934703D01*
X228766244Y-83934703D02*
X228671006Y-83887084D01*
X228671006Y-83887084D02*
X228480530Y-83839465D01*
X228480530Y-83839465D02*
X228385292Y-83791846D01*
X228385292Y-83791846D02*
X228337673Y-83744227D01*
X228337673Y-83744227D02*
X228290054Y-83648989D01*
X228290054Y-83648989D02*
X228290054Y-83553751D01*
X228290054Y-83553751D02*
X228337673Y-83458513D01*
X228337673Y-83458513D02*
X228385292Y-83410894D01*
X228385292Y-83410894D02*
X228480530Y-83363275D01*
X228480530Y-83363275D02*
X228718625Y-83363275D01*
X228718625Y-83363275D02*
X228861482Y-83410894D01*
X229194816Y-83363275D02*
X229432911Y-84363275D01*
X229432911Y-84363275D02*
X229623387Y-83648989D01*
X229623387Y-83648989D02*
X229813863Y-84363275D01*
X229813863Y-84363275D02*
X230051959Y-83363275D01*
X230432911Y-84363275D02*
X230432911Y-83363275D01*
X230432911Y-83363275D02*
X230671006Y-83363275D01*
X230671006Y-83363275D02*
X230813863Y-83410894D01*
X230813863Y-83410894D02*
X230909101Y-83506132D01*
X230909101Y-83506132D02*
X230956720Y-83601370D01*
X230956720Y-83601370D02*
X231004339Y-83791846D01*
X231004339Y-83791846D02*
X231004339Y-83934703D01*
X231004339Y-83934703D02*
X230956720Y-84125179D01*
X230956720Y-84125179D02*
X230909101Y-84220417D01*
X230909101Y-84220417D02*
X230813863Y-84315656D01*
X230813863Y-84315656D02*
X230671006Y-84363275D01*
X230671006Y-84363275D02*
X230432911Y-84363275D01*
X231432911Y-84268036D02*
X231480530Y-84315656D01*
X231480530Y-84315656D02*
X231432911Y-84363275D01*
X231432911Y-84363275D02*
X231385292Y-84315656D01*
X231385292Y-84315656D02*
X231432911Y-84268036D01*
X231432911Y-84268036D02*
X231432911Y-84363275D01*
X231432911Y-83744227D02*
X231480530Y-83791846D01*
X231480530Y-83791846D02*
X231432911Y-83839465D01*
X231432911Y-83839465D02*
X231385292Y-83791846D01*
X231385292Y-83791846D02*
X231432911Y-83744227D01*
X231432911Y-83744227D02*
X231432911Y-83839465D01*
X228337673Y-85973219D02*
X228337673Y-84973219D01*
X228337673Y-84973219D02*
X228575768Y-84973219D01*
X228575768Y-84973219D02*
X228718625Y-85020838D01*
X228718625Y-85020838D02*
X228813863Y-85116076D01*
X228813863Y-85116076D02*
X228861482Y-85211314D01*
X228861482Y-85211314D02*
X228909101Y-85401790D01*
X228909101Y-85401790D02*
X228909101Y-85544647D01*
X228909101Y-85544647D02*
X228861482Y-85735123D01*
X228861482Y-85735123D02*
X228813863Y-85830361D01*
X228813863Y-85830361D02*
X228718625Y-85925600D01*
X228718625Y-85925600D02*
X228575768Y-85973219D01*
X228575768Y-85973219D02*
X228337673Y-85973219D01*
X229337673Y-85973219D02*
X229337673Y-84973219D01*
X229337673Y-84973219D02*
X229671006Y-85687504D01*
X229671006Y-85687504D02*
X230004339Y-84973219D01*
X230004339Y-84973219D02*
X230004339Y-85973219D01*
X231051958Y-85877980D02*
X231004339Y-85925600D01*
X231004339Y-85925600D02*
X230861482Y-85973219D01*
X230861482Y-85973219D02*
X230766244Y-85973219D01*
X230766244Y-85973219D02*
X230623387Y-85925600D01*
X230623387Y-85925600D02*
X230528149Y-85830361D01*
X230528149Y-85830361D02*
X230480530Y-85735123D01*
X230480530Y-85735123D02*
X230432911Y-85544647D01*
X230432911Y-85544647D02*
X230432911Y-85401790D01*
X230432911Y-85401790D02*
X230480530Y-85211314D01*
X230480530Y-85211314D02*
X230528149Y-85116076D01*
X230528149Y-85116076D02*
X230623387Y-85020838D01*
X230623387Y-85020838D02*
X230766244Y-84973219D01*
X230766244Y-84973219D02*
X230861482Y-84973219D01*
X230861482Y-84973219D02*
X231004339Y-85020838D01*
X231004339Y-85020838D02*
X231051958Y-85068457D01*
X231480530Y-84973219D02*
X231480530Y-85782742D01*
X231480530Y-85782742D02*
X231528149Y-85877980D01*
X231528149Y-85877980D02*
X231575768Y-85925600D01*
X231575768Y-85925600D02*
X231671006Y-85973219D01*
X231671006Y-85973219D02*
X231861482Y-85973219D01*
X231861482Y-85973219D02*
X231956720Y-85925600D01*
X231956720Y-85925600D02*
X232004339Y-85877980D01*
X232004339Y-85877980D02*
X232051958Y-85782742D01*
X232051958Y-85782742D02*
X232051958Y-84973219D01*
X162374054Y-129105600D02*
X162516911Y-129153219D01*
X162516911Y-129153219D02*
X162755006Y-129153219D01*
X162755006Y-129153219D02*
X162850244Y-129105600D01*
X162850244Y-129105600D02*
X162897863Y-129057980D01*
X162897863Y-129057980D02*
X162945482Y-128962742D01*
X162945482Y-128962742D02*
X162945482Y-128867504D01*
X162945482Y-128867504D02*
X162897863Y-128772266D01*
X162897863Y-128772266D02*
X162850244Y-128724647D01*
X162850244Y-128724647D02*
X162755006Y-128677028D01*
X162755006Y-128677028D02*
X162564530Y-128629409D01*
X162564530Y-128629409D02*
X162469292Y-128581790D01*
X162469292Y-128581790D02*
X162421673Y-128534171D01*
X162421673Y-128534171D02*
X162374054Y-128438933D01*
X162374054Y-128438933D02*
X162374054Y-128343695D01*
X162374054Y-128343695D02*
X162421673Y-128248457D01*
X162421673Y-128248457D02*
X162469292Y-128200838D01*
X162469292Y-128200838D02*
X162564530Y-128153219D01*
X162564530Y-128153219D02*
X162802625Y-128153219D01*
X162802625Y-128153219D02*
X162945482Y-128200838D01*
X163278816Y-128153219D02*
X163516911Y-129153219D01*
X163516911Y-129153219D02*
X163707387Y-128438933D01*
X163707387Y-128438933D02*
X163897863Y-129153219D01*
X163897863Y-129153219D02*
X164135959Y-128153219D01*
X164945482Y-128153219D02*
X164755006Y-128153219D01*
X164755006Y-128153219D02*
X164659768Y-128200838D01*
X164659768Y-128200838D02*
X164612149Y-128248457D01*
X164612149Y-128248457D02*
X164516911Y-128391314D01*
X164516911Y-128391314D02*
X164469292Y-128581790D01*
X164469292Y-128581790D02*
X164469292Y-128962742D01*
X164469292Y-128962742D02*
X164516911Y-129057980D01*
X164516911Y-129057980D02*
X164564530Y-129105600D01*
X164564530Y-129105600D02*
X164659768Y-129153219D01*
X164659768Y-129153219D02*
X164850244Y-129153219D01*
X164850244Y-129153219D02*
X164945482Y-129105600D01*
X164945482Y-129105600D02*
X164993101Y-129057980D01*
X164993101Y-129057980D02*
X165040720Y-128962742D01*
X165040720Y-128962742D02*
X165040720Y-128724647D01*
X165040720Y-128724647D02*
X164993101Y-128629409D01*
X164993101Y-128629409D02*
X164945482Y-128581790D01*
X164945482Y-128581790D02*
X164850244Y-128534171D01*
X164850244Y-128534171D02*
X164659768Y-128534171D01*
X164659768Y-128534171D02*
X164564530Y-128581790D01*
X164564530Y-128581790D02*
X164516911Y-128629409D01*
X164516911Y-128629409D02*
X164469292Y-128724647D01*
X166231197Y-128153219D02*
X166231197Y-128962742D01*
X166231197Y-128962742D02*
X166278816Y-129057980D01*
X166278816Y-129057980D02*
X166326435Y-129105600D01*
X166326435Y-129105600D02*
X166421673Y-129153219D01*
X166421673Y-129153219D02*
X166612149Y-129153219D01*
X166612149Y-129153219D02*
X166707387Y-129105600D01*
X166707387Y-129105600D02*
X166755006Y-129057980D01*
X166755006Y-129057980D02*
X166802625Y-128962742D01*
X166802625Y-128962742D02*
X166802625Y-128153219D01*
X167231197Y-128867504D02*
X167707387Y-128867504D01*
X167135959Y-129153219D02*
X167469292Y-128153219D01*
X167469292Y-128153219D02*
X167802625Y-129153219D01*
X168707387Y-129153219D02*
X168374054Y-128677028D01*
X168135959Y-129153219D02*
X168135959Y-128153219D01*
X168135959Y-128153219D02*
X168516911Y-128153219D01*
X168516911Y-128153219D02*
X168612149Y-128200838D01*
X168612149Y-128200838D02*
X168659768Y-128248457D01*
X168659768Y-128248457D02*
X168707387Y-128343695D01*
X168707387Y-128343695D02*
X168707387Y-128486552D01*
X168707387Y-128486552D02*
X168659768Y-128581790D01*
X168659768Y-128581790D02*
X168612149Y-128629409D01*
X168612149Y-128629409D02*
X168516911Y-128677028D01*
X168516911Y-128677028D02*
X168135959Y-128677028D01*
X168993102Y-128153219D02*
X169564530Y-128153219D01*
X169278816Y-129153219D02*
X169278816Y-128153219D01*
X170659769Y-129153219D02*
X170659769Y-128153219D01*
X170659769Y-128153219D02*
X170897864Y-128153219D01*
X170897864Y-128153219D02*
X171040721Y-128200838D01*
X171040721Y-128200838D02*
X171135959Y-128296076D01*
X171135959Y-128296076D02*
X171183578Y-128391314D01*
X171183578Y-128391314D02*
X171231197Y-128581790D01*
X171231197Y-128581790D02*
X171231197Y-128724647D01*
X171231197Y-128724647D02*
X171183578Y-128915123D01*
X171183578Y-128915123D02*
X171135959Y-129010361D01*
X171135959Y-129010361D02*
X171040721Y-129105600D01*
X171040721Y-129105600D02*
X170897864Y-129153219D01*
X170897864Y-129153219D02*
X170659769Y-129153219D01*
X182995673Y-93085219D02*
X182995673Y-92085219D01*
X183424244Y-92180457D02*
X183471863Y-92132838D01*
X183471863Y-92132838D02*
X183567101Y-92085219D01*
X183567101Y-92085219D02*
X183805196Y-92085219D01*
X183805196Y-92085219D02*
X183900434Y-92132838D01*
X183900434Y-92132838D02*
X183948053Y-92180457D01*
X183948053Y-92180457D02*
X183995672Y-92275695D01*
X183995672Y-92275695D02*
X183995672Y-92370933D01*
X183995672Y-92370933D02*
X183948053Y-92513790D01*
X183948053Y-92513790D02*
X183376625Y-93085219D01*
X183376625Y-93085219D02*
X183995672Y-93085219D01*
X184995672Y-92989980D02*
X184948053Y-93037600D01*
X184948053Y-93037600D02*
X184805196Y-93085219D01*
X184805196Y-93085219D02*
X184709958Y-93085219D01*
X184709958Y-93085219D02*
X184567101Y-93037600D01*
X184567101Y-93037600D02*
X184471863Y-92942361D01*
X184471863Y-92942361D02*
X184424244Y-92847123D01*
X184424244Y-92847123D02*
X184376625Y-92656647D01*
X184376625Y-92656647D02*
X184376625Y-92513790D01*
X184376625Y-92513790D02*
X184424244Y-92323314D01*
X184424244Y-92323314D02*
X184471863Y-92228076D01*
X184471863Y-92228076D02*
X184567101Y-92132838D01*
X184567101Y-92132838D02*
X184709958Y-92085219D01*
X184709958Y-92085219D02*
X184805196Y-92085219D01*
X184805196Y-92085219D02*
X184948053Y-92132838D01*
X184948053Y-92132838D02*
X184995672Y-92180457D01*
X162374054Y-85925600D02*
X162516911Y-85973219D01*
X162516911Y-85973219D02*
X162755006Y-85973219D01*
X162755006Y-85973219D02*
X162850244Y-85925600D01*
X162850244Y-85925600D02*
X162897863Y-85877980D01*
X162897863Y-85877980D02*
X162945482Y-85782742D01*
X162945482Y-85782742D02*
X162945482Y-85687504D01*
X162945482Y-85687504D02*
X162897863Y-85592266D01*
X162897863Y-85592266D02*
X162850244Y-85544647D01*
X162850244Y-85544647D02*
X162755006Y-85497028D01*
X162755006Y-85497028D02*
X162564530Y-85449409D01*
X162564530Y-85449409D02*
X162469292Y-85401790D01*
X162469292Y-85401790D02*
X162421673Y-85354171D01*
X162421673Y-85354171D02*
X162374054Y-85258933D01*
X162374054Y-85258933D02*
X162374054Y-85163695D01*
X162374054Y-85163695D02*
X162421673Y-85068457D01*
X162421673Y-85068457D02*
X162469292Y-85020838D01*
X162469292Y-85020838D02*
X162564530Y-84973219D01*
X162564530Y-84973219D02*
X162802625Y-84973219D01*
X162802625Y-84973219D02*
X162945482Y-85020838D01*
X163278816Y-84973219D02*
X163516911Y-85973219D01*
X163516911Y-85973219D02*
X163707387Y-85258933D01*
X163707387Y-85258933D02*
X163897863Y-85973219D01*
X163897863Y-85973219D02*
X164135959Y-84973219D01*
X164421673Y-84973219D02*
X165040720Y-84973219D01*
X165040720Y-84973219D02*
X164707387Y-85354171D01*
X164707387Y-85354171D02*
X164850244Y-85354171D01*
X164850244Y-85354171D02*
X164945482Y-85401790D01*
X164945482Y-85401790D02*
X164993101Y-85449409D01*
X164993101Y-85449409D02*
X165040720Y-85544647D01*
X165040720Y-85544647D02*
X165040720Y-85782742D01*
X165040720Y-85782742D02*
X164993101Y-85877980D01*
X164993101Y-85877980D02*
X164945482Y-85925600D01*
X164945482Y-85925600D02*
X164850244Y-85973219D01*
X164850244Y-85973219D02*
X164564530Y-85973219D01*
X164564530Y-85973219D02*
X164469292Y-85925600D01*
X164469292Y-85925600D02*
X164421673Y-85877980D01*
X166231197Y-85973219D02*
X166231197Y-84973219D01*
X166659768Y-85068457D02*
X166707387Y-85020838D01*
X166707387Y-85020838D02*
X166802625Y-84973219D01*
X166802625Y-84973219D02*
X167040720Y-84973219D01*
X167040720Y-84973219D02*
X167135958Y-85020838D01*
X167135958Y-85020838D02*
X167183577Y-85068457D01*
X167183577Y-85068457D02*
X167231196Y-85163695D01*
X167231196Y-85163695D02*
X167231196Y-85258933D01*
X167231196Y-85258933D02*
X167183577Y-85401790D01*
X167183577Y-85401790D02*
X166612149Y-85973219D01*
X166612149Y-85973219D02*
X167231196Y-85973219D01*
X168231196Y-85877980D02*
X168183577Y-85925600D01*
X168183577Y-85925600D02*
X168040720Y-85973219D01*
X168040720Y-85973219D02*
X167945482Y-85973219D01*
X167945482Y-85973219D02*
X167802625Y-85925600D01*
X167802625Y-85925600D02*
X167707387Y-85830361D01*
X167707387Y-85830361D02*
X167659768Y-85735123D01*
X167659768Y-85735123D02*
X167612149Y-85544647D01*
X167612149Y-85544647D02*
X167612149Y-85401790D01*
X167612149Y-85401790D02*
X167659768Y-85211314D01*
X167659768Y-85211314D02*
X167707387Y-85116076D01*
X167707387Y-85116076D02*
X167802625Y-85020838D01*
X167802625Y-85020838D02*
X167945482Y-84973219D01*
X167945482Y-84973219D02*
X168040720Y-84973219D01*
X168040720Y-84973219D02*
X168183577Y-85020838D01*
X168183577Y-85020838D02*
X168231196Y-85068457D01*
X235855006Y-118985409D02*
X235521673Y-118985409D01*
X235521673Y-119509219D02*
X235521673Y-118509219D01*
X235521673Y-118509219D02*
X235997863Y-118509219D01*
X236569292Y-118509219D02*
X236759768Y-118509219D01*
X236759768Y-118509219D02*
X236855006Y-118556838D01*
X236855006Y-118556838D02*
X236950244Y-118652076D01*
X236950244Y-118652076D02*
X236997863Y-118842552D01*
X236997863Y-118842552D02*
X236997863Y-119175885D01*
X236997863Y-119175885D02*
X236950244Y-119366361D01*
X236950244Y-119366361D02*
X236855006Y-119461600D01*
X236855006Y-119461600D02*
X236759768Y-119509219D01*
X236759768Y-119509219D02*
X236569292Y-119509219D01*
X236569292Y-119509219D02*
X236474054Y-119461600D01*
X236474054Y-119461600D02*
X236378816Y-119366361D01*
X236378816Y-119366361D02*
X236331197Y-119175885D01*
X236331197Y-119175885D02*
X236331197Y-118842552D01*
X236331197Y-118842552D02*
X236378816Y-118652076D01*
X236378816Y-118652076D02*
X236474054Y-118556838D01*
X236474054Y-118556838D02*
X236569292Y-118509219D01*
X237997863Y-119509219D02*
X237664530Y-119033028D01*
X237426435Y-119509219D02*
X237426435Y-118509219D01*
X237426435Y-118509219D02*
X237807387Y-118509219D01*
X237807387Y-118509219D02*
X237902625Y-118556838D01*
X237902625Y-118556838D02*
X237950244Y-118604457D01*
X237950244Y-118604457D02*
X237997863Y-118699695D01*
X237997863Y-118699695D02*
X237997863Y-118842552D01*
X237997863Y-118842552D02*
X237950244Y-118937790D01*
X237950244Y-118937790D02*
X237902625Y-118985409D01*
X237902625Y-118985409D02*
X237807387Y-119033028D01*
X237807387Y-119033028D02*
X237426435Y-119033028D01*
X238997863Y-119413980D02*
X238950244Y-119461600D01*
X238950244Y-119461600D02*
X238807387Y-119509219D01*
X238807387Y-119509219D02*
X238712149Y-119509219D01*
X238712149Y-119509219D02*
X238569292Y-119461600D01*
X238569292Y-119461600D02*
X238474054Y-119366361D01*
X238474054Y-119366361D02*
X238426435Y-119271123D01*
X238426435Y-119271123D02*
X238378816Y-119080647D01*
X238378816Y-119080647D02*
X238378816Y-118937790D01*
X238378816Y-118937790D02*
X238426435Y-118747314D01*
X238426435Y-118747314D02*
X238474054Y-118652076D01*
X238474054Y-118652076D02*
X238569292Y-118556838D01*
X238569292Y-118556838D02*
X238712149Y-118509219D01*
X238712149Y-118509219D02*
X238807387Y-118509219D01*
X238807387Y-118509219D02*
X238950244Y-118556838D01*
X238950244Y-118556838D02*
X238997863Y-118604457D01*
X239426435Y-118985409D02*
X239759768Y-118985409D01*
X239902625Y-119509219D02*
X239426435Y-119509219D01*
X239426435Y-119509219D02*
X239426435Y-118509219D01*
X239426435Y-118509219D02*
X239902625Y-118509219D01*
X162120054Y-118437600D02*
X162262911Y-118485219D01*
X162262911Y-118485219D02*
X162501006Y-118485219D01*
X162501006Y-118485219D02*
X162596244Y-118437600D01*
X162596244Y-118437600D02*
X162643863Y-118389980D01*
X162643863Y-118389980D02*
X162691482Y-118294742D01*
X162691482Y-118294742D02*
X162691482Y-118199504D01*
X162691482Y-118199504D02*
X162643863Y-118104266D01*
X162643863Y-118104266D02*
X162596244Y-118056647D01*
X162596244Y-118056647D02*
X162501006Y-118009028D01*
X162501006Y-118009028D02*
X162310530Y-117961409D01*
X162310530Y-117961409D02*
X162215292Y-117913790D01*
X162215292Y-117913790D02*
X162167673Y-117866171D01*
X162167673Y-117866171D02*
X162120054Y-117770933D01*
X162120054Y-117770933D02*
X162120054Y-117675695D01*
X162120054Y-117675695D02*
X162167673Y-117580457D01*
X162167673Y-117580457D02*
X162215292Y-117532838D01*
X162215292Y-117532838D02*
X162310530Y-117485219D01*
X162310530Y-117485219D02*
X162548625Y-117485219D01*
X162548625Y-117485219D02*
X162691482Y-117532838D01*
X163024816Y-117485219D02*
X163262911Y-118485219D01*
X163262911Y-118485219D02*
X163453387Y-117770933D01*
X163453387Y-117770933D02*
X163643863Y-118485219D01*
X163643863Y-118485219D02*
X163881959Y-117485219D01*
X164167673Y-117485219D02*
X164834339Y-117485219D01*
X164834339Y-117485219D02*
X164405768Y-118485219D01*
X165977197Y-117485219D02*
X165977197Y-118294742D01*
X165977197Y-118294742D02*
X166024816Y-118389980D01*
X166024816Y-118389980D02*
X166072435Y-118437600D01*
X166072435Y-118437600D02*
X166167673Y-118485219D01*
X166167673Y-118485219D02*
X166358149Y-118485219D01*
X166358149Y-118485219D02*
X166453387Y-118437600D01*
X166453387Y-118437600D02*
X166501006Y-118389980D01*
X166501006Y-118389980D02*
X166548625Y-118294742D01*
X166548625Y-118294742D02*
X166548625Y-117485219D01*
X166977197Y-118199504D02*
X167453387Y-118199504D01*
X166881959Y-118485219D02*
X167215292Y-117485219D01*
X167215292Y-117485219D02*
X167548625Y-118485219D01*
X168453387Y-118485219D02*
X168120054Y-118009028D01*
X167881959Y-118485219D02*
X167881959Y-117485219D01*
X167881959Y-117485219D02*
X168262911Y-117485219D01*
X168262911Y-117485219D02*
X168358149Y-117532838D01*
X168358149Y-117532838D02*
X168405768Y-117580457D01*
X168405768Y-117580457D02*
X168453387Y-117675695D01*
X168453387Y-117675695D02*
X168453387Y-117818552D01*
X168453387Y-117818552D02*
X168405768Y-117913790D01*
X168405768Y-117913790D02*
X168358149Y-117961409D01*
X168358149Y-117961409D02*
X168262911Y-118009028D01*
X168262911Y-118009028D02*
X167881959Y-118009028D01*
X168739102Y-117485219D02*
X169310530Y-117485219D01*
X169024816Y-118485219D02*
X169024816Y-117485219D01*
X170739102Y-117961409D02*
X170881959Y-118009028D01*
X170881959Y-118009028D02*
X170929578Y-118056647D01*
X170929578Y-118056647D02*
X170977197Y-118151885D01*
X170977197Y-118151885D02*
X170977197Y-118294742D01*
X170977197Y-118294742D02*
X170929578Y-118389980D01*
X170929578Y-118389980D02*
X170881959Y-118437600D01*
X170881959Y-118437600D02*
X170786721Y-118485219D01*
X170786721Y-118485219D02*
X170405769Y-118485219D01*
X170405769Y-118485219D02*
X170405769Y-117485219D01*
X170405769Y-117485219D02*
X170739102Y-117485219D01*
X170739102Y-117485219D02*
X170834340Y-117532838D01*
X170834340Y-117532838D02*
X170881959Y-117580457D01*
X170881959Y-117580457D02*
X170929578Y-117675695D01*
X170929578Y-117675695D02*
X170929578Y-117770933D01*
X170929578Y-117770933D02*
X170881959Y-117866171D01*
X170881959Y-117866171D02*
X170834340Y-117913790D01*
X170834340Y-117913790D02*
X170739102Y-117961409D01*
X170739102Y-117961409D02*
X170405769Y-117961409D01*
X162120054Y-96593600D02*
X162262911Y-96641219D01*
X162262911Y-96641219D02*
X162501006Y-96641219D01*
X162501006Y-96641219D02*
X162596244Y-96593600D01*
X162596244Y-96593600D02*
X162643863Y-96545980D01*
X162643863Y-96545980D02*
X162691482Y-96450742D01*
X162691482Y-96450742D02*
X162691482Y-96355504D01*
X162691482Y-96355504D02*
X162643863Y-96260266D01*
X162643863Y-96260266D02*
X162596244Y-96212647D01*
X162596244Y-96212647D02*
X162501006Y-96165028D01*
X162501006Y-96165028D02*
X162310530Y-96117409D01*
X162310530Y-96117409D02*
X162215292Y-96069790D01*
X162215292Y-96069790D02*
X162167673Y-96022171D01*
X162167673Y-96022171D02*
X162120054Y-95926933D01*
X162120054Y-95926933D02*
X162120054Y-95831695D01*
X162120054Y-95831695D02*
X162167673Y-95736457D01*
X162167673Y-95736457D02*
X162215292Y-95688838D01*
X162215292Y-95688838D02*
X162310530Y-95641219D01*
X162310530Y-95641219D02*
X162548625Y-95641219D01*
X162548625Y-95641219D02*
X162691482Y-95688838D01*
X163024816Y-95641219D02*
X163262911Y-96641219D01*
X163262911Y-96641219D02*
X163453387Y-95926933D01*
X163453387Y-95926933D02*
X163643863Y-96641219D01*
X163643863Y-96641219D02*
X163881959Y-95641219D01*
X164739101Y-95641219D02*
X164262911Y-95641219D01*
X164262911Y-95641219D02*
X164215292Y-96117409D01*
X164215292Y-96117409D02*
X164262911Y-96069790D01*
X164262911Y-96069790D02*
X164358149Y-96022171D01*
X164358149Y-96022171D02*
X164596244Y-96022171D01*
X164596244Y-96022171D02*
X164691482Y-96069790D01*
X164691482Y-96069790D02*
X164739101Y-96117409D01*
X164739101Y-96117409D02*
X164786720Y-96212647D01*
X164786720Y-96212647D02*
X164786720Y-96450742D01*
X164786720Y-96450742D02*
X164739101Y-96545980D01*
X164739101Y-96545980D02*
X164691482Y-96593600D01*
X164691482Y-96593600D02*
X164596244Y-96641219D01*
X164596244Y-96641219D02*
X164358149Y-96641219D01*
X164358149Y-96641219D02*
X164262911Y-96593600D01*
X164262911Y-96593600D02*
X164215292Y-96545980D01*
X165977197Y-95641219D02*
X165977197Y-96450742D01*
X165977197Y-96450742D02*
X166024816Y-96545980D01*
X166024816Y-96545980D02*
X166072435Y-96593600D01*
X166072435Y-96593600D02*
X166167673Y-96641219D01*
X166167673Y-96641219D02*
X166358149Y-96641219D01*
X166358149Y-96641219D02*
X166453387Y-96593600D01*
X166453387Y-96593600D02*
X166501006Y-96545980D01*
X166501006Y-96545980D02*
X166548625Y-96450742D01*
X166548625Y-96450742D02*
X166548625Y-95641219D01*
X166977197Y-96355504D02*
X167453387Y-96355504D01*
X166881959Y-96641219D02*
X167215292Y-95641219D01*
X167215292Y-95641219D02*
X167548625Y-96641219D01*
X168453387Y-96641219D02*
X168120054Y-96165028D01*
X167881959Y-96641219D02*
X167881959Y-95641219D01*
X167881959Y-95641219D02*
X168262911Y-95641219D01*
X168262911Y-95641219D02*
X168358149Y-95688838D01*
X168358149Y-95688838D02*
X168405768Y-95736457D01*
X168405768Y-95736457D02*
X168453387Y-95831695D01*
X168453387Y-95831695D02*
X168453387Y-95974552D01*
X168453387Y-95974552D02*
X168405768Y-96069790D01*
X168405768Y-96069790D02*
X168358149Y-96117409D01*
X168358149Y-96117409D02*
X168262911Y-96165028D01*
X168262911Y-96165028D02*
X167881959Y-96165028D01*
X168739102Y-95641219D02*
X169310530Y-95641219D01*
X169024816Y-96641219D02*
X169024816Y-95641219D01*
X170977197Y-96545980D02*
X170929578Y-96593600D01*
X170929578Y-96593600D02*
X170786721Y-96641219D01*
X170786721Y-96641219D02*
X170691483Y-96641219D01*
X170691483Y-96641219D02*
X170548626Y-96593600D01*
X170548626Y-96593600D02*
X170453388Y-96498361D01*
X170453388Y-96498361D02*
X170405769Y-96403123D01*
X170405769Y-96403123D02*
X170358150Y-96212647D01*
X170358150Y-96212647D02*
X170358150Y-96069790D01*
X170358150Y-96069790D02*
X170405769Y-95879314D01*
X170405769Y-95879314D02*
X170453388Y-95784076D01*
X170453388Y-95784076D02*
X170548626Y-95688838D01*
X170548626Y-95688838D02*
X170691483Y-95641219D01*
X170691483Y-95641219D02*
X170786721Y-95641219D01*
X170786721Y-95641219D02*
X170929578Y-95688838D01*
X170929578Y-95688838D02*
X170977197Y-95736457D01*
X124694720Y-106248364D02*
X124694720Y-107462650D01*
X124694720Y-107462650D02*
X124766149Y-107605507D01*
X124766149Y-107605507D02*
X124837578Y-107676936D01*
X124837578Y-107676936D02*
X124980435Y-107748364D01*
X124980435Y-107748364D02*
X125266149Y-107748364D01*
X125266149Y-107748364D02*
X125409006Y-107676936D01*
X125409006Y-107676936D02*
X125480435Y-107605507D01*
X125480435Y-107605507D02*
X125551863Y-107462650D01*
X125551863Y-107462650D02*
X125551863Y-106248364D01*
X126194721Y-107676936D02*
X126409007Y-107748364D01*
X126409007Y-107748364D02*
X126766149Y-107748364D01*
X126766149Y-107748364D02*
X126909007Y-107676936D01*
X126909007Y-107676936D02*
X126980435Y-107605507D01*
X126980435Y-107605507D02*
X127051864Y-107462650D01*
X127051864Y-107462650D02*
X127051864Y-107319793D01*
X127051864Y-107319793D02*
X126980435Y-107176936D01*
X126980435Y-107176936D02*
X126909007Y-107105507D01*
X126909007Y-107105507D02*
X126766149Y-107034078D01*
X126766149Y-107034078D02*
X126480435Y-106962650D01*
X126480435Y-106962650D02*
X126337578Y-106891221D01*
X126337578Y-106891221D02*
X126266149Y-106819793D01*
X126266149Y-106819793D02*
X126194721Y-106676936D01*
X126194721Y-106676936D02*
X126194721Y-106534078D01*
X126194721Y-106534078D02*
X126266149Y-106391221D01*
X126266149Y-106391221D02*
X126337578Y-106319793D01*
X126337578Y-106319793D02*
X126480435Y-106248364D01*
X126480435Y-106248364D02*
X126837578Y-106248364D01*
X126837578Y-106248364D02*
X127051864Y-106319793D01*
X128194720Y-106962650D02*
X128409006Y-107034078D01*
X128409006Y-107034078D02*
X128480435Y-107105507D01*
X128480435Y-107105507D02*
X128551863Y-107248364D01*
X128551863Y-107248364D02*
X128551863Y-107462650D01*
X128551863Y-107462650D02*
X128480435Y-107605507D01*
X128480435Y-107605507D02*
X128409006Y-107676936D01*
X128409006Y-107676936D02*
X128266149Y-107748364D01*
X128266149Y-107748364D02*
X127694720Y-107748364D01*
X127694720Y-107748364D02*
X127694720Y-106248364D01*
X127694720Y-106248364D02*
X128194720Y-106248364D01*
X128194720Y-106248364D02*
X128337578Y-106319793D01*
X128337578Y-106319793D02*
X128409006Y-106391221D01*
X128409006Y-106391221D02*
X128480435Y-106534078D01*
X128480435Y-106534078D02*
X128480435Y-106676936D01*
X128480435Y-106676936D02*
X128409006Y-106819793D01*
X128409006Y-106819793D02*
X128337578Y-106891221D01*
X128337578Y-106891221D02*
X128194720Y-106962650D01*
X128194720Y-106962650D02*
X127694720Y-106962650D01*
X130266149Y-107319793D02*
X130980435Y-107319793D01*
X130123292Y-107748364D02*
X130623292Y-106248364D01*
X130623292Y-106248364D02*
X131123292Y-107748364D01*
X125551863Y-110020423D02*
X125480435Y-110091852D01*
X125480435Y-110091852D02*
X125266149Y-110163280D01*
X125266149Y-110163280D02*
X125123292Y-110163280D01*
X125123292Y-110163280D02*
X124909006Y-110091852D01*
X124909006Y-110091852D02*
X124766149Y-109948994D01*
X124766149Y-109948994D02*
X124694720Y-109806137D01*
X124694720Y-109806137D02*
X124623292Y-109520423D01*
X124623292Y-109520423D02*
X124623292Y-109306137D01*
X124623292Y-109306137D02*
X124694720Y-109020423D01*
X124694720Y-109020423D02*
X124766149Y-108877566D01*
X124766149Y-108877566D02*
X124909006Y-108734709D01*
X124909006Y-108734709D02*
X125123292Y-108663280D01*
X125123292Y-108663280D02*
X125266149Y-108663280D01*
X125266149Y-108663280D02*
X125480435Y-108734709D01*
X125480435Y-108734709D02*
X125551863Y-108806137D01*
X126194720Y-110163280D02*
X126194720Y-108663280D01*
X126194720Y-109377566D02*
X127051863Y-109377566D01*
X127051863Y-110163280D02*
X127051863Y-108663280D01*
X128837578Y-109734709D02*
X129551864Y-109734709D01*
X128694721Y-110163280D02*
X129194721Y-108663280D01*
X129194721Y-108663280D02*
X129694721Y-110163280D01*
X130194720Y-110020423D02*
X130266149Y-110091852D01*
X130266149Y-110091852D02*
X130194720Y-110163280D01*
X130194720Y-110163280D02*
X130123292Y-110091852D01*
X130123292Y-110091852D02*
X130194720Y-110020423D01*
X130194720Y-110020423D02*
X130194720Y-110163280D01*
X130194720Y-109234709D02*
X130266149Y-109306137D01*
X130266149Y-109306137D02*
X130194720Y-109377566D01*
X130194720Y-109377566D02*
X130123292Y-109306137D01*
X130123292Y-109306137D02*
X130194720Y-109234709D01*
X130194720Y-109234709D02*
X130194720Y-109377566D01*
X130909006Y-108663280D02*
X130909006Y-109877566D01*
X130909006Y-109877566D02*
X130980435Y-110020423D01*
X130980435Y-110020423D02*
X131051864Y-110091852D01*
X131051864Y-110091852D02*
X131194721Y-110163280D01*
X131194721Y-110163280D02*
X131480435Y-110163280D01*
X131480435Y-110163280D02*
X131623292Y-110091852D01*
X131623292Y-110091852D02*
X131694721Y-110020423D01*
X131694721Y-110020423D02*
X131766149Y-109877566D01*
X131766149Y-109877566D02*
X131766149Y-108663280D01*
X132409007Y-109734709D02*
X133123293Y-109734709D01*
X132266150Y-110163280D02*
X132766150Y-108663280D01*
X132766150Y-108663280D02*
X133266150Y-110163280D01*
X134623292Y-110163280D02*
X134123292Y-109448994D01*
X133766149Y-110163280D02*
X133766149Y-108663280D01*
X133766149Y-108663280D02*
X134337578Y-108663280D01*
X134337578Y-108663280D02*
X134480435Y-108734709D01*
X134480435Y-108734709D02*
X134551864Y-108806137D01*
X134551864Y-108806137D02*
X134623292Y-108948994D01*
X134623292Y-108948994D02*
X134623292Y-109163280D01*
X134623292Y-109163280D02*
X134551864Y-109306137D01*
X134551864Y-109306137D02*
X134480435Y-109377566D01*
X134480435Y-109377566D02*
X134337578Y-109448994D01*
X134337578Y-109448994D02*
X133766149Y-109448994D01*
X135051864Y-108663280D02*
X135909007Y-108663280D01*
X135480435Y-110163280D02*
X135480435Y-108663280D01*
X137551863Y-110163280D02*
X137551863Y-108663280D01*
X137551863Y-108663280D02*
X137909006Y-108663280D01*
X137909006Y-108663280D02*
X138123292Y-108734709D01*
X138123292Y-108734709D02*
X138266149Y-108877566D01*
X138266149Y-108877566D02*
X138337578Y-109020423D01*
X138337578Y-109020423D02*
X138409006Y-109306137D01*
X138409006Y-109306137D02*
X138409006Y-109520423D01*
X138409006Y-109520423D02*
X138337578Y-109806137D01*
X138337578Y-109806137D02*
X138266149Y-109948994D01*
X138266149Y-109948994D02*
X138123292Y-110091852D01*
X138123292Y-110091852D02*
X137909006Y-110163280D01*
X137909006Y-110163280D02*
X137551863Y-110163280D01*
X125551863Y-112435339D02*
X125480435Y-112506768D01*
X125480435Y-112506768D02*
X125266149Y-112578196D01*
X125266149Y-112578196D02*
X125123292Y-112578196D01*
X125123292Y-112578196D02*
X124909006Y-112506768D01*
X124909006Y-112506768D02*
X124766149Y-112363910D01*
X124766149Y-112363910D02*
X124694720Y-112221053D01*
X124694720Y-112221053D02*
X124623292Y-111935339D01*
X124623292Y-111935339D02*
X124623292Y-111721053D01*
X124623292Y-111721053D02*
X124694720Y-111435339D01*
X124694720Y-111435339D02*
X124766149Y-111292482D01*
X124766149Y-111292482D02*
X124909006Y-111149625D01*
X124909006Y-111149625D02*
X125123292Y-111078196D01*
X125123292Y-111078196D02*
X125266149Y-111078196D01*
X125266149Y-111078196D02*
X125480435Y-111149625D01*
X125480435Y-111149625D02*
X125551863Y-111221053D01*
X126194720Y-112578196D02*
X126194720Y-111078196D01*
X126194720Y-111792482D02*
X127051863Y-111792482D01*
X127051863Y-112578196D02*
X127051863Y-111078196D01*
X129409006Y-111792482D02*
X129623292Y-111863910D01*
X129623292Y-111863910D02*
X129694721Y-111935339D01*
X129694721Y-111935339D02*
X129766149Y-112078196D01*
X129766149Y-112078196D02*
X129766149Y-112292482D01*
X129766149Y-112292482D02*
X129694721Y-112435339D01*
X129694721Y-112435339D02*
X129623292Y-112506768D01*
X129623292Y-112506768D02*
X129480435Y-112578196D01*
X129480435Y-112578196D02*
X128909006Y-112578196D01*
X128909006Y-112578196D02*
X128909006Y-111078196D01*
X128909006Y-111078196D02*
X129409006Y-111078196D01*
X129409006Y-111078196D02*
X129551864Y-111149625D01*
X129551864Y-111149625D02*
X129623292Y-111221053D01*
X129623292Y-111221053D02*
X129694721Y-111363910D01*
X129694721Y-111363910D02*
X129694721Y-111506768D01*
X129694721Y-111506768D02*
X129623292Y-111649625D01*
X129623292Y-111649625D02*
X129551864Y-111721053D01*
X129551864Y-111721053D02*
X129409006Y-111792482D01*
X129409006Y-111792482D02*
X128909006Y-111792482D01*
X130409006Y-112435339D02*
X130480435Y-112506768D01*
X130480435Y-112506768D02*
X130409006Y-112578196D01*
X130409006Y-112578196D02*
X130337578Y-112506768D01*
X130337578Y-112506768D02*
X130409006Y-112435339D01*
X130409006Y-112435339D02*
X130409006Y-112578196D01*
X130409006Y-111649625D02*
X130480435Y-111721053D01*
X130480435Y-111721053D02*
X130409006Y-111792482D01*
X130409006Y-111792482D02*
X130337578Y-111721053D01*
X130337578Y-111721053D02*
X130409006Y-111649625D01*
X130409006Y-111649625D02*
X130409006Y-111792482D01*
X131123292Y-111078196D02*
X131123292Y-112292482D01*
X131123292Y-112292482D02*
X131194721Y-112435339D01*
X131194721Y-112435339D02*
X131266150Y-112506768D01*
X131266150Y-112506768D02*
X131409007Y-112578196D01*
X131409007Y-112578196D02*
X131694721Y-112578196D01*
X131694721Y-112578196D02*
X131837578Y-112506768D01*
X131837578Y-112506768D02*
X131909007Y-112435339D01*
X131909007Y-112435339D02*
X131980435Y-112292482D01*
X131980435Y-112292482D02*
X131980435Y-111078196D01*
X132623293Y-112149625D02*
X133337579Y-112149625D01*
X132480436Y-112578196D02*
X132980436Y-111078196D01*
X132980436Y-111078196D02*
X133480436Y-112578196D01*
X134837578Y-112578196D02*
X134337578Y-111863910D01*
X133980435Y-112578196D02*
X133980435Y-111078196D01*
X133980435Y-111078196D02*
X134551864Y-111078196D01*
X134551864Y-111078196D02*
X134694721Y-111149625D01*
X134694721Y-111149625D02*
X134766150Y-111221053D01*
X134766150Y-111221053D02*
X134837578Y-111363910D01*
X134837578Y-111363910D02*
X134837578Y-111578196D01*
X134837578Y-111578196D02*
X134766150Y-111721053D01*
X134766150Y-111721053D02*
X134694721Y-111792482D01*
X134694721Y-111792482D02*
X134551864Y-111863910D01*
X134551864Y-111863910D02*
X133980435Y-111863910D01*
X135266150Y-111078196D02*
X136123293Y-111078196D01*
X135694721Y-112578196D02*
X135694721Y-111078196D01*
X138623292Y-112435339D02*
X138551864Y-112506768D01*
X138551864Y-112506768D02*
X138337578Y-112578196D01*
X138337578Y-112578196D02*
X138194721Y-112578196D01*
X138194721Y-112578196D02*
X137980435Y-112506768D01*
X137980435Y-112506768D02*
X137837578Y-112363910D01*
X137837578Y-112363910D02*
X137766149Y-112221053D01*
X137766149Y-112221053D02*
X137694721Y-111935339D01*
X137694721Y-111935339D02*
X137694721Y-111721053D01*
X137694721Y-111721053D02*
X137766149Y-111435339D01*
X137766149Y-111435339D02*
X137837578Y-111292482D01*
X137837578Y-111292482D02*
X137980435Y-111149625D01*
X137980435Y-111149625D02*
X138194721Y-111078196D01*
X138194721Y-111078196D02*
X138337578Y-111078196D01*
X138337578Y-111078196D02*
X138551864Y-111149625D01*
X138551864Y-111149625D02*
X138623292Y-111221053D01*
X125551863Y-114850255D02*
X125480435Y-114921684D01*
X125480435Y-114921684D02*
X125266149Y-114993112D01*
X125266149Y-114993112D02*
X125123292Y-114993112D01*
X125123292Y-114993112D02*
X124909006Y-114921684D01*
X124909006Y-114921684D02*
X124766149Y-114778826D01*
X124766149Y-114778826D02*
X124694720Y-114635969D01*
X124694720Y-114635969D02*
X124623292Y-114350255D01*
X124623292Y-114350255D02*
X124623292Y-114135969D01*
X124623292Y-114135969D02*
X124694720Y-113850255D01*
X124694720Y-113850255D02*
X124766149Y-113707398D01*
X124766149Y-113707398D02*
X124909006Y-113564541D01*
X124909006Y-113564541D02*
X125123292Y-113493112D01*
X125123292Y-113493112D02*
X125266149Y-113493112D01*
X125266149Y-113493112D02*
X125480435Y-113564541D01*
X125480435Y-113564541D02*
X125551863Y-113635969D01*
X126194720Y-114993112D02*
X126194720Y-113493112D01*
X126194720Y-114207398D02*
X127051863Y-114207398D01*
X127051863Y-114993112D02*
X127051863Y-113493112D01*
X129766149Y-114850255D02*
X129694721Y-114921684D01*
X129694721Y-114921684D02*
X129480435Y-114993112D01*
X129480435Y-114993112D02*
X129337578Y-114993112D01*
X129337578Y-114993112D02*
X129123292Y-114921684D01*
X129123292Y-114921684D02*
X128980435Y-114778826D01*
X128980435Y-114778826D02*
X128909006Y-114635969D01*
X128909006Y-114635969D02*
X128837578Y-114350255D01*
X128837578Y-114350255D02*
X128837578Y-114135969D01*
X128837578Y-114135969D02*
X128909006Y-113850255D01*
X128909006Y-113850255D02*
X128980435Y-113707398D01*
X128980435Y-113707398D02*
X129123292Y-113564541D01*
X129123292Y-113564541D02*
X129337578Y-113493112D01*
X129337578Y-113493112D02*
X129480435Y-113493112D01*
X129480435Y-113493112D02*
X129694721Y-113564541D01*
X129694721Y-113564541D02*
X129766149Y-113635969D01*
X130409006Y-114850255D02*
X130480435Y-114921684D01*
X130480435Y-114921684D02*
X130409006Y-114993112D01*
X130409006Y-114993112D02*
X130337578Y-114921684D01*
X130337578Y-114921684D02*
X130409006Y-114850255D01*
X130409006Y-114850255D02*
X130409006Y-114993112D01*
X130409006Y-114064541D02*
X130480435Y-114135969D01*
X130480435Y-114135969D02*
X130409006Y-114207398D01*
X130409006Y-114207398D02*
X130337578Y-114135969D01*
X130337578Y-114135969D02*
X130409006Y-114064541D01*
X130409006Y-114064541D02*
X130409006Y-114207398D01*
X131123292Y-113493112D02*
X131123292Y-114707398D01*
X131123292Y-114707398D02*
X131194721Y-114850255D01*
X131194721Y-114850255D02*
X131266150Y-114921684D01*
X131266150Y-114921684D02*
X131409007Y-114993112D01*
X131409007Y-114993112D02*
X131694721Y-114993112D01*
X131694721Y-114993112D02*
X131837578Y-114921684D01*
X131837578Y-114921684D02*
X131909007Y-114850255D01*
X131909007Y-114850255D02*
X131980435Y-114707398D01*
X131980435Y-114707398D02*
X131980435Y-113493112D01*
X132623293Y-114564541D02*
X133337579Y-114564541D01*
X132480436Y-114993112D02*
X132980436Y-113493112D01*
X132980436Y-113493112D02*
X133480436Y-114993112D01*
X134837578Y-114993112D02*
X134337578Y-114278826D01*
X133980435Y-114993112D02*
X133980435Y-113493112D01*
X133980435Y-113493112D02*
X134551864Y-113493112D01*
X134551864Y-113493112D02*
X134694721Y-113564541D01*
X134694721Y-113564541D02*
X134766150Y-113635969D01*
X134766150Y-113635969D02*
X134837578Y-113778826D01*
X134837578Y-113778826D02*
X134837578Y-113993112D01*
X134837578Y-113993112D02*
X134766150Y-114135969D01*
X134766150Y-114135969D02*
X134694721Y-114207398D01*
X134694721Y-114207398D02*
X134551864Y-114278826D01*
X134551864Y-114278826D02*
X133980435Y-114278826D01*
X135266150Y-113493112D02*
X136123293Y-113493112D01*
X135694721Y-114993112D02*
X135694721Y-113493112D01*
X138266149Y-114207398D02*
X138480435Y-114278826D01*
X138480435Y-114278826D02*
X138551864Y-114350255D01*
X138551864Y-114350255D02*
X138623292Y-114493112D01*
X138623292Y-114493112D02*
X138623292Y-114707398D01*
X138623292Y-114707398D02*
X138551864Y-114850255D01*
X138551864Y-114850255D02*
X138480435Y-114921684D01*
X138480435Y-114921684D02*
X138337578Y-114993112D01*
X138337578Y-114993112D02*
X137766149Y-114993112D01*
X137766149Y-114993112D02*
X137766149Y-113493112D01*
X137766149Y-113493112D02*
X138266149Y-113493112D01*
X138266149Y-113493112D02*
X138409007Y-113564541D01*
X138409007Y-113564541D02*
X138480435Y-113635969D01*
X138480435Y-113635969D02*
X138551864Y-113778826D01*
X138551864Y-113778826D02*
X138551864Y-113921684D01*
X138551864Y-113921684D02*
X138480435Y-114064541D01*
X138480435Y-114064541D02*
X138409007Y-114135969D01*
X138409007Y-114135969D02*
X138266149Y-114207398D01*
X138266149Y-114207398D02*
X137766149Y-114207398D01*
X125551863Y-117265171D02*
X125480435Y-117336600D01*
X125480435Y-117336600D02*
X125266149Y-117408028D01*
X125266149Y-117408028D02*
X125123292Y-117408028D01*
X125123292Y-117408028D02*
X124909006Y-117336600D01*
X124909006Y-117336600D02*
X124766149Y-117193742D01*
X124766149Y-117193742D02*
X124694720Y-117050885D01*
X124694720Y-117050885D02*
X124623292Y-116765171D01*
X124623292Y-116765171D02*
X124623292Y-116550885D01*
X124623292Y-116550885D02*
X124694720Y-116265171D01*
X124694720Y-116265171D02*
X124766149Y-116122314D01*
X124766149Y-116122314D02*
X124909006Y-115979457D01*
X124909006Y-115979457D02*
X125123292Y-115908028D01*
X125123292Y-115908028D02*
X125266149Y-115908028D01*
X125266149Y-115908028D02*
X125480435Y-115979457D01*
X125480435Y-115979457D02*
X125551863Y-116050885D01*
X126194720Y-117408028D02*
X126194720Y-115908028D01*
X126194720Y-116622314D02*
X127051863Y-116622314D01*
X127051863Y-117408028D02*
X127051863Y-115908028D01*
X128909006Y-117408028D02*
X128909006Y-115908028D01*
X128909006Y-115908028D02*
X129266149Y-115908028D01*
X129266149Y-115908028D02*
X129480435Y-115979457D01*
X129480435Y-115979457D02*
X129623292Y-116122314D01*
X129623292Y-116122314D02*
X129694721Y-116265171D01*
X129694721Y-116265171D02*
X129766149Y-116550885D01*
X129766149Y-116550885D02*
X129766149Y-116765171D01*
X129766149Y-116765171D02*
X129694721Y-117050885D01*
X129694721Y-117050885D02*
X129623292Y-117193742D01*
X129623292Y-117193742D02*
X129480435Y-117336600D01*
X129480435Y-117336600D02*
X129266149Y-117408028D01*
X129266149Y-117408028D02*
X128909006Y-117408028D01*
X130409006Y-117265171D02*
X130480435Y-117336600D01*
X130480435Y-117336600D02*
X130409006Y-117408028D01*
X130409006Y-117408028D02*
X130337578Y-117336600D01*
X130337578Y-117336600D02*
X130409006Y-117265171D01*
X130409006Y-117265171D02*
X130409006Y-117408028D01*
X130409006Y-116479457D02*
X130480435Y-116550885D01*
X130480435Y-116550885D02*
X130409006Y-116622314D01*
X130409006Y-116622314D02*
X130337578Y-116550885D01*
X130337578Y-116550885D02*
X130409006Y-116479457D01*
X130409006Y-116479457D02*
X130409006Y-116622314D01*
X131123292Y-115908028D02*
X131123292Y-117122314D01*
X131123292Y-117122314D02*
X131194721Y-117265171D01*
X131194721Y-117265171D02*
X131266150Y-117336600D01*
X131266150Y-117336600D02*
X131409007Y-117408028D01*
X131409007Y-117408028D02*
X131694721Y-117408028D01*
X131694721Y-117408028D02*
X131837578Y-117336600D01*
X131837578Y-117336600D02*
X131909007Y-117265171D01*
X131909007Y-117265171D02*
X131980435Y-117122314D01*
X131980435Y-117122314D02*
X131980435Y-115908028D01*
X132623293Y-116979457D02*
X133337579Y-116979457D01*
X132480436Y-117408028D02*
X132980436Y-115908028D01*
X132980436Y-115908028D02*
X133480436Y-117408028D01*
X134837578Y-117408028D02*
X134337578Y-116693742D01*
X133980435Y-117408028D02*
X133980435Y-115908028D01*
X133980435Y-115908028D02*
X134551864Y-115908028D01*
X134551864Y-115908028D02*
X134694721Y-115979457D01*
X134694721Y-115979457D02*
X134766150Y-116050885D01*
X134766150Y-116050885D02*
X134837578Y-116193742D01*
X134837578Y-116193742D02*
X134837578Y-116408028D01*
X134837578Y-116408028D02*
X134766150Y-116550885D01*
X134766150Y-116550885D02*
X134694721Y-116622314D01*
X134694721Y-116622314D02*
X134551864Y-116693742D01*
X134551864Y-116693742D02*
X133980435Y-116693742D01*
X135266150Y-115908028D02*
X136123293Y-115908028D01*
X135694721Y-117408028D02*
X135694721Y-115908028D01*
X137694721Y-116979457D02*
X138409007Y-116979457D01*
X137551864Y-117408028D02*
X138051864Y-115908028D01*
X138051864Y-115908028D02*
X138551864Y-117408028D01*
D11*
X114786809Y-104393999D02*
X114905857Y-104393999D01*
X114858238Y-104513047D02*
X114905857Y-104393999D01*
X114905857Y-104393999D02*
X114858238Y-104274952D01*
X115001095Y-104465428D02*
X114905857Y-104393999D01*
X114905857Y-104393999D02*
X115001095Y-104322571D01*
D12*
X113246819Y-104393999D02*
X113484914Y-104393999D01*
X113389676Y-104632094D02*
X113484914Y-104393999D01*
X113484914Y-104393999D02*
X113389676Y-104155904D01*
X113675390Y-104536856D02*
X113484914Y-104393999D01*
X113484914Y-104393999D02*
X113675390Y-104251142D01*
D13*
%TO.C,TP5003*%
X96268000Y-122051000D02*
X97668000Y-122051000D01*
X96268000Y-123451000D02*
X96268000Y-122051000D01*
X97668000Y-122051000D02*
X97668000Y-123451000D01*
X97668000Y-123451000D02*
X96268000Y-123451000D01*
%TO.C,C7020*%
X152652000Y-102983420D02*
X152652000Y-103264580D01*
X153672000Y-102983420D02*
X153672000Y-103264580D01*
%TO.C,R7012*%
X151146742Y-70343500D02*
X151621258Y-70343500D01*
X151146742Y-71388500D02*
X151621258Y-71388500D01*
%TO.C,C2014*%
X98790580Y-80257000D02*
X98509420Y-80257000D01*
X98790580Y-81277000D02*
X98509420Y-81277000D01*
%TO.C,J8004*%
X194688000Y-95525500D02*
X227968000Y-95525500D01*
X194688000Y-104645500D02*
X194688000Y-95525500D01*
X195988000Y-96835500D02*
X226668000Y-96835500D01*
X195988000Y-103335500D02*
X195988000Y-96835500D01*
X199398000Y-106035500D02*
X200398000Y-106035500D01*
X199898000Y-105035500D02*
X199398000Y-106035500D01*
X200398000Y-106035500D02*
X199898000Y-105035500D01*
X209278000Y-103335500D02*
X195988000Y-103335500D01*
X209278000Y-104645500D02*
X209278000Y-103335500D01*
X213378000Y-103335500D02*
X213378000Y-103335500D01*
X213378000Y-103335500D02*
X213378000Y-104645500D01*
X226668000Y-96835500D02*
X226668000Y-103335500D01*
X226668000Y-103335500D02*
X213378000Y-103335500D01*
X227968000Y-95525500D02*
X227968000Y-104645500D01*
X227968000Y-104645500D02*
X194688000Y-104645500D01*
%TO.C,R2006*%
X116941500Y-106254742D02*
X116941500Y-106729258D01*
X117986500Y-106254742D02*
X117986500Y-106729258D01*
%TO.C,R8036*%
X192771500Y-86406258D02*
X192771500Y-85931742D01*
X193816500Y-86406258D02*
X193816500Y-85931742D01*
%TO.C,R8008*%
X214678500Y-106926758D02*
X214678500Y-106452242D01*
X215723500Y-106926758D02*
X215723500Y-106452242D01*
%TO.C,C6009*%
X124163420Y-85210000D02*
X124444580Y-85210000D01*
X124163420Y-86230000D02*
X124444580Y-86230000D01*
%TO.C,TP6001*%
X102853000Y-76629000D02*
G75*
G02*
X101453000Y-76629000I-700000J0D01*
G01*
X101453000Y-76629000D02*
G75*
G02*
X102853000Y-76629000I700000J0D01*
G01*
%TO.C,U7001*%
X145894000Y-126340000D02*
X143944000Y-126340000D01*
X145894000Y-126340000D02*
X147844000Y-126340000D01*
X145894000Y-131460000D02*
X143944000Y-131460000D01*
X145894000Y-131460000D02*
X147844000Y-131460000D01*
X143194000Y-126435000D02*
X142954000Y-126105000D01*
X143434000Y-126105000D01*
X143194000Y-126435000D01*
G36*
X143194000Y-126435000D02*
G01*
X142954000Y-126105000D01*
X143434000Y-126105000D01*
X143194000Y-126435000D01*
G37*
%TO.C,TP6006*%
X94804000Y-77532000D02*
X96204000Y-77532000D01*
X94804000Y-78932000D02*
X94804000Y-77532000D01*
X96204000Y-77532000D02*
X96204000Y-78932000D01*
X96204000Y-78932000D02*
X94804000Y-78932000D01*
%TO.C,R7015*%
X151146742Y-120889500D02*
X151621258Y-120889500D01*
X151146742Y-121934500D02*
X151621258Y-121934500D01*
%TO.C,R8030*%
X196581500Y-120729742D02*
X196581500Y-121204258D01*
X197626500Y-120729742D02*
X197626500Y-121204258D01*
%TO.C,C2009*%
X120879420Y-102426000D02*
X121160580Y-102426000D01*
X120879420Y-103446000D02*
X121160580Y-103446000D01*
%TO.C,R6004*%
X120987500Y-87006742D02*
X120987500Y-87481258D01*
X122032500Y-87006742D02*
X122032500Y-87481258D01*
%TO.C,TP2001*%
X98490000Y-78232000D02*
G75*
G02*
X97090000Y-78232000I-700000J0D01*
G01*
X97090000Y-78232000D02*
G75*
G02*
X98490000Y-78232000I700000J0D01*
G01*
%TO.C,J8008*%
X181248000Y-74430000D02*
X181248000Y-75430000D01*
X181248000Y-75430000D02*
X182248000Y-74930000D01*
X182248000Y-74930000D02*
X181248000Y-74430000D01*
X182638000Y-69720000D02*
X191758000Y-69720000D01*
X182638000Y-77960000D02*
X183948000Y-77960000D01*
X182638000Y-90300000D02*
X182638000Y-69720000D01*
X183948000Y-71020000D02*
X190448000Y-71020000D01*
X183948000Y-77960000D02*
X183948000Y-71020000D01*
X183948000Y-82060000D02*
X182638000Y-82060000D01*
X183948000Y-82060000D02*
X183948000Y-82060000D01*
X183948000Y-89000000D02*
X183948000Y-82060000D01*
X190448000Y-71020000D02*
X190448000Y-89000000D01*
X190448000Y-89000000D02*
X183948000Y-89000000D01*
X191758000Y-69720000D02*
X191758000Y-90300000D01*
X191758000Y-90300000D02*
X182638000Y-90300000D01*
%TO.C,R8012*%
X222235500Y-120906258D02*
X222235500Y-120431742D01*
X223280500Y-120906258D02*
X223280500Y-120431742D01*
%TO.C,L2001*%
X100630000Y-85692122D02*
X100630000Y-84892878D01*
X101750000Y-85692122D02*
X101750000Y-84892878D01*
%TO.C,U7008*%
X145894000Y-67412000D02*
X143944000Y-67412000D01*
X145894000Y-67412000D02*
X147844000Y-67412000D01*
X145894000Y-72532000D02*
X143944000Y-72532000D01*
X145894000Y-72532000D02*
X147844000Y-72532000D01*
X143194000Y-67507000D02*
X142954000Y-67177000D01*
X143434000Y-67177000D01*
X143194000Y-67507000D01*
G36*
X143194000Y-67507000D02*
G01*
X142954000Y-67177000D01*
X143434000Y-67177000D01*
X143194000Y-67507000D01*
G37*
%TO.C,C6012*%
X114919580Y-72182000D02*
X114638420Y-72182000D01*
X114919580Y-73202000D02*
X114638420Y-73202000D01*
%TO.C,R8029*%
X198674258Y-93711500D02*
X198199742Y-93711500D01*
X198674258Y-94756500D02*
X198199742Y-94756500D01*
%TO.C,R8005*%
X214615500Y-92947258D02*
X214615500Y-92472742D01*
X215660500Y-92947258D02*
X215660500Y-92472742D01*
%TO.C,C5010*%
X113888000Y-134347420D02*
X113888000Y-134628580D01*
X114908000Y-134347420D02*
X114908000Y-134628580D01*
%TO.C,D6001*%
X113368000Y-73481000D02*
X113368000Y-74951000D01*
X113368000Y-74951000D02*
X115653000Y-74951000D01*
X115653000Y-73481000D02*
X113368000Y-73481000D01*
%TO.C,C5014*%
X109867580Y-117923000D02*
X109586420Y-117923000D01*
X109867580Y-118943000D02*
X109586420Y-118943000D01*
%TO.C,R6003*%
X108160500Y-77565258D02*
X108160500Y-77090742D01*
X109205500Y-77565258D02*
X109205500Y-77090742D01*
%TO.C,C6014*%
X114919580Y-70658000D02*
X114638420Y-70658000D01*
X114919580Y-71678000D02*
X114638420Y-71678000D01*
%TO.C,R2015*%
X120845742Y-97333500D02*
X121320258Y-97333500D01*
X120845742Y-98378500D02*
X121320258Y-98378500D01*
%TO.C,J3001*%
X86124000Y-97452000D02*
X86124000Y-98452000D01*
X86124000Y-98452000D02*
X86624000Y-97952000D01*
X86624000Y-97952000D02*
X86124000Y-97452000D01*
X86824000Y-92152000D02*
X91624000Y-92152000D01*
X86824000Y-106252000D02*
X86824000Y-92152000D01*
X91624000Y-106252000D02*
X86824000Y-106252000D01*
X95124000Y-92152000D02*
X99924000Y-92152000D01*
X99924000Y-92152000D02*
X99924000Y-106252000D01*
X99924000Y-106252000D02*
X95124000Y-106252000D01*
%TO.C,C6015*%
X120492000Y-69022580D02*
X120492000Y-68741420D01*
X121512000Y-69022580D02*
X121512000Y-68741420D01*
%TO.C,R2005*%
X118465500Y-106254742D02*
X118465500Y-106729258D01*
X119510500Y-106254742D02*
X119510500Y-106729258D01*
D14*
%TO.C,SW8002*%
X235152000Y-119896000D02*
X241352000Y-119896000D01*
X235152000Y-128516000D02*
X235152000Y-119896000D01*
X241352000Y-119896000D02*
X241352000Y-128516000D01*
X241352000Y-128516000D02*
X235152000Y-128516000D01*
D10*
X244102000Y-127176000D02*
G75*
G02*
X243902000Y-127176000I-100000J0D01*
G01*
X243902000Y-127176000D02*
G75*
G02*
X244102000Y-127176000I100000J0D01*
G01*
D13*
%TO.C,C7016*%
X151243420Y-126236000D02*
X151524580Y-126236000D01*
X151243420Y-127256000D02*
X151524580Y-127256000D01*
%TO.C,C7002*%
X140713580Y-126358000D02*
X140432420Y-126358000D01*
X140713580Y-127378000D02*
X140432420Y-127378000D01*
%TO.C,R7008*%
X151146742Y-91425500D02*
X151621258Y-91425500D01*
X151146742Y-92470500D02*
X151621258Y-92470500D01*
%TO.C,R2007*%
X111861500Y-94791258D02*
X111861500Y-94316742D01*
X112906500Y-94791258D02*
X112906500Y-94316742D01*
%TO.C,Q8004*%
X195912500Y-77434000D02*
X195262500Y-77434000D01*
X195912500Y-77434000D02*
X196562500Y-77434000D01*
X195912500Y-80554000D02*
X195262500Y-80554000D01*
X195912500Y-80554000D02*
X196562500Y-80554000D01*
X197315000Y-80834000D02*
X196835000Y-80834000D01*
X197075000Y-80504000D01*
X197315000Y-80834000D01*
G36*
X197315000Y-80834000D02*
G01*
X196835000Y-80834000D01*
X197075000Y-80504000D01*
X197315000Y-80834000D01*
G37*
%TO.C,TP5004*%
X99954000Y-123005000D02*
G75*
G02*
X98554000Y-123005000I-700000J0D01*
G01*
X98554000Y-123005000D02*
G75*
G02*
X99954000Y-123005000I700000J0D01*
G01*
D14*
%TO.C,SW8003*%
X162000000Y-75573000D02*
X168200000Y-75573000D01*
X162000000Y-84193000D02*
X162000000Y-75573000D01*
X168200000Y-75573000D02*
X168200000Y-84193000D01*
X168200000Y-84193000D02*
X162000000Y-84193000D01*
D10*
X159450000Y-76913000D02*
G75*
G02*
X159250000Y-76913000I-100000J0D01*
G01*
X159250000Y-76913000D02*
G75*
G02*
X159450000Y-76913000I100000J0D01*
G01*
D13*
%TO.C,C7015*%
X151243420Y-119378000D02*
X151524580Y-119378000D01*
X151243420Y-120398000D02*
X151524580Y-120398000D01*
%TO.C,R8020*%
X219695500Y-92947258D02*
X219695500Y-92472742D01*
X220740500Y-92947258D02*
X220740500Y-92472742D01*
%TO.C,R8019*%
X212075500Y-92947258D02*
X212075500Y-92472742D01*
X213120500Y-92947258D02*
X213120500Y-92472742D01*
%TO.C,TP5002*%
X105553000Y-127831000D02*
G75*
G02*
X104153000Y-127831000I-700000J0D01*
G01*
X104153000Y-127831000D02*
G75*
G02*
X105553000Y-127831000I700000J0D01*
G01*
%TO.C,R7009*%
X151146742Y-75931500D02*
X151621258Y-75931500D01*
X151146742Y-76976500D02*
X151621258Y-76976500D01*
%TO.C,C2005*%
X115176000Y-95077580D02*
X115176000Y-94796420D01*
X116196000Y-95077580D02*
X116196000Y-94796420D01*
%TO.C,C5013*%
X118575420Y-132962000D02*
X118856580Y-132962000D01*
X118575420Y-133982000D02*
X118856580Y-133982000D01*
D14*
%TO.C,SW8006*%
X162000000Y-107958000D02*
X168200000Y-107958000D01*
X162000000Y-116578000D02*
X162000000Y-107958000D01*
X168200000Y-107958000D02*
X168200000Y-116578000D01*
X168200000Y-116578000D02*
X162000000Y-116578000D01*
D10*
X159450000Y-109298000D02*
G75*
G02*
X159250000Y-109298000I-100000J0D01*
G01*
X159250000Y-109298000D02*
G75*
G02*
X159450000Y-109298000I100000J0D01*
G01*
D13*
%TO.C,R8015*%
X201915500Y-78977258D02*
X201915500Y-78502742D01*
X202960500Y-78977258D02*
X202960500Y-78502742D01*
%TO.C,R8010*%
X204455500Y-120906258D02*
X204455500Y-120431742D01*
X205500500Y-120906258D02*
X205500500Y-120431742D01*
%TO.C,TP6005*%
X129015000Y-82217000D02*
G75*
G02*
X127615000Y-82217000I-700000J0D01*
G01*
X127615000Y-82217000D02*
G75*
G02*
X129015000Y-82217000I700000J0D01*
G01*
%TO.C,C5006*%
X109867580Y-119447000D02*
X109586420Y-119447000D01*
X109867580Y-120467000D02*
X109586420Y-120467000D01*
%TO.C,U5003*%
X101565500Y-124339000D02*
X100765500Y-124339000D01*
X101565500Y-124339000D02*
X102365500Y-124339000D01*
X101565500Y-127459000D02*
X100765500Y-127459000D01*
X101565500Y-127459000D02*
X102365500Y-127459000D01*
X103105500Y-127739000D02*
X102625500Y-127739000D01*
X102865500Y-127409000D01*
X103105500Y-127739000D01*
G36*
X103105500Y-127739000D02*
G01*
X102625500Y-127739000D01*
X102865500Y-127409000D01*
X103105500Y-127739000D01*
G37*
%TO.C,C2002*%
X120879420Y-100394000D02*
X121160580Y-100394000D01*
X120879420Y-101414000D02*
X121160580Y-101414000D01*
%TO.C,R2004*%
X119989500Y-105746742D02*
X119989500Y-106221258D01*
X121034500Y-105746742D02*
X121034500Y-106221258D01*
%TO.C,R7006*%
X151146742Y-136383500D02*
X151621258Y-136383500D01*
X151146742Y-137428500D02*
X151621258Y-137428500D01*
%TO.C,C6002*%
X122778000Y-69022580D02*
X122778000Y-68741420D01*
X123798000Y-69022580D02*
X123798000Y-68741420D01*
%TO.C,C2007*%
X120879420Y-98870000D02*
X121160580Y-98870000D01*
X120879420Y-99890000D02*
X121160580Y-99890000D01*
%TO.C,R8021*%
X201915500Y-106926758D02*
X201915500Y-106452242D01*
X202960500Y-106926758D02*
X202960500Y-106452242D01*
%TO.C,R8002*%
X214615500Y-78977258D02*
X214615500Y-78502742D01*
X215660500Y-78977258D02*
X215660500Y-78502742D01*
%TO.C,U6003*%
X117027000Y-71204000D02*
X117502000Y-71204000D01*
X117027000Y-71679000D02*
X117027000Y-71204000D01*
X117027000Y-79949000D02*
X117027000Y-80124000D01*
X117502000Y-80424000D02*
X117267000Y-80424000D01*
X126247000Y-71204000D02*
X125772000Y-71204000D01*
X126247000Y-71679000D02*
X126247000Y-71204000D01*
X126247000Y-79949000D02*
X126247000Y-80424000D01*
X126247000Y-80424000D02*
X125772000Y-80424000D01*
X117027000Y-80424000D02*
X116697000Y-80664000D01*
X116697000Y-80184000D01*
X117027000Y-80424000D01*
G36*
X117027000Y-80424000D02*
G01*
X116697000Y-80664000D01*
X116697000Y-80184000D01*
X117027000Y-80424000D01*
G37*
%TO.C,C6001*%
X102219580Y-78024000D02*
X101938420Y-78024000D01*
X102219580Y-79044000D02*
X101938420Y-79044000D01*
%TO.C,R8027*%
X219695500Y-134876258D02*
X219695500Y-134401742D01*
X220740500Y-134876258D02*
X220740500Y-134401742D01*
%TO.C,C7013*%
X151243420Y-133094000D02*
X151524580Y-133094000D01*
X151243420Y-134114000D02*
X151524580Y-134114000D01*
%TO.C,C2006*%
X112128000Y-105602420D02*
X112128000Y-105883580D01*
X113148000Y-105602420D02*
X113148000Y-105883580D01*
%TO.C,J8003*%
X194688000Y-81546000D02*
X227968000Y-81546000D01*
X194688000Y-90666000D02*
X194688000Y-81546000D01*
X195988000Y-82856000D02*
X226668000Y-82856000D01*
X195988000Y-89356000D02*
X195988000Y-82856000D01*
X199398000Y-92056000D02*
X200398000Y-92056000D01*
X199898000Y-91056000D02*
X199398000Y-92056000D01*
X200398000Y-92056000D02*
X199898000Y-91056000D01*
X209278000Y-89356000D02*
X195988000Y-89356000D01*
X209278000Y-90666000D02*
X209278000Y-89356000D01*
X213378000Y-89356000D02*
X213378000Y-89356000D01*
X213378000Y-89356000D02*
X213378000Y-90666000D01*
X226668000Y-82856000D02*
X226668000Y-89356000D01*
X226668000Y-89356000D02*
X213378000Y-89356000D01*
X227968000Y-81546000D02*
X227968000Y-90666000D01*
X227968000Y-90666000D02*
X194688000Y-90666000D01*
%TO.C,TP5005*%
X109002000Y-125090000D02*
G75*
G02*
X107602000Y-125090000I-700000J0D01*
G01*
X107602000Y-125090000D02*
G75*
G02*
X109002000Y-125090000I700000J0D01*
G01*
%TO.C,J8007*%
X181248000Y-98306000D02*
X181248000Y-99306000D01*
X181248000Y-99306000D02*
X182248000Y-98806000D01*
X182248000Y-98806000D02*
X181248000Y-98306000D01*
X182638000Y-93596000D02*
X191758000Y-93596000D01*
X182638000Y-101836000D02*
X183948000Y-101836000D01*
X182638000Y-114176000D02*
X182638000Y-93596000D01*
X183948000Y-94896000D02*
X190448000Y-94896000D01*
X183948000Y-101836000D02*
X183948000Y-94896000D01*
X183948000Y-105936000D02*
X182638000Y-105936000D01*
X183948000Y-105936000D02*
X183948000Y-105936000D01*
X183948000Y-112876000D02*
X183948000Y-105936000D01*
X190448000Y-94896000D02*
X190448000Y-112876000D01*
X190448000Y-112876000D02*
X183948000Y-112876000D01*
X191758000Y-93596000D02*
X191758000Y-114176000D01*
X191758000Y-114176000D02*
X182638000Y-114176000D01*
%TO.C,R8004*%
X204455500Y-92947258D02*
X204455500Y-92472742D01*
X205500500Y-92947258D02*
X205500500Y-92472742D01*
%TO.C,C7018*%
X135888000Y-102983420D02*
X135888000Y-103264580D01*
X136908000Y-102983420D02*
X136908000Y-103264580D01*
%TO.C,R8026*%
X219695500Y-120906258D02*
X219695500Y-120431742D01*
X220740500Y-120906258D02*
X220740500Y-120431742D01*
%TO.C,C7014*%
X151243420Y-112774000D02*
X151524580Y-112774000D01*
X151243420Y-113794000D02*
X151524580Y-113794000D01*
%TO.C,C5009*%
X98017580Y-126471000D02*
X97736420Y-126471000D01*
X98017580Y-127491000D02*
X97736420Y-127491000D01*
%TO.C,TP6004*%
X113394000Y-77772000D02*
G75*
G02*
X111994000Y-77772000I-700000J0D01*
G01*
X111994000Y-77772000D02*
G75*
G02*
X113394000Y-77772000I700000J0D01*
G01*
%TO.C,R2018*%
X94378258Y-89515500D02*
X93903742Y-89515500D01*
X94378258Y-90560500D02*
X93903742Y-90560500D01*
%TO.C,R7001*%
X151146742Y-127747500D02*
X151621258Y-127747500D01*
X151146742Y-128792500D02*
X151621258Y-128792500D01*
%TO.C,C7019*%
X154176000Y-102983420D02*
X154176000Y-103264580D01*
X155196000Y-102983420D02*
X155196000Y-103264580D01*
%TO.C,C7005*%
X140205580Y-88512000D02*
X139924420Y-88512000D01*
X140205580Y-89532000D02*
X139924420Y-89532000D01*
%TO.C,C2013*%
X98790580Y-81781000D02*
X98509420Y-81781000D01*
X98790580Y-82801000D02*
X98509420Y-82801000D01*
%TO.C,C2010*%
X110733580Y-97854000D02*
X110452420Y-97854000D01*
X110733580Y-98874000D02*
X110452420Y-98874000D01*
%TO.C,C6008*%
X118968000Y-82457420D02*
X118968000Y-82738580D01*
X119988000Y-82457420D02*
X119988000Y-82738580D01*
%TO.C,U7007*%
X145894000Y-74397000D02*
X143944000Y-74397000D01*
X145894000Y-74397000D02*
X147844000Y-74397000D01*
X145894000Y-79517000D02*
X143944000Y-79517000D01*
X145894000Y-79517000D02*
X147844000Y-79517000D01*
X143194000Y-74492000D02*
X142954000Y-74162000D01*
X143434000Y-74162000D01*
X143194000Y-74492000D01*
G36*
X143194000Y-74492000D02*
G01*
X142954000Y-74162000D01*
X143434000Y-74162000D01*
X143194000Y-74492000D01*
G37*
%TO.C,C6013*%
X114993580Y-75230000D02*
X114712420Y-75230000D01*
X114993580Y-76250000D02*
X114712420Y-76250000D01*
D14*
%TO.C,SW8004*%
X162000000Y-129548000D02*
X168200000Y-129548000D01*
X162000000Y-138168000D02*
X162000000Y-129548000D01*
X168200000Y-129548000D02*
X168200000Y-138168000D01*
X168200000Y-138168000D02*
X162000000Y-138168000D01*
D10*
X159450000Y-130888000D02*
G75*
G02*
X159250000Y-130888000I-100000J0D01*
G01*
X159250000Y-130888000D02*
G75*
G02*
X159450000Y-130888000I100000J0D01*
G01*
D13*
%TO.C,C2012*%
X98902000Y-84563420D02*
X98902000Y-84844580D01*
X99922000Y-84563420D02*
X99922000Y-84844580D01*
%TO.C,C6006*%
X118968000Y-86354420D02*
X118968000Y-86635580D01*
X119988000Y-86354420D02*
X119988000Y-86635580D01*
%TO.C,U7002*%
X145894000Y-119482000D02*
X143944000Y-119482000D01*
X145894000Y-119482000D02*
X147844000Y-119482000D01*
X145894000Y-124602000D02*
X143944000Y-124602000D01*
X145894000Y-124602000D02*
X147844000Y-124602000D01*
X143194000Y-119577000D02*
X142954000Y-119247000D01*
X143434000Y-119247000D01*
X143194000Y-119577000D01*
G36*
X143194000Y-119577000D02*
G01*
X142954000Y-119247000D01*
X143434000Y-119247000D01*
X143194000Y-119577000D01*
G37*
%TO.C,C2001*%
X104142580Y-101156000D02*
X103861420Y-101156000D01*
X104142580Y-102176000D02*
X103861420Y-102176000D01*
%TO.C,R7007*%
X151146742Y-89901500D02*
X151621258Y-89901500D01*
X151146742Y-90946500D02*
X151621258Y-90946500D01*
%TO.C,Q8002*%
X194739500Y-91724000D02*
X194089500Y-91724000D01*
X194739500Y-91724000D02*
X195389500Y-91724000D01*
X194739500Y-94844000D02*
X194089500Y-94844000D01*
X194739500Y-94844000D02*
X195389500Y-94844000D01*
X196142000Y-95124000D02*
X195662000Y-95124000D01*
X195902000Y-94794000D01*
X196142000Y-95124000D01*
G36*
X196142000Y-95124000D02*
G01*
X195662000Y-95124000D01*
X195902000Y-94794000D01*
X196142000Y-95124000D01*
G37*
%TO.C,R8009*%
X222235500Y-106926758D02*
X222235500Y-106452242D01*
X223280500Y-106926758D02*
X223280500Y-106452242D01*
%TO.C,TP6007*%
X129348000Y-83374000D02*
X130748000Y-83374000D01*
X129348000Y-84774000D02*
X129348000Y-83374000D01*
X130748000Y-83374000D02*
X130748000Y-84774000D01*
X130748000Y-84774000D02*
X129348000Y-84774000D01*
%TO.C,R5006*%
X106890500Y-122480258D02*
X106890500Y-122005742D01*
X107935500Y-122480258D02*
X107935500Y-122005742D01*
%TO.C,R2001*%
X107795258Y-96571500D02*
X107320742Y-96571500D01*
X107795258Y-97616500D02*
X107320742Y-97616500D01*
%TO.C,R8035*%
X171181500Y-132380258D02*
X171181500Y-131905742D01*
X172226500Y-132380258D02*
X172226500Y-131905742D01*
%TO.C,C7011*%
X151243420Y-81532000D02*
X151524580Y-81532000D01*
X151243420Y-82552000D02*
X151524580Y-82552000D01*
%TO.C,C7007*%
X139938580Y-74542000D02*
X139657420Y-74542000D01*
X139938580Y-75562000D02*
X139657420Y-75562000D01*
%TO.C,R8023*%
X219695500Y-106926758D02*
X219695500Y-106452242D01*
X220740500Y-106926758D02*
X220740500Y-106452242D01*
%TO.C,C7017*%
X137666000Y-102983420D02*
X137666000Y-103264580D01*
X138686000Y-102983420D02*
X138686000Y-103264580D01*
%TO.C,U7004*%
X145894000Y-133198000D02*
X143944000Y-133198000D01*
X145894000Y-133198000D02*
X147844000Y-133198000D01*
X145894000Y-138318000D02*
X143944000Y-138318000D01*
X145894000Y-138318000D02*
X147844000Y-138318000D01*
X143194000Y-133293000D02*
X142954000Y-132963000D01*
X143434000Y-132963000D01*
X143194000Y-133293000D01*
G36*
X143194000Y-133293000D02*
G01*
X142954000Y-132963000D01*
X143434000Y-132963000D01*
X143194000Y-133293000D01*
G37*
%TO.C,D8002*%
X192559000Y-95263500D02*
X192559000Y-97548500D01*
X194029000Y-95263500D02*
X192559000Y-95263500D01*
X194029000Y-97548500D02*
X194029000Y-95263500D01*
%TO.C,R8017*%
X219695500Y-78977258D02*
X219695500Y-78502742D01*
X220740500Y-78977258D02*
X220740500Y-78502742D01*
%TO.C,U7009*%
X141945000Y-98438000D02*
X141945000Y-99008000D01*
X141945000Y-104508000D02*
X141945000Y-103938000D01*
X145805000Y-98438000D02*
X141945000Y-98438000D01*
X145805000Y-98438000D02*
X149665000Y-98438000D01*
X145805000Y-104508000D02*
X141945000Y-104508000D01*
X145805000Y-104508000D02*
X149665000Y-104508000D01*
X149665000Y-98438000D02*
X149665000Y-99008000D01*
X149665000Y-104508000D02*
X149665000Y-103938000D01*
X140817500Y-99008000D02*
X140577500Y-98678000D01*
X141057500Y-98678000D01*
X140817500Y-99008000D01*
G36*
X140817500Y-99008000D02*
G01*
X140577500Y-98678000D01*
X141057500Y-98678000D01*
X140817500Y-99008000D01*
G37*
%TO.C,R7016*%
X151146742Y-122413500D02*
X151621258Y-122413500D01*
X151146742Y-123458500D02*
X151621258Y-123458500D01*
%TO.C,D8003*%
X192559000Y-123254500D02*
X192559000Y-125539500D01*
X194029000Y-123254500D02*
X192559000Y-123254500D01*
X194029000Y-125539500D02*
X194029000Y-123254500D01*
%TO.C,U7005*%
X145894000Y-88367000D02*
X143944000Y-88367000D01*
X145894000Y-88367000D02*
X147844000Y-88367000D01*
X145894000Y-93487000D02*
X143944000Y-93487000D01*
X145894000Y-93487000D02*
X147844000Y-93487000D01*
X143194000Y-88462000D02*
X142954000Y-88132000D01*
X143434000Y-88132000D01*
X143194000Y-88462000D01*
G36*
X143194000Y-88462000D02*
G01*
X142954000Y-88132000D01*
X143434000Y-88132000D01*
X143194000Y-88462000D01*
G37*
%TO.C,C6010*%
X128354420Y-72055000D02*
X128635580Y-72055000D01*
X128354420Y-73075000D02*
X128635580Y-73075000D01*
%TO.C,C7009*%
X151243420Y-67308000D02*
X151524580Y-67308000D01*
X151243420Y-68328000D02*
X151524580Y-68328000D01*
%TO.C,R8016*%
X212075500Y-78977258D02*
X212075500Y-78502742D01*
X213120500Y-78977258D02*
X213120500Y-78502742D01*
%TO.C,U7006*%
X145894000Y-81509000D02*
X143944000Y-81509000D01*
X145894000Y-81509000D02*
X147844000Y-81509000D01*
X145894000Y-86629000D02*
X143944000Y-86629000D01*
X145894000Y-86629000D02*
X147844000Y-86629000D01*
X143194000Y-81604000D02*
X142954000Y-81274000D01*
X143434000Y-81274000D01*
X143194000Y-81604000D01*
G36*
X143194000Y-81604000D02*
G01*
X142954000Y-81274000D01*
X143434000Y-81274000D01*
X143194000Y-81604000D01*
G37*
%TO.C,R2014*%
X123830742Y-101651500D02*
X124305258Y-101651500D01*
X123830742Y-102696500D02*
X124305258Y-102696500D01*
%TO.C,TP6002*%
X109330000Y-80058000D02*
G75*
G02*
X107930000Y-80058000I-700000J0D01*
G01*
X107930000Y-80058000D02*
G75*
G02*
X109330000Y-80058000I700000J0D01*
G01*
D14*
%TO.C,SW8008*%
X162000000Y-86368000D02*
X168200000Y-86368000D01*
X162000000Y-94988000D02*
X162000000Y-86368000D01*
X168200000Y-86368000D02*
X168200000Y-94988000D01*
X168200000Y-94988000D02*
X162000000Y-94988000D01*
D10*
X159450000Y-87708000D02*
G75*
G02*
X159250000Y-87708000I-100000J0D01*
G01*
X159250000Y-87708000D02*
G75*
G02*
X159450000Y-87708000I100000J0D01*
G01*
D13*
%TO.C,R5003*%
X119618500Y-129879742D02*
X119618500Y-130354258D01*
X120663500Y-129879742D02*
X120663500Y-130354258D01*
%TO.C,C5004*%
X109867580Y-127321000D02*
X109586420Y-127321000D01*
X109867580Y-128341000D02*
X109586420Y-128341000D01*
%TO.C,R8006*%
X222235500Y-92947258D02*
X222235500Y-92472742D01*
X223280500Y-92947258D02*
X223280500Y-92472742D01*
%TO.C,R7005*%
X151146742Y-134859500D02*
X151621258Y-134859500D01*
X151146742Y-135904500D02*
X151621258Y-135904500D01*
%TO.C,C5001*%
X118000000Y-129888420D02*
X118000000Y-130169580D01*
X119020000Y-129888420D02*
X119020000Y-130169580D01*
%TO.C,R2011*%
X104749500Y-96094742D02*
X104749500Y-96569258D01*
X105794500Y-96094742D02*
X105794500Y-96569258D01*
%TO.C,R2003*%
X121513500Y-105746742D02*
X121513500Y-106221258D01*
X122558500Y-105746742D02*
X122558500Y-106221258D01*
%TO.C,R6006*%
X111917500Y-75088258D02*
X111917500Y-74613742D01*
X112962500Y-75088258D02*
X112962500Y-74613742D01*
D14*
%TO.C,J8001*%
X237771000Y-88596000D02*
X237771000Y-91126000D01*
X237771000Y-114096000D02*
X237771000Y-111566000D01*
X237771000Y-114096000D02*
X239351000Y-114096000D01*
X239351000Y-88596000D02*
X237771000Y-88596000D01*
X241791000Y-88596000D02*
X242771000Y-88596000D01*
X242771000Y-88596000D02*
X242771000Y-114096000D01*
X242771000Y-114096000D02*
X241791000Y-114096000D01*
D10*
X236321000Y-111096000D02*
G75*
G02*
X236121000Y-111096000I-100000J0D01*
G01*
X236121000Y-111096000D02*
G75*
G02*
X236321000Y-111096000I100000J0D01*
G01*
D13*
%TO.C,C7021*%
X144634748Y-106748000D02*
X146957252Y-106748000D01*
X144634748Y-110168000D02*
X146957252Y-110168000D01*
%TO.C,R2016*%
X94315258Y-86467500D02*
X93840742Y-86467500D01*
X94315258Y-87512500D02*
X93840742Y-87512500D01*
%TO.C,C5011*%
X116377200Y-129888420D02*
X116377200Y-130169580D01*
X117397200Y-129888420D02*
X117397200Y-130169580D01*
%TO.C,TP5006*%
X122588000Y-130814000D02*
X123988000Y-130814000D01*
X122588000Y-132214000D02*
X122588000Y-130814000D01*
X123988000Y-130814000D02*
X123988000Y-132214000D01*
X123988000Y-132214000D02*
X122588000Y-132214000D01*
%TO.C,R7010*%
X151146742Y-77455500D02*
X151621258Y-77455500D01*
X151146742Y-78500500D02*
X151621258Y-78500500D01*
%TO.C,C5002*%
X117853000Y-116541580D02*
X117853000Y-116260420D01*
X118873000Y-116541580D02*
X118873000Y-116260420D01*
%TO.C,R7002*%
X151146742Y-129271500D02*
X151621258Y-129271500D01*
X151146742Y-130316500D02*
X151621258Y-130316500D01*
%TO.C,C7004*%
X140713580Y-112642000D02*
X140432420Y-112642000D01*
X140713580Y-113662000D02*
X140432420Y-113662000D01*
%TO.C,R5002*%
X115579500Y-134250742D02*
X115579500Y-134725258D01*
X116624500Y-134250742D02*
X116624500Y-134725258D01*
%TO.C,C6011*%
X128367420Y-77516000D02*
X128648580Y-77516000D01*
X128367420Y-78536000D02*
X128648580Y-78536000D01*
%TO.C,R8007*%
X204455500Y-106926758D02*
X204455500Y-106452242D01*
X205500500Y-106926758D02*
X205500500Y-106452242D01*
%TO.C,R8037*%
X193025500Y-114346258D02*
X193025500Y-113871742D01*
X194070500Y-114346258D02*
X194070500Y-113871742D01*
%TO.C,R7011*%
X151146742Y-68819500D02*
X151621258Y-68819500D01*
X151146742Y-69864500D02*
X151621258Y-69864500D01*
%TO.C,U5001*%
X109298000Y-129041000D02*
X109298000Y-132541000D01*
X109298000Y-132541000D02*
X113498000Y-132541000D01*
%TO.C,C2003*%
X110350000Y-102300420D02*
X110350000Y-102581580D01*
X111370000Y-102300420D02*
X111370000Y-102581580D01*
D14*
%TO.C,SW8009*%
X173430000Y-76970000D02*
X179630000Y-76970000D01*
X173430000Y-85590000D02*
X173430000Y-76970000D01*
X179630000Y-76970000D02*
X179630000Y-85590000D01*
X179630000Y-85590000D02*
X173430000Y-85590000D01*
D10*
X170880000Y-78310000D02*
G75*
G02*
X170680000Y-78310000I-100000J0D01*
G01*
X170680000Y-78310000D02*
G75*
G02*
X170880000Y-78310000I100000J0D01*
G01*
D13*
%TO.C,R8034*%
X198105500Y-78565742D02*
X198105500Y-79040258D01*
X199150500Y-78565742D02*
X199150500Y-79040258D01*
%TO.C,TP6003*%
X103869000Y-74597000D02*
G75*
G02*
X102469000Y-74597000I-700000J0D01*
G01*
X102469000Y-74597000D02*
G75*
G02*
X103869000Y-74597000I700000J0D01*
G01*
%TO.C,R7013*%
X151146742Y-83043500D02*
X151621258Y-83043500D01*
X151146742Y-84088500D02*
X151621258Y-84088500D01*
%TO.C,R8011*%
X214615500Y-120906258D02*
X214615500Y-120431742D01*
X215660500Y-120906258D02*
X215660500Y-120431742D01*
%TO.C,U2002*%
X105712000Y-100932000D02*
X105712000Y-104432000D01*
X105712000Y-104432000D02*
X109912000Y-104432000D01*
%TO.C,D5001*%
X108214000Y-120746000D02*
X108214000Y-122216000D01*
X108214000Y-122216000D02*
X110499000Y-122216000D01*
X110499000Y-120746000D02*
X108214000Y-120746000D01*
%TO.C,D8001*%
X192559000Y-67323500D02*
X192559000Y-69608500D01*
X194029000Y-67323500D02*
X192559000Y-67323500D01*
X194029000Y-69608500D02*
X194029000Y-67323500D01*
%TO.C,R2010*%
X102748742Y-95047500D02*
X103223258Y-95047500D01*
X102748742Y-96092500D02*
X103223258Y-96092500D01*
%TO.C,R6001*%
X105999258Y-79662500D02*
X105524742Y-79662500D01*
X105999258Y-80707500D02*
X105524742Y-80707500D01*
%TO.C,C5007*%
X110121580Y-122495000D02*
X109840420Y-122495000D01*
X110121580Y-123515000D02*
X109840420Y-123515000D01*
%TO.C,C7003*%
X140700580Y-119500000D02*
X140419420Y-119500000D01*
X140700580Y-120520000D02*
X140419420Y-120520000D01*
%TO.C,C5015*%
X123274420Y-125109000D02*
X123555580Y-125109000D01*
X123274420Y-126129000D02*
X123555580Y-126129000D01*
%TO.C,R7017*%
X145072263Y-94657000D02*
X146519737Y-94657000D01*
X145072263Y-97367000D02*
X146519737Y-97367000D01*
D15*
%TO.C,FL3001*%
X100354000Y-98688000D02*
X101574000Y-98688000D01*
X101544000Y-100838000D02*
X100439000Y-100843000D01*
D13*
%TO.C,R7004*%
X151146742Y-115809500D02*
X151621258Y-115809500D01*
X151146742Y-116854500D02*
X151621258Y-116854500D01*
%TO.C,R8013*%
X212075500Y-134813258D02*
X212075500Y-134338742D01*
X213120500Y-134813258D02*
X213120500Y-134338742D01*
%TO.C,Q8003*%
X194310000Y-119598000D02*
X193660000Y-119598000D01*
X194310000Y-119598000D02*
X194960000Y-119598000D01*
X194310000Y-122718000D02*
X193660000Y-122718000D01*
X194310000Y-122718000D02*
X194960000Y-122718000D01*
X195712500Y-122998000D02*
X195232500Y-122998000D01*
X195472500Y-122668000D01*
X195712500Y-122998000D01*
G36*
X195712500Y-122998000D02*
G01*
X195232500Y-122998000D01*
X195472500Y-122668000D01*
X195712500Y-122998000D01*
G37*
%TO.C,R2013*%
X110591500Y-105492742D02*
X110591500Y-105967258D01*
X111636500Y-105492742D02*
X111636500Y-105967258D01*
%TO.C,R5001*%
X107573500Y-132140742D02*
X107573500Y-132615258D01*
X108618500Y-132140742D02*
X108618500Y-132615258D01*
%TO.C,R8003*%
X222235500Y-78977258D02*
X222235500Y-78502742D01*
X223280500Y-78977258D02*
X223280500Y-78502742D01*
D14*
%TO.C,SW8007*%
X162000000Y-118753000D02*
X168200000Y-118753000D01*
X162000000Y-127373000D02*
X162000000Y-118753000D01*
X168200000Y-118753000D02*
X168200000Y-127373000D01*
X168200000Y-127373000D02*
X162000000Y-127373000D01*
D10*
X159450000Y-120093000D02*
G75*
G02*
X159250000Y-120093000I-100000J0D01*
G01*
X159250000Y-120093000D02*
G75*
G02*
X159450000Y-120093000I100000J0D01*
G01*
D13*
%TO.C,Q8005*%
X194642500Y-105816000D02*
X193992500Y-105816000D01*
X194642500Y-105816000D02*
X195292500Y-105816000D01*
X194642500Y-108936000D02*
X193992500Y-108936000D01*
X194642500Y-108936000D02*
X195292500Y-108936000D01*
X196045000Y-109216000D02*
X195565000Y-109216000D01*
X195805000Y-108886000D01*
X196045000Y-109216000D01*
G36*
X196045000Y-109216000D02*
G01*
X195565000Y-109216000D01*
X195805000Y-108886000D01*
X196045000Y-109216000D01*
G37*
%TO.C,U7003*%
X145894000Y-112497000D02*
X143944000Y-112497000D01*
X145894000Y-112497000D02*
X147844000Y-112497000D01*
X145894000Y-117617000D02*
X143944000Y-117617000D01*
X145894000Y-117617000D02*
X147844000Y-117617000D01*
X143194000Y-112592000D02*
X142954000Y-112262000D01*
X143434000Y-112262000D01*
X143194000Y-112592000D01*
G36*
X143194000Y-112592000D02*
G01*
X142954000Y-112262000D01*
X143434000Y-112262000D01*
X143194000Y-112592000D01*
G37*
%TO.C,U6002*%
X113949000Y-81544000D02*
X113949000Y-85044000D01*
X113949000Y-85044000D02*
X118149000Y-85044000D01*
%TO.C,R2017*%
X93903742Y-87991500D02*
X94378258Y-87991500D01*
X93903742Y-89036500D02*
X94378258Y-89036500D01*
%TO.C,C6004*%
X112055580Y-81834000D02*
X111774420Y-81834000D01*
X112055580Y-82854000D02*
X111774420Y-82854000D01*
%TO.C,J8002*%
X194688000Y-67576000D02*
X227968000Y-67576000D01*
X194688000Y-76696000D02*
X194688000Y-67576000D01*
X195988000Y-68886000D02*
X226668000Y-68886000D01*
X195988000Y-75386000D02*
X195988000Y-68886000D01*
X199398000Y-78086000D02*
X200398000Y-78086000D01*
X199898000Y-77086000D02*
X199398000Y-78086000D01*
X200398000Y-78086000D02*
X199898000Y-77086000D01*
X209278000Y-75386000D02*
X195988000Y-75386000D01*
X209278000Y-76696000D02*
X209278000Y-75386000D01*
X213378000Y-75386000D02*
X213378000Y-75386000D01*
X213378000Y-75386000D02*
X213378000Y-76696000D01*
X226668000Y-68886000D02*
X226668000Y-75386000D01*
X226668000Y-75386000D02*
X213378000Y-75386000D01*
X227968000Y-67576000D02*
X227968000Y-76696000D01*
X227968000Y-76696000D02*
X194688000Y-76696000D01*
%TO.C,C7010*%
X151243420Y-74420000D02*
X151524580Y-74420000D01*
X151243420Y-75440000D02*
X151524580Y-75440000D01*
%TO.C,U5002*%
X112000000Y-118649000D02*
X112475000Y-118649000D01*
X112000000Y-119124000D02*
X112000000Y-118649000D01*
X112000000Y-127394000D02*
X112000000Y-127569000D01*
X112475000Y-127869000D02*
X112240000Y-127869000D01*
X121220000Y-118649000D02*
X120745000Y-118649000D01*
X121220000Y-119124000D02*
X121220000Y-118649000D01*
X121220000Y-127394000D02*
X121220000Y-127869000D01*
X121220000Y-127869000D02*
X120745000Y-127869000D01*
X112000000Y-127869000D02*
X111670000Y-128109000D01*
X111670000Y-127629000D01*
X112000000Y-127869000D01*
G36*
X112000000Y-127869000D02*
G01*
X111670000Y-128109000D01*
X111670000Y-127629000D01*
X112000000Y-127869000D01*
G37*
%TO.C,R5004*%
X102178258Y-128236500D02*
X101703742Y-128236500D01*
X102178258Y-129281500D02*
X101703742Y-129281500D01*
%TO.C,C6007*%
X121074000Y-82457420D02*
X121074000Y-82738580D01*
X122094000Y-82457420D02*
X122094000Y-82738580D01*
%TO.C,C7006*%
X140459580Y-81654000D02*
X140178420Y-81654000D01*
X140459580Y-82674000D02*
X140178420Y-82674000D01*
%TO.C,R8025*%
X212075500Y-120906258D02*
X212075500Y-120431742D01*
X213120500Y-120906258D02*
X213120500Y-120431742D01*
%TO.C,R5005*%
X104223500Y-125528258D02*
X104223500Y-125053742D01*
X105268500Y-125528258D02*
X105268500Y-125053742D01*
%TO.C,R8028*%
X196134258Y-65517500D02*
X195659742Y-65517500D01*
X196134258Y-66562500D02*
X195659742Y-66562500D01*
%TO.C,R8018*%
X201915500Y-92947258D02*
X201915500Y-92472742D01*
X202960500Y-92947258D02*
X202960500Y-92472742D01*
%TO.C,R6005*%
X124543500Y-82360742D02*
X124543500Y-82835258D01*
X125588500Y-82360742D02*
X125588500Y-82835258D01*
%TO.C,R8033*%
X192771500Y-128253258D02*
X192771500Y-127778742D01*
X193816500Y-128253258D02*
X193816500Y-127778742D01*
%TO.C,R8032*%
X192771500Y-100122258D02*
X192771500Y-99647742D01*
X193816500Y-100122258D02*
X193816500Y-99647742D01*
%TO.C,R2009*%
X113639500Y-94537258D02*
X113639500Y-94062742D01*
X114684500Y-94537258D02*
X114684500Y-94062742D01*
%TO.C,C2011*%
X96972420Y-84956000D02*
X97253580Y-84956000D01*
X96972420Y-85976000D02*
X97253580Y-85976000D01*
D14*
%TO.C,SW8005*%
X162000000Y-97163000D02*
X168200000Y-97163000D01*
X162000000Y-105783000D02*
X162000000Y-97163000D01*
X168200000Y-97163000D02*
X168200000Y-105783000D01*
X168200000Y-105783000D02*
X162000000Y-105783000D01*
D10*
X159450000Y-98503000D02*
G75*
G02*
X159250000Y-98503000I-100000J0D01*
G01*
X159250000Y-98503000D02*
G75*
G02*
X159450000Y-98503000I100000J0D01*
G01*
D13*
%TO.C,R8024*%
X201915500Y-120906258D02*
X201915500Y-120431742D01*
X202960500Y-120906258D02*
X202960500Y-120431742D01*
%TO.C,R2002*%
X116941500Y-94824742D02*
X116941500Y-95299258D01*
X117986500Y-94824742D02*
X117986500Y-95299258D01*
%TO.C,J8006*%
X194688000Y-123475000D02*
X227968000Y-123475000D01*
X194688000Y-132595000D02*
X194688000Y-123475000D01*
X195988000Y-124785000D02*
X226668000Y-124785000D01*
X195988000Y-131285000D02*
X195988000Y-124785000D01*
X199398000Y-133985000D02*
X200398000Y-133985000D01*
X199898000Y-132985000D02*
X199398000Y-133985000D01*
X200398000Y-133985000D02*
X199898000Y-132985000D01*
X209278000Y-131285000D02*
X195988000Y-131285000D01*
X209278000Y-132595000D02*
X209278000Y-131285000D01*
X213378000Y-131285000D02*
X213378000Y-131285000D01*
X213378000Y-131285000D02*
X213378000Y-132595000D01*
X226668000Y-124785000D02*
X226668000Y-131285000D01*
X226668000Y-131285000D02*
X213378000Y-131285000D01*
X227968000Y-123475000D02*
X227968000Y-132595000D01*
X227968000Y-132595000D02*
X194688000Y-132595000D01*
%TO.C,C7008*%
X140446580Y-67430000D02*
X140165420Y-67430000D01*
X140446580Y-68450000D02*
X140165420Y-68450000D01*
%TO.C,C7012*%
X151243420Y-88390000D02*
X151524580Y-88390000D01*
X151243420Y-89410000D02*
X151524580Y-89410000D01*
%TO.C,R7014*%
X151146742Y-84567500D02*
X151621258Y-84567500D01*
X151146742Y-85612500D02*
X151621258Y-85612500D01*
%TO.C,R8014*%
X222235500Y-134876258D02*
X222235500Y-134401742D01*
X223280500Y-134876258D02*
X223280500Y-134401742D01*
%TO.C,R7003*%
X151146742Y-114285500D02*
X151621258Y-114285500D01*
X151146742Y-115330500D02*
X151621258Y-115330500D01*
%TO.C,R2008*%
X103987500Y-104252258D02*
X103987500Y-103777742D01*
X105032500Y-104252258D02*
X105032500Y-103777742D01*
%TO.C,C7001*%
X140713580Y-133216000D02*
X140432420Y-133216000D01*
X140713580Y-134236000D02*
X140432420Y-134236000D01*
D14*
%TO.C,SW8001*%
X162000000Y-64778000D02*
X168200000Y-64778000D01*
X162000000Y-73398000D02*
X162000000Y-64778000D01*
X168200000Y-64778000D02*
X168200000Y-73398000D01*
X168200000Y-73398000D02*
X162000000Y-73398000D01*
D10*
X159450000Y-66118000D02*
G75*
G02*
X159250000Y-66118000I-100000J0D01*
G01*
X159250000Y-66118000D02*
G75*
G02*
X159450000Y-66118000I100000J0D01*
G01*
D13*
%TO.C,C2008*%
X115430000Y-105843420D02*
X115430000Y-106124580D01*
X116450000Y-105843420D02*
X116450000Y-106124580D01*
%TO.C,TP5007*%
X123988000Y-129228000D02*
G75*
G02*
X122588000Y-129228000I-700000J0D01*
G01*
X122588000Y-129228000D02*
G75*
G02*
X123988000Y-129228000I700000J0D01*
G01*
%TO.C,R8001*%
X204455500Y-78977258D02*
X204455500Y-78502742D01*
X205500500Y-78977258D02*
X205500500Y-78502742D01*
D16*
%TO.C,U2001*%
X112511000Y-97221000D02*
X112511000Y-97936259D01*
X112511000Y-102855741D02*
X112511000Y-103571000D01*
X112511000Y-103571000D02*
X113226259Y-103571000D01*
X113226259Y-97221000D02*
X112511000Y-97221000D01*
X118145741Y-103571000D02*
X118861000Y-103571000D01*
X118861000Y-97221000D02*
X118145741Y-97221000D01*
X118861000Y-97936259D02*
X118861000Y-97221000D01*
X118861000Y-103571000D02*
X118861000Y-102855741D01*
D17*
G36*
X112079200Y-99586499D02*
G01*
X111825200Y-99586499D01*
X111825200Y-99205499D01*
X112079200Y-99205499D01*
X112079200Y-99586499D01*
G37*
G36*
X117376500Y-96789200D02*
G01*
X116995500Y-96789200D01*
X116995500Y-96535200D01*
X117376500Y-96535200D01*
X117376500Y-96789200D01*
G37*
G36*
X119546800Y-102586501D02*
G01*
X119292800Y-102586501D01*
X119292800Y-102205501D01*
X119546800Y-102205501D01*
X119546800Y-102586501D01*
G37*
D13*
%TO.C,D8004*%
X192533500Y-81598500D02*
X192533500Y-83883500D01*
X194003500Y-81598500D02*
X192533500Y-81598500D01*
X194003500Y-83883500D02*
X194003500Y-81598500D01*
%TO.C,C5012*%
X114043000Y-129976420D02*
X114043000Y-130257580D01*
X115063000Y-129976420D02*
X115063000Y-130257580D01*
%TO.C,TP2002*%
X108520000Y-72960000D02*
X109920000Y-72960000D01*
X108520000Y-74360000D02*
X108520000Y-72960000D01*
X109920000Y-72960000D02*
X109920000Y-74360000D01*
X109920000Y-74360000D02*
X108520000Y-74360000D01*
%TO.C,Q8001*%
X188764500Y-66990000D02*
X188764500Y-66340000D01*
X188764500Y-66990000D02*
X188764500Y-67640000D01*
X191884500Y-66990000D02*
X191884500Y-66340000D01*
X191884500Y-66990000D02*
X191884500Y-67640000D01*
X192164500Y-66067500D02*
X191834500Y-65827500D01*
X192164500Y-65587500D01*
X192164500Y-66067500D01*
G36*
X192164500Y-66067500D02*
G01*
X191834500Y-65827500D01*
X192164500Y-65587500D01*
X192164500Y-66067500D01*
G37*
%TO.C,C5008*%
X123302420Y-119447000D02*
X123583580Y-119447000D01*
X123302420Y-120467000D02*
X123583580Y-120467000D01*
%TO.C,C5005*%
X115313000Y-116541580D02*
X115313000Y-116260420D01*
X116333000Y-116541580D02*
X116333000Y-116260420D01*
%TO.C,C6005*%
X115046580Y-79929000D02*
X114765420Y-79929000D01*
X115046580Y-80949000D02*
X114765420Y-80949000D01*
%TO.C,R2012*%
X110337500Y-94283258D02*
X110337500Y-93808742D01*
X111382500Y-94283258D02*
X111382500Y-93808742D01*
%TO.C,C5003*%
X107461580Y-129265000D02*
X107180420Y-129265000D01*
X107461580Y-130285000D02*
X107180420Y-130285000D01*
%TO.C,J8005*%
X194688000Y-109505000D02*
X227968000Y-109505000D01*
X194688000Y-118625000D02*
X194688000Y-109505000D01*
X195988000Y-110815000D02*
X226668000Y-110815000D01*
X195988000Y-117315000D02*
X195988000Y-110815000D01*
X199398000Y-120015000D02*
X200398000Y-120015000D01*
X199898000Y-119015000D02*
X199398000Y-120015000D01*
X200398000Y-120015000D02*
X199898000Y-119015000D01*
X209278000Y-117315000D02*
X195988000Y-117315000D01*
X209278000Y-118625000D02*
X209278000Y-117315000D01*
X213378000Y-117315000D02*
X213378000Y-117315000D01*
X213378000Y-117315000D02*
X213378000Y-118625000D01*
X226668000Y-110815000D02*
X226668000Y-117315000D01*
X226668000Y-117315000D02*
X213378000Y-117315000D01*
X227968000Y-109505000D02*
X227968000Y-118625000D01*
X227968000Y-118625000D02*
X194688000Y-118625000D01*
%TO.C,C2004*%
X108826000Y-94186580D02*
X108826000Y-93905420D01*
X109846000Y-94186580D02*
X109846000Y-93905420D01*
%TO.C,U6001*%
X105762000Y-75958000D02*
X104962000Y-75958000D01*
X105762000Y-75958000D02*
X106562000Y-75958000D01*
X105762000Y-79078000D02*
X104962000Y-79078000D01*
X105762000Y-79078000D02*
X106562000Y-79078000D01*
X107302000Y-79358000D02*
X106822000Y-79358000D01*
X107062000Y-79028000D01*
X107302000Y-79358000D01*
G36*
X107302000Y-79358000D02*
G01*
X106822000Y-79358000D01*
X107062000Y-79028000D01*
X107302000Y-79358000D01*
G37*
%TO.C,U2003*%
X98142000Y-86446000D02*
X97342000Y-86446000D01*
X98142000Y-86446000D02*
X98942000Y-86446000D01*
X98142000Y-89566000D02*
X97342000Y-89566000D01*
X98142000Y-89566000D02*
X98942000Y-89566000D01*
X99682000Y-89846000D02*
X99202000Y-89846000D01*
X99442000Y-89516000D01*
X99682000Y-89846000D01*
G36*
X99682000Y-89846000D02*
G01*
X99202000Y-89846000D01*
X99442000Y-89516000D01*
X99682000Y-89846000D01*
G37*
%TO.C,C6003*%
X122905000Y-82457420D02*
X122905000Y-82738580D01*
X123925000Y-82457420D02*
X123925000Y-82738580D01*
%TO.C,R8022*%
X212075500Y-106926758D02*
X212075500Y-106452242D01*
X213120500Y-106926758D02*
X213120500Y-106452242D01*
%TO.C,D8005*%
X192813000Y-109538500D02*
X192813000Y-111823500D01*
X194283000Y-109538500D02*
X192813000Y-109538500D01*
X194283000Y-111823500D02*
X194283000Y-109538500D01*
%TO.C,R6002*%
X112281500Y-84710742D02*
X112281500Y-85185258D01*
X113326500Y-84710742D02*
X113326500Y-85185258D01*
%TO.C,TP5001*%
X98938000Y-125037000D02*
G75*
G02*
X97538000Y-125037000I-700000J0D01*
G01*
X97538000Y-125037000D02*
G75*
G02*
X98938000Y-125037000I700000J0D01*
G01*
%TO.C,R8031*%
X192771500Y-72056258D02*
X192771500Y-71581742D01*
X193816500Y-72056258D02*
X193816500Y-71581742D01*
%TD*%
M02*
