%TF.GenerationSoftware,KiCad,Pcbnew,8.0.1*%
%TF.CreationDate,2024-09-10T07:56:54+02:00*%
%TF.ProjectId,CC_Debug,43435f44-6562-4756-972e-6b696361645f,rev?*%
%TF.SameCoordinates,Original*%
%TF.FileFunction,Soldermask,Bot*%
%TF.FilePolarity,Negative*%
%FSLAX46Y46*%
G04 Gerber Fmt 4.6, Leading zero omitted, Abs format (unit mm)*
G04 Created by KiCad (PCBNEW 8.0.1) date 2024-09-10 07:56:54*
%MOMM*%
%LPD*%
G01*
G04 APERTURE LIST*
G04 Aperture macros list*
%AMRoundRect*
0 Rectangle with rounded corners*
0 $1 Rounding radius*
0 $2 $3 $4 $5 $6 $7 $8 $9 X,Y pos of 4 corners*
0 Add a 4 corners polygon primitive as box body*
4,1,4,$2,$3,$4,$5,$6,$7,$8,$9,$2,$3,0*
0 Add four circle primitives for the rounded corners*
1,1,$1+$1,$2,$3*
1,1,$1+$1,$4,$5*
1,1,$1+$1,$6,$7*
1,1,$1+$1,$8,$9*
0 Add four rect primitives between the rounded corners*
20,1,$1+$1,$2,$3,$4,$5,0*
20,1,$1+$1,$4,$5,$6,$7,0*
20,1,$1+$1,$6,$7,$8,$9,0*
20,1,$1+$1,$8,$9,$2,$3,0*%
G04 Aperture macros list end*
%ADD10R,1.000000X1.000000*%
%ADD11RoundRect,0.250000X0.600000X-0.600000X0.600000X0.600000X-0.600000X0.600000X-0.600000X-0.600000X0*%
%ADD12C,1.700000*%
%ADD13C,1.000000*%
%ADD14RoundRect,0.250000X-0.600000X-0.600000X0.600000X-0.600000X0.600000X0.600000X-0.600000X0.600000X0*%
%ADD15R,1.400000X1.400000*%
%ADD16C,1.400000*%
%ADD17C,3.000000*%
%ADD18C,3.200000*%
G04 APERTURE END LIST*
D10*
%TO.C,TP5003*%
X96968000Y-122751000D03*
%TD*%
D11*
%TO.C,J8004*%
X199898000Y-101355500D03*
D12*
X199898000Y-98815500D03*
X202438000Y-101355500D03*
X202438000Y-98815500D03*
X204978000Y-101355500D03*
X204978000Y-98815500D03*
X207518000Y-101355500D03*
X207518000Y-98815500D03*
X210058000Y-101355500D03*
X210058000Y-98815500D03*
X212598000Y-101355500D03*
X212598000Y-98815500D03*
X215138000Y-101355500D03*
X215138000Y-98815500D03*
X217678000Y-101355500D03*
X217678000Y-98815500D03*
X220218000Y-101355500D03*
X220218000Y-98815500D03*
X222758000Y-101355500D03*
X222758000Y-98815500D03*
%TD*%
D13*
%TO.C,TP6001*%
X102153000Y-76629000D03*
%TD*%
D10*
%TO.C,TP6006*%
X95504000Y-78232000D03*
%TD*%
D13*
%TO.C,TP2001*%
X97790000Y-78232000D03*
%TD*%
D14*
%TO.C,J8008*%
X185928000Y-74930000D03*
D12*
X188468000Y-74930000D03*
X185928000Y-77470000D03*
X188468000Y-77470000D03*
X185928000Y-80010000D03*
X188468000Y-80010000D03*
X185928000Y-82550000D03*
X188468000Y-82550000D03*
X185928000Y-85090000D03*
X188468000Y-85090000D03*
%TD*%
D15*
%TO.C,J3001*%
X90624000Y-97952000D03*
D16*
X90624000Y-100452000D03*
X93824000Y-100452000D03*
X93824000Y-97952000D03*
D17*
X93334000Y-105222000D03*
X93334000Y-93182000D03*
%TD*%
D13*
%TO.C,TP5004*%
X99254000Y-123005000D03*
%TD*%
%TO.C,TP5002*%
X104853000Y-127831000D03*
%TD*%
%TO.C,TP6005*%
X128315000Y-82217000D03*
%TD*%
D11*
%TO.C,J8003*%
X199898000Y-87376000D03*
D12*
X199898000Y-84836000D03*
X202438000Y-87376000D03*
X202438000Y-84836000D03*
X204978000Y-87376000D03*
X204978000Y-84836000D03*
X207518000Y-87376000D03*
X207518000Y-84836000D03*
X210058000Y-87376000D03*
X210058000Y-84836000D03*
X212598000Y-87376000D03*
X212598000Y-84836000D03*
X215138000Y-87376000D03*
X215138000Y-84836000D03*
X217678000Y-87376000D03*
X217678000Y-84836000D03*
X220218000Y-87376000D03*
X220218000Y-84836000D03*
X222758000Y-87376000D03*
X222758000Y-84836000D03*
%TD*%
D13*
%TO.C,TP5005*%
X108302000Y-125090000D03*
%TD*%
D14*
%TO.C,J8007*%
X185928000Y-98806000D03*
D12*
X188468000Y-98806000D03*
X185928000Y-101346000D03*
X188468000Y-101346000D03*
X185928000Y-103886000D03*
X188468000Y-103886000D03*
X185928000Y-106426000D03*
X188468000Y-106426000D03*
X185928000Y-108966000D03*
X188468000Y-108966000D03*
%TD*%
D13*
%TO.C,TP6004*%
X112694000Y-77772000D03*
%TD*%
D18*
%TO.C,H4003*%
X92202000Y-67564000D03*
%TD*%
D10*
%TO.C,TP6007*%
X130048000Y-84074000D03*
%TD*%
D13*
%TO.C,TP6002*%
X108630000Y-80058000D03*
%TD*%
D18*
%TO.C,H4002*%
X239014000Y-135128000D03*
%TD*%
D10*
%TO.C,TP5006*%
X123288000Y-131514000D03*
%TD*%
D13*
%TO.C,TP6003*%
X103169000Y-74597000D03*
%TD*%
D18*
%TO.C,H4004*%
X92202000Y-135128000D03*
%TD*%
D11*
%TO.C,J8002*%
X199898000Y-73406000D03*
D12*
X199898000Y-70866000D03*
X202438000Y-73406000D03*
X202438000Y-70866000D03*
X204978000Y-73406000D03*
X204978000Y-70866000D03*
X207518000Y-73406000D03*
X207518000Y-70866000D03*
X210058000Y-73406000D03*
X210058000Y-70866000D03*
X212598000Y-73406000D03*
X212598000Y-70866000D03*
X215138000Y-73406000D03*
X215138000Y-70866000D03*
X217678000Y-73406000D03*
X217678000Y-70866000D03*
X220218000Y-73406000D03*
X220218000Y-70866000D03*
X222758000Y-73406000D03*
X222758000Y-70866000D03*
%TD*%
D11*
%TO.C,J8006*%
X199898000Y-129305000D03*
D12*
X199898000Y-126765000D03*
X202438000Y-129305000D03*
X202438000Y-126765000D03*
X204978000Y-129305000D03*
X204978000Y-126765000D03*
X207518000Y-129305000D03*
X207518000Y-126765000D03*
X210058000Y-129305000D03*
X210058000Y-126765000D03*
X212598000Y-129305000D03*
X212598000Y-126765000D03*
X215138000Y-129305000D03*
X215138000Y-126765000D03*
X217678000Y-129305000D03*
X217678000Y-126765000D03*
X220218000Y-129305000D03*
X220218000Y-126765000D03*
X222758000Y-129305000D03*
X222758000Y-126765000D03*
%TD*%
D13*
%TO.C,TP5007*%
X123288000Y-129228000D03*
%TD*%
D10*
%TO.C,TP2002*%
X109220000Y-73660000D03*
%TD*%
D11*
%TO.C,J8005*%
X199898000Y-115335000D03*
D12*
X199898000Y-112795000D03*
X202438000Y-115335000D03*
X202438000Y-112795000D03*
X204978000Y-115335000D03*
X204978000Y-112795000D03*
X207518000Y-115335000D03*
X207518000Y-112795000D03*
X210058000Y-115335000D03*
X210058000Y-112795000D03*
X212598000Y-115335000D03*
X212598000Y-112795000D03*
X215138000Y-115335000D03*
X215138000Y-112795000D03*
X217678000Y-115335000D03*
X217678000Y-112795000D03*
X220218000Y-115335000D03*
X220218000Y-112795000D03*
X222758000Y-115335000D03*
X222758000Y-112795000D03*
%TD*%
D18*
%TO.C,H4001*%
X239014000Y-67564000D03*
%TD*%
D13*
%TO.C,TP5001*%
X98238000Y-125037000D03*
%TD*%
M02*
