<?xml version="1.0" standalone="no"?>
 <!DOCTYPE svg PUBLIC "-//W3C//DTD SVG 1.1//EN" 
 "http://www.w3.org/Graphics/SVG/1.1/DTD/svg11.dtd"> 
<svg
  xmlns:svg="http://www.w3.org/2000/svg"
  xmlns="http://www.w3.org/2000/svg"
  xmlns:xlink="http://www.w3.org/1999/xlink"
  version="1.1"
  width="297.0022mm" height="210.0072mm" viewBox="0.0000 0.0000 297.0022 210.0072">
<title>SVG Image created as LISN_5u-F_Paste.svg date 2024/11/15 12:51:32 </title>
  <desc>Image generated by PCBNEW </desc>
<g style="fill:#000000; fill-opacity:1.0000;stroke:#000000; stroke-opacity:1.0000;
stroke-linecap:round; stroke-linejoin:round;"
 transform="translate(0 0) scale(1 1)">
</g>
<g style="fill:none; 
stroke:#000000; stroke-width:0.1500; stroke-opacity:1; 
stroke-linecap:round; stroke-linejoin:round;">
<path d="M177.0022 166.0072
L285.0022 166.0072
L285.0022 198.0072
L177.0022 198.0072
L177.0022 166.0072
" />
</g>
<g style="fill:none; 
stroke:#000000; stroke-width:0.1500; stroke-opacity:1; 
stroke-linecap:round; stroke-linejoin:round;">
<path d="M10.0000 10.0000
L287.0022 10.0000
L287.0022 200.0072
L10.0000 200.0072
L10.0000 10.0000
" />
</g>
<g style="fill:none; 
stroke:#000000; stroke-width:0.1500; stroke-opacity:1; 
stroke-linecap:round; stroke-linejoin:round;">
<path d="M12.0000 12.0000
L285.0022 12.0000
L285.0022 198.0072
L12.0000 198.0072
L12.0000 12.0000
" />
</g>
<g style="fill:none; 
stroke:#000000; stroke-width:0.1500; stroke-opacity:1; 
stroke-linecap:round; stroke-linejoin:round;">
<path d="M60.0000 12.0000
L60.0000 10.0000
" />
</g>
<g style="fill:none; 
stroke:#000000; stroke-width:0.1500; stroke-opacity:1; 
stroke-linecap:round; stroke-linejoin:round;">
<path d="M110.0000 12.0000
L110.0000 10.0000
" />
</g>
<g style="fill:none; 
stroke:#000000; stroke-width:0.1500; stroke-opacity:1; 
stroke-linecap:round; stroke-linejoin:round;">
<path d="M160.0000 12.0000
L160.0000 10.0000
" />
</g>
<g style="fill:none; 
stroke:#000000; stroke-width:0.1500; stroke-opacity:1; 
stroke-linecap:round; stroke-linejoin:round;">
<path d="M210.0000 12.0000
L210.0000 10.0000
" />
</g>
<g style="fill:none; 
stroke:#000000; stroke-width:0.1500; stroke-opacity:1; 
stroke-linecap:round; stroke-linejoin:round;">
<path d="M260.0000 12.0000
L260.0000 10.0000
" />
</g>
<g style="fill:none; 
stroke:#000000; stroke-width:0.1500; stroke-opacity:1; 
stroke-linecap:round; stroke-linejoin:round;">
<text x="35.0000" y="11.6500"
textLength="1.4281" font-size="1.7333" lengthAdjust="spacingAndGlyphs"
text-anchor="start" opacity="0" stroke-opacity="0">1</text>
<g class="stroked-text"><desc>1</desc>
<path d="M36.0892 11.5936
L35.3463 11.5936
" />
<path d="M35.7177 11.5936
L35.7177 10.2936
" />
<path d="M35.7177 10.2936
L35.5939 10.4793
" />
<path d="M35.5939 10.4793
L35.4701 10.6031
" />
<path d="M35.4701 10.6031
L35.3463 10.6650
" />
</g></g>
<g style="fill:none; 
stroke:#000000; stroke-width:0.1500; stroke-opacity:1; 
stroke-linecap:round; stroke-linejoin:round;">
<text x="85.0000" y="11.6500"
textLength="1.4281" font-size="1.7333" lengthAdjust="spacingAndGlyphs"
text-anchor="start" opacity="0" stroke-opacity="0">2</text>
<g class="stroked-text"><desc>2</desc>
<path d="M85.3463 10.4174
L85.4082 10.3555
" />
<path d="M85.4082 10.3555
L85.5320 10.2936
" />
<path d="M85.5320 10.2936
L85.8415 10.2936
" />
<path d="M85.8415 10.2936
L85.9654 10.3555
" />
<path d="M85.9654 10.3555
L86.0273 10.4174
" />
<path d="M86.0273 10.4174
L86.0892 10.5412
" />
<path d="M86.0892 10.5412
L86.0892 10.6650
" />
<path d="M86.0892 10.6650
L86.0273 10.8507
" />
<path d="M86.0273 10.8507
L85.2844 11.5936
" />
<path d="M85.2844 11.5936
L86.0892 11.5936
" />
</g></g>
<g style="fill:none; 
stroke:#000000; stroke-width:0.1500; stroke-opacity:1; 
stroke-linecap:round; stroke-linejoin:round;">
<text x="135.0000" y="11.6500"
textLength="1.4281" font-size="1.7333" lengthAdjust="spacingAndGlyphs"
text-anchor="start" opacity="0" stroke-opacity="0">3</text>
<g class="stroked-text"><desc>3</desc>
<path d="M135.2844 10.2936
L136.0892 10.2936
" />
<path d="M136.0892 10.2936
L135.6558 10.7888
" />
<path d="M135.6558 10.7888
L135.8415 10.7888
" />
<path d="M135.8415 10.7888
L135.9654 10.8507
" />
<path d="M135.9654 10.8507
L136.0273 10.9127
" />
<path d="M136.0273 10.9127
L136.0892 11.0365
" />
<path d="M136.0892 11.0365
L136.0892 11.3460
" />
<path d="M136.0892 11.3460
L136.0273 11.4698
" />
<path d="M136.0273 11.4698
L135.9654 11.5317
" />
<path d="M135.9654 11.5317
L135.8415 11.5936
" />
<path d="M135.8415 11.5936
L135.4701 11.5936
" />
<path d="M135.4701 11.5936
L135.3463 11.5317
" />
<path d="M135.3463 11.5317
L135.2844 11.4698
" />
</g></g>
<g style="fill:none; 
stroke:#000000; stroke-width:0.1500; stroke-opacity:1; 
stroke-linecap:round; stroke-linejoin:round;">
<text x="185.0000" y="11.6500"
textLength="1.4281" font-size="1.7333" lengthAdjust="spacingAndGlyphs"
text-anchor="start" opacity="0" stroke-opacity="0">4</text>
<g class="stroked-text"><desc>4</desc>
<path d="M185.9654 10.7269
L185.9654 11.5936
" />
<path d="M185.6558 10.2317
L185.3463 11.1603
" />
<path d="M185.3463 11.1603
L186.1511 11.1603
" />
</g></g>
<g style="fill:none; 
stroke:#000000; stroke-width:0.1500; stroke-opacity:1; 
stroke-linecap:round; stroke-linejoin:round;">
<text x="235.0000" y="11.6500"
textLength="1.4281" font-size="1.7333" lengthAdjust="spacingAndGlyphs"
text-anchor="start" opacity="0" stroke-opacity="0">5</text>
<g class="stroked-text"><desc>5</desc>
<path d="M236.0273 10.2936
L235.4082 10.2936
" />
<path d="M235.4082 10.2936
L235.3463 10.9127
" />
<path d="M235.3463 10.9127
L235.4082 10.8507
" />
<path d="M235.4082 10.8507
L235.5320 10.7888
" />
<path d="M235.5320 10.7888
L235.8415 10.7888
" />
<path d="M235.8415 10.7888
L235.9654 10.8507
" />
<path d="M235.9654 10.8507
L236.0273 10.9127
" />
<path d="M236.0273 10.9127
L236.0892 11.0365
" />
<path d="M236.0892 11.0365
L236.0892 11.3460
" />
<path d="M236.0892 11.3460
L236.0273 11.4698
" />
<path d="M236.0273 11.4698
L235.9654 11.5317
" />
<path d="M235.9654 11.5317
L235.8415 11.5936
" />
<path d="M235.8415 11.5936
L235.5320 11.5936
" />
<path d="M235.5320 11.5936
L235.4082 11.5317
" />
<path d="M235.4082 11.5317
L235.3463 11.4698
" />
</g></g>
<g style="fill:none; 
stroke:#000000; stroke-width:0.1500; stroke-opacity:1; 
stroke-linecap:round; stroke-linejoin:round;">
<text x="285.0000" y="11.6500"
textLength="1.4281" font-size="1.7333" lengthAdjust="spacingAndGlyphs"
text-anchor="start" opacity="0" stroke-opacity="0">6</text>
<g class="stroked-text"><desc>6</desc>
<path d="M285.9654 10.2936
L285.7177 10.2936
" />
<path d="M285.7177 10.2936
L285.5939 10.3555
" />
<path d="M285.5939 10.3555
L285.5320 10.4174
" />
<path d="M285.5320 10.4174
L285.4082 10.6031
" />
<path d="M285.4082 10.6031
L285.3463 10.8507
" />
<path d="M285.3463 10.8507
L285.3463 11.3460
" />
<path d="M285.3463 11.3460
L285.4082 11.4698
" />
<path d="M285.4082 11.4698
L285.4701 11.5317
" />
<path d="M285.4701 11.5317
L285.5939 11.5936
" />
<path d="M285.5939 11.5936
L285.8415 11.5936
" />
<path d="M285.8415 11.5936
L285.9654 11.5317
" />
<path d="M285.9654 11.5317
L286.0273 11.4698
" />
<path d="M286.0273 11.4698
L286.0892 11.3460
" />
<path d="M286.0892 11.3460
L286.0892 11.0365
" />
<path d="M286.0892 11.0365
L286.0273 10.9127
" />
<path d="M286.0273 10.9127
L285.9654 10.8507
" />
<path d="M285.9654 10.8507
L285.8415 10.7888
" />
<path d="M285.8415 10.7888
L285.5939 10.7888
" />
<path d="M285.5939 10.7888
L285.4701 10.8507
" />
<path d="M285.4701 10.8507
L285.4082 10.9127
" />
<path d="M285.4082 10.9127
L285.3463 11.0365
" />
</g></g>
<g style="fill:none; 
stroke:#000000; stroke-width:0.1500; stroke-opacity:1; 
stroke-linecap:round; stroke-linejoin:round;">
<path d="M60.0000 198.0072
L60.0000 200.0072
" />
</g>
<g style="fill:none; 
stroke:#000000; stroke-width:0.1500; stroke-opacity:1; 
stroke-linecap:round; stroke-linejoin:round;">
<path d="M110.0000 198.0072
L110.0000 200.0072
" />
</g>
<g style="fill:none; 
stroke:#000000; stroke-width:0.1500; stroke-opacity:1; 
stroke-linecap:round; stroke-linejoin:round;">
<path d="M160.0000 198.0072
L160.0000 200.0072
" />
</g>
<g style="fill:none; 
stroke:#000000; stroke-width:0.1500; stroke-opacity:1; 
stroke-linecap:round; stroke-linejoin:round;">
<path d="M210.0000 198.0072
L210.0000 200.0072
" />
</g>
<g style="fill:none; 
stroke:#000000; stroke-width:0.1500; stroke-opacity:1; 
stroke-linecap:round; stroke-linejoin:round;">
<path d="M260.0000 198.0072
L260.0000 200.0072
" />
</g>
<g style="fill:none; 
stroke:#000000; stroke-width:0.1500; stroke-opacity:1; 
stroke-linecap:round; stroke-linejoin:round;">
<text x="35.0000" y="199.6572"
textLength="1.4281" font-size="1.7333" lengthAdjust="spacingAndGlyphs"
text-anchor="start" opacity="0" stroke-opacity="0">1</text>
<g class="stroked-text"><desc>1</desc>
<path d="M36.0892 199.6008
L35.3463 199.6008
" />
<path d="M35.7177 199.6008
L35.7177 198.3008
" />
<path d="M35.7177 198.3008
L35.5939 198.4865
" />
<path d="M35.5939 198.4865
L35.4701 198.6103
" />
<path d="M35.4701 198.6103
L35.3463 198.6722
" />
</g></g>
<g style="fill:none; 
stroke:#000000; stroke-width:0.1500; stroke-opacity:1; 
stroke-linecap:round; stroke-linejoin:round;">
<text x="85.0000" y="199.6572"
textLength="1.4281" font-size="1.7333" lengthAdjust="spacingAndGlyphs"
text-anchor="start" opacity="0" stroke-opacity="0">2</text>
<g class="stroked-text"><desc>2</desc>
<path d="M85.3463 198.4246
L85.4082 198.3627
" />
<path d="M85.4082 198.3627
L85.5320 198.3008
" />
<path d="M85.5320 198.3008
L85.8415 198.3008
" />
<path d="M85.8415 198.3008
L85.9654 198.3627
" />
<path d="M85.9654 198.3627
L86.0273 198.4246
" />
<path d="M86.0273 198.4246
L86.0892 198.5484
" />
<path d="M86.0892 198.5484
L86.0892 198.6722
" />
<path d="M86.0892 198.6722
L86.0273 198.8579
" />
<path d="M86.0273 198.8579
L85.2844 199.6008
" />
<path d="M85.2844 199.6008
L86.0892 199.6008
" />
</g></g>
<g style="fill:none; 
stroke:#000000; stroke-width:0.1500; stroke-opacity:1; 
stroke-linecap:round; stroke-linejoin:round;">
<text x="135.0000" y="199.6572"
textLength="1.4281" font-size="1.7333" lengthAdjust="spacingAndGlyphs"
text-anchor="start" opacity="0" stroke-opacity="0">3</text>
<g class="stroked-text"><desc>3</desc>
<path d="M135.2844 198.3008
L136.0892 198.3008
" />
<path d="M136.0892 198.3008
L135.6558 198.7960
" />
<path d="M135.6558 198.7960
L135.8415 198.7960
" />
<path d="M135.8415 198.7960
L135.9654 198.8579
" />
<path d="M135.9654 198.8579
L136.0273 198.9199
" />
<path d="M136.0273 198.9199
L136.0892 199.0437
" />
<path d="M136.0892 199.0437
L136.0892 199.3532
" />
<path d="M136.0892 199.3532
L136.0273 199.4770
" />
<path d="M136.0273 199.4770
L135.9654 199.5389
" />
<path d="M135.9654 199.5389
L135.8415 199.6008
" />
<path d="M135.8415 199.6008
L135.4701 199.6008
" />
<path d="M135.4701 199.6008
L135.3463 199.5389
" />
<path d="M135.3463 199.5389
L135.2844 199.4770
" />
</g></g>
<g style="fill:none; 
stroke:#000000; stroke-width:0.1500; stroke-opacity:1; 
stroke-linecap:round; stroke-linejoin:round;">
<text x="185.0000" y="199.6572"
textLength="1.4281" font-size="1.7333" lengthAdjust="spacingAndGlyphs"
text-anchor="start" opacity="0" stroke-opacity="0">4</text>
<g class="stroked-text"><desc>4</desc>
<path d="M185.9654 198.7341
L185.9654 199.6008
" />
<path d="M185.6558 198.2389
L185.3463 199.1675
" />
<path d="M185.3463 199.1675
L186.1511 199.1675
" />
</g></g>
<g style="fill:none; 
stroke:#000000; stroke-width:0.1500; stroke-opacity:1; 
stroke-linecap:round; stroke-linejoin:round;">
<text x="235.0000" y="199.6572"
textLength="1.4281" font-size="1.7333" lengthAdjust="spacingAndGlyphs"
text-anchor="start" opacity="0" stroke-opacity="0">5</text>
<g class="stroked-text"><desc>5</desc>
<path d="M236.0273 198.3008
L235.4082 198.3008
" />
<path d="M235.4082 198.3008
L235.3463 198.9199
" />
<path d="M235.3463 198.9199
L235.4082 198.8579
" />
<path d="M235.4082 198.8579
L235.5320 198.7960
" />
<path d="M235.5320 198.7960
L235.8415 198.7960
" />
<path d="M235.8415 198.7960
L235.9654 198.8579
" />
<path d="M235.9654 198.8579
L236.0273 198.9199
" />
<path d="M236.0273 198.9199
L236.0892 199.0437
" />
<path d="M236.0892 199.0437
L236.0892 199.3532
" />
<path d="M236.0892 199.3532
L236.0273 199.4770
" />
<path d="M236.0273 199.4770
L235.9654 199.5389
" />
<path d="M235.9654 199.5389
L235.8415 199.6008
" />
<path d="M235.8415 199.6008
L235.5320 199.6008
" />
<path d="M235.5320 199.6008
L235.4082 199.5389
" />
<path d="M235.4082 199.5389
L235.3463 199.4770
" />
</g></g>
<g style="fill:none; 
stroke:#000000; stroke-width:0.1500; stroke-opacity:1; 
stroke-linecap:round; stroke-linejoin:round;">
<text x="285.0000" y="199.6572"
textLength="1.4281" font-size="1.7333" lengthAdjust="spacingAndGlyphs"
text-anchor="start" opacity="0" stroke-opacity="0">6</text>
<g class="stroked-text"><desc>6</desc>
<path d="M285.9654 198.3008
L285.7177 198.3008
" />
<path d="M285.7177 198.3008
L285.5939 198.3627
" />
<path d="M285.5939 198.3627
L285.5320 198.4246
" />
<path d="M285.5320 198.4246
L285.4082 198.6103
" />
<path d="M285.4082 198.6103
L285.3463 198.8579
" />
<path d="M285.3463 198.8579
L285.3463 199.3532
" />
<path d="M285.3463 199.3532
L285.4082 199.4770
" />
<path d="M285.4082 199.4770
L285.4701 199.5389
" />
<path d="M285.4701 199.5389
L285.5939 199.6008
" />
<path d="M285.5939 199.6008
L285.8415 199.6008
" />
<path d="M285.8415 199.6008
L285.9654 199.5389
" />
<path d="M285.9654 199.5389
L286.0273 199.4770
" />
<path d="M286.0273 199.4770
L286.0892 199.3532
" />
<path d="M286.0892 199.3532
L286.0892 199.0437
" />
<path d="M286.0892 199.0437
L286.0273 198.9199
" />
<path d="M286.0273 198.9199
L285.9654 198.8579
" />
<path d="M285.9654 198.8579
L285.8415 198.7960
" />
<path d="M285.8415 198.7960
L285.5939 198.7960
" />
<path d="M285.5939 198.7960
L285.4701 198.8579
" />
<path d="M285.4701 198.8579
L285.4082 198.9199
" />
<path d="M285.4082 198.9199
L285.3463 199.0437
" />
</g></g>
<g style="fill:none; 
stroke:#000000; stroke-width:0.1500; stroke-opacity:1; 
stroke-linecap:round; stroke-linejoin:round;">
<path d="M10.0000 60.0000
L12.0000 60.0000
" />
</g>
<g style="fill:none; 
stroke:#000000; stroke-width:0.1500; stroke-opacity:1; 
stroke-linecap:round; stroke-linejoin:round;">
<path d="M10.0000 110.0000
L12.0000 110.0000
" />
</g>
<g style="fill:none; 
stroke:#000000; stroke-width:0.1500; stroke-opacity:1; 
stroke-linecap:round; stroke-linejoin:round;">
<path d="M10.0000 160.0000
L12.0000 160.0000
" />
</g>
<g style="fill:none; 
stroke:#000000; stroke-width:0.1500; stroke-opacity:1; 
stroke-linecap:round; stroke-linejoin:round;">
<text x="11.0000" y="35.6500"
textLength="1.3043" font-size="1.7333" lengthAdjust="spacingAndGlyphs"
text-anchor="middle" opacity="0" stroke-opacity="0">A</text>
<g class="stroked-text"><desc>A</desc>
<path d="M10.6905 35.2222
L11.3095 35.2222
" />
<path d="M10.5667 35.5936
L11.0000 34.2936
" />
<path d="M11.0000 34.2936
L11.4333 35.5936
" />
</g></g>
<g style="fill:none; 
stroke:#000000; stroke-width:0.1500; stroke-opacity:1; 
stroke-linecap:round; stroke-linejoin:round;">
<text x="11.0000" y="85.6500"
textLength="1.4900" font-size="1.7333" lengthAdjust="spacingAndGlyphs"
text-anchor="middle" opacity="0" stroke-opacity="0">B</text>
<g class="stroked-text"><desc>B</desc>
<path d="M11.0929 84.9127
L11.2786 84.9746
" />
<path d="M11.2786 84.9746
L11.3405 85.0365
" />
<path d="M11.3405 85.0365
L11.4024 85.1603
" />
<path d="M11.4024 85.1603
L11.4024 85.3460
" />
<path d="M11.4024 85.3460
L11.3405 85.4698
" />
<path d="M11.3405 85.4698
L11.2786 85.5317
" />
<path d="M11.2786 85.5317
L11.1548 85.5936
" />
<path d="M11.1548 85.5936
L10.6595 85.5936
" />
<path d="M10.6595 85.5936
L10.6595 84.2936
" />
<path d="M10.6595 84.2936
L11.0929 84.2936
" />
<path d="M11.0929 84.2936
L11.2167 84.3555
" />
<path d="M11.2167 84.3555
L11.2786 84.4174
" />
<path d="M11.2786 84.4174
L11.3405 84.5412
" />
<path d="M11.3405 84.5412
L11.3405 84.6650
" />
<path d="M11.3405 84.6650
L11.2786 84.7888
" />
<path d="M11.2786 84.7888
L11.2167 84.8507
" />
<path d="M11.2167 84.8507
L11.0929 84.9127
" />
<path d="M11.0929 84.9127
L10.6595 84.9127
" />
</g></g>
<g style="fill:none; 
stroke:#000000; stroke-width:0.1500; stroke-opacity:1; 
stroke-linecap:round; stroke-linejoin:round;">
<text x="11.0000" y="135.6500"
textLength="1.4900" font-size="1.7333" lengthAdjust="spacingAndGlyphs"
text-anchor="middle" opacity="0" stroke-opacity="0">C</text>
<g class="stroked-text"><desc>C</desc>
<path d="M11.4024 135.4698
L11.3405 135.5317
" />
<path d="M11.3405 135.5317
L11.1548 135.5936
" />
<path d="M11.1548 135.5936
L11.0310 135.5936
" />
<path d="M11.0310 135.5936
L10.8452 135.5317
" />
<path d="M10.8452 135.5317
L10.7214 135.4079
" />
<path d="M10.7214 135.4079
L10.6595 135.2841
" />
<path d="M10.6595 135.2841
L10.5976 135.0365
" />
<path d="M10.5976 135.0365
L10.5976 134.8507
" />
<path d="M10.5976 134.8507
L10.6595 134.6031
" />
<path d="M10.6595 134.6031
L10.7214 134.4793
" />
<path d="M10.7214 134.4793
L10.8452 134.3555
" />
<path d="M10.8452 134.3555
L11.0310 134.2936
" />
<path d="M11.0310 134.2936
L11.1548 134.2936
" />
<path d="M11.1548 134.2936
L11.3405 134.3555
" />
<path d="M11.3405 134.3555
L11.4024 134.4174
" />
</g></g>
<g style="fill:none; 
stroke:#000000; stroke-width:0.1500; stroke-opacity:1; 
stroke-linecap:round; stroke-linejoin:round;">
<text x="11.0000" y="185.6500"
textLength="1.4900" font-size="1.7333" lengthAdjust="spacingAndGlyphs"
text-anchor="middle" opacity="0" stroke-opacity="0">D</text>
<g class="stroked-text"><desc>D</desc>
<path d="M10.6595 185.5936
L10.6595 184.2936
" />
<path d="M10.6595 184.2936
L10.9690 184.2936
" />
<path d="M10.9690 184.2936
L11.1548 184.3555
" />
<path d="M11.1548 184.3555
L11.2786 184.4793
" />
<path d="M11.2786 184.4793
L11.3405 184.6031
" />
<path d="M11.3405 184.6031
L11.4024 184.8507
" />
<path d="M11.4024 184.8507
L11.4024 185.0365
" />
<path d="M11.4024 185.0365
L11.3405 185.2841
" />
<path d="M11.3405 185.2841
L11.2786 185.4079
" />
<path d="M11.2786 185.4079
L11.1548 185.5317
" />
<path d="M11.1548 185.5317
L10.9690 185.5936
" />
<path d="M10.9690 185.5936
L10.6595 185.5936
" />
</g></g>
<g style="fill:none; 
stroke:#000000; stroke-width:0.1500; stroke-opacity:1; 
stroke-linecap:round; stroke-linejoin:round;">
<path d="M287.0022 60.0000
L285.0022 60.0000
" />
</g>
<g style="fill:none; 
stroke:#000000; stroke-width:0.1500; stroke-opacity:1; 
stroke-linecap:round; stroke-linejoin:round;">
<path d="M287.0022 110.0000
L285.0022 110.0000
" />
</g>
<g style="fill:none; 
stroke:#000000; stroke-width:0.1500; stroke-opacity:1; 
stroke-linecap:round; stroke-linejoin:round;">
<path d="M287.0022 160.0000
L285.0022 160.0000
" />
</g>
<g style="fill:none; 
stroke:#000000; stroke-width:0.1500; stroke-opacity:1; 
stroke-linecap:round; stroke-linejoin:round;">
<text x="286.0022" y="35.6500"
textLength="1.3043" font-size="1.7333" lengthAdjust="spacingAndGlyphs"
text-anchor="middle" opacity="0" stroke-opacity="0">A</text>
<g class="stroked-text"><desc>A</desc>
<path d="M285.6927 35.2222
L286.3117 35.2222
" />
<path d="M285.5689 35.5936
L286.0022 34.2936
" />
<path d="M286.0022 34.2936
L286.4355 35.5936
" />
</g></g>
<g style="fill:none; 
stroke:#000000; stroke-width:0.1500; stroke-opacity:1; 
stroke-linecap:round; stroke-linejoin:round;">
<text x="286.0022" y="85.6500"
textLength="1.4900" font-size="1.7333" lengthAdjust="spacingAndGlyphs"
text-anchor="middle" opacity="0" stroke-opacity="0">B</text>
<g class="stroked-text"><desc>B</desc>
<path d="M286.0951 84.9127
L286.2808 84.9746
" />
<path d="M286.2808 84.9746
L286.3427 85.0365
" />
<path d="M286.3427 85.0365
L286.4046 85.1603
" />
<path d="M286.4046 85.1603
L286.4046 85.3460
" />
<path d="M286.4046 85.3460
L286.3427 85.4698
" />
<path d="M286.3427 85.4698
L286.2808 85.5317
" />
<path d="M286.2808 85.5317
L286.1570 85.5936
" />
<path d="M286.1570 85.5936
L285.6617 85.5936
" />
<path d="M285.6617 85.5936
L285.6617 84.2936
" />
<path d="M285.6617 84.2936
L286.0951 84.2936
" />
<path d="M286.0951 84.2936
L286.2189 84.3555
" />
<path d="M286.2189 84.3555
L286.2808 84.4174
" />
<path d="M286.2808 84.4174
L286.3427 84.5412
" />
<path d="M286.3427 84.5412
L286.3427 84.6650
" />
<path d="M286.3427 84.6650
L286.2808 84.7888
" />
<path d="M286.2808 84.7888
L286.2189 84.8507
" />
<path d="M286.2189 84.8507
L286.0951 84.9127
" />
<path d="M286.0951 84.9127
L285.6617 84.9127
" />
</g></g>
<g style="fill:none; 
stroke:#000000; stroke-width:0.1500; stroke-opacity:1; 
stroke-linecap:round; stroke-linejoin:round;">
<text x="286.0022" y="135.6500"
textLength="1.4900" font-size="1.7333" lengthAdjust="spacingAndGlyphs"
text-anchor="middle" opacity="0" stroke-opacity="0">C</text>
<g class="stroked-text"><desc>C</desc>
<path d="M286.4046 135.4698
L286.3427 135.5317
" />
<path d="M286.3427 135.5317
L286.1570 135.5936
" />
<path d="M286.1570 135.5936
L286.0332 135.5936
" />
<path d="M286.0332 135.5936
L285.8474 135.5317
" />
<path d="M285.8474 135.5317
L285.7236 135.4079
" />
<path d="M285.7236 135.4079
L285.6617 135.2841
" />
<path d="M285.6617 135.2841
L285.5998 135.0365
" />
<path d="M285.5998 135.0365
L285.5998 134.8507
" />
<path d="M285.5998 134.8507
L285.6617 134.6031
" />
<path d="M285.6617 134.6031
L285.7236 134.4793
" />
<path d="M285.7236 134.4793
L285.8474 134.3555
" />
<path d="M285.8474 134.3555
L286.0332 134.2936
" />
<path d="M286.0332 134.2936
L286.1570 134.2936
" />
<path d="M286.1570 134.2936
L286.3427 134.3555
" />
<path d="M286.3427 134.3555
L286.4046 134.4174
" />
</g></g>
<g style="fill:none; 
stroke:#000000; stroke-width:0.1500; stroke-opacity:1; 
stroke-linecap:round; stroke-linejoin:round;">
<text x="286.0022" y="185.6500"
textLength="1.4900" font-size="1.7333" lengthAdjust="spacingAndGlyphs"
text-anchor="middle" opacity="0" stroke-opacity="0">D</text>
<g class="stroked-text"><desc>D</desc>
<path d="M285.6617 185.5936
L285.6617 184.2936
" />
<path d="M285.6617 184.2936
L285.9712 184.2936
" />
<path d="M285.9712 184.2936
L286.1570 184.3555
" />
<path d="M286.1570 184.3555
L286.2808 184.4793
" />
<path d="M286.2808 184.4793
L286.3427 184.6031
" />
<path d="M286.3427 184.6031
L286.4046 184.8507
" />
<path d="M286.4046 184.8507
L286.4046 185.0365
" />
<path d="M286.4046 185.0365
L286.3427 185.2841
" />
<path d="M286.3427 185.2841
L286.2808 185.4079
" />
<path d="M286.2808 185.4079
L286.1570 185.5317
" />
<path d="M286.1570 185.5317
L285.9712 185.5936
" />
<path d="M285.9712 185.5936
L285.6617 185.5936
" />
</g></g>
<g style="fill:none; 
stroke:#000000; stroke-width:0.1500; stroke-opacity:1; 
stroke-linecap:round; stroke-linejoin:round;">
<text x="200.0022" y="193.8572"
textLength="7.0071" font-size="2.0000" lengthAdjust="spacingAndGlyphs"
text-anchor="start" opacity="0" stroke-opacity="0">Date: </text>
<g class="stroked-text"><desc>Date: </desc>
<path d="M200.4580 193.7933
L200.4580 192.2933
" />
<path d="M200.4580 192.2933
L200.8152 192.2933
" />
<path d="M200.8152 192.2933
L201.0295 192.3648
" />
<path d="M201.0295 192.3648
L201.1723 192.5076
" />
<path d="M201.1723 192.5076
L201.2437 192.6505
" />
<path d="M201.2437 192.6505
L201.3152 192.9362
" />
<path d="M201.3152 192.9362
L201.3152 193.1505
" />
<path d="M201.3152 193.1505
L201.2437 193.4362
" />
<path d="M201.2437 193.4362
L201.1723 193.5790
" />
<path d="M201.1723 193.5790
L201.0295 193.7219
" />
<path d="M201.0295 193.7219
L200.8152 193.7933
" />
<path d="M200.8152 193.7933
L200.4580 193.7933
" />
<path d="M202.6009 193.7933
L202.6009 193.0076
" />
<path d="M202.6009 193.0076
L202.5295 192.8648
" />
<path d="M202.5295 192.8648
L202.3866 192.7933
" />
<path d="M202.3866 192.7933
L202.1009 192.7933
" />
<path d="M202.1009 192.7933
L201.9580 192.8648
" />
<path d="M202.6009 193.7219
L202.4580 193.7933
" />
<path d="M202.4580 193.7933
L202.1009 193.7933
" />
<path d="M202.1009 193.7933
L201.9580 193.7219
" />
<path d="M201.9580 193.7219
L201.8866 193.5790
" />
<path d="M201.8866 193.5790
L201.8866 193.4362
" />
<path d="M201.8866 193.4362
L201.9580 193.2933
" />
<path d="M201.9580 193.2933
L202.1009 193.2219
" />
<path d="M202.1009 193.2219
L202.4580 193.2219
" />
<path d="M202.4580 193.2219
L202.6009 193.1505
" />
<path d="M203.1009 192.7933
L203.6723 192.7933
" />
<path d="M203.3152 192.2933
L203.3152 193.5790
" />
<path d="M203.3152 193.5790
L203.3866 193.7219
" />
<path d="M203.3866 193.7219
L203.5295 193.7933
" />
<path d="M203.5295 193.7933
L203.6723 193.7933
" />
<path d="M204.7437 193.7219
L204.6009 193.7933
" />
<path d="M204.6009 193.7933
L204.3152 193.7933
" />
<path d="M204.3152 193.7933
L204.1723 193.7219
" />
<path d="M204.1723 193.7219
L204.1009 193.5790
" />
<path d="M204.1009 193.5790
L204.1009 193.0076
" />
<path d="M204.1009 193.0076
L204.1723 192.8648
" />
<path d="M204.1723 192.8648
L204.3152 192.7933
" />
<path d="M204.3152 192.7933
L204.6009 192.7933
" />
<path d="M204.6009 192.7933
L204.7437 192.8648
" />
<path d="M204.7437 192.8648
L204.8152 193.0076
" />
<path d="M204.8152 193.0076
L204.8152 193.1505
" />
<path d="M204.8152 193.1505
L204.1009 193.2933
" />
<path d="M205.4580 193.6505
L205.5295 193.7219
" />
<path d="M205.5295 193.7219
L205.4580 193.7933
" />
<path d="M205.4580 193.7933
L205.3866 193.7219
" />
<path d="M205.3866 193.7219
L205.4580 193.6505
" />
<path d="M205.4580 193.6505
L205.4580 193.7933
" />
<path d="M205.4580 192.8648
L205.5295 192.9362
" />
<path d="M205.5295 192.9362
L205.4580 193.0076
" />
<path d="M205.4580 193.0076
L205.3866 192.9362
" />
<path d="M205.3866 192.9362
L205.4580 192.8648
" />
<path d="M205.4580 192.8648
L205.4580 193.0076
" />
</g></g>
<g style="fill:none; 
stroke:#000000; stroke-width:0.1500; stroke-opacity:1; 
stroke-linecap:round; stroke-linejoin:round;">
<path d="M177.0022 194.5072
L285.0022 194.5072
" />
</g>
<g style="fill:none; 
stroke:#000000; stroke-width:0.1500; stroke-opacity:1; 
stroke-linecap:round; stroke-linejoin:round;">
<text x="178.0022" y="196.6572"
textLength="20.8643" font-size="2.0000" lengthAdjust="spacingAndGlyphs"
text-anchor="start" opacity="0" stroke-opacity="0">KiCad E.D.A. 8.0.5</text>
<g class="stroked-text"><desc>KiCad E.D.A. 8.0.5</desc>
<path d="M178.4580 196.5933
L178.4580 195.0933
" />
<path d="M179.3152 196.5933
L178.6723 195.7362
" />
<path d="M179.3152 195.0933
L178.4580 195.9505
" />
<path d="M179.9580 196.5933
L179.9580 195.5933
" />
<path d="M179.9580 195.0933
L179.8866 195.1648
" />
<path d="M179.8866 195.1648
L179.9580 195.2362
" />
<path d="M179.9580 195.2362
L180.0295 195.1648
" />
<path d="M180.0295 195.1648
L179.9580 195.0933
" />
<path d="M179.9580 195.0933
L179.9580 195.2362
" />
<path d="M181.5295 196.4505
L181.4580 196.5219
" />
<path d="M181.4580 196.5219
L181.2437 196.5933
" />
<path d="M181.2437 196.5933
L181.1009 196.5933
" />
<path d="M181.1009 196.5933
L180.8866 196.5219
" />
<path d="M180.8866 196.5219
L180.7437 196.3790
" />
<path d="M180.7437 196.3790
L180.6723 196.2362
" />
<path d="M180.6723 196.2362
L180.6009 195.9505
" />
<path d="M180.6009 195.9505
L180.6009 195.7362
" />
<path d="M180.6009 195.7362
L180.6723 195.4505
" />
<path d="M180.6723 195.4505
L180.7437 195.3076
" />
<path d="M180.7437 195.3076
L180.8866 195.1648
" />
<path d="M180.8866 195.1648
L181.1009 195.0933
" />
<path d="M181.1009 195.0933
L181.2437 195.0933
" />
<path d="M181.2437 195.0933
L181.4580 195.1648
" />
<path d="M181.4580 195.1648
L181.5295 195.2362
" />
<path d="M182.8152 196.5933
L182.8152 195.8076
" />
<path d="M182.8152 195.8076
L182.7437 195.6648
" />
<path d="M182.7437 195.6648
L182.6009 195.5933
" />
<path d="M182.6009 195.5933
L182.3152 195.5933
" />
<path d="M182.3152 195.5933
L182.1723 195.6648
" />
<path d="M182.8152 196.5219
L182.6723 196.5933
" />
<path d="M182.6723 196.5933
L182.3152 196.5933
" />
<path d="M182.3152 196.5933
L182.1723 196.5219
" />
<path d="M182.1723 196.5219
L182.1009 196.3790
" />
<path d="M182.1009 196.3790
L182.1009 196.2362
" />
<path d="M182.1009 196.2362
L182.1723 196.0933
" />
<path d="M182.1723 196.0933
L182.3152 196.0219
" />
<path d="M182.3152 196.0219
L182.6723 196.0219
" />
<path d="M182.6723 196.0219
L182.8152 195.9505
" />
<path d="M184.1723 196.5933
L184.1723 195.0933
" />
<path d="M184.1723 196.5219
L184.0295 196.5933
" />
<path d="M184.0295 196.5933
L183.7437 196.5933
" />
<path d="M183.7437 196.5933
L183.6009 196.5219
" />
<path d="M183.6009 196.5219
L183.5295 196.4505
" />
<path d="M183.5295 196.4505
L183.4580 196.3076
" />
<path d="M183.4580 196.3076
L183.4580 195.8790
" />
<path d="M183.4580 195.8790
L183.5295 195.7362
" />
<path d="M183.5295 195.7362
L183.6009 195.6648
" />
<path d="M183.6009 195.6648
L183.7437 195.5933
" />
<path d="M183.7437 195.5933
L184.0295 195.5933
" />
<path d="M184.0295 195.5933
L184.1723 195.6648
" />
<path d="M186.0295 195.8076
L186.5295 195.8076
" />
<path d="M186.7437 196.5933
L186.0295 196.5933
" />
<path d="M186.0295 196.5933
L186.0295 195.0933
" />
<path d="M186.0295 195.0933
L186.7437 195.0933
" />
<path d="M187.3866 196.4505
L187.4580 196.5219
" />
<path d="M187.4580 196.5219
L187.3866 196.5933
" />
<path d="M187.3866 196.5933
L187.3152 196.5219
" />
<path d="M187.3152 196.5219
L187.3866 196.4505
" />
<path d="M187.3866 196.4505
L187.3866 196.5933
" />
<path d="M188.1009 196.5933
L188.1009 195.0933
" />
<path d="M188.1009 195.0933
L188.4580 195.0933
" />
<path d="M188.4580 195.0933
L188.6723 195.1648
" />
<path d="M188.6723 195.1648
L188.8152 195.3076
" />
<path d="M188.8152 195.3076
L188.8866 195.4505
" />
<path d="M188.8866 195.4505
L188.9580 195.7362
" />
<path d="M188.9580 195.7362
L188.9580 195.9505
" />
<path d="M188.9580 195.9505
L188.8866 196.2362
" />
<path d="M188.8866 196.2362
L188.8152 196.3790
" />
<path d="M188.8152 196.3790
L188.6723 196.5219
" />
<path d="M188.6723 196.5219
L188.4580 196.5933
" />
<path d="M188.4580 196.5933
L188.1009 196.5933
" />
<path d="M189.6009 196.4505
L189.6723 196.5219
" />
<path d="M189.6723 196.5219
L189.6009 196.5933
" />
<path d="M189.6009 196.5933
L189.5295 196.5219
" />
<path d="M189.5295 196.5219
L189.6009 196.4505
" />
<path d="M189.6009 196.4505
L189.6009 196.5933
" />
<path d="M190.2437 196.1648
L190.9580 196.1648
" />
<path d="M190.1009 196.5933
L190.6009 195.0933
" />
<path d="M190.6009 195.0933
L191.1009 196.5933
" />
<path d="M191.6009 196.4505
L191.6723 196.5219
" />
<path d="M191.6723 196.5219
L191.6009 196.5933
" />
<path d="M191.6009 196.5933
L191.5295 196.5219
" />
<path d="M191.5295 196.5219
L191.6009 196.4505
" />
<path d="M191.6009 196.4505
L191.6009 196.5933
" />
<path d="M193.6723 195.7362
L193.5295 195.6648
" />
<path d="M193.5295 195.6648
L193.4580 195.5933
" />
<path d="M193.4580 195.5933
L193.3866 195.4505
" />
<path d="M193.3866 195.4505
L193.3866 195.3790
" />
<path d="M193.3866 195.3790
L193.4580 195.2362
" />
<path d="M193.4580 195.2362
L193.5295 195.1648
" />
<path d="M193.5295 195.1648
L193.6723 195.0933
" />
<path d="M193.6723 195.0933
L193.9580 195.0933
" />
<path d="M193.9580 195.0933
L194.1009 195.1648
" />
<path d="M194.1009 195.1648
L194.1723 195.2362
" />
<path d="M194.1723 195.2362
L194.2437 195.3790
" />
<path d="M194.2437 195.3790
L194.2437 195.4505
" />
<path d="M194.2437 195.4505
L194.1723 195.5933
" />
<path d="M194.1723 195.5933
L194.1009 195.6648
" />
<path d="M194.1009 195.6648
L193.9580 195.7362
" />
<path d="M193.9580 195.7362
L193.6723 195.7362
" />
<path d="M193.6723 195.7362
L193.5295 195.8076
" />
<path d="M193.5295 195.8076
L193.4580 195.8790
" />
<path d="M193.4580 195.8790
L193.3866 196.0219
" />
<path d="M193.3866 196.0219
L193.3866 196.3076
" />
<path d="M193.3866 196.3076
L193.4580 196.4505
" />
<path d="M193.4580 196.4505
L193.5295 196.5219
" />
<path d="M193.5295 196.5219
L193.6723 196.5933
" />
<path d="M193.6723 196.5933
L193.9580 196.5933
" />
<path d="M193.9580 196.5933
L194.1009 196.5219
" />
<path d="M194.1009 196.5219
L194.1723 196.4505
" />
<path d="M194.1723 196.4505
L194.2437 196.3076
" />
<path d="M194.2437 196.3076
L194.2437 196.0219
" />
<path d="M194.2437 196.0219
L194.1723 195.8790
" />
<path d="M194.1723 195.8790
L194.1009 195.8076
" />
<path d="M194.1009 195.8076
L193.9580 195.7362
" />
<path d="M194.8866 196.4505
L194.9580 196.5219
" />
<path d="M194.9580 196.5219
L194.8866 196.5933
" />
<path d="M194.8866 196.5933
L194.8152 196.5219
" />
<path d="M194.8152 196.5219
L194.8866 196.4505
" />
<path d="M194.8866 196.4505
L194.8866 196.5933
" />
<path d="M195.8866 195.0933
L196.0295 195.0933
" />
<path d="M196.0295 195.0933
L196.1723 195.1648
" />
<path d="M196.1723 195.1648
L196.2437 195.2362
" />
<path d="M196.2437 195.2362
L196.3152 195.3790
" />
<path d="M196.3152 195.3790
L196.3866 195.6648
" />
<path d="M196.3866 195.6648
L196.3866 196.0219
" />
<path d="M196.3866 196.0219
L196.3152 196.3076
" />
<path d="M196.3152 196.3076
L196.2437 196.4505
" />
<path d="M196.2437 196.4505
L196.1723 196.5219
" />
<path d="M196.1723 196.5219
L196.0295 196.5933
" />
<path d="M196.0295 196.5933
L195.8866 196.5933
" />
<path d="M195.8866 196.5933
L195.7437 196.5219
" />
<path d="M195.7437 196.5219
L195.6723 196.4505
" />
<path d="M195.6723 196.4505
L195.6009 196.3076
" />
<path d="M195.6009 196.3076
L195.5295 196.0219
" />
<path d="M195.5295 196.0219
L195.5295 195.6648
" />
<path d="M195.5295 195.6648
L195.6009 195.3790
" />
<path d="M195.6009 195.3790
L195.6723 195.2362
" />
<path d="M195.6723 195.2362
L195.7437 195.1648
" />
<path d="M195.7437 195.1648
L195.8866 195.0933
" />
<path d="M197.0295 196.4505
L197.1009 196.5219
" />
<path d="M197.1009 196.5219
L197.0295 196.5933
" />
<path d="M197.0295 196.5933
L196.9580 196.5219
" />
<path d="M196.9580 196.5219
L197.0295 196.4505
" />
<path d="M197.0295 196.4505
L197.0295 196.5933
" />
<path d="M198.4580 195.0933
L197.7437 195.0933
" />
<path d="M197.7437 195.0933
L197.6723 195.8076
" />
<path d="M197.6723 195.8076
L197.7437 195.7362
" />
<path d="M197.7437 195.7362
L197.8866 195.6648
" />
<path d="M197.8866 195.6648
L198.2437 195.6648
" />
<path d="M198.2437 195.6648
L198.3866 195.7362
" />
<path d="M198.3866 195.7362
L198.4580 195.8076
" />
<path d="M198.4580 195.8076
L198.5295 195.9505
" />
<path d="M198.5295 195.9505
L198.5295 196.3076
" />
<path d="M198.5295 196.3076
L198.4580 196.4505
" />
<path d="M198.4580 196.4505
L198.3866 196.5219
" />
<path d="M198.3866 196.5219
L198.2437 196.5933
" />
<path d="M198.2437 196.5933
L197.8866 196.5933
" />
<path d="M197.8866 196.5933
L197.7437 196.5219
" />
<path d="M197.7437 196.5219
L197.6723 196.4505
" />
</g></g>
<g style="fill:none; 
stroke:#000000; stroke-width:0.1500; stroke-opacity:1; 
stroke-linecap:round; stroke-linejoin:round;">
<path d="M177.0022 191.5072
L285.0022 191.5072
" />
</g>
<g style="fill:none; 
stroke:#000000; stroke-width:0.3000; stroke-opacity:1; 
stroke-linecap:round; stroke-linejoin:round;">
<text x="263.0022" y="193.8572"
textLength="6.3857" font-size="2.0000" lengthAdjust="spacingAndGlyphs"
text-anchor="start" opacity="0" stroke-opacity="0">Rev: </text>
<g class="stroked-text"><desc>Rev: </desc>
<path d="M264.4139 193.7855
L263.9139 193.0712
" />
<path d="M263.5567 193.7855
L263.5567 192.2855
" />
<path d="M263.5567 192.2855
L264.1281 192.2855
" />
<path d="M264.1281 192.2855
L264.2710 192.3570
" />
<path d="M264.2710 192.3570
L264.3424 192.4284
" />
<path d="M264.3424 192.4284
L264.4139 192.5712
" />
<path d="M264.4139 192.5712
L264.4139 192.7855
" />
<path d="M264.4139 192.7855
L264.3424 192.9284
" />
<path d="M264.3424 192.9284
L264.2710 192.9998
" />
<path d="M264.2710 192.9998
L264.1281 193.0712
" />
<path d="M264.1281 193.0712
L263.5567 193.0712
" />
<path d="M265.6281 193.7141
L265.4853 193.7855
" />
<path d="M265.4853 193.7855
L265.1996 193.7855
" />
<path d="M265.1996 193.7855
L265.0567 193.7141
" />
<path d="M265.0567 193.7141
L264.9853 193.5712
" />
<path d="M264.9853 193.5712
L264.9853 192.9998
" />
<path d="M264.9853 192.9998
L265.0567 192.8570
" />
<path d="M265.0567 192.8570
L265.1996 192.7855
" />
<path d="M265.1996 192.7855
L265.4853 192.7855
" />
<path d="M265.4853 192.7855
L265.6281 192.8570
" />
<path d="M265.6281 192.8570
L265.6996 192.9998
" />
<path d="M265.6996 192.9998
L265.6996 193.1427
" />
<path d="M265.6996 193.1427
L264.9853 193.2855
" />
<path d="M266.1996 192.7855
L266.5567 193.7855
" />
<path d="M266.5567 193.7855
L266.9139 192.7855
" />
<path d="M267.4853 193.6427
L267.5567 193.7141
" />
<path d="M267.5567 193.7141
L267.4853 193.7855
" />
<path d="M267.4853 193.7855
L267.4139 193.7141
" />
<path d="M267.4139 193.7141
L267.4853 193.6427
" />
<path d="M267.4853 193.6427
L267.4853 193.7855
" />
<path d="M267.4853 192.8570
L267.5567 192.9284
" />
<path d="M267.5567 192.9284
L267.4853 192.9998
" />
<path d="M267.4853 192.9998
L267.4139 192.9284
" />
<path d="M267.4139 192.9284
L267.4853 192.8570
" />
<path d="M267.4853 192.8570
L267.4853 192.9998
" />
</g></g>
<g style="fill:none; 
stroke:#000000; stroke-width:0.1500; stroke-opacity:1; 
stroke-linecap:round; stroke-linejoin:round;">
<text x="178.0022" y="193.8572"
textLength="9.3643" font-size="2.0000" lengthAdjust="spacingAndGlyphs"
text-anchor="start" opacity="0" stroke-opacity="0">Size: A4</text>
<g class="stroked-text"><desc>Size: A4</desc>
<path d="M178.3866 193.7219
L178.6009 193.7933
" />
<path d="M178.6009 193.7933
L178.9580 193.7933
" />
<path d="M178.9580 193.7933
L179.1009 193.7219
" />
<path d="M179.1009 193.7219
L179.1723 193.6505
" />
<path d="M179.1723 193.6505
L179.2437 193.5076
" />
<path d="M179.2437 193.5076
L179.2437 193.3648
" />
<path d="M179.2437 193.3648
L179.1723 193.2219
" />
<path d="M179.1723 193.2219
L179.1009 193.1505
" />
<path d="M179.1009 193.1505
L178.9580 193.0790
" />
<path d="M178.9580 193.0790
L178.6723 193.0076
" />
<path d="M178.6723 193.0076
L178.5295 192.9362
" />
<path d="M178.5295 192.9362
L178.4580 192.8648
" />
<path d="M178.4580 192.8648
L178.3866 192.7219
" />
<path d="M178.3866 192.7219
L178.3866 192.5790
" />
<path d="M178.3866 192.5790
L178.4580 192.4362
" />
<path d="M178.4580 192.4362
L178.5295 192.3648
" />
<path d="M178.5295 192.3648
L178.6723 192.2933
" />
<path d="M178.6723 192.2933
L179.0295 192.2933
" />
<path d="M179.0295 192.2933
L179.2437 192.3648
" />
<path d="M179.8866 193.7933
L179.8866 192.7933
" />
<path d="M179.8866 192.2933
L179.8152 192.3648
" />
<path d="M179.8152 192.3648
L179.8866 192.4362
" />
<path d="M179.8866 192.4362
L179.9580 192.3648
" />
<path d="M179.9580 192.3648
L179.8866 192.2933
" />
<path d="M179.8866 192.2933
L179.8866 192.4362
" />
<path d="M180.4580 192.7933
L181.2437 192.7933
" />
<path d="M181.2437 192.7933
L180.4580 193.7933
" />
<path d="M180.4580 193.7933
L181.2437 193.7933
" />
<path d="M182.3866 193.7219
L182.2437 193.7933
" />
<path d="M182.2437 193.7933
L181.9580 193.7933
" />
<path d="M181.9580 193.7933
L181.8152 193.7219
" />
<path d="M181.8152 193.7219
L181.7437 193.5790
" />
<path d="M181.7437 193.5790
L181.7437 193.0076
" />
<path d="M181.7437 193.0076
L181.8152 192.8648
" />
<path d="M181.8152 192.8648
L181.9580 192.7933
" />
<path d="M181.9580 192.7933
L182.2437 192.7933
" />
<path d="M182.2437 192.7933
L182.3866 192.8648
" />
<path d="M182.3866 192.8648
L182.4580 193.0076
" />
<path d="M182.4580 193.0076
L182.4580 193.1505
" />
<path d="M182.4580 193.1505
L181.7437 193.2933
" />
<path d="M183.1009 193.6505
L183.1723 193.7219
" />
<path d="M183.1723 193.7219
L183.1009 193.7933
" />
<path d="M183.1009 193.7933
L183.0295 193.7219
" />
<path d="M183.0295 193.7219
L183.1009 193.6505
" />
<path d="M183.1009 193.6505
L183.1009 193.7933
" />
<path d="M183.1009 192.8648
L183.1723 192.9362
" />
<path d="M183.1723 192.9362
L183.1009 193.0076
" />
<path d="M183.1009 193.0076
L183.0295 192.9362
" />
<path d="M183.0295 192.9362
L183.1009 192.8648
" />
<path d="M183.1009 192.8648
L183.1009 193.0076
" />
<path d="M184.8866 193.3648
L185.6009 193.3648
" />
<path d="M184.7437 193.7933
L185.2437 192.2933
" />
<path d="M185.2437 192.2933
L185.7437 193.7933
" />
<path d="M186.8866 192.7933
L186.8866 193.7933
" />
<path d="M186.5295 192.2219
L186.1723 193.2933
" />
<path d="M186.1723 193.2933
L187.1009 193.2933
" />
</g></g>
<g style="fill:none; 
stroke:#000000; stroke-width:0.1500; stroke-opacity:1; 
stroke-linecap:round; stroke-linejoin:round;">
<text x="263.0022" y="196.6572"
textLength="8.5071" font-size="2.0000" lengthAdjust="spacingAndGlyphs"
text-anchor="start" opacity="0" stroke-opacity="0">Id: 1/1</text>
<g class="stroked-text"><desc>Id: 1/1</desc>
<path d="M263.4580 196.5933
L263.4580 195.0933
" />
<path d="M264.8152 196.5933
L264.8152 195.0933
" />
<path d="M264.8152 196.5219
L264.6723 196.5933
" />
<path d="M264.6723 196.5933
L264.3866 196.5933
" />
<path d="M264.3866 196.5933
L264.2437 196.5219
" />
<path d="M264.2437 196.5219
L264.1723 196.4505
" />
<path d="M264.1723 196.4505
L264.1009 196.3076
" />
<path d="M264.1009 196.3076
L264.1009 195.8790
" />
<path d="M264.1009 195.8790
L264.1723 195.7362
" />
<path d="M264.1723 195.7362
L264.2437 195.6648
" />
<path d="M264.2437 195.6648
L264.3866 195.5933
" />
<path d="M264.3866 195.5933
L264.6723 195.5933
" />
<path d="M264.6723 195.5933
L264.8152 195.6648
" />
<path d="M265.5295 196.4505
L265.6009 196.5219
" />
<path d="M265.6009 196.5219
L265.5295 196.5933
" />
<path d="M265.5295 196.5933
L265.4580 196.5219
" />
<path d="M265.4580 196.5219
L265.5295 196.4505
" />
<path d="M265.5295 196.4505
L265.5295 196.5933
" />
<path d="M265.5295 195.6648
L265.6009 195.7362
" />
<path d="M265.6009 195.7362
L265.5295 195.8076
" />
<path d="M265.5295 195.8076
L265.4580 195.7362
" />
<path d="M265.4580 195.7362
L265.5295 195.6648
" />
<path d="M265.5295 195.6648
L265.5295 195.8076
" />
<path d="M268.1723 196.5933
L267.3152 196.5933
" />
<path d="M267.7437 196.5933
L267.7437 195.0933
" />
<path d="M267.7437 195.0933
L267.6009 195.3076
" />
<path d="M267.6009 195.3076
L267.4580 195.4505
" />
<path d="M267.4580 195.4505
L267.3152 195.5219
" />
<path d="M269.8866 195.0219
L268.6009 196.9505
" />
<path d="M271.1723 196.5933
L270.3152 196.5933
" />
<path d="M270.7437 196.5933
L270.7437 195.0933
" />
<path d="M270.7437 195.0933
L270.6009 195.3076
" />
<path d="M270.6009 195.3076
L270.4580 195.4505
" />
<path d="M270.4580 195.4505
L270.3152 195.5219
" />
</g></g>
<g style="fill:none; 
stroke:#000000; stroke-width:0.1500; stroke-opacity:1; 
stroke-linecap:round; stroke-linejoin:round;">
<path d="M177.0022 187.5072
L285.0022 187.5072
" />
</g>
<g style="fill:none; 
stroke:#000000; stroke-width:0.4000; stroke-opacity:1; 
stroke-linecap:round; stroke-linejoin:round;">
<text x="178.0022" y="190.3072"
textLength="9.6571" font-size="2.6667" lengthAdjust="spacingAndGlyphs"
text-anchor="start" opacity="0" stroke-opacity="0">Title: </text>
<g class="stroked-text"><desc>Title: </desc>
<path d="M178.6939 188.2116
L179.8368 188.2116
" />
<path d="M179.0154 190.2116
L179.2654 188.2116
" />
<path d="M180.2535 190.2116
L180.4201 188.8783
" />
<path d="M180.5035 188.2116
L180.3963 188.3069
" />
<path d="M180.3963 188.3069
L180.4796 188.4021
" />
<path d="M180.4796 188.4021
L180.5868 188.3069
" />
<path d="M180.5868 188.3069
L180.5035 188.2116
" />
<path d="M180.5035 188.2116
L180.4796 188.4021
" />
<path d="M181.0868 188.8783
L181.8487 188.8783
" />
<path d="M181.4558 188.2116
L181.2415 189.9259
" />
<path d="M181.2415 189.9259
L181.3130 190.1164
" />
<path d="M181.3130 190.1164
L181.4915 190.2116
" />
<path d="M181.4915 190.2116
L181.6820 190.2116
" />
<path d="M182.6344 190.2116
L182.4558 190.1164
" />
<path d="M182.4558 190.1164
L182.3844 189.9259
" />
<path d="M182.3844 189.9259
L182.5987 188.2116
" />
<path d="M184.1701 190.1164
L183.9677 190.2116
" />
<path d="M183.9677 190.2116
L183.5868 190.2116
" />
<path d="M183.5868 190.2116
L183.4082 190.1164
" />
<path d="M183.4082 190.1164
L183.3368 189.9259
" />
<path d="M183.3368 189.9259
L183.4320 189.1640
" />
<path d="M183.4320 189.1640
L183.5511 188.9735
" />
<path d="M183.5511 188.9735
L183.7535 188.8783
" />
<path d="M183.7535 188.8783
L184.1344 188.8783
" />
<path d="M184.1344 188.8783
L184.3130 188.9735
" />
<path d="M184.3130 188.9735
L184.3844 189.1640
" />
<path d="M184.3844 189.1640
L184.3606 189.3545
" />
<path d="M184.3606 189.3545
L183.3844 189.5450
" />
<path d="M185.1344 190.0212
L185.2177 190.1164
" />
<path d="M185.2177 190.1164
L185.1106 190.2116
" />
<path d="M185.1106 190.2116
L185.0273 190.1164
" />
<path d="M185.0273 190.1164
L185.1344 190.0212
" />
<path d="M185.1344 190.0212
L185.1106 190.2116
" />
<path d="M185.2654 188.9735
L185.3487 189.0688
" />
<path d="M185.3487 189.0688
L185.2415 189.1640
" />
<path d="M185.2415 189.1640
L185.1582 189.0688
" />
<path d="M185.1582 189.0688
L185.2654 188.9735
" />
<path d="M185.2654 188.9735
L185.2415 189.1640
" />
</g></g>
<g style="fill:none; 
stroke:#000000; stroke-width:0.1500; stroke-opacity:1; 
stroke-linecap:round; stroke-linejoin:round;">
<text x="178.0022" y="186.4572"
textLength="26.7214" font-size="2.0000" lengthAdjust="spacingAndGlyphs"
text-anchor="start" opacity="0" stroke-opacity="0">File: LISN_5u.kicad_pcb</text>
<g class="stroked-text"><desc>File: LISN_5u.kicad_pcb</desc>
<path d="M178.9580 185.6076
L178.4580 185.6076
" />
<path d="M178.4580 186.3933
L178.4580 184.8933
" />
<path d="M178.4580 184.8933
L179.1723 184.8933
" />
<path d="M179.7437 186.3933
L179.7437 185.3933
" />
<path d="M179.7437 184.8933
L179.6723 184.9648
" />
<path d="M179.6723 184.9648
L179.7437 185.0362
" />
<path d="M179.7437 185.0362
L179.8152 184.9648
" />
<path d="M179.8152 184.9648
L179.7437 184.8933
" />
<path d="M179.7437 184.8933
L179.7437 185.0362
" />
<path d="M180.6723 186.3933
L180.5295 186.3219
" />
<path d="M180.5295 186.3219
L180.4580 186.1790
" />
<path d="M180.4580 186.1790
L180.4580 184.8933
" />
<path d="M181.8152 186.3219
L181.6723 186.3933
" />
<path d="M181.6723 186.3933
L181.3866 186.3933
" />
<path d="M181.3866 186.3933
L181.2437 186.3219
" />
<path d="M181.2437 186.3219
L181.1723 186.1790
" />
<path d="M181.1723 186.1790
L181.1723 185.6076
" />
<path d="M181.1723 185.6076
L181.2437 185.4648
" />
<path d="M181.2437 185.4648
L181.3866 185.3933
" />
<path d="M181.3866 185.3933
L181.6723 185.3933
" />
<path d="M181.6723 185.3933
L181.8152 185.4648
" />
<path d="M181.8152 185.4648
L181.8866 185.6076
" />
<path d="M181.8866 185.6076
L181.8866 185.7505
" />
<path d="M181.8866 185.7505
L181.1723 185.8933
" />
<path d="M182.5295 186.2505
L182.6009 186.3219
" />
<path d="M182.6009 186.3219
L182.5295 186.3933
" />
<path d="M182.5295 186.3933
L182.4580 186.3219
" />
<path d="M182.4580 186.3219
L182.5295 186.2505
" />
<path d="M182.5295 186.2505
L182.5295 186.3933
" />
<path d="M182.5295 185.4648
L182.6009 185.5362
" />
<path d="M182.6009 185.5362
L182.5295 185.6076
" />
<path d="M182.5295 185.6076
L182.4580 185.5362
" />
<path d="M182.4580 185.5362
L182.5295 185.4648
" />
<path d="M182.5295 185.4648
L182.5295 185.6076
" />
<path d="M185.1009 186.3933
L184.3866 186.3933
" />
<path d="M184.3866 186.3933
L184.3866 184.8933
" />
<path d="M185.6009 186.3933
L185.6009 184.8933
" />
<path d="M186.2437 186.3219
L186.4580 186.3933
" />
<path d="M186.4580 186.3933
L186.8152 186.3933
" />
<path d="M186.8152 186.3933
L186.9580 186.3219
" />
<path d="M186.9580 186.3219
L187.0295 186.2505
" />
<path d="M187.0295 186.2505
L187.1009 186.1076
" />
<path d="M187.1009 186.1076
L187.1009 185.9648
" />
<path d="M187.1009 185.9648
L187.0295 185.8219
" />
<path d="M187.0295 185.8219
L186.9580 185.7505
" />
<path d="M186.9580 185.7505
L186.8152 185.6790
" />
<path d="M186.8152 185.6790
L186.5295 185.6076
" />
<path d="M186.5295 185.6076
L186.3866 185.5362
" />
<path d="M186.3866 185.5362
L186.3152 185.4648
" />
<path d="M186.3152 185.4648
L186.2437 185.3219
" />
<path d="M186.2437 185.3219
L186.2437 185.1790
" />
<path d="M186.2437 185.1790
L186.3152 185.0362
" />
<path d="M186.3152 185.0362
L186.3866 184.9648
" />
<path d="M186.3866 184.9648
L186.5295 184.8933
" />
<path d="M186.5295 184.8933
L186.8866 184.8933
" />
<path d="M186.8866 184.8933
L187.1009 184.9648
" />
<path d="M187.7437 186.3933
L187.7437 184.8933
" />
<path d="M187.7437 184.8933
L188.6009 186.3933
" />
<path d="M188.6009 186.3933
L188.6009 184.8933
" />
<path d="M188.9580 186.5362
L190.1009 186.5362
" />
<path d="M191.1723 184.8933
L190.4580 184.8933
" />
<path d="M190.4580 184.8933
L190.3866 185.6076
" />
<path d="M190.3866 185.6076
L190.4580 185.5362
" />
<path d="M190.4580 185.5362
L190.6009 185.4648
" />
<path d="M190.6009 185.4648
L190.9580 185.4648
" />
<path d="M190.9580 185.4648
L191.1009 185.5362
" />
<path d="M191.1009 185.5362
L191.1723 185.6076
" />
<path d="M191.1723 185.6076
L191.2437 185.7505
" />
<path d="M191.2437 185.7505
L191.2437 186.1076
" />
<path d="M191.2437 186.1076
L191.1723 186.2505
" />
<path d="M191.1723 186.2505
L191.1009 186.3219
" />
<path d="M191.1009 186.3219
L190.9580 186.3933
" />
<path d="M190.9580 186.3933
L190.6009 186.3933
" />
<path d="M190.6009 186.3933
L190.4580 186.3219
" />
<path d="M190.4580 186.3219
L190.3866 186.2505
" />
<path d="M192.5295 185.3933
L192.5295 186.3933
" />
<path d="M191.8866 185.3933
L191.8866 186.1790
" />
<path d="M191.8866 186.1790
L191.9580 186.3219
" />
<path d="M191.9580 186.3219
L192.1009 186.3933
" />
<path d="M192.1009 186.3933
L192.3152 186.3933
" />
<path d="M192.3152 186.3933
L192.4580 186.3219
" />
<path d="M192.4580 186.3219
L192.5295 186.2505
" />
<path d="M193.2437 186.2505
L193.3152 186.3219
" />
<path d="M193.3152 186.3219
L193.2437 186.3933
" />
<path d="M193.2437 186.3933
L193.1723 186.3219
" />
<path d="M193.1723 186.3219
L193.2437 186.2505
" />
<path d="M193.2437 186.2505
L193.2437 186.3933
" />
<path d="M193.9580 186.3933
L193.9580 184.8933
" />
<path d="M194.1009 185.8219
L194.5295 186.3933
" />
<path d="M194.5295 185.3933
L193.9580 185.9648
" />
<path d="M195.1723 186.3933
L195.1723 185.3933
" />
<path d="M195.1723 184.8933
L195.1009 184.9648
" />
<path d="M195.1009 184.9648
L195.1723 185.0362
" />
<path d="M195.1723 185.0362
L195.2437 184.9648
" />
<path d="M195.2437 184.9648
L195.1723 184.8933
" />
<path d="M195.1723 184.8933
L195.1723 185.0362
" />
<path d="M196.5295 186.3219
L196.3866 186.3933
" />
<path d="M196.3866 186.3933
L196.1009 186.3933
" />
<path d="M196.1009 186.3933
L195.9580 186.3219
" />
<path d="M195.9580 186.3219
L195.8866 186.2505
" />
<path d="M195.8866 186.2505
L195.8152 186.1076
" />
<path d="M195.8152 186.1076
L195.8152 185.6790
" />
<path d="M195.8152 185.6790
L195.8866 185.5362
" />
<path d="M195.8866 185.5362
L195.9580 185.4648
" />
<path d="M195.9580 185.4648
L196.1009 185.3933
" />
<path d="M196.1009 185.3933
L196.3866 185.3933
" />
<path d="M196.3866 185.3933
L196.5295 185.4648
" />
<path d="M197.8152 186.3933
L197.8152 185.6076
" />
<path d="M197.8152 185.6076
L197.7437 185.4648
" />
<path d="M197.7437 185.4648
L197.6009 185.3933
" />
<path d="M197.6009 185.3933
L197.3152 185.3933
" />
<path d="M197.3152 185.3933
L197.1723 185.4648
" />
<path d="M197.8152 186.3219
L197.6723 186.3933
" />
<path d="M197.6723 186.3933
L197.3152 186.3933
" />
<path d="M197.3152 186.3933
L197.1723 186.3219
" />
<path d="M197.1723 186.3219
L197.1009 186.1790
" />
<path d="M197.1009 186.1790
L197.1009 186.0362
" />
<path d="M197.1009 186.0362
L197.1723 185.8933
" />
<path d="M197.1723 185.8933
L197.3152 185.8219
" />
<path d="M197.3152 185.8219
L197.6723 185.8219
" />
<path d="M197.6723 185.8219
L197.8152 185.7505
" />
<path d="M199.1723 186.3933
L199.1723 184.8933
" />
<path d="M199.1723 186.3219
L199.0295 186.3933
" />
<path d="M199.0295 186.3933
L198.7437 186.3933
" />
<path d="M198.7437 186.3933
L198.6009 186.3219
" />
<path d="M198.6009 186.3219
L198.5295 186.2505
" />
<path d="M198.5295 186.2505
L198.4580 186.1076
" />
<path d="M198.4580 186.1076
L198.4580 185.6790
" />
<path d="M198.4580 185.6790
L198.5295 185.5362
" />
<path d="M198.5295 185.5362
L198.6009 185.4648
" />
<path d="M198.6009 185.4648
L198.7437 185.3933
" />
<path d="M198.7437 185.3933
L199.0295 185.3933
" />
<path d="M199.0295 185.3933
L199.1723 185.4648
" />
<path d="M199.5295 186.5362
L200.6723 186.5362
" />
<path d="M201.0295 185.3933
L201.0295 186.8933
" />
<path d="M201.0295 185.4648
L201.1723 185.3933
" />
<path d="M201.1723 185.3933
L201.4580 185.3933
" />
<path d="M201.4580 185.3933
L201.6009 185.4648
" />
<path d="M201.6009 185.4648
L201.6723 185.5362
" />
<path d="M201.6723 185.5362
L201.7437 185.6790
" />
<path d="M201.7437 185.6790
L201.7437 186.1076
" />
<path d="M201.7437 186.1076
L201.6723 186.2505
" />
<path d="M201.6723 186.2505
L201.6009 186.3219
" />
<path d="M201.6009 186.3219
L201.4580 186.3933
" />
<path d="M201.4580 186.3933
L201.1723 186.3933
" />
<path d="M201.1723 186.3933
L201.0295 186.3219
" />
<path d="M203.0295 186.3219
L202.8866 186.3933
" />
<path d="M202.8866 186.3933
L202.6009 186.3933
" />
<path d="M202.6009 186.3933
L202.4580 186.3219
" />
<path d="M202.4580 186.3219
L202.3866 186.2505
" />
<path d="M202.3866 186.2505
L202.3152 186.1076
" />
<path d="M202.3152 186.1076
L202.3152 185.6790
" />
<path d="M202.3152 185.6790
L202.3866 185.5362
" />
<path d="M202.3866 185.5362
L202.4580 185.4648
" />
<path d="M202.4580 185.4648
L202.6009 185.3933
" />
<path d="M202.6009 185.3933
L202.8866 185.3933
" />
<path d="M202.8866 185.3933
L203.0295 185.4648
" />
<path d="M203.6723 186.3933
L203.6723 184.8933
" />
<path d="M203.6723 185.4648
L203.8152 185.3933
" />
<path d="M203.8152 185.3933
L204.1009 185.3933
" />
<path d="M204.1009 185.3933
L204.2437 185.4648
" />
<path d="M204.2437 185.4648
L204.3152 185.5362
" />
<path d="M204.3152 185.5362
L204.3866 185.6790
" />
<path d="M204.3866 185.6790
L204.3866 186.1076
" />
<path d="M204.3866 186.1076
L204.3152 186.2505
" />
<path d="M204.3152 186.2505
L204.2437 186.3219
" />
<path d="M204.2437 186.3219
L204.1009 186.3933
" />
<path d="M204.1009 186.3933
L203.8152 186.3933
" />
<path d="M203.8152 186.3933
L203.6723 186.3219
" />
</g></g>
<g style="fill:none; 
stroke:#000000; stroke-width:0.1500; stroke-opacity:1; 
stroke-linecap:round; stroke-linejoin:round;">
<path d="M177.0022 181.5072
L285.0022 181.5072
" />
</g>
<g style="fill:none; 
stroke:#000000; stroke-width:0.1500; stroke-opacity:1; 
stroke-linecap:round; stroke-linejoin:round;">
<text x="178.0022" y="183.7572"
textLength="8.2214" font-size="2.0000" lengthAdjust="spacingAndGlyphs"
text-anchor="start" opacity="0" stroke-opacity="0">Sheet: </text>
<g class="stroked-text"><desc>Sheet: </desc>
<path d="M178.3866 183.6219
L178.6009 183.6933
" />
<path d="M178.6009 183.6933
L178.9580 183.6933
" />
<path d="M178.9580 183.6933
L179.1009 183.6219
" />
<path d="M179.1009 183.6219
L179.1723 183.5505
" />
<path d="M179.1723 183.5505
L179.2437 183.4076
" />
<path d="M179.2437 183.4076
L179.2437 183.2648
" />
<path d="M179.2437 183.2648
L179.1723 183.1219
" />
<path d="M179.1723 183.1219
L179.1009 183.0505
" />
<path d="M179.1009 183.0505
L178.9580 182.9790
" />
<path d="M178.9580 182.9790
L178.6723 182.9076
" />
<path d="M178.6723 182.9076
L178.5295 182.8362
" />
<path d="M178.5295 182.8362
L178.4580 182.7648
" />
<path d="M178.4580 182.7648
L178.3866 182.6219
" />
<path d="M178.3866 182.6219
L178.3866 182.4790
" />
<path d="M178.3866 182.4790
L178.4580 182.3362
" />
<path d="M178.4580 182.3362
L178.5295 182.2648
" />
<path d="M178.5295 182.2648
L178.6723 182.1933
" />
<path d="M178.6723 182.1933
L179.0295 182.1933
" />
<path d="M179.0295 182.1933
L179.2437 182.2648
" />
<path d="M179.8866 183.6933
L179.8866 182.1933
" />
<path d="M180.5295 183.6933
L180.5295 182.9076
" />
<path d="M180.5295 182.9076
L180.4580 182.7648
" />
<path d="M180.4580 182.7648
L180.3152 182.6933
" />
<path d="M180.3152 182.6933
L180.1009 182.6933
" />
<path d="M180.1009 182.6933
L179.9580 182.7648
" />
<path d="M179.9580 182.7648
L179.8866 182.8362
" />
<path d="M181.8152 183.6219
L181.6723 183.6933
" />
<path d="M181.6723 183.6933
L181.3866 183.6933
" />
<path d="M181.3866 183.6933
L181.2437 183.6219
" />
<path d="M181.2437 183.6219
L181.1723 183.4790
" />
<path d="M181.1723 183.4790
L181.1723 182.9076
" />
<path d="M181.1723 182.9076
L181.2437 182.7648
" />
<path d="M181.2437 182.7648
L181.3866 182.6933
" />
<path d="M181.3866 182.6933
L181.6723 182.6933
" />
<path d="M181.6723 182.6933
L181.8152 182.7648
" />
<path d="M181.8152 182.7648
L181.8866 182.9076
" />
<path d="M181.8866 182.9076
L181.8866 183.0505
" />
<path d="M181.8866 183.0505
L181.1723 183.1933
" />
<path d="M183.1009 183.6219
L182.9580 183.6933
" />
<path d="M182.9580 183.6933
L182.6723 183.6933
" />
<path d="M182.6723 183.6933
L182.5295 183.6219
" />
<path d="M182.5295 183.6219
L182.4580 183.4790
" />
<path d="M182.4580 183.4790
L182.4580 182.9076
" />
<path d="M182.4580 182.9076
L182.5295 182.7648
" />
<path d="M182.5295 182.7648
L182.6723 182.6933
" />
<path d="M182.6723 182.6933
L182.9580 182.6933
" />
<path d="M182.9580 182.6933
L183.1009 182.7648
" />
<path d="M183.1009 182.7648
L183.1723 182.9076
" />
<path d="M183.1723 182.9076
L183.1723 183.0505
" />
<path d="M183.1723 183.0505
L182.4580 183.1933
" />
<path d="M183.6009 182.6933
L184.1723 182.6933
" />
<path d="M183.8152 182.1933
L183.8152 183.4790
" />
<path d="M183.8152 183.4790
L183.8866 183.6219
" />
<path d="M183.8866 183.6219
L184.0295 183.6933
" />
<path d="M184.0295 183.6933
L184.1723 183.6933
" />
<path d="M184.6723 183.5505
L184.7437 183.6219
" />
<path d="M184.7437 183.6219
L184.6723 183.6933
" />
<path d="M184.6723 183.6933
L184.6009 183.6219
" />
<path d="M184.6009 183.6219
L184.6723 183.5505
" />
<path d="M184.6723 183.5505
L184.6723 183.6933
" />
<path d="M184.6723 182.7648
L184.7437 182.8362
" />
<path d="M184.7437 182.8362
L184.6723 182.9076
" />
<path d="M184.6723 182.9076
L184.6009 182.8362
" />
<path d="M184.6009 182.8362
L184.6723 182.7648
" />
<path d="M184.6723 182.7648
L184.6723 182.9076
" />
</g></g>
<g style="fill:none; 
stroke:#000000; stroke-width:0.3000; stroke-opacity:1; 
stroke-linecap:round; stroke-linejoin:round;">
<text x="178.0022" y="180.7572"
textLength="0.9000" font-size="2.0000" lengthAdjust="spacingAndGlyphs"
text-anchor="start" opacity="0" stroke-opacity="0"></text>
<g class="stroked-text"><desc></desc>
</g></g>
<g style="fill:none; 
stroke:#000000; stroke-width:0.1500; stroke-opacity:1; 
stroke-linecap:round; stroke-linejoin:round;">
<text x="178.0022" y="177.7572"
textLength="0.4500" font-size="2.0000" lengthAdjust="spacingAndGlyphs"
text-anchor="start" opacity="0" stroke-opacity="0"></text>
<g class="stroked-text"><desc></desc>
</g></g>
<g style="fill:none; 
stroke:#000000; stroke-width:0.1500; stroke-opacity:1; 
stroke-linecap:round; stroke-linejoin:round;">
<text x="178.0022" y="174.7572"
textLength="0.4500" font-size="2.0000" lengthAdjust="spacingAndGlyphs"
text-anchor="start" opacity="0" stroke-opacity="0"></text>
<g class="stroked-text"><desc></desc>
</g></g>
<g style="fill:none; 
stroke:#000000; stroke-width:0.1500; stroke-opacity:1; 
stroke-linecap:round; stroke-linejoin:round;">
<text x="178.0022" y="171.7572"
textLength="0.4500" font-size="2.0000" lengthAdjust="spacingAndGlyphs"
text-anchor="start" opacity="0" stroke-opacity="0"></text>
<g class="stroked-text"><desc></desc>
</g></g>
<g style="fill:none; 
stroke:#000000; stroke-width:0.1500; stroke-opacity:1; 
stroke-linecap:round; stroke-linejoin:round;">
<text x="178.0022" y="168.7572"
textLength="0.4500" font-size="2.0000" lengthAdjust="spacingAndGlyphs"
text-anchor="start" opacity="0" stroke-opacity="0"></text>
<g class="stroked-text"><desc></desc>
</g></g>
<g style="fill:none; 
stroke:#000000; stroke-width:0.1500; stroke-opacity:1; 
stroke-linecap:round; stroke-linejoin:round;">
<path d="M197.0022 191.5072
L197.0022 194.5072
" />
</g>
<g style="fill:none; 
stroke:#000000; stroke-width:0.1500; stroke-opacity:1; 
stroke-linecap:round; stroke-linejoin:round;">
<path d="M261.0022 191.5072
L261.0022 198.0072
" />
<path style="fill:#B4A09A; fill-opacity:0.9000; stroke:none;fill-rule:evenodd;"
d="M 97.3660,89.1360
97.4617,89.1550
97.5428,89.2092
97.5970,89.2903
97.6160,89.3860
97.6160,90.0360
97.5970,90.1317
97.5428,90.2128
97.4617,90.2670
97.3660,90.2860
95.1660,90.2860
95.0703,90.2670
94.9892,90.2128
94.9350,90.1317
94.9160,90.0360
94.9160,89.3860
94.9350,89.2903
94.9892,89.2092
95.0703,89.1550
95.1660,89.1360
Z" /> 
<path style="fill:#B4A09A; fill-opacity:0.9000; stroke:none;fill-rule:evenodd;"
d="M 97.3660,92.0860
97.4617,92.1050
97.5428,92.1592
97.5970,92.2403
97.6160,92.3360
97.6160,92.9860
97.5970,93.0817
97.5428,93.1628
97.4617,93.2170
97.3660,93.2360
95.1660,93.2360
95.0703,93.2170
94.9892,93.1628
94.9350,93.0817
94.9160,92.9860
94.9160,92.3360
94.9350,92.2403
94.9892,92.1592
95.0703,92.1050
95.1660,92.0860
Z" /> 
<path style="fill:#B4A09A; fill-opacity:0.9000; stroke:none;fill-rule:evenodd;"
d="M 136.4190,76.4990
136.4955,76.5142
136.5604,76.5576
136.6038,76.6225
136.6190,76.6990
136.6190,77.0990
136.6038,77.1755
136.5604,77.2404
136.4955,77.2838
136.4190,77.2990
135.8690,77.2990
135.7925,77.2838
135.7276,77.2404
135.6842,77.1755
135.6690,77.0990
135.6690,76.6990
135.6842,76.6225
135.7276,76.5576
135.7925,76.5142
135.8690,76.4990
Z" /> 
<path style="fill:#B4A09A; fill-opacity:0.9000; stroke:none;fill-rule:evenodd;"
d="M 136.4190,78.1490
136.4955,78.1642
136.5604,78.2076
136.6038,78.2725
136.6190,78.3490
136.6190,78.7490
136.6038,78.8255
136.5604,78.8904
136.4955,78.9338
136.4190,78.9490
135.8690,78.9490
135.7925,78.9338
135.7276,78.8904
135.6842,78.8255
135.6690,78.7490
135.6690,78.3490
135.6842,78.2725
135.7276,78.2076
135.7925,78.1642
135.8690,78.1490
Z" /> 
<path style="fill:#B4A09A; fill-opacity:0.9000; stroke:none;fill-rule:evenodd;"
d="M 107.7170,76.5620
107.7935,76.5772
107.8584,76.6206
107.9018,76.6855
107.9170,76.7620
107.9170,77.1620
107.9018,77.2385
107.8584,77.3034
107.7935,77.3468
107.7170,77.3620
107.1670,77.3620
107.0905,77.3468
107.0256,77.3034
106.9822,77.2385
106.9670,77.1620
106.9670,76.7620
106.9822,76.6855
107.0256,76.6206
107.0905,76.5772
107.1670,76.5620
Z" /> 
<path style="fill:#B4A09A; fill-opacity:0.9000; stroke:none;fill-rule:evenodd;"
d="M 107.7170,78.2120
107.7935,78.2272
107.8584,78.2706
107.9018,78.3355
107.9170,78.4120
107.9170,78.8120
107.9018,78.8885
107.8584,78.9534
107.7935,78.9968
107.7170,79.0120
107.1670,79.0120
107.0905,78.9968
107.0256,78.9534
106.9822,78.8885
106.9670,78.8120
106.9670,78.4120
106.9822,78.3355
107.0256,78.2706
107.0905,78.2272
107.1670,78.2120
Z" /> 
<path style="fill:#B4A09A; fill-opacity:0.9000; stroke:none;fill-rule:evenodd;"
d="M 115.4080,70.9780
115.5037,70.9970
115.5848,71.0512
115.6390,71.1323
115.6580,71.2280
115.6580,72.0280
115.6390,72.1237
115.5848,72.2048
115.5037,72.2590
115.4080,72.2780
114.2080,72.2780
114.1123,72.2590
114.0312,72.2048
113.9770,72.1237
113.9580,72.0280
113.9580,71.2280
113.9770,71.1323
114.0312,71.0512
114.1123,70.9970
114.2080,70.9780
Z" /> 
<path style="fill:#B4A09A; fill-opacity:0.9000; stroke:none;fill-rule:evenodd;"
d="M 115.4080,74.4780
115.5037,74.4970
115.5848,74.5512
115.6390,74.6323
115.6580,74.7280
115.6580,75.5280
115.6390,75.6237
115.5848,75.7048
115.5037,75.7590
115.4080,75.7780
114.2080,75.7780
114.1123,75.7590
114.0312,75.7048
113.9770,75.6237
113.9580,75.5280
113.9580,74.7280
113.9770,74.6323
114.0312,74.5512
114.1123,74.4970
114.2080,74.4780
Z" /> 
<path style="fill:#B4A09A; fill-opacity:0.9000; stroke:none;fill-rule:evenodd;"
d="M 146.6380,76.7868
146.7191,76.7326
146.8148,76.7136
146.9105,76.7326
146.9916,76.7868
147.4512,77.2464
147.5054,77.3275
147.5244,77.4232
147.5054,77.5188
147.4512,77.5999
146.5319,78.5192
146.4508,78.5734
146.3552,78.5924
146.2595,78.5734
146.1784,78.5192
145.7188,78.0596
145.6646,77.9785
145.6456,77.8828
145.6646,77.7871
145.7188,77.7060
Z" /> 
<path style="fill:#B4A09A; fill-opacity:0.9000; stroke:none;fill-rule:evenodd;"
d="M 148.7240,78.8727
148.8051,78.8186
148.9008,78.7995
148.9964,78.8186
149.0775,78.8727
149.5372,79.3324
149.5913,79.4135
149.6104,79.5091
149.5913,79.6048
149.5372,79.6859
148.6179,80.6052
148.5368,80.6593
148.4411,80.6784
148.3455,80.6593
148.2644,80.6052
147.8047,80.1455
147.7506,80.0644
147.7315,79.9688
147.7506,79.8731
147.8047,79.7920
Z" /> 
<path style="fill:#B4A09A; fill-opacity:0.9000; stroke:none;fill-rule:evenodd;"
d="M 138.0760,90.7620
138.0760,88.5620
140.7760,88.5620
140.7760,90.7620
Z" /> 
<path style="fill:#B4A09A; fill-opacity:0.9000; stroke:none;fill-rule:evenodd;"
d="M 143.1760,90.7620
143.1760,88.5620
145.8760,88.5620
145.8760,90.7620
Z" /> 
<path style="fill:#B4A09A; fill-opacity:0.9000; stroke:none;fill-rule:evenodd;"
d="M 116.6310,75.9250
116.6462,75.8485
116.6896,75.7836
116.7545,75.7402
116.8310,75.7250
117.2310,75.7250
117.3075,75.7402
117.3724,75.7836
117.4158,75.8485
117.4310,75.9250
117.4310,76.4750
117.4158,76.5515
117.3724,76.6164
117.3075,76.6598
117.2310,76.6750
116.8310,76.6750
116.7545,76.6598
116.6896,76.6164
116.6462,76.5515
116.6310,76.4750
Z" /> 
<path style="fill:#B4A09A; fill-opacity:0.9000; stroke:none;fill-rule:evenodd;"
d="M 118.2810,75.9250
118.2962,75.8485
118.3396,75.7836
118.4045,75.7402
118.4810,75.7250
118.8810,75.7250
118.9575,75.7402
119.0224,75.7836
119.0658,75.8485
119.0810,75.9250
119.0810,76.4750
119.0658,76.5515
119.0224,76.6164
118.9575,76.6598
118.8810,76.6750
118.4810,76.6750
118.4045,76.6598
118.3396,76.6164
118.2962,76.5515
118.2810,76.4750
Z" /> 
<path style="fill:#B4A09A; fill-opacity:0.9000; stroke:none;fill-rule:evenodd;"
d="M 69.8560,100.3540
69.8675,100.1685
69.9184,99.9260
70.0084,99.6952
70.1352,99.4824
70.2953,99.2933
70.4844,99.1332
70.6972,99.0064
70.9280,98.9164
71.1705,98.8655
71.3560,98.8540
74.3560,98.8540
74.5415,98.8655
74.7840,98.9164
75.0148,99.0064
75.2276,99.1332
75.4167,99.2933
75.5768,99.4824
75.7036,99.6952
75.7936,99.9260
75.8445,100.1685
75.8560,100.3540
75.8560,103.3540
75.8445,103.5395
75.7936,103.7820
75.7036,104.0128
75.5768,104.2256
75.4167,104.4147
75.2276,104.5748
75.0148,104.7016
74.7840,104.7916
74.5415,104.8425
74.3560,104.8540
71.3560,104.8540
71.1705,104.8425
70.9280,104.7916
70.6972,104.7016
70.4844,104.5748
70.2953,104.4147
70.1352,104.2256
70.0084,104.0128
69.9184,103.7820
69.8675,103.5395
69.8560,103.3540
Z" /> 
<path style="fill:#B4A09A; fill-opacity:0.9000; stroke:none;fill-rule:evenodd;"
d="M 107.7170,73.4510
107.7935,73.4662
107.8584,73.5096
107.9018,73.5745
107.9170,73.6510
107.9170,74.0510
107.9018,74.1275
107.8584,74.1924
107.7935,74.2358
107.7170,74.2510
107.1670,74.2510
107.0905,74.2358
107.0256,74.1924
106.9822,74.1275
106.9670,74.0510
106.9670,73.6510
106.9822,73.5745
107.0256,73.5096
107.0905,73.4662
107.1670,73.4510
Z" /> 
<path style="fill:#B4A09A; fill-opacity:0.9000; stroke:none;fill-rule:evenodd;"
d="M 107.7170,75.1010
107.7935,75.1162
107.8584,75.1596
107.9018,75.2245
107.9170,75.3010
107.9170,75.7010
107.9018,75.7775
107.8584,75.8424
107.7935,75.8858
107.7170,75.9010
107.1670,75.9010
107.0905,75.8858
107.0256,75.8424
106.9822,75.7775
106.9670,75.7010
106.9670,75.3010
106.9822,75.2245
107.0256,75.1596
107.0905,75.1162
107.1670,75.1010
Z" /> 
<path style="fill:#B4A09A; fill-opacity:0.9000; stroke:none;fill-rule:evenodd;"
d="M 112.5430,73.4510
112.6195,73.4662
112.6844,73.5096
112.7278,73.5745
112.7430,73.6510
112.7430,74.0510
112.7278,74.1275
112.6844,74.1924
112.6195,74.2358
112.5430,74.2510
111.9930,74.2510
111.9165,74.2358
111.8516,74.1924
111.8082,74.1275
111.7930,74.0510
111.7930,73.6510
111.8082,73.5745
111.8516,73.5096
111.9165,73.4662
111.9930,73.4510
Z" /> 
<path style="fill:#B4A09A; fill-opacity:0.9000; stroke:none;fill-rule:evenodd;"
d="M 112.5430,75.1010
112.6195,75.1162
112.6844,75.1596
112.7278,75.2245
112.7430,75.3010
112.7430,75.7010
112.7278,75.7775
112.6844,75.8424
112.6195,75.8858
112.5430,75.9010
111.9930,75.9010
111.9165,75.8858
111.8516,75.8424
111.8082,75.7775
111.7930,75.7010
111.7930,75.3010
111.8082,75.2245
111.8516,75.1596
111.9165,75.1162
111.9930,75.1010
Z" /> 
<path style="fill:#B4A09A; fill-opacity:0.9000; stroke:none;fill-rule:evenodd;"
d="M 108.7570,75.9250
108.7722,75.8485
108.8156,75.7836
108.8805,75.7402
108.9570,75.7250
109.3570,75.7250
109.4335,75.7402
109.4984,75.7836
109.5418,75.8485
109.5570,75.9250
109.5570,76.4750
109.5418,76.5515
109.4984,76.6164
109.4335,76.6598
109.3570,76.6750
108.9570,76.6750
108.8805,76.6598
108.8156,76.6164
108.7722,76.5515
108.7570,76.4750
Z" /> 
<path style="fill:#B4A09A; fill-opacity:0.9000; stroke:none;fill-rule:evenodd;"
d="M 110.4070,75.9250
110.4222,75.8485
110.4656,75.7836
110.5305,75.7402
110.6070,75.7250
111.0070,75.7250
111.0835,75.7402
111.1484,75.7836
111.1918,75.8485
111.2070,75.9250
111.2070,76.4750
111.1918,76.5515
111.1484,76.6164
111.0835,76.6598
111.0070,76.6750
110.6070,76.6750
110.5305,76.6598
110.4656,76.6164
110.4222,76.5515
110.4070,76.4750
Z" /> 
<path style="fill:#B4A09A; fill-opacity:0.9000; stroke:none;fill-rule:evenodd;"
d="M 137.4590,75.9250
137.4742,75.8485
137.5176,75.7836
137.5825,75.7402
137.6590,75.7250
138.0590,75.7250
138.1355,75.7402
138.2004,75.7836
138.2438,75.8485
138.2590,75.9250
138.2590,76.4750
138.2438,76.5515
138.2004,76.6164
138.1355,76.6598
138.0590,76.6750
137.6590,76.6750
137.5825,76.6598
137.5176,76.6164
137.4742,76.5515
137.4590,76.4750
Z" /> 
<path style="fill:#B4A09A; fill-opacity:0.9000; stroke:none;fill-rule:evenodd;"
d="M 139.1090,75.9250
139.1242,75.8485
139.1676,75.7836
139.2325,75.7402
139.3090,75.7250
139.7090,75.7250
139.7855,75.7402
139.8504,75.7836
139.8938,75.8485
139.9090,75.9250
139.9090,76.4750
139.8938,76.5515
139.8504,76.6164
139.7855,76.6598
139.7090,76.6750
139.3090,76.6750
139.2325,76.6598
139.1676,76.6164
139.1242,76.5515
139.1090,76.4750
Z" /> 
<path style="fill:#B4A09A; fill-opacity:0.9000; stroke:none;fill-rule:evenodd;"
d="M 110.3900,90.7620
110.3900,88.5620
113.0900,88.5620
113.0900,90.7620
Z" /> 
<path style="fill:#B4A09A; fill-opacity:0.9000; stroke:none;fill-rule:evenodd;"
d="M 115.4900,90.7620
115.4900,88.5620
118.1900,88.5620
118.1900,90.7620
Z" /> 
<path style="fill:#B4A09A; fill-opacity:0.9000; stroke:none;fill-rule:evenodd;"
d="M 119.7880,90.7620
119.7880,88.5620
122.4880,88.5620
122.4880,90.7620
Z" /> 
<path style="fill:#B4A09A; fill-opacity:0.9000; stroke:none;fill-rule:evenodd;"
d="M 124.8880,90.7620
124.8880,88.5620
127.5880,88.5620
127.5880,90.7620
Z" /> 
<path style="fill:#B4A09A; fill-opacity:0.9000; stroke:none;fill-rule:evenodd;"
d="M 71.6340,84.3520
71.6455,84.1665
71.6964,83.9240
71.7864,83.6932
71.9132,83.4804
72.0733,83.2913
72.2624,83.1312
72.4752,83.0044
72.7060,82.9144
72.9485,82.8635
73.1340,82.8520
76.1340,82.8520
76.3195,82.8635
76.5620,82.9144
76.7928,83.0044
77.0056,83.1312
77.1947,83.2913
77.3548,83.4804
77.4816,83.6932
77.5716,83.9240
77.6225,84.1665
77.6340,84.3520
77.6340,87.3520
77.6225,87.5375
77.5716,87.7800
77.4816,88.0108
77.3548,88.2236
77.1947,88.4127
77.0056,88.5728
76.7928,88.6996
76.5620,88.7896
76.3195,88.8405
76.1340,88.8520
73.1340,88.8520
72.9485,88.8405
72.7060,88.7896
72.4752,88.6996
72.2624,88.5728
72.0733,88.4127
71.9132,88.2236
71.7864,88.0108
71.6964,87.7800
71.6455,87.5375
71.6340,87.3520
Z" /> 
<path style="fill:#B4A09A; fill-opacity:0.9000; stroke:none;fill-rule:evenodd;"
d="M 81.8720,89.1360
81.9677,89.1550
82.0488,89.2092
82.1030,89.2903
82.1220,89.3860
82.1220,90.0360
82.1030,90.1317
82.0488,90.2128
81.9677,90.2670
81.8720,90.2860
79.6720,90.2860
79.5763,90.2670
79.4952,90.2128
79.4410,90.1317
79.4220,90.0360
79.4220,89.3860
79.4410,89.2903
79.4952,89.2092
79.5763,89.1550
79.6720,89.1360
Z" /> 
<path style="fill:#B4A09A; fill-opacity:0.9000; stroke:none;fill-rule:evenodd;"
d="M 81.8720,92.0860
81.9677,92.1050
82.0488,92.1592
82.1030,92.2403
82.1220,92.3360
82.1220,92.9860
82.1030,93.0817
82.0488,93.1628
81.9677,93.2170
81.8720,93.2360
79.6720,93.2360
79.5763,93.2170
79.4952,93.1628
79.4410,93.0817
79.4220,92.9860
79.4220,92.3360
79.4410,92.2403
79.4952,92.1592
79.5763,92.1050
79.6720,92.0860
Z" /> 
<path style="fill:#B4A09A; fill-opacity:0.9000; stroke:none;fill-rule:evenodd;"
d="M 115.4080,76.3120
115.5037,76.3310
115.5848,76.3852
115.6390,76.4663
115.6580,76.5620
115.6580,77.3620
115.6390,77.4577
115.5848,77.5388
115.5037,77.5930
115.4080,77.6120
114.2080,77.6120
114.1123,77.5930
114.0312,77.5388
113.9770,77.4577
113.9580,77.3620
113.9580,76.5620
113.9770,76.4663
114.0312,76.3852
114.1123,76.3310
114.2080,76.3120
Z" /> 
<path style="fill:#B4A09A; fill-opacity:0.9000; stroke:none;fill-rule:evenodd;"
d="M 115.4080,79.8120
115.5037,79.8310
115.5848,79.8852
115.6390,79.9663
115.6580,80.0620
115.6580,80.8620
115.6390,80.9577
115.5848,81.0388
115.5037,81.0930
115.4080,81.1120
114.2080,81.1120
114.1123,81.0930
114.0312,81.0388
113.9770,80.9577
113.9580,80.8620
113.9580,80.0620
113.9770,79.9663
114.0312,79.8852
114.1123,79.8310
114.2080,79.8120
Z" /> 
<path style="fill:#B4A09A; fill-opacity:0.9000; stroke:none;fill-rule:evenodd;"
d="M 150.2560,81.4670
150.3517,81.4860
150.4328,81.5402
150.4870,81.6213
150.5060,81.7170
150.5060,82.3670
150.4870,82.4627
150.4328,82.5438
150.3517,82.5980
150.2560,82.6170
148.9560,82.6170
148.8603,82.5980
148.7792,82.5438
148.7250,82.4627
148.7060,82.3670
148.7060,81.7170
148.7250,81.6213
148.7792,81.5402
148.8603,81.4860
148.9560,81.4670
Z" /> 
<path style="fill:#B4A09A; fill-opacity:0.9000; stroke:none;fill-rule:evenodd;"
d="M 150.2560,84.4170
150.3517,84.4360
150.4328,84.4902
150.4870,84.5713
150.5060,84.6670
150.5060,85.3170
150.4870,85.4127
150.4328,85.4938
150.3517,85.5480
150.2560,85.5670
148.9560,85.5670
148.8603,85.5480
148.7792,85.4938
148.7250,85.4127
148.7060,85.3170
148.7060,84.6670
148.7250,84.5713
148.7792,84.4902
148.8603,84.4360
148.9560,84.4170
Z" /> 
<path style="fill:#B4A09A; fill-opacity:0.9000; stroke:none;fill-rule:evenodd;"
d="M 105.7560,76.5940
105.8517,76.6130
105.9328,76.6672
105.9870,76.7483
106.0060,76.8440
106.0060,77.6440
105.9870,77.7397
105.9328,77.8208
105.8517,77.8750
105.7560,77.8940
104.5560,77.8940
104.4603,77.8750
104.3792,77.8208
104.3250,77.7397
104.3060,77.6440
104.3060,76.8440
104.3250,76.7483
104.3792,76.6672
104.4603,76.6130
104.5560,76.5940
Z" /> 
<path style="fill:#B4A09A; fill-opacity:0.9000; stroke:none;fill-rule:evenodd;"
d="M 105.7560,80.0940
105.8517,80.1130
105.9328,80.1672
105.9870,80.2483
106.0060,80.3440
106.0060,81.1440
105.9870,81.2397
105.9328,81.3208
105.8517,81.3750
105.7560,81.3940
104.5560,81.3940
104.4603,81.3750
104.3792,81.3208
104.3250,81.2397
104.3060,81.1440
104.3060,80.3440
104.3250,80.2483
104.3792,80.1672
104.4603,80.1130
104.5560,80.0940
Z" /> 
<path style="fill:#B4A09A; fill-opacity:0.9000; stroke:none;fill-rule:evenodd;"
d="M 100.9920,90.7620
100.9920,88.5620
103.6920,88.5620
103.6920,90.7620
Z" /> 
<path style="fill:#B4A09A; fill-opacity:0.9000; stroke:none;fill-rule:evenodd;"
d="M 106.0920,90.7620
106.0920,88.5620
108.7920,88.5620
108.7920,90.7620
Z" /> 
<path style="fill:#B4A09A; fill-opacity:0.9000; stroke:none;fill-rule:evenodd;"
d="M 121.8060,75.7250
121.8250,75.6293
121.8792,75.5482
121.9603,75.4940
122.0560,75.4750
122.5560,75.4750
122.6517,75.4940
122.7328,75.5482
122.7870,75.6293
122.8060,75.7250
122.8060,76.6750
122.7870,76.7707
122.7328,76.8518
122.6517,76.9060
122.5560,76.9250
122.0560,76.9250
121.9603,76.9060
121.8792,76.8518
121.8250,76.7707
121.8060,76.6750
Z" /> 
<path style="fill:#B4A09A; fill-opacity:0.9000; stroke:none;fill-rule:evenodd;"
d="M 123.7060,75.7250
123.7250,75.6293
123.7792,75.5482
123.8603,75.4940
123.9560,75.4750
124.4560,75.4750
124.5517,75.4940
124.6328,75.5482
124.6870,75.6293
124.7060,75.7250
124.7060,76.6750
124.6870,76.7707
124.6328,76.8518
124.5517,76.9060
124.4560,76.9250
123.9560,76.9250
123.8603,76.9060
123.7792,76.8518
123.7250,76.7707
123.7060,76.6750
Z" /> 
<path style="fill:#B4A09A; fill-opacity:0.9000; stroke:none;fill-rule:evenodd;"
d="M 97.0721,74.3090
97.5494,74.7863
97.4079,74.9277
96.9306,74.4504
Z" /> 
<path style="fill:#B4A09A; fill-opacity:0.9000; stroke:none;fill-rule:evenodd;"
d="M 96.7892,74.5918
97.2665,75.0691
97.1251,75.2105
96.6478,74.7332
Z" /> 
<path style="fill:#B4A09A; fill-opacity:0.9000; stroke:none;fill-rule:evenodd;"
d="M 96.5064,74.8746
96.9837,75.3519
96.8423,75.4934
96.3650,75.0161
Z" /> 
<path style="fill:#B4A09A; fill-opacity:0.9000; stroke:none;fill-rule:evenodd;"
d="M 97.1251,75.4934
97.6024,75.9707
97.4610,76.1121
96.9837,75.6348
Z" /> 
<path style="fill:#B4A09A; fill-opacity:0.9000; stroke:none;fill-rule:evenodd;"
d="M 97.4079,75.2105
97.8852,75.6878
97.7438,75.8292
97.2665,75.3519
Z" /> 
<path style="fill:#B4A09A; fill-opacity:0.9000; stroke:none;fill-rule:evenodd;"
d="M 97.6908,74.9277
98.1681,75.4050
98.0267,75.5464
97.5494,75.0691
Z" /> 
<path style="fill:#B4A09A; fill-opacity:0.9000; stroke:none;fill-rule:evenodd;"
d="M 128.9320,90.7620
128.9320,88.5620
131.6320,88.5620
131.6320,90.7620
Z" /> 
<path style="fill:#B4A09A; fill-opacity:0.9000; stroke:none;fill-rule:evenodd;"
d="M 134.0320,90.7620
134.0320,88.5620
136.7320,88.5620
136.7320,90.7620
Z" /> 
<path style="fill:#B4A09A; fill-opacity:0.9000; stroke:none;fill-rule:evenodd;"
d="M 153.6760,100.3540
153.6875,100.1685
153.7384,99.9260
153.8284,99.6952
153.9552,99.4824
154.1153,99.2933
154.3044,99.1332
154.5172,99.0064
154.7480,98.9164
154.9905,98.8655
155.1760,98.8540
158.1760,98.8540
158.3615,98.8655
158.6040,98.9164
158.8348,99.0064
159.0476,99.1332
159.2367,99.2933
159.3968,99.4824
159.5236,99.6952
159.6136,99.9260
159.6645,100.1685
159.6760,100.3540
159.6760,103.3540
159.6645,103.5395
159.6136,103.7820
159.5236,104.0128
159.3968,104.2256
159.2367,104.4147
159.0476,104.5748
158.8348,104.7016
158.6040,104.7916
158.3615,104.8425
158.1760,104.8540
155.1760,104.8540
154.9905,104.8425
154.7480,104.7916
154.5172,104.7016
154.3044,104.5748
154.1153,104.4147
153.9552,104.2256
153.8284,104.0128
153.7384,103.7820
153.6875,103.5395
153.6760,103.3540
Z" /> 
<path style="fill:#B4A09A; fill-opacity:0.9000; stroke:none;fill-rule:evenodd;"
d="M 112.5430,76.5620
112.6195,76.5772
112.6844,76.6206
112.7278,76.6855
112.7430,76.7620
112.7430,77.1620
112.7278,77.2385
112.6844,77.3034
112.6195,77.3468
112.5430,77.3620
111.9930,77.3620
111.9165,77.3468
111.8516,77.3034
111.8082,77.2385
111.7930,77.1620
111.7930,76.7620
111.8082,76.6855
111.8516,76.6206
111.9165,76.5772
111.9930,76.5620
Z" /> 
<path style="fill:#B4A09A; fill-opacity:0.9000; stroke:none;fill-rule:evenodd;"
d="M 112.5430,78.2120
112.6195,78.2272
112.6844,78.2706
112.7278,78.3355
112.7430,78.4120
112.7430,78.8120
112.7278,78.8885
112.6844,78.9534
112.6195,78.9968
112.5430,79.0120
111.9930,79.0120
111.9165,78.9968
111.8516,78.9534
111.8082,78.8885
111.7930,78.8120
111.7930,78.4120
111.8082,78.3355
111.8516,78.2706
111.9165,78.2272
111.9930,78.2120
Z" /> 
<path style="fill:#B4A09A; fill-opacity:0.9000; stroke:none;fill-rule:evenodd;"
d="M 136.4190,73.4510
136.4955,73.4662
136.5604,73.5096
136.6038,73.5745
136.6190,73.6510
136.6190,74.0510
136.6038,74.1275
136.5604,74.1924
136.4955,74.2358
136.4190,74.2510
135.8690,74.2510
135.7925,74.2358
135.7276,74.1924
135.6842,74.1275
135.6690,74.0510
135.6690,73.6510
135.6842,73.5745
135.7276,73.5096
135.7925,73.4662
135.8690,73.4510
Z" /> 
<path style="fill:#B4A09A; fill-opacity:0.9000; stroke:none;fill-rule:evenodd;"
d="M 136.4190,75.1010
136.4955,75.1162
136.5604,75.1596
136.6038,75.2245
136.6190,75.3010
136.6190,75.7010
136.6038,75.7775
136.5604,75.8424
136.4955,75.8858
136.4190,75.9010
135.8690,75.9010
135.7925,75.8858
135.7276,75.8424
135.6842,75.7775
135.6690,75.7010
135.6690,75.3010
135.6842,75.2245
135.7276,75.1596
135.7925,75.1162
135.8690,75.1010
Z" /> 
<path style="fill:#B4A09A; fill-opacity:0.9000; stroke:none;fill-rule:evenodd;"
d="M 131.9000,75.7250
131.9190,75.6293
131.9732,75.5482
132.0543,75.4940
132.1500,75.4750
132.6500,75.4750
132.7457,75.4940
132.8268,75.5482
132.8810,75.6293
132.9000,75.7250
132.9000,76.6750
132.8810,76.7707
132.8268,76.8518
132.7457,76.9060
132.6500,76.9250
132.1500,76.9250
132.0543,76.9060
131.9732,76.8518
131.9190,76.7707
131.9000,76.6750
Z" /> 
<path style="fill:#B4A09A; fill-opacity:0.9000; stroke:none;fill-rule:evenodd;"
d="M 133.8000,75.7250
133.8190,75.6293
133.8732,75.5482
133.9543,75.4940
134.0500,75.4750
134.5500,75.4750
134.6457,75.4940
134.7268,75.5482
134.7810,75.6293
134.8000,75.7250
134.8000,76.6750
134.7810,76.7707
134.7268,76.8518
134.6457,76.9060
134.5500,76.9250
134.0500,76.9250
133.9543,76.9060
133.8732,76.8518
133.8190,76.7707
133.8000,76.6750
Z" /> 
<path style="fill:#B4A09A; fill-opacity:0.9000; stroke:none;fill-rule:evenodd;"
d="M 89.3500,87.3180
89.4457,87.3370
89.5268,87.3912
89.5810,87.4723
89.6000,87.5680
89.6000,91.4680
89.5810,91.5637
89.5268,91.6448
89.4457,91.6990
89.3500,91.7180
87.3500,91.7180
87.2543,91.6990
87.1732,91.6448
87.1190,91.5637
87.1000,91.4680
87.1000,87.5680
87.1190,87.4723
87.1732,87.3912
87.2543,87.3370
87.3500,87.3180
Z" /> 
<path style="fill:#B4A09A; fill-opacity:0.9000; stroke:none;fill-rule:evenodd;"
d="M 89.3500,94.7180
89.4457,94.7370
89.5268,94.7912
89.5810,94.8723
89.6000,94.9680
89.6000,98.8680
89.5810,98.9637
89.5268,99.0448
89.4457,99.0990
89.3500,99.1180
87.3500,99.1180
87.2543,99.0990
87.1732,99.0448
87.1190,98.9637
87.1000,98.8680
87.1000,94.9680
87.1190,94.8723
87.1732,94.7912
87.2543,94.7370
87.3500,94.7180
Z" /> 
<path style="fill:#B4A09A; fill-opacity:0.9000; stroke:none;fill-rule:evenodd;"
d="M 105.7560,71.2880
105.8517,71.3070
105.9328,71.3612
105.9870,71.4423
106.0060,71.5380
106.0060,72.3380
105.9870,72.4337
105.9328,72.5148
105.8517,72.5690
105.7560,72.5880
104.5560,72.5880
104.4603,72.5690
104.3792,72.5148
104.3250,72.4337
104.3060,72.3380
104.3060,71.5380
104.3250,71.4423
104.3792,71.3612
104.4603,71.3070
104.5560,71.2880
Z" /> 
<path style="fill:#B4A09A; fill-opacity:0.9000; stroke:none;fill-rule:evenodd;"
d="M 105.7560,74.7880
105.8517,74.8070
105.9328,74.8612
105.9870,74.9423
106.0060,75.0380
106.0060,75.8380
105.9870,75.9337
105.9328,76.0148
105.8517,76.0690
105.7560,76.0880
104.5560,76.0880
104.4603,76.0690
104.3792,76.0148
104.3250,75.9337
104.3060,75.8380
104.3060,75.0380
104.3250,74.9423
104.3792,74.8612
104.4603,74.8070
104.5560,74.7880
Z" /> 
<path style="fill:#B4A09A; fill-opacity:0.9000; stroke:none;fill-rule:evenodd;"
d="M 130.7740,76.7210
126.2740,76.7210
126.2740,75.1710
130.7740,75.1710
Z" /> 
<path style="fill:#B4A09A; fill-opacity:0.9000; stroke:none;fill-rule:evenodd;"
d="M 130.7990,72.8710
126.2490,72.8710
126.2490,71.3210
130.7990,71.3210
Z" /> 
<path style="fill:#B4A09A; fill-opacity:0.9000; stroke:none;fill-rule:evenodd;"
d="M 141.4990,76.4990
141.5755,76.5142
141.6404,76.5576
141.6838,76.6225
141.6990,76.6990
141.6990,77.0990
141.6838,77.1755
141.6404,77.2404
141.5755,77.2838
141.4990,77.2990
140.9490,77.2990
140.8725,77.2838
140.8076,77.2404
140.7642,77.1755
140.7490,77.0990
140.7490,76.6990
140.7642,76.6225
140.8076,76.5576
140.8725,76.5142
140.9490,76.4990
Z" /> 
<path style="fill:#B4A09A; fill-opacity:0.9000; stroke:none;fill-rule:evenodd;"
d="M 141.4990,78.1490
141.5755,78.1642
141.6404,78.2076
141.6838,78.2725
141.6990,78.3490
141.6990,78.7490
141.6838,78.8255
141.6404,78.8904
141.5755,78.9338
141.4990,78.9490
140.9490,78.9490
140.8725,78.9338
140.8076,78.8904
140.7642,78.8255
140.7490,78.7490
140.7490,78.3490
140.7642,78.2725
140.8076,78.2076
140.8725,78.1642
140.9490,78.1490
Z" /> 
<path style="fill:#B4A09A; fill-opacity:0.9000; stroke:none;fill-rule:evenodd;"
d="M 141.4990,73.4510
141.5755,73.4662
141.6404,73.5096
141.6838,73.5745
141.6990,73.6510
141.6990,74.0510
141.6838,74.1275
141.6404,74.1924
141.5755,74.2358
141.4990,74.2510
140.9490,74.2510
140.8725,74.2358
140.8076,74.1924
140.7642,74.1275
140.7490,74.0510
140.7490,73.6510
140.7642,73.5745
140.8076,73.5096
140.8725,73.4662
140.9490,73.4510
Z" /> 
<path style="fill:#B4A09A; fill-opacity:0.9000; stroke:none;fill-rule:evenodd;"
d="M 141.4990,75.1010
141.5755,75.1162
141.6404,75.1596
141.6838,75.2245
141.6990,75.3010
141.6990,75.7010
141.6838,75.7775
141.6404,75.8424
141.5755,75.8858
141.4990,75.9010
140.9490,75.9010
140.8725,75.8858
140.8076,75.8424
140.7642,75.7775
140.7490,75.7010
140.7490,75.3010
140.7642,75.2245
140.8076,75.1596
140.8725,75.1162
140.9490,75.1010
Z" /> 
<path style="fill:#B4A09A; fill-opacity:0.9000; stroke:none;fill-rule:evenodd;"
d="M 95.8430,69.2105
95.8430,72.8105
94.5730,72.8105
94.5730,69.2105
Z" /> 
<path style="fill:#B4A09A; fill-opacity:0.9000; stroke:none;fill-rule:evenodd;"
d="M 98.7080,69.1105
98.7080,73.3105
97.3580,73.3105
97.3580,69.1105
Z" /> 
<path style="fill:#B4A09A; fill-opacity:0.9000; stroke:none;fill-rule:evenodd;"
d="M 93.0580,69.1105
93.0580,73.3105
91.7080,73.3105
91.7080,69.1105
Z" /> 
<path style="fill:#B4A09A; fill-opacity:0.9000; stroke:none;fill-rule:evenodd;"
d="M 151.8980,84.3520
151.9095,84.1665
151.9604,83.9240
152.0504,83.6932
152.1772,83.4804
152.3373,83.2913
152.5264,83.1312
152.7392,83.0044
152.9700,82.9144
153.2125,82.8635
153.3980,82.8520
156.3980,82.8520
156.5835,82.8635
156.8260,82.9144
157.0568,83.0044
157.2696,83.1312
157.4587,83.2913
157.6188,83.4804
157.7456,83.6932
157.8356,83.9240
157.8865,84.1665
157.8980,84.3520
157.8980,87.3520
157.8865,87.5375
157.8356,87.7800
157.7456,88.0108
157.6188,88.2236
157.4587,88.4127
157.2696,88.5728
157.0568,88.6996
156.8260,88.7896
156.5835,88.8405
156.3980,88.8520
153.3980,88.8520
153.2125,88.8405
152.9700,88.7896
152.7392,88.6996
152.5264,88.5728
152.3373,88.4127
152.1772,88.2236
152.0504,88.0108
151.9604,87.7800
151.9095,87.5375
151.8980,87.3520
Z" /> 
<path style="fill:#B4A09A; fill-opacity:0.9000; stroke:none;fill-rule:evenodd;"
d="M 120.6710,75.9910
120.7475,76.0062
120.8124,76.0496
120.8558,76.1145
120.8710,76.1910
120.8710,76.5910
120.8558,76.6675
120.8124,76.7324
120.7475,76.7758
120.6710,76.7910
120.1210,76.7910
120.0445,76.7758
119.9796,76.7324
119.9362,76.6675
119.9210,76.5910
119.9210,76.1910
119.9362,76.1145
119.9796,76.0496
120.0445,76.0062
120.1210,75.9910
Z" /> 
<path style="fill:#B4A09A; fill-opacity:0.9000; stroke:none;fill-rule:evenodd;"
d="M 120.6710,77.6410
120.7475,77.6562
120.8124,77.6996
120.8558,77.7645
120.8710,77.8410
120.8710,78.2410
120.8558,78.3175
120.8124,78.3824
120.7475,78.4258
120.6710,78.4410
120.1210,78.4410
120.0445,78.4258
119.9796,78.3824
119.9362,78.3175
119.9210,78.2410
119.9210,77.8410
119.9362,77.7645
119.9796,77.6996
120.0445,77.6562
120.1210,77.6410
Z" /> 
</g>
<g style="fill:none; 
stroke:#D0D2CD; stroke-width:0.2000; stroke-opacity:1; 
stroke-linecap:round; stroke-linejoin:round;">
<path d="M69.8080 113.8720 A5.0000 5.0000 0.0 0 0 74.8080 118.8720" />
<path d="M159.8080 73.8720 A5.0000 5.0000 0.0 0 0 154.8080 68.8720" />
<path d="M159.8080 73.8720
L159.8080 113.8720
" />
<path d="M74.8080 68.8720
L154.8080 68.8720
" />
<path d="M154.8080 118.8720 A5.0000 5.0000 0.0 0 0 159.8080 113.8720" />
<path d="M69.8080 113.8720
L69.8080 73.8720
" />
<path d="M74.8080 68.8720 A5.0000 5.0000 0.0 0 0 69.8080 73.8720" />
<path d="M154.8080 118.8720
L74.8080 118.8720
" />
</g> 
</svg>
