%TF.GenerationSoftware,KiCad,Pcbnew,8.0.5*%
%TF.CreationDate,2024-11-15T12:50:47+01:00*%
%TF.ProjectId,LISN_5u,4c49534e-5f35-4752-9e6b-696361645f70,rev?*%
%TF.SameCoordinates,Original*%
%TF.FileFunction,Copper,L1,Top*%
%TF.FilePolarity,Positive*%
%FSLAX46Y46*%
G04 Gerber Fmt 4.6, Leading zero omitted, Abs format (unit mm)*
G04 Created by KiCad (PCBNEW 8.0.5) date 2024-11-15 12:50:47*
%MOMM*%
%LPD*%
G01*
G04 APERTURE LIST*
G04 Aperture macros list*
%AMRoundRect*
0 Rectangle with rounded corners*
0 $1 Rounding radius*
0 $2 $3 $4 $5 $6 $7 $8 $9 X,Y pos of 4 corners*
0 Add a 4 corners polygon primitive as box body*
4,1,4,$2,$3,$4,$5,$6,$7,$8,$9,$2,$3,0*
0 Add four circle primitives for the rounded corners*
1,1,$1+$1,$2,$3*
1,1,$1+$1,$4,$5*
1,1,$1+$1,$6,$7*
1,1,$1+$1,$8,$9*
0 Add four rect primitives between the rounded corners*
20,1,$1+$1,$2,$3,$4,$5,0*
20,1,$1+$1,$4,$5,$6,$7,0*
20,1,$1+$1,$6,$7,$8,$9,0*
20,1,$1+$1,$8,$9,$2,$3,0*%
%AMRotRect*
0 Rectangle, with rotation*
0 The origin of the aperture is its center*
0 $1 length*
0 $2 width*
0 $3 Rotation angle, in degrees counterclockwise*
0 Add horizontal line*
21,1,$1,$2,0,0,$3*%
G04 Aperture macros list end*
%TA.AperFunction,SMDPad,CuDef*%
%ADD10RoundRect,0.250000X-1.100000X0.325000X-1.100000X-0.325000X1.100000X-0.325000X1.100000X0.325000X0*%
%TD*%
%TA.AperFunction,SMDPad,CuDef*%
%ADD11RoundRect,0.200000X-0.275000X0.200000X-0.275000X-0.200000X0.275000X-0.200000X0.275000X0.200000X0*%
%TD*%
%TA.AperFunction,SMDPad,CuDef*%
%ADD12C,0.500000*%
%TD*%
%TA.AperFunction,SMDPad,CuDef*%
%ADD13RoundRect,0.250000X-0.600000X0.400000X-0.600000X-0.400000X0.600000X-0.400000X0.600000X0.400000X0*%
%TD*%
%TA.AperFunction,ComponentPad*%
%ADD14C,3.600000*%
%TD*%
%TA.AperFunction,ConnectorPad*%
%ADD15C,5.600000*%
%TD*%
%TA.AperFunction,SMDPad,CuDef*%
%ADD16RoundRect,0.250000X-0.689429X-0.229810X-0.229810X-0.689429X0.689429X0.229810X0.229810X0.689429X0*%
%TD*%
%TA.AperFunction,SMDPad,CuDef*%
%ADD17R,2.700000X2.200000*%
%TD*%
%TA.AperFunction,SMDPad,CuDef*%
%ADD18RoundRect,0.200000X-0.200000X-0.275000X0.200000X-0.275000X0.200000X0.275000X-0.200000X0.275000X0*%
%TD*%
%TA.AperFunction,SMDPad,CuDef*%
%ADD19RoundRect,1.500000X-1.500000X-1.500000X1.500000X-1.500000X1.500000X1.500000X-1.500000X1.500000X0*%
%TD*%
%TA.AperFunction,SMDPad,CuDef*%
%ADD20RoundRect,0.250000X-0.650000X0.325000X-0.650000X-0.325000X0.650000X-0.325000X0.650000X0.325000X0*%
%TD*%
%TA.AperFunction,SMDPad,CuDef*%
%ADD21RoundRect,0.250000X-0.250000X-0.475000X0.250000X-0.475000X0.250000X0.475000X-0.250000X0.475000X0*%
%TD*%
%TA.AperFunction,SMDPad,CuDef*%
%ADD22RotRect,0.200000X0.675000X225.000000*%
%TD*%
%TA.AperFunction,SMDPad,CuDef*%
%ADD23RoundRect,0.250000X-1.000000X1.950000X-1.000000X-1.950000X1.000000X-1.950000X1.000000X1.950000X0*%
%TD*%
%TA.AperFunction,SMDPad,CuDef*%
%ADD24R,4.500000X1.550000*%
%TD*%
%TA.AperFunction,SMDPad,CuDef*%
%ADD25R,4.550000X1.550000*%
%TD*%
%TA.AperFunction,SMDPad,CuDef*%
%ADD26R,1.270000X3.600000*%
%TD*%
%TA.AperFunction,SMDPad,CuDef*%
%ADD27R,1.350000X4.200000*%
%TD*%
%TA.AperFunction,ViaPad*%
%ADD28C,0.450000*%
%TD*%
%TA.AperFunction,Conductor*%
%ADD29C,0.150000*%
%TD*%
%TA.AperFunction,Conductor*%
%ADD30C,1.000000*%
%TD*%
%TA.AperFunction,Conductor*%
%ADD31C,3.000000*%
%TD*%
G04 APERTURE END LIST*
D10*
%TO.P,C106,1*%
%TO.N,Net-(X102-Pin_1)*%
X96266000Y-89711000D03*
%TO.P,C106,2*%
%TO.N,GND*%
X96266000Y-92661000D03*
%TD*%
D11*
%TO.P,R111,1*%
%TO.N,Net-(C102-Pad2)*%
X136144000Y-76899000D03*
%TO.P,R111,2*%
%TO.N,GND*%
X136144000Y-78549000D03*
%TD*%
%TO.P,R108,1*%
%TO.N,Net-(D101-A)*%
X107442000Y-76962000D03*
%TO.P,R108,2*%
%TO.N,GND*%
X107442000Y-78612000D03*
%TD*%
D12*
%TO.P,FID103,*%
%TO.N,*%
X149564000Y-70866000D03*
%TD*%
D13*
%TO.P,D102,1,K*%
%TO.N,GND*%
X114808000Y-71628000D03*
%TO.P,D102,2,A*%
%TO.N,Net-(D102-A)*%
X114808000Y-75128000D03*
%TD*%
D14*
%TO.P,H103,1,1*%
%TO.N,GND*%
X154898000Y-113792000D03*
D15*
X154898000Y-113792000D03*
%TD*%
D14*
%TO.P,H101,1,1*%
%TO.N,GND*%
X74634000Y-73660000D03*
D15*
X74634000Y-73660000D03*
%TD*%
D16*
%TO.P,C103,1*%
%TO.N,Net-(C103-Pad1)*%
X146584983Y-77652983D03*
%TO.P,C103,2*%
%TO.N,Net-(C103-Pad2)*%
X148670949Y-79738949D03*
%TD*%
D14*
%TO.P,H104,1,1*%
%TO.N,GND*%
X74634000Y-113792000D03*
D15*
X74634000Y-113792000D03*
%TD*%
D17*
%TO.P,L106,1,1*%
%TO.N,Net-(L105-Pad2)*%
X139426000Y-89662000D03*
%TO.P,L106,2,2*%
%TO.N,Net-(X103-Pin_1)*%
X144526000Y-89662000D03*
%TD*%
D18*
%TO.P,R106,1*%
%TO.N,Net-(D102-A)*%
X117031000Y-76200000D03*
%TO.P,R106,2*%
%TO.N,Net-(C101-Pad1)*%
X118681000Y-76200000D03*
%TD*%
D19*
%TO.P,X104,1,Pin_1*%
%TO.N,GND*%
X72856000Y-101854000D03*
%TD*%
D14*
%TO.P,H102,1,1*%
%TO.N,GND*%
X154644000Y-73660000D03*
D15*
X154644000Y-73660000D03*
%TD*%
D11*
%TO.P,R101,1*%
%TO.N,GND*%
X107442000Y-73851000D03*
%TO.P,R101,2*%
%TO.N,Net-(D101-A)*%
X107442000Y-75501000D03*
%TD*%
%TO.P,R102,1*%
%TO.N,GND*%
X112268000Y-73851000D03*
%TO.P,R102,2*%
%TO.N,Net-(D102-A)*%
X112268000Y-75501000D03*
%TD*%
D18*
%TO.P,R105,1*%
%TO.N,Net-(D101-A)*%
X109157000Y-76200000D03*
%TO.P,R105,2*%
%TO.N,Net-(D102-A)*%
X110807000Y-76200000D03*
%TD*%
D12*
%TO.P,FID102,*%
%TO.N,*%
X157438000Y-108458000D03*
%TD*%
%TO.P,FID104,*%
%TO.N,*%
X78952000Y-71120000D03*
%TD*%
D18*
%TO.P,R107,1*%
%TO.N,Net-(C102-Pad2)*%
X137859000Y-76200000D03*
%TO.P,R107,2*%
%TO.N,Net-(C103-Pad1)*%
X139509000Y-76200000D03*
%TD*%
D17*
%TO.P,L103,1,1*%
%TO.N,Net-(L102-Pad2)*%
X111740000Y-89662000D03*
%TO.P,L103,2,2*%
%TO.N,Net-(L103-Pad2)*%
X116840000Y-89662000D03*
%TD*%
%TO.P,L104,1,1*%
%TO.N,Net-(L103-Pad2)*%
X121138000Y-89662000D03*
%TO.P,L104,2,2*%
%TO.N,Net-(L104-Pad2)*%
X126238000Y-89662000D03*
%TD*%
D19*
%TO.P,X102,1,Pin_1*%
%TO.N,Net-(X102-Pin_1)*%
X74634000Y-85852000D03*
%TD*%
D10*
%TO.P,C105,1*%
%TO.N,Net-(X102-Pin_1)*%
X80772000Y-89711000D03*
%TO.P,C105,2*%
%TO.N,GND*%
X80772000Y-92661000D03*
%TD*%
D13*
%TO.P,D104,1,K*%
%TO.N,Net-(D102-A)*%
X114808000Y-76962000D03*
%TO.P,D104,2,A*%
%TO.N,GND*%
X114808000Y-80462000D03*
%TD*%
D20*
%TO.P,C104,1*%
%TO.N,Net-(C103-Pad2)*%
X149606000Y-82042000D03*
%TO.P,C104,2*%
%TO.N,Net-(X103-Pin_1)*%
X149606000Y-84992000D03*
%TD*%
D13*
%TO.P,D103,1,K*%
%TO.N,Net-(D101-A)*%
X105156000Y-77244000D03*
%TO.P,D103,2,A*%
%TO.N,GND*%
X105156000Y-80744000D03*
%TD*%
D17*
%TO.P,L102,1,1*%
%TO.N,Net-(X102-Pin_1)*%
X102342000Y-89662000D03*
%TO.P,L102,2,2*%
%TO.N,Net-(L102-Pad2)*%
X107442000Y-89662000D03*
%TD*%
D21*
%TO.P,C101,1*%
%TO.N,Net-(C101-Pad1)*%
X122306001Y-76200000D03*
%TO.P,C101,2*%
%TO.N,Net-(C101-Pad2)*%
X124206001Y-76200000D03*
%TD*%
D22*
%TO.P,D105,1*%
%TO.N,Net-(D101-A)*%
X97240000Y-74618315D03*
%TO.P,D105,2*%
X96957158Y-74901158D03*
%TO.P,D105,3*%
%TO.N,GND*%
X96674315Y-75184000D03*
%TO.P,D105,4*%
X97293034Y-75802719D03*
%TO.P,D105,5*%
%TO.N,Net-(D101-A)*%
X97575876Y-75519876D03*
%TO.P,D105,6*%
X97858719Y-75237034D03*
%TD*%
D17*
%TO.P,L105,1,1*%
%TO.N,Net-(L104-Pad2)*%
X130282000Y-89662000D03*
%TO.P,L105,2,2*%
%TO.N,Net-(L105-Pad2)*%
X135382000Y-89662000D03*
%TD*%
D19*
%TO.P,X105,1,Pin_1*%
%TO.N,GND*%
X156676000Y-101854000D03*
%TD*%
D11*
%TO.P,R109,1*%
%TO.N,Net-(D102-A)*%
X112268000Y-76962000D03*
%TO.P,R109,2*%
%TO.N,GND*%
X112268000Y-78612000D03*
%TD*%
D12*
%TO.P,FID101,*%
%TO.N,*%
X77682000Y-116840000D03*
%TD*%
D11*
%TO.P,R103,1*%
%TO.N,GND*%
X136144000Y-73851000D03*
%TO.P,R103,2*%
%TO.N,Net-(C102-Pad2)*%
X136144000Y-75501000D03*
%TD*%
D21*
%TO.P,C102,1*%
%TO.N,Net-(C101-Pad2)*%
X132400000Y-76200000D03*
%TO.P,C102,2*%
%TO.N,Net-(C102-Pad2)*%
X134300000Y-76200000D03*
%TD*%
D23*
%TO.P,C107,1*%
%TO.N,Net-(X102-Pin_1)*%
X88350000Y-89518000D03*
%TO.P,C107,2*%
%TO.N,GND*%
X88350000Y-96918000D03*
%TD*%
D13*
%TO.P,D101,1,K*%
%TO.N,GND*%
X105156000Y-71938000D03*
%TO.P,D101,2,A*%
%TO.N,Net-(D101-A)*%
X105156000Y-75438000D03*
%TD*%
D24*
%TO.P,L101,1,1*%
%TO.N,Net-(C101-Pad2)*%
X128524000Y-75945999D03*
D25*
%TO.P,L101,2,2*%
%TO.N,GND*%
X128524000Y-72095999D03*
%TD*%
D11*
%TO.P,R112,1*%
%TO.N,Net-(C103-Pad1)*%
X141224000Y-76899000D03*
%TO.P,R112,2*%
%TO.N,GND*%
X141224000Y-78549000D03*
%TD*%
%TO.P,R104,1*%
%TO.N,GND*%
X141224000Y-73851000D03*
%TO.P,R104,2*%
%TO.N,Net-(C103-Pad1)*%
X141224000Y-75501000D03*
%TD*%
D26*
%TO.P,X101,1,In*%
%TO.N,Net-(D101-A)*%
X95208000Y-71010500D03*
D27*
%TO.P,X101,2,Ext*%
%TO.N,GND*%
X98033000Y-71210500D03*
X92383000Y-71210500D03*
%TD*%
D19*
%TO.P,X103,1,Pin_1*%
%TO.N,Net-(X103-Pin_1)*%
X154898000Y-85852000D03*
%TD*%
D11*
%TO.P,R110,1*%
%TO.N,Net-(C101-Pad1)*%
X120396000Y-76391000D03*
%TO.P,R110,2*%
%TO.N,GND*%
X120396000Y-78041000D03*
%TD*%
D28*
%TO.N,GND*%
X149012420Y-77172420D03*
X146516000Y-74676000D03*
X151088000Y-79502000D03*
X128482001Y-70358000D03*
X129498000Y-70358000D03*
X127466000Y-70358000D03*
X134070000Y-74422000D03*
X132038000Y-74422000D03*
X132038000Y-72135999D03*
X132038000Y-71120000D03*
X132038000Y-73152000D03*
X124926000Y-72135999D03*
X124926000Y-71120000D03*
X124926000Y-73152000D03*
X82491202Y-69259000D03*
X77936000Y-110744000D03*
X104098000Y-85344000D03*
X108924000Y-74168000D03*
X85302000Y-85852000D03*
X134324000Y-85344000D03*
X154644000Y-89662000D03*
X79206000Y-85852000D03*
X90128000Y-100076000D03*
X108636899Y-118447000D03*
X140420000Y-85344000D03*
X112226000Y-80010000D03*
X76158000Y-98044000D03*
X114258000Y-85344000D03*
X126015605Y-69259000D03*
X118334828Y-69259000D03*
X136102000Y-72644000D03*
X103590000Y-71882000D03*
X93430000Y-74676000D03*
X108162000Y-98806000D03*
X106130000Y-85344000D03*
X100956122Y-118447000D03*
X130514000Y-93980000D03*
X153120000Y-82042000D03*
X101812001Y-78740000D03*
X154178454Y-69259000D03*
X121370000Y-104648000D03*
X126450000Y-93980000D03*
X159299000Y-107662885D03*
X155406000Y-82042000D03*
X134070000Y-78232000D03*
X147278000Y-83820000D03*
X121438194Y-118447000D03*
X89112000Y-100838000D03*
X70233000Y-105645719D03*
X120862000Y-74422000D03*
X88350000Y-93218000D03*
X152104000Y-100330000D03*
X95970000Y-85852000D03*
X157438000Y-89916000D03*
X113214310Y-69259000D03*
X75353532Y-118447000D03*
X137626000Y-73914000D03*
X150580000Y-73152000D03*
X75904000Y-75438000D03*
X90382000Y-94488000D03*
X90636000Y-96520000D03*
X111197158Y-118447000D03*
X120895087Y-69259000D03*
X159299000Y-110223144D03*
X122386000Y-85344000D03*
X100796000Y-74422000D03*
X100542000Y-98552000D03*
X76920000Y-100838000D03*
X124418000Y-85344000D03*
X107654000Y-80264000D03*
X117052000Y-78232000D03*
X74888000Y-81534000D03*
X142452000Y-85344000D03*
X152104000Y-98552000D03*
X84032000Y-83566000D03*
X110448000Y-93980000D03*
X107654000Y-72644000D03*
X90382000Y-70866000D03*
X85051461Y-69259000D03*
X90382000Y-71882000D03*
X92668000Y-85852000D03*
X116290000Y-85344000D03*
X118576000Y-93980000D03*
X89366000Y-85852000D03*
X98510000Y-93218000D03*
X73618000Y-81534000D03*
X98395863Y-118447000D03*
X151618195Y-69259000D03*
X117814000Y-98552000D03*
X128482000Y-93980000D03*
X82254000Y-110744000D03*
X136102000Y-80010000D03*
X135086000Y-73914000D03*
X118322000Y-85344000D03*
X88154827Y-118447000D03*
X118068001Y-74422000D03*
X72094000Y-90424000D03*
X155914000Y-89408000D03*
X93176000Y-84582000D03*
X119084000Y-74422000D03*
X78444000Y-92710000D03*
X127466000Y-81280000D03*
X152104000Y-104394000D03*
X103844000Y-111506000D03*
X156676000Y-117602000D03*
X126450000Y-78232000D03*
X147786000Y-109982000D03*
X90715086Y-118447000D03*
X144992000Y-80010000D03*
X157438000Y-70866000D03*
X120608000Y-93980000D03*
X86064000Y-96012000D03*
X128228000Y-85344000D03*
X96224000Y-93980000D03*
X87334000Y-100838000D03*
X152612000Y-89662000D03*
X93684000Y-92710000D03*
X84286000Y-75438000D03*
X124672000Y-93980000D03*
X70824000Y-72644000D03*
X96013580Y-75735580D03*
X114512000Y-93980000D03*
X156930000Y-97536000D03*
X117052000Y-74422000D03*
X116317676Y-118447000D03*
X146770000Y-81534000D03*
X122894000Y-74422000D03*
X159299000Y-92301331D03*
X70316000Y-82296000D03*
X116544000Y-93980000D03*
X146770000Y-101854000D03*
X154721561Y-118447000D03*
X73364000Y-70104000D03*
X70233000Y-110766237D03*
X76920000Y-102870000D03*
X77370684Y-69259000D03*
X71586000Y-116840000D03*
X102320000Y-93980000D03*
X104352000Y-93980000D03*
X110702000Y-78232000D03*
X131530000Y-78232000D03*
X138816900Y-69259000D03*
X73110000Y-117856000D03*
X90636000Y-99314000D03*
X142452000Y-73914000D03*
X155152000Y-105664000D03*
X141182000Y-72644000D03*
X108416000Y-93980000D03*
X102066000Y-85344000D03*
X122132000Y-78232000D03*
X97581159Y-77303159D03*
X87588000Y-104648000D03*
X103082000Y-80518000D03*
X70233000Y-90284165D03*
X146770000Y-86614000D03*
X136610000Y-93980000D03*
X118877935Y-118447000D03*
X74380000Y-105918000D03*
X140166000Y-73914000D03*
X70233000Y-97964942D03*
X76920000Y-104902000D03*
X100796000Y-78740000D03*
X157946000Y-116586000D03*
X105533533Y-69259000D03*
X106638000Y-71882000D03*
X136799748Y-118447000D03*
X134578000Y-93980000D03*
X144484000Y-85344000D03*
X141436000Y-80010000D03*
X159299000Y-76939777D03*
X91398000Y-80010000D03*
X93684000Y-112268000D03*
X78698000Y-84582000D03*
X85594568Y-118447000D03*
X80474050Y-118447000D03*
X80730000Y-94234000D03*
X76920000Y-98806000D03*
X157184000Y-82042000D03*
X114512000Y-70358000D03*
X143937418Y-69259000D03*
X153120000Y-105664000D03*
X148294000Y-95758000D03*
X116798000Y-80518000D03*
X154644000Y-75692000D03*
X103516381Y-118447000D03*
X101812001Y-74422000D03*
X144480525Y-118447000D03*
X71840000Y-81534000D03*
X83270000Y-85852000D03*
X113757417Y-118447000D03*
X91144000Y-74676000D03*
X87611720Y-69259000D03*
X70233000Y-95404683D03*
X149601043Y-118447000D03*
X157184000Y-105664000D03*
X158708000Y-72136000D03*
X140674000Y-93980000D03*
X108093792Y-69259000D03*
X122640000Y-93980000D03*
X131679230Y-118447000D03*
X126196000Y-85344000D03*
X159299000Y-82060295D03*
X102973274Y-69259000D03*
X139360007Y-118447000D03*
X121878001Y-74422000D03*
X131136123Y-69259000D03*
X134239489Y-118447000D03*
X78444000Y-82804000D03*
X102828000Y-74422000D03*
X144738000Y-93980000D03*
X108162000Y-85344000D03*
X70233000Y-92844424D03*
X152104000Y-102362000D03*
X128482000Y-111252000D03*
X116544000Y-71628000D03*
X147786000Y-92202000D03*
X99780000Y-73914000D03*
X90171979Y-69259000D03*
X159299000Y-97421849D03*
X141920266Y-118447000D03*
X138642000Y-93980000D03*
X77913791Y-118447000D03*
X151596000Y-90932000D03*
X91398000Y-85852000D03*
X92414001Y-74676000D03*
X156422000Y-69850000D03*
X99526000Y-103632000D03*
X150072000Y-92202000D03*
X99780000Y-72390000D03*
X70233000Y-74922611D03*
X105114000Y-70612000D03*
X140166000Y-112268000D03*
X120354000Y-85344000D03*
X75142000Y-91694000D03*
X99526000Y-91440000D03*
X129118971Y-118447000D03*
X137880000Y-78232000D03*
X108924000Y-78232000D03*
X159299000Y-89741072D03*
X110702000Y-74168000D03*
X130260000Y-85344000D03*
X147040784Y-118447000D03*
X74810425Y-69259000D03*
X112226000Y-85344000D03*
X152161302Y-118447000D03*
X116036000Y-110236000D03*
X98256000Y-85852000D03*
X115774569Y-69259000D03*
X133696382Y-69259000D03*
X72856000Y-94234000D03*
X73872000Y-90424000D03*
X70233000Y-77482870D03*
X70233000Y-108205978D03*
X146497677Y-69259000D03*
X105114000Y-82042000D03*
X72602000Y-105918000D03*
X112226000Y-72644000D03*
X118830000Y-78232000D03*
X81238000Y-85852000D03*
X99018000Y-78740000D03*
X106384000Y-93980000D03*
X94446000Y-85852000D03*
X123455346Y-69259000D03*
X110194000Y-85344000D03*
X132800000Y-104140000D03*
X77174000Y-81534000D03*
X159299000Y-112783403D03*
X141377159Y-69259000D03*
X100413015Y-69259000D03*
X132292000Y-85344000D03*
X106076640Y-118447000D03*
X99526000Y-85852000D03*
X72094000Y-98044000D03*
X123998453Y-118447000D03*
X70233000Y-80043129D03*
X77428000Y-91694000D03*
X108670000Y-104140000D03*
X143468000Y-78232000D03*
X99780000Y-71374000D03*
X70824000Y-115570000D03*
X159299000Y-115343662D03*
X159299000Y-74379518D03*
X129752000Y-78232000D03*
X136356000Y-85344000D03*
X114766000Y-82042000D03*
X79930943Y-69259000D03*
X137880000Y-98552000D03*
X95295159Y-75017159D03*
X139658000Y-78232000D03*
X90382000Y-73406000D03*
X154898000Y-97536000D03*
X128575864Y-69259000D03*
X149057936Y-69259000D03*
X142706000Y-93980000D03*
X95835604Y-118447000D03*
X110654051Y-69259000D03*
X126558712Y-118447000D03*
X71840000Y-71120000D03*
X136256641Y-69259000D03*
X147278000Y-82550000D03*
X83034309Y-118447000D03*
X147532000Y-114046000D03*
X128990000Y-99314000D03*
X151596000Y-82042000D03*
X96732000Y-76454000D03*
X102828000Y-78740000D03*
X138388000Y-85344000D03*
X132546000Y-93980000D03*
X98299580Y-78021580D03*
X159216000Y-105410000D03*
X87334000Y-85852000D03*
X112988000Y-71628000D03*
X91144000Y-91948000D03*
X81746000Y-103378000D03*
X159299000Y-94861590D03*
X152866000Y-97536000D03*
X70233000Y-113326496D03*
X99780000Y-70358000D03*
X159299000Y-79500036D03*
X86064000Y-99060000D03*
X85556000Y-91948000D03*
X147024000Y-85090000D03*
X120354000Y-79248000D03*
X151088000Y-83566000D03*
X128482000Y-77978000D03*
X74126000Y-98044000D03*
X82762000Y-92710000D03*
X120608000Y-72390000D03*
X124164000Y-78232000D03*
X93275345Y-118447000D03*
X112480000Y-93980000D03*
X76158000Y-105918000D03*
%TD*%
D29*
%TO.N,Net-(D101-A)*%
X97575876Y-75519876D02*
X98019002Y-75076750D01*
X98019002Y-75076750D02*
X98109250Y-75076750D01*
D30*
X98109250Y-75076750D02*
X97474250Y-74441750D01*
X99232500Y-76200000D02*
X98109250Y-75076750D01*
D29*
X96957158Y-74901158D02*
X97416566Y-74441750D01*
D30*
X97474250Y-74441750D02*
X95208000Y-72175500D01*
D29*
X97416566Y-74441750D02*
X97474250Y-74441750D01*
%TO.N,GND*%
X97293034Y-75892966D02*
X96732000Y-76454000D01*
X97293034Y-75802719D02*
X97293034Y-75892966D01*
X96565160Y-75184000D02*
X96013580Y-75735580D01*
X96674315Y-75184000D02*
X96565160Y-75184000D01*
X96674315Y-75184000D02*
X97293034Y-75802719D01*
%TO.N,Net-(D101-A)*%
X96957158Y-74901158D02*
X97575876Y-75519876D01*
D30*
%TO.N,Net-(X103-Pin_1)*%
X149606000Y-84992000D02*
X149606000Y-87672000D01*
X149606000Y-87672000D02*
X149853819Y-87919819D01*
D31*
X149853819Y-87919819D02*
X148111638Y-89662000D01*
X151921638Y-85852000D02*
X149853819Y-87919819D01*
D30*
X151061638Y-84992000D02*
X151921638Y-85852000D01*
X149606000Y-84992000D02*
X151061638Y-84992000D01*
D31*
X154898000Y-85852000D02*
X151921638Y-85852000D01*
X148111638Y-89662000D02*
X144526000Y-89662000D01*
D30*
%TO.N,Net-(C101-Pad2)*%
X132400000Y-76200000D02*
X124206001Y-76200000D01*
%TO.N,Net-(C101-Pad1)*%
X122306001Y-76200000D02*
X118681000Y-76200000D01*
%TO.N,Net-(C102-Pad2)*%
X136144000Y-75501000D02*
X136144000Y-76899000D01*
X137859000Y-76200000D02*
X134300000Y-76200000D01*
%TO.N,Net-(C103-Pad2)*%
X149606000Y-82042000D02*
X149606000Y-80674000D01*
X149606000Y-80674000D02*
X148670949Y-79738949D01*
%TO.N,Net-(C103-Pad1)*%
X139509000Y-76200000D02*
X145132000Y-76200000D01*
X145132000Y-76200000D02*
X146584983Y-77652983D01*
X141224000Y-75501000D02*
X141224000Y-76899000D01*
D31*
%TO.N,Net-(X102-Pin_1)*%
X101580000Y-88900000D02*
X75936000Y-88900000D01*
X75936000Y-88900000D02*
X74634000Y-87598000D01*
X102342000Y-89662000D02*
X101580000Y-88900000D01*
X74634000Y-87598000D02*
X74634000Y-85852000D01*
D30*
%TO.N,Net-(D101-A)*%
X100288000Y-76200000D02*
X99232500Y-76200000D01*
D29*
X101163000Y-76313000D02*
X101050000Y-76200000D01*
D30*
X101050000Y-76200000D02*
X100288000Y-76200000D01*
X95208000Y-72175500D02*
X95208000Y-71010500D01*
X109157000Y-76200000D02*
X101050000Y-76200000D01*
X105156000Y-75438000D02*
X105156000Y-77244000D01*
%TO.N,Net-(D102-A)*%
X117031000Y-76200000D02*
X110807000Y-76200000D01*
X114808000Y-75128000D02*
X114808000Y-76962000D01*
D31*
%TO.N,Net-(L102-Pad2)*%
X107442000Y-89662000D02*
X111740000Y-89662000D01*
%TO.N,Net-(L103-Pad2)*%
X116840000Y-89662000D02*
X121138000Y-89662000D01*
%TO.N,Net-(L104-Pad2)*%
X126238000Y-89662000D02*
X130282000Y-89662000D01*
%TO.N,Net-(L105-Pad2)*%
X135382000Y-89662000D02*
X139426000Y-89662000D01*
%TD*%
%TA.AperFunction,Conductor*%
%TO.N,GND*%
G36*
X71537203Y-88561842D02*
G01*
X71555267Y-88581245D01*
X71618254Y-88665387D01*
X71618270Y-88665405D01*
X71820594Y-88867729D01*
X71820612Y-88867745D01*
X72049682Y-89039224D01*
X72049690Y-89039229D01*
X72300833Y-89176364D01*
X72300832Y-89176364D01*
X72300836Y-89176365D01*
X72300839Y-89176367D01*
X72568954Y-89276369D01*
X72568960Y-89276370D01*
X72568962Y-89276371D01*
X72848566Y-89337195D01*
X72848568Y-89337195D01*
X72848572Y-89337196D01*
X73062552Y-89352500D01*
X73508004Y-89352500D01*
X73575043Y-89372185D01*
X73595685Y-89388819D01*
X74614143Y-90407278D01*
X74614149Y-90407283D01*
X74731868Y-90497611D01*
X74822197Y-90566924D01*
X74929218Y-90628712D01*
X75049303Y-90698043D01*
X75291581Y-90798398D01*
X75544884Y-90866271D01*
X75674882Y-90883385D01*
X75804880Y-90900500D01*
X86475501Y-90900500D01*
X86542540Y-90920185D01*
X86588295Y-90972989D01*
X86599501Y-91024500D01*
X86599501Y-91518018D01*
X86610000Y-91620796D01*
X86610001Y-91620799D01*
X86623820Y-91662500D01*
X86665186Y-91787334D01*
X86757288Y-91936656D01*
X86881344Y-92060712D01*
X87030666Y-92152814D01*
X87197203Y-92207999D01*
X87299991Y-92218500D01*
X89400008Y-92218499D01*
X89502797Y-92207999D01*
X89669334Y-92152814D01*
X89818656Y-92060712D01*
X89942712Y-91936656D01*
X90034814Y-91787334D01*
X90089999Y-91620797D01*
X90100500Y-91518009D01*
X90100500Y-91024500D01*
X90120185Y-90957461D01*
X90172989Y-90911706D01*
X90224500Y-90900500D01*
X100423382Y-90900500D01*
X100490421Y-90920185D01*
X100536176Y-90972989D01*
X100539564Y-90981167D01*
X100548202Y-91004328D01*
X100548203Y-91004330D01*
X100548204Y-91004331D01*
X100559266Y-91019107D01*
X100583684Y-91084569D01*
X100584000Y-91093419D01*
X100584000Y-93472000D01*
X146304000Y-93472000D01*
X146304000Y-91786500D01*
X146323685Y-91719461D01*
X146376489Y-91673706D01*
X146428000Y-91662500D01*
X148242751Y-91662500D01*
X148242758Y-91662500D01*
X148372756Y-91645385D01*
X148502754Y-91628271D01*
X148756057Y-91560398D01*
X148998335Y-91460043D01*
X149225441Y-91328924D01*
X149320358Y-91256091D01*
X149433489Y-91169283D01*
X151361102Y-89241670D01*
X151822139Y-88780632D01*
X151883460Y-88747149D01*
X151953151Y-88752133D01*
X151997499Y-88780634D01*
X152084594Y-88867729D01*
X152084612Y-88867745D01*
X152313682Y-89039224D01*
X152313690Y-89039229D01*
X152564833Y-89176364D01*
X152564832Y-89176364D01*
X152564836Y-89176365D01*
X152564839Y-89176367D01*
X152832954Y-89276369D01*
X152832960Y-89276370D01*
X152832962Y-89276371D01*
X153112566Y-89337195D01*
X153112568Y-89337195D01*
X153112572Y-89337196D01*
X153326552Y-89352500D01*
X156469448Y-89352500D01*
X156683428Y-89337196D01*
X156963046Y-89276369D01*
X157231161Y-89176367D01*
X157482315Y-89039226D01*
X157711395Y-88867739D01*
X157913739Y-88665395D01*
X157921105Y-88655555D01*
X157976733Y-88581245D01*
X158032666Y-88539373D01*
X158102358Y-88534389D01*
X158163681Y-88567874D01*
X158197166Y-88629197D01*
X158200000Y-88655555D01*
X158200000Y-88900000D01*
X159600000Y-88900000D01*
X159667039Y-88919685D01*
X159712794Y-88972489D01*
X159724000Y-89024000D01*
X159724000Y-114676717D01*
X159723882Y-114682126D01*
X159720204Y-114766367D01*
X159719261Y-114777144D01*
X159708432Y-114859396D01*
X159707110Y-114867401D01*
X159690360Y-114951610D01*
X159689189Y-114956892D01*
X159668129Y-115042956D01*
X159667458Y-115045576D01*
X159635679Y-115164179D01*
X159634950Y-115166785D01*
X159575069Y-115372223D01*
X159573442Y-115377383D01*
X159505088Y-115578744D01*
X159503238Y-115583827D01*
X159426184Y-115781972D01*
X159424114Y-115786971D01*
X159338459Y-115981637D01*
X159336172Y-115986540D01*
X159242142Y-116177214D01*
X159239644Y-116182013D01*
X159137372Y-116368429D01*
X159134667Y-116373114D01*
X159024353Y-116554907D01*
X159021446Y-116559470D01*
X158903304Y-116736282D01*
X158900201Y-116740713D01*
X158774491Y-116912160D01*
X158771198Y-116916452D01*
X158638085Y-117082308D01*
X158634607Y-117086453D01*
X158494419Y-117246305D01*
X158490764Y-117250293D01*
X158343722Y-117403896D01*
X158339896Y-117407722D01*
X158186293Y-117554764D01*
X158182305Y-117558419D01*
X158022431Y-117698625D01*
X158018286Y-117702103D01*
X157852463Y-117835189D01*
X157848172Y-117838482D01*
X157676706Y-117964207D01*
X157672273Y-117967310D01*
X157495469Y-118085446D01*
X157490907Y-118088353D01*
X157309114Y-118198667D01*
X157304429Y-118201372D01*
X157118005Y-118303649D01*
X157113231Y-118306134D01*
X156932077Y-118395468D01*
X156922497Y-118400193D01*
X156917594Y-118402479D01*
X156722978Y-118488111D01*
X156717980Y-118490181D01*
X156519827Y-118567238D01*
X156514744Y-118569088D01*
X156313383Y-118637442D01*
X156308223Y-118639069D01*
X156104071Y-118698575D01*
X156098845Y-118699975D01*
X155892311Y-118750513D01*
X155887029Y-118751684D01*
X155678493Y-118793164D01*
X155673165Y-118794104D01*
X155462991Y-118826453D01*
X155457628Y-118827159D01*
X155261332Y-118848657D01*
X155244908Y-118850455D01*
X155242223Y-118850720D01*
X155136079Y-118860007D01*
X155133718Y-118860191D01*
X155028454Y-118867378D01*
X155023726Y-118867610D01*
X154918313Y-118870773D01*
X154915948Y-118870822D01*
X154835350Y-118871702D01*
X154835007Y-118871705D01*
X154808392Y-118871922D01*
X154807721Y-118871926D01*
X154781022Y-118871999D01*
X154780732Y-118872000D01*
X74835268Y-118872000D01*
X74834976Y-118871999D01*
X74808278Y-118871926D01*
X74807607Y-118871922D01*
X74780992Y-118871705D01*
X74780649Y-118871702D01*
X74700051Y-118870822D01*
X74697686Y-118870773D01*
X74592274Y-118867610D01*
X74587547Y-118867378D01*
X74482282Y-118860191D01*
X74479920Y-118860007D01*
X74403454Y-118853316D01*
X74373770Y-118850719D01*
X74371100Y-118850456D01*
X74331315Y-118846099D01*
X74158371Y-118827159D01*
X74153008Y-118826453D01*
X73942846Y-118794106D01*
X73937518Y-118793166D01*
X73728971Y-118751684D01*
X73723689Y-118750513D01*
X73517163Y-118699977D01*
X73511943Y-118698578D01*
X73469356Y-118686165D01*
X73307776Y-118639069D01*
X73302617Y-118637442D01*
X73101284Y-118569099D01*
X73096200Y-118567249D01*
X72898020Y-118490181D01*
X72893022Y-118488111D01*
X72698387Y-118402470D01*
X72693483Y-118400183D01*
X72502786Y-118306142D01*
X72497987Y-118303644D01*
X72311561Y-118201367D01*
X72306876Y-118198662D01*
X72125093Y-118088354D01*
X72120530Y-118085447D01*
X71943726Y-117967310D01*
X71939295Y-117964207D01*
X71767828Y-117838482D01*
X71763557Y-117835207D01*
X71597680Y-117702076D01*
X71593547Y-117698607D01*
X71433694Y-117558419D01*
X71429705Y-117554764D01*
X71276103Y-117407722D01*
X71272278Y-117403897D01*
X71125236Y-117250295D01*
X71121581Y-117246306D01*
X70981391Y-117086450D01*
X70977914Y-117082306D01*
X70844813Y-116916467D01*
X70841519Y-116912174D01*
X70788599Y-116840000D01*
X77176353Y-116840000D01*
X77196834Y-116982456D01*
X77244329Y-117086453D01*
X77256623Y-117113373D01*
X77350872Y-117222143D01*
X77471947Y-117299953D01*
X77471950Y-117299954D01*
X77471949Y-117299954D01*
X77610036Y-117340499D01*
X77610038Y-117340500D01*
X77610039Y-117340500D01*
X77753962Y-117340500D01*
X77753962Y-117340499D01*
X77892053Y-117299953D01*
X78013128Y-117222143D01*
X78107377Y-117113373D01*
X78167165Y-116982457D01*
X78187647Y-116840000D01*
X78167165Y-116697543D01*
X78107377Y-116566627D01*
X78013128Y-116457857D01*
X77892053Y-116380047D01*
X77892051Y-116380046D01*
X77892049Y-116380045D01*
X77892050Y-116380045D01*
X77753963Y-116339500D01*
X77753961Y-116339500D01*
X77610039Y-116339500D01*
X77610036Y-116339500D01*
X77471949Y-116380045D01*
X77350873Y-116457856D01*
X77256623Y-116566626D01*
X77256622Y-116566628D01*
X77196834Y-116697543D01*
X77176353Y-116840000D01*
X70788599Y-116840000D01*
X70715799Y-116740713D01*
X70715781Y-116740687D01*
X70712696Y-116736282D01*
X70594544Y-116559456D01*
X70591646Y-116554906D01*
X70481339Y-116373124D01*
X70478634Y-116368440D01*
X70376356Y-116182013D01*
X70373858Y-116177214D01*
X70279821Y-115986525D01*
X70277534Y-115981622D01*
X70191885Y-115786971D01*
X70189815Y-115781972D01*
X70112745Y-115583787D01*
X70110909Y-115578744D01*
X70042542Y-115377339D01*
X70040930Y-115372224D01*
X70040930Y-115372223D01*
X69981412Y-115168026D01*
X69980027Y-115162858D01*
X69929485Y-114956308D01*
X69928315Y-114951029D01*
X69886833Y-114742482D01*
X69885893Y-114737154D01*
X69877423Y-114682126D01*
X69853546Y-114526992D01*
X69852840Y-114521629D01*
X69829534Y-114308818D01*
X69829287Y-114306312D01*
X69819985Y-114199999D01*
X69819814Y-114197799D01*
X69812618Y-114092413D01*
X69812391Y-114087768D01*
X69809225Y-113982274D01*
X69809177Y-113979947D01*
X69808297Y-113899266D01*
X69808294Y-113898928D01*
X69808077Y-113872396D01*
X69808073Y-113871717D01*
X69808000Y-113844731D01*
X69808000Y-108458000D01*
X156932353Y-108458000D01*
X156952834Y-108600456D01*
X157012622Y-108731371D01*
X157012623Y-108731373D01*
X157106872Y-108840143D01*
X157227947Y-108917953D01*
X157227950Y-108917954D01*
X157227949Y-108917954D01*
X157366036Y-108958499D01*
X157366038Y-108958500D01*
X157366039Y-108958500D01*
X157509962Y-108958500D01*
X157509962Y-108958499D01*
X157648053Y-108917953D01*
X157769128Y-108840143D01*
X157863377Y-108731373D01*
X157923165Y-108600457D01*
X157943647Y-108458000D01*
X157923165Y-108315543D01*
X157863377Y-108184627D01*
X157769128Y-108075857D01*
X157648053Y-107998047D01*
X157648051Y-107998046D01*
X157648049Y-107998045D01*
X157648050Y-107998045D01*
X157509963Y-107957500D01*
X157509961Y-107957500D01*
X157366039Y-107957500D01*
X157366036Y-107957500D01*
X157227949Y-107998045D01*
X157106873Y-108075856D01*
X157012623Y-108184626D01*
X157012622Y-108184628D01*
X156952834Y-108315543D01*
X156932353Y-108458000D01*
X69808000Y-108458000D01*
X69808000Y-89024000D01*
X69827685Y-88956961D01*
X69880489Y-88911206D01*
X69932000Y-88900000D01*
X71332000Y-88900000D01*
X71332000Y-88655555D01*
X71351685Y-88588516D01*
X71404489Y-88542761D01*
X71473647Y-88532817D01*
X71537203Y-88561842D01*
G37*
%TD.AperFunction*%
%TA.AperFunction,Conductor*%
G36*
X94053518Y-68891685D02*
G01*
X94099273Y-68944489D01*
X94109217Y-69013647D01*
X94102661Y-69039333D01*
X94078908Y-69103016D01*
X94076268Y-69127578D01*
X94072501Y-69162623D01*
X94072500Y-69162635D01*
X94072500Y-72858370D01*
X94072501Y-72858376D01*
X94078908Y-72917983D01*
X94129202Y-73052828D01*
X94129206Y-73052835D01*
X94215452Y-73168044D01*
X94215455Y-73168047D01*
X94330664Y-73254293D01*
X94330671Y-73254297D01*
X94375618Y-73271061D01*
X94465517Y-73304591D01*
X94525127Y-73311000D01*
X94877217Y-73310999D01*
X94944256Y-73330683D01*
X94964898Y-73347318D01*
X96124489Y-74506909D01*
X96157974Y-74568232D01*
X96159546Y-74612236D01*
X96142152Y-74733219D01*
X96162633Y-74875676D01*
X96222420Y-75006590D01*
X96222421Y-75006591D01*
X96222422Y-75006593D01*
X96260041Y-75053276D01*
X96260044Y-75053279D01*
X96260049Y-75053285D01*
X96678427Y-75471661D01*
X96805040Y-75598274D01*
X96805044Y-75598277D01*
X96835482Y-75622807D01*
X96854223Y-75641549D01*
X96878745Y-75671978D01*
X96878756Y-75671991D01*
X96878759Y-75671994D01*
X97423758Y-76216992D01*
X97470441Y-76254612D01*
X97601357Y-76314400D01*
X97601356Y-76314400D01*
X97621838Y-76317344D01*
X97743814Y-76334882D01*
X97864798Y-76317487D01*
X97933954Y-76327431D01*
X97970123Y-76352543D01*
X98455360Y-76837781D01*
X98455361Y-76837782D01*
X98527764Y-76910185D01*
X98594719Y-76977140D01*
X98752959Y-77082872D01*
X98758586Y-77086632D01*
X98835470Y-77118478D01*
X98940664Y-77162051D01*
X99133954Y-77200499D01*
X99133957Y-77200500D01*
X99133959Y-77200500D01*
X100189459Y-77200500D01*
X100951459Y-77200500D01*
X103681500Y-77200500D01*
X103748539Y-77220185D01*
X103794294Y-77272989D01*
X103805500Y-77324500D01*
X103805500Y-77694001D01*
X103805501Y-77694019D01*
X103816000Y-77796796D01*
X103816001Y-77796799D01*
X103871185Y-77963331D01*
X103871187Y-77963336D01*
X103875619Y-77970521D01*
X103963288Y-78112656D01*
X104087344Y-78236712D01*
X104236666Y-78328814D01*
X104403203Y-78383999D01*
X104505991Y-78394500D01*
X105806008Y-78394499D01*
X105908797Y-78383999D01*
X106075334Y-78328814D01*
X106224656Y-78236712D01*
X106348712Y-78112656D01*
X106440814Y-77963334D01*
X106495999Y-77796797D01*
X106498689Y-77770464D01*
X106525085Y-77705773D01*
X106582265Y-77665622D01*
X106652076Y-77662758D01*
X106709728Y-77695386D01*
X106731811Y-77717469D01*
X106731813Y-77717470D01*
X106731815Y-77717472D01*
X106877394Y-77805478D01*
X107039804Y-77856086D01*
X107110384Y-77862500D01*
X107110387Y-77862500D01*
X107773613Y-77862500D01*
X107773616Y-77862500D01*
X107844196Y-77856086D01*
X108006606Y-77805478D01*
X108152185Y-77717472D01*
X108272472Y-77597185D01*
X108360478Y-77451606D01*
X108411086Y-77289196D01*
X108411086Y-77289191D01*
X108411579Y-77287611D01*
X108450316Y-77229463D01*
X108514342Y-77201488D01*
X108529965Y-77200500D01*
X109255543Y-77200500D01*
X109331551Y-77185380D01*
X109369243Y-77177882D01*
X109393434Y-77175500D01*
X109413613Y-77175500D01*
X109413616Y-77175500D01*
X109484196Y-77169086D01*
X109646606Y-77118478D01*
X109792185Y-77030472D01*
X109828323Y-76994334D01*
X109894319Y-76928339D01*
X109955642Y-76894854D01*
X110025334Y-76899838D01*
X110069681Y-76928339D01*
X110171811Y-77030469D01*
X110171813Y-77030470D01*
X110171815Y-77030472D01*
X110317394Y-77118478D01*
X110479804Y-77169086D01*
X110550384Y-77175500D01*
X110570566Y-77175500D01*
X110594756Y-77177882D01*
X110623006Y-77183502D01*
X110708456Y-77200500D01*
X110708459Y-77200500D01*
X111180035Y-77200500D01*
X111247074Y-77220185D01*
X111292829Y-77272989D01*
X111298421Y-77287611D01*
X111298913Y-77289191D01*
X111298914Y-77289196D01*
X111349522Y-77451606D01*
X111387724Y-77514799D01*
X111437530Y-77597188D01*
X111557811Y-77717469D01*
X111557813Y-77717470D01*
X111557815Y-77717472D01*
X111703394Y-77805478D01*
X111865804Y-77856086D01*
X111936384Y-77862500D01*
X111936387Y-77862500D01*
X112599613Y-77862500D01*
X112599616Y-77862500D01*
X112670196Y-77856086D01*
X112832606Y-77805478D01*
X112978185Y-77717472D01*
X113098472Y-77597185D01*
X113186478Y-77451606D01*
X113215116Y-77359701D01*
X113253853Y-77301555D01*
X113317878Y-77273580D01*
X113386863Y-77284661D01*
X113438906Y-77331279D01*
X113457501Y-77396592D01*
X113457501Y-77412018D01*
X113468000Y-77514796D01*
X113468001Y-77514799D01*
X113520217Y-77672375D01*
X113523186Y-77681334D01*
X113615288Y-77830656D01*
X113739344Y-77954712D01*
X113888666Y-78046814D01*
X114055203Y-78101999D01*
X114157991Y-78112500D01*
X115458008Y-78112499D01*
X115560797Y-78101999D01*
X115727334Y-78046814D01*
X115876656Y-77954712D01*
X116000712Y-77830656D01*
X116092814Y-77681334D01*
X116147999Y-77514797D01*
X116158500Y-77412009D01*
X116158500Y-77324500D01*
X116178185Y-77257461D01*
X116230989Y-77211706D01*
X116282500Y-77200500D01*
X117129543Y-77200500D01*
X117205551Y-77185380D01*
X117243243Y-77177882D01*
X117267434Y-77175500D01*
X117287613Y-77175500D01*
X117287616Y-77175500D01*
X117358196Y-77169086D01*
X117520606Y-77118478D01*
X117666185Y-77030472D01*
X117702323Y-76994334D01*
X117768319Y-76928339D01*
X117829642Y-76894854D01*
X117899334Y-76899838D01*
X117943681Y-76928339D01*
X118045811Y-77030469D01*
X118045813Y-77030470D01*
X118045815Y-77030472D01*
X118191394Y-77118478D01*
X118353804Y-77169086D01*
X118424384Y-77175500D01*
X118444566Y-77175500D01*
X118468756Y-77177882D01*
X118497006Y-77183502D01*
X118582456Y-77200500D01*
X118582459Y-77200500D01*
X119740620Y-77200500D01*
X119804769Y-77218383D01*
X119809924Y-77221499D01*
X119831394Y-77234478D01*
X119993804Y-77285086D01*
X120064384Y-77291500D01*
X120064387Y-77291500D01*
X120727613Y-77291500D01*
X120727616Y-77291500D01*
X120798196Y-77285086D01*
X120960606Y-77234478D01*
X120982076Y-77221499D01*
X120987231Y-77218383D01*
X121051380Y-77200500D01*
X121468771Y-77200500D01*
X121535810Y-77220185D01*
X121556452Y-77236819D01*
X121587345Y-77267712D01*
X121736667Y-77359814D01*
X121903204Y-77414999D01*
X122005992Y-77425500D01*
X122606009Y-77425499D01*
X122606017Y-77425498D01*
X122606020Y-77425498D01*
X122662303Y-77419748D01*
X122708798Y-77414999D01*
X122875335Y-77359814D01*
X123024657Y-77267712D01*
X123148713Y-77143656D01*
X123150462Y-77140819D01*
X123152170Y-77139283D01*
X123153194Y-77137989D01*
X123153415Y-77138163D01*
X123202407Y-77094096D01*
X123271369Y-77082872D01*
X123335452Y-77110713D01*
X123361538Y-77140817D01*
X123363289Y-77143656D01*
X123487345Y-77267712D01*
X123636667Y-77359814D01*
X123803204Y-77414999D01*
X123905992Y-77425500D01*
X124506009Y-77425499D01*
X124506017Y-77425498D01*
X124506020Y-77425498D01*
X124562303Y-77419748D01*
X124608798Y-77414999D01*
X124775335Y-77359814D01*
X124924657Y-77267712D01*
X124955550Y-77236819D01*
X125016873Y-77203334D01*
X125043231Y-77200500D01*
X126105027Y-77200500D01*
X126148360Y-77208318D01*
X126166517Y-77215090D01*
X126166516Y-77215090D01*
X126173444Y-77215834D01*
X126226127Y-77221499D01*
X130821872Y-77221498D01*
X130881483Y-77215090D01*
X130899640Y-77208318D01*
X130942973Y-77200500D01*
X131562770Y-77200500D01*
X131629809Y-77220185D01*
X131650451Y-77236819D01*
X131681344Y-77267712D01*
X131830666Y-77359814D01*
X131997203Y-77414999D01*
X132099991Y-77425500D01*
X132700008Y-77425499D01*
X132700016Y-77425498D01*
X132700019Y-77425498D01*
X132756302Y-77419748D01*
X132802797Y-77414999D01*
X132969334Y-77359814D01*
X133118656Y-77267712D01*
X133242712Y-77143656D01*
X133244461Y-77140819D01*
X133246169Y-77139283D01*
X133247193Y-77137989D01*
X133247414Y-77138163D01*
X133296406Y-77094096D01*
X133365368Y-77082872D01*
X133429451Y-77110713D01*
X133455537Y-77140817D01*
X133457288Y-77143656D01*
X133581344Y-77267712D01*
X133730666Y-77359814D01*
X133897203Y-77414999D01*
X133999991Y-77425500D01*
X134600008Y-77425499D01*
X134600016Y-77425498D01*
X134600019Y-77425498D01*
X134656302Y-77419748D01*
X134702797Y-77414999D01*
X134869334Y-77359814D01*
X135018656Y-77267712D01*
X135018658Y-77267709D01*
X135024614Y-77264036D01*
X135092007Y-77245596D01*
X135158670Y-77266519D01*
X135203440Y-77320161D01*
X135208096Y-77332685D01*
X135225520Y-77388602D01*
X135225521Y-77388604D01*
X135225522Y-77388606D01*
X135301809Y-77514799D01*
X135313530Y-77534188D01*
X135433811Y-77654469D01*
X135433813Y-77654470D01*
X135433815Y-77654472D01*
X135579394Y-77742478D01*
X135611211Y-77752392D01*
X135643210Y-77767674D01*
X135670086Y-77785632D01*
X135670088Y-77785632D01*
X135670092Y-77785635D01*
X135797451Y-77838388D01*
X135852165Y-77861051D01*
X135852169Y-77861051D01*
X135852170Y-77861052D01*
X136045456Y-77899500D01*
X136045459Y-77899500D01*
X136242543Y-77899500D01*
X136428550Y-77862500D01*
X136435835Y-77861051D01*
X136617914Y-77785632D01*
X136644788Y-77767674D01*
X136676786Y-77752392D01*
X136708606Y-77742478D01*
X136854185Y-77654472D01*
X136974472Y-77534185D01*
X137062478Y-77388606D01*
X137093949Y-77287609D01*
X137132685Y-77229463D01*
X137196710Y-77201488D01*
X137212334Y-77200500D01*
X137957543Y-77200500D01*
X138033551Y-77185380D01*
X138071243Y-77177882D01*
X138095434Y-77175500D01*
X138115613Y-77175500D01*
X138115616Y-77175500D01*
X138186196Y-77169086D01*
X138348606Y-77118478D01*
X138494185Y-77030472D01*
X138530323Y-76994334D01*
X138596319Y-76928339D01*
X138657642Y-76894854D01*
X138727334Y-76899838D01*
X138771681Y-76928339D01*
X138873811Y-77030469D01*
X138873813Y-77030470D01*
X138873815Y-77030472D01*
X139019394Y-77118478D01*
X139181804Y-77169086D01*
X139252384Y-77175500D01*
X139272566Y-77175500D01*
X139296756Y-77177882D01*
X139325006Y-77183502D01*
X139410456Y-77200500D01*
X139410459Y-77200500D01*
X140155666Y-77200500D01*
X140222705Y-77220185D01*
X140268460Y-77272989D01*
X140274048Y-77287601D01*
X140305522Y-77388606D01*
X140381809Y-77514799D01*
X140393530Y-77534188D01*
X140513811Y-77654469D01*
X140513813Y-77654470D01*
X140513815Y-77654472D01*
X140659394Y-77742478D01*
X140691211Y-77752392D01*
X140723210Y-77767674D01*
X140750086Y-77785632D01*
X140750088Y-77785632D01*
X140750092Y-77785635D01*
X140877451Y-77838388D01*
X140932165Y-77861051D01*
X140932169Y-77861051D01*
X140932170Y-77861052D01*
X141125456Y-77899500D01*
X141125459Y-77899500D01*
X141322543Y-77899500D01*
X141508550Y-77862500D01*
X141515835Y-77861051D01*
X141697914Y-77785632D01*
X141724788Y-77767674D01*
X141756786Y-77752392D01*
X141788606Y-77742478D01*
X141934185Y-77654472D01*
X142054472Y-77534185D01*
X142142478Y-77388606D01*
X142173949Y-77287609D01*
X142212685Y-77229463D01*
X142276710Y-77201488D01*
X142292334Y-77200500D01*
X144666218Y-77200500D01*
X144733257Y-77220185D01*
X144753899Y-77236819D01*
X145128132Y-77611052D01*
X145161617Y-77672375D01*
X145161108Y-77727330D01*
X145145053Y-77795070D01*
X145145053Y-77970510D01*
X145145054Y-77970521D01*
X145185513Y-78141225D01*
X145185513Y-78141226D01*
X145264249Y-78298002D01*
X145264252Y-78298007D01*
X145329509Y-78378115D01*
X145859851Y-78908456D01*
X145911703Y-78950696D01*
X145939956Y-78973712D01*
X145939964Y-78973717D01*
X146019797Y-79013810D01*
X146096740Y-79052452D01*
X146267452Y-79092913D01*
X146267455Y-79092913D01*
X146442891Y-79092913D01*
X146442894Y-79092913D01*
X146613607Y-79052452D01*
X146770388Y-78973714D01*
X146850495Y-78908457D01*
X147840456Y-77918495D01*
X147905714Y-77838388D01*
X147984452Y-77681607D01*
X148024913Y-77510894D01*
X148024913Y-77335452D01*
X147984452Y-77164740D01*
X147984452Y-77164739D01*
X147905716Y-77007963D01*
X147905714Y-77007959D01*
X147840457Y-76927851D01*
X147310115Y-76397510D01*
X147254917Y-76352544D01*
X147230009Y-76332253D01*
X147230001Y-76332248D01*
X147073225Y-76253513D01*
X146902521Y-76213054D01*
X146902516Y-76213053D01*
X146902514Y-76213053D01*
X146727072Y-76213053D01*
X146727071Y-76213053D01*
X146659330Y-76229108D01*
X146589558Y-76225415D01*
X146543052Y-76196132D01*
X145916209Y-75569289D01*
X145916206Y-75569285D01*
X145916206Y-75569286D01*
X145909139Y-75562219D01*
X145909139Y-75562218D01*
X145769782Y-75422861D01*
X145769781Y-75422860D01*
X145769780Y-75422859D01*
X145605920Y-75313371D01*
X145605907Y-75313364D01*
X145468245Y-75256344D01*
X145423836Y-75237949D01*
X145423828Y-75237947D01*
X145327188Y-75218724D01*
X145230544Y-75199500D01*
X145230541Y-75199500D01*
X142292334Y-75199500D01*
X142225295Y-75179815D01*
X142179540Y-75127011D01*
X142173951Y-75112398D01*
X142142478Y-75011394D01*
X142054472Y-74865815D01*
X142054470Y-74865813D01*
X142054469Y-74865811D01*
X141934188Y-74745530D01*
X141913825Y-74733220D01*
X141788606Y-74657522D01*
X141788600Y-74657520D01*
X141756786Y-74647606D01*
X141724787Y-74632324D01*
X141697917Y-74614370D01*
X141697916Y-74614369D01*
X141697914Y-74614368D01*
X141697911Y-74614366D01*
X141697906Y-74614364D01*
X141515839Y-74538950D01*
X141515829Y-74538947D01*
X141322543Y-74500500D01*
X141322541Y-74500500D01*
X141125459Y-74500500D01*
X141125457Y-74500500D01*
X140932170Y-74538947D01*
X140932160Y-74538950D01*
X140750091Y-74614365D01*
X140750087Y-74614367D01*
X140750086Y-74614368D01*
X140723207Y-74632327D01*
X140691213Y-74647606D01*
X140659400Y-74657519D01*
X140659396Y-74657520D01*
X140513811Y-74745530D01*
X140393530Y-74865811D01*
X140319670Y-74987991D01*
X140305522Y-75011394D01*
X140274050Y-75112390D01*
X140235315Y-75170537D01*
X140171290Y-75198512D01*
X140155666Y-75199500D01*
X139410457Y-75199500D01*
X139334448Y-75214619D01*
X139296756Y-75222117D01*
X139272566Y-75224500D01*
X139252384Y-75224500D01*
X139233145Y-75226248D01*
X139181807Y-75230913D01*
X139019393Y-75281522D01*
X138873811Y-75369530D01*
X138873810Y-75369531D01*
X138771681Y-75471661D01*
X138710358Y-75505146D01*
X138640666Y-75500162D01*
X138596319Y-75471661D01*
X138494188Y-75369530D01*
X138348606Y-75281522D01*
X138186196Y-75230914D01*
X138186194Y-75230913D01*
X138186192Y-75230913D01*
X138136778Y-75226423D01*
X138115616Y-75224500D01*
X138115613Y-75224500D01*
X138095434Y-75224500D01*
X138071243Y-75222117D01*
X138033551Y-75214619D01*
X137957543Y-75199500D01*
X137957541Y-75199500D01*
X137212334Y-75199500D01*
X137145295Y-75179815D01*
X137099540Y-75127011D01*
X137093951Y-75112398D01*
X137062478Y-75011394D01*
X136974472Y-74865815D01*
X136974470Y-74865813D01*
X136974469Y-74865811D01*
X136854188Y-74745530D01*
X136833825Y-74733220D01*
X136708606Y-74657522D01*
X136708600Y-74657520D01*
X136676786Y-74647606D01*
X136644787Y-74632324D01*
X136617917Y-74614370D01*
X136617916Y-74614369D01*
X136617914Y-74614368D01*
X136617911Y-74614366D01*
X136617906Y-74614364D01*
X136435839Y-74538950D01*
X136435829Y-74538947D01*
X136242543Y-74500500D01*
X136242541Y-74500500D01*
X136045459Y-74500500D01*
X136045457Y-74500500D01*
X135852170Y-74538947D01*
X135852160Y-74538950D01*
X135670091Y-74614365D01*
X135670087Y-74614367D01*
X135670086Y-74614368D01*
X135643207Y-74632327D01*
X135611213Y-74647606D01*
X135579400Y-74657519D01*
X135579396Y-74657520D01*
X135433811Y-74745530D01*
X135313530Y-74865811D01*
X135254857Y-74962867D01*
X135228425Y-75006593D01*
X135225521Y-75011396D01*
X135208096Y-75067315D01*
X135169358Y-75125462D01*
X135105333Y-75153436D01*
X135036348Y-75142354D01*
X135024615Y-75135963D01*
X134869340Y-75040189D01*
X134869335Y-75040187D01*
X134869334Y-75040186D01*
X134702797Y-74985001D01*
X134702795Y-74985000D01*
X134600010Y-74974500D01*
X133999998Y-74974500D01*
X133999980Y-74974501D01*
X133897203Y-74985000D01*
X133897200Y-74985001D01*
X133730668Y-75040185D01*
X133730663Y-75040187D01*
X133581342Y-75132289D01*
X133457288Y-75256343D01*
X133457288Y-75256344D01*
X133455537Y-75259182D01*
X133453829Y-75260717D01*
X133452807Y-75262011D01*
X133452585Y-75261836D01*
X133403589Y-75305905D01*
X133334626Y-75317126D01*
X133270544Y-75289282D01*
X133244463Y-75259182D01*
X133242712Y-75256344D01*
X133118657Y-75132289D01*
X133118656Y-75132288D01*
X132990571Y-75053285D01*
X132969336Y-75040187D01*
X132969331Y-75040185D01*
X132967862Y-75039698D01*
X132802797Y-74985001D01*
X132802795Y-74985000D01*
X132700010Y-74974500D01*
X132099998Y-74974500D01*
X132099980Y-74974501D01*
X131997203Y-74985000D01*
X131997200Y-74985001D01*
X131830668Y-75040185D01*
X131830663Y-75040187D01*
X131681342Y-75132289D01*
X131650451Y-75163181D01*
X131589128Y-75196666D01*
X131562770Y-75199500D01*
X131394094Y-75199500D01*
X131327055Y-75179815D01*
X131281300Y-75127011D01*
X131270804Y-75088753D01*
X131268091Y-75063515D01*
X131217797Y-74928670D01*
X131217793Y-74928663D01*
X131131547Y-74813454D01*
X131131544Y-74813451D01*
X131016335Y-74727205D01*
X131016328Y-74727201D01*
X130881482Y-74676907D01*
X130881483Y-74676907D01*
X130821883Y-74670500D01*
X130821881Y-74670499D01*
X130821873Y-74670499D01*
X130821864Y-74670499D01*
X126226129Y-74670499D01*
X126226123Y-74670500D01*
X126166516Y-74676907D01*
X126031671Y-74727201D01*
X126031664Y-74727205D01*
X125916455Y-74813451D01*
X125916452Y-74813454D01*
X125830206Y-74928663D01*
X125830202Y-74928670D01*
X125779908Y-75063515D01*
X125777195Y-75088756D01*
X125750457Y-75153307D01*
X125693064Y-75193155D01*
X125653906Y-75199500D01*
X125043231Y-75199500D01*
X124976192Y-75179815D01*
X124955550Y-75163181D01*
X124924658Y-75132289D01*
X124924657Y-75132288D01*
X124796572Y-75053285D01*
X124775337Y-75040187D01*
X124775332Y-75040185D01*
X124773863Y-75039698D01*
X124608798Y-74985001D01*
X124608796Y-74985000D01*
X124506011Y-74974500D01*
X123905999Y-74974500D01*
X123905981Y-74974501D01*
X123803204Y-74985000D01*
X123803201Y-74985001D01*
X123636669Y-75040185D01*
X123636664Y-75040187D01*
X123487343Y-75132289D01*
X123363289Y-75256343D01*
X123363289Y-75256344D01*
X123361538Y-75259182D01*
X123359830Y-75260717D01*
X123358808Y-75262011D01*
X123358586Y-75261836D01*
X123309590Y-75305905D01*
X123240627Y-75317126D01*
X123176545Y-75289282D01*
X123150464Y-75259182D01*
X123148713Y-75256344D01*
X123024658Y-75132289D01*
X123024657Y-75132288D01*
X122896572Y-75053285D01*
X122875337Y-75040187D01*
X122875332Y-75040185D01*
X122873863Y-75039698D01*
X122708798Y-74985001D01*
X122708796Y-74985000D01*
X122606011Y-74974500D01*
X122005999Y-74974500D01*
X122005981Y-74974501D01*
X121903204Y-74985000D01*
X121903201Y-74985001D01*
X121736669Y-75040185D01*
X121736664Y-75040187D01*
X121587343Y-75132289D01*
X121556452Y-75163181D01*
X121495129Y-75196666D01*
X121468771Y-75199500D01*
X118582457Y-75199500D01*
X118506448Y-75214619D01*
X118468756Y-75222117D01*
X118444566Y-75224500D01*
X118424384Y-75224500D01*
X118405145Y-75226248D01*
X118353807Y-75230913D01*
X118191393Y-75281522D01*
X118045811Y-75369530D01*
X118045810Y-75369531D01*
X117943681Y-75471661D01*
X117882358Y-75505146D01*
X117812666Y-75500162D01*
X117768319Y-75471661D01*
X117666188Y-75369530D01*
X117520606Y-75281522D01*
X117358196Y-75230914D01*
X117358194Y-75230913D01*
X117358192Y-75230913D01*
X117308778Y-75226423D01*
X117287616Y-75224500D01*
X117287613Y-75224500D01*
X117267434Y-75224500D01*
X117243243Y-75222117D01*
X117205551Y-75214619D01*
X117129543Y-75199500D01*
X117129541Y-75199500D01*
X116282500Y-75199500D01*
X116215461Y-75179815D01*
X116169706Y-75127011D01*
X116158500Y-75075500D01*
X116158499Y-74677998D01*
X116158498Y-74677980D01*
X116147999Y-74575203D01*
X116147998Y-74575200D01*
X116092814Y-74408666D01*
X116000712Y-74259344D01*
X115876656Y-74135288D01*
X115727334Y-74043186D01*
X115560797Y-73988001D01*
X115560795Y-73988000D01*
X115458010Y-73977500D01*
X114157998Y-73977500D01*
X114157981Y-73977501D01*
X114055203Y-73988000D01*
X114055200Y-73988001D01*
X113888668Y-74043185D01*
X113888663Y-74043187D01*
X113739342Y-74135289D01*
X113615289Y-74259342D01*
X113523187Y-74408663D01*
X113523185Y-74408668D01*
X113511050Y-74445289D01*
X113468001Y-74575203D01*
X113468001Y-74575204D01*
X113468000Y-74575204D01*
X113457500Y-74677983D01*
X113457500Y-75066406D01*
X113437815Y-75133445D01*
X113385011Y-75179200D01*
X113315853Y-75189144D01*
X113252297Y-75160119D01*
X113215115Y-75103297D01*
X113186478Y-75011394D01*
X113098472Y-74865815D01*
X113098470Y-74865813D01*
X113098469Y-74865811D01*
X112978188Y-74745530D01*
X112957823Y-74733219D01*
X112832606Y-74657522D01*
X112670196Y-74606914D01*
X112670194Y-74606913D01*
X112670192Y-74606913D01*
X112620778Y-74602423D01*
X112599616Y-74600500D01*
X111936384Y-74600500D01*
X111917145Y-74602248D01*
X111865807Y-74606913D01*
X111703393Y-74657522D01*
X111557811Y-74745530D01*
X111437530Y-74865811D01*
X111363670Y-74987991D01*
X111349522Y-75011394D01*
X111318050Y-75112390D01*
X111279315Y-75170537D01*
X111215290Y-75198512D01*
X111199666Y-75199500D01*
X110708457Y-75199500D01*
X110632448Y-75214619D01*
X110594756Y-75222117D01*
X110570566Y-75224500D01*
X110550384Y-75224500D01*
X110531145Y-75226248D01*
X110479807Y-75230913D01*
X110317393Y-75281522D01*
X110171811Y-75369530D01*
X110171810Y-75369531D01*
X110069681Y-75471661D01*
X110008358Y-75505146D01*
X109938666Y-75500162D01*
X109894319Y-75471661D01*
X109792188Y-75369530D01*
X109646606Y-75281522D01*
X109484196Y-75230914D01*
X109484194Y-75230913D01*
X109484192Y-75230913D01*
X109434778Y-75226423D01*
X109413616Y-75224500D01*
X109413613Y-75224500D01*
X109393434Y-75224500D01*
X109369243Y-75222117D01*
X109331551Y-75214619D01*
X109255543Y-75199500D01*
X109255541Y-75199500D01*
X108510334Y-75199500D01*
X108443295Y-75179815D01*
X108397540Y-75127011D01*
X108391951Y-75112398D01*
X108360478Y-75011394D01*
X108272472Y-74865815D01*
X108272470Y-74865813D01*
X108272469Y-74865811D01*
X108152188Y-74745530D01*
X108131823Y-74733219D01*
X108006606Y-74657522D01*
X107844196Y-74606914D01*
X107844194Y-74606913D01*
X107844192Y-74606913D01*
X107794778Y-74602423D01*
X107773616Y-74600500D01*
X107110384Y-74600500D01*
X107091145Y-74602248D01*
X107039807Y-74606913D01*
X106877393Y-74657522D01*
X106731813Y-74745529D01*
X106662079Y-74815263D01*
X106600755Y-74848747D01*
X106531064Y-74843762D01*
X106475130Y-74801891D01*
X106456692Y-74766584D01*
X106449715Y-74745530D01*
X106440814Y-74718666D01*
X106348712Y-74569344D01*
X106224656Y-74445288D01*
X106075334Y-74353186D01*
X105908797Y-74298001D01*
X105908795Y-74298000D01*
X105806010Y-74287500D01*
X104505998Y-74287500D01*
X104505981Y-74287501D01*
X104403203Y-74298000D01*
X104403200Y-74298001D01*
X104236668Y-74353185D01*
X104236663Y-74353187D01*
X104087342Y-74445289D01*
X103963289Y-74569342D01*
X103871187Y-74718663D01*
X103871185Y-74718668D01*
X103843608Y-74801891D01*
X103816001Y-74885203D01*
X103816001Y-74885204D01*
X103816000Y-74885204D01*
X103805500Y-74987983D01*
X103805500Y-75075500D01*
X103785815Y-75142539D01*
X103733011Y-75188294D01*
X103681500Y-75199500D01*
X99698283Y-75199500D01*
X99631244Y-75179815D01*
X99610602Y-75163181D01*
X98893460Y-74446040D01*
X98893458Y-74446037D01*
X98258459Y-73811039D01*
X98258457Y-73811036D01*
X96379818Y-71932397D01*
X96346333Y-71871074D01*
X96343499Y-71844716D01*
X96343499Y-70866000D01*
X149058353Y-70866000D01*
X149078834Y-71008456D01*
X149138622Y-71139371D01*
X149138623Y-71139373D01*
X149232872Y-71248143D01*
X149353947Y-71325953D01*
X149353950Y-71325954D01*
X149353949Y-71325954D01*
X149492036Y-71366499D01*
X149492038Y-71366500D01*
X149492039Y-71366500D01*
X149635962Y-71366500D01*
X149635962Y-71366499D01*
X149774053Y-71325953D01*
X149895128Y-71248143D01*
X149989377Y-71139373D01*
X150049165Y-71008457D01*
X150069647Y-70866000D01*
X150049165Y-70723543D01*
X149989377Y-70592627D01*
X149895128Y-70483857D01*
X149774053Y-70406047D01*
X149774051Y-70406046D01*
X149774049Y-70406045D01*
X149774050Y-70406045D01*
X149635963Y-70365500D01*
X149635961Y-70365500D01*
X149492039Y-70365500D01*
X149492036Y-70365500D01*
X149353949Y-70406045D01*
X149232873Y-70483856D01*
X149138623Y-70592626D01*
X149138622Y-70592628D01*
X149078834Y-70723543D01*
X149058353Y-70866000D01*
X96343499Y-70866000D01*
X96343499Y-69162629D01*
X96343498Y-69162623D01*
X96343497Y-69162616D01*
X96337091Y-69103017D01*
X96315606Y-69045412D01*
X96313339Y-69039333D01*
X96308355Y-68969641D01*
X96341841Y-68908318D01*
X96403164Y-68874834D01*
X96429521Y-68872000D01*
X154780730Y-68872000D01*
X154781354Y-68872001D01*
X154807787Y-68872073D01*
X154808300Y-68872076D01*
X154835266Y-68872297D01*
X154915990Y-68873177D01*
X154918272Y-68873225D01*
X155023767Y-68876391D01*
X155028412Y-68876618D01*
X155133798Y-68883814D01*
X155135998Y-68883985D01*
X155242311Y-68893287D01*
X155244817Y-68893534D01*
X155457631Y-68916840D01*
X155462992Y-68917546D01*
X155673170Y-68949895D01*
X155678493Y-68950835D01*
X155887029Y-68992315D01*
X155892308Y-68993485D01*
X156098858Y-69044027D01*
X156104025Y-69045412D01*
X156301656Y-69103016D01*
X156308223Y-69104930D01*
X156313366Y-69106551D01*
X156375308Y-69127578D01*
X156514744Y-69174911D01*
X156519827Y-69176761D01*
X156717972Y-69253815D01*
X156722963Y-69255882D01*
X156917622Y-69341534D01*
X156917632Y-69341538D01*
X156922534Y-69343825D01*
X157113204Y-69437852D01*
X157118004Y-69440350D01*
X157304429Y-69542627D01*
X157309114Y-69545332D01*
X157309126Y-69545339D01*
X157490921Y-69655655D01*
X157495469Y-69658553D01*
X157672273Y-69776689D01*
X157676687Y-69779779D01*
X157848174Y-69905519D01*
X157852435Y-69908787D01*
X158018324Y-70041927D01*
X158022438Y-70045381D01*
X158128170Y-70138104D01*
X158182305Y-70185580D01*
X158186293Y-70189235D01*
X158339896Y-70336277D01*
X158343722Y-70340103D01*
X158490764Y-70493706D01*
X158494419Y-70497694D01*
X158601240Y-70619500D01*
X158634607Y-70657547D01*
X158638076Y-70661680D01*
X158687726Y-70723543D01*
X158771198Y-70827546D01*
X158774482Y-70831828D01*
X158799539Y-70866000D01*
X158900201Y-71003286D01*
X158903297Y-71007708D01*
X158978329Y-71120000D01*
X159021446Y-71184529D01*
X159024353Y-71189092D01*
X159134667Y-71370885D01*
X159137372Y-71375570D01*
X159239644Y-71561986D01*
X159242142Y-71566785D01*
X159336183Y-71757482D01*
X159338470Y-71762386D01*
X159424111Y-71957021D01*
X159426181Y-71962019D01*
X159503238Y-72160172D01*
X159505088Y-72165255D01*
X159573442Y-72366616D01*
X159575069Y-72371776D01*
X159634950Y-72577214D01*
X159635679Y-72579820D01*
X159667467Y-72698457D01*
X159668139Y-72701078D01*
X159689186Y-72787092D01*
X159690356Y-72792372D01*
X159707110Y-72876597D01*
X159708432Y-72884603D01*
X159719261Y-72966854D01*
X159720204Y-72977631D01*
X159723882Y-73061872D01*
X159724000Y-73067281D01*
X159724000Y-82680000D01*
X159704315Y-82747039D01*
X159651511Y-82792794D01*
X159600000Y-82804000D01*
X158200000Y-82804000D01*
X158200000Y-83048444D01*
X158180315Y-83115483D01*
X158127511Y-83161238D01*
X158058353Y-83171182D01*
X157994797Y-83142157D01*
X157976733Y-83122755D01*
X157964937Y-83106998D01*
X157913739Y-83038605D01*
X157913734Y-83038600D01*
X157913729Y-83038594D01*
X157711405Y-82836270D01*
X157711387Y-82836254D01*
X157482317Y-82664775D01*
X157482309Y-82664770D01*
X157231166Y-82527635D01*
X157231167Y-82527635D01*
X157123915Y-82487632D01*
X156963046Y-82427631D01*
X156963043Y-82427630D01*
X156963037Y-82427628D01*
X156683433Y-82366804D01*
X156469450Y-82351500D01*
X156469448Y-82351500D01*
X153326552Y-82351500D01*
X153326549Y-82351500D01*
X153112566Y-82366804D01*
X152832962Y-82427628D01*
X152564833Y-82527635D01*
X152313690Y-82664770D01*
X152313682Y-82664775D01*
X152084612Y-82836254D01*
X152084594Y-82836270D01*
X151882270Y-83038594D01*
X151882254Y-83038612D01*
X151710775Y-83267682D01*
X151710770Y-83267690D01*
X151573635Y-83518833D01*
X151473629Y-83786959D01*
X151463357Y-83834178D01*
X151429870Y-83895500D01*
X151374286Y-83927591D01*
X151277219Y-83953601D01*
X151226589Y-83974572D01*
X151208510Y-83982061D01*
X151161059Y-83991500D01*
X150622798Y-83991500D01*
X150582795Y-83982631D01*
X150582190Y-83984458D01*
X150575331Y-83982185D01*
X150408797Y-83927001D01*
X150408795Y-83927000D01*
X150306010Y-83916500D01*
X148905998Y-83916500D01*
X148905981Y-83916501D01*
X148803203Y-83927000D01*
X148803200Y-83927001D01*
X148636668Y-83982185D01*
X148636663Y-83982187D01*
X148487342Y-84074289D01*
X148363289Y-84198342D01*
X148271187Y-84347663D01*
X148271186Y-84347666D01*
X148216001Y-84514203D01*
X148216001Y-84514204D01*
X148216000Y-84514204D01*
X148205500Y-84616983D01*
X148205500Y-85367001D01*
X148205501Y-85367019D01*
X148216000Y-85469796D01*
X148216001Y-85469799D01*
X148271185Y-85636331D01*
X148271186Y-85636334D01*
X148363288Y-85785656D01*
X148487344Y-85909712D01*
X148546596Y-85946258D01*
X148593321Y-85998204D01*
X148605500Y-86051797D01*
X148605500Y-86287642D01*
X148585815Y-86354681D01*
X148569181Y-86375323D01*
X147319323Y-87625181D01*
X147258000Y-87658666D01*
X147231642Y-87661500D01*
X146428000Y-87661500D01*
X146360961Y-87641815D01*
X146315206Y-87589011D01*
X146304000Y-87537500D01*
X146304000Y-85852000D01*
X100584000Y-85852000D01*
X100584000Y-86775500D01*
X100564315Y-86842539D01*
X100511511Y-86888294D01*
X100460000Y-86899500D01*
X89730949Y-86899500D01*
X89676853Y-86884156D01*
X89675882Y-86886240D01*
X89669336Y-86883187D01*
X89669334Y-86883186D01*
X89502797Y-86828001D01*
X89502795Y-86828000D01*
X89400010Y-86817500D01*
X87299998Y-86817500D01*
X87299981Y-86817501D01*
X87197203Y-86828000D01*
X87197200Y-86828001D01*
X87030668Y-86883185D01*
X87024118Y-86886240D01*
X87023146Y-86884156D01*
X86969051Y-86899500D01*
X78258500Y-86899500D01*
X78191461Y-86879815D01*
X78145706Y-86827011D01*
X78134500Y-86775500D01*
X78134500Y-84280552D01*
X78119196Y-84066572D01*
X78101333Y-83984458D01*
X78058371Y-83786962D01*
X78058370Y-83786959D01*
X78058369Y-83786954D01*
X77958367Y-83518839D01*
X77821226Y-83267685D01*
X77748985Y-83171182D01*
X77649745Y-83038612D01*
X77649729Y-83038594D01*
X77447405Y-82836270D01*
X77447387Y-82836254D01*
X77218317Y-82664775D01*
X77218309Y-82664770D01*
X76967166Y-82527635D01*
X76967167Y-82527635D01*
X76859915Y-82487632D01*
X76699046Y-82427631D01*
X76699043Y-82427630D01*
X76699037Y-82427628D01*
X76419433Y-82366804D01*
X76205450Y-82351500D01*
X76205448Y-82351500D01*
X73062552Y-82351500D01*
X73062549Y-82351500D01*
X72848566Y-82366804D01*
X72568962Y-82427628D01*
X72300833Y-82527635D01*
X72049690Y-82664770D01*
X72049682Y-82664775D01*
X71820612Y-82836254D01*
X71820594Y-82836270D01*
X71618270Y-83038594D01*
X71618260Y-83038606D01*
X71555267Y-83122755D01*
X71499333Y-83164626D01*
X71429642Y-83169610D01*
X71368319Y-83136125D01*
X71334834Y-83074802D01*
X71332000Y-83048444D01*
X71332000Y-82804000D01*
X69932000Y-82804000D01*
X69864961Y-82784315D01*
X69819206Y-82731511D01*
X69808000Y-82680000D01*
X69808000Y-79881041D01*
X147231019Y-79881041D01*
X147231019Y-80056476D01*
X147231020Y-80056487D01*
X147271479Y-80227191D01*
X147271479Y-80227192D01*
X147350215Y-80383968D01*
X147350218Y-80383973D01*
X147415475Y-80464081D01*
X147945817Y-80994422D01*
X147996600Y-81035791D01*
X148025922Y-81059678D01*
X148025930Y-81059683D01*
X148182706Y-81138418D01*
X148232321Y-81150178D01*
X148293014Y-81184792D01*
X148325357Y-81246725D01*
X148319083Y-81316312D01*
X148309264Y-81335930D01*
X148271188Y-81397661D01*
X148271186Y-81397666D01*
X148216001Y-81564203D01*
X148216001Y-81564204D01*
X148216000Y-81564204D01*
X148205500Y-81666983D01*
X148205500Y-82417001D01*
X148205501Y-82417019D01*
X148216000Y-82519796D01*
X148216001Y-82519799D01*
X148218598Y-82527635D01*
X148271186Y-82686334D01*
X148363288Y-82835656D01*
X148487344Y-82959712D01*
X148636666Y-83051814D01*
X148803203Y-83106999D01*
X148905991Y-83117500D01*
X150306008Y-83117499D01*
X150408797Y-83106999D01*
X150575334Y-83051814D01*
X150724656Y-82959712D01*
X150848712Y-82835656D01*
X150940814Y-82686334D01*
X150995999Y-82519797D01*
X151006500Y-82417009D01*
X151006499Y-81666992D01*
X150995999Y-81564203D01*
X150940814Y-81397666D01*
X150848712Y-81248344D01*
X150724656Y-81124288D01*
X150724655Y-81124287D01*
X150665402Y-81087739D01*
X150618678Y-81035791D01*
X150606500Y-80982201D01*
X150606500Y-80575456D01*
X150568052Y-80382170D01*
X150568051Y-80382169D01*
X150568051Y-80382165D01*
X150503860Y-80227192D01*
X150492635Y-80200092D01*
X150492628Y-80200079D01*
X150383139Y-80036218D01*
X150383136Y-80036214D01*
X150240686Y-79893764D01*
X150240655Y-79893735D01*
X150127799Y-79780879D01*
X150094314Y-79719556D01*
X150094822Y-79664601D01*
X150110879Y-79596860D01*
X150110879Y-79421418D01*
X150070418Y-79250706D01*
X150070418Y-79250705D01*
X149991682Y-79093929D01*
X149991680Y-79093925D01*
X149926423Y-79013817D01*
X149396081Y-78483476D01*
X149356027Y-78450847D01*
X149315975Y-78418219D01*
X149315967Y-78418214D01*
X149159191Y-78339479D01*
X148988487Y-78299020D01*
X148988482Y-78299019D01*
X148988480Y-78299019D01*
X148813038Y-78299019D01*
X148813036Y-78299019D01*
X148813030Y-78299020D01*
X148642324Y-78339479D01*
X148485548Y-78418215D01*
X148485541Y-78418219D01*
X148405447Y-78483466D01*
X148405429Y-78483482D01*
X147415483Y-79473429D01*
X147415464Y-79473450D01*
X147350223Y-79553536D01*
X147350214Y-79553549D01*
X147271479Y-79710324D01*
X147231020Y-79881030D01*
X147231019Y-79881041D01*
X69808000Y-79881041D01*
X69808000Y-73899270D01*
X69808073Y-73872283D01*
X69808077Y-73871604D01*
X69808294Y-73845073D01*
X69808297Y-73844735D01*
X69809177Y-73764053D01*
X69809226Y-73761686D01*
X69812391Y-73656232D01*
X69812619Y-73651584D01*
X69819814Y-73546201D01*
X69819985Y-73544009D01*
X69829288Y-73437679D01*
X69829533Y-73435191D01*
X69852841Y-73222362D01*
X69853546Y-73217008D01*
X69861082Y-73168044D01*
X69885896Y-73006826D01*
X69886833Y-73001518D01*
X69891584Y-72977631D01*
X69928317Y-72792958D01*
X69929486Y-72787689D01*
X69929632Y-72787092D01*
X69980030Y-72581130D01*
X69981408Y-72575986D01*
X70040935Y-72371760D01*
X70042557Y-72366617D01*
X70110908Y-72165259D01*
X70112740Y-72160225D01*
X70189829Y-71961992D01*
X70191876Y-71957048D01*
X70277536Y-71762370D01*
X70279780Y-71757557D01*
X70373893Y-71566713D01*
X70376325Y-71562041D01*
X70478640Y-71375546D01*
X70481331Y-71370888D01*
X70483995Y-71366499D01*
X70591647Y-71189091D01*
X70594546Y-71184540D01*
X70637670Y-71120000D01*
X78446353Y-71120000D01*
X78466834Y-71262456D01*
X78526622Y-71393371D01*
X78526623Y-71393373D01*
X78620872Y-71502143D01*
X78741947Y-71579953D01*
X78741950Y-71579954D01*
X78741949Y-71579954D01*
X78880036Y-71620499D01*
X78880038Y-71620500D01*
X78880039Y-71620500D01*
X79023962Y-71620500D01*
X79023962Y-71620499D01*
X79162053Y-71579953D01*
X79283128Y-71502143D01*
X79377377Y-71393373D01*
X79437165Y-71262457D01*
X79457647Y-71120000D01*
X79437165Y-70977543D01*
X79377377Y-70846627D01*
X79283128Y-70737857D01*
X79162053Y-70660047D01*
X79162051Y-70660046D01*
X79162049Y-70660045D01*
X79162050Y-70660045D01*
X79023963Y-70619500D01*
X79023961Y-70619500D01*
X78880039Y-70619500D01*
X78880036Y-70619500D01*
X78741949Y-70660045D01*
X78620873Y-70737856D01*
X78526623Y-70846626D01*
X78526622Y-70846628D01*
X78466834Y-70977543D01*
X78446353Y-71120000D01*
X70637670Y-71120000D01*
X70712716Y-71007686D01*
X70715764Y-71003334D01*
X70841538Y-70831798D01*
X70844802Y-70827546D01*
X70977907Y-70661702D01*
X70981367Y-70657577D01*
X71121594Y-70497678D01*
X71125235Y-70493706D01*
X71272264Y-70340117D01*
X71276069Y-70336310D01*
X71429719Y-70189221D01*
X71433677Y-70185595D01*
X71593569Y-70045373D01*
X71597672Y-70041931D01*
X71763550Y-69908798D01*
X71767806Y-69905533D01*
X71939300Y-69779789D01*
X71943699Y-69776709D01*
X72120563Y-69658530D01*
X72125078Y-69655655D01*
X72306887Y-69545332D01*
X72311547Y-69542640D01*
X72498010Y-69440343D01*
X72502761Y-69437870D01*
X72693484Y-69343816D01*
X72698367Y-69341538D01*
X72893052Y-69255874D01*
X72898003Y-69253824D01*
X73096224Y-69176740D01*
X73101258Y-69174908D01*
X73302632Y-69106551D01*
X73307759Y-69104935D01*
X73511985Y-69045408D01*
X73517129Y-69044030D01*
X73723701Y-68993483D01*
X73728957Y-68992317D01*
X73937542Y-68950828D01*
X73942798Y-68949900D01*
X74153033Y-68917542D01*
X74158345Y-68916842D01*
X74371181Y-68893534D01*
X74373678Y-68893288D01*
X74480008Y-68883985D01*
X74482192Y-68883814D01*
X74587588Y-68876618D01*
X74592229Y-68876391D01*
X74697728Y-68873225D01*
X74700006Y-68873177D01*
X74780733Y-68872297D01*
X74807700Y-68872076D01*
X74808209Y-68872073D01*
X74834652Y-68872001D01*
X74835269Y-68872000D01*
X93986479Y-68872000D01*
X94053518Y-68891685D01*
G37*
%TD.AperFunction*%
%TD*%
M02*
