%TF.GenerationSoftware,KiCad,Pcbnew,8.0.5*%
%TF.CreationDate,2024-11-15T12:50:47+01:00*%
%TF.ProjectId,LISN_5u,4c49534e-5f35-4752-9e6b-696361645f70,rev?*%
%TF.SameCoordinates,Original*%
%TF.FileFunction,Soldermask,Top*%
%TF.FilePolarity,Negative*%
%FSLAX46Y46*%
G04 Gerber Fmt 4.6, Leading zero omitted, Abs format (unit mm)*
G04 Created by KiCad (PCBNEW 8.0.5) date 2024-11-15 12:50:47*
%MOMM*%
%LPD*%
G01*
G04 APERTURE LIST*
G04 Aperture macros list*
%AMRoundRect*
0 Rectangle with rounded corners*
0 $1 Rounding radius*
0 $2 $3 $4 $5 $6 $7 $8 $9 X,Y pos of 4 corners*
0 Add a 4 corners polygon primitive as box body*
4,1,4,$2,$3,$4,$5,$6,$7,$8,$9,$2,$3,0*
0 Add four circle primitives for the rounded corners*
1,1,$1+$1,$2,$3*
1,1,$1+$1,$4,$5*
1,1,$1+$1,$6,$7*
1,1,$1+$1,$8,$9*
0 Add four rect primitives between the rounded corners*
20,1,$1+$1,$2,$3,$4,$5,0*
20,1,$1+$1,$4,$5,$6,$7,0*
20,1,$1+$1,$6,$7,$8,$9,0*
20,1,$1+$1,$8,$9,$2,$3,0*%
G04 Aperture macros list end*
%ADD10RoundRect,0.250000X-1.100000X0.325000X-1.100000X-0.325000X1.100000X-0.325000X1.100000X0.325000X0*%
%ADD11RoundRect,0.200000X-0.275000X0.200000X-0.275000X-0.200000X0.275000X-0.200000X0.275000X0.200000X0*%
%ADD12C,1.000000*%
%ADD13RoundRect,0.250000X-0.600000X0.400000X-0.600000X-0.400000X0.600000X-0.400000X0.600000X0.400000X0*%
%ADD14C,3.600000*%
%ADD15C,5.600000*%
%ADD16RoundRect,0.250000X-0.689429X-0.229810X-0.229810X-0.689429X0.689429X0.229810X0.229810X0.689429X0*%
%ADD17R,2.700000X2.200000*%
%ADD18RoundRect,0.200000X-0.200000X-0.275000X0.200000X-0.275000X0.200000X0.275000X-0.200000X0.275000X0*%
%ADD19RoundRect,1.500000X-1.500000X-1.500000X1.500000X-1.500000X1.500000X1.500000X-1.500000X1.500000X0*%
%ADD20RoundRect,0.250000X-0.650000X0.325000X-0.650000X-0.325000X0.650000X-0.325000X0.650000X0.325000X0*%
%ADD21RoundRect,0.250000X-0.250000X-0.475000X0.250000X-0.475000X0.250000X0.475000X-0.250000X0.475000X0*%
%ADD22RoundRect,0.050000X-0.167938X0.309359X-0.309359X0.167938X0.167938X-0.309359X0.309359X-0.167938X0*%
%ADD23RoundRect,0.250000X-1.000000X1.950000X-1.000000X-1.950000X1.000000X-1.950000X1.000000X1.950000X0*%
%ADD24R,4.500000X1.550000*%
%ADD25R,4.550000X1.550000*%
%ADD26R,1.270000X3.600000*%
%ADD27R,1.350000X4.200000*%
G04 APERTURE END LIST*
D10*
%TO.C,C106*%
X96266000Y-89711000D03*
X96266000Y-92661000D03*
%TD*%
D11*
%TO.C,R111*%
X136144000Y-76899000D03*
X136144000Y-78549000D03*
%TD*%
%TO.C,R108*%
X107442000Y-76962000D03*
X107442000Y-78612000D03*
%TD*%
D12*
%TO.C,FID103*%
X149564000Y-70866000D03*
%TD*%
D13*
%TO.C,D102*%
X114808000Y-71628000D03*
X114808000Y-75128000D03*
%TD*%
D14*
%TO.C,H103*%
X154898000Y-113792000D03*
D15*
X154898000Y-113792000D03*
%TD*%
D14*
%TO.C,H101*%
X74634000Y-73660000D03*
D15*
X74634000Y-73660000D03*
%TD*%
D16*
%TO.C,C103*%
X146584983Y-77652983D03*
X148670949Y-79738949D03*
%TD*%
D14*
%TO.C,H104*%
X74634000Y-113792000D03*
D15*
X74634000Y-113792000D03*
%TD*%
D17*
%TO.C,L106*%
X139426000Y-89662000D03*
X144526000Y-89662000D03*
%TD*%
D18*
%TO.C,R106*%
X117031000Y-76200000D03*
X118681000Y-76200000D03*
%TD*%
D19*
%TO.C,X104*%
X72856000Y-101854000D03*
%TD*%
D14*
%TO.C,H102*%
X154644000Y-73660000D03*
D15*
X154644000Y-73660000D03*
%TD*%
D11*
%TO.C,R101*%
X107442000Y-73851000D03*
X107442000Y-75501000D03*
%TD*%
%TO.C,R102*%
X112268000Y-73851000D03*
X112268000Y-75501000D03*
%TD*%
D18*
%TO.C,R105*%
X109157000Y-76200000D03*
X110807000Y-76200000D03*
%TD*%
D12*
%TO.C,FID102*%
X157438000Y-108458000D03*
%TD*%
%TO.C,FID104*%
X78952000Y-71120000D03*
%TD*%
D18*
%TO.C,R107*%
X137859000Y-76200000D03*
X139509000Y-76200000D03*
%TD*%
D17*
%TO.C,L103*%
X111740000Y-89662000D03*
X116840000Y-89662000D03*
%TD*%
%TO.C,L104*%
X121138000Y-89662000D03*
X126238000Y-89662000D03*
%TD*%
D19*
%TO.C,X102*%
X74634000Y-85852000D03*
%TD*%
D10*
%TO.C,C105*%
X80772000Y-89711000D03*
X80772000Y-92661000D03*
%TD*%
D13*
%TO.C,D104*%
X114808000Y-76962000D03*
X114808000Y-80462000D03*
%TD*%
D20*
%TO.C,C104*%
X149606000Y-82042000D03*
X149606000Y-84992000D03*
%TD*%
D13*
%TO.C,D103*%
X105156000Y-77244000D03*
X105156000Y-80744000D03*
%TD*%
D17*
%TO.C,L102*%
X102342000Y-89662000D03*
X107442000Y-89662000D03*
%TD*%
D21*
%TO.C,C101*%
X122306001Y-76200000D03*
X124206001Y-76200000D03*
%TD*%
D22*
%TO.C,D105*%
X97240000Y-74618315D03*
X96957158Y-74901158D03*
X96674315Y-75184000D03*
X97293034Y-75802719D03*
X97575876Y-75519876D03*
X97858719Y-75237034D03*
%TD*%
D17*
%TO.C,L105*%
X130282000Y-89662000D03*
X135382000Y-89662000D03*
%TD*%
D19*
%TO.C,X105*%
X156676000Y-101854000D03*
%TD*%
D11*
%TO.C,R109*%
X112268000Y-76962000D03*
X112268000Y-78612000D03*
%TD*%
D12*
%TO.C,FID101*%
X77682000Y-116840000D03*
%TD*%
D11*
%TO.C,R103*%
X136144000Y-73851000D03*
X136144000Y-75501000D03*
%TD*%
D21*
%TO.C,C102*%
X132400000Y-76200000D03*
X134300000Y-76200000D03*
%TD*%
D23*
%TO.C,C107*%
X88350000Y-89518000D03*
X88350000Y-96918000D03*
%TD*%
D13*
%TO.C,D101*%
X105156000Y-71938000D03*
X105156000Y-75438000D03*
%TD*%
D24*
%TO.C,L101*%
X128524000Y-75945999D03*
D25*
X128524000Y-72095999D03*
%TD*%
D11*
%TO.C,R112*%
X141224000Y-76899000D03*
X141224000Y-78549000D03*
%TD*%
%TO.C,R104*%
X141224000Y-73851000D03*
X141224000Y-75501000D03*
%TD*%
D26*
%TO.C,X101*%
X95208000Y-71010500D03*
D27*
X98033000Y-71210500D03*
X92383000Y-71210500D03*
%TD*%
D19*
%TO.C,X103*%
X154898000Y-85852000D03*
%TD*%
D11*
%TO.C,R110*%
X120396000Y-76391000D03*
X120396000Y-78041000D03*
%TD*%
M02*
