M48
; DRILL file {KiCad 8.0.5} date 2024-11-15T12:50:45+0100
; FORMAT={-:-/ absolute / metric / decimal}
; #@! TF.CreationDate,2024-11-15T12:50:45+01:00
; #@! TF.GenerationSoftware,Kicad,Pcbnew,8.0.5
; #@! TF.FileFunction,Plated,1,2,PTH
FMAT,2
METRIC
; #@! TA.AperFunction,Plated,PTH,ViaDrill
T1C0.200
; #@! TA.AperFunction,Plated,PTH,ComponentDrill
T2C3.200
%
G90
G05
T1
X70.233Y-74.923
X70.233Y-77.483
X70.233Y-80.043
X70.233Y-90.284
X70.233Y-92.844
X70.233Y-95.405
X70.233Y-97.965
X70.233Y-105.646
X70.233Y-108.206
X70.233Y-110.766
X70.233Y-113.326
X70.316Y-82.296
X70.824Y-72.644
X70.824Y-115.57
X71.586Y-116.84
X71.84Y-71.12
X71.84Y-81.534
X72.094Y-90.424
X72.094Y-98.044
X72.602Y-105.918
X72.856Y-94.234
X73.11Y-117.856
X73.364Y-70.104
X73.618Y-81.534
X73.872Y-90.424
X74.126Y-98.044
X74.38Y-105.918
X74.81Y-69.259
X74.888Y-81.534
X75.142Y-91.694
X75.354Y-118.447
X75.904Y-75.438
X76.158Y-98.044
X76.158Y-105.918
X76.92Y-98.806
X76.92Y-100.838
X76.92Y-102.87
X76.92Y-104.902
X77.174Y-81.534
X77.371Y-69.259
X77.428Y-91.694
X77.914Y-118.447
X77.936Y-110.744
X78.444Y-82.804
X78.444Y-92.71
X78.698Y-84.582
X79.206Y-85.852
X79.931Y-69.259
X80.474Y-118.447
X80.73Y-94.234
X81.238Y-85.852
X81.746Y-103.378
X82.254Y-110.744
X82.491Y-69.259
X82.762Y-92.71
X83.034Y-118.447
X83.27Y-85.852
X84.032Y-83.566
X84.286Y-75.438
X85.051Y-69.259
X85.302Y-85.852
X85.556Y-91.948
X85.595Y-118.447
X86.064Y-96.012
X86.064Y-99.06
X87.334Y-85.852
X87.334Y-100.838
X87.588Y-104.648
X87.612Y-69.259
X88.155Y-118.447
X88.35Y-93.218
X89.112Y-100.838
X89.366Y-85.852
X90.128Y-100.076
X90.172Y-69.259
X90.382Y-70.866
X90.382Y-71.882
X90.382Y-73.406
X90.382Y-94.488
X90.636Y-96.52
X90.636Y-99.314
X90.715Y-118.447
X91.144Y-74.676
X91.144Y-91.948
X91.398Y-80.01
X91.398Y-85.852
X92.414Y-74.676
X92.668Y-85.852
X93.176Y-84.582
X93.275Y-118.447
X93.43Y-74.676
X93.684Y-92.71
X93.684Y-112.268
X94.446Y-85.852
X95.295Y-75.017
X95.836Y-118.447
X95.97Y-85.852
X96.014Y-75.736
X96.224Y-93.98
X96.732Y-76.454
X97.581Y-77.303
X98.256Y-85.852
X98.3Y-78.022
X98.396Y-118.447
X98.51Y-93.218
X99.018Y-78.74
X99.526Y-85.852
X99.526Y-91.44
X99.526Y-103.632
X99.78Y-70.358
X99.78Y-71.374
X99.78Y-72.39
X99.78Y-73.914
X100.413Y-69.259
X100.542Y-98.552
X100.796Y-74.422
X100.796Y-78.74
X100.956Y-118.447
X101.812Y-74.422
X101.812Y-78.74
X102.066Y-85.344
X102.32Y-93.98
X102.828Y-74.422
X102.828Y-78.74
X102.973Y-69.259
X103.082Y-80.518
X103.516Y-118.447
X103.59Y-71.882
X103.844Y-111.506
X104.098Y-85.344
X104.352Y-93.98
X105.114Y-70.612
X105.114Y-82.042
X105.534Y-69.259
X106.077Y-118.447
X106.13Y-85.344
X106.384Y-93.98
X106.638Y-71.882
X107.654Y-72.644
X107.654Y-80.264
X108.094Y-69.259
X108.162Y-85.344
X108.162Y-98.806
X108.416Y-93.98
X108.637Y-118.447
X108.67Y-104.14
X108.924Y-74.168
X108.924Y-78.232
X110.194Y-85.344
X110.448Y-93.98
X110.654Y-69.259
X110.702Y-74.168
X110.702Y-78.232
X111.197Y-118.447
X112.226Y-72.644
X112.226Y-80.01
X112.226Y-85.344
X112.48Y-93.98
X112.988Y-71.628
X113.214Y-69.259
X113.757Y-118.447
X114.258Y-85.344
X114.512Y-70.358
X114.512Y-93.98
X114.766Y-82.042
X115.775Y-69.259
X116.036Y-110.236
X116.29Y-85.344
X116.318Y-118.447
X116.544Y-71.628
X116.544Y-93.98
X116.798Y-80.518
X117.052Y-74.422
X117.052Y-78.232
X117.814Y-98.552
X118.068Y-74.422
X118.322Y-85.344
X118.335Y-69.259
X118.576Y-93.98
X118.83Y-78.232
X118.878Y-118.447
X119.084Y-74.422
X120.354Y-79.248
X120.354Y-85.344
X120.608Y-72.39
X120.608Y-93.98
X120.862Y-74.422
X120.895Y-69.259
X121.37Y-104.648
X121.438Y-118.447
X121.878Y-74.422
X122.132Y-78.232
X122.386Y-85.344
X122.64Y-93.98
X122.894Y-74.422
X123.455Y-69.259
X123.998Y-118.447
X124.164Y-78.232
X124.418Y-85.344
X124.672Y-93.98
X124.926Y-71.12
X124.926Y-72.136
X124.926Y-73.152
X126.016Y-69.259
X126.196Y-85.344
X126.45Y-78.232
X126.45Y-93.98
X126.559Y-118.447
X127.466Y-70.358
X127.466Y-81.28
X128.228Y-85.344
X128.482Y-77.978
X128.482Y-93.98
X128.482Y-111.252
X128.482Y-70.358
X128.576Y-69.259
X128.99Y-99.314
X129.119Y-118.447
X129.498Y-70.358
X129.752Y-78.232
X130.26Y-85.344
X130.514Y-93.98
X131.136Y-69.259
X131.53Y-78.232
X131.679Y-118.447
X132.038Y-71.12
X132.038Y-72.136
X132.038Y-73.152
X132.038Y-74.422
X132.292Y-85.344
X132.546Y-93.98
X132.8Y-104.14
X133.696Y-69.259
X134.07Y-74.422
X134.07Y-78.232
X134.239Y-118.447
X134.324Y-85.344
X134.578Y-93.98
X135.086Y-73.914
X136.102Y-72.644
X136.102Y-80.01
X136.257Y-69.259
X136.356Y-85.344
X136.61Y-93.98
X136.8Y-118.447
X137.626Y-73.914
X137.88Y-78.232
X137.88Y-98.552
X138.388Y-85.344
X138.642Y-93.98
X138.817Y-69.259
X139.36Y-118.447
X139.658Y-78.232
X140.166Y-73.914
X140.166Y-112.268
X140.42Y-85.344
X140.674Y-93.98
X141.182Y-72.644
X141.377Y-69.259
X141.436Y-80.01
X141.92Y-118.447
X142.452Y-73.914
X142.452Y-85.344
X142.706Y-93.98
X143.468Y-78.232
X143.937Y-69.259
X144.481Y-118.447
X144.484Y-85.344
X144.738Y-93.98
X144.992Y-80.01
X146.498Y-69.259
X146.516Y-74.676
X146.77Y-81.534
X146.77Y-86.614
X146.77Y-101.854
X147.024Y-85.09
X147.041Y-118.447
X147.278Y-82.55
X147.278Y-83.82
X147.532Y-114.046
X147.786Y-92.202
X147.786Y-109.982
X148.294Y-95.758
X149.012Y-77.172
X149.058Y-69.259
X149.601Y-118.447
X150.072Y-92.202
X150.58Y-73.152
X151.088Y-79.502
X151.088Y-83.566
X151.596Y-82.042
X151.596Y-90.932
X151.618Y-69.259
X152.104Y-98.552
X152.104Y-100.33
X152.104Y-102.362
X152.104Y-104.394
X152.161Y-118.447
X152.612Y-89.662
X152.866Y-97.536
X153.12Y-82.042
X153.12Y-105.664
X154.178Y-69.259
X154.644Y-75.692
X154.644Y-89.662
X154.722Y-118.447
X154.898Y-97.536
X155.152Y-105.664
X155.406Y-82.042
X155.914Y-89.408
X156.422Y-69.85
X156.676Y-117.602
X156.93Y-97.536
X157.184Y-82.042
X157.184Y-105.664
X157.438Y-70.866
X157.438Y-89.916
X157.946Y-116.586
X158.708Y-72.136
X159.216Y-105.41
X159.299Y-74.38
X159.299Y-76.94
X159.299Y-79.5
X159.299Y-82.06
X159.299Y-89.741
X159.299Y-92.301
X159.299Y-94.862
X159.299Y-97.422
X159.299Y-107.663
X159.299Y-110.223
X159.299Y-112.783
X159.299Y-115.344
T2
X74.634Y-73.66
X74.634Y-113.792
X154.644Y-73.66
X154.898Y-113.792
M30
